<svg xmlns="http://www.w3.org/2000/svg" xmlns:xlink="http://www.w3.org/1999/xlink" width="185.411" height="116.411" viewBox="0 0 185.411 116.411"><defs><style>.cls-1{fill:#a1d9f6;}.cls-2{fill:#fff;}.cls-14,.cls-17,.cls-18,.cls-3,.cls-6,.cls-7,.cls-8{fill:none;}.cls-18,.cls-3,.cls-6,.cls-7,.cls-8{stroke:#221e1f;}.cls-3{stroke-width:0.411px;}.cls-4{clip-path:url(#clip-path);}.cls-5{fill:#d2ecfb;}.cls-14,.cls-6,.cls-7{stroke-width:0.481px;}.cls-18,.cls-7,.cls-8{stroke-miterlimit:5;}.cls-8{stroke-width:0.499px;}.cls-12,.cls-9{fill:#221e1f;}.cls-10{fill:#dd2326;}.cls-11{fill:#8d7229;}.cls-12{stroke:#000;}.cls-12,.cls-13{stroke-width:0.198px;}.cls-13{fill:#0b74bc;stroke:#0b74bc;}.cls-14{stroke:#dd2326;}.cls-14,.cls-17{stroke-miterlimit:10;}.cls-15{fill:#212121;}.cls-16{fill:#f4beb2;}.cls-17{stroke:#212121;stroke-width:0.823px;}.cls-18{stroke-width:0.583px;}</style><clipPath id="clip-path"><rect class="cls-1" x="127.303" y="33.788" width="51.249" height="62.904"/></clipPath></defs><title>22</title><g id="レイヤー_2" data-name="レイヤー 2"><g id="レイヤー_1-2" data-name="レイヤー 1"><rect class="cls-2" x="0.206" y="0.206" width="185" height="116" rx="3.291" ry="3.291"/><rect class="cls-3" x="0.206" y="0.206" width="185" height="116" rx="3.291" ry="3.291"/><rect class="cls-1" x="127.303" y="33.788" width="51.249" height="62.904"/><g class="cls-4"><rect class="cls-5" x="126.488" y="33.788" width="52.064" height="62.904"/></g><path class="cls-2" d="M160.2,72.713h-1.279V71.529c4.584-2.752,7.746-8.482,7.746-15.121,0-9.316-6.205-16.868-13.859-16.868s-13.856,7.552-13.856,16.868c0,6.395,2.927,11.962,7.239,14.822v1.483H144.84c-8.695,0-15.81,8.148-15.81,14.243v9.6h46.98v-9.6C176.01,80.861,168.9,72.713,160.2,72.713Z"/><rect class="cls-6" x="6.787" y="24.461" width="171.742" height="85.824" rx="4.117" ry="4.117"/><line class="cls-7" x1="6.907" y1="33.822" x2="178.529" y2="33.822"/><line class="cls-8" x1="22.86" y1="7.982" x2="22.86" y2="15.767"/><line class="cls-7" x1="18.174" y1="80.806" x2="18.174" y2="109.976"/><line class="cls-8" x1="115.472" y1="7.982" x2="115.472" y2="15.575"/><line class="cls-7" x1="6.907" y1="89.414" x2="18.164" y2="89.414"/><line class="cls-7" x1="6.907" y1="96.092" x2="18.333" y2="96.092"/><line class="cls-7" x1="6.907" y1="101.945" x2="18.333" y2="101.945"/><line class="cls-7" x1="22.287" y1="24.461" x2="22.287" y2="41.534"/><path class="cls-9" d="M14.562,11.516H12.754c.212,1.3.662,2.264,1.28,2.264.189,0,.256-.234.295-.868a1,1,0,0,0,.317.195c-.067.823-.217,1.057-.634,1.057-.885-.006-1.413-1.135-1.647-2.648h-1.8V13.48c.562-.1,1.207-.212,1.825-.329.017.268.022.3.022.334-.962.206-1.991.412-2.631.529a.119.119,0,0,1-.078.089l-.167-.451c.189-.028.406-.067.651-.111V9.525l.362.105a21.563,21.563,0,0,0,3.276-.617l.317.334a.089.089,0,0,1-.061.016.236.236,0,0,1-.056,0c-.367.1-.84.211-1.357.306h.061c0,.05-.033.077-.117.089a11.1,11.1,0,0,0,.084,1.39h1.863Zm-3.994-.373h1.741c-.05-.445-.083-.923-.094-1.4-.54.084-1.107.162-1.647.228Z"/><path class="cls-9" d="M19.784,11.766v2.387H19.4v-.234H17v.223h-.367V12.306a6.742,6.742,0,0,1-1.435.656,1.307,1.307,0,0,0-.212-.328,6.342,6.342,0,0,0,2.12-1.107,5.714,5.714,0,0,0-.9-.784l.279-.228a5.515,5.515,0,0,1,.918.762,4.784,4.784,0,0,0,1.084-1.4H16.719a6.251,6.251,0,0,1-1.429,1.207,1.18,1.18,0,0,0-.267-.284,5.047,5.047,0,0,0,1.886-1.847l.5.084c-.011.044-.05.072-.122.072a4.644,4.644,0,0,1-.295.428H18.7l.067-.022.273.145a.173.173,0,0,1-.073.05A5.29,5.29,0,0,1,17.4,11.766ZM17,13.574h2.4V12.111H17Z"/><path class="cls-9" d="M10.091,28.155a6.4,6.4,0,0,1-.654.9,2.719,2.719,0,0,0-.188-.338A7.141,7.141,0,0,0,10.59,26.3l.429.145a.113.113,0,0,1-.123.048A9.8,9.8,0,0,1,10.4,27.6l.145.037c-.011.032-.037.059-.107.064v3.557h-.349ZM12.8,30.709h1.556v.343H10.831v-.343h1.6V29.281H11.158v-.343h1.277V27.694H10.976v-.343H12.9a7.217,7.217,0,0,0-1.17-.848l.236-.258a7.314,7.314,0,0,1,1.2.832l-.236.274H14.28v.343H12.8v1.244h1.314v.343H12.8Z"/><path class="cls-9" d="M17.015,29.169H15.4a4.156,4.156,0,0,1-.488,2.081,1.194,1.194,0,0,0-.284-.22,3.855,3.855,0,0,0,.424-2.049V27.5h1.963Zm.166-2.607v.332h-2.4v-.332Zm-.515,1.271H15.4v1.009h1.266Zm3.095.285v.348h-.638V31.25h-.354V28.466h-1a4.121,4.121,0,0,1-.922,2.763.839.839,0,0,0-.268-.247,3.851,3.851,0,0,0,.836-2.725V26.825l.279.075a7.722,7.722,0,0,0,1.615-.569l.349.29a.115.115,0,0,1-.108.021,11.007,11.007,0,0,1-1.781.563v.913Z"/><path class="cls-9" d="M11.062,37.1a3.583,3.583,0,0,0,.805,1.239,3.406,3.406,0,0,0,.8-1.271l.451.15c-.011.033-.059.054-.124.049a3.818,3.818,0,0,1-.858,1.314,4.674,4.674,0,0,0,2.232.928,1.7,1.7,0,0,0-.242.343,4.836,4.836,0,0,1-2.274-1.019,5.578,5.578,0,0,1-2.269,1.035,1.756,1.756,0,0,0-.209-.327,5.293,5.293,0,0,0,2.215-.955,4.171,4.171,0,0,1-.874-1.378Zm.258-.783c-.017.043-.065.048-.119.043a5.752,5.752,0,0,1-1.48,1.277,1.874,1.874,0,0,0-.268-.274,4.474,4.474,0,0,0,1.437-1.228Zm2.917-.724v.354H9.474V35.6h2.189v-.73l.472.027c-.006.038-.032.064-.107.075V35.6Zm-.268,2a8.1,8.1,0,0,0-1.448-1.25l.295-.214a8.512,8.512,0,0,1,1.47,1.212Z"/><path class="cls-9" d="M15.524,36.776a5.781,5.781,0,0,1-.692.917,3.087,3.087,0,0,0-.193-.338,6.824,6.824,0,0,0,1.389-2.446l.44.145a.124.124,0,0,1-.123.054,9.818,9.818,0,0,1-.51,1.132l.15.042c0,.038-.037.059-.1.07v3.5h-.359Zm4.2-.692v.36h-.751v2.9c0,.284-.081.4-.269.456a4.211,4.211,0,0,1-1.1.064,1.817,1.817,0,0,0-.14-.365c.225.005.44.011.617.011.5,0,.531,0,.531-.166v-2.9H16.339v-.36h2.269V34.936l.467.027c0,.037-.032.064-.107.075v1.046Zm-2.742.944a5.714,5.714,0,0,1,.837,1.346l-.332.172a6.008,6.008,0,0,0-.816-1.368Z"/><path class="cls-9" d="M12,57.152c0,.024-.032.045-.08.053-.113.627-.346,1.081-1.323,1.31a.947.947,0,0,0-.153-.233c.9-.193,1.118-.575,1.2-1.17Zm.9.933c0,.113.036.133.209.133h.611c.165,0,.193-.073.209-.579a.8.8,0,0,0,.253.112c-.036.583-.112.724-.442.724H13.08c-.366,0-.463-.084-.463-.39V57.052h-1.74V56.007a2.48,2.48,0,0,1-.234.168.839.839,0,0,0-.193-.2,3.5,3.5,0,0,0,1.174-1.222l.354.061c-.008.032-.036.052-.088.052-.041.068-.089.141-.141.217H12.81l.044-.016.21.133a.067.067,0,0,1-.057.032,3.813,3.813,0,0,1-.39.547h1.23v1.274h-.88a.087.087,0,0,1-.072.036Zm-.6-2.307a3.027,3.027,0,0,0,.345-.463H11.576a4.542,4.542,0,0,1-.43.463Zm-1.15.245v.784h1.025v-.784Zm2.42.784v-.784h-1.13v.784Z"/><path class="cls-9" d="M16.073,55.444v.225H14.465v-.225Zm-.165,1.64v1.182H14.9v.189h-.242V57.084Zm-1.251-.872v-.221H15.92v.221Zm0,.546v-.221H15.92v.221Zm1.263-1.849v.221H14.678v-.221Zm-.257,2.4H14.9v.724h.768Zm2.56-.623v.261H17.3V58.5h-.274V56.951h-.973V56.69h.973V55.633h-.422a3.324,3.324,0,0,1-.386.76A1.11,1.11,0,0,0,16,56.252a4.316,4.316,0,0,0,.587-1.5l.334.085c-.008.028-.036.04-.089.04-.04.165-.088.334-.14.5h1.427v.253H17.3V56.69Z"/><path class="cls-9" d="M20.6,55.5a.1.1,0,0,1-.1.064c-.145,1.251-.563,2.34-1.231,2.34-.337,0-.643-.338-.643-.973a1.764,1.764,0,0,1,1.809-1.773,1.489,1.489,0,0,1,1.665,1.52c0,.957-.555,1.419-1.528,1.644a1.594,1.594,0,0,0-.169-.245c.925-.177,1.4-.627,1.4-1.387a1.233,1.233,0,0,0-1.367-1.266,1.133,1.133,0,0,0-.12.008Zm-.386-.052A1.479,1.479,0,0,0,18.9,56.919c0,.43.185.7.378.7C19.761,57.619,20.111,56.545,20.211,55.444Z"/><path class="cls-9" d="M14.121,62.1H12.7a3.451,3.451,0,0,0,1.495.905,1.107,1.107,0,0,0-.185.229,3.75,3.75,0,0,1-1.568-1.069V63.33h-.273V62.165a3.981,3.981,0,0,1-1.556,1.089,1.318,1.318,0,0,0-.177-.225,3.631,3.631,0,0,0,1.48-.925H10.507v-.245h1.66v-.454l.354.02c0,.032-.028.052-.081.056v.378h1.681Zm-.877-2.142.2.112a.109.109,0,0,1-.048.036,2.634,2.634,0,0,1-.816.857,5.134,5.134,0,0,0,1.58.446,1.057,1.057,0,0,0-.161.241,4.97,4.97,0,0,1-1.664-.535,5.517,5.517,0,0,1-1.689.6.844.844,0,0,0-.128-.245,5.28,5.28,0,0,0,1.568-.51,2.582,2.582,0,0,1-.611-.555,3.559,3.559,0,0,1-.7.486.821.821,0,0,0-.193-.2,2.961,2.961,0,0,0,1.246-1.113l.354.06c-.008.028-.036.048-.088.048a3.039,3.039,0,0,1-.2.282h1.3Zm-1.559.253-.024.024a2.313,2.313,0,0,0,.667.587A2.437,2.437,0,0,0,13,60.215Z"/><path class="cls-9" d="M15.015,61.015a4.767,4.767,0,0,1-.49.671,2,2,0,0,0-.141-.253,5.352,5.352,0,0,0,1-1.809l.322.108c-.016.029-.044.041-.093.037a7.227,7.227,0,0,1-.37.832l.109.028c-.008.024-.028.044-.08.048v2.665h-.262Zm3.22.659v.261H17.029v1.4H16.76v-1.4H15.506v-.261H16.76V60.7h-.724a3.643,3.643,0,0,1-.353.652,1.933,1.933,0,0,0-.221-.129,4.442,4.442,0,0,0,.611-1.447l.325.088c-.012.028-.04.044-.088.044-.049.177-.109.358-.173.535h.623v-.8l.354.02c0,.032-.028.052-.085.056v.72h1.054V60.7H17.029v.977Z"/><path class="cls-9" d="M19.431,60.657a2.215,2.215,0,0,0-.173-.47h-.176a2.765,2.765,0,0,1-.382.522,1.676,1.676,0,0,0-.209-.144,2.731,2.731,0,0,0,.595-.989l.313.1a.076.076,0,0,1-.084.036c-.032.081-.069.161-.109.242h1.1v.233h-.78a2.831,2.831,0,0,1,.149.386Zm2.79-.7v.233H21.26a2.054,2.054,0,0,1,.238.39l-.234.1a1.858,1.858,0,0,0-.3-.494h-.31a2.491,2.491,0,0,1-.273.337l.193.012c0,.029-.024.045-.08.053v.237h1.318v.233H20.5v.39h1.716v.237h-.824c-.008.02-.028.032-.072.044v.33h.735V62.3h-.735v.708c0,.321-.173.325-.853.325a1.137,1.137,0,0,0-.1-.257c.165,0,.314.008.418.008.225,0,.253,0,.253-.084v-.7H18.716V62.06h2.323v-.374H18.523v-.237h1.7v-.39H18.933v-.233h1.286v-.165a2.382,2.382,0,0,0-.2-.145,2.229,2.229,0,0,0,.66-.94l.321.1c-.012.032-.048.04-.084.036a2.284,2.284,0,0,1-.117.246ZM19.97,63.125a2.833,2.833,0,0,0-.716-.607l.189-.16a2.881,2.881,0,0,1,.724.59Z"/><path class="cls-10" d="M130.751,104.008c-.012.029-.045.041-.093.041a4.971,4.971,0,0,1-1.117,1.608,1.308,1.308,0,0,0-.238-.185,4.224,4.224,0,0,0,1.094-1.584Zm.426,1.335a.1.1,0,0,1-.1.052A14.974,14.974,0,0,1,130.32,107c.567-.016,1.239-.04,1.886-.064-.193-.273-.418-.567-.619-.8l.253-.121a9.481,9.481,0,0,1,1,1.359l-.269.149c-.053-.1-.125-.217-.209-.346-1.009.06-2.083.105-2.75.133a.077.077,0,0,1-.064.056l-.113-.338.575-.016a12.186,12.186,0,0,0,.788-1.769Zm.639-1.455a6.205,6.205,0,0,0,1.174,1.539,1.322,1.322,0,0,0-.225.23,8.608,8.608,0,0,1-1.21-1.661Z"/><path class="cls-10" d="M136.976,105.653h-.732a.217.217,0,0,1-.06.016,2.248,2.248,0,0,1-.623,1.049,8.969,8.969,0,0,1,1.218.555l-.189.233a8.172,8.172,0,0,0-1.262-.6,3.976,3.976,0,0,1-1.7.595,1.01,1.01,0,0,0-.156-.233,4.023,4.023,0,0,0,1.555-.475c-.273-.1-.554-.2-.82-.273-.032.06-.06.12-.088.173l-.278-.073c.141-.253.306-.607.471-.968h-.981v-.262h1.1c.113-.257.221-.51.31-.731l.346.068c-.012.032-.037.044-.089.044-.076.185-.169.4-.265.619h2.247Zm-3.24-1.134v.611h-.273v-.868H135v-.5l.362.024c0,.028-.024.048-.08.057v.418h1.555v.868h-.281v-.611Zm.876,1.134c-.1.225-.2.45-.3.655.305.08.639.189.969.3a1.907,1.907,0,0,0,.611-.96Z"/><path class="cls-10" d="M139.3,105.681h-.265v-.012a.1.1,0,0,1-.06,0c-.065.1-.141.217-.218.337h2.264v.238h-.857a1.665,1.665,0,0,1-.5.631,11.581,11.581,0,0,1,1.238.394l-.165.225a10.477,10.477,0,0,0-1.346-.438,4.857,4.857,0,0,1-1.9.446.742.742,0,0,0-.108-.245,5.134,5.134,0,0,0,1.624-.3c-.258-.06-.527-.12-.8-.173l-.1.129-.249-.093c.121-.156.269-.361.422-.578h-.957v-.238h1.118c.108-.16.209-.321.3-.462l.29.08v-.783a3.947,3.947,0,0,1-1.576.952,1.07,1.07,0,0,0-.169-.213,3.907,3.907,0,0,0,1.415-.739h-1.343v-.234h1.673v-.438c-.438.032-.9.056-1.315.069a.858.858,0,0,0-.06-.214,16.212,16.212,0,0,0,2.645-.257l.213.209a.06.06,0,0,1-.04.012.111.111,0,0,1-.036,0,9.811,9.811,0,0,1-1.142.161v.462H141v.234H139.64a3.913,3.913,0,0,0,1.419.7,1.185,1.185,0,0,0-.177.225,3.9,3.9,0,0,1-1.576-.92h0Zm-.941.908c.33.061.66.133.977.209a1.477,1.477,0,0,0,.519-.55H138.6Z"/><path class="cls-10" d="M142.826,107a.135.135,0,0,1-.08.028,4.912,4.912,0,0,1-1.186.475,1.547,1.547,0,0,0-.2-.2,4.213,4.213,0,0,0,1.186-.467Zm-1.045-1.917h2.874v1.744h-2.874Zm.229-1.154h2.412v.9H142.01Zm.04,1.359v.309h2.328v-.309Zm0,.506v.314h2.328v-.314Zm0,.511v.317h2.328V106.3Zm.229-2.151v.45h1.862v-.45Zm2.569,3.357a10.125,10.125,0,0,0-1.286-.487l.237-.176a12.776,12.776,0,0,1,1.278.466Z"/><path class="cls-10" d="M147.468,103.779a.107.107,0,0,1-.085.06,4.6,4.6,0,0,0,1.753,1.359,1.158,1.158,0,0,0-.173.242,5.048,5.048,0,0,1-1.749-1.408,4.779,4.779,0,0,1-1.708,1.424,1.237,1.237,0,0,0-.157-.218,4.316,4.316,0,0,0,1.721-1.483Zm-1.91,2.3v-.258h3.373v.258H147l.049.016c-.013.028-.045.04-.1.044a10.415,10.415,0,0,1-.474.933c.534-.012,1.157-.033,1.769-.053a6.485,6.485,0,0,0-.591-.6l.229-.124a5.52,5.52,0,0,1,.973,1.073l-.242.153a2.691,2.691,0,0,0-.2-.282c-.977.053-2.014.1-2.657.117a.068.068,0,0,1-.064.056l-.1-.321c.169,0,.366,0,.587-.012a8.871,8.871,0,0,0,.479-1Zm.688-1.038H148.2v.254h-1.949Z"/><path class="cls-9" d="M29.949,37.554v.359H27.685v1.942h-.37V37.913H25.083v-.359h2.232V35.6H25.367v-.359h4.276V35.6H27.685v1.953Zm-3.675-.3a5.117,5.117,0,0,0-.515-1.277l.327-.1a4.6,4.6,0,0,1,.531,1.26ZM29.375,36c-.017.038-.054.048-.118.054a9.6,9.6,0,0,1-.639,1.239l-.311-.123a8,8,0,0,0,.617-1.325Z"/><path class="cls-9" d="M33.59,36.186a10.879,10.879,0,0,0,.343,1.99,5.937,5.937,0,0,0,.719-1.534l.44.134c-.011.037-.054.053-.124.053a6.06,6.06,0,0,1-.9,1.755c.22.568.488.928.8.928.167,0,.242-.3.279-1.03a.852.852,0,0,0,.306.193c-.075.923-.214,1.2-.612,1.2-.434,0-.772-.375-1.03-.966a4.851,4.851,0,0,1-1.2.972,1.821,1.821,0,0,0-.236-.279,4.2,4.2,0,0,0,1.293-1.068,10.54,10.54,0,0,1-.435-2.344H31.262v.724h1.233l.075,0,.188.011v.123a5.184,5.184,0,0,1-.171,1.888c-.135.145-.274.15-.564.15-.123,0-.263,0-.407-.01a.819.819,0,0,0-.108-.338,5.978,5.978,0,0,0,.6.027.216.216,0,0,0,.172-.054,4.347,4.347,0,0,0,.123-1.459H31.262a4.66,4.66,0,0,1-.6,2.623,1.479,1.479,0,0,0-.285-.236,3.966,3.966,0,0,0,.531-2.291v-1.5h2.3c-.022-.316-.032-.638-.038-.96l.483.027c0,.043-.038.069-.113.08,0,.284.006.574.022.853h1.754v.349Zm.552-1.277a5.185,5.185,0,0,1,.976.633l-.225.241a5.448,5.448,0,0,0-.971-.654Z"/><path class="cls-9" d="M38.25,34.947a2.414,2.414,0,1,1-2.414,2.414A2.411,2.411,0,0,1,38.25,34.947Zm2.221,2.414a2.221,2.221,0,1,0-2.221,2.221A2.218,2.218,0,0,0,40.471,37.361Z"/><path class="cls-9" d="M43.618,34.947A2.414,2.414,0,1,1,41.2,37.361,2.411,2.411,0,0,1,43.618,34.947Zm2.221,2.414a2.221,2.221,0,1,0-2.221,2.221A2.218,2.218,0,0,0,45.839,37.361Z"/><path class="cls-9" d="M51.449,38.273v.354H49.442v1.228h-.364V38.627H46.535v-.354h.9V36.8h1.642v-.879H47.694A5.025,5.025,0,0,1,46.835,37a2.156,2.156,0,0,0-.29-.236A4.934,4.934,0,0,0,47.8,34.85l.456.145a.1.1,0,0,1-.124.048,5.2,5.2,0,0,1-.241.521h3.3v.354H49.442V36.8h1.631v.344H49.442v1.132Zm-3.648,0h1.277V37.141H47.8Z"/><path class="cls-9" d="M54.355,34.947a2.414,2.414,0,1,1-2.414,2.414A2.411,2.411,0,0,1,54.355,34.947Zm2.221,2.414a2.221,2.221,0,1,0-2.221,2.221A2.219,2.219,0,0,0,56.576,37.361Z"/><path class="cls-9" d="M61.418,35.161v4.163c0,.279-.075.4-.273.467A4.5,4.5,0,0,1,60,39.855a2.135,2.135,0,0,0-.155-.381c.257.011.5.016.7.016.466,0,.5,0,.5-.166v-1.2H58.387a3.054,3.054,0,0,1-.987,1.738,1.217,1.217,0,0,0-.268-.268,3.4,3.4,0,0,0,1.014-2.785V35.161Zm-2.907,1.652a7.233,7.233,0,0,1-.059.966h2.591v-.966Zm2.532-1.3H58.511v.955h2.532Z"/><path class="cls-9" d="M64.9,34.947a2.414,2.414,0,1,1-2.414,2.414A2.41,2.41,0,0,1,64.9,34.947Zm2.221,2.414A2.221,2.221,0,1,0,64.9,39.582,2.218,2.218,0,0,0,67.119,37.361Z"/><path class="cls-9" d="M70.267,34.947a2.414,2.414,0,1,1-2.414,2.414A2.411,2.411,0,0,1,70.267,34.947Zm2.22,2.414a2.221,2.221,0,1,0-2.22,2.221A2.218,2.218,0,0,0,72.487,37.361Z"/><path class="cls-9" d="M73.827,35.22h3.481v4.517h-.375v-.322H74.2v.354h-.37Zm3.106.365H74.2v1.54h2.736ZM74.2,39.051h2.736V37.479H74.2Z"/><path class="cls-9" d="M123.425,11.666v.368h-2.314v1.985h-.379V12.034H118.45v-.368h2.282v-2h-1.991V9.3h4.372V9.67h-2v2Zm-3.756-.307a5.277,5.277,0,0,0-.527-1.3l.334-.105a4.682,4.682,0,0,1,.543,1.289Zm3.169-1.283c-.016.038-.055.049-.12.055a10.174,10.174,0,0,1-.653,1.267l-.318-.127a8.035,8.035,0,0,0,.63-1.354Z"/><path class="cls-9" d="M127.146,10.268A11.042,11.042,0,0,0,127.5,12.3a6.07,6.07,0,0,0,.735-1.568l.449.137c-.01.038-.055.055-.126.055a6.235,6.235,0,0,1-.921,1.793c.225.582.5.949.817.949.17,0,.247-.3.285-1.053a.878.878,0,0,0,.313.2c-.077.943-.219,1.223-.625,1.223-.445,0-.79-.384-1.053-.988a5,5,0,0,1-1.228.993,1.908,1.908,0,0,0-.242-.285,4.274,4.274,0,0,0,1.321-1.091,10.8,10.8,0,0,1-.443-2.4h-2.014v.74h1.262L126.1,11l.192.012v.126a5.275,5.275,0,0,1-.176,1.93c-.137.148-.279.154-.575.154-.127,0-.27,0-.417-.011a.878.878,0,0,0-.11-.346,6.01,6.01,0,0,0,.614.028.217.217,0,0,0,.175-.055,4.421,4.421,0,0,0,.127-1.492h-1.169a4.776,4.776,0,0,1-.613,2.682,1.574,1.574,0,0,0-.291-.241,4.06,4.06,0,0,0,.542-2.342V9.911h2.353c-.021-.323-.032-.652-.038-.982l.493.028c0,.044-.038.071-.115.082,0,.291.006.587.022.872h1.794v.357Zm.565-1.306a5.3,5.3,0,0,1,1,.648l-.23.247a5.606,5.606,0,0,0-.993-.67Z"/><path class="cls-9" d="M140.465,12.4v.362h-2.051v1.256h-.373V12.763h-2.6V12.4h.921V10.893h1.678v-.9h-1.415a5.116,5.116,0,0,1-.877,1.107,2.232,2.232,0,0,0-.3-.241A5.051,5.051,0,0,0,136.731,8.9l.466.148a.1.1,0,0,1-.126.049,5.32,5.32,0,0,1-.247.532H140.2v.363h-1.788v.9h1.668v.351h-1.668V12.4Zm-3.729,0h1.305V11.244h-1.305Z"/><path class="cls-9" d="M154.086,9.22v4.256c0,.285-.076.412-.28.477a4.605,4.605,0,0,1-1.168.066,1.994,1.994,0,0,0-.159-.389c.263.011.516.016.713.016.478,0,.51,0,.51-.17V12.253h-2.715a3.122,3.122,0,0,1-1.008,1.777,1.323,1.323,0,0,0-.275-.274,3.477,3.477,0,0,0,1.037-2.847V9.22Zm-2.973,1.689a7.41,7.41,0,0,1-.06.988H153.7v-.988ZM153.7,9.582h-2.589v.976H153.7Z"/><path class="cls-9" d="M165.393,9.28h3.559V13.9h-.385v-.329h-2.8v.362h-.378Zm3.174.373h-2.8v1.575h2.8Zm-2.8,3.543h2.8V11.589h-2.8Z"/><path class="cls-9" d="M172.816,13.476h2.3v.362h-4.959v-.362h2.277v-1.47h-1.674V11.65h1.674V10.383h-1.344a4.35,4.35,0,0,1-.658,1.015,2.222,2.222,0,0,0-.308-.225,5.339,5.339,0,0,0,1.065-2.15l.477.131c-.017.039-.055.06-.126.06-.083.269-.176.544-.285.807h1.179v-1.1l.493.027c-.006.039-.038.066-.115.077v.993h2.045v.362h-2.045V11.65h1.843v.356h-1.843Z"/><path class="cls-9" d="M11.771,83.608H10.627a3.425,3.425,0,0,0,1.231.651,1.075,1.075,0,0,0-.154.191c-.1-.037-.215-.081-.325-.131v1.248h-.225V85.46H9.44v.121H9.222V84.313a3.1,3.1,0,0,1-.376.167A.973.973,0,0,0,8.7,84.3a3.48,3.48,0,0,0,1.208-.695H8.786v-.2h.758a2.088,2.088,0,0,0-.255-.439l.194-.074a1.732,1.732,0,0,1,.275.463l-.127.05h.523v-.567c-.375.031-.768.054-1.13.068a.831.831,0,0,0-.05-.175A16.911,16.911,0,0,0,11.3,82.5l.164.182c-.006.007-.017.007-.03.007a.126.126,0,0,1-.037,0,10.036,10.036,0,0,1-1.013.137v.587h.476c-.036-.016-.073-.03-.1-.04a3.088,3.088,0,0,0,.3-.537l.272.1c-.01.02-.034.031-.071.031a5.2,5.2,0,0,1-.288.445h.8Zm-1.617.034a3.548,3.548,0,0,1-.855.63h1.982a3.425,3.425,0,0,1-.9-.64v.576h-.225Zm.007,1.13v-.319H9.44v.319Zm-.721.168v.335h.721V84.94Zm1.714-.168v-.319h-.778v.319Zm-.778.5h.778V84.94h-.778Z"/><path class="cls-9" d="M16.057,84.074H14c-.03.1-.07.212-.107.326h1.516l.053-.01.145.046a.241.241,0,0,1-.02.061c-.091.617-.178.882-.3.993-.085.077-.162.094-.39.094-.121,0-.292-.007-.469-.02a.441.441,0,0,0-.077-.212c.244.02.493.024.583.024a.267.267,0,0,0,.164-.031c.1-.073.168-.285.239-.734H13.819c-.033.09-.063.174-.093.245-.128-.027-.185-.037-.242-.044a7.41,7.41,0,0,0,.272-.738h-.778v-.208h3.079Zm-.473-1.442V83.6h-2.1v-.969Zm-.232.765v-.561H13.706V83.4Z"/><path class="cls-9" d="M8.555,93.346h1.911v.234H8.555Zm.182-2.013h1.546v.235H8.737Z"/><path class="cls-9" d="M11.07,92.4c0,.191-.1.345-.219.345s-.219-.154-.219-.345.1-.346.219-.346S11.07,92.215,11.07,92.4Z"/><path class="cls-9" d="M11.9,91.752a.042.042,0,0,1-.046.041,5.123,5.123,0,0,1-.385,1.429,1.077,1.077,0,0,0-.134-.121,4.387,4.387,0,0,0,.37-1.409Zm.373-.858.2.017a.046.046,0,0,1-.044.047v2.676c0,.175-.03.245-.1.285a1.078,1.078,0,0,1-.408.044,1.323,1.323,0,0,0-.062-.238c.1,0,.188.007.256.007.148,0,.166,0,.166-.094Zm.935,2.384a7.6,7.6,0,0,0-.417-1.526l.137-.084a7.442,7.442,0,0,1,.431,1.51Z"/><path class="cls-9" d="M14.048,92.4c0,.191-.1.345-.219.345s-.219-.154-.219-.345.1-.346.219-.346S14.048,92.215,14.048,92.4Z"/><path class="cls-9" d="M15.907,92.816H15.4v.889c0,.251-.064.255-.414.255a1.464,1.464,0,0,0-.045-.2c.076,0,.149.007.2.007.1,0,.119,0,.119-.06v-.889h-.5V91.625h.419c.021-.114.045-.255.062-.376h-.715v.768a6.43,6.43,0,0,1-.227,1.936.476.476,0,0,0-.126-.117,5.857,5.857,0,0,0,.213-1.822v-.976h1.739v.211H15.4c-.019.111-.049.255-.079.376h.591Zm-.846.272a.038.038,0,0,1-.047.03,2.7,2.7,0,0,1-.429.694,1.681,1.681,0,0,0-.111-.127A2.293,2.293,0,0,0,14.9,93Zm-.168-1.282v.326h.874v-.326Zm0,.5v.328h.874v-.328Zm1.148,1.5a3.305,3.305,0,0,0-.44-.7l.109-.114a3.4,3.4,0,0,1,.448.687Z"/><path class="cls-9" d="M11.327,98.954a3.963,3.963,0,0,1-.382.55,1.818,1.818,0,0,0-.117-.211,4.581,4.581,0,0,0,.8-1.513l.265.087c-.007.024-.034.037-.074.034a5.928,5.928,0,0,1-.282.664l.078.023c0,.02-.024.037-.068.044v2.247h-.218Zm.99,1.4c0,.2.047.245.3.245h.922c.228,0,.265-.107.3-.537a.611.611,0,0,0,.208.091c-.043.493-.12.654-.5.654h-.929c-.4,0-.52-.091-.52-.456V99.212l-.376.131-.071-.2.447-.154v-.929l.285.02c0,.023-.02.037-.064.043v.792l.557-.191V97.8l.281.02c0,.024-.023.037-.063.044v.782l.61-.208a.273.273,0,0,1,.047-.04l.181.07c0,.01-.02.023-.033.033,0,.607-.014,1.111-.04,1.245-.037.231-.175.262-.564.248a.64.64,0,0,0-.057-.211c.108.006.248.006.292.006.064,0,.1-.013.117-.1a7.859,7.859,0,0,0,.034-1.026l-.587.2v1.224h-.218v-1.15l-.557.194Z"/><path class="cls-9" d="M8.869,106.092h3.016v.235H8.869Zm.289-2.012H11.6v.234H9.158Z"/><path class="cls-9" d="M12.993,105c.1.094.383.406.446.49l-.137.174a4.114,4.114,0,0,0-.309-.436v1.476h-.218V105.19a3.735,3.735,0,0,1-.436.906.983.983,0,0,0-.121-.2,3.718,3.718,0,0,0,.524-1.11h-.487v-.211h.52V104c-.154.047-.312.087-.463.121a.563.563,0,0,0-.074-.165,4.061,4.061,0,0,0,1.017-.365l.2.168a.1.1,0,0,1-.067.013,2.606,2.606,0,0,1-.393.161v.644h.44v.211h-.44Zm1.459,1.439h.906v.191H13.305v-.191h.929v-.292h-.751v-.184h.751v-.238h-.681v-1.081h.681v-.234h-.828v-.188h.828v-.289c-.238.031-.483.054-.711.071a.618.618,0,0,0-.057-.168,8.285,8.285,0,0,0,1.557-.248l.187.168a.046.046,0,0,1-.037.013.1.1,0,0,1-.027,0,4.915,4.915,0,0,1-.694.137v.319h.873v.188h-.873v.234h.711v1.081h-.711v.238h.775v.184h-.775Zm-.694-1.62v.279h.476v-.279Zm0,.731h.476v-.285h-.476Zm1.191-.731h-.5v.279h.5Zm0,.731v-.285h-.5v.285Z"/><path class="cls-9" d="M22.74,80.9a3.524,3.524,0,0,0-.242-.649h-.247a3.709,3.709,0,0,1-.515.686,1.629,1.629,0,0,0-.278-.187,3.645,3.645,0,0,0,.81-1.3l.407.134c-.011.038-.059.054-.113.048-.042.108-.1.22-.15.328H23.9v.3H22.857a2.951,2.951,0,0,1,.2.525Zm3.2,1.807.08,0,.21.032a.854.854,0,0,1-.016.113c-.14,1.352-.247,1.373-.869,1.373-.124,0-.269,0-.424-.011a.777.777,0,0,0-.1-.337,5.326,5.326,0,0,0,.617.032c.1,0,.15-.006.193-.048.086-.076.144-.3.2-.832H24.15v1.432H23.8V83.132a5.535,5.535,0,0,1-2.076,1.229,1.685,1.685,0,0,0-.23-.29,5.272,5.272,0,0,0,1.979-1.046H22.326l-.058.2-.355-.053a13.169,13.169,0,0,0,.333-1.309H23.8v-.585h-1.84v-.311h3.938v1.207H24.15v.536ZM23.8,82.172h-1.26c-.038.177-.086.365-.129.536H23.8Zm1.014-2.6c-.011.037-.054.048-.107.048-.048.113-.1.225-.161.333h1.91v.3H25.17a2.817,2.817,0,0,1,.327.536l-.317.129a2.842,2.842,0,0,0-.4-.665H24.36a2.921,2.921,0,0,1-.585.654,1.8,1.8,0,0,0-.274-.2,2.943,2.943,0,0,0,.891-1.261Zm-.66,1.7v.585h1.39v-.585Z"/><path class="cls-9" d="M23.346,93.132v.291H21.5v1.571h-.3V93.423H19.371v-.291h1.823V91.551H19.6V91.26H23.1v.291H21.5v1.581Zm-3-.244a4.117,4.117,0,0,0-.421-1.033l.268-.082a3.714,3.714,0,0,1,.434,1.02Zm2.533-1.016c-.013.031-.044.04-.1.044a7.818,7.818,0,0,1-.522,1l-.254-.1a6.369,6.369,0,0,0,.5-1.073Z"/><path class="cls-9" d="M26.324,92.024a8.76,8.76,0,0,0,.28,1.611,4.728,4.728,0,0,0,.587-1.242l.36.109c-.009.03-.044.043-.1.043a4.922,4.922,0,0,1-.736,1.42c.179.461.4.752.653.752.136,0,.2-.239.228-.834a.683.683,0,0,0,.249.156c-.061.747-.175.968-.5.968-.355,0-.631-.3-.842-.781a3.988,3.988,0,0,1-.981.786,1.535,1.535,0,0,0-.193-.226,3.429,3.429,0,0,0,1.056-.864,8.538,8.538,0,0,1-.355-1.9H24.422v.587H25.43l.061-.005.153.009v.1a4.11,4.11,0,0,1-.14,1.528c-.109.117-.223.122-.46.122-.1,0-.215,0-.333-.009a.655.655,0,0,0-.088-.273c.215.021.417.021.491.021a.173.173,0,0,0,.14-.043,3.447,3.447,0,0,0,.1-1.181h-.933A3.743,3.743,0,0,1,23.931,95a1.23,1.23,0,0,0-.232-.191,3.188,3.188,0,0,0,.434-1.854V91.742h1.88c-.018-.256-.027-.517-.031-.777l.394.022c0,.034-.03.056-.092.065,0,.23.005.464.018.69h1.433v.282Zm.451-1.033a4.254,4.254,0,0,1,.8.512l-.184.2a4.424,4.424,0,0,0-.794-.53Z"/><path class="cls-9" d="M40.923,93.713V94H39.284v.994h-.3V94H36.909v-.287h.736V92.519h1.341v-.712h-1.13a4.049,4.049,0,0,1-.7.877,1.754,1.754,0,0,0-.236-.191,3.994,3.994,0,0,0,1.021-1.55l.372.117a.081.081,0,0,1-.1.04,4.013,4.013,0,0,1-.2.421h2.7v.286H39.284v.712h1.332V92.8H39.284v.916Zm-2.98,0h1.043V92.8H37.943Z"/><path class="cls-9" d="M53.485,91.2v3.37c0,.225-.061.325-.224.377a3.677,3.677,0,0,1-.933.052,1.674,1.674,0,0,0-.127-.308c.21.009.412.013.57.013.381,0,.407,0,.407-.134V93.6H51.009A2.472,2.472,0,0,1,50.2,95a1.029,1.029,0,0,0-.22-.217,2.737,2.737,0,0,0,.829-2.254V91.2ZM51.11,92.532a5.69,5.69,0,0,1-.049.782h2.117v-.782Zm2.068-1.05H51.11v.773h2.068Z"/><path class="cls-9" d="M62.813,91.243h2.844V94.9h-.306v-.261H63.116v.287h-.3Zm2.538.3H63.116v1.246h2.235Zm-2.235,2.805h2.235V93.071H63.116Z"/><path class="cls-9" d="M23.346,99.471v.291H21.5v1.572h-.3V99.762H19.371v-.291h1.823v-1.58H19.6V97.6H23.1v.291H21.5v1.58Zm-3-.243a4.1,4.1,0,0,0-.421-1.033l.268-.083a3.727,3.727,0,0,1,.434,1.02Zm2.533-1.016c-.013.03-.044.039-.1.043a7.753,7.753,0,0,1-.522,1l-.254-.1a6.322,6.322,0,0,0,.5-1.072Z"/><path class="cls-9" d="M26.324,98.364a8.76,8.76,0,0,0,.28,1.611,4.759,4.759,0,0,0,.587-1.242l.36.108c-.009.031-.044.044-.1.044a4.922,4.922,0,0,1-.736,1.42c.179.46.4.751.653.751.136,0,.2-.239.228-.834a.7.7,0,0,0,.249.157c-.061.746-.175.968-.5.968-.355,0-.631-.3-.842-.782a3.942,3.942,0,0,1-.981.786,1.588,1.588,0,0,0-.193-.226,3.4,3.4,0,0,0,1.056-.864,8.528,8.528,0,0,1-.355-1.9H24.422v.586H25.43l.061,0,.153.008v.1a4.123,4.123,0,0,1-.14,1.529c-.109.117-.223.121-.46.121-.1,0-.215,0-.333-.008a.664.664,0,0,0-.088-.274,4.9,4.9,0,0,0,.491.022.173.173,0,0,0,.14-.044,3.447,3.447,0,0,0,.1-1.181h-.933a3.748,3.748,0,0,1-.491,2.124,1.235,1.235,0,0,0-.232-.192,3.188,3.188,0,0,0,.434-1.854V98.082h1.88c-.018-.257-.027-.517-.031-.778l.394.022c0,.035-.03.057-.092.065,0,.23.005.465.018.691h1.433v.282Zm.451-1.034a4.254,4.254,0,0,1,.8.513l-.184.195a4.477,4.477,0,0,0-.794-.53Z"/><path class="cls-9" d="M40.923,100.053v.287H39.284v.994h-.3v-.994H36.909v-.287h.736V98.859h1.341v-.712h-1.13a4.073,4.073,0,0,1-.7.877,1.68,1.68,0,0,0-.236-.191,4.009,4.009,0,0,0,1.021-1.55l.372.117a.081.081,0,0,1-.1.039,4.013,4.013,0,0,1-.2.421h2.7v.287H39.284v.712h1.332v.278H39.284v.916Zm-2.98,0h1.043v-.916H37.943Z"/><path class="cls-9" d="M53.485,97.535V100.9c0,.226-.061.326-.224.378a3.727,3.727,0,0,1-.933.052,1.619,1.619,0,0,0-.127-.308c.21.008.412.013.57.013.381,0,.407,0,.407-.135v-.968H51.009a2.475,2.475,0,0,1-.806,1.407,1.034,1.034,0,0,0-.22-.218,2.735,2.735,0,0,0,.829-2.253V97.535ZM51.11,98.872a5.677,5.677,0,0,1-.049.781h2.117v-.781Zm2.068-1.051H51.11v.773h2.068Z"/><path class="cls-9" d="M62.813,97.582h2.844v3.656h-.306v-.26H63.116v.286h-.3Zm2.538.3H63.116v1.247h2.235Zm-2.235,2.805h2.235V99.41H63.116Z"/><path class="cls-9" d="M23.346,105.816v.291H21.5v1.572h-.3v-1.572H19.371v-.291h1.823v-1.581H19.6v-.291H23.1v.291H21.5v1.581Zm-3-.243a4.108,4.108,0,0,0-.421-1.034l.268-.082a3.727,3.727,0,0,1,.434,1.02Zm2.533-1.016c-.013.03-.044.039-.1.043a7.818,7.818,0,0,1-.522,1l-.254-.1a6.358,6.358,0,0,0,.5-1.072Z"/><path class="cls-9" d="M26.324,104.709a8.748,8.748,0,0,0,.28,1.61,4.737,4.737,0,0,0,.587-1.241l.36.108c-.009.031-.044.044-.1.044a4.917,4.917,0,0,1-.736,1.419c.179.461.4.752.653.752.136,0,.2-.239.228-.834a.683.683,0,0,0,.249.156c-.061.747-.175.969-.5.969-.355,0-.631-.3-.842-.782a3.965,3.965,0,0,1-.981.786,1.588,1.588,0,0,0-.193-.226,3.429,3.429,0,0,0,1.056-.864,8.539,8.539,0,0,1-.355-1.9H24.422v.586H25.43l.061,0,.153.009v.1a4.11,4.11,0,0,1-.14,1.528c-.109.118-.223.122-.46.122-.1,0-.215,0-.333-.009a.655.655,0,0,0-.088-.273c.215.021.417.021.491.021a.173.173,0,0,0,.14-.043,3.447,3.447,0,0,0,.1-1.181h-.933a3.743,3.743,0,0,1-.491,2.123,1.23,1.23,0,0,0-.232-.191,3.188,3.188,0,0,0,.434-1.854v-1.216h1.88c-.018-.256-.027-.516-.031-.777l.394.022c0,.034-.03.056-.092.065,0,.23.005.465.018.69h1.433v.283Zm.451-1.034a4.254,4.254,0,0,1,.8.512l-.184.2a4.477,4.477,0,0,0-.794-.53Z"/><path class="cls-9" d="M40.923,106.4v.286H39.284v1h-.3v-1H36.909V106.4h.736V105.2h1.341v-.713h-1.13a4.08,4.08,0,0,1-.7.878,1.685,1.685,0,0,0-.236-.192,3.994,3.994,0,0,0,1.021-1.55l.372.118a.082.082,0,0,1-.1.039,4.013,4.013,0,0,1-.2.421h2.7v.286H39.284v.713h1.332v.277H39.284v.917Zm-2.98,0h1.043v-.917H37.943Z"/><path class="cls-9" d="M53.485,103.879v3.37c0,.225-.061.325-.224.377a3.662,3.662,0,0,1-.933.053,1.654,1.654,0,0,0-.127-.309c.21.009.412.013.57.013.381,0,.407,0,.407-.134v-.969H51.009a2.472,2.472,0,0,1-.806,1.407,1.053,1.053,0,0,0-.22-.217,2.736,2.736,0,0,0,.829-2.253v-1.338Zm-2.375,1.338a5.677,5.677,0,0,1-.049.781h2.117v-.781Zm2.068-1.051H51.11v.773h2.068Z"/><path class="cls-9" d="M62.813,103.927h2.844v3.656h-.306v-.261H63.116v.287h-.3Zm2.538.295H63.116v1.246h2.235Zm-2.235,2.805h2.235v-1.272H63.116Z"/><rect class="cls-11" x="7.076" y="41.5" width="108.355" height="9.754"/><path class="cls-12" d="M16.3,46.454v.5H13.172v2.683H12.66V46.951H9.577v-.5H12.66v-2.7H9.97v-.5h5.907v.5h-2.7v2.7Zm-5.077-.415a7.091,7.091,0,0,0-.711-1.764l.452-.141a6.423,6.423,0,0,1,.734,1.742Zm4.284-1.734c-.022.051-.074.066-.163.074a13.3,13.3,0,0,1-.882,1.712l-.429-.171a10.922,10.922,0,0,0,.852-1.83Z"/><path class="cls-12" d="M21.322,44.564a15.145,15.145,0,0,0,.475,2.75,8.208,8.208,0,0,0,.993-2.12l.608.185c-.015.052-.074.074-.171.074a8.4,8.4,0,0,1-1.245,2.424c.3.786.675,1.282,1.105,1.282.229,0,.333-.407.385-1.423a1.166,1.166,0,0,0,.422.267c-.1,1.275-.3,1.653-.845,1.653-.6,0-1.067-.519-1.423-1.334a6.709,6.709,0,0,1-1.66,1.341,2.594,2.594,0,0,0-.326-.385A5.789,5.789,0,0,0,21.426,47.8a14.638,14.638,0,0,1-.6-3.239h-2.72v1h1.7l.1-.008.26.015v.17c-.038,1.772-.082,2.409-.237,2.609-.186.2-.379.208-.779.208-.17,0-.363,0-.563-.015a1.163,1.163,0,0,0-.148-.467c.363.037.7.037.83.037a.294.294,0,0,0,.237-.074,6,6,0,0,0,.171-2.016H18.106a6.445,6.445,0,0,1-.83,3.625,2.059,2.059,0,0,0-.393-.326,5.493,5.493,0,0,0,.734-3.166V44.082H20.8c-.029-.437-.044-.882-.052-1.327l.668.037c0,.06-.052.1-.156.112,0,.392.007.793.029,1.178h2.424v.482Zm.764-1.764a7.191,7.191,0,0,1,1.349.874l-.311.334a7.488,7.488,0,0,0-1.342-.9Z"/><path class="cls-12" d="M27.754,42.852a3.336,3.336,0,1,1-3.335,3.335A3.331,3.331,0,0,1,27.754,42.852Zm3.069,3.335a3.069,3.069,0,1,0-3.069,3.069A3.066,3.066,0,0,0,30.823,46.187Z"/><path class="cls-12" d="M35.164,42.852a3.336,3.336,0,1,1-3.336,3.335A3.331,3.331,0,0,1,35.164,42.852Zm3.068,3.335a3.069,3.069,0,1,0-3.068,3.069A3.065,3.065,0,0,0,38.232,46.187Z"/><path class="cls-12" d="M45.976,47.447v.489H43.2v1.7H42.7v-1.7H39.186v-.489h1.245V45.409H42.7V44.193H40.787a6.876,6.876,0,0,1-1.186,1.5,2.982,2.982,0,0,0-.4-.326,6.815,6.815,0,0,0,1.727-2.646l.63.2a.138.138,0,0,1-.17.067,7.066,7.066,0,0,1-.334.719H45.62v.489H43.2v1.216h2.253v.474H43.2v1.564Zm-5.041,0H42.7V45.883H40.935Z"/><path class="cls-12" d="M49.983,42.852a3.336,3.336,0,1,1-3.335,3.335A3.331,3.331,0,0,1,49.983,42.852Zm3.069,3.335a3.069,3.069,0,1,0-3.069,3.069A3.065,3.065,0,0,0,53.052,46.187Z"/><path class="cls-12" d="M59.772,43.148V48.9c0,.385-.1.556-.378.645a6.229,6.229,0,0,1-1.578.089,2.867,2.867,0,0,0-.215-.527c.355.015.7.023.963.023.645,0,.69,0,.69-.23V47.247H55.585a4.234,4.234,0,0,1-1.364,2.4,1.74,1.74,0,0,0-.371-.371,4.7,4.7,0,0,0,1.4-3.847V43.148Zm-4.017,2.283a9.883,9.883,0,0,1-.082,1.334h3.581V45.431Zm3.5-1.794h-3.5v1.32h3.5Z"/><path class="cls-12" d="M64.67,42.852a3.336,3.336,0,1,1-3.336,3.335A3.331,3.331,0,0,1,64.67,42.852Zm3.068,3.335a3.069,3.069,0,1,0-3.068,3.069A3.065,3.065,0,0,0,67.738,46.187Z"/><path class="cls-12" d="M72.079,42.852a3.336,3.336,0,1,1-3.335,3.335A3.331,3.331,0,0,1,72.079,42.852Zm3.069,3.335a3.069,3.069,0,1,0-3.069,3.069A3.065,3.065,0,0,0,75.148,46.187Z"/><path class="cls-12" d="M77.028,43.23h4.811v6.241H81.32v-.445H77.54v.489h-.512Zm4.292.5H77.54v2.127h3.78Zm-3.78,4.788h3.78V46.35H77.54Z"/><path class="cls-12" d="M83.579,43.9c.459.029,1.074.029,1.578.029.334,0,.712-.007,1.023-.015-.007-.355-.015-.77-.015-1.029l.749.036c-.007.089-.074.134-.2.156-.008.119,0,.69,0,.815a14.458,14.458,0,0,0,2.461-.289l.066.49a15.146,15.146,0,0,1-2.527.281c.007.445.015.9.03,1.364a12.575,12.575,0,0,0,2.09-.289l.059.482a14.176,14.176,0,0,1-2.142.259l.059,1.238a8.226,8.226,0,0,1,2.179,1.156l-.326.452a7.212,7.212,0,0,0-1.838-1.089c0,.118.008.252.008.348-.008.7-.431,1.112-1.327,1.112-.942,0-1.631-.385-1.631-1.082,0-.712.808-1.1,1.638-1.1a3.287,3.287,0,0,1,.778.088c-.007-.318-.022-.7-.029-1.1-.237.007-.5.015-.719.015-1.268,0-1.623-.2-1.623-.63,0-.282.215-.512.689-.816l.356.23c-.334.186-.512.348-.512.5,0,.222.349.267,1.29.267.163,0,.333,0,.5-.008L86.2,44.386c-.319.015-.689.015-1.023.015-.474,0-1.149,0-1.593-.015Zm2.742,3.862a3.1,3.1,0,0,0-.83-.119c-.564,0-1.134.23-1.134.674s.519.653,1.163.653c.586,0,.808-.26.808-.779Z"/><path class="cls-12" d="M90.4,43.749c.556-.022,5.121-.349,6.085-.356l.007.556c-.1-.008-.185-.008-.274-.008a2.139,2.139,0,0,0-1.267.378c-1.112.667-2.187,1.861-2.187,2.817,0,1.038.726,1.653,2.565,1.89l-.245.519c-2.105-.3-2.891-1.09-2.891-2.409,0-1.045,1.031-2.313,2.387-3.165-.815.059-3,.222-3.958.311a.225.225,0,0,1-.163.119Zm4.8,1.46a5.5,5.5,0,0,1,1.009,1.022l-.282.23a4.986,4.986,0,0,0-.978-1.03Zm.8-.653a4.705,4.705,0,0,1,1.008,1.023l-.282.223a5.243,5.243,0,0,0-.978-1.023Z"/><path class="cls-12" d="M104.128,44.215h-4.04a10.038,10.038,0,0,1-.467.912h3.58v3.855c0,.629-.3.644-1.623.644a1.871,1.871,0,0,0-.17-.5c.259.007.5.007.7.007.534,0,.594,0,.594-.163v-.845H99.569v1.5h-.5V45.957a6.23,6.23,0,0,1-1.327,1.327,3.477,3.477,0,0,0-.333-.4,6.62,6.62,0,0,0,2.1-2.669H97.568v-.481h2.157a8.612,8.612,0,0,0,.326-.986l.645.163c-.015.052-.074.081-.163.081-.074.245-.156.49-.253.742h3.848Zm-1.423,2.195v-.831H99.569v.831Zm-3.136,1.282h3.136v-.845H99.569Z"/><path class="cls-12" d="M106.364,44.7c-.023.052-.067.074-.156.067a5.612,5.612,0,0,1-1.134,1.542,2.921,2.921,0,0,0-.356-.3,4.445,4.445,0,0,0,1.075-1.49Zm2.2-.9v.46h-3.758v-.46h1.668V42.748l.63.037c-.008.052-.045.089-.141.1v.9ZM105.9,46.054c.275.267.571.578.86.889a7.662,7.662,0,0,0,.437-1.134l.608.163c-.014.052-.074.082-.163.074a7.939,7.939,0,0,1-.541,1.283,8.632,8.632,0,0,1,.823,1.082c-.2.192-.282.282-.363.37a8.928,8.928,0,0,0-.719-1.008,5.671,5.671,0,0,1-1.7,1.75,2.619,2.619,0,0,0-.326-.379,4.932,4.932,0,0,0,1.7-1.764c-.3-.355-.638-.711-.942-1.015Zm1.631-1.542a5.99,5.99,0,0,1,.956,1.438l-.415.244a5.983,5.983,0,0,0-.933-1.475Zm3.781.022.274.015a1.114,1.114,0,0,0-.008.17c-.089,3.232-.163,4.27-.4,4.589-.17.237-.363.281-.852.281-.193,0-.408-.007-.623-.022a1.313,1.313,0,0,0-.148-.482c.407.03.785.03.956.03a.261.261,0,0,0,.23-.1c.177-.23.267-1.215.341-4h-1.239c-.095,1.905-.459,3.625-1.83,4.647a1.483,1.483,0,0,0-.378-.363c1.268-.9,1.616-2.476,1.712-4.284h-1v-.482h1.016c.022-.556.022-1.134.022-1.719l.682.037c-.007.066-.067.111-.178.126,0,.519-.008,1.045-.022,1.556Z"/><path class="cls-13" d="M120.752,85.616V86H118.29v-.383Zm-.215,2.791v1.972h-1.543V90.7h-.4V88.407Zm-.02-1.851v.369h-1.912v-.369Zm-1.912,1.294v-.369h1.912v.369Zm1.892-3.139v.369h-1.852v-.369Zm-.363,4.079h-1.14V90h1.14Zm2.885,1.241h1.529v.429h-3.8v-.429h.558V86.582l.55.041c-.007.047-.041.08-.127.087v3.321h.851v-4.75h-1.6v-.429h3.461v.429h-1.422v1.972H124.4v.43h-1.382Z"/><path class="cls-13" d="M120.973,76.21v.375H118.29V76.21Zm-.275,2.737v1.972h-1.691v.316h-.4V78.947Zm-2.087-1.456v-.369h2.107v.369Zm0,.913v-.369h2.107V78.4Zm2.107-3.086v.368h-2.073v-.368Zm-.429,4.011h-1.282v1.208h1.282Zm4.273-1.04v.437h-1.537v2.582h-.455V78.726h-1.624v-.437h1.624V76.525h-.7a5.59,5.59,0,0,1-.644,1.268,1.978,1.978,0,0,0-.362-.235,7.226,7.226,0,0,0,.98-2.5l.556.141c-.014.047-.06.067-.147.067-.068.275-.148.557-.236.832H124.4v.422h-1.37v1.764Z"/><path class="cls-13" d="M120.892,69.668c-.006.04-.054.074-.134.087-.187,1.046-.576,1.8-2.207,2.187a1.6,1.6,0,0,0-.255-.389c1.509-.322,1.865-.96,2-1.953Zm1.5,1.556c0,.188.06.221.349.221h1.019c.275,0,.322-.12.349-.966a1.308,1.308,0,0,0,.422.188c-.06.973-.187,1.208-.737,1.208H122.7c-.611,0-.771-.141-.771-.651V69.5h-2.905V67.756a4.242,4.242,0,0,1-.389.282,1.393,1.393,0,0,0-.322-.336,5.832,5.832,0,0,0,1.958-2.039l.591.1c-.013.054-.061.088-.148.088-.067.114-.147.234-.234.362h1.771l.073-.027.349.221a.107.107,0,0,1-.094.054,6.436,6.436,0,0,1-.65.912h2.052V69.5h-1.469a.146.146,0,0,1-.12.06Zm-1-3.851a4.982,4.982,0,0,0,.577-.771h-1.778a7.444,7.444,0,0,1-.718.771Zm-1.919.41v1.308h1.711V67.783Zm4.039,1.308V67.783h-1.885v1.308Z"/><path class="cls-13" d="M121.389,61.312h-1.322v1.207h-.422V61.312H118.3v-.4h1.342v-.577h-1.08V57.978h1.08v-.537H118.4v-.4h1.248v-.752l.557.034c-.008.047-.041.08-.128.087v.631H121.3v.4h-1.221v.537H121.2v2.354h-1.128v.577h1.322Zm-2.455-2.979v.651h.744v-.651Zm0,.987v.664h.744V59.32Zm1.872-.336v-.651h-.772v.651Zm0,1V59.32h-.772v.664Zm2.877.234a8.6,8.6,0,0,1,.919,2.127l-.416.174c-.033-.147-.08-.308-.14-.49-.96.108-1.932.209-2.57.269a.107.107,0,0,1-.1.087l-.168-.536c.16-.007.349-.02.543-.034a22.424,22.424,0,0,0,.57-2.475h-.986V58.9h3.207v.437h-1.751a24.246,24.246,0,0,1-.611,2.448c.53-.034,1.128-.081,1.724-.128a10.444,10.444,0,0,0-.6-1.274Zm.6-3.434v.435h-2.624v-.435Z"/><path class="cls-13" d="M119.658,49.576v2.207c.524.8,1.5.8,2.764.8.738,0,1.6-.014,2.12-.047a1.5,1.5,0,0,0-.141.443c-.463.013-1.2.027-1.865.027-1.476,0-2.4,0-3.066-.832-.309.3-.624.6-.885.825a.091.091,0,0,1-.054.107l-.261-.476c.288-.215.636-.51.952-.8V50.005h-.886v-.429Zm-.9-2.516a4.982,4.982,0,0,1,1.107,1.12l-.369.282a4.781,4.781,0,0,0-1.087-1.154Zm3.213,5.333v-.7H119.98v-.356h1.992v-.456H120.49V48.952h1.482v-.443h-1.73V48.16h1.73v-.53l.571.034c-.007.047-.047.08-.134.093v.4h1.744v.349h-1.744v.443h1.5v1.925h-1.5v.456h2.026v.356h-2.026v.7Zm-1.449-4.924v.524h-.409v-.88H124.3v.88h-.423v-.524Zm.369,1.8v.483h1.08v-.483Zm0,1.281h1.08v-.49h-1.08Zm2.61-1.281h-1.093v.483H123.5Zm0,1.281v-.49h-1.093v.49Z"/><path class="cls-14" d="M170.562,106.539a.7.7,0,0,1-.7.692h-7a.694.694,0,0,1-.693-.692v-7a.693.693,0,0,1,.693-.693h7a.694.694,0,0,1,.7.693v7"/><path d="M26.848,9.969a5.623,5.623,0,0,0-.03-.6,5.07,5.07,0,0,0,.652.03h2.74a4.456,4.456,0,0,0,.628-.03,4.074,4.074,0,0,0-.03.569v3.834a5.049,5.049,0,0,0,.036.67h-.52v-.383H27.333v.383h-.52a5.162,5.162,0,0,0,.035-.664Zm.485,1.46h2.991V9.838H27.333Zm0,2.183h2.991v-1.74H27.333Z"/><path d="M37.884,10.239c-.012-.312-.018-.419-.042-.622a2.439,2.439,0,0,0,1-.425l.281.365a3.925,3.925,0,0,1-.837.353l.017.664H38.6a2.4,2.4,0,0,0,.323-.018v.412a2.609,2.609,0,0,0-.323-.018h-.281l.018.688H38.6a1.543,1.543,0,0,0,.323-.024v.419a2.365,2.365,0,0,0-.323-.018h-.252l.024.838h.76v-3.1a3.46,3.46,0,0,0-.018-.484,3.6,3.6,0,0,0,.515.024h1.213a3.675,3.675,0,0,0,.527-.024,4.439,4.439,0,0,0-.018.484v3.1h.772l.036-.862h-.287a2.406,2.406,0,0,0-.323.018V11.6a2.092,2.092,0,0,0,.323.018h.3l.029-.688h-.328a2.406,2.406,0,0,0-.323.018v-.412a2.2,2.2,0,0,0,.323.017h.346l.03-.747h-.388a2.54,2.54,0,0,0-.335.018V9.383a1.6,1.6,0,0,0,.382.03l.371.006a2.15,2.15,0,0,0,.413-.03,4.526,4.526,0,0,0-.042.593l-.114,2.871a3.8,3.8,0,0,0,.407-.03v.448a5.63,5.63,0,0,0-.682-.036h-4.1a5.866,5.866,0,0,0-.67.036v-.448c.108.012.263.023.479.03Zm1.752,3.355a4.474,4.474,0,0,1-1.752.933,1.7,1.7,0,0,0-.275-.389,3.792,3.792,0,0,0,.9-.293,2.514,2.514,0,0,0,.771-.514Zm1.334-.741V9.665H39.505v3.188Zm-.149-2.387a2.558,2.558,0,0,0-.323-.018h-.521a2.458,2.458,0,0,0-.317.018v-.383a2.1,2.1,0,0,0,.317.018H40.5a2.19,2.19,0,0,0,.323-.018Zm-.772,1.95c-.107,0-.221.006-.323.012a2.468,2.468,0,0,0,.012-.335v-.922a2.559,2.559,0,0,0-.012-.34,1.965,1.965,0,0,0,.323.012h.371c.173,0,.263-.006.329-.012a2.273,2.273,0,0,0-.012.347v.9a2.289,2.289,0,0,0,.012.347c-.09-.006-.215-.012-.323-.012Zm-.006-.335h.389v-.9h-.389Zm1.083,1.262a4.024,4.024,0,0,0,1.788.76,1.354,1.354,0,0,0-.257.4,5.178,5.178,0,0,1-1.854-.892Z"/><path d="M51.833,10.819a5.333,5.333,0,0,0,.772,1.644,5.169,5.169,0,0,0,.849.928,4.966,4.966,0,0,0,.927.622,1.977,1.977,0,0,0-.3.472,6.441,6.441,0,0,1-1.3-1.076,5.682,5.682,0,0,1-1.208-2.1,4.538,4.538,0,0,1-.64,1.508,5.056,5.056,0,0,1-1.8,1.633,1.519,1.519,0,0,0-.3-.443,4.1,4.1,0,0,0,2.381-3.188H49.638a3.432,3.432,0,0,0-.688.042v-.526a4.021,4.021,0,0,0,.694.041h1.614c.007-.162.013-.311.013-.508a4.567,4.567,0,0,0-.042-.766h.562a4.48,4.48,0,0,0-.042.652c-.006.209-.012.365-.03.622H53.5a4.088,4.088,0,0,0,.688-.041v.526a4.121,4.121,0,0,0-.683-.042Zm-.03,3.35a5.648,5.648,0,0,0-.867-1.149l.377-.233a8.013,8.013,0,0,1,.9,1.106Z"/><path d="M62.767,14.228c-.126-.287-.174-.377-.293-.6a16.286,16.286,0,0,1-1.848.61c-.121.03-.2.06-.324.1l-.1-.485a2.742,2.742,0,0,0,.454-.071V10.335a4.369,4.369,0,0,0-.024-.551,3.987,3.987,0,0,0,.521.024h.406V9.515a2.07,2.07,0,0,0-.035-.4h.52a1.929,1.929,0,0,0-.036.407v.287h.413a4.072,4.072,0,0,0,.526-.024,4.5,4.5,0,0,0-.024.568v1.442c0,.233.006.382.018.544a3.971,3.971,0,0,0-.5-.024H61.1v1.358a9.949,9.949,0,0,0,1.184-.4,5.849,5.849,0,0,0-.395-.6l.383-.162a9.4,9.4,0,0,1,.909,1.5Zm-.275-3.379V10.2H61.1v.646ZM61.1,11.92h1.394v-.683H61.1Zm4.534-2.315a1.438,1.438,0,0,0-.1.227,13.517,13.517,0,0,1-.712,1.5,3.141,3.141,0,0,1,.527.7,1.846,1.846,0,0,1,.233.9c0,.586-.281.825-.957.825-.1,0-.179-.005-.371-.017a1.07,1.07,0,0,0-.1-.473,3.112,3.112,0,0,0,.479.042c.365,0,.478-.09.478-.4a1.522,1.522,0,0,0-.2-.765,2.669,2.669,0,0,0-.616-.742,9.054,9.054,0,0,0,.766-1.675H63.9v4.1a4.411,4.411,0,0,0,.042.712h-.532a4.17,4.17,0,0,0,.035-.628V9.832a5.058,5.058,0,0,0-.023-.533c.161.013.275.018.478.018h1.011a3.018,3.018,0,0,0,.472-.023Z"/><path class="cls-15" d="M25.279,26.73a4.889,4.889,0,0,0-.8.041V26.3a5.184,5.184,0,0,0,.823.047h1.933v-.054a3.639,3.639,0,0,0-.047-.66h.5a3.791,3.791,0,0,0-.048.66v.054h2.035a4.774,4.774,0,0,0,.851-.047v.476a6.415,6.415,0,0,0-.837-.041H27.64V27.3h1.484a5.048,5.048,0,0,0,.776-.034,6.1,6.1,0,0,0-.027.715v1a4.849,4.849,0,0,0,.027.721,4.252,4.252,0,0,0-.776-.041h-1.17a5.346,5.346,0,0,0,2.8,1.511,1.818,1.818,0,0,0-.258.429,7.533,7.533,0,0,1-1.532-.674,5.031,5.031,0,0,1-1.347-1.116c.013.177.02.4.02.531v.694a3.683,3.683,0,0,0,.048.756h-.5a4.663,4.663,0,0,0,.047-.756v-.687c0-.13.007-.334.021-.524a4.14,4.14,0,0,1-.8.775,6.478,6.478,0,0,1-1.9.994,1.683,1.683,0,0,0-.252-.408,5.629,5.629,0,0,0,1.654-.728,3.831,3.831,0,0,0,.952-.8h-.993a4.224,4.224,0,0,0-.789.041l.006-.088a5.721,5.721,0,0,0,.021-.633v-.987a6.594,6.594,0,0,0-.027-.735,3.8,3.8,0,0,0,.755.041h1.354V26.73Zm.292.919v.626h1.661v-.626Zm0,.973v.687h1.661v-.687Zm2.069-.347h1.811v-.626H27.64Zm0,1.034h1.811v-.687H27.64Z"/><path class="cls-15" d="M33.178,29.82a5.082,5.082,0,0,1-1.606,1.708,1.482,1.482,0,0,0-.313-.354,3.721,3.721,0,0,0,.878-.674,3.358,3.358,0,0,0,.66-.912Zm.844-3.6a3.028,3.028,0,0,0-.047-.572h.537a2.435,2.435,0,0,0-.048.572v.251h2.1a4.382,4.382,0,0,0,.756-.047v.483a3.913,3.913,0,0,0-.742-.041H32.062a3.877,3.877,0,0,0-.728.041v-.483a4.43,4.43,0,0,0,.755.047h1.933Zm-1.238,3.062a5.209,5.209,0,0,0-.606.027,4.321,4.321,0,0,0,.027-.551v-.769a4.645,4.645,0,0,0-.027-.565,5,5,0,0,0,.606.027h2.96a4.6,4.6,0,0,0,.626-.027,4.23,4.23,0,0,0-.027.565v.769c0,.238.007.374.02.544-.177-.013-.36-.02-.619-.02H34.56v1.892c0,.388-.177.51-.749.51-.149,0-.435-.013-.667-.027a1.332,1.332,0,0,0-.116-.449,4.355,4.355,0,0,0,.736.068c.3,0,.353-.027.353-.163V29.282Zm-.15-.374h3.28V27.839h-3.28Zm3.09.674a3.7,3.7,0,0,0,.667.857,4.074,4.074,0,0,0,.946.714,1.458,1.458,0,0,0-.313.375,4.876,4.876,0,0,1-.858-.708,6.726,6.726,0,0,1-.817-1Z"/><path class="cls-15" d="M38.805,28.03a3.69,3.69,0,0,0-.7.041v-.449a3.708,3.708,0,0,0,.7.04h.7V26.8H39a3.938,3.938,0,0,0-.619.034V26.39a2.881,2.881,0,0,0,.619.041h.5v-.225a3.626,3.626,0,0,0-.04-.6h.49a3.469,3.469,0,0,0-.034.6v.225h.211a2.417,2.417,0,0,0,.558-.041v.435a4.49,4.49,0,0,0-.531-.027h-.238v.864h.211a6.522,6.522,0,0,0,.932-1.313,2.346,2.346,0,0,0,.191-.449l.422.245a1.439,1.439,0,0,0-.164.238,7.084,7.084,0,0,1-.878,1.279h.218a4.817,4.817,0,0,0,.715-.033v.428a5.984,5.984,0,0,0-.653-.027H40.3a9.123,9.123,0,0,1-.776.721h1.007a4.255,4.255,0,0,0,.619-.027,6.077,6.077,0,0,0-.02.715v1.579a5.738,5.738,0,0,0,.027.673h-.428v-.306H39.2V31.8h-.442a5.91,5.91,0,0,0,.041-.742V29.33c-.293.217-.368.279-.681.483a1.134,1.134,0,0,0-.238-.368,7.992,7.992,0,0,0,1.9-1.415Zm.394,1.817h1.532v-.742H39.2Zm0,1.178h1.532V30.2H39.2ZM44.133,26.1c-.047.088-.047.088-.272.606-.19.428-.388.8-.687,1.34a2.966,2.966,0,0,1,.687.913,2.367,2.367,0,0,1,.266,1.054.845.845,0,0,1-.374.8,1.417,1.417,0,0,1-.681.116c-.109,0-.273-.007-.463-.02a1.45,1.45,0,0,0-.095-.463,3.8,3.8,0,0,0,.653.054c.374,0,.5-.136.5-.551a2.191,2.191,0,0,0-.32-1.1,2.983,2.983,0,0,0-.667-.749,10.18,10.18,0,0,0,.905-1.891H42.234V30.9a7.112,7.112,0,0,0,.048.925h-.517a6.448,6.448,0,0,0,.041-.932V26.444c0-.224-.007-.388-.027-.619.177.013.3.02.558.02h1.068a3.217,3.217,0,0,0,.524-.027Z"/><path class="cls-15" d="M47.636,26.689a18.336,18.336,0,0,1-2.116.225,1.239,1.239,0,0,0-.2-.443,14.348,14.348,0,0,0,3.967-.585,2.622,2.622,0,0,0,.626-.258l.327.421c-.082.028-.1.035-.211.069a13.83,13.83,0,0,1-1.919.49v1.619H50.2a4.532,4.532,0,0,0,.763-.047V28.7a5.016,5.016,0,0,0-.749-.048h-2.1v2.4a4.083,4.083,0,0,0,.048.8h-.572a4.912,4.912,0,0,0,.047-.823V28.656h-1.98a5.04,5.04,0,0,0-.728.048V28.18a4.438,4.438,0,0,0,.735.047h1.973Z"/><path class="cls-15" d="M52.623,28.833c0-.32.007-.551.027-.844a4.388,4.388,0,0,1-.884,1.1,1.131,1.131,0,0,0-.286-.381,6.137,6.137,0,0,0,1.531-2.137,4.335,4.335,0,0,0,.293-.912l.476.17c-.061.15-.061.15-.156.395a9.4,9.4,0,0,1-.565,1.17v3.621a5.533,5.533,0,0,0,.048.809h-.531a5.47,5.47,0,0,0,.047-.83Zm2.879-.864a5.98,5.98,0,0,0,.857,2.477c.313.47.654.8.824.8.081,0,.136-.061.191-.224a5.545,5.545,0,0,0,.156-.9,1.973,1.973,0,0,0,.4.293c-.156.973-.346,1.334-.707,1.334-.47,0-1.151-.728-1.613-1.715a7.536,7.536,0,0,1-.558-2.029l-.926.1a4.645,4.645,0,0,0-.673.1l-.028-.49a1.348,1.348,0,0,0,.136.007c.13,0,.361-.014.551-.034L55,27.6c-.047-.435-.075-.844-.081-1.191a3.883,3.883,0,0,0-.048-.619l.524-.007a2.1,2.1,0,0,0-.034.45,10.242,10.242,0,0,0,.088,1.319l1.6-.163a3.616,3.616,0,0,0,.688-.109l.041.49h-.164c-.088,0-.326.014-.517.034Zm.66-2.171a8.614,8.614,0,0,1,1.1,1l-.327.313a6.505,6.505,0,0,0-1.062-1.055Z"/><path class="cls-15" d="M63.789,31.718V31.3H59.3v.415h-.476a6.8,6.8,0,0,0,.041-.789V26.7c0-.252-.014-.463-.034-.681a7.019,7.019,0,0,0,.782.034h3.866a7,7,0,0,0,.776-.034,5.157,5.157,0,0,0-.034.681v4.226a6.427,6.427,0,0,0,.041.789ZM59.3,28.4h1.953V26.451H59.3Zm0,2.5h1.953V28.792H59.3Zm2.382-2.5h2.1V26.451h-2.1Zm0,2.5h2.1V28.792h-2.1Z"/><path class="cls-15" d="M71.287,31.44a3.633,3.633,0,0,0-.667-.048H66.1v.367h-.5a4.976,4.976,0,0,0,.047-.741V26.7c0-.279-.013-.5-.027-.708a5.641,5.641,0,0,0,.714.034h4.077a4.225,4.225,0,0,0,.735-.047v.5a4.722,4.722,0,0,0-.742-.04H66.1v4.539h4.512a3.444,3.444,0,0,0,.674-.041Zm-.912-.933a18.307,18.307,0,0,0-1.565-1.483,8.574,8.574,0,0,1-2.021,1.626,2.228,2.228,0,0,0-.334-.34,8.461,8.461,0,0,0,2.029-1.559,13.423,13.423,0,0,0-1.723-1.205l.293-.333c.749.5,1.089.742,1.708,1.218a5.536,5.536,0,0,0,1-1.7l.449.225a3.54,3.54,0,0,0-.191.333,6.755,6.755,0,0,1-.932,1.409,20.744,20.744,0,0,1,1.592,1.422Z"/><path class="cls-15" d="M73.3,28.1a11.682,11.682,0,0,1,1,.735,7.258,7.258,0,0,0,.211-1.456h-1.32a4.271,4.271,0,0,0-.735.041v-.5a4.1,4.1,0,0,0,.721.041h1.355c.007-.211.013-.375.013-.565a3.037,3.037,0,0,0-.054-.708h.537a3.884,3.884,0,0,0-.041.552c0,.142-.006.339-.02.721h1.109a6.332,6.332,0,0,0,.776-.034c-.014.156-.027.319-.027.592l-.02,3.5c0,.142.027.176.156.2a1.748,1.748,0,0,0,.293.02c.449,0,.544-.027.592-.163a4.9,4.9,0,0,0,.116-1.205,1.557,1.557,0,0,0,.435.184,3.012,3.012,0,0,1-.259,1.395c-.115.163-.3.2-.85.2-.83,0-.932-.061-.932-.551l.02-3.729H74.947a7.522,7.522,0,0,1-.279,1.762,11.82,11.82,0,0,1,1.027.96l-.265.381a12.812,12.812,0,0,0-.912-.919,4.828,4.828,0,0,1-2.082,2.219,1.116,1.116,0,0,0-.348-.381,4.941,4.941,0,0,0,1.171-.81,3.705,3.705,0,0,0,.905-1.341,9.267,9.267,0,0,0-1.137-.837Z"/><path class="cls-15" d="M81.675,29.493c-.394.9-.8,1.307-1.286,1.307-.646,0-1.129-.708-1.129-1.661a2.763,2.763,0,0,1,2.912-2.783,2.636,2.636,0,0,1,1.872.673,2.278,2.278,0,0,1,.66,1.661,2.479,2.479,0,0,1-1.558,2.348,5.294,5.294,0,0,1-1.035.313,1.074,1.074,0,0,0-.238-.456,4.066,4.066,0,0,0,1.136-.32,2.054,2.054,0,0,0,1.2-1.9,1.794,1.794,0,0,0-1.082-1.708,1.964,1.964,0,0,0-.79-.171A10.175,10.175,0,0,1,81.675,29.493Zm-.837-2.375a2.354,2.354,0,0,0-1.109,2.028c0,.653.286,1.157.653,1.157.287,0,.559-.32.852-.987a9.41,9.41,0,0,0,.619-2.518A2.145,2.145,0,0,0,80.838,27.118Z"/><path class="cls-15" d="M88.935,27.043c-.014.129-.02.177-.04.293a4.086,4.086,0,0,0,.687,1.2,4.585,4.585,0,0,0,1.347,1.076,1.463,1.463,0,0,0-.3.394,4.629,4.629,0,0,1-1.872-2.068,3.187,3.187,0,0,1-.38.857,3.883,3.883,0,0,1-1.416,1.272,1.308,1.308,0,0,0-.307-.347,3.539,3.539,0,0,0,1.178-.911,3.206,3.206,0,0,0,.667-1.77H86.54v3.968a4.87,4.87,0,0,0,.034.755h-.531a4.747,4.747,0,0,0,.047-.755v-3.8a5.218,5.218,0,0,0-.026-.612,5.344,5.344,0,0,0,.673.034h1.8c.013-.232.013-.313.013-.565a2.238,2.238,0,0,0-.048-.49h.531a2,2,0,0,0-.047.49c-.007.306-.014.4-.021.565h1.872a5.435,5.435,0,0,0,.687-.034,4.94,4.94,0,0,0-.027.6v3.933c0,.429-.143.511-.864.511-.225,0-.5-.014-.776-.035a1.6,1.6,0,0,0-.109-.469,4.984,4.984,0,0,0,.932.089c.32,0,.368-.021.368-.178V27.043Z"/><path class="cls-15" d="M94.835,31.038l-.327-.327L95.8,29.425,94.5,28.132l.326-.334,1.3,1.3,1.292-1.3.327.334-1.293,1.293,1.293,1.3-.327.326-1.292-1.3Z"/><path class="cls-15" d="M98.554,29a3.819,3.819,0,0,0,.619.034h.81a3.862,3.862,0,0,0,.626-.034v.572a4.027,4.027,0,0,0-.626-.034h-.81a4.048,4.048,0,0,0-.619.034Z"/><path class="cls-15" d="M101.74,31.038l-.326-.327,1.286-1.286-1.293-1.293.327-.334,1.3,1.3,1.293-1.3.326.334-1.293,1.293,1.293,1.3-.326.326-1.293-1.3Z"/><path class="cls-15" d="M105.459,29a3.833,3.833,0,0,0,.62.034h.809a3.855,3.855,0,0,0,.626-.034v.572a4.027,4.027,0,0,0-.626-.034h-.809a4.054,4.054,0,0,0-.62.034Z"/><path class="cls-15" d="M108.646,31.038l-.327-.327,1.287-1.286-1.294-1.293.327-.334,1.3,1.3,1.293-1.3.327.334-1.294,1.293,1.294,1.3-.327.326-1.293-1.3Z"/><path class="cls-15" d="M113.113,31.038l-.327-.327,1.287-1.286-1.294-1.293.327-.334,1.3,1.3,1.293-1.3.327.334-1.293,1.293,1.293,1.3-.327.326-1.293-1.3Z"/><path class="cls-10" d="M133.468,99.338a3.2,3.2,0,0,0-.513.026v-.3a3.277,3.277,0,0,0,.526.03h1.235v-.034a2.233,2.233,0,0,0-.031-.422h.322a2.4,2.4,0,0,0-.03.422v.034h1.3a3.011,3.011,0,0,0,.543-.03v.3a4.128,4.128,0,0,0-.534-.026h-1.309V99.7h.948a3.3,3.3,0,0,0,.5-.021,3.589,3.589,0,0,0-.018.456v.64a2.959,2.959,0,0,0,.018.46,2.825,2.825,0,0,0-.5-.025h-.748a3.429,3.429,0,0,0,1.791.965,1.135,1.135,0,0,0-.165.274,4.826,4.826,0,0,1-.978-.431,3.22,3.22,0,0,1-.862-.713c.009.113.014.257.014.339v.444a2.362,2.362,0,0,0,.03.482h-.322a2.841,2.841,0,0,0,.031-.482v-.439c0-.083,0-.213.013-.335a2.616,2.616,0,0,1-.514.5,4.165,4.165,0,0,1-1.212.634,1.083,1.083,0,0,0-.162-.26,3.6,3.6,0,0,0,1.057-.466,2.451,2.451,0,0,0,.609-.508h-.635a2.8,2.8,0,0,0-.5.025l0-.056a3.952,3.952,0,0,0,.013-.4v-.631a4.454,4.454,0,0,0-.017-.47,2.41,2.41,0,0,0,.482.026h.866v-.361Zm.187.587v.4h1.061v-.4Zm0,.622v.439h1.061v-.439Zm1.322-.221h1.156v-.4h-1.156Zm0,.66h1.156v-.439h-1.156Z"/><path class="cls-10" d="M138.506,101.313a3.261,3.261,0,0,1-1.026,1.091.967.967,0,0,0-.2-.226,2.4,2.4,0,0,0,.561-.43,2.156,2.156,0,0,0,.422-.583Zm.539-2.3a1.938,1.938,0,0,0-.03-.365h.343a1.6,1.6,0,0,0-.03.365v.161h1.343a2.772,2.772,0,0,0,.483-.03v.309a2.46,2.46,0,0,0-.474-.027h-2.887a2.44,2.44,0,0,0-.466.027v-.309a2.809,2.809,0,0,0,.483.03h1.235Zm-.791,1.957a3.553,3.553,0,0,0-.388.017,2.524,2.524,0,0,0,.018-.352v-.491a2.72,2.72,0,0,0-.018-.361,3.17,3.17,0,0,0,.388.017h1.891a2.938,2.938,0,0,0,.4-.017,2.479,2.479,0,0,0-.018.361v.491c0,.153,0,.24.013.349-.113-.009-.23-.014-.4-.014h-.756v1.209c0,.248-.114.327-.479.327-.095,0-.278-.009-.426-.018a.87.87,0,0,0-.074-.287,2.67,2.67,0,0,0,.47.043c.191,0,.226-.017.226-.1v-1.17Zm-.1-.239h2.1v-.683h-2.1Zm1.974.431a2.429,2.429,0,0,0,.426.548,2.676,2.676,0,0,0,.605.456.94.94,0,0,0-.2.239,3.078,3.078,0,0,1-.548-.452,4.263,4.263,0,0,1-.522-.639Z"/><path class="cls-10" d="M142.091,100.169a2.33,2.33,0,0,0-.443.026v-.287a2.33,2.33,0,0,0,.443.026h.448v-.552h-.322a2.415,2.415,0,0,0-.4.022v-.283a1.822,1.822,0,0,0,.4.026h.322V99a2.335,2.335,0,0,0-.026-.383h.313a2.253,2.253,0,0,0-.021.383v.143h.135a1.524,1.524,0,0,0,.356-.026V99.4a2.629,2.629,0,0,0-.339-.018h-.152v.552h.135a4.172,4.172,0,0,0,.595-.839,1.463,1.463,0,0,0,.122-.287l.269.156a1.036,1.036,0,0,0-.1.153,4.576,4.576,0,0,1-.561.817h.139a3.119,3.119,0,0,0,.457-.021v.274a3.509,3.509,0,0,0-.417-.018h-.392a6.02,6.02,0,0,1-.5.461h.644a2.807,2.807,0,0,0,.4-.017,3.8,3.8,0,0,0-.013.456v1.009a3.641,3.641,0,0,0,.017.431h-.274v-.2h-.979v.265h-.282a3.735,3.735,0,0,0,.026-.474V101c-.187.139-.235.178-.435.309a.722.722,0,0,0-.152-.235,5.152,5.152,0,0,0,1.213-.905Zm.252,1.161h.979v-.474h-.979Zm0,.753h.979v-.527h-.979Zm3.154-3.144c-.031.056-.031.056-.175.386-.121.274-.247.513-.439.857a1.881,1.881,0,0,1,.439.583,1.5,1.5,0,0,1,.17.674.54.54,0,0,1-.239.513.9.9,0,0,1-.435.074c-.069,0-.174,0-.3-.013a.9.9,0,0,0-.06-.3,2.386,2.386,0,0,0,.417.035c.239,0,.322-.087.322-.352a1.394,1.394,0,0,0-.2-.7,1.9,1.9,0,0,0-.426-.479,6.489,6.489,0,0,0,.579-1.209h-.866v2.993a4.494,4.494,0,0,0,.031.591h-.331a4.133,4.133,0,0,0,.026-.6V99.156c0-.144,0-.248-.017-.4.113.009.191.013.356.013h.683a2.048,2.048,0,0,0,.335-.017Z"/><path class="cls-10" d="M164.825,104.43c0,.074,0,.091,0,.252h-.313a2.456,2.456,0,0,0,.03-.465v-2.31a2.627,2.627,0,0,0-.013-.33,3.834,3.834,0,0,0,1.4-.469l.209.243a6.1,6.1,0,0,1-1.318.435v.822h.852a2.1,2.1,0,0,0,.37-.022v.3a2.091,2.091,0,0,0-.365-.021h-.857v1.109h.883a2.045,2.045,0,0,0,.365-.022v.3a2.109,2.109,0,0,0-.365-.022h-.883Zm1.561-2.736c0-.187,0-.269-.013-.378a3.241,3.241,0,0,0,.4.018h.939a3.141,3.141,0,0,0,.391-.018,2.385,2.385,0,0,0-.021.383v2.331c0,.291-.1.37-.448.37-.1,0-.287-.009-.453-.027a.772.772,0,0,0-.069-.3,3.209,3.209,0,0,0,.522.048c.139,0,.165-.022.165-.144V101.59h-1.122v2.879a3.665,3.665,0,0,0,.026.5h-.335a4.666,4.666,0,0,0,.022-.5Z"/><path class="cls-15" d="M28.654,53.765a4.316,4.316,0,0,0-.026-.555h.3a4.465,4.465,0,0,0-.026.545v.469H30a1.412,1.412,0,0,0,.284-.021,3.614,3.614,0,0,0-.019.422v1.458c0,.176.008.315.023.475h-.269V56.2H28.9V57.44a4.191,4.191,0,0,0,.026.608h-.3a5.156,5.156,0,0,0,.026-.608V56.2H27.6v.363h-.269c.015-.155.022-.3.022-.475V54.625c0-.165-.007-.283-.018-.422a1.433,1.433,0,0,0,.28.021h1.039Zm-1.054.78v1.33h1.054v-1.33Zm2.415,1.33v-1.33H28.9v1.33Z"/><path class="cls-15" d="M31.575,53.728a2,2,0,0,0-.344.021v-.336a1.752,1.752,0,0,0,.363.026h1.057a1.64,1.64,0,0,0,.363-.026v.336a1.959,1.959,0,0,0-.34-.021H32.61v.753h.139a1.554,1.554,0,0,0,.355-.027V54.8a1.591,1.591,0,0,0-.351-.026H32.61v.779a4.35,4.35,0,0,0,.016.465h.257a2.28,2.28,0,0,0-.022.4v.085h.811a1.561,1.561,0,0,0,.412-.032v.358a2.112,2.112,0,0,0-.408-.027h-.815v.726H34a1.979,1.979,0,0,0,.415-.026v.368a2.492,2.492,0,0,0-.426-.032H31.571a2.481,2.481,0,0,0-.419.032V57.5a2.431,2.431,0,0,0,.412.026H32.63V56.8H31.9a2.146,2.146,0,0,0-.411.027v-.358a1.439,1.439,0,0,0,.4.032h.741V56.42a2.888,2.888,0,0,0-.016-.374h-.25a4.275,4.275,0,0,0,.022-.5v-.774h-.542a3.285,3.285,0,0,1-.142.8,1.9,1.9,0,0,1-.377.679.863.863,0,0,0-.18-.251,1.417,1.417,0,0,0,.363-.615,2.422,2.422,0,0,0,.108-.608h-.134a1.579,1.579,0,0,0-.352.026v-.347a1.607,1.607,0,0,0,.352.027h.149c.011-.278.015-.39.015-.753Zm.3,0c0,.368,0,.507-.015.753h.527v-.753Zm1.368,1.586a3.8,3.8,0,0,0,.023-.481v-.87a3.924,3.924,0,0,0-.023-.481h.273a3.766,3.766,0,0,0-.018.47v.9c0,.23,0,.353.014.465Zm1.021.379c0,.32-.082.406-.382.406a3.166,3.166,0,0,1-.37-.021,1.557,1.557,0,0,0-.063-.353,1.663,1.663,0,0,0,.336.048h.135c.086-.005.105-.027.105-.123V53.781A3.93,3.93,0,0,0,34,53.263h.284a4.612,4.612,0,0,0-.022.529Z"/><path class="cls-15" d="M36.6,53.722a3.893,3.893,0,0,0-.027-.512h.281a4.025,4.025,0,0,0-.026.512v.07h1.121a1.425,1.425,0,0,0,.389-.037v.368a2.123,2.123,0,0,0-.385-.032H36.833v.459H37.6a1.571,1.571,0,0,0,.423-.032c-.012.171-.015.262-.015.561v.838c0,.3,0,.4.015.567a1.842,1.842,0,0,0-.427-.033h-.758v.476h1.162a1.36,1.36,0,0,0,.389-.038v.374a2.083,2.083,0,0,0-.389-.032H36.833v.256a4.116,4.116,0,0,0,.026.588h-.281a4.2,4.2,0,0,0,.027-.588v-.256H35.5a1.879,1.879,0,0,0-.381.032v-.374a1.365,1.365,0,0,0,.381.038H36.6v-.476h-.7a1.88,1.88,0,0,0-.433.033c.011-.166.014-.262.014-.567V55.1c0-.31,0-.406-.014-.577a1.507,1.507,0,0,0,.414.032H36.6v-.459H35.524a1.949,1.949,0,0,0-.377.032v-.368a1.5,1.5,0,0,0,.381.037H36.6Zm-.883,1.116v.513H36.6v-.513Zm0,.8v.523H36.6V55.64Zm2.049-.289v-.513h-.938v.513Zm0,.812V55.64h-.938v.523Z"/><path class="cls-15" d="M39.843,53.541a10.643,10.643,0,0,0-.288,2.505c0,.187.008.5.015.747,0,.043,0,.054,0,.149v.1l.015.005a6.252,6.252,0,0,1,.221-.94A.789.789,0,0,0,39.839,56l.184.123a6.15,6.15,0,0,0-.322,1.516.773.773,0,0,0,.008.107l-.266.038c0-.049-.007-.075-.022-.2a12.1,12.1,0,0,1-.1-1.586,12.835,12.835,0,0,1,.194-2.2c.034-.235.038-.267.042-.337Zm.378.993a1.845,1.845,0,0,0,.673.086c.146,0,.247-.006.4-.016,0-.5,0-.5,0-.909a1.767,1.767,0,0,0-.011-.218h.28a7.988,7.988,0,0,0-.026.838c0,.059,0,.145,0,.262a1.929,1.929,0,0,0,.647-.2l.011.363c-.008,0-.008,0-.262.075a2.489,2.489,0,0,1-.4.085c0,.529.011.8.041,1.512a2.692,2.692,0,0,1,.624.523c.045.043.053.054.094.091l-.116.374a2.281,2.281,0,0,0-.531-.555.318.318,0,0,1-.038-.032.172.172,0,0,0-.033-.033,1.02,1.02,0,0,1,.008.139,1.3,1.3,0,0,1-.045.363.621.621,0,0,1-.625.449.683.683,0,0,1-.706-.758.707.707,0,0,1,.71-.759.787.787,0,0,1,.415.107c-.011-.112-.026-.614-.038-1.394-.167.011-.284.016-.426.016s-.291-.005-.422-.016a.743.743,0,0,0-.12-.01.344.344,0,0,0-.063-.006.133.133,0,0,0-.038,0h-.015Zm.718,2a.436.436,0,0,0-.482.443.407.407,0,0,0,.433.433.441.441,0,0,0,.382-.187.843.843,0,0,0,.07-.417c0-.037,0-.16,0-.16A.722.722,0,0,0,40.939,56.537Z"/><path class="cls-15" d="M44.525,53.765a4.316,4.316,0,0,0-.026-.555h.3a4.465,4.465,0,0,0-.026.545v.469h1.095a1.406,1.406,0,0,0,.284-.021,3.614,3.614,0,0,0-.019.422v1.458c0,.176.008.315.023.475h-.269V56.2H44.772V57.44a4.191,4.191,0,0,0,.026.608h-.3a5.156,5.156,0,0,0,.026-.608V56.2H43.471v.363H43.2c.015-.155.022-.3.022-.475V54.625c0-.165-.007-.283-.018-.422a1.433,1.433,0,0,0,.28.021h1.039Zm-1.054.78v1.33h1.054v-1.33Zm2.415,1.33v-1.33H44.772v1.33Z"/><path class="cls-15" d="M47.446,53.728a2,2,0,0,0-.344.021v-.336a1.752,1.752,0,0,0,.363.026h1.058a1.635,1.635,0,0,0,.362-.026v.336a1.959,1.959,0,0,0-.34-.021h-.063v.753h.138a1.554,1.554,0,0,0,.355-.027V54.8a1.591,1.591,0,0,0-.351-.026h-.142v.779a4.418,4.418,0,0,0,.015.465h.258a2.166,2.166,0,0,0-.023.4v.085h.812a1.553,1.553,0,0,0,.411-.032v.358a2.112,2.112,0,0,0-.408-.027h-.815v.726h1.14a1.979,1.979,0,0,0,.415-.026v.368a2.492,2.492,0,0,0-.426-.032H47.442a2.46,2.46,0,0,0-.418.032V57.5a2.409,2.409,0,0,0,.411.026H48.5V56.8h-.726a2.146,2.146,0,0,0-.411.027v-.358a1.439,1.439,0,0,0,.4.032H48.5V56.42a2.888,2.888,0,0,0-.016-.374h-.25a4.275,4.275,0,0,0,.022-.5v-.774h-.542a3.285,3.285,0,0,1-.142.8,1.9,1.9,0,0,1-.377.679.863.863,0,0,0-.18-.251,1.417,1.417,0,0,0,.363-.615,2.378,2.378,0,0,0,.108-.608h-.134A1.579,1.579,0,0,0,47,54.8v-.347a1.607,1.607,0,0,0,.352.027H47.5c.011-.278.015-.39.015-.753Zm.3,0c0,.368,0,.507-.015.753h.527v-.753Zm1.368,1.586a3.619,3.619,0,0,0,.023-.481v-.87a3.731,3.731,0,0,0-.023-.481h.273a3.766,3.766,0,0,0-.018.47v.9c0,.23,0,.353.014.465Zm1.021.379c0,.32-.082.406-.381.406a3.171,3.171,0,0,1-.371-.021,1.557,1.557,0,0,0-.063-.353,1.673,1.673,0,0,0,.336.048h.135c.086-.005.105-.027.105-.123V53.781a3.93,3.93,0,0,0-.023-.518h.284a4.612,4.612,0,0,0-.022.529Z"/><path class="cls-15" d="M52.476,53.722a3.893,3.893,0,0,0-.027-.512h.281a4.025,4.025,0,0,0-.026.512v.07h1.121a1.425,1.425,0,0,0,.389-.037v.368a2.123,2.123,0,0,0-.385-.032H52.7v.459h.762a1.567,1.567,0,0,0,.423-.032c-.011.171-.015.262-.015.561v.838c0,.3,0,.4.015.567a1.831,1.831,0,0,0-.426-.033H52.7v.476h1.162a1.36,1.36,0,0,0,.389-.038v.374a2.076,2.076,0,0,0-.389-.032H52.7v.256a4.116,4.116,0,0,0,.026.588h-.281a4.2,4.2,0,0,0,.027-.588v-.256H51.369a1.879,1.879,0,0,0-.381.032v-.374a1.37,1.37,0,0,0,.381.038h1.107v-.476h-.7a1.88,1.88,0,0,0-.433.033c.011-.166.014-.262.014-.567V55.1c0-.31,0-.406-.014-.577a1.512,1.512,0,0,0,.414.032h.715v-.459H51.4a1.949,1.949,0,0,0-.377.032v-.368a1.508,1.508,0,0,0,.381.037h1.077Zm-.883,1.116v.513h.883v-.513Zm0,.8v.523h.883V55.64Zm2.049-.289v-.513H52.7v.513Zm0,.812V55.64H52.7v.523Z"/><path class="cls-15" d="M56.105,58.1a4,4,0,0,1-.52-1.148,4.886,4.886,0,0,1,0-2.628,4,4,0,0,1,.52-1.148h.332a3.6,3.6,0,0,0-.568,1.106,4.656,4.656,0,0,0,0,2.713,3.6,3.6,0,0,0,.568,1.1Z"/><path class="cls-15" d="M58.8,55.736a1.176,1.176,0,0,1,.281.838c0,.732-.374,1.143-1.032,1.143a1,1,0,0,1-1.062-1.143,1.146,1.146,0,0,1,.333-.886.651.651,0,0,1,.336-.182c-.329-.085-.542-.464-.542-.961,0-.646.355-1.058.92-1.058s.923.4.923,1.058a.91.91,0,0,1-.542.961A.657.657,0,0,1,58.8,55.736Zm-1.506.811a.708.708,0,0,0,.736.807.7.7,0,0,0,.6-.278.879.879,0,0,0,.142-.529c0-.523-.28-.838-.74-.838S57.3,56.029,57.3,56.547Zm.112-1.97c0,.475.239.763.632.763s.628-.288.628-.763c0-.449-.247-.732-.632-.732S57.407,54.133,57.407,54.577Z"/><path class="cls-15" d="M60.33,53.957a5.683,5.683,0,0,0-.026.593v.2h.18a1.608,1.608,0,0,0,.381-.032v.406a1.574,1.574,0,0,0-.381-.032H60.3v1.858a.5.5,0,0,0,.049.283.213.213,0,0,0,.183.091.422.422,0,0,0,.3-.138l.082.373a.752.752,0,0,1-.422.123.424.424,0,0,1-.366-.165.884.884,0,0,1-.1-.513V55.1h-.15a1.788,1.788,0,0,0-.336.032v-.406a1.186,1.186,0,0,0,.336.032h.15v-.2c0-.213-.008-.417-.026-.593Z"/><path class="cls-15" d="M61.327,58.1a3.538,3.538,0,0,0,.568-1.1,4.656,4.656,0,0,0,0-2.713,3.542,3.542,0,0,0-.568-1.106h.332a4,4,0,0,1,.52,1.148,4.886,4.886,0,0,1,0,2.628,4,4,0,0,1-.52,1.148Z"/><path class="cls-15" d="M64.3,53.562c-.056.23-.1.491-.157.855a11.234,11.234,0,0,0-.112,1.671c0,.417.007.732.022,1.015a6.549,6.549,0,0,1,.243-1.041l.18.122a6.216,6.216,0,0,0-.3,1.469v.08l-.269.032c-.008-.085-.011-.112-.023-.214a10.847,10.847,0,0,1-.1-1.511,12.516,12.516,0,0,1,.168-2.115,3.825,3.825,0,0,0,.052-.427Zm.954,2.147a1.488,1.488,0,0,0-.281.785c0,.4.236.588.718.588a1.8,1.8,0,0,0,.859-.187l.038.411a1.054,1.054,0,0,0-.131.027,2.775,2.775,0,0,1-.766.107.881.881,0,0,1-.856-.407.977.977,0,0,1-.113-.491,1.817,1.817,0,0,1,.325-.993Zm-.476-1.581a1.809,1.809,0,0,0,.636.08,2.87,2.87,0,0,0,1-.144l.019.379c-.008,0-.094.017-.258.048a4.423,4.423,0,0,1-.8.07,3.453,3.453,0,0,1-.6-.054Z"/><path class="cls-15" d="M67.622,53.792c0-.144,0-.273-.011-.406a1.4,1.4,0,0,0,.25.016h.546a.735.735,0,0,0,.236-.022l.134.22a1.225,1.225,0,0,0-.056.171c-.131.453-.239.779-.407,1.222a2.3,2.3,0,0,1,.355.871,2.471,2.471,0,0,1,.033.416c0,.262-.059.438-.168.508a.6.6,0,0,1-.306.053,1.3,1.3,0,0,1-.18-.01,1.215,1.215,0,0,0-.056-.337.92.92,0,0,0,.265.037c.161,0,.21-.069.21-.288a1.92,1.92,0,0,0-.083-.566,2.285,2.285,0,0,0-.321-.646,11.35,11.35,0,0,0,.426-1.33h-.635v3.85c0,.193,0,.337.019.5H67.6c.014-.149.022-.3.022-.5Zm1.507,1.885v1.8a6.079,6.079,0,0,0,.688-.288l.011.315c-.415.181-.614.261-1.189.459a.644.644,0,0,0-.176.075l-.06-.358a2.593,2.593,0,0,0,.494-.129V54.005c0-.2,0-.374-.015-.555a2.194,2.194,0,0,0,.366.021h.968a1.365,1.365,0,0,0,.359-.027c-.007.14-.011.246-.011.588v1.106c0,.325,0,.411.011.555a3.441,3.441,0,0,0-.355-.016h-.5a3.558,3.558,0,0,0,.221.828,3.629,3.629,0,0,0,.643-.753l.179.246a.634.634,0,0,1-.049.058,9.12,9.12,0,0,1-.661.7,2.513,2.513,0,0,0,.841.961,1.116,1.116,0,0,0-.16.3,3.1,3.1,0,0,1-.872-1.1,4.151,4.151,0,0,1-.366-1.234Zm0-1.255h1.218v-.657H69.125Zm0,.967h1.218v-.674H69.125Z"/><path class="cls-15" d="M72.1,53.685a1.21,1.21,0,0,0,.351.032c.311,0,.808-.032,1.144-.069a.3.3,0,0,0,.18-.059l.157.293c-.053.038-.071.06-.191.225a11.622,11.622,0,0,1-1.23,1.517l.008.016a1.47,1.47,0,0,1,.916-.331,1,1,0,0,1,1.024,1.121,1.3,1.3,0,0,1-1.372,1.383.728.728,0,0,1-.83-.769.572.572,0,0,1,.542-.624.71.71,0,0,1,.617.437,1.879,1.879,0,0,1,.172.513.926.926,0,0,0,.6-.935.743.743,0,0,0-.8-.817,2.094,2.094,0,0,0-1.574.913l-.168-.341a4.681,4.681,0,0,0,.524-.545c.4-.454.99-1.2,1.248-1.559l.052-.075.016-.022.014-.021-.007-.011a.1.1,0,0,0-.034.006,9.259,9.259,0,0,1-1.136.1,1.153,1.153,0,0,0-.2.027Zm.7,3.039a.3.3,0,0,0-.3.331.394.394,0,0,0,.149.325.723.723,0,0,0,.419.124.958.958,0,0,0,.273-.038C73.261,56.98,73.074,56.724,72.805,56.724Z"/><path class="cls-15" d="M14.777,71.311c0-.37.005-.51.015-.817a5.859,5.859,0,0,1-.426.992,1.657,1.657,0,0,0-.206-.37,6.963,6.963,0,0,0,.71-1.664,7.866,7.866,0,0,0,.294-1.39l.323.153c-.029.1-.039.147-.083.336a10.41,10.41,0,0,1-.333,1.244v3.872c0,.321.01.58.024.817h-.347c.019-.266.029-.482.029-.838Zm3.307,1.461a1.618,1.618,0,0,0-.1.14,3.861,3.861,0,0,1-.622.677,3.642,3.642,0,0,0,1.439.392,2.052,2.052,0,0,0-.142.419,3.924,3.924,0,0,1-1.562-.608,4.072,4.072,0,0,1-1.655.608,1.275,1.275,0,0,0-.128-.377,3.45,3.45,0,0,0,1.508-.447A3.614,3.614,0,0,1,16.3,73a2.663,2.663,0,0,1-.745.614,1.106,1.106,0,0,0-.181-.286,2.313,2.313,0,0,0,.764-.559,2.239,2.239,0,0,0,.382-.538c-.157-.042-.2-.112-.2-.349v-.231a2.109,2.109,0,0,0-.02-.329h.285a2.265,2.265,0,0,0-.02.336v.125c0,.154.059.175.456.175.381,0,.5-.021.548-.112a1.352,1.352,0,0,0,.083-.384.6.6,0,0,0,.24.168c-.112.615-.137.629-.916.629H16.81c-.083.146-.1.174-.167.279h.877a1.5,1.5,0,0,0,.382-.028Zm-2.018-4.025a2.443,2.443,0,0,0-.51.042v-.42a2.294,2.294,0,0,0,.51.042h2.071a2.366,2.366,0,0,0,.514-.042v.42a2.4,2.4,0,0,0-.509-.042H17.128c-.054.181-.059.2-.107.342h.666a2.7,2.7,0,0,0,.514-.035c-.01.147-.015.238-.015.433V70.85a2.966,2.966,0,0,0,.554-.035c-.01.14-.015.273-.015.426v.105a3.241,3.241,0,0,0,.02.42h-.294v-.6H15.683v.713h-.289c.01-.12.015-.266.015-.413v-.224c0-.132-.005-.3-.015-.426a2.792,2.792,0,0,0,.539.035V69.487c0-.16,0-.293-.014-.433a3.588,3.588,0,0,0,.528.035h.28c.014-.042.024-.077.029-.1a.36.36,0,0,0,.029-.084.526.526,0,0,0,.045-.16Zm.1,2.816a3.47,3.47,0,0,1-.465.958l-.2-.238a2.165,2.165,0,0,0,.451-.888Zm1.749-1.873v-.3H16.2v.3Zm0,.573v-.3H16.2v.3Zm0,.587v-.314H16.2v.314Zm-1.4,2a2.9,2.9,0,0,0,.568.552,2.72,2.72,0,0,0,.578-.552Zm.392-1.657a2.441,2.441,0,0,1,.436.4l-.152.245a1.973,1.973,0,0,0-.436-.434Zm1.185.154a7.471,7.471,0,0,1,.539.916l-.2.244a5.666,5.666,0,0,0-.544-.978Z"/><path class="cls-15" d="M20.539,71.668V73.7a11.115,11.115,0,0,0,1.259-.488l.005.433a13.283,13.283,0,0,1-1.915.713,1.916,1.916,0,0,0-.275.09l-.1-.51a3.408,3.408,0,0,0,.705-.147v-4.3c0-.251,0-.475-.02-.635a2.347,2.347,0,0,0,.427.027h.905v-.272a3.229,3.229,0,0,0-.034-.5h.387a3.2,3.2,0,0,0-.034.511v.265h.96a2.369,2.369,0,0,0,.431-.027c-.01.153-.02.384-.02.643V71.06c0,.286.005.461.015.622-.122-.007-.309-.014-.416-.014H21.71a2.978,2.978,0,0,0,.475,1.062,4.277,4.277,0,0,0,1.127-1.1l.244.335c-.053.056-.058.056-.181.182a5.933,5.933,0,0,1-.984.846A3.424,3.424,0,0,0,23.919,74a2.024,2.024,0,0,0-.176.461,4.08,4.08,0,0,1-1.7-1.349,3.875,3.875,0,0,1-.646-1.446Zm0-1.622H22.92v-.761H20.539Zm0,1.23H22.92v-.845H20.539Z"/><path class="cls-15" d="M130.02,13.5a1.617,1.617,0,0,1-.269-.551,5.4,5.4,0,0,1-.17-1.381,4.485,4.485,0,0,1,.26-1.627,1.077,1.077,0,0,1,1-.736.976.976,0,0,1,.821.425,1.629,1.629,0,0,1,.269.55,5.38,5.38,0,0,1,.17,1.388,3.95,3.95,0,0,1-.314,1.728,1.039,1.039,0,0,1-.951.628A.992.992,0,0,1,130.02,13.5Zm.26-3.578a1.335,1.335,0,0,0-.2.437,4.824,4.824,0,0,0-.139,1.209,4.27,4.27,0,0,0,.21,1.423.752.752,0,0,0,.7.52.659.659,0,0,0,.552-.281,1.327,1.327,0,0,0,.211-.466,4.872,4.872,0,0,0,.138-1.209,4.4,4.4,0,0,0-.2-1.393.756.756,0,0,0-.7-.545A.657.657,0,0,0,130.28,9.921Z"/><path class="cls-15" d="M132.97,13.5a1.617,1.617,0,0,1-.269-.551,5.4,5.4,0,0,1-.17-1.381,4.485,4.485,0,0,1,.26-1.627,1.078,1.078,0,0,1,1-.736.976.976,0,0,1,.821.425,1.629,1.629,0,0,1,.269.55,5.38,5.38,0,0,1,.17,1.388,3.95,3.95,0,0,1-.314,1.728,1.039,1.039,0,0,1-.95.628A.994.994,0,0,1,132.97,13.5Zm.261-3.578a1.338,1.338,0,0,0-.2.437,4.871,4.871,0,0,0-.139,1.209,4.266,4.266,0,0,0,.211,1.423.75.75,0,0,0,.695.52.659.659,0,0,0,.552-.281,1.327,1.327,0,0,0,.211-.466,4.872,4.872,0,0,0,.138-1.209,4.4,4.4,0,0,0-.2-1.393.755.755,0,0,0-.7-.545A.654.654,0,0,0,133.231,9.921Z"/><path class="cls-15" d="M30.268,94.945A1.6,1.6,0,0,1,30,94.4a5.405,5.405,0,0,1-.17-1.382,4.493,4.493,0,0,1,.26-1.627,1.079,1.079,0,0,1,1.005-.736.979.979,0,0,1,.821.425,1.643,1.643,0,0,1,.269.551,5.377,5.377,0,0,1,.17,1.387,3.952,3.952,0,0,1-.314,1.729,1.037,1.037,0,0,1-.951.628A.99.99,0,0,1,30.268,94.945Zm.26-3.577a1.326,1.326,0,0,0-.2.437,4.868,4.868,0,0,0-.139,1.208,4.247,4.247,0,0,0,.211,1.424.75.75,0,0,0,.7.52.662.662,0,0,0,.552-.281,1.319,1.319,0,0,0,.211-.466A4.878,4.878,0,0,0,32,93a4.4,4.4,0,0,0-.2-1.393.756.756,0,0,0-.705-.545A.657.657,0,0,0,30.528,91.368Z"/><path class="cls-15" d="M33.218,94.945a1.6,1.6,0,0,1-.269-.55,5.405,5.405,0,0,1-.17-1.382,4.493,4.493,0,0,1,.26-1.627,1.08,1.08,0,0,1,1-.736.979.979,0,0,1,.821.425,1.643,1.643,0,0,1,.269.551,5.377,5.377,0,0,1,.17,1.387,3.952,3.952,0,0,1-.314,1.729,1.037,1.037,0,0,1-.95.628A.992.992,0,0,1,33.218,94.945Zm.261-3.577a1.329,1.329,0,0,0-.2.437,4.868,4.868,0,0,0-.139,1.208,4.273,4.273,0,0,0,.211,1.424.75.75,0,0,0,.7.52.662.662,0,0,0,.552-.281,1.319,1.319,0,0,0,.211-.466A4.878,4.878,0,0,0,34.945,93a4.4,4.4,0,0,0-.2-1.393.755.755,0,0,0-.7-.545A.654.654,0,0,0,33.479,91.368Z"/><path class="cls-15" d="M30.268,100.944a1.6,1.6,0,0,1-.269-.55,5.405,5.405,0,0,1-.17-1.382,4.493,4.493,0,0,1,.26-1.627,1.078,1.078,0,0,1,1.005-.735.978.978,0,0,1,.821.424,1.643,1.643,0,0,1,.269.551,5.377,5.377,0,0,1,.17,1.387,3.952,3.952,0,0,1-.314,1.729,1.037,1.037,0,0,1-.951.628A.99.99,0,0,1,30.268,100.944Zm.26-3.577a1.326,1.326,0,0,0-.2.437,4.868,4.868,0,0,0-.139,1.208,4.247,4.247,0,0,0,.211,1.424.75.75,0,0,0,.7.52.662.662,0,0,0,.552-.281,1.319,1.319,0,0,0,.211-.466A4.872,4.872,0,0,0,32,99a4.4,4.4,0,0,0-.2-1.393.756.756,0,0,0-.705-.545A.657.657,0,0,0,30.528,97.367Z"/><path class="cls-15" d="M33.218,100.944a1.6,1.6,0,0,1-.269-.55,5.405,5.405,0,0,1-.17-1.382,4.493,4.493,0,0,1,.26-1.627,1.079,1.079,0,0,1,1-.735.978.978,0,0,1,.821.424,1.643,1.643,0,0,1,.269.551,5.377,5.377,0,0,1,.17,1.387,3.952,3.952,0,0,1-.314,1.729,1.037,1.037,0,0,1-.95.628A.992.992,0,0,1,33.218,100.944Zm.261-3.577a1.329,1.329,0,0,0-.2.437,4.868,4.868,0,0,0-.139,1.208,4.273,4.273,0,0,0,.211,1.424.75.75,0,0,0,.7.52.662.662,0,0,0,.552-.281,1.319,1.319,0,0,0,.211-.466A4.872,4.872,0,0,0,34.945,99a4.4,4.4,0,0,0-.2-1.393.755.755,0,0,0-.7-.545A.654.654,0,0,0,33.479,97.367Z"/><path class="cls-15" d="M30.268,107.262a1.6,1.6,0,0,1-.269-.549,5.411,5.411,0,0,1-.17-1.382,4.485,4.485,0,0,1,.26-1.627,1.078,1.078,0,0,1,1.005-.736.976.976,0,0,1,.821.425,1.638,1.638,0,0,1,.269.55,5.385,5.385,0,0,1,.17,1.388,3.95,3.95,0,0,1-.314,1.728,1.037,1.037,0,0,1-.951.628A.988.988,0,0,1,30.268,107.262Zm.26-3.576a1.321,1.321,0,0,0-.2.436,4.871,4.871,0,0,0-.139,1.209,4.24,4.24,0,0,0,.211,1.423.751.751,0,0,0,.7.521.66.66,0,0,0,.552-.282,1.319,1.319,0,0,0,.211-.466A4.872,4.872,0,0,0,32,105.318a4.4,4.4,0,0,0-.2-1.393.756.756,0,0,0-.705-.545A.655.655,0,0,0,30.528,103.686Z"/><path class="cls-15" d="M33.218,107.262a1.6,1.6,0,0,1-.269-.549,5.411,5.411,0,0,1-.17-1.382,4.485,4.485,0,0,1,.26-1.627,1.079,1.079,0,0,1,1-.736.976.976,0,0,1,.821.425,1.638,1.638,0,0,1,.269.55,5.385,5.385,0,0,1,.17,1.388,3.95,3.95,0,0,1-.314,1.728,1.037,1.037,0,0,1-.95.628A.99.99,0,0,1,33.218,107.262Zm.261-3.576a1.324,1.324,0,0,0-.2.436,4.871,4.871,0,0,0-.139,1.209,4.266,4.266,0,0,0,.211,1.423.751.751,0,0,0,.7.521.66.66,0,0,0,.552-.282,1.319,1.319,0,0,0,.211-.466,4.872,4.872,0,0,0,.138-1.209,4.4,4.4,0,0,0-.2-1.393.755.755,0,0,0-.7-.545A.653.653,0,0,0,33.479,103.686Z"/><path class="cls-15" d="M43.159,94.945a1.6,1.6,0,0,1-.269-.55,5.405,5.405,0,0,1-.17-1.382,4.493,4.493,0,0,1,.26-1.627,1.079,1.079,0,0,1,1.005-.736.979.979,0,0,1,.821.425,1.643,1.643,0,0,1,.269.551,5.377,5.377,0,0,1,.17,1.387,3.952,3.952,0,0,1-.314,1.729,1.037,1.037,0,0,1-.951.628A.992.992,0,0,1,43.159,94.945Zm.261-3.577a1.329,1.329,0,0,0-.2.437,4.868,4.868,0,0,0-.139,1.208,4.273,4.273,0,0,0,.211,1.424.75.75,0,0,0,.7.52.662.662,0,0,0,.552-.281,1.319,1.319,0,0,0,.211-.466A4.926,4.926,0,0,0,44.886,93a4.4,4.4,0,0,0-.2-1.393.755.755,0,0,0-.705-.545A.654.654,0,0,0,43.42,91.368Z"/><path class="cls-15" d="M46.109,94.945a1.6,1.6,0,0,1-.269-.55,5.405,5.405,0,0,1-.17-1.382,4.493,4.493,0,0,1,.26-1.627,1.08,1.08,0,0,1,1.005-.736.979.979,0,0,1,.821.425,1.643,1.643,0,0,1,.269.551,5.377,5.377,0,0,1,.17,1.387,3.952,3.952,0,0,1-.314,1.729,1.037,1.037,0,0,1-.951.628A.992.992,0,0,1,46.109,94.945Zm.261-3.577a1.329,1.329,0,0,0-.2.437,4.868,4.868,0,0,0-.139,1.208,4.273,4.273,0,0,0,.211,1.424.751.751,0,0,0,.7.52.662.662,0,0,0,.552-.281,1.3,1.3,0,0,0,.211-.466A4.876,4.876,0,0,0,47.837,93a4.369,4.369,0,0,0-.2-1.393.755.755,0,0,0-.7-.545A.654.654,0,0,0,46.37,91.368Z"/><path class="cls-15" d="M43.159,100.944a1.6,1.6,0,0,1-.269-.55,5.405,5.405,0,0,1-.17-1.382,4.493,4.493,0,0,1,.26-1.627,1.078,1.078,0,0,1,1.005-.735.978.978,0,0,1,.821.424,1.643,1.643,0,0,1,.269.551,5.377,5.377,0,0,1,.17,1.387,3.952,3.952,0,0,1-.314,1.729,1.037,1.037,0,0,1-.951.628A.992.992,0,0,1,43.159,100.944Zm.261-3.577a1.329,1.329,0,0,0-.2.437,4.868,4.868,0,0,0-.139,1.208,4.273,4.273,0,0,0,.211,1.424.75.75,0,0,0,.7.52.662.662,0,0,0,.552-.281,1.319,1.319,0,0,0,.211-.466A4.92,4.92,0,0,0,44.886,99a4.4,4.4,0,0,0-.2-1.393.755.755,0,0,0-.705-.545A.654.654,0,0,0,43.42,97.367Z"/><path class="cls-15" d="M46.109,100.944a1.6,1.6,0,0,1-.269-.55,5.405,5.405,0,0,1-.17-1.382,4.493,4.493,0,0,1,.26-1.627,1.079,1.079,0,0,1,1.005-.735.978.978,0,0,1,.821.424,1.643,1.643,0,0,1,.269.551,5.377,5.377,0,0,1,.17,1.387,3.952,3.952,0,0,1-.314,1.729,1.037,1.037,0,0,1-.951.628A.992.992,0,0,1,46.109,100.944Zm.261-3.577a1.329,1.329,0,0,0-.2.437,4.868,4.868,0,0,0-.139,1.208,4.273,4.273,0,0,0,.211,1.424.751.751,0,0,0,.7.52.662.662,0,0,0,.552-.281,1.3,1.3,0,0,0,.211-.466A4.871,4.871,0,0,0,47.837,99a4.369,4.369,0,0,0-.2-1.393.755.755,0,0,0-.7-.545A.654.654,0,0,0,46.37,97.367Z"/><path class="cls-15" d="M43.159,107.262a1.6,1.6,0,0,1-.269-.549,5.411,5.411,0,0,1-.17-1.382,4.485,4.485,0,0,1,.26-1.627,1.078,1.078,0,0,1,1.005-.736.976.976,0,0,1,.821.425,1.638,1.638,0,0,1,.269.55,5.385,5.385,0,0,1,.17,1.388,3.95,3.95,0,0,1-.314,1.728,1.037,1.037,0,0,1-.951.628A.989.989,0,0,1,43.159,107.262Zm.261-3.576a1.324,1.324,0,0,0-.2.436,4.871,4.871,0,0,0-.139,1.209,4.266,4.266,0,0,0,.211,1.423.751.751,0,0,0,.7.521.66.66,0,0,0,.552-.282,1.319,1.319,0,0,0,.211-.466,4.92,4.92,0,0,0,.138-1.209,4.4,4.4,0,0,0-.2-1.393.755.755,0,0,0-.705-.545A.652.652,0,0,0,43.42,103.686Z"/><path class="cls-15" d="M46.109,107.262a1.6,1.6,0,0,1-.269-.549,5.411,5.411,0,0,1-.17-1.382,4.485,4.485,0,0,1,.26-1.627,1.079,1.079,0,0,1,1.005-.736.976.976,0,0,1,.821.425,1.638,1.638,0,0,1,.269.55,5.385,5.385,0,0,1,.17,1.388,3.95,3.95,0,0,1-.314,1.728,1.037,1.037,0,0,1-.951.628A.989.989,0,0,1,46.109,107.262Zm.261-3.576a1.324,1.324,0,0,0-.2.436,4.871,4.871,0,0,0-.139,1.209,4.266,4.266,0,0,0,.211,1.423.752.752,0,0,0,.7.521.66.66,0,0,0,.552-.282,1.3,1.3,0,0,0,.211-.466,4.871,4.871,0,0,0,.139-1.209,4.369,4.369,0,0,0-.2-1.393.755.755,0,0,0-.7-.545A.652.652,0,0,0,46.37,103.686Z"/><path class="cls-15" d="M55.859,94.945a1.6,1.6,0,0,1-.269-.55,5.405,5.405,0,0,1-.17-1.382,4.493,4.493,0,0,1,.26-1.627,1.08,1.08,0,0,1,1.005-.736.979.979,0,0,1,.821.425,1.643,1.643,0,0,1,.269.551,5.377,5.377,0,0,1,.17,1.387,3.952,3.952,0,0,1-.314,1.729,1.037,1.037,0,0,1-.951.628A.992.992,0,0,1,55.859,94.945Zm.261-3.577a1.329,1.329,0,0,0-.2.437,4.868,4.868,0,0,0-.139,1.208,4.273,4.273,0,0,0,.211,1.424.751.751,0,0,0,.7.52.662.662,0,0,0,.552-.281,1.3,1.3,0,0,0,.211-.466A4.876,4.876,0,0,0,57.587,93a4.369,4.369,0,0,0-.2-1.393.755.755,0,0,0-.7-.545A.654.654,0,0,0,56.12,91.368Z"/><path class="cls-15" d="M58.81,94.945a1.586,1.586,0,0,1-.269-.55,5.36,5.36,0,0,1-.171-1.382,4.493,4.493,0,0,1,.26-1.627,1.08,1.08,0,0,1,1-.736.978.978,0,0,1,.821.425,1.624,1.624,0,0,1,.269.551,5.333,5.333,0,0,1,.171,1.387,3.967,3.967,0,0,1-.314,1.729,1.038,1.038,0,0,1-.952.628A.99.99,0,0,1,58.81,94.945Zm.26-3.577a1.35,1.35,0,0,0-.2.437,4.868,4.868,0,0,0-.139,1.208,4.273,4.273,0,0,0,.211,1.424.751.751,0,0,0,.7.52.662.662,0,0,0,.552-.281,1.284,1.284,0,0,0,.211-.466A4.876,4.876,0,0,0,60.537,93a4.369,4.369,0,0,0-.2-1.393.755.755,0,0,0-.7-.545A.655.655,0,0,0,59.07,91.368Z"/><path class="cls-15" d="M55.859,100.944a1.6,1.6,0,0,1-.269-.55,5.405,5.405,0,0,1-.17-1.382,4.493,4.493,0,0,1,.26-1.627,1.079,1.079,0,0,1,1.005-.735.978.978,0,0,1,.821.424,1.643,1.643,0,0,1,.269.551,5.377,5.377,0,0,1,.17,1.387,3.952,3.952,0,0,1-.314,1.729,1.037,1.037,0,0,1-.951.628A.992.992,0,0,1,55.859,100.944Zm.261-3.577a1.329,1.329,0,0,0-.2.437,4.868,4.868,0,0,0-.139,1.208,4.273,4.273,0,0,0,.211,1.424.751.751,0,0,0,.7.52.662.662,0,0,0,.552-.281,1.3,1.3,0,0,0,.211-.466A4.871,4.871,0,0,0,57.587,99a4.369,4.369,0,0,0-.2-1.393.755.755,0,0,0-.7-.545A.654.654,0,0,0,56.12,97.367Z"/><path class="cls-15" d="M58.81,100.944a1.586,1.586,0,0,1-.269-.55,5.36,5.36,0,0,1-.171-1.382,4.493,4.493,0,0,1,.26-1.627,1.079,1.079,0,0,1,1-.735.977.977,0,0,1,.821.424,1.624,1.624,0,0,1,.269.551,5.333,5.333,0,0,1,.171,1.387,3.967,3.967,0,0,1-.314,1.729,1.038,1.038,0,0,1-.952.628A.99.99,0,0,1,58.81,100.944Zm.26-3.577a1.35,1.35,0,0,0-.2.437,4.868,4.868,0,0,0-.139,1.208,4.273,4.273,0,0,0,.211,1.424.751.751,0,0,0,.7.52.662.662,0,0,0,.552-.281,1.284,1.284,0,0,0,.211-.466A4.871,4.871,0,0,0,60.537,99a4.369,4.369,0,0,0-.2-1.393.755.755,0,0,0-.7-.545A.655.655,0,0,0,59.07,97.367Z"/><path class="cls-15" d="M55.859,107.262a1.6,1.6,0,0,1-.269-.549,5.411,5.411,0,0,1-.17-1.382,4.485,4.485,0,0,1,.26-1.627,1.079,1.079,0,0,1,1.005-.736.976.976,0,0,1,.821.425,1.638,1.638,0,0,1,.269.55,5.385,5.385,0,0,1,.17,1.388,3.95,3.95,0,0,1-.314,1.728,1.037,1.037,0,0,1-.951.628A.989.989,0,0,1,55.859,107.262Zm.261-3.576a1.324,1.324,0,0,0-.2.436,4.871,4.871,0,0,0-.139,1.209,4.266,4.266,0,0,0,.211,1.423.752.752,0,0,0,.7.521.66.66,0,0,0,.552-.282,1.3,1.3,0,0,0,.211-.466,4.871,4.871,0,0,0,.139-1.209,4.369,4.369,0,0,0-.2-1.393.755.755,0,0,0-.7-.545A.652.652,0,0,0,56.12,103.686Z"/><path class="cls-15" d="M58.81,107.262a1.581,1.581,0,0,1-.269-.549,5.366,5.366,0,0,1-.171-1.382,4.485,4.485,0,0,1,.26-1.627,1.079,1.079,0,0,1,1-.736.975.975,0,0,1,.821.425,1.619,1.619,0,0,1,.269.55,5.341,5.341,0,0,1,.171,1.388,3.965,3.965,0,0,1-.314,1.728,1.038,1.038,0,0,1-.952.628A.987.987,0,0,1,58.81,107.262Zm.26-3.576a1.345,1.345,0,0,0-.2.436,4.871,4.871,0,0,0-.139,1.209,4.266,4.266,0,0,0,.211,1.423.752.752,0,0,0,.7.521.66.66,0,0,0,.552-.282,1.284,1.284,0,0,0,.211-.466,4.871,4.871,0,0,0,.139-1.209,4.369,4.369,0,0,0-.2-1.393.755.755,0,0,0-.7-.545A.654.654,0,0,0,59.07,103.686Z"/><rect class="cls-16" x="53.833" y="78.646" width="25.27" height="8.353"/><path class="cls-15" d="M35.7,79.843a3.594,3.594,0,0,0,.628.038h.477a4.212,4.212,0,0,0,.628-.038,12.546,12.546,0,0,0-.068,1.256v3.679a4.874,4.874,0,0,0,.06.855h-.718a4.816,4.816,0,0,0,.06-.855V80.4h-.409a4.606,4.606,0,0,0-.658.045Z"/><path class="cls-15" d="M40.734,85.633a5.325,5.325,0,0,0-.833.038,3.466,3.466,0,0,1,.22-1,3.325,3.325,0,0,1,.984-1.3,10.129,10.129,0,0,1,1.157-.832c.75-.508,1-.841,1-1.3,0-.575-.484-.946-1.256-.946a1.249,1.249,0,0,0-1.1.492,1.528,1.528,0,0,0-.265.764l-.636-.106a2.06,2.06,0,0,1,.477-1.09,1.935,1.935,0,0,1,1.521-.583c1.143,0,1.877.575,1.877,1.469a1.577,1.577,0,0,1-.446,1.074,5.928,5.928,0,0,1-1.287.977,4.139,4.139,0,0,0-1.09.93,2.124,2.124,0,0,0-.431.878h2.414a6.581,6.581,0,0,0,.923-.052v.635a8.566,8.566,0,0,0-.93-.045Z"/><path class="cls-15" d="M45.4,84.233a1.145,1.145,0,0,0,.462.719,1.672,1.672,0,0,0,.976.272c.878,0,1.431-.454,1.431-1.173,0-.749-.538-1.158-1.544-1.158a5.258,5.258,0,0,0-.606.038v-.6a3.263,3.263,0,0,0,.56.046,1.511,1.511,0,0,0,1.1-.349,1.041,1.041,0,0,0,.3-.734c0-.651-.454-1.029-1.218-1.029a1.191,1.191,0,0,0-1.007.4,1.422,1.422,0,0,0-.242.538l-.628-.137a1.722,1.722,0,0,1,.408-.757,1.967,1.967,0,0,1,1.506-.552c1.1,0,1.794.575,1.794,1.483a1.328,1.328,0,0,1-.529,1.105,1.571,1.571,0,0,1-.712.273,1.628,1.628,0,0,1,.931.325,1.388,1.388,0,0,1,.507,1.143c0,1.022-.787,1.658-2.051,1.658a2.164,2.164,0,0,1-1.7-.621,1.993,1.993,0,0,1-.386-.734Z"/><path class="cls-15" d="M49.628,83.628c.159-.182.333-.394.492-.583l1.915-2.392a8.572,8.572,0,0,0,.567-.772h.568a12.524,12.524,0,0,0-.045,1.279v2.482h.287a4.945,4.945,0,0,0,.787-.053v.628a5.3,5.3,0,0,0-.795-.052h-.279v.651a4.293,4.293,0,0,0,.06.817H52.5a4.339,4.339,0,0,0,.061-.817v-.651H50.528c-.423,0-.65.007-.9.03Zm2.936-1.9a9.189,9.189,0,0,1,.046-1.03c-.159.227-.349.477-.568.757L50.3,83.65h2.263Z"/><path class="cls-15" d="M55.725,82.076a2.127,2.127,0,0,1-.061.341,1.836,1.836,0,0,1,1.325-.523,1.9,1.9,0,0,1,1.362.515,1.754,1.754,0,0,1,.507,1.332,1.888,1.888,0,0,1-2.043,2,2.045,2.045,0,0,1-1.446-.515,2.362,2.362,0,0,1-.477-.711l.621-.182a1.135,1.135,0,0,0,.242.439,1.406,1.406,0,0,0,1.075.446,1.351,1.351,0,0,0,1.415-1.445,1.27,1.27,0,0,0-1.324-1.377,1.573,1.573,0,0,0-.992.318.971.971,0,0,0-.348.454l-.568-.053a6.091,6.091,0,0,0,.114-.78l.167-1.71c.014-.22.022-.311.022-.454a3.063,3.063,0,0,0-.015-.326,5.055,5.055,0,0,0,.8.038h1.559a4.9,4.9,0,0,0,.885-.061v.643a5.393,5.393,0,0,0-.885-.06H55.883Z"/><path class="cls-15" d="M63.161,81.137a1.416,1.416,0,0,0-.265-.476,1.152,1.152,0,0,0-.9-.379,1.382,1.382,0,0,0-1.31.938,4.262,4.262,0,0,0-.317,1.628,1.592,1.592,0,0,1,.378-.485,1.8,1.8,0,0,1,1.279-.461,1.759,1.759,0,0,1,1.9,1.892,1.849,1.849,0,0,1-1.982,1.945,2.031,2.031,0,0,1-1.37-.477,3.227,3.227,0,0,1-.765-2.377,4.04,4.04,0,0,1,.575-2.285,1.9,1.9,0,0,1,1.6-.825,2,2,0,0,1,1.15.318,1.92,1.92,0,0,1,.636.848Zm-1.218,1.272a1.531,1.531,0,0,0-1.045.431,1.328,1.328,0,0,0-.378.961,1.435,1.435,0,0,0,2.611.81,1.632,1.632,0,0,0,.2-.8A1.264,1.264,0,0,0,61.943,82.409Z"/><path class="cls-15" d="M68.812,80.4a2.9,2.9,0,0,0-.56.726,9.757,9.757,0,0,0-1.7,4.511h-.718a9.958,9.958,0,0,1,.915-3.02,12.288,12.288,0,0,1,1.362-2.194H65.656a5.818,5.818,0,0,0-.856.052v-.643a5.908,5.908,0,0,0,.863.053h2.271a6.5,6.5,0,0,0,.878-.038Z"/><path class="cls-15" d="M73.335,82.946a1.4,1.4,0,0,1,.567,1.188c0,1.037-.757,1.62-2.089,1.62-1.385,0-2.149-.575-2.149-1.62a1.4,1.4,0,0,1,.674-1.256,1.548,1.548,0,0,1,.68-.257,1.319,1.319,0,0,1-1.1-1.363c0-.916.719-1.5,1.862-1.5,1.158,0,1.869.568,1.869,1.5a1.318,1.318,0,0,1-1.1,1.363A1.526,1.526,0,0,1,73.335,82.946ZM70.284,84.1c0,.72.553,1.143,1.491,1.143a1.711,1.711,0,0,0,1.219-.393.994.994,0,0,0,.287-.75c0-.741-.568-1.188-1.5-1.188S70.284,83.362,70.284,84.1Zm.227-2.792c0,.673.485,1.082,1.28,1.082s1.271-.409,1.271-1.082c0-.636-.5-1.037-1.279-1.037S70.511,80.675,70.511,81.3Z"/><path class="cls-15" d="M75.382,84.377a1.2,1.2,0,0,0,.273.484,1.234,1.234,0,0,0,.953.355,1.307,1.307,0,0,0,1.219-.7,3.065,3.065,0,0,0,.325-.969,8.508,8.508,0,0,0,.068-.885,1.518,1.518,0,0,1-.3.424,2.08,2.08,0,0,1-2.74.03,1.927,1.927,0,0,1-.515-1.362,2.012,2.012,0,0,1,3.883-.719,4.592,4.592,0,0,1,.219,1.574,3.931,3.931,0,0,1-.628,2.414,1.855,1.855,0,0,1-1.574.7,1.915,1.915,0,0,1-1.271-.408,1.961,1.961,0,0,1-.531-.75Zm2.695-2.664a1.389,1.389,0,0,0-1.416-1.431,1.4,1.4,0,0,0-1.2.643,1.607,1.607,0,0,0-.2.8,1.277,1.277,0,0,0,1.347,1.393A1.4,1.4,0,0,0,78.077,81.713Z"/><path class="cls-15" d="M80.337,85.209a1.875,1.875,0,0,1-.455-.7,5.238,5.238,0,0,1-.288-1.749,4.423,4.423,0,0,1,.44-2.058,2.028,2.028,0,0,1,3.08-.394,1.914,1.914,0,0,1,.454.7,5.22,5.22,0,0,1,.288,1.756,3.95,3.95,0,0,1-.53,2.188,1.851,1.851,0,0,1-1.6.8A1.884,1.884,0,0,1,80.337,85.209Zm.438-4.526a1.53,1.53,0,0,0-.34.553,4.687,4.687,0,0,0-.235,1.528,4.176,4.176,0,0,0,.356,1.8,1.288,1.288,0,0,0,1.173.658,1.264,1.264,0,0,0,.931-.355,1.5,1.5,0,0,0,.355-.591,4.691,4.691,0,0,0,.235-1.528,4.3,4.3,0,0,0-.34-1.764,1.28,1.28,0,0,0-1.189-.689A1.234,1.234,0,0,0,80.775,80.683Z"/><path class="cls-15" d="M85.305,85.209a1.885,1.885,0,0,1-.454-.7,5.238,5.238,0,0,1-.287-1.749A4.424,4.424,0,0,1,85,80.706a2.028,2.028,0,0,1,3.08-.394,1.914,1.914,0,0,1,.454.7,5.22,5.22,0,0,1,.288,1.756,3.95,3.95,0,0,1-.53,2.188,1.849,1.849,0,0,1-1.6.8A1.889,1.889,0,0,1,85.305,85.209Zm.44-4.526a1.533,1.533,0,0,0-.341.553,4.687,4.687,0,0,0-.234,1.528,4.192,4.192,0,0,0,.355,1.8,1.288,1.288,0,0,0,1.173.658,1.262,1.262,0,0,0,.931-.355,1.489,1.489,0,0,0,.356-.591,4.691,4.691,0,0,0,.234-1.528,4.284,4.284,0,0,0-.34-1.764,1.28,1.28,0,0,0-1.188-.689A1.232,1.232,0,0,0,85.745,80.683Z"/><path class="cls-15" d="M90.275,85.209a1.873,1.873,0,0,1-.454-.7,5.213,5.213,0,0,1-.288-1.749,4.424,4.424,0,0,1,.439-2.058,2.028,2.028,0,0,1,3.08-.394,1.9,1.9,0,0,1,.454.7,5.2,5.2,0,0,1,.288,1.756,3.95,3.95,0,0,1-.53,2.188,1.849,1.849,0,0,1-1.6.8A1.887,1.887,0,0,1,90.275,85.209Zm.438-4.526a1.558,1.558,0,0,0-.34.553,4.687,4.687,0,0,0-.235,1.528,4.191,4.191,0,0,0,.356,1.8,1.29,1.29,0,0,0,1.174.658,1.261,1.261,0,0,0,.93-.355,1.489,1.489,0,0,0,.356-.591,4.691,4.691,0,0,0,.235-1.528,4.282,4.282,0,0,0-.341-1.764A1.279,1.279,0,0,0,91.66,80.3,1.236,1.236,0,0,0,90.713,80.683Z"/><path class="cls-15" d="M94.257,35.231a3.255,3.255,0,0,0,.56.034h.424a3.829,3.829,0,0,0,.56-.034,11.179,11.179,0,0,0-.06,1.119v3.278a4.247,4.247,0,0,0,.054.762h-.641a4.29,4.29,0,0,0,.054-.762V35.723h-.365a4.063,4.063,0,0,0-.586.041Z"/><path class="cls-15" d="M98.605,40.39a4.82,4.82,0,0,0-.742.034,3.1,3.1,0,0,1,.2-.89,2.962,2.962,0,0,1,.877-1.16,9.121,9.121,0,0,1,1.032-.742c.668-.452.891-.749.891-1.16,0-.513-.432-.843-1.12-.843a1.115,1.115,0,0,0-.978.438,1.364,1.364,0,0,0-.236.681l-.567-.094a1.836,1.836,0,0,1,.425-.971,1.725,1.725,0,0,1,1.356-.52c1.018,0,1.672.513,1.672,1.309a1.406,1.406,0,0,1-.4.957,5.25,5.25,0,0,1-1.146.87,3.673,3.673,0,0,0-.971.83,1.9,1.9,0,0,0-.385.782h2.152a5.836,5.836,0,0,0,.822-.047v.567a7.551,7.551,0,0,0-.829-.041Z"/><path class="cls-15" d="M102.629,39.143a1.018,1.018,0,0,0,.411.64,1.49,1.49,0,0,0,.87.243c.782,0,1.275-.4,1.275-1.045,0-.668-.479-1.032-1.376-1.032a4.769,4.769,0,0,0-.539.034V37.45a2.875,2.875,0,0,0,.5.04,1.349,1.349,0,0,0,.985-.31.93.93,0,0,0,.269-.654c0-.58-.4-.917-1.086-.917a1.06,1.06,0,0,0-.9.357,1.3,1.3,0,0,0-.216.479l-.559-.122a1.549,1.549,0,0,1,.364-.674,1.75,1.75,0,0,1,1.342-.492c.978,0,1.6.512,1.6,1.322a1.183,1.183,0,0,1-.472.984,1.385,1.385,0,0,1-.634.243,1.451,1.451,0,0,1,.83.29,1.237,1.237,0,0,1,.452,1.018c0,.911-.7,1.477-1.828,1.477a1.928,1.928,0,0,1-1.511-.552,1.77,1.77,0,0,1-.343-.655Z"/><path class="cls-15" d="M106.262,38.6c.141-.162.3-.35.438-.519l1.707-2.131a7.97,7.97,0,0,0,.506-.688h.505a11.115,11.115,0,0,0-.04,1.139v2.212h.256a4.5,4.5,0,0,0,.7-.047v.56a4.588,4.588,0,0,0-.708-.047h-.25v.58a3.82,3.82,0,0,0,.054.728h-.614a3.867,3.867,0,0,0,.054-.728v-.58h-1.807c-.378,0-.581.006-.8.027Zm2.617-1.693a8.138,8.138,0,0,1,.04-.917c-.142.2-.31.425-.506.675l-1.551,1.955h2.017Z"/><path class="cls-15" d="M111.561,37.22a1.958,1.958,0,0,1-.055.3,1.64,1.64,0,0,1,1.181-.465,1.692,1.692,0,0,1,1.214.458,1.564,1.564,0,0,1,.452,1.187,1.683,1.683,0,0,1-1.821,1.781,1.821,1.821,0,0,1-1.288-.459,2.081,2.081,0,0,1-.425-.634l.553-.162a1.012,1.012,0,0,0,.216.392,1.254,1.254,0,0,0,.958.4,1.2,1.2,0,0,0,1.261-1.288,1.132,1.132,0,0,0-1.181-1.227,1.4,1.4,0,0,0-.883.283.852.852,0,0,0-.31.405l-.506-.047a5.4,5.4,0,0,0,.1-.7l.148-1.525c.014-.2.02-.276.02-.4a2.8,2.8,0,0,0-.013-.29,4.575,4.575,0,0,0,.715.034h1.389a4.468,4.468,0,0,0,.789-.054v.573a4.62,4.62,0,0,0-.789-.054H111.7Z"/><path class="cls-15" d="M158.814,13.5a1.617,1.617,0,0,1-.269-.551,5.4,5.4,0,0,1-.17-1.381,4.485,4.485,0,0,1,.26-1.627,1.077,1.077,0,0,1,1-.736.976.976,0,0,1,.821.425,1.629,1.629,0,0,1,.269.55,5.38,5.38,0,0,1,.17,1.388,3.95,3.95,0,0,1-.314,1.728,1.039,1.039,0,0,1-.951.628A.992.992,0,0,1,158.814,13.5Zm.26-3.578a1.335,1.335,0,0,0-.2.437,4.824,4.824,0,0,0-.139,1.209,4.27,4.27,0,0,0,.21,1.423.752.752,0,0,0,.7.52.659.659,0,0,0,.552-.281,1.307,1.307,0,0,0,.21-.466,4.824,4.824,0,0,0,.139-1.209,4.369,4.369,0,0,0-.2-1.393.754.754,0,0,0-.7-.545A.657.657,0,0,0,159.074,9.921Z"/><path class="cls-15" d="M161.764,13.5a1.617,1.617,0,0,1-.269-.551,5.4,5.4,0,0,1-.17-1.381,4.485,4.485,0,0,1,.26-1.627,1.078,1.078,0,0,1,1-.736.976.976,0,0,1,.821.425,1.629,1.629,0,0,1,.269.55,5.38,5.38,0,0,1,.17,1.388,3.95,3.95,0,0,1-.314,1.728,1.039,1.039,0,0,1-.95.628A.994.994,0,0,1,161.764,13.5Zm.261-3.578a1.338,1.338,0,0,0-.2.437,4.871,4.871,0,0,0-.139,1.209,4.266,4.266,0,0,0,.211,1.423.75.75,0,0,0,.695.52.659.659,0,0,0,.552-.281,1.327,1.327,0,0,0,.211-.466,4.872,4.872,0,0,0,.138-1.209,4.4,4.4,0,0,0-.2-1.393.755.755,0,0,0-.7-.545A.654.654,0,0,0,162.025,9.921Z"/><path class="cls-15" d="M146.194,13.5a1.617,1.617,0,0,1-.269-.551,5.4,5.4,0,0,1-.17-1.381,4.485,4.485,0,0,1,.26-1.627A1.079,1.079,0,0,1,147.02,9.2a.976.976,0,0,1,.821.425,1.629,1.629,0,0,1,.269.55,5.38,5.38,0,0,1,.17,1.388,3.95,3.95,0,0,1-.314,1.728,1.039,1.039,0,0,1-.951.628A.993.993,0,0,1,146.194,13.5Zm.261-3.578a1.338,1.338,0,0,0-.2.437,4.871,4.871,0,0,0-.139,1.209,4.266,4.266,0,0,0,.211,1.423.751.751,0,0,0,.7.52.659.659,0,0,0,.552-.281,1.309,1.309,0,0,0,.211-.466,4.872,4.872,0,0,0,.138-1.209,4.372,4.372,0,0,0-.2-1.393.755.755,0,0,0-.705-.545A.654.654,0,0,0,146.455,9.921Z"/><rect class="cls-17" x="11.394" y="66.432" width="15.246" height="10.402" rx="1.645" ry="1.645"/><rect class="cls-2" x="75.25" y="89.702" width="41.209" height="20.549"/><rect class="cls-18" x="67.714" y="89.504" width="48.745" height="20.748"/><line class="cls-18" x1="75.386" y1="89.435" x2="75.386" y2="110.252"/><line class="cls-18" x1="81.253" y1="89.435" x2="81.253" y2="110.252"/><line class="cls-18" x1="87.121" y1="89.435" x2="87.121" y2="110.252"/><line class="cls-18" x1="92.988" y1="89.435" x2="92.988" y2="110.252"/><line class="cls-18" x1="98.856" y1="89.435" x2="98.856" y2="110.252"/><line class="cls-18" x1="104.724" y1="89.435" x2="104.724" y2="110.252"/><line class="cls-18" x1="110.591" y1="89.435" x2="110.591" y2="110.252"/><line class="cls-18" x1="75.481" y1="99.445" x2="116.459" y2="99.445"/><path class="cls-9" d="M70.056,102.2v-.643a2.314,2.314,0,0,1-.646.639,1.162,1.162,0,0,0-.163-.183,2.137,2.137,0,0,0,.716-.679h-.655v-.228h.748v-.769l.322.021c0,.024-.025.045-.077.052v.7h.74v.228H70.3v.057c.166.1.646.411.76.5l-.15.2c-.114-.1-.4-.325-.61-.471v.581Zm.236.708a1.7,1.7,0,0,1-.028.2c.252.175.557.411.724.557l-.183.187a6.413,6.413,0,0,0-.618-.508,1.474,1.474,0,0,1-.785.7,1.1,1.1,0,0,0-.151-.208,1.12,1.12,0,0,0,.789-.923H69.3v-.244h.745v-.375l.329.021c0,.028-.025.049-.077.057v.3h.756v.244Zm-.7-2.445a1.622,1.622,0,0,1,.248.472l-.207.09a1.8,1.8,0,0,0-.24-.488Zm.907.488a3.2,3.2,0,0,0,.244-.5l.281.106c-.012.025-.041.032-.082.032a3.848,3.848,0,0,1-.26.448Zm1.354,2.612a.1.1,0,0,1-.073.032,2.511,2.511,0,0,1-.818.521,1.085,1.085,0,0,0-.182-.183,2.4,2.4,0,0,0,.809-.509Zm-.646-2.367h.553c.036-.13.073-.285.1-.42h-.8v-.243h1.973v.243h-.895a4.058,4.058,0,0,1-.122.42h.87v2.139H71.212Zm1.423.642v-.423H71.464v.423Zm0,.635v-.423H71.464v.423Zm0,.642v-.431H71.464v.431Zm-.228.326a5,5,0,0,1,.712.524c-.024.017-.049.033-.215.151a4.91,4.91,0,0,0-.7-.537Z"/><path class="cls-9" d="M70.179,96.347c.122.114.463.492.54.594l-.166.212a4.689,4.689,0,0,0-.374-.529v1.789h-.265V96.575a4.554,4.554,0,0,1-.528,1.1,1.164,1.164,0,0,0-.147-.244,4.514,4.514,0,0,0,.635-1.346h-.59v-.256h.63v-.7c-.187.057-.378.106-.561.147a.66.66,0,0,0-.09-.2,4.916,4.916,0,0,0,1.233-.443l.24.2a.12.12,0,0,1-.082.017,3.114,3.114,0,0,1-.475.2v.781h.533v.256h-.533Zm1.769,1.745h1.1v.232H70.557v-.232h1.126v-.354h-.911v-.224h.911v-.288h-.825v-1.31h.825v-.285h-1V95.4h1v-.35c-.289.036-.585.065-.862.086a.734.734,0,0,0-.069-.2,10.036,10.036,0,0,0,1.887-.3l.228.2a.052.052,0,0,1-.045.016.131.131,0,0,1-.032,0,6.11,6.11,0,0,1-.842.166V95.4h1.057v.227H71.948v.285h.862v1.31h-.862v.288h.94v.224h-.94Zm-.842-1.964v.337h.577v-.337Zm0,.886h.577v-.345h-.577Zm1.444-.886h-.6v.337h.6Zm0,.886v-.345h-.6v.345Z"/><line class="cls-18" x1="76.599" y1="94.791" x2="80.157" y2="94.791"/><line class="cls-18" x1="76.599" y1="105.269" x2="80.157" y2="105.269"/><line class="cls-18" x1="111.905" y1="94.791" x2="115.462" y2="94.791"/><line class="cls-18" x1="111.905" y1="105.269" x2="115.462" y2="105.269"/><line class="cls-18" x1="105.975" y1="94.791" x2="109.531" y2="94.791"/><line class="cls-18" x1="105.975" y1="105.269" x2="109.531" y2="105.269"/><line class="cls-18" x1="100.038" y1="94.791" x2="103.601" y2="94.791"/><line class="cls-18" x1="100.038" y1="105.269" x2="103.601" y2="105.269"/><line class="cls-18" x1="94.107" y1="94.791" x2="97.664" y2="94.791"/><line class="cls-18" x1="94.107" y1="105.269" x2="97.664" y2="105.269"/><line class="cls-18" x1="88.177" y1="94.791" x2="91.733" y2="94.791"/><line class="cls-18" x1="88.177" y1="105.269" x2="91.733" y2="105.269"/><line class="cls-18" x1="82.387" y1="105.269" x2="85.947" y2="105.269"/><path d="M84.092,90.563a3.137,3.137,0,0,0-.024-.48h.5a3.549,3.549,0,0,0-.024.463v.286h1.087a2.6,2.6,0,0,0,.361-.017,3.548,3.548,0,0,0-.016.388v1.344a3.339,3.339,0,0,0,.02.441h-.468v-.264h-.984v.895a3.816,3.816,0,0,0,.028.547h-.508a4.072,4.072,0,0,0,.028-.547v-.895h-.937v.264h-.468a3.627,3.627,0,0,0,.02-.441V91.2a3.79,3.79,0,0,0-.016-.383,2.813,2.813,0,0,0,.357.017h1.044Zm-.937.736v.957h.937V91.3Zm2.373.957V91.3h-.984v.957Z"/><path d="M83,95.071a2.568,2.568,0,0,0-.361.017v-.471a3.763,3.763,0,0,0,.424.022h1.067a2.655,2.655,0,0,0,.425-.022v.471a2.141,2.141,0,0,0-.337-.017v.441h.028a2.848,2.848,0,0,0,.384-.018v.476a2.979,2.979,0,0,0-.376-.017h-.036v.423c0,.159,0,.225.008.348h.325a1.323,1.323,0,0,0-.02.278v.137h.794a2.859,2.859,0,0,0,.468-.027v.481a4.167,4.167,0,0,0-.46-.022h-.8v.4h1.119a3.871,3.871,0,0,0,.464-.022v.494a3.914,3.914,0,0,0-.5-.026H83.052a3.752,3.752,0,0,0-.488.026V97.95a3.922,3.922,0,0,0,.457.022h1.067v-.4h-.746a4.337,4.337,0,0,0-.456.022v-.476a2.455,2.455,0,0,0,.409.022h.793v-.133c0-.048,0-.079,0-.145h-.306a4.056,4.056,0,0,0,.024-.481v-.427h-.389a1.885,1.885,0,0,1-.142.555,1.515,1.515,0,0,1-.425.56,1.48,1.48,0,0,0-.318-.366,1.049,1.049,0,0,0,.457-.749h-.06a2.224,2.224,0,0,0-.377.022V95.49a2.537,2.537,0,0,0,.389.022h.088c0-.035,0-.181,0-.441Zm.448,0v.137c0,.11,0,.211,0,.3H83.8v-.441ZM84.755,96.3a3.011,3.011,0,0,0,.019-.352V95.08a3.148,3.148,0,0,0-.019-.362h.452a2.353,2.353,0,0,0-.016.335v.926a2.945,2.945,0,0,0,.012.317ZM86,96.442c0,.379-.107.463-.575.463a2.931,2.931,0,0,1-.33-.017,1.537,1.537,0,0,0-.114-.481,2.752,2.752,0,0,0,.42.04c.151,0,.163-.009.163-.1V94.9a2.494,2.494,0,0,0-.02-.379h.476a3.277,3.277,0,0,0-.02.414Z"/><path d="M102.593,82.12a3.465,3.465,0,0,0-.508.03v-.526a3.49,3.49,0,0,0,.512.029h2.978a3.607,3.607,0,0,0,.517-.029v.526a3.478,3.478,0,0,0-.517-.03h-1.97c-.066.171-.088.229-.145.356h1.651a3.275,3.275,0,0,0,.451-.02c0,.029-.013.1-.035.312a3.086,3.086,0,0,1-.276,1.241c-.136.185-.3.239-.762.239-.228,0-.394-.01-.661-.03a1.4,1.4,0,0,0-.118-.521,7.472,7.472,0,0,0,.775.069c.214,0,.311-.03.363-.1a1.938,1.938,0,0,0,.158-.74H103.25c-.061.122-.1.186-.2.366l-.525-.107a4.852,4.852,0,0,0,.556-1.062Zm.048-1.786a3.84,3.84,0,0,0-.017-.4,3.811,3.811,0,0,0,.494.024h1.931a3.179,3.179,0,0,0,.5-.024,3.58,3.58,0,0,0-.018.4v.633a3.741,3.741,0,0,0,.018.413,3.719,3.719,0,0,0-.451-.019h-2.023a3.805,3.805,0,0,0-.451.019,3.947,3.947,0,0,0,.017-.413Zm.468.078v.5h1.94v-.5Z"/><path class="cls-3" d="M178.572,11.837a4.125,4.125,0,0,1-4.113,4.113H10.9a4.114,4.114,0,1,1,0-8.227H174.459A4.125,4.125,0,0,1,178.572,11.837Z"/></g></g></svg>