<svg xmlns="http://www.w3.org/2000/svg" width="26" height="26" viewBox="0 0 26 26"><defs><style>.cls-1{fill:#f2f2f2;}.cls-2{fill:#bdbdbd;}</style></defs><title>54-a</title><g id="レイヤー_2" data-name="レイヤー 2"><g id="popup"><rect class="cls-1" x="0.5" y="0.5" width="25" height="25" rx="3.5" ry="3.5"/><path class="cls-2" d="M22,1a3,3,0,0,1,3,3V22a3,3,0,0,1-3,3H4a3,3,0,0,1-3-3V4A3,3,0,0,1,4,1H22m0-1H4A4.012,4.012,0,0,0,0,4V22a4.012,4.012,0,0,0,4,4H22a4.012,4.012,0,0,0,4-4V4a4.012,4.012,0,0,0-4-4Z"/></g></g></svg>