<svg xmlns="http://www.w3.org/2000/svg" width="178.5" height="116.5" viewBox="0 0 178.5 116.5"><defs><style>.a{fill:#e1f0fa;stroke:#221e1f;stroke-width:0.5px;}.b,.d,.e,.f{fill:none;}.b{stroke:#f05050;}.b,.d{stroke-width:0.341px;}.c{fill:#f05050;}.d,.e,.f{stroke:#000;stroke-linecap:round;stroke-linejoin:round;}.e{stroke-width:0.512px;}.f{stroke-width:0.256px;stroke-dasharray:0.341 1.024;}</style></defs><title>24</title><path class="a" d="M178.25,112.132a4.11,4.11,0,0,1-4.1,4.118H4.351a4.11,4.11,0,0,1-4.1-4.118V4.368A4.11,4.11,0,0,1,4.351.25h169.8a4.11,4.11,0,0,1,4.1,4.118Z"/><path d="M45.833,44.964c-.006.142-.086.167-.511.167-.222,0-.253-.019-.253-.148.037-1.1.043-1.763.043-3.169,0-1.264-.006-1.565-.037-2.089a6.424,6.424,0,0,1,.826.412H48.25c.167-.179.222-.234.388-.412.247.178.321.233.543.412.061.05.086.081.086.117,0,.056-.049.1-.234.2l-.007.986c0,1.843.007,2.244.044,3.458,0,.074-.012.1-.044.13a1.031,1.031,0,0,1-.462.068c-.21,0-.259-.019-.259-.117v-.389H45.833Zm2.472-4.7H45.833V42.2h2.472Zm-2.472,2.065v2.127h2.472V42.332Z"/><path d="M50.677,45.235a7.479,7.479,0,0,0,1.184-.85,2.48,2.48,0,0,0,.517-.573c.18.08.321.141.408.185.345.148.431.2.431.258s-.055.08-.148.08c-.031,0-.13-.006-.2-.006a5.916,5.916,0,0,1-2.164.962Zm3.52-5.3c.117-.142.154-.185.278-.314.154.123.2.16.351.29.055.042.074.067.074.086a.108.108,0,0,1-.037.061.674.674,0,0,0,.2.025h.327c.13-.142.173-.185.308-.327.21.148.271.2.469.352.061.049.08.08.08.117s-.062.092-.216.16l-.092,3.156h.012c.135-.2.135-.2.265-.388a5.493,5.493,0,0,1,.357.438.071.071,0,0,1,.025.049c0,.019-.025.031-.061.031H51.09a1.041,1.041,0,0,0-.345.043l-.037-.21a1.519,1.519,0,0,0,.376.037h.129l-.067-2.613c-.013-.389-.031-.7-.062-.993a4.094,4.094,0,0,1,.592.314,2.232,2.232,0,0,0,.376-.6c.191.161.259.216.357.308,0-.1-.006-.16-.018-.363a5.476,5.476,0,0,1,.623.345Zm-1.781.321v-.074l-.1-.019c-.062.025-.259.093-.586.2l.025.869h.117c.093-.148.117-.2.222-.345.148.172.191.222.314.382l.007.006Zm-.062,1.115h-.6l.031,1.018h.086l.228-.358c.142.167.185.216.3.37l.013.018V41.37Zm.062,1.135a.16.16,0,0,1-.074.012h-.555l.025,1.023h.6Zm1.831,1.035v-2.8c-.025.024-.031.024-.08.024h-.876a.75.75,0,0,0-.234.031l-.031-.2a.809.809,0,0,0,.265.037H53.6c.105-.142.142-.179.247-.315.166.148.216.192.376.352l.025.037v-.642H52.939v3.477Zm-.771-.468c0,.074-.049.092-.216.092-.117,0-.142-.012-.142-.074.013-.326.013-.431.013-.807,0-.777,0-.95-.019-1.2a3.244,3.244,0,0,1,.358.2h.221c.081-.1.1-.123.185-.216.111.093.148.123.253.222.038.031.056.056.056.074s-.031.062-.123.105V42.6c0,.049,0,.222.006.431,0,.093-.037.112-.235.112-.1,0-.117-.013-.117-.068v-.228h-.24Zm0-.364h.24v-1.3h-.24Zm.543,1.184c.825.154.937.172,1.134.228.659.179.875.345.875.678,0,.234-.13.431-.278.431-.1,0-.117-.012-.332-.246a6.249,6.249,0,0,0-1.424-1.03Zm1.318-.352.031-1.078h-.3a.605.605,0,0,0-.221.024l-.031-.185a.777.777,0,0,0,.252.031h.3l.031-1.005h-.327a.722.722,0,0,0-.215.025l-.025-.185a.782.782,0,0,0,.234.031h.339l.025-.986h-.37a1.033,1.033,0,0,0-.234.024l-.018-.136-.037.025v3.415Z"/><path d="M60.385,41.389a2.933,2.933,0,0,0,.216.678,4.064,4.064,0,0,0,1.51,1.782,3.521,3.521,0,0,0,1.017.449l-.012.068a.747.747,0,0,0-.388.278,1.25,1.25,0,0,0-.179.339c-.031.086-.05.1-.093.1a2.766,2.766,0,0,1-.869-.69,5.443,5.443,0,0,1-1.208-2.373,5.512,5.512,0,0,1-.111-.635,4.165,4.165,0,0,1-.9,2.318,4.356,4.356,0,0,1-1.3,1.091,8.733,8.733,0,0,1-.82.382l-.043-.074a5.923,5.923,0,0,0,1.073-.912,4.845,4.845,0,0,0,1.251-2.8H57.9a3.152,3.152,0,0,0-.512.043l-.044-.234a2.431,2.431,0,0,0,.568.061h1.646a9.965,9.965,0,0,0,.049-1.066,2.671,2.671,0,0,0-.043-.555c.215.019.394.031.505.043.438.031.561.068.561.148,0,.062-.08.111-.271.173-.019.635-.037.894-.068,1.257h1.43c.21-.265.278-.345.487-.6a9.28,9.28,0,0,1,.753.61.122.122,0,0,1,.036.075c0,.024-.036.043-.08.043Zm-.721,2.084c.789.357,1.109.616,1.109.905s-.234.586-.468.586c-.111,0-.16-.068-.2-.283a2.932,2.932,0,0,0-.474-1.147Z"/><path d="M64.865,44.077c.45-.087.45-.087,1.042-.223a3.306,3.306,0,0,0-.42-.77l.05-.049a4.8,4.8,0,0,1,1.017.734.622.622,0,0,1,.234.474.664.664,0,0,1-.2.475.444.444,0,0,1-.21.1c-.1,0-.147-.08-.228-.339-.049-.16-.092-.277-.167-.468a15.933,15.933,0,0,1-1.769.844c-.012.155-.043.228-.105.228s-.085-.055-.32-.857c.191-.018.222-.018.425-.049V41.093c0-.271-.012-.616-.03-.919a6.039,6.039,0,0,1,.721.4h.234v-.413a3.216,3.216,0,0,0-.031-.493c.191.018.339.03.438.037.364.03.475.061.475.141,0,.05-.068.093-.235.148v.58h.229c.135-.154.178-.2.332-.358.228.154.29.2.493.351.056.05.075.081.075.112,0,.049-.05.08-.223.16,0,.6,0,.6,0,.721,0,.191,0,.191.012,1.19a.217.217,0,0,1-.019.105c-.043.062-.185.1-.4.1s-.24-.018-.246-.117v-.172H64.865Zm1.165-2.559V40.7H64.865v.82Zm-1.165.129v.882H66.03v-.882Zm2.989,2.38c0,.327,0,.567.013,1.091-.006.136-.105.167-.487.167-.172,0-.216-.031-.216-.16.025-1.079.031-1.788.031-3.49,0-1.239-.006-1.5-.031-1.91a6.167,6.167,0,0,1,.734.357h.715c.136-.154.179-.2.321-.345.253.2.326.259.561.456.061.056.086.086.086.123,0,.056-.068.086-.241.123a11.949,11.949,0,0,1-1.035,1.5,2.913,2.913,0,0,1,.727.654,1.827,1.827,0,0,1,.376,1.06.887.887,0,0,1-.524.876,1.3,1.3,0,0,1-.382.068c-.074,0-.092-.025-.1-.13-.018-.29-.154-.413-.549-.493Zm0-.142c.284.019.383.025.5.025.216,0,.277-.006.314-.043.056-.043.081-.173.081-.394a2.181,2.181,0,0,0-.154-.814,1.848,1.848,0,0,0-.42-.7,11.486,11.486,0,0,0,.463-1.745h-.784Z"/><rect class="b" x="150.426" y="88.705" width="20.471" height="20.471" rx="1.706" ry="1.706"/><path class="c" d="M158.682,96.556a7.92,7.92,0,0,0,1.368-.765l.366.429a.163.163,0,0,1-.082.029.29.29,0,0,1-.133-.046,7.15,7.15,0,0,1-1.659.545v1.374h.957l.267-.348.51.365c-.046.087-.116.122-.272.122h-1.462v1.67h1.039l.283-.366.528.383c-.046.087-.121.122-.278.122h-1.572v.574c0,.035-.1.127-.324.127h-.047V96.336Zm3.931-.376.5.371a.45.45,0,0,1-.249.116v3.171c0,.3-.075.505-.6.562,0-.324-.18-.365-.6-.4v-.081h.7c.093,0,.116-.023.116-.086V96.562H160.96v4.488c0,.035-.121.134-.313.134h-.058V96.231l.447.192h1.391Z"/><path d="M6.948,105.616A8.819,8.819,0,0,0,8.092,103l.528.165c-.02.056-.061.092-.195.087a8.282,8.282,0,0,1-.472,1.092l.18.066a.177.177,0,0,1-.159.093v3.127s-.057.113-.328.113v-2.866a4.743,4.743,0,0,1-.621.789Zm4.835-.01c-.046.077-.1.113-.246.113h-1.21a3.572,3.572,0,0,0,1.466,1.384l-.01.051a.374.374,0,0,0-.292.272,3.791,3.791,0,0,1-1.262-1.666v1.866c0,.01-.045.123-.333.123v-1.738a4.168,4.168,0,0,1-1.64,1.451l-.057-.087a4.239,4.239,0,0,0,1.456-1.656H8.369l-.031-.123H9.9v-.81H9.158v.169c0,.025-.1.107-.271.107H8.835v-1.891l.385.164h1.722l.154-.195.4.307a.306.306,0,0,1-.185.088v1.394a.382.382,0,0,1-.276.1h-.057v-.24H10.4a.36.36,0,0,1-.17.046v.764h.862l.236-.308Zm-2.625-.943h1.825v-1.2H9.158Z"/><path d="M13.888,103.089l.394.41c-.041.046-.112.056-.23.056-.169.318-.5.9-.7,1.21.743.533.825.949.825,1.225a.688.688,0,0,1-.728.79c0-.21-.047-.272-.364-.307v-.082h.456c.246,0,.277-.272.277-.431a1.609,1.609,0,0,0-.585-1.18c.123-.317.329-.932.457-1.338h-.769v4.2a.312.312,0,0,1-.272.117H12.6V103.15l.384.169h.687Zm2.553,3.1h-.785a1.944,1.944,0,0,0,1.529,1.235l-.011.061c-.169.021-.267.078-.3.257a1.95,1.95,0,0,1-1.3-1.43c-.174.568-.636,1.087-1.773,1.435l-.047-.082c.985-.415,1.38-.913,1.523-1.476h-.651v.164c0,.025-.1.107-.262.107h-.046v-1.481l.37.158h.661V104.6h-.728l-.031-.123h1.3l.2-.261.379.276c-.041.077-.1.108-.231.108h-.553v.533H16.4l.149-.184.394.3a.285.285,0,0,1-.184.082v1s-.057.092-.318.092Zm-2.569-1.431a3.776,3.776,0,0,0,1.395-1.743l.564.118c-.011.051-.061.077-.185.087a3.567,3.567,0,0,0,1.605,1.225l-.01.067A.372.372,0,0,0,17,104.8a3.561,3.561,0,0,1-1.431-1.523,3.779,3.779,0,0,1-1.651,1.559Zm.754,1.307H15.3a2.984,2.984,0,0,0,.046-.523v-.282h-.723Zm1.815-.8h-.764v.277a2.986,2.986,0,0,1-.041.528h.8Z"/><path d="M22.031,104.4l.467.333c-.041.072-.1.108-.246.108H20.575a11.17,11.17,0,0,1-1.107.692h1.948l.159-.21.446.318a.417.417,0,0,1-.22.107v1.846a.412.412,0,0,1-.334.113V107.4h-2.2v.23s-.041.118-.333.118v-1.938a11.1,11.1,0,0,1-1.221.5l-.03-.088a11.178,11.178,0,0,0,1.251-.63v-.231l.22.1a10.514,10.514,0,0,0,.928-.625H17.807l-.036-.123h1.9v-.825h-1.4l-.031-.123h1.431V103l.543.046c-.005.072-.061.108-.21.129v.595h.682l.236-.3.42.292c.185-.194.354-.384.5-.569l.435.349a.117.117,0,0,1-.092.041.334.334,0,0,1-.128-.036,8.207,8.207,0,0,1-1.313,1.174H21.79Zm-.564,1.256h-2.2v.718h2.2Zm-2.2,1.62h2.2v-.779h-2.2Zm.738-2.558h.241a10.524,10.524,0,0,0,.964-.831.273.273,0,0,1-.072.006H20.006Z"/><path d="M24.9,105.714H23.8a2.952,2.952,0,0,1-.652,2.03l-.071-.056a4.514,4.514,0,0,0,.4-2.231v-1.322l.389.169h.979l.154-.2.446.318a.417.417,0,0,1-.22.1v1.446c0,.01-.1.1-.328.1Zm.676-2.313c-.041.078-.1.113-.241.113H23.167l-.031-.123H24.9l.235-.308Zm-.676,1.026H23.8v1.164H24.9Zm2.62.072.44.317c-.041.078-.1.108-.241.108h-.477v2.712c0,.026-.107.108-.281.108H26.9v-2.82h-.871v.236a2.716,2.716,0,0,1-1.169,2.589l-.067-.066a3.044,3.044,0,0,0,.908-2.523v-1.754l.389.139A6.916,6.916,0,0,0,27.345,103l.441.369a.143.143,0,0,1-.107.041.561.561,0,0,1-.155-.035,9.7,9.7,0,0,1-1.491.3V104.8h1.256Z"/><path d="M33.259,104.006c-.041.072-.1.108-.246.108H30.239a5.715,5.715,0,0,1-.517.882l.138.025c-.01.057-.062.093-.2.108v2.492c0,.03-.1.123-.277.123h-.051v-2.266a4.164,4.164,0,0,1-.79.676l-.056-.066a4.657,4.657,0,0,0,.846-.969v-.19l.107.021a6.369,6.369,0,0,0,.431-.836H28.568l-.031-.123h1.39a7.086,7.086,0,0,0,.317-1l.544.159c-.02.062-.072.092-.205.087a7.926,7.926,0,0,1-.287.754h2.245l.251-.313Zm-.707,3.42.24-.308.462.323c-.041.078-.1.108-.241.108H29.932l-.031-.123h1.41v-1.718H30.126l-.03-.123h1.215v-1.179l.543.046c0,.077-.056.108-.21.129v1h.682l.231-.292L33,105.6c-.047.077-.1.107-.241.107H31.644v1.718Z"/><path d="M34.83,104.627v1.779c.262-.062.549-.134.836-.205l.021.076c-.344.164-.826.395-1.487.672a.191.191,0,0,1-.113.128l-.226-.451c.144-.025.369-.077.646-.144v-1.855h-.6l-.03-.123h.635V103.16l.564.047c0,.087-.077.112-.241.138V104.5h.216l.21-.3.4.318c-.041.077-.1.108-.236.108Zm3.63,1.881-.01.759c.169.051.2.072.2.129,0,.153-.164.209-.708.209H36.491c-.507,0-.645-.1-.645-.548v-1.83l-.544.246-.082-.093.626-.287v-1.584l.548.046c-.01.082-.051.113-.226.138v1.251l.733-.333v-1.6l.539.046c-.01.077-.056.113-.215.128v1.282l.692-.318.153-.282.467.251a.385.385,0,0,1-.236.138v1.723c0,.226-.067.405-.482.446,0-.241-.036-.282-.333-.317v-.062h.4c.077,0,.093-.021.093-.077v-1.713l-.754.344V106.5c0,.011-.046.123-.324.123v-1.887l-.733.339v1.989c0,.215.036.246.308.246h1.482c.1,0,.179-.01.23-.082a3.643,3.643,0,0,0,.221-.723Z"/><path d="M49.062,107.421h-4.1v-4.1h4.1Zm-.144-.144v-3.814H45.1v3.814Z"/><path d="M54.438,107.421h-4.1v-4.1h4.1Zm-.144-.144v-3.814H50.479v3.814Z"/><path d="M59.654,103.529l.492.344c-.041.072-.1.107-.246.107H58.116c-.011.062-.056.088-.19.1v.738h1.266l.16-.21.446.328a.4.4,0,0,1-.221.1v1.656c0,.241-.056.4-.558.456,0-.261-.216-.3-.565-.318v-.071h.672c.087,0,.118-.016.118-.077v-1.739H57.926V107.6c0,.015-.056.143-.343.143v-2.8H56.275v2.082c0,.01-.041.123-.333.123v-2.5l.364.169h1.277v-.841H55.414l-.031-.123h2.2v-.866l.584.051c-.005.083-.066.113-.241.139v.676H59.4Z"/><path d="M65.188,107.421h-4.1v-4.1h4.1Zm-.144-.144v-3.814H61.23v3.814Z"/><path d="M70.563,107.421h-4.1v-4.1h4.1Zm-.143-.144v-3.814H66.605v3.814Z"/><path d="M73.519,103.166l.431.313a.414.414,0,0,1-.226.107v3.174c0,.01-.087.117-.313.117v-.425H72.017v.538c0,.005-.021.123-.308.123v-3.906l.339.164H73.36Zm-.964.328h-.538v1.343h.538Zm-.538,1.466v1.369h.538V104.96Zm1.394-1.466h-.563v1.343h.563Zm-.563,2.835h.563V104.96h-.563Zm3-2.8.461.333c-.041.078-.1.108-.241.108H75.3v3.282c0,.266-.082.451-.62.5,0-.282-.221-.313-.718-.354v-.072h.872c.107,0,.133-.015.133-.077v-3.276H73.857l-.03-.123H75.6Z"/><path d="M77.007,105.37a2.256,2.256,0,1,1,2.256,2.256A2.257,2.257,0,0,1,77.007,105.37Zm4.368,0a2.112,2.112,0,1,0-2.112,2.112A2.109,2.109,0,0,0,81.375,105.37Z"/><path d="M86.515,103.227l.513.364c-.041.077-.1.113-.246.113H84.864v3.553c0,.271-.082.461-.635.5,0-.281-.257-.322-.739-.354v-.071h.9c.107,0,.133-.016.133-.077V103.7H82.3l-.031-.123h3.973Z"/><path d="M91.357,103.181l.467.348a.415.415,0,0,1-.246.118v3.907c0,.01-.093.129-.339.129v-.339H88.666v.261s-.026.139-.339.139v-4.507l.369.175h2.487Zm-.118.354H88.666v1.128h2.573Zm0,1.251H88.666v1.148h2.573Zm-2.573,2.435h2.573v-1.164H88.666Z"/><path d="M93.031,105.37a2.256,2.256,0,1,1,2.256,2.256A2.256,2.256,0,0,1,93.031,105.37Zm4.368,0a2.112,2.112,0,1,0-2.112,2.112A2.109,2.109,0,0,0,97.4,105.37Z"/><path d="M98.407,105.37a2.256,2.256,0,1,1,2.256,2.256A2.256,2.256,0,0,1,98.407,105.37Zm4.368,0a2.113,2.113,0,1,0-2.112,2.112A2.109,2.109,0,0,0,102.775,105.37Z"/><path d="M108.36,104.54c-.035.071-.1.107-.24.107h-1.733a4.11,4.11,0,0,0,2.071,1.056l-.01.057a.349.349,0,0,0-.277.277,5.186,5.186,0,0,1-.7-.308v0l.307.221a.373.373,0,0,1-.2.092V107.6c0,.015-.1.113-.333.113v-.271h-2.445v.194s-.057.113-.329.113v-1.959a5.587,5.587,0,0,1-.8.344l-.052-.087a5.15,5.15,0,0,0,1.846-1.395h-1.718l-.03-.123h2.148v-.969c-.574.047-1.184.077-1.764.077l-.015-.1a19.412,19.412,0,0,0,3.338-.533l.379.369a.154.154,0,0,1-.1.036.459.459,0,0,1-.174-.046c-.38.062-.836.118-1.333.169v1h1.482l.236-.3Zm-3.753-.872c.472.164.621.4.621.574a.216.216,0,0,1-.195.236.2.2,0,0,1-.154-.077,1.213,1.213,0,0,0-.317-.692Zm2.6,2.179.144-.18a3.065,3.065,0,0,1-1.1-1.02H106.2v.99a.329.329,0,0,1-.277.107h-.051v-1.025a4.231,4.231,0,0,1-1.287,1.015l.256.113Zm-1.338.717v-.594h-1.061v.594Zm-1.061.124v.625h1.061v-.625Zm2.445-.124v-.594h-1.061v.594Zm-1.061.749h1.061v-.625h-1.061Zm1.456-3.486c-.021.046-.056.067-.128.067a.326.326,0,0,1-.067-.005,3.9,3.9,0,0,1-.636.589l-.077-.051a6.376,6.376,0,0,0,.4-.831Z"/><path d="M109.982,104.627v1.779c.262-.062.549-.134.836-.205l.021.076c-.344.164-.825.395-1.487.672a.189.189,0,0,1-.113.128l-.225-.451c.143-.025.369-.077.646-.144v-1.855h-.6l-.031-.123h.636V103.16l.564.047c-.005.087-.078.112-.242.138V104.5h.216l.21-.3.4.318c-.041.077-.1.108-.236.108Zm3.63,1.881-.009.759c.168.051.205.072.205.129,0,.153-.164.209-.708.209h-1.456c-.508,0-.646-.1-.646-.548v-1.83l-.544.246-.082-.093.626-.287v-1.584l.548.046c-.01.082-.051.113-.225.138v1.251l.733-.333v-1.6l.538.046c-.01.077-.056.113-.215.128v1.282l.692-.318.154-.282.466.251a.385.385,0,0,1-.235.138v1.723c0,.226-.067.405-.482.446,0-.241-.036-.282-.333-.317v-.062h.4c.077,0,.093-.021.093-.077v-1.713l-.754.344V106.5c0,.011-.046.123-.323.123v-1.887l-.733.339v1.989c0,.215.035.246.307.246h1.482c.1,0,.18-.01.231-.082a3.716,3.716,0,0,0,.221-.723Z"/><path d="M6.948,97.087a8.812,8.812,0,0,0,1.144-2.614l.528.164c-.02.056-.061.092-.195.087a8.169,8.169,0,0,1-.472,1.092l.18.067a.177.177,0,0,1-.159.092V99.1s-.057.112-.328.112V96.349a4.837,4.837,0,0,1-.621.79Zm4.835-.01c-.046.077-.1.113-.246.113h-1.21a3.566,3.566,0,0,0,1.466,1.384l-.01.051a.374.374,0,0,0-.292.272,3.791,3.791,0,0,1-1.262-1.666V99.1c0,.01-.045.123-.333.123V97.482a4.16,4.16,0,0,1-1.64,1.451L8.2,98.846A4.232,4.232,0,0,0,9.655,97.19H8.369l-.031-.123H9.9v-.81H9.158v.169c0,.026-.1.108-.271.108H8.835V94.642l.385.164h1.722l.154-.195.4.308a.306.306,0,0,1-.185.087V96.4a.381.381,0,0,1-.276.1h-.057v-.241H10.4a.36.36,0,0,1-.17.046v.764h.862l.236-.308Zm-2.625-.943h1.825v-1.2H9.158Z"/><path d="M13.888,94.56l.394.41c-.041.046-.112.056-.23.056-.169.318-.5.9-.7,1.21.743.534.825.949.825,1.226a.688.688,0,0,1-.728.789c0-.21-.047-.272-.364-.308v-.082h.456c.246,0,.277-.271.277-.43a1.606,1.606,0,0,0-.585-1.179c.123-.318.329-.934.457-1.338h-.769v4.2a.309.309,0,0,1-.272.118H12.6V94.621l.384.17h.687Zm2.553,3.1h-.785a1.943,1.943,0,0,0,1.529,1.236l-.011.062c-.169.02-.267.076-.3.256a1.95,1.95,0,0,1-1.3-1.431c-.174.57-.636,1.087-1.773,1.436l-.047-.082c.985-.415,1.38-.912,1.523-1.477h-.651v.164c0,.026-.1.108-.262.108h-.046V96.446l.37.159h.661v-.533h-.728l-.031-.123h1.3l.2-.261.379.277c-.041.077-.1.107-.231.107h-.553v.533H16.4l.149-.184.394.3a.28.28,0,0,1-.184.082v1s-.057.092-.318.092Zm-2.569-1.43a3.776,3.776,0,0,0,1.395-1.743l.564.118c-.011.051-.061.077-.185.087a3.56,3.56,0,0,0,1.605,1.225l-.01.067a.372.372,0,0,0-.241.287,3.561,3.561,0,0,1-1.431-1.523A3.774,3.774,0,0,1,13.918,96.3Zm.754,1.307H15.3a2.981,2.981,0,0,0,.046-.522v-.282h-.723Zm1.815-.8h-.764v.276a2.986,2.986,0,0,1-.041.528h.8Z"/><path d="M22.031,95.867l.467.333c-.041.072-.1.108-.246.108H20.575A10.988,10.988,0,0,1,19.468,97h1.948l.159-.21.446.318a.425.425,0,0,1-.22.108v1.846a.421.421,0,0,1-.334.112v-.308h-2.2V99.1c0,.006-.041.118-.333.118V97.277a10.9,10.9,0,0,1-1.221.5l-.03-.087a11.01,11.01,0,0,0,1.251-.63v-.231l.22.1a10.98,10.98,0,0,0,.928-.626H17.807l-.036-.123h1.9v-.826h-1.4l-.031-.123h1.431v-.768l.543.046c-.005.071-.061.107-.21.128v.594h.682l.236-.3.42.293c.185-.2.354-.385.5-.57l.435.349a.121.121,0,0,1-.092.041.316.316,0,0,1-.128-.036,8.112,8.112,0,0,1-1.313,1.174H21.79Zm-.564,1.256h-2.2v.718h2.2Zm-2.2,1.62h2.2v-.779h-2.2Zm.738-2.558h.241a10.371,10.371,0,0,0,.964-.831.326.326,0,0,1-.072,0H20.006Z"/><path d="M27.155,96.929l.451.328a.447.447,0,0,1-.225.107v1.7c0,.009-.1.117-.338.117v-.292H24.905V99.1a.327.327,0,0,1-.277.112h-.057V97.364a7.507,7.507,0,0,1-1.42.579l-.036-.087a6.693,6.693,0,0,0,1.944-1.1.172.172,0,0,1-.128-.046,2.411,2.411,0,0,0-.734-.882,4.561,4.561,0,0,1-.871.59l-.056-.072a4.858,4.858,0,0,0,1.584-1.882l.538.164c-.021.057-.067.072-.2.062a3.481,3.481,0,0,1-.272.384h1.426l.256-.23.39.379c-.041.047-.1.056-.236.062a5.272,5.272,0,0,1-1.8,1.856l.01.005h2.025ZM24.828,95.2a5.7,5.7,0,0,1-.554.57c.707.235.933.589.933.8a.322.322,0,0,1-.01.073A4.956,4.956,0,0,0,26.351,95.2Zm.077,3.569h2.138v-1.5H24.905Z"/><path d="M29.757,96.154v.631c.595.236.785.533.785.728a.174.174,0,0,1-.159.195.2.2,0,0,1-.133-.057,2.149,2.149,0,0,0-.493-.779V99.1c0,.03-.112.112-.277.112h-.051V96.944a4.271,4.271,0,0,1-.892,1.318l-.077-.073a5.421,5.421,0,0,0,.861-2.035h-.779l-.03-.123h.917v-.907a9.114,9.114,0,0,1-.923.226l-.03-.082a8.574,8.574,0,0,0,1.7-.8l.431.328a.151.151,0,0,1-.108.041.491.491,0,0,1-.154-.031c-.164.067-.364.138-.585.215v1.005h.282l.216-.287.405.3c-.041.077-.1.107-.236.107ZM30.4,98.39a5.574,5.574,0,0,0,.61-1.789l.5.128c-.016.061-.057.092-.18.092a4.071,4.071,0,0,1-.851,1.615Zm2.876-2.764c-.041.077-.107.108-.246.108h-.743c-.015.056-.056.087-.221.108v2.866c0,.266-.066.456-.517.507,0-.246-.129-.3-.524-.328v-.082h.606c.087,0,.107-.026.107-.1V95.734h-.625a3.87,3.87,0,0,1-.621,1.031l-.076-.047a7.138,7.138,0,0,0,.707-2.24l.528.128c-.015.061-.056.1-.184.1a7.139,7.139,0,0,1-.3.9H32.6l.23-.3Zm-.836.979a2.3,2.3,0,0,1,.826,1.487c0,.2-.076.328-.179.328a.211.211,0,0,1-.144-.076,4.76,4.76,0,0,0-.579-1.708Z"/><path d="M44.571,96.677a5.5,5.5,0,0,0,2.122-2.215l.661.129c-.015.061-.082.087-.214.1A6.827,6.827,0,0,0,49.487,96.3l-.009.077a.457.457,0,0,0-.339.312,5.646,5.646,0,0,1-2.092-1.948,6.419,6.419,0,0,1-2.435,2Zm4.014,2.261.251-.328.482.338c-.041.077-.1.114-.251.114H44.791l-.03-.124h2.066V97.8h-1.5l-.035-.123h1.538V96.651H45.412l-.031-.123h2.594l.226-.281.436.292c-.036.082-.1.112-.241.112H47.17v1.026h.959l.236-.292.456.3c-.041.076-.1.112-.241.112H47.17v1.138Z"/><path d="M54.212,94.642l.446.333a.445.445,0,0,1-.225.1v3.958c0,.015-.1.133-.334.133v-.344h-3.43v.252c0,.01-.021.138-.328.138V94.688l.364.174h3.343ZM50.669,98.7H54.1V94.985h-3.43Zm2.856-1.014.41.291c-.041.078-.1.108-.236.108H50.905l-.031-.123H52.2V96.811h-.984l-.031-.123H52.2v-.949H51.033L51,95.616H53.15l.216-.277.41.292c-.036.077-.1.108-.236.108H52.52v.949h.492l.2-.267.4.282c-.041.077-.1.108-.236.108H52.52v1.153h.79Zm-.682-.75c.451.19.59.426.59.59,0,.113-.067.19-.149.19a.178.178,0,0,1-.123-.062,1.479,1.479,0,0,0-.369-.677Z"/><path d="M56.727,94.606c-.016.061-.062.1-.19.1a9.09,9.09,0,0,1-.395,1.1l.22.082c-.015.046-.061.082-.153.1v3.122a.376.376,0,0,1-.262.108h-.056V96.344a4.691,4.691,0,0,1-.482.764l-.077-.046a10.652,10.652,0,0,0,.872-2.594Zm.666,1.564.354.317a.266.266,0,0,1-.19.073,5.2,5.2,0,0,1-.369,1.6,1.9,1.9,0,0,0,1.589.59c.462,0,1.01,0,1.39-.005v.066a.267.267,0,0,0-.2.267H58.788a1.892,1.892,0,0,1-1.713-.692,2.648,2.648,0,0,1-.713.83l-.046-.092a2.718,2.718,0,0,0,.621-.974,3.443,3.443,0,0,1-.277-.856l.092-.041a2.829,2.829,0,0,0,.262.661,6.211,6.211,0,0,0,.23-1.425H56.9l-.092.256a.3.3,0,0,1-.123.021.773.773,0,0,1-.19-.031c.2-.528.415-1.216.548-1.672H56.6l-.041-.123h.466l.169-.189.379.323a.385.385,0,0,1-.235.076c-.093.293-.252.78-.4,1.216H57.2Zm2.476-.759.36.292c-.041.077-.093.108-.231.108H59.71v.733a.394.394,0,0,1-.313.1v-.138h-.6v.569h.44l.216-.277.41.293c-.041.076-.1.107-.241.107h-.825v.574h.63l.226-.287.42.3c-.036.077-.092.107-.236.107h-1.04v.616c0,.01-.046.128-.318.128V97.9h-1.01l-.031-.123h1.041V97.2h-.836l-.031-.123h.867v-.569h-.718l-.041-.123h.759v-.574H57.449l-.03-.123h1.056v-.559h-.707l-.037-.123h.744v-.544l.538.052c-.01.071-.056.107-.22.123v.369h.554l.148-.195.431.308a.418.418,0,0,1-.216.1v.425Zm-1.076-.282v.559h.6v-.559Zm.6,1.256v-.574h-.6v.574Z"/><path d="M63.573,97.282a2.6,2.6,0,0,0,.6.841,5.207,5.207,0,0,0,.584-.631l.415.262a.1.1,0,0,1-.1.051.418.418,0,0,1-.1-.015,7.719,7.719,0,0,1-.7.425,2.833,2.833,0,0,0,1.231.58l0,.056a.358.358,0,0,0-.272.277A2.575,2.575,0,0,1,63.537,97.5v1.23c0,.267-.066.461-.533.5,0-.235-.154-.287-.549-.317v-.082H63.1c.088,0,.113-.026.113-.1V97.282H61.974l-.036-.123h1.271v-.533H61.568a3.889,3.889,0,0,1-.728,2.589l-.076-.051a5.6,5.6,0,0,0,.476-2.692V95.021l.39.169h1.461v-.728l.569.052c0,.077-.066.112-.241.138v.538H64.8l.246-.317.466.333c-.041.077-.1.107-.251.107H63.65l.113.011c0,.072-.036.108-.226.128v.4h.877l.148-.2.436.307a.373.373,0,0,1-.21.1V96.5h.128l.21-.308.395.324c-.041.071-.1.107-.241.107h-.492v.738c0,.011-.1.113-.328.113v-.2Zm-2.087,1.431c.287-.067.944-.257,1.605-.462l.02.072c-.287.159-.707.385-1.271.656a.165.165,0,0,1-.1.128Zm.082-2.21h1.641v-.528H62.02l-.037-.123h1.226v-.539H61.568Zm.359,1c.574.118.759.369.759.538a.162.162,0,0,1-.154.18.193.193,0,0,1-.128-.046,1.514,1.514,0,0,0-.512-.621Zm2.533-1.533h-.923V96.5h.923Zm-.923.651v.533h.923v-.533Z"/><path d="M66.077,97.087a8.812,8.812,0,0,0,1.144-2.614l.528.164c-.02.056-.061.092-.195.087a8.169,8.169,0,0,1-.472,1.092l.18.067a.177.177,0,0,1-.159.092V99.1s-.057.112-.329.112V96.349a4.78,4.78,0,0,1-.62.79Zm4.835-.01c-.046.077-.1.113-.246.113h-1.21a3.566,3.566,0,0,0,1.466,1.384l-.01.051a.374.374,0,0,0-.292.272,3.791,3.791,0,0,1-1.262-1.666V99.1c0,.01-.046.123-.333.123V97.482a4.16,4.16,0,0,1-1.64,1.451l-.057-.087a4.232,4.232,0,0,0,1.456-1.656H67.5l-.031-.123h1.558v-.81h-.738v.169c0,.026-.1.108-.271.108h-.052V94.642l.385.164h1.722l.154-.195.405.308a.306.306,0,0,1-.185.087V96.4a.381.381,0,0,1-.276.1h-.057v-.241h-.584a.364.364,0,0,1-.17.046v.764h.862l.236-.308Zm-2.625-.943h1.825v-1.2H68.287Z"/><path d="M73.017,94.56l.394.41c-.041.046-.112.056-.23.056-.169.318-.5.9-.7,1.21.743.534.825.949.825,1.226a.688.688,0,0,1-.728.789c0-.21-.047-.272-.364-.308v-.082h.456c.246,0,.277-.271.277-.43a1.606,1.606,0,0,0-.585-1.179c.123-.318.328-.934.456-1.338h-.768v4.2a.309.309,0,0,1-.272.118h-.051V94.621l.384.17H72.8Zm2.553,3.1h-.785a1.943,1.943,0,0,0,1.528,1.236l-.01.062c-.169.02-.267.076-.3.256a1.95,1.95,0,0,1-1.3-1.431c-.174.57-.636,1.087-1.773,1.436l-.047-.082c.985-.415,1.38-.912,1.523-1.477h-.651v.164c0,.026-.1.108-.262.108h-.046V96.446l.369.159h.662v-.533H73.75l-.031-.123h1.3l.195-.261.379.277c-.041.077-.1.107-.231.107h-.553v.533h.723l.149-.184.394.3a.28.28,0,0,1-.184.082v1s-.057.092-.318.092ZM73,96.226A3.776,3.776,0,0,0,74.4,94.483l.564.118c-.011.051-.062.077-.185.087a3.56,3.56,0,0,0,1.6,1.225l-.01.067a.372.372,0,0,0-.241.287A3.555,3.555,0,0,1,74.7,94.744,3.774,3.774,0,0,1,73.047,96.3Zm.754,1.307h.677a2.981,2.981,0,0,0,.046-.522v-.282h-.723Zm1.815-.8h-.764v.276a2.986,2.986,0,0,1-.041.528h.8Z"/><path d="M78.581,95.944c-.041.077-.1.108-.23.108H77.8v3.03c0,.015-.041.138-.328.138V96.052H76.9l-.037-.123h.611V94.462l.549.052c-.011.071-.057.107-.221.128v1.287h.184l.206-.287Zm2.7,1.123.39.3a.318.318,0,0,1-.2.077c-.036,1-.113,1.5-.3,1.636a.644.644,0,0,1-.451.133c0-.2-.082-.231-.411-.282l.005-.087c.128,0,.395.015.5.015.078,0,.114-.005.149-.041a3.326,3.326,0,0,0,.2-1.435h-.528a2.533,2.533,0,0,1-.958,1.856l-.077-.077a2.785,2.785,0,0,0,.717-1.779h-.471a.33.33,0,0,1-.175.056c-.035,1.046-.108,1.507-.281,1.646a.609.609,0,0,1-.426.128c0-.164-.026-.226-.344-.267l0-.092c.1.005.329.01.421.01.072,0,.1,0,.139-.035a3.419,3.419,0,0,0,.194-1.446h-.472a2.7,2.7,0,0,1-.835,1.835l-.082-.076a3.03,3.03,0,0,0,.615-1.759h-.5l-.035-.123h.543c.01-.226.016-.447.016-.652l.5.036c0,.067-.041.1-.185.108,0,.154-.01.328-.025.508h.415l.154-.19.323.251-.016-.061h.534c.015-.226.015-.447.02-.657l.507.041c-.009.062-.041.093-.184.108,0,.159-.01.328-.026.508h.472ZM78.6,95.247l-.041-.123h1.071a3.428,3.428,0,0,0,.108-.662l.549.077c-.016.077-.072.1-.211.1a3.582,3.582,0,0,1-.1.482H80.9l.158-.185.385.292a.291.291,0,0,1-.2.078c-.1,1.1-.317,1.235-.8,1.235,0-.19-.082-.231-.44-.277l0-.092c.143.005.446.02.543.02a.243.243,0,0,0,.164-.036,1.749,1.749,0,0,0,.226-.912h-1.01a2.259,2.259,0,0,1-1.636,1.42l-.041-.092A2.063,2.063,0,0,0,79.6,95.247Z"/><path d="M82.244,96.549a6.093,6.093,0,0,0,2.153-2.1l.575.154c-.015.061-.072.082-.21.1a5.408,5.408,0,0,0,2.245,1.451l-.01.082a.425.425,0,0,0-.292.3,4.96,4.96,0,0,1-2.03-1.779,6.5,6.5,0,0,1-2.4,1.876Zm3.881.651.262-.328.482.344c-.041.071-.1.107-.246.107H84.172l.241.082c-.025.057-.082.077-.2.067a8.111,8.111,0,0,1-.8,1.215c.661-.02,1.528-.062,2.446-.1a3.973,3.973,0,0,0-.764-.682l.041-.056c1.087.359,1.415.872,1.415,1.159,0,.128-.072.215-.169.215a.269.269,0,0,1-.149-.056,1.9,1.9,0,0,0-.282-.467c-.676.1-1.635.21-2.968.349a.2.2,0,0,1-.128.107l-.272-.445c.174,0,.41-.006.682-.016a11,11,0,0,0,.579-1.369H82.434L82.4,97.2Zm-.7-1.235.472.328c-.041.077-.1.107-.241.107H83.275l-.036-.123h1.933Z"/><path d="M97.44,98.892h-4.1v-4.1h4.1Zm-.143-.143V94.934H93.482v3.815Z"/><path d="M102.815,98.892h-4.1v-4.1h4.1Zm-.143-.143V94.934H98.857v3.815Z"/><path d="M107.432,96.206l.38.363a.336.336,0,0,1-.231.062,4.211,4.211,0,0,1-1.2,1.487,5.942,5.942,0,0,0,2.179.759l-.01.056a.407.407,0,0,0-.339.293,5.205,5.205,0,0,1-2.086-.918,6.527,6.527,0,0,1-2.338.922l-.031-.092a6.093,6.093,0,0,0,2.164-1,3.665,3.665,0,0,1-1.031-1.595h-.641l-.036-.123h1.759v-.98h-2.138l-.036-.123h2.174v-.85l.574.051c0,.082-.066.118-.241.143v.656h1.462l.255-.317.483.333c-.041.072-.1.107-.252.107H106.3v.98h.887Zm-2.43.338a3.285,3.285,0,0,0,1.138,1.415,3.962,3.962,0,0,0,1.056-1.415Z"/><path d="M111.321,96.58l.236-.3L112,96.6c-.041.077-.1.108-.241.108h-2.6l-.036-.123h1.595a10.828,10.828,0,0,0,.328-1.1l.533.159c-.02.056-.077.076-.194.071a7.764,7.764,0,0,1-.539.872Zm-2.051-1.21-.031-.123h1.082v-.774l.569.051c0,.082-.061.118-.241.143v.58h.554l.231-.3.441.313c-.042.077-.1.108-.241.108Zm1.82,1.917.154-.205.441.313a.4.4,0,0,1-.226.108v1.379c0,.015-.1.113-.317.113v-.313h-1.324v.374c0,.006-.05.113-.322.113V97.128l.348.159Zm-1.456-1.773a.937.937,0,0,1,.512.717c0,.159-.086.262-.184.262a.17.17,0,0,1-.138-.077,1.887,1.887,0,0,0-.252-.872Zm.184,3.045h1.324V97.41h-1.324Zm3.738-3.917.384.41c-.041.046-.112.056-.235.056-.18.339-.533.964-.754,1.3.887.595.923,1.067.923,1.318,0,.492-.21.754-.779.8,0-.211-.077-.261-.41-.3v-.087h.533c.261,0,.312-.237.312-.467a1.638,1.638,0,0,0-.692-1.246c.134-.343.37-1,.513-1.43h-.933V99.1c0,.03-.107.117-.272.117H112.1V94.708l.389.165h.852Z"/><rect class="d" x="44.351" y="84.27" width="54.588" height="7.847"/><rect class="e" x="71.645" y="84.27" width="20.843" height="7.847"/><line class="f" x1="51.175" y1="92.117" x2="51.175" y2="84.27"/><line class="d" x1="57.998" y1="92.117" x2="57.998" y2="84.27"/><line class="f" x1="64.822" y1="92.117" x2="64.822" y2="84.27"/><line class="f" x1="78.469" y1="92.117" x2="78.469" y2="84.27"/><line class="f" x1="85.292" y1="92.117" x2="85.292" y2="84.27"/><path d="M46.578,90.108a2.6,2.6,0,0,1-.47-1.757,2.439,2.439,0,0,1,.539-1.792,1.479,1.479,0,0,1,1.932,0,2.413,2.413,0,0,1,.545,1.792,2.6,2.6,0,0,1-.47,1.757,1.343,1.343,0,0,1-1.044.446A1.315,1.315,0,0,1,46.578,90.108Zm.012-1.752c0,.928.133,1.978,1.014,1.978.847,0,1.021-.939,1.021-1.978a2.614,2.614,0,0,0-.383-1.669.845.845,0,0,0-.638-.267C46.874,86.42,46.59,87.1,46.59,88.356Z"/><path d="M53.4,90.108a2.606,2.606,0,0,1-.47-1.757,2.439,2.439,0,0,1,.54-1.792,1.476,1.476,0,0,1,1.93,0,2.413,2.413,0,0,1,.545,1.792,2.606,2.606,0,0,1-.469,1.757,1.344,1.344,0,0,1-1.044.446A1.315,1.315,0,0,1,53.4,90.108Zm.012-1.752c0,.928.133,1.978,1.014,1.978.847,0,1.021-.939,1.021-1.978a2.621,2.621,0,0,0-.383-1.669.847.847,0,0,0-.638-.267C53.7,86.42,53.414,87.1,53.414,88.356Z"/><path d="M60.226,90.108a2.6,2.6,0,0,1-.47-1.757,2.439,2.439,0,0,1,.539-1.792,1.478,1.478,0,0,1,1.931,0,2.413,2.413,0,0,1,.545,1.792,2.6,2.6,0,0,1-.47,1.757,1.341,1.341,0,0,1-1.043.446A1.314,1.314,0,0,1,60.226,90.108Zm.011-1.752c0,.928.134,1.978,1.015,1.978.847,0,1.02-.939,1.02-1.978a2.622,2.622,0,0,0-.382-1.669.848.848,0,0,0-.638-.267C60.521,86.42,60.237,87.1,60.237,88.356Z"/><path d="M67.049,90.108a2.6,2.6,0,0,1-.47-1.757,2.439,2.439,0,0,1,.539-1.792,1.478,1.478,0,0,1,1.931,0,2.413,2.413,0,0,1,.545,1.792,2.606,2.606,0,0,1-.469,1.757,1.344,1.344,0,0,1-1.044.446A1.315,1.315,0,0,1,67.049,90.108Zm.012-1.752c0,.928.133,1.978,1.014,1.978.847,0,1.021-.939,1.021-1.978a2.614,2.614,0,0,0-.383-1.669.847.847,0,0,0-.638-.267C67.345,86.42,67.061,87.1,67.061,88.356Z"/><path d="M73.873,90.108a2.6,2.6,0,0,1-.47-1.757,2.439,2.439,0,0,1,.539-1.792,1.478,1.478,0,0,1,1.931,0,2.413,2.413,0,0,1,.545,1.792,2.6,2.6,0,0,1-.47,1.757,1.341,1.341,0,0,1-1.043.446A1.314,1.314,0,0,1,73.873,90.108Zm.011-1.752c0,.928.134,1.978,1.015,1.978.847,0,1.02-.939,1.02-1.978a2.622,2.622,0,0,0-.382-1.669.848.848,0,0,0-.638-.267C74.168,86.42,73.884,87.1,73.884,88.356Z"/><path d="M80.7,90.108a2.606,2.606,0,0,1-.47-1.757,2.439,2.439,0,0,1,.54-1.792,1.476,1.476,0,0,1,1.93,0,2.413,2.413,0,0,1,.545,1.792,2.6,2.6,0,0,1-.47,1.757,1.341,1.341,0,0,1-1.043.446A1.315,1.315,0,0,1,80.7,90.108Zm.012-1.752c0,.928.133,1.978,1.014,1.978.847,0,1.021-.939,1.021-1.978a2.621,2.621,0,0,0-.383-1.669.847.847,0,0,0-.638-.267C80.992,86.42,80.708,87.1,80.708,88.356Z"/><path d="M87.519,90.108a2.606,2.606,0,0,1-.47-1.757,2.439,2.439,0,0,1,.54-1.792,1.478,1.478,0,0,1,1.931,0,2.417,2.417,0,0,1,.544,1.792,2.606,2.606,0,0,1-.469,1.757,1.344,1.344,0,0,1-1.044.446A1.315,1.315,0,0,1,87.519,90.108Zm.012-1.752c0,.928.133,1.978,1.014,1.978.847,0,1.021-.939,1.021-1.978a2.621,2.621,0,0,0-.383-1.669.845.845,0,0,0-.638-.267C87.815,86.42,87.531,87.1,87.531,88.356Z"/><path d="M94.343,90.108a2.6,2.6,0,0,1-.47-1.757,2.439,2.439,0,0,1,.539-1.792,1.478,1.478,0,0,1,1.931,0,2.413,2.413,0,0,1,.545,1.792,2.6,2.6,0,0,1-.47,1.757,1.341,1.341,0,0,1-1.043.446A1.315,1.315,0,0,1,94.343,90.108Zm.011-1.752c0,.928.134,1.978,1.015,1.978.847,0,1.021-.939,1.021-1.978a2.614,2.614,0,0,0-.383-1.669.847.847,0,0,0-.638-.267C94.639,86.42,94.354,87.1,94.354,88.356Z"/><path d="M6.948,88.559a8.842,8.842,0,0,0,1.144-2.615l.528.164c-.02.056-.061.092-.195.087a8.282,8.282,0,0,1-.472,1.092l.18.067a.177.177,0,0,1-.159.092v3.127s-.057.114-.328.114V87.82a4.753,4.753,0,0,1-.621.79Zm4.835-.011c-.046.077-.1.113-.246.113h-1.21a3.566,3.566,0,0,0,1.466,1.384l-.01.052a.373.373,0,0,0-.292.271A3.785,3.785,0,0,1,10.229,88.7v1.866c0,.011-.045.123-.333.123V88.953A4.16,4.16,0,0,1,8.256,90.4L8.2,90.317a4.225,4.225,0,0,0,1.456-1.656H8.369l-.031-.123H9.9v-.81H9.158V87.9c0,.026-.1.108-.271.108H8.835V86.113l.385.164h1.722l.154-.2.4.308a.3.3,0,0,1-.185.087v1.395a.387.387,0,0,1-.276.1h-.057v-.241H10.4a.348.348,0,0,1-.17.046v.764h.862l.236-.308Zm-2.625-.943h1.825V86.4H9.158Z"/><path d="M13.888,86.031l.394.41c-.041.046-.112.057-.23.057-.169.317-.5.9-.7,1.21.743.533.825.948.825,1.225a.688.688,0,0,1-.728.79c0-.211-.047-.272-.364-.308v-.082h.456c.246,0,.277-.272.277-.431a1.607,1.607,0,0,0-.585-1.179c.123-.318.329-.933.457-1.338h-.769v4.2a.311.311,0,0,1-.272.118H12.6V86.093l.384.169h.687Zm2.553,3.1h-.785a1.944,1.944,0,0,0,1.529,1.235l-.011.062c-.169.02-.267.077-.3.256a1.95,1.95,0,0,1-1.3-1.43c-.174.569-.636,1.087-1.773,1.436l-.047-.083c.985-.415,1.38-.913,1.523-1.476h-.651v.164c0,.025-.1.107-.262.107h-.046V87.918l.37.159h.661v-.534h-.728l-.031-.123h1.3l.2-.261.379.277c-.041.077-.1.107-.231.107h-.553v.534H16.4l.149-.185.394.3a.28.28,0,0,1-.184.082v1s-.057.092-.318.092ZM13.872,87.7a3.771,3.771,0,0,0,1.395-1.743l.564.118c-.011.051-.061.077-.185.087a3.569,3.569,0,0,0,1.605,1.226l-.01.066a.372.372,0,0,0-.241.287,3.564,3.564,0,0,1-1.431-1.522,3.772,3.772,0,0,1-1.651,1.558Zm.754,1.308H15.3a3,3,0,0,0,.046-.524V88.2h-.723Zm1.815-.8h-.764v.277a3,3,0,0,1-.041.528h.8Z"/><path d="M22.031,87.338l.467.334c-.041.071-.1.107-.246.107H20.575a10.992,10.992,0,0,1-1.107.693h1.948l.159-.211.446.318a.425.425,0,0,1-.22.108v1.845a.41.41,0,0,1-.334.114v-.308h-2.2v.23s-.041.119-.333.119V88.748a11.1,11.1,0,0,1-1.221.5l-.03-.087a11.186,11.186,0,0,0,1.251-.631V88.3l.22.1a10.747,10.747,0,0,0,.928-.626H17.807l-.036-.123h1.9v-.825h-1.4l-.031-.123h1.431v-.77l.543.047c-.005.072-.061.108-.21.128v.595h.682l.236-.3.42.292c.185-.194.354-.384.5-.569l.435.349a.117.117,0,0,1-.092.041.316.316,0,0,1-.128-.036,8.159,8.159,0,0,1-1.313,1.174H21.79ZM21.467,88.6h-2.2v.717h2.2Zm-2.2,1.62h2.2v-.779h-2.2Zm.738-2.559h.241a10.518,10.518,0,0,0,.964-.83.326.326,0,0,1-.072.005H20.006Z"/><path d="M27.832,87.482c-.036.072-.1.108-.241.108H25.858a4.121,4.121,0,0,0,2.072,1.056l-.011.056a.348.348,0,0,0-.276.277,5.254,5.254,0,0,1-.7-.308v.006l.308.22a.358.358,0,0,1-.2.092v1.549c0,.015-.1.112-.333.112v-.271H24.279v.194c0,.006-.056.114-.328.114V88.728a5.645,5.645,0,0,1-.8.343l-.051-.087A5.135,5.135,0,0,0,24.94,87.59H23.223l-.031-.123h2.149V86.5c-.574.046-1.185.076-1.764.076l-.015-.1a19.374,19.374,0,0,0,3.337-.534l.379.37a.155.155,0,0,1-.1.036A.473.473,0,0,1,27,86.3c-.38.061-.836.118-1.333.169v1H27.15l.236-.3Zm-3.753-.872c.472.164.621.4.621.575a.216.216,0,0,1-.2.235.2.2,0,0,1-.154-.076,1.217,1.217,0,0,0-.318-.693Zm2.6,2.179.143-.179a3.08,3.08,0,0,1-1.1-1.02h-.051v.989a.329.329,0,0,1-.277.108h-.051V87.661a4.261,4.261,0,0,1-1.287,1.016l.256.112Zm-1.338.718v-.595H24.279v.595Zm-1.062.123v.626h1.062V89.63Zm2.446-.123v-.595H25.664v.595Zm-1.061.749h1.061V89.63H25.664ZM27.12,86.77c-.021.045-.057.066-.129.066a.317.317,0,0,1-.066,0,3.945,3.945,0,0,1-.636.589l-.077-.051a6.42,6.42,0,0,0,.395-.83Z"/><path d="M32.808,87.815l.451.329c-.036.071-.1.107-.246.107H30.091c-.067.185-.159.426-.252.661h2.282l.174-.2.4.318a.314.314,0,0,1-.21.072,2.469,2.469,0,0,1-.544,1.451,1.079,1.079,0,0,1-.61.134c0-.165-.025-.252-.692-.324l.006-.087c.255.016.732.031.876.036a.372.372,0,0,0,.226-.046,2.517,2.517,0,0,0,.41-1.231H29.793L29.6,89.5a.306.306,0,0,1-.123.02.648.648,0,0,1-.221-.041c.164-.384.359-.9.472-1.23H28.553l-.036-.123h4.055Zm-3.184-.3v.164s-.051.123-.333.123V86.082l.364.159H32.1l.159-.2.446.318a.387.387,0,0,1-.221.1V87.61c0,.015-.1.113-.333.113v-.21Zm2.522-1.149H29.624V87.39h2.522Z"/><path d="M10.768,77.75l.395.3c-.036.062-.089.093-.213.093h-.493v.777c0,.014-.089.1-.284.1V78.7H9.178v.369c0,.226-.071.395-.515.444,0-.222-.191-.249-.573-.271v-.075h.675c.1,0,.12-.027.12-.107V78.7H7.5l-.031-.106H8.885v-.449H6.976l-.031-.106h1.94V77.6H7.531L7.5,77.492H8.885v-.386H7.979v.106c0,.01-.053.1-.284.1v-1.1l.311.138h.879v-.369H7.029L7,75.876H8.885v-.484l.493.04c0,.071-.036.1-.2.124v.32h1.261l.218-.275.422.288c-.036.063-.085.093-.214.093H9.178v.369h.87l.134-.173.386.271a.37.37,0,0,1-.187.089v.595a.364.364,0,0,1-.288.093v-.12H9.178v.386h.95l.134-.177.386.27a.354.354,0,0,1-.191.089v.365h.1ZM7.979,77h.906v-.542H7.979Zm2.114-.542H9.178V77h.915ZM9.178,77.6v.44h.995V77.6Zm.995.995v-.449H9.178v.449Z"/><path d="M15.729,78.212c-.036.062-.085.093-.209.093H13.988a4.148,4.148,0,0,0,1.789.839l-.008.049a.3.3,0,0,0-.241.235,3.535,3.535,0,0,1-1.674-1.123h-.021v1.114c0,.022-.1.089-.245.089h-.044V78.4a4.738,4.738,0,0,1-1.883,1.03l-.04-.079a4.877,4.877,0,0,0,1.621-1.044H11.706l-.032-.107h1.87v-.475H12.158l-.026-.106h1.412v-.458H11.937l-.027-.106h1.128A.156.156,0,0,1,12.962,77a1.207,1.207,0,0,0-.329-.622l.04-.035c.418.16.551.377.551.528a.179.179,0,0,1-.106.178h1a5.136,5.136,0,0,0,.373-.706l.4.173a.111.111,0,0,1-.1.044.482.482,0,0,1-.071-.008,3.474,3.474,0,0,1-.471.5h.7l.2-.24.369.253c-.036.067-.08.093-.205.093H13.833v.458h.945l.182-.231.355.244c-.035.067-.084.093-.208.093H13.833V78.2h1.313l.2-.253Zm0-1.959c-.036.062-.085.094-.209.094H11.71l-.027-.107h.99a.181.181,0,0,1-.089-.049,1.268,1.268,0,0,0-.412-.652l.035-.04c.475.164.631.408.631.568a.162.162,0,0,1-.116.173h.413v-.861l.453.04c0,.062-.049.088-.177.106v.715h.564v-.861l.457.04c-.005.062-.045.093-.182.111v.71h.2a5.543,5.543,0,0,0,.47-.746l.4.195a.093.093,0,0,1-.085.04.387.387,0,0,1-.089-.013,3.387,3.387,0,0,1-.568.524h.573l.2-.248Z"/><path d="M17.825,77.746h-.946a2.553,2.553,0,0,1-.564,1.758l-.062-.049a3.906,3.906,0,0,0,.342-1.932V76.378l.338.146h.848l.133-.177.386.275a.361.361,0,0,1-.191.089v1.252c0,.009-.084.089-.284.089Zm.586-2c-.036.067-.089.1-.208.1H16.329l-.027-.106h1.523l.2-.266Zm-.586.888h-.946v1.008h.946Zm2.269.062.382.275c-.036.067-.089.094-.209.094h-.413v2.349c0,.022-.093.093-.244.093h-.045V77.062h-.754v.2A2.353,2.353,0,0,1,17.8,79.508l-.057-.057a2.634,2.634,0,0,0,.785-2.185V75.747l.338.12a6.016,6.016,0,0,0,1.083-.475l.382.32a.127.127,0,0,1-.093.035.458.458,0,0,1-.133-.031,8.335,8.335,0,0,1-1.292.258v.981H19.9Z"/><path d="M24.442,77.523l.391.285a.414.414,0,0,1-.2.093v1.47c0,.008-.084.1-.293.1V79.22H22.493v.186a.282.282,0,0,1-.24.1H22.2V77.9a6.61,6.61,0,0,1-1.23.5l-.031-.076a5.807,5.807,0,0,0,1.683-.954.152.152,0,0,1-.111-.04,2.073,2.073,0,0,0-.635-.764,3.982,3.982,0,0,1-.755.511l-.049-.063a4.2,4.2,0,0,0,1.372-1.629l.467.142c-.019.049-.059.062-.169.053a3.1,3.1,0,0,1-.236.333h1.235l.222-.2.337.329c-.035.04-.089.049-.2.053a4.574,4.574,0,0,1-1.563,1.608l.009,0H24.3Zm-2.016-1.5a4.946,4.946,0,0,1-.48.494c.613.2.808.51.808.7a.292.292,0,0,1-.008.063,4.313,4.313,0,0,0,1-1.253Zm.067,3.091h1.851v-1.3H22.493Z"/><path d="M26.7,76.853V77.4c.515.2.68.462.68.631a.15.15,0,0,1-.138.168.171.171,0,0,1-.115-.049,1.859,1.859,0,0,0-.427-.674v1.931c0,.027-.1.1-.24.1h-.044V77.537a3.711,3.711,0,0,1-.772,1.141l-.067-.062a4.722,4.722,0,0,0,.746-1.763h-.675l-.027-.106h.8V75.96a7.494,7.494,0,0,1-.8.2l-.027-.071a7.34,7.34,0,0,0,1.47-.689l.373.285a.127.127,0,0,1-.093.035.4.4,0,0,1-.133-.027c-.143.058-.316.121-.507.187v.871h.244l.187-.249.351.262c-.036.066-.084.093-.205.093Zm.555,1.936a4.824,4.824,0,0,0,.529-1.55l.435.111c-.013.053-.049.08-.155.08a3.538,3.538,0,0,1-.738,1.4ZM29.745,76.4c-.036.066-.094.093-.214.093h-.644c-.013.049-.049.075-.191.093v2.482c0,.231-.057.4-.448.44,0-.213-.111-.258-.453-.284v-.072h.524c.076,0,.093-.022.093-.088V76.489h-.541a3.353,3.353,0,0,1-.538.892l-.066-.04a6.149,6.149,0,0,0,.612-1.94l.458.111c-.013.053-.049.084-.16.089a6.169,6.169,0,0,1-.262.781h1.243l.2-.262Zm-.724.848a1.99,1.99,0,0,1,.714,1.287c0,.178-.066.284-.155.284a.182.182,0,0,1-.124-.066,4.121,4.121,0,0,0-.5-1.478Z"/><path d="M43.427,79.224H39.875V75.672h3.552ZM43.3,79.1V75.8H40v3.3Z"/><path d="M48.085,79.224H44.533V75.672h3.552Zm-.124-.124V75.8h-3.3v3.3Z"/><path d="M53.553,77.195a5.281,5.281,0,0,0,1.865-1.82l.5.132c-.014.054-.062.072-.183.089a4.7,4.7,0,0,0,1.945,1.257l-.009.071a.366.366,0,0,0-.252.258,4.292,4.292,0,0,1-1.759-1.541,5.618,5.618,0,0,1-2.078,1.625Zm3.362.564.226-.284.418.3c-.036.062-.085.093-.214.093H55.223l.209.072c-.023.048-.072.066-.174.057a6.943,6.943,0,0,1-.7,1.052c.573-.017,1.323-.053,2.118-.088a3.4,3.4,0,0,0-.661-.591l.035-.049c.942.311,1.226.755,1.226,1,0,.111-.063.186-.147.186A.237.237,0,0,1,57,79.459a1.64,1.64,0,0,0-.244-.4c-.586.085-1.416.182-2.571.3a.172.172,0,0,1-.111.094l-.235-.387c.151,0,.355,0,.591-.013a9.544,9.544,0,0,0,.5-1.186H53.718l-.031-.106Zm-.609-1.071.409.285c-.036.067-.089.093-.209.093h-2.06l-.031-.107h1.674Z"/><path d="M60.086,76.444a.376.376,0,0,1-.2.045,4.072,4.072,0,0,1-.644.946v.013c.609.12.8.386.8.559a.145.145,0,0,1-.138.16.2.2,0,0,1-.112-.04,1.584,1.584,0,0,0-.55-.612v1.873s-.031.112-.284.112V77.723a3.558,3.558,0,0,1-.724.538l-.048-.054a4.454,4.454,0,0,0,1.389-1.793H58.261l-.032-.107h.725V75.4l.5.044c-.009.072-.058.1-.213.12v.742h.32l.2-.187Zm1.9,2.443.391.284c-.036.066-.089.1-.213.1H59.73l-.026-.107h1.2V77.075h-.888l-.027-.107H60.9V75.4l.506.045c-.009.071-.062.106-.2.124v1.4h.462l.2-.27.381.279c-.035.067-.084.1-.2.1h-.843v2.087h.572Z"/><path d="M6.984,56.115c.276-.04.915-.178,1.568-.329l.018.067c-.293.128-.706.3-1.279.524a.157.157,0,0,1-.093.1Zm1.759,2.229a.125.125,0,0,1-.1.035.465.465,0,0,1-.121-.022,5.362,5.362,0,0,1-1.514.449l-.027-.072a4.567,4.567,0,0,0,1.372-.67Zm-1.581-3.5c.6.067.791.32.791.489a.149.149,0,0,1-.138.164.17.17,0,0,1-.107-.036A1.43,1.43,0,0,0,7.14,54.9Zm3.264,3.242c-.005.031-.151.1-.249.1h-.04v-.146h-2.2v.093c0,.005-.04.1-.284.1V56.292l.311.143h2.127l.133-.169.369.262a.317.317,0,0,1-.169.079Zm-.289-1.55h-2.2v.391h2.2Zm0,.888v-.391h-2.2v.391Zm-2.2.506h2.2v-.4h-2.2Zm2.438-2.273a3.5,3.5,0,0,0,.173-.444H9.707c.142.408.5.75,1.407.941l-.009.053c-.142.022-.226.062-.249.209a1.536,1.536,0,0,1-1.211-1.088A1.708,1.708,0,0,1,8.259,56.4l-.022-.081a1.487,1.487,0,0,0,1.128-1.1H8.9a2.09,2.09,0,0,1-.59.466l-.054-.049a2.038,2.038,0,0,0,.6-.95l.462.1c-.014.049-.049.066-.156.062a2.226,2.226,0,0,1-.173.266h1.545l.174-.177.315.311c-.031.03-.08.039-.169.044a2.371,2.371,0,0,1-.409.4Zm-.95,2.486c1.261.1,1.607.373,1.607.533,0,.076-.076.125-.169.125a.284.284,0,0,1-.151-.045,3.821,3.821,0,0,0-1.3-.537Z"/><path d="M12.647,55.839v.533c.461.2.608.436.608.591a.15.15,0,0,1-.137.168A.178.178,0,0,1,13,57.078a1.879,1.879,0,0,0-.355-.617V58.7c0,.008-.036.106-.284.106V56.643a3.814,3.814,0,0,1-.7,1.132l-.067-.066a4.991,4.991,0,0,0,.706-1.87H11.67l-.031-.106h.724V54.694l.47.04c0,.066-.044.1-.186.111v.888h.16l.182-.258.35.271c-.04.067-.089.093-.2.093Zm2.54-.79.333.306c-.036.041-.08.054-.187.058a3.792,3.792,0,0,1-.71,1,3.381,3.381,0,0,0,1.216.5l-.008.049a.308.308,0,0,0-.24.24,3.149,3.149,0,0,1-1.141-.622,4.31,4.31,0,0,1-.906.613l.253.107h1.261l.133-.178.387.275a.362.362,0,0,1-.191.089v1.217a.363.363,0,0,1-.284.093v-.258H13.744v.169c0,.027-.094.1-.227.1h-.044v-1.58c-.138.066-.28.124-.431.182l-.036-.076a4.172,4.172,0,0,0,1.279-.919,2.844,2.844,0,0,1-.515-.773,2.673,2.673,0,0,1-.617.68l-.067-.049a3.75,3.75,0,0,0,.8-1.647l.439.119c-.017.054-.057.076-.151.067A3.741,3.741,0,0,1,14,55.24h.981ZM15.1,57.411H13.744v1.026H15.1Zm-1.155-2.064c-.036.07-.075.137-.115.2a2.6,2.6,0,0,0,.59.715,3.61,3.61,0,0,0,.559-.919Z"/><path d="M18.855,55.084c-.035.067-.088.094-.213.094h-.5V58.7a.263.263,0,0,1-.24.106H17.86V57.771c-.333.1-.772.227-1.332.377a.15.15,0,0,1-.111.1l-.137-.4.4-.04V55.178h-.373l-.027-.107H18.26l.2-.262Zm-1,.849v-.755h-.9v.755Zm0,.875v-.769h-.9v.769Zm-.9.106v.866c.267-.031.578-.071.9-.111v-.755Zm3.091-1.572.333.306c-.035.04-.08.054-.178.062a5.428,5.428,0,0,1-.75,1.945,2.919,2.919,0,0,0,.981.893l-.013.044a.314.314,0,0,0-.266.209,3.1,3.1,0,0,1-.862-.919,3.724,3.724,0,0,1-1.043.928l-.045-.08a3.744,3.744,0,0,0,.964-1.065A5.9,5.9,0,0,1,18.6,55.64h-.271l-.031-.107h1.576Zm-1.346.3a4.895,4.895,0,0,0,.6,1.789A5.868,5.868,0,0,0,19.9,55.64Z"/><path d="M20.917,57.185a6.781,6.781,0,0,0,1.074-1.6l.422.213a.1.1,0,0,1-.1.058.393.393,0,0,1-.072-.009,5.761,5.761,0,0,1-.39.524l.124.049a.165.165,0,0,1-.133.08v2.207a.328.328,0,0,1-.231.1h-.053V56.705a5.142,5.142,0,0,1-.586.542Zm.017-1.372a5.774,5.774,0,0,0,.946-1.119l.4.235a.1.1,0,0,1-.093.045.254.254,0,0,1-.075-.009,5.6,5.6,0,0,1-1.128.914Zm3.8,1.283.378.271c-.04.067-.089.093-.209.093h-.608v.924c0,.235-.053.39-.466.435,0-.222-.138-.257-.475-.28v-.066h.555c.075,0,.1-.027.1-.089V57.46H22.23l-.026-.106H24v-.493l.467.035c-.005.058-.036.089-.178.107v.351h.244Zm-.239-.4.2-.261.386.275c-.035.066-.088.093-.208.093H22.3l-.031-.107Zm-1.816.915c.519.156.683.4.683.577,0,.107-.062.183-.146.183a.178.178,0,0,1-.12-.049,1.463,1.463,0,0,0-.448-.671Zm.262-1.39v.133a.271.271,0,0,1-.231.094h-.045V54.765l.329.142h1.27l.133-.173.351.271a.276.276,0,0,1-.164.071v1.252a.319.319,0,0,1-.24.089H24.3v-.2ZM24.3,55.014H22.937v.5H24.3Zm-1.358,1.1H24.3v-.5H22.937Z"/><path d="M29.309,57.167l.426.293c-.035.067-.089.1-.217.1h-1.59v1.154a.29.29,0,0,1-.248.094h-.049V57.558H25.655l-.031-.107h.755v-1.27l.346.147h.906v-.866h-.977a3.654,3.654,0,0,1-.924,1.088l-.062-.045a5.172,5.172,0,0,0,1-1.878l.453.165c-.017.053-.053.08-.168.071a5.337,5.337,0,0,1-.236.492h2.171l.222-.279.418.293c-.031.067-.085.093-.214.093H27.928v.866h.813l.209-.262.395.275c-.036.067-.089.094-.213.094h-1.2v1.016h1.159Zm-2.642.284h.964V56.435h-.964Z"/><path d="M33.284,54.849l.391.289a.388.388,0,0,1-.2.093v3.144c0,.235-.071.4-.51.431,0-.244-.2-.289-.564-.307v-.062h.675c.08,0,.107-.018.107-.071V57.189H31.348a2.132,2.132,0,0,1-1.039,1.617l-.058-.054a2.719,2.719,0,0,0,.857-2.3V54.894l.347.146h1.687ZM31.4,56.443a6.232,6.232,0,0,1-.031.64h1.821v-.928H31.4Zm1.79-1.3H31.4v.9h1.79Z"/><path d="M37.779,54.978l.386.289a.384.384,0,0,1-.2.093v3.228c0,.009-.08.111-.293.111v-.368H35.5v.315c0,.009-.018.124-.284.124V55.018l.315.151h2.1Zm-.1.3H35.5v1.394h2.176ZM35.5,58.224h2.176V56.781H35.5Z"/><path d="M44.425,56.752A2.551,2.551,0,1,1,46.977,59.3,2.552,2.552,0,0,1,44.425,56.752Zm4.94,0a2.389,2.389,0,1,0-2.388,2.389A2.385,2.385,0,0,0,49.365,56.752Z"/><path d="M50.518,56.752a2.551,2.551,0,1,1,2.55,2.551A2.551,2.551,0,0,1,50.518,56.752Zm4.94,0a2.389,2.389,0,1,0-2.39,2.389A2.386,2.386,0,0,0,55.458,56.752Z"/><path d="M61.294,57.3l.557.383c-.046.087-.116.127-.284.127H59.491v1.507c0,.03-.128.123-.325.123H59.1v-1.63H56.522l-.041-.139h.986V56.01l.452.191H59.1V55.07H57.827a4.773,4.773,0,0,1-1.206,1.421l-.081-.058a6.771,6.771,0,0,0,1.3-2.453l.592.215c-.023.069-.07.1-.221.093a6.474,6.474,0,0,1-.307.643h2.835l.29-.365.545.382c-.04.087-.11.122-.278.122H59.491V56.2h1.061l.273-.342.516.359c-.047.087-.116.122-.279.122H59.491v1.328H61Zm-3.45.371H59.1V56.34H57.844Z"/><path d="M64.6,56.752A2.552,2.552,0,1,1,67.155,59.3,2.552,2.552,0,0,1,64.6,56.752Zm4.94,0a2.389,2.389,0,1,0-2.389,2.389A2.385,2.385,0,0,0,69.544,56.752Z"/><path d="M70.7,56.752A2.552,2.552,0,1,1,73.248,59.3,2.553,2.553,0,0,1,70.7,56.752Zm4.941,0a2.389,2.389,0,1,0-2.389,2.389A2.386,2.386,0,0,0,75.637,56.752Z"/><path d="M80.581,54.27l.51.377a.5.5,0,0,1-.255.122v4.105c0,.307-.093.516-.667.563,0-.32-.267-.377-.736-.4v-.081h.881c.1,0,.139-.023.139-.093V57.326h-2.4A2.785,2.785,0,0,1,76.7,59.437l-.075-.07a3.555,3.555,0,0,0,1.118-3.01V54.328l.453.192h2.2Zm-2.465,2.082a8.06,8.06,0,0,1-.04.835h2.377V55.975H78.116Zm2.337-1.693H78.116v1.176h2.337Z"/><path d="M84.436,56.752a2.551,2.551,0,1,1,2.55,2.551A2.551,2.551,0,0,1,84.436,56.752Zm4.939,0a2.389,2.389,0,1,0-2.389,2.389A2.385,2.385,0,0,0,89.375,56.752Z"/><path d="M90.527,56.752A2.552,2.552,0,1,1,93.079,59.3,2.553,2.553,0,0,1,90.527,56.752Zm4.941,0a2.389,2.389,0,1,0-2.389,2.389A2.386,2.386,0,0,0,95.468,56.752Z"/><path d="M100.719,54.438l.5.377a.5.5,0,0,1-.255.122v4.215c0,.012-.1.145-.383.145v-.481H97.744v.412c0,.011-.023.162-.371.162v-4.9l.412.2h2.742Zm-.134.395H97.744v1.82h2.841Zm-2.841,3.844h2.841V56.792H97.744Z"/><path d="M10.684,50.876l.43.3c-.035.063-.089.093-.218.093H7.016l-.032-.106H8.876V49.851H7.531L7.5,49.744H8.876V48.537H7.833a3.315,3.315,0,0,1-.715.95l-.062-.049a5.218,5.218,0,0,0,.821-1.927l.466.137c-.017.054-.049.08-.164.076a6.344,6.344,0,0,1-.288.706h.985V47.373l.5.044c0,.071-.058.1-.2.12v.893H10.2l.226-.28.422.293c-.035.067-.089.094-.213.094H9.174v1.207h.861l.217-.275.418.288c-.035.067-.089.094-.213.094H9.174v1.314h1.283Z"/><path d="M15.333,49.846l.426.293c-.035.067-.088.1-.217.1h-1.59v1.155a.292.292,0,0,1-.248.093h-.049V50.237H11.679l-.031-.107H12.4V48.86l.347.147h.906v-.866h-.977a3.641,3.641,0,0,1-.924,1.088l-.062-.044a5.18,5.18,0,0,0,1-1.878l.453.164c-.018.053-.053.08-.168.071-.072.173-.152.337-.236.493h2.171l.222-.28.418.293c-.031.067-.085.093-.214.093H13.952v.866h.813l.209-.262.395.276c-.036.066-.089.093-.213.093h-1.2V50.13h1.159Zm-2.642.284h.964V49.114h-.964Z"/><path d="M19.308,47.528l.391.289a.377.377,0,0,1-.2.093v3.144c0,.236-.071.395-.51.431,0-.244-.2-.289-.564-.307v-.062H19.1c.08,0,.106-.017.106-.071V49.869H17.372a2.135,2.135,0,0,1-1.039,1.616l-.058-.053a2.722,2.722,0,0,0,.857-2.3V47.573l.347.146h1.687Zm-1.887,1.595a6.226,6.226,0,0,1-.031.639h1.82v-.928H17.421Zm1.789-1.3H17.421v.9H19.21Z"/><path d="M23.8,47.657l.386.289a.384.384,0,0,1-.2.093v3.228c0,.009-.08.111-.293.111V51.01H21.525v.315c0,.009-.018.124-.284.124V47.7l.315.151h2.1Zm-.1.3H21.525v1.395H23.7ZM21.525,50.9H23.7V49.46H21.525Z"/><path d="M49.3,51.752H44.657V47.113H49.3Zm-.163-.163V47.275H44.819v4.314Z"/><path d="M55.388,51.752H50.749V47.113h4.639Zm-.162-.163V47.275H50.912v4.314Z"/><path d="M58.513,49.433a2.551,2.551,0,1,1,2.55,2.55A2.551,2.551,0,0,1,58.513,49.433Zm4.94,0a2.389,2.389,0,1,0-2.39,2.388A2.386,2.386,0,0,0,63.453,49.433Z"/><path d="M64.6,49.433a2.552,2.552,0,1,1,2.551,2.55A2.552,2.552,0,0,1,64.6,49.433Zm4.94,0a2.389,2.389,0,1,0-2.389,2.388A2.385,2.385,0,0,0,69.544,49.433Z"/><path d="M75.382,49.978l.556.382c-.046.087-.116.128-.284.128H73.578V52c0,.029-.127.122-.325.122H73.19V50.488H70.609l-.04-.139h.986V48.69l.452.191H73.19v-1.13H71.914a4.754,4.754,0,0,1-1.206,1.42l-.081-.058a6.766,6.766,0,0,0,1.305-2.452l.591.214c-.023.07-.069.1-.22.093a6.728,6.728,0,0,1-.308.644h2.836l.29-.365.545.382c-.041.087-.11.122-.279.122H73.578v1.13H74.64l.272-.341.516.359c-.046.087-.116.122-.279.122H73.578v1.328h1.514Zm-3.45.371H73.19V49.021H71.932Z"/><path d="M78.691,49.433a2.552,2.552,0,1,1,2.552,2.55A2.552,2.552,0,0,1,78.691,49.433Zm4.941,0a2.389,2.389,0,1,0-2.389,2.388A2.386,2.386,0,0,0,83.632,49.433Z"/><path d="M84.783,49.433a2.552,2.552,0,1,1,2.552,2.55A2.552,2.552,0,0,1,84.783,49.433Zm4.941,0a2.389,2.389,0,1,0-2.389,2.388A2.386,2.386,0,0,0,89.724,49.433Z"/><path d="M94.667,46.951l.511.377a.5.5,0,0,1-.255.121v4.106c0,.307-.093.516-.667.562,0-.319-.267-.377-.736-.4v-.081H94.4c.1,0,.139-.024.139-.093V50.006h-2.4a2.786,2.786,0,0,1-1.357,2.111l-.075-.07a3.553,3.553,0,0,0,1.118-3.009V47.009l.453.191h2.2ZM92.2,49.032a8.034,8.034,0,0,1-.04.835H94.54V48.655H92.2Zm2.337-1.693H92.2v1.177H94.54Z"/><path d="M98.522,49.433a2.552,2.552,0,1,1,2.552,2.55A2.552,2.552,0,0,1,98.522,49.433Zm4.941,0a2.389,2.389,0,1,0-2.389,2.388A2.386,2.386,0,0,0,103.463,49.433Z"/><path d="M104.614,49.433a2.552,2.552,0,1,1,2.552,2.55A2.552,2.552,0,0,1,104.614,49.433Zm4.941,0a2.389,2.389,0,1,0-2.389,2.388A2.386,2.386,0,0,0,109.555,49.433Z"/><path d="M114.806,47.119l.505.377a.513.513,0,0,1-.255.122v4.215c0,.012-.105.145-.383.145V51.5h-2.841v.411c0,.012-.023.163-.372.163v-4.9l.412.2h2.743Zm-.133.394h-2.841v1.821h2.841Zm-2.841,3.844h2.841V49.473h-2.841Z"/><path d="M11.034,43.707l-.076.617c.112.111.152.177.152.226,0,.022-.027.116-.16.116a1,1,0,0,1-.44-.16,2.843,2.843,0,0,1-1.327-2.083H7.842v1.714c.448-.049,1-.111,1.563-.178l.009.076c-.484.12-1.155.275-2.1.462a.172.172,0,0,1-.106.1l-.2-.377c.134-.009.32-.027.542-.049V40.944l.364.134a15.615,15.615,0,0,0,2.367-.524l.328.311a.132.132,0,0,1-.084.026.415.415,0,0,1-.151-.036c-.244.049-.537.1-.848.147-.013.049-.053.067-.169.084a6.578,6.578,0,0,0,.1,1.23H10.47l.222-.284.422.3c-.035.066-.089.093-.213.093H9.476a2.437,2.437,0,0,0,1.163,1.794.178.178,0,0,0,.084.035c.031,0,.049-.022.076-.066a4.718,4.718,0,0,0,.191-.489ZM7.842,42.316H9.165a7.9,7.9,0,0,1-.116-1.247c-.368.044-.759.084-1.132.111l-.075.013Z"/><path d="M15.125,42.681l.39.284a.4.4,0,0,1-.2.093v1.47c0,.009-.085.1-.293.1v-.253H13.175v.186a.279.279,0,0,1-.239.1h-.049v-1.6a6.638,6.638,0,0,1-1.23.5l-.032-.076a5.826,5.826,0,0,0,1.684-.954.154.154,0,0,1-.112-.04,2.073,2.073,0,0,0-.635-.764,3.96,3.96,0,0,1-.754.511l-.049-.063a4.194,4.194,0,0,0,1.372-1.629l.466.142c-.018.049-.058.062-.169.053a2.948,2.948,0,0,1-.235.333h1.234l.222-.2.338.328c-.036.04-.089.049-.2.053a4.591,4.591,0,0,1-1.563,1.608l.009,0h1.753Zm-2.017-1.5a5.038,5.038,0,0,1-.479.493c.613.2.808.51.808.7a.238.238,0,0,1-.009.062,4.289,4.289,0,0,0,1-1.252Zm.067,3.091h1.852v-1.3H13.175Z"/><path d="M47.11,37.9H44.656V35.449H47.11Z"/><path d="M50.335,37.9H47.881V35.449h2.454Z"/><path d="M53.56,37.9H51.106V35.449H53.56Z"/><path d="M56.786,37.9H54.332V35.449h2.454Z"/><path d="M63.236,37.9H60.782V35.449h2.454Z"/><path d="M66.461,37.9H64.007V35.449h2.454Z"/><path d="M69.687,37.9H67.233V35.449h2.454Z"/><path d="M45.128,26.2l.191-.249.373.262c-.035.066-.089.093-.2.093H43.707l-.026-.106Zm.28-.564c-.035.066-.085.093-.2.093H43.925l-.027-.106h.964l.186-.241Zm-.32.914.333.231c-.035.072-.08.1-.2.1H43.938l-.026-.106h1Zm-1.15.9-.026-.106h1l.173-.222.333.235c-.035.067-.08.093-.2.093Zm1.026.471.129-.169.377.267a.37.37,0,0,1-.186.089v1.1c0,.013-.085.1-.276.1v-.276H44.2v.3c0,.009-.04.1-.271.1V27.783l.293.133Zm-.768,1h.812v-.893H44.2Zm3.494-.644-.009.71c.147.05.169.059.169.107,0,.124-.129.191-.538.191H46.278c-.395,0-.479-.071-.479-.408V27l.337.147H47.3V25.736H45.714l-.031-.107H47.25l.138-.177.382.275a.361.361,0,0,1-.191.089v1.567c0,.013-.089.1-.284.1V27.25H46.083v1.625c0,.142.009.151.2.151h1.008c.093,0,.146,0,.182-.08a4.242,4.242,0,0,0,.173-.675Z"/><path d="M52.091,26.935l.391.284c-.031.062-.085.093-.213.093H49.738c-.058.16-.138.369-.217.573H51.5l.151-.173.347.275a.272.272,0,0,1-.182.062,2.135,2.135,0,0,1-.471,1.257.939.939,0,0,1-.529.115c0-.142-.021-.217-.6-.279l0-.076c.222.014.636.027.76.031a.317.317,0,0,0,.2-.04,2.165,2.165,0,0,0,.355-1.065H49.48l-.168.4a.277.277,0,0,1-.107.017.584.584,0,0,1-.191-.035c.142-.333.311-.782.409-1.066H48.406l-.031-.106h3.512Zm-2.757-.262v.142s-.044.106-.289.106V25.434l.315.137h2.114l.138-.177.386.275a.329.329,0,0,1-.191.089v1c0,.014-.089.1-.288.1v-.182Zm2.185-.995H49.334v.888h2.185Z"/><path d="M58.545,27.364A2.256,2.256,0,1,1,60.8,29.62,2.256,2.256,0,0,1,58.545,27.364Zm4.368,0A2.113,2.113,0,1,0,60.8,29.476,2.11,2.11,0,0,0,62.913,27.364Z"/><path d="M63.92,27.364a2.256,2.256,0,1,1,2.256,2.256A2.256,2.256,0,0,1,63.92,27.364Zm4.368,0a2.113,2.113,0,1,0-2.112,2.112A2.11,2.11,0,0,0,68.288,27.364Z"/><path d="M69.3,27.364a2.256,2.256,0,1,1,2.256,2.256A2.257,2.257,0,0,1,69.3,27.364Zm4.369,0a2.113,2.113,0,1,0-2.113,2.112A2.11,2.11,0,0,0,73.664,27.364Z"/><path d="M74.671,27.364a2.256,2.256,0,1,1,2.256,2.256A2.256,2.256,0,0,1,74.671,27.364Zm4.368,0a2.113,2.113,0,1,0-2.112,2.112A2.11,2.11,0,0,0,79.039,27.364Z"/><path d="M80.046,27.364A2.256,2.256,0,1,1,82.3,29.62,2.257,2.257,0,0,1,80.046,27.364Zm4.369,0A2.113,2.113,0,1,0,82.3,29.476,2.11,2.11,0,0,0,84.415,27.364Z"/><path d="M85.421,27.364a2.256,2.256,0,1,1,2.256,2.256A2.257,2.257,0,0,1,85.421,27.364Zm4.369,0a2.113,2.113,0,1,0-2.113,2.112A2.11,2.11,0,0,0,89.79,27.364Z"/><path d="M90.8,27.364a2.256,2.256,0,1,1,2.256,2.256A2.256,2.256,0,0,1,90.8,27.364Zm4.368,0a2.113,2.113,0,1,0-2.112,2.112A2.11,2.11,0,0,0,95.165,27.364Z"/><path d="M96.172,27.364a2.256,2.256,0,1,1,2.256,2.256A2.257,2.257,0,0,1,96.172,27.364Zm4.369,0a2.113,2.113,0,1,0-2.113,2.112A2.11,2.11,0,0,0,100.541,27.364Z"/><path d="M110.828,26.646c-.031.062-.084.093-.208.093h-1.5a3.559,3.559,0,0,0,1.794.915l-.009.049a.3.3,0,0,0-.24.24,4.55,4.55,0,0,1-.6-.267v.005l.267.191a.325.325,0,0,1-.169.08v1.34c0,.014-.089.1-.289.1v-.235h-2.118v.169s-.049.1-.284.1v-1.7a4.9,4.9,0,0,1-.7.3l-.044-.075a4.453,4.453,0,0,0,1.6-1.208h-1.488l-.026-.106h1.86v-.84c-.5.04-1.025.067-1.527.067l-.014-.089a16.915,16.915,0,0,0,2.891-.461l.329.319a.133.133,0,0,1-.089.031.409.409,0,0,1-.151-.039c-.329.053-.724.1-1.154.146v.866h1.283l.2-.258Zm-3.25-.755c.408.142.537.347.537.5a.188.188,0,0,1-.169.2.171.171,0,0,1-.133-.067,1.044,1.044,0,0,0-.275-.6Zm2.251,1.887.125-.155a2.659,2.659,0,0,1-.955-.884h-.044V27.6a.281.281,0,0,1-.24.093h-.045V26.8a3.65,3.65,0,0,1-1.114.88l.222.1Zm-1.159.622v-.515h-.919V28.4Zm-.919.106v.542h.919v-.542Zm2.118-.106v-.515h-.919V28.4Zm-.919.648h.919v-.542h-.919Zm1.261-3.019c-.018.04-.049.057-.111.057a.308.308,0,0,1-.058,0,3.394,3.394,0,0,1-.55.511l-.067-.045a5.4,5.4,0,0,0,.342-.719Z"/><path d="M115.141,26.935l.39.284c-.031.062-.084.093-.213.093h-2.531c-.058.16-.138.369-.217.573h1.975l.152-.173.346.275a.272.272,0,0,1-.182.062,2.135,2.135,0,0,1-.471,1.257.935.935,0,0,1-.528.115c0-.142-.022-.217-.6-.279l0-.076c.222.014.635.027.759.031a.32.32,0,0,0,.2-.04,2.186,2.186,0,0,0,.355-1.065H112.53l-.169.4a.277.277,0,0,1-.107.017.584.584,0,0,1-.191-.035c.143-.333.312-.782.409-1.066h-1.017l-.031-.106h3.513Zm-2.758-.262v.142s-.044.106-.288.106V25.434l.315.137h2.113l.138-.177.386.275a.326.326,0,0,1-.191.089v1c0,.014-.088.1-.288.1v-.182Zm2.185-.995h-2.185v.888h2.185Z"/><path d="M153.641,27.364A2.256,2.256,0,1,1,155.9,29.62,2.256,2.256,0,0,1,153.641,27.364Zm4.368,0a2.112,2.112,0,1,0-2.112,2.112A2.11,2.11,0,0,0,158.009,27.364Z"/><path d="M159.016,27.364a2.256,2.256,0,1,1,2.256,2.256A2.256,2.256,0,0,1,159.016,27.364Zm4.368,0a2.112,2.112,0,1,0-2.112,2.112A2.11,2.11,0,0,0,163.384,27.364Z"/><path d="M149.708,11.669a2.256,2.256,0,1,1,2.256,2.256A2.256,2.256,0,0,1,149.708,11.669Zm4.368,0a2.112,2.112,0,1,0-2.112,2.112A2.109,2.109,0,0,0,154.076,11.669Z"/><path d="M155.083,11.669a2.256,2.256,0,1,1,2.256,2.256A2.257,2.257,0,0,1,155.083,11.669Zm4.369,0a2.113,2.113,0,1,0-2.113,2.112A2.11,2.11,0,0,0,159.452,11.669Z"/><path d="M160.458,11.669a2.256,2.256,0,1,1,2.256,2.256A2.257,2.257,0,0,1,160.458,11.669Zm4.369,0a2.113,2.113,0,1,0-2.113,2.112A2.11,2.11,0,0,0,164.827,11.669Z"/><path d="M165.834,11.669a2.256,2.256,0,1,1,2.256,2.256A2.256,2.256,0,0,1,165.834,11.669Zm4.368,0a2.112,2.112,0,1,0-2.112,2.112A2.109,2.109,0,0,0,170.2,11.669Z"/><path d="M112.094,19.858a2.256,2.256,0,1,1,2.256,2.256A2.255,2.255,0,0,1,112.094,19.858Zm4.368,0a2.113,2.113,0,1,0-2.112,2.113A2.109,2.109,0,0,0,116.462,19.858Z"/><path d="M117.469,19.858a2.256,2.256,0,1,1,2.256,2.256A2.255,2.255,0,0,1,117.469,19.858Zm4.368,0a2.112,2.112,0,1,0-2.112,2.113A2.109,2.109,0,0,0,121.837,19.858Z"/><path d="M126.987,20.34l.492.339c-.041.077-.1.113-.251.113h-1.835v1.333a.342.342,0,0,1-.288.107h-.056v-1.44h-2.281l-.037-.124h.872V19.2l.4.169h1.046v-1h-1.128a4.225,4.225,0,0,1-1.067,1.256l-.071-.052a5.978,5.978,0,0,0,1.154-2.168l.522.19c-.021.061-.062.091-.194.082a6.105,6.105,0,0,1-.272.569H126.5l.256-.323.482.338c-.036.077-.1.108-.246.108h-1.6v1h.938l.24-.3.457.318c-.041.077-.1.107-.246.107h-1.389v1.174h1.337Zm-3.05.328h1.112V19.494h-1.112Z"/><path d="M128.22,19.858a2.256,2.256,0,1,1,2.256,2.256A2.254,2.254,0,0,1,128.22,19.858Zm4.368,0a2.113,2.113,0,1,0-2.112,2.113A2.109,2.109,0,0,0,132.588,19.858Z"/><path d="M133.6,19.858a2.256,2.256,0,1,1,2.256,2.256A2.255,2.255,0,0,1,133.6,19.858Zm4.368,0a2.112,2.112,0,1,0-2.112,2.113A2.109,2.109,0,0,0,137.963,19.858Z"/><path d="M142.324,17.664l.451.333a.444.444,0,0,1-.226.108v3.63c0,.272-.082.456-.589.5,0-.282-.236-.333-.651-.354v-.071h.779c.092,0,.123-.021.123-.082V20.366h-2.123a2.459,2.459,0,0,1-1.2,1.866l-.067-.061a3.141,3.141,0,0,0,.99-2.661v-1.8l.4.17h1.949Zm-2.179,1.841a7.012,7.012,0,0,1-.036.738h2.1V19.171h-2.066Zm2.066-1.5h-2.066v1.04h2.066Z"/><path d="M144.039,19.858a2.256,2.256,0,1,1,2.255,2.256A2.255,2.255,0,0,1,144.039,19.858Zm4.368,0a2.113,2.113,0,1,0-2.113,2.113A2.11,2.11,0,0,0,148.407,19.858Z"/><path d="M149.414,19.858a2.256,2.256,0,1,1,2.256,2.256A2.255,2.255,0,0,1,149.414,19.858Zm4.368,0a2.112,2.112,0,1,0-2.112,2.113A2.109,2.109,0,0,0,153.782,19.858Z"/><path d="M158.261,17.812l.446.334a.448.448,0,0,1-.226.108v3.727c0,.01-.092.128-.338.128v-.425H155.63v.364c0,.01-.02.143-.328.143V17.859l.364.174h2.425Zm-.118.349H155.63v1.61h2.513Zm-2.513,3.4h2.513V19.9H155.63Z"/><path d="M159.775,18.464l-.036-.123h2.2v-.862l.579.052c0,.082-.066.117-.241.143v.667h1.472l.251-.323.487.338c-.041.072-.1.108-.246.108Zm1.385,1.159a3.1,3.1,0,0,0,.943,1.235,3.693,3.693,0,0,0,.82-1.256l.5.22c-.026.047-.062.067-.139.067a.364.364,0,0,1-.071,0,3.7,3.7,0,0,1-.867,1.159,5.686,5.686,0,0,0,2.153.835l-.01.062a.391.391,0,0,0-.333.287,4.949,4.949,0,0,1-2.03-1,5.316,5.316,0,0,1-2.364,1l-.026-.087a5.188,5.188,0,0,0,2.174-1.113,3.632,3.632,0,0,1-.841-1.348Zm.461-.683A.124.124,0,0,1,161.5,19a.406.406,0,0,1-.072,0,3.705,3.705,0,0,1-1.476,1.071l-.047-.076a3.711,3.711,0,0,0,1.226-1.3Zm1.108-.194c1.194.338,1.563.851,1.563,1.123a.164.164,0,0,1-.159.184.279.279,0,0,1-.133-.041,3.954,3.954,0,0,0-1.3-1.2Z"/><path d="M165.063,20.161a8.563,8.563,0,0,0,1.206-2.677l.538.17c-.021.061-.067.1-.195.092a8.48,8.48,0,0,1-.5,1.128l.2.072c-.016.046-.062.082-.155.092v3.076a.366.366,0,0,1-.271.118h-.062V19.366a4.888,4.888,0,0,1-.676.846Zm4.4-1.646.431.328c-.041.077-.093.113-.237.113h-.692v2.728c0,.287-.087.5-.63.558,0-.292-.246-.323-.718-.358V21.8h.856c.113,0,.149-.036.149-.129V18.956h-1.928l-.031-.123h1.959V17.49l.574.051c0,.077-.036.113-.231.139v1.153h.262Zm-2.395,1c.667.375.877.8.877,1.077,0,.184-.1.307-.21.307a.236.236,0,0,1-.164-.082,2.6,2.6,0,0,0-.559-1.266Z"/><path d="M57.064,10.116c-.049.092-.116.135-.3.135h-2.2A5.911,5.911,0,0,0,57.169,12.8l-.012.062a.482.482,0,0,0-.406.344,6,6,0,0,1-2.306-2.933v2.552h.566l.288-.387.542.4c-.049.092-.123.135-.289.135H54.445v1.2c0,.019-.049.154-.406.154V12.969H52.71l-.043-.147h1.372V10.589a6.4,6.4,0,0,1-2.614,2.663l-.067-.092A6.934,6.934,0,0,0,53.7,10.251h-2.22l-.043-.147h2.6V8.616l.676.061c-.012.093-.073.141-.27.16V10.1h1.728L56.48,9.7Z"/><path d="M57.851,14.211c2.478-1.543,2.454-3.566,2.466-5.423l.7.061c-.012.08-.055.13-.259.148a5.784,5.784,0,0,0,2.811,4.938L63.545,14a.441.441,0,0,0-.436.326,5.956,5.956,0,0,1-2.386-4.409h-.006a4.741,4.741,0,0,1-2.786,4.4Z"/><path d="M66.887,14.347a3.051,3.051,0,0,1-1.814-2.878,3.043,3.043,0,0,1,1.814-2.878l.1.129a3.011,3.011,0,0,0-1.531,2.749,3.012,3.012,0,0,0,1.531,2.749Z"/><path d="M68.929,11.457a2.387,2.387,0,0,1,.307.1c.117-.166.271-.4.406-.627l.4.24a.122.122,0,0,1-.117.055.349.349,0,0,1-.1-.012c-.135.135-.3.295-.437.418.375.191.5.424.5.59a.193.193,0,0,1-.178.215.233.233,0,0,1-.148-.061,2.153,2.153,0,0,0-.633-.824v2.626s-.037.129-.369.129v-2.5a5.188,5.188,0,0,1-.873.757l-.056-.105a6.022,6.022,0,0,0,1.642-2.472H67.73l-.049-.147h.873V8.609l.67.062c-.006.1-.08.141-.289.172v1h.326l.259-.241.423.388c-.048.049-.116.068-.257.074a5.847,5.847,0,0,1-.757,1.309ZM72.742,11l.448.411c-.043.056-.11.074-.252.08A4.462,4.462,0,0,1,72,13.135a3.955,3.955,0,0,0,1.444.818l-.012.068a.455.455,0,0,0-.381.313,3.715,3.715,0,0,1-1.3-.946,4.785,4.785,0,0,1-1.488.916l-.043-.111a4.25,4.25,0,0,0,1.347-1.033,4.5,4.5,0,0,1-.732-1.759h-.209a3.983,3.983,0,0,1-1.033,2.915l-.092-.067a5.251,5.251,0,0,0,.738-3.137V9.477l.461.2h.818V8.628l.676.061c-.006.1-.08.142-.289.173V9.68h.843l.233-.241.443.425a.355.355,0,0,1-.234.061,3.559,3.559,0,0,1-.559.628l-.086-.043c.061-.16.166-.462.233-.683h-.873v1.427h.572ZM70.626,9.827v1.427h.892V9.827Zm.338,1.574a3.665,3.665,0,0,0,.806,1.507A4.74,4.74,0,0,0,72.5,11.4Z"/><path d="M74.057,11.764a10.578,10.578,0,0,0,1.371-3.136l.634.2c-.025.068-.074.111-.234.1a9.927,9.927,0,0,1-.566,1.31l.216.08a.213.213,0,0,1-.191.111v3.751s-.068.135-.393.135V10.878a5.78,5.78,0,0,1-.745.948Zm5.8-.012c-.056.092-.123.135-.295.135H78.109a4.288,4.288,0,0,0,1.759,1.66l-.012.062a.448.448,0,0,0-.351.326,4.537,4.537,0,0,1-1.512-2v2.238c0,.012-.055.147-.4.147V12.238a5,5,0,0,1-1.968,1.74l-.067-.1A5.1,5.1,0,0,0,77.3,11.887H75.76l-.036-.148h1.869v-.971h-.885v.2c0,.03-.124.129-.327.129H76.32V8.831l.461.2h2.066l.185-.234.486.369a.373.373,0,0,1-.222.105V10.94a.459.459,0,0,1-.332.117H78.9v-.289h-.7a.413.413,0,0,1-.2.055v.916h1.033l.283-.368ZM76.708,10.62H78.9V9.175H76.708Z"/><path d="M82.383,8.732l.474.493c-.049.055-.135.067-.277.067-.2.381-.6,1.076-.842,1.451.891.64.99,1.138.99,1.47a.825.825,0,0,1-.874.947c0-.252-.055-.326-.436-.369v-.1h.547c.3,0,.332-.326.332-.517a1.926,1.926,0,0,0-.7-1.414c.148-.382.394-1.119.548-1.605h-.923v5.036a.37.37,0,0,1-.326.141h-.062V8.806l.462.2h.824Zm3.063,3.715h-.941a2.331,2.331,0,0,0,1.832,1.482L86.325,14c-.2.025-.32.093-.357.308a2.341,2.341,0,0,1-1.562-1.716c-.209.683-.762,1.3-2.127,1.722l-.055-.1c1.18-.5,1.653-1.1,1.826-1.771h-.781v.2c0,.03-.117.128-.314.128H82.9V11l.443.19h.793v-.64h-.873l-.037-.147h1.555l.234-.314.455.332c-.049.093-.116.129-.277.129h-.664v.64H85.4l.179-.221.473.356a.336.336,0,0,1-.221.1v1.193s-.068.111-.381.111Zm-3.081-1.716A4.529,4.529,0,0,0,84.038,8.64l.676.142c-.012.061-.074.092-.221.1a4.272,4.272,0,0,0,1.924,1.47l-.012.08a.448.448,0,0,0-.289.344A4.272,4.272,0,0,1,84.4,8.954a4.524,4.524,0,0,1-1.98,1.869Zm.9,1.568h.812a3.584,3.584,0,0,0,.055-.627v-.339h-.867Zm2.177-.966h-.917v.333a3.6,3.6,0,0,1-.049.633h.966Z"/><path d="M92.154,10.3l.56.4c-.049.086-.117.13-.3.13h-2.01a13.419,13.419,0,0,1-1.328.83h2.336l.191-.253.535.382a.51.51,0,0,1-.265.129v2.213a.491.491,0,0,1-.4.136V13.9H88.84v.277c0,.006-.049.141-.4.141V11.992a13.49,13.49,0,0,1-1.463.6l-.038-.1a13.266,13.266,0,0,0,1.5-.757v-.276l.264.123a13.028,13.028,0,0,0,1.113-.75h-2.73l-.043-.148h2.281v-.99H87.646l-.036-.148h1.715V8.622l.652.055c-.006.086-.074.129-.252.154v.713h.818l.283-.362.5.35c.221-.234.424-.461.6-.683l.522.419a.146.146,0,0,1-.111.049.389.389,0,0,1-.153-.044,9.771,9.771,0,0,1-1.574,1.409h1.254Zm-.676,1.506H88.84v.861h2.638ZM88.84,13.75h2.638v-.935H88.84Zm.885-3.068h.289a12.662,12.662,0,0,0,1.156-1,.383.383,0,0,1-.086.006H89.725Z"/><path d="M96.636,8.591a3.05,3.05,0,0,1,1.815,2.878,3.043,3.043,0,0,1-1.815,2.878l-.1-.129a3.012,3.012,0,0,0,1.531-2.749A3.011,3.011,0,0,0,96.538,8.72Z"/><path d="M10.06,9.518l.4.082a.388.388,0,0,1-.041.123A7.814,7.814,0,0,1,9.924,12.1a2.4,2.4,0,0,0,1.841.593c.314,0,1.548,0,1.937-.014a2.723,2.723,0,0,0-.259.737H11.724a2.915,2.915,0,0,1-2.148-.655,2.81,2.81,0,0,1-.648.709,2.763,2.763,0,0,0-.375-.518v.573h-.73V10.139a6.083,6.083,0,0,1-.43.655,9.234,9.234,0,0,0-.313-.873A9.025,9.025,0,0,0,8.266,7.1l.873.279c-.027.055-.081.089-.184.082L8.9,7.622h.826l.143-.02.416.136c-.007.014-.239.682-.675,1.794h.328ZM8.73,8.809a.193.193,0,0,1-.177.116v3.881a2.388,2.388,0,0,0,.559-.669,5.306,5.306,0,0,1-.5-1.425l.614-.184a4.743,4.743,0,0,0,.225.791A7.328,7.328,0,0,0,9.7,10.132H9.364l-.088.212L8.607,10.2c.259-.6.546-1.357.757-1.944H8.839V7.82c-.1.307-.218.62-.341.921Zm2.674-.28V8.222h-.86V7.629h.86V7.117l.914.055c-.007.061-.055.1-.171.123v.334h1.125v.9h.369v.594h-.369v.92H12.147v.321h1.2v.6h-1.2v.328h1.371V11.9H12.147v.622H11.4V11.9H10.292v-.606H11.4v-.328h-.942v-.6H11.4v-.321h-.86V9.45h.86V9.123H10.1V8.529Zm1.179-.307h-.436v.307h.436Zm0,1.228V9.123h-.436V9.45Z"/><path d="M21.982,11.032H20.455a2.848,2.848,0,0,0,.389.655,6.959,6.959,0,0,0,.88-.634l.668.566a.14.14,0,0,1-.116.041.391.391,0,0,1-.082-.014,8.931,8.931,0,0,1-.907.5,3.384,3.384,0,0,0,1.2.62,3.04,3.04,0,0,0-.5.662,3.421,3.421,0,0,1-1.739-1.4V12.7c0,.743-.361.811-1.582.811a2.587,2.587,0,0,0-.2-.6l-.627.273a.163.163,0,0,1-.075.136l-.43-.723c.457-.143,1.132-.4,1.794-.648.047.177.095.362.143.587-.211.1-.43.2-.634.293.17.007.341.014.47.014.328,0,.362,0,.362-.15V11.032H18.115a5.42,5.42,0,0,1,.948.587l-.47.485a5.856,5.856,0,0,0-.976-.662l.417-.41h-.089V10.48h1.521v-.334H17.617V9.573h1.849V9.259H18.02V8.713h1.446v-.34H17.5V9.655a8.494,8.494,0,0,1-.724,3.881,3.1,3.1,0,0,0-.661-.451,7.282,7.282,0,0,0,.607-3.43v-2h2.462V7.077l1.037.054c-.007.068-.054.109-.184.137v.388h2.489v.717h-2.1c-.014.061-.062.1-.171.115v.225h1.732v.86H22.6v.573h-.615ZM20.25,9.259v.314h.955V9.259Zm0,.887v.334h.955v-.334Z"/><path d="M27.514,7.411a.181.181,0,0,1-.191.082,13.741,13.741,0,0,1-.587,1.3l.253.068c-.014.062-.062.11-.177.116v4.536H26.02V10.009a7.09,7.09,0,0,1-.593.764,7,7,0,0,0-.389-.825A8.269,8.269,0,0,0,26.606,7.1Zm4.017,3.717H30.167a5.06,5.06,0,0,0,1.576,1.5,3.541,3.541,0,0,0-.58.655,5.9,5.9,0,0,1-1.405-1.534v1.759h-.819V11.79a5.483,5.483,0,0,1-1.486,1.48,3.214,3.214,0,0,0-.567-.655,4.919,4.919,0,0,0,1.658-1.487H27.132v-.744h1.807V9.777h-1.35v-2.4H31.2v2.4H29.758v.607h1.773ZM28.366,8.093v.962h2.026V8.093Z"/><path d="M40.28,11.667H39.065a2.4,2.4,0,0,0,1.583,1.187,1.973,1.973,0,0,0-.471.682,2.951,2.951,0,0,1-1.657-1.365,2.939,2.939,0,0,1-1.862,1.371,2.929,2.929,0,0,0-.436-.606c1.064-.335,1.528-.778,1.718-1.269H36.678v-1.9h1.4V9.327H37.21V8.986a4.594,4.594,0,0,1-.627.375,3.268,3.268,0,0,0-.328-.6c-.088.273-.184.546-.272.784a1.939,1.939,0,0,1,.607,1.372c0,1.016-.669,1.063-1.221,1.043a2.044,2.044,0,0,0-.171-.7,1.218,1.218,0,0,0,.219.021c.252,0,.429-.007.429-.477a1.849,1.849,0,0,0-.573-1.167c.144-.443.3-1.064.416-1.541h-.565v5.415h-.71V7.37h1.569l.129-.028.519.266a.254.254,0,0,1-.062.1c-.075.286-.177.621-.286.955a4.444,4.444,0,0,0,1.773-1.583l.921.034a.152.152,0,0,1-.123.1A4.59,4.59,0,0,0,40.7,8.584a4.393,4.393,0,0,0-.423.716,5.189,5.189,0,0,1-.546-.314v.341h-.914v.437H40.28ZM37.4,11.039h.675c.007-.075.007-.157.007-.231v-.417H37.4Zm1.882-2.387a4.773,4.773,0,0,1-.839-.866,4.166,4.166,0,0,1-.8.866Zm.273,1.739h-.737v.437c0,.068,0,.143-.006.211h.743Z"/><path d="M12.734,17.918l.525.185a.281.281,0,0,1-.075.115,5.206,5.206,0,0,1-.934,2.121A3.589,3.589,0,0,0,13.539,21,3.034,3.034,0,0,0,13,21.71a3.933,3.933,0,0,1-1.3-.77,4.754,4.754,0,0,1-1.166.75,2.913,2.913,0,0,0-.485-.669,3.521,3.521,0,0,0,1.105-.682,5.359,5.359,0,0,1-.682-1.255,5.788,5.788,0,0,1-.811,2.654,2.941,2.941,0,0,0-.641-.464,5.594,5.594,0,0,0,.736-2.933l-.034-.007a7.034,7.034,0,0,1-.464.58l.341.43-.471.538c-.1-.191-.279-.456-.456-.715V21.7H7.9V19.459a6.155,6.155,0,0,1-.593.594,3.4,3.4,0,0,0-.382-.75,5.736,5.736,0,0,0,1.589-2.087H7.121v-.737h.763V15.3l.955.048c-.006.068-.061.109-.177.13v1h.252l.116-.034.512.3a.187.187,0,0,1-.116.095,7.792,7.792,0,0,1-.689,1.453l.191.226a7.435,7.435,0,0,0,.4-.648l.43.327V16.247h1.426v-.975l.975.054c-.007.062-.061.11-.184.123v.8h1.03l.45.021c-.007.027-.014.088-.02.122a10.315,10.315,0,0,1-.362,1.419l-.7-.129c.048-.185.1-.43.15-.689h-.552v.947H12.6Zm-2.244.976.62-.164a3.93,3.93,0,0,0,.56,1.023,4.253,4.253,0,0,0,.559-1.1H10.5Zm.7-1.9h-.655v.947h.655Z"/><path d="M16.2,15.6a.18.18,0,0,1-.191.082,13.758,13.758,0,0,1-.587,1.3l.253.068c-.014.061-.062.109-.177.116V21.7H14.7V18.2a7.09,7.09,0,0,1-.593.764,6.941,6.941,0,0,0-.389-.826,8.267,8.267,0,0,0,1.569-2.851Zm4.017,3.717H18.85a5.052,5.052,0,0,0,1.576,1.5,3.545,3.545,0,0,0-.58.655,5.9,5.9,0,0,1-1.405-1.535V21.7h-.818V19.978a5.486,5.486,0,0,1-1.487,1.48,3.241,3.241,0,0,0-.567-.655,4.909,4.909,0,0,0,1.658-1.487H15.815v-.743h1.808v-.607H16.272v-2.4h3.615v2.4H18.441v.607h1.773Zm-3.165-3.035v.962h2.026v-.962Z"/><path d="M26.815,19.855H25.6a2.4,2.4,0,0,0,1.582,1.187,1.973,1.973,0,0,0-.471.682,2.946,2.946,0,0,1-1.657-1.364,2.943,2.943,0,0,1-1.862,1.371,2.877,2.877,0,0,0-.437-.607c1.064-.334,1.528-.778,1.719-1.269H23.214v-1.9h1.4v-.436h-.866v-.341a4.594,4.594,0,0,1-.627.375,3.263,3.263,0,0,0-.328-.6c-.088.273-.184.545-.272.784a1.933,1.933,0,0,1,.606,1.371c0,1.016-.668,1.064-1.221,1.043a2.038,2.038,0,0,0-.17-.7,1.3,1.3,0,0,0,.218.02c.253,0,.43-.007.43-.477a1.853,1.853,0,0,0-.573-1.166c.143-.444.3-1.064.416-1.542h-.566V21.7H20.95V15.558h1.569l.129-.027.519.266a.262.262,0,0,1-.062.1c-.075.287-.177.621-.287.955a4.438,4.438,0,0,0,1.774-1.582l.921.034a.149.149,0,0,1-.123.1,4.571,4.571,0,0,0,1.841,1.364,4.388,4.388,0,0,0-.422.716,4.981,4.981,0,0,1-.546-.313v.341h-.914v.436h1.466Zm-2.885-.627h.675c.007-.075.007-.157.007-.232V18.58H23.93Zm1.883-2.388a4.677,4.677,0,0,1-.839-.866,4.169,4.169,0,0,1-.8.866Zm.272,1.74h-.736v.436c0,.068,0,.144-.007.212h.743Z"/><path d="M33.846,18.082H31.315c-.259.191-.525.375-.8.545H32.9v3.042h-.818v-.177H29.828v.2h-.784V19.426c-.375.17-.764.334-1.153.477a4.127,4.127,0,0,0-.45-.634,13.08,13.08,0,0,0,2.544-1.187H27.578v-.689h2.257v-.634h-1.6v-.676h1.6v-.825l.989.054c-.007.069-.061.11-.177.137v.634h1.5v.28a7.968,7.968,0,0,0,.7-.853l.8.457a.154.154,0,0,1-.136.062.328.328,0,0,1-.082-.014,9.707,9.707,0,0,1-1.276,1.378h1.692Zm-1.76,1.65V19.3H29.828v.429ZM29.828,20.81h2.258v-.457H29.828Zm.819-4.051v.634H31q.4-.308.757-.634Z"/><path d="M34.314,17.072v-.648h2.558v.648Zm2.36,2.265v2.094H35.311v.259h-.689V19.337Zm-.047-1.923v.613H34.642v-.613Zm-1.985,1.575v-.621h1.985v.621Zm1.978-3.512v.62H34.683v-.62Zm-.648,4.508h-.661v.791h.661Zm3.438.7h1.35v.77H36.893v-.77h.429V17.427l.935.054c-.007.062-.055.11-.171.123v3.084H38.6V16.37H37.083V15.6H40.63v.771H39.41v1.651h1.179v.77H39.41Z"/></svg>