<svg xmlns="http://www.w3.org/2000/svg" xmlns:xlink="http://www.w3.org/1999/xlink" width="162.708" height="104.708" viewBox="0 0 162.708 104.708"><defs><style>.a{fill:#d5e9cf;stroke-width:0.708px;}.a,.d,.e,.j{stroke:#231815;}.a,.d,.h,.j{stroke-miterlimit:10;}.b{fill:#231815;}.c{fill:#76caf2;}.d,.e,.h,.j{fill:none;}.d,.h{stroke-width:0.283px;}.e{stroke-width:0.227px;}.f{fill:url(#a);}.g{fill:#fff;}.h{stroke:#c30d23;}.i{fill:#c30d23;}.j{stroke-width:0.499px;}</style><linearGradient id="a" x1="137.286" y1="31.085" x2="137.286" y2="87.335" gradientUnits="userSpaceOnUse"><stop offset="0" stop-color="#4596bd"/><stop offset="1" stop-color="#fff"/></linearGradient></defs><title>28-1</title><rect class="a" x="0.354" y="0.354" width="162" height="104" rx="4.798" ry="4.798"/><path class="b" d="M6.361,16.689v1a4.378,4.378,0,0,0,.879-.243v.269a3.9,3.9,0,0,1-1.038.293l-.1-.24-.005,0v-.009l-.012-.028.012,0V15.541h.244A4.938,4.938,0,0,0,8,15.272l.147.244a5.858,5.858,0,0,1-.7.172q.027.448.068.769H8.559v.232H7.55a2.507,2.507,0,0,0,.252.745q.183.342.329.342c.049,0,.088-.035.116-.1a1.716,1.716,0,0,0,.068-.433l.281.122a1.507,1.507,0,0,1-.122.556.316.316,0,0,1-.294.189.7.7,0,0,1-.6-.44,2.734,2.734,0,0,1-.318-.9l-.012-.079Zm0-.9v.672h.863c-.022-.208-.038-.45-.05-.726A6.089,6.089,0,0,1,6.361,15.785Z"/><path class="b" d="M11.234,15.822a3.8,3.8,0,0,1-.955.965h1.187v1.184H10.037v.147H9.78V17.1a6.289,6.289,0,0,1-.769.358l-.147-.28a5.647,5.647,0,0,0,1.245-.6,1.745,1.745,0,0,0-.39-.308l.2-.245a2.387,2.387,0,0,1,.415.393,2.393,2.393,0,0,0,.549-.588H9.995a2.792,2.792,0,0,1-.813.818l-.2-.256a2.037,2.037,0,0,0,.977-1.124l.28.086c-.033.08-.07.157-.108.232h1.1Zm-.025,1.917v-.72H10.037v.72Z"/><path class="b" d="M7.423,22.741H7.044l-.9-2v2H5.872V20.322h.342l.941,2.04v-2.04h.268Z"/><path class="b" d="M7.741,22.741,8.5,20.322H8.8l.744,2.419H9.231l-.243-.855h-.7l-.252.855Zm.9-2.064-.286.965h.56Z"/><path class="b" d="M11.722,22.741h-.269V20.726l-.537,1.185h-.293l-.5-1.2v2.028H9.853V20.322h.367l.55,1.246.573-1.246h.379Z"/><path class="b" d="M13.505,22.741H12.173V20.322h1.332v.245H12.442v.745h.94v.244h-.94V22.5h1.063Z"/><path class="b" d="M5.843,30.943h.531a.83.83,0,0,1,.665.265,1.2,1.2,0,0,1,.239.776,1.245,1.245,0,0,1-.219.775.8.8,0,0,1-.685.287H5.843Zm.234,1.891h.3a.58.58,0,0,0,.5-.234,1.026,1.026,0,0,0,.17-.616.95.95,0,0,0-.175-.611.6.6,0,0,0-.5-.218h-.3Z"/><path class="b" d="M7.49,33.046l.659-2.1h.265l.649,2.1H8.786L8.575,32.3h-.61l-.22.743Zm.786-1.795-.248.839h.486Z"/><path class="b" d="M10.645,31.155H10.05v1.891H9.817V31.155h-.6v-.212h1.424Z"/><path class="b" d="M12.09,33.046H10.932v-2.1H12.09v.212h-.925V31.8h.818v.212h-.818v.819h.925Z"/><path class="b" d="M14.151,30.943a.65.65,0,0,1,.5.281,1.457,1.457,0,0,1,.011,1.551.787.787,0,0,1-1.206-.021,1.244,1.244,0,0,1-.212-.749,1.21,1.21,0,0,1,.228-.775A.661.661,0,0,1,14,30.943Zm-.075.223a.524.524,0,0,0-.419.218.967.967,0,0,0-.176.621.986.986,0,0,0,.16.611.519.519,0,0,0,.435.207.512.512,0,0,0,.409-.2.962.962,0,0,0,.165-.622,1.011,1.011,0,0,0-.165-.621A.5.5,0,0,0,14.076,31.166Z"/><path class="b" d="M15.224,33.046v-2.1h1.115v.212h-.882V31.8h.776v.212h-.776v1.031Z"/><path class="b" d="M18.687,31.9a.52.52,0,0,1,.308.552.592.592,0,0,1-.154.446.575.575,0,0,1-.42.149H17.55v-2.1h.819a.557.557,0,0,1,.366.127.471.471,0,0,1,.154.383A.456.456,0,0,1,18.687,31.9Zm-.9-.1h.585a.287.287,0,0,0,.2-.08.346.346,0,0,0,.09-.27.282.282,0,0,0-.286-.3h-.585Zm0,1.031h.637a.358.358,0,0,0,.245-.085.385.385,0,0,0,.1-.3.449.449,0,0,0-.107-.329.386.386,0,0,0-.286-.107h-.585Z"/><path class="b" d="M19.718,33.046h-.595v-.212H19.3V31.155h-.181v-.212h.595v.212h-.181v1.679h.181Z"/><path class="b" d="M21.4,33.046h-.3l-.548-.913h-.365v.913h-.234v-2.1H20.6a.8.8,0,0,1,.521.149.544.544,0,0,1,.181.446.55.55,0,0,1-.181.441.663.663,0,0,1-.317.138ZM20.185,31.92H20.6a.484.484,0,0,0,.356-.112.368.368,0,0,0,.111-.27.362.362,0,0,0-.111-.282.522.522,0,0,0-.356-.1h-.414Z"/><path class="b" d="M22.968,31.155h-.595v1.891h-.234V31.155h-.595v-.212h1.424Z"/><path class="b" d="M24.614,33.046h-.233V32.015h-.893v1.031h-.233v-2.1h.233v.86h.893v-.86h.233Z"/><path class="b" d="M35.111,30.943l-.616,1.232v.871h-.233v-.871l-.605-1.232h.265l.457.945.467-.945Z"/><path class="b" d="M42.8,33.046h-.234V31.293L42.1,32.324h-.254l-.436-1.041v1.763h-.233v-2.1H41.5l.478,1.084.5-1.084H42.8Z"/><path class="b" d="M52.311,30.943h.531a.829.829,0,0,1,.664.265,1.2,1.2,0,0,1,.239.776,1.251,1.251,0,0,1-.218.775.806.806,0,0,1-.685.287h-.531Zm.233,1.891h.3a.578.578,0,0,0,.5-.234,1.026,1.026,0,0,0,.17-.616.95.95,0,0,0-.175-.611.6.6,0,0,0-.494-.218h-.3Z"/><path class="b" d="M59.269,31.591a.938.938,0,0,0-.064-.234.308.308,0,0,0-.143-.149.465.465,0,0,0-.218-.053.561.561,0,0,0-.244.043.261.261,0,0,0-.122.111.344.344,0,0,0-.038.165.21.21,0,0,0,.069.16.59.59,0,0,0,.149.1,1.6,1.6,0,0,0,.175.069l.149.054a1.209,1.209,0,0,1,.261.138.789.789,0,0,1,.207.212.52.52,0,0,1,.085.3.529.529,0,0,1-.1.314A.5.5,0,0,1,59.21,33a1.073,1.073,0,0,1-.355.047A1.174,1.174,0,0,1,58.536,33a.553.553,0,0,1-.277-.176.719.719,0,0,1-.127-.4h.234a.408.408,0,0,0,.09.271.392.392,0,0,0,.186.106.933.933,0,0,0,.446,0,.28.28,0,0,0,.155-.106A.312.312,0,0,0,59.3,32.5a.362.362,0,0,0-.058-.2.457.457,0,0,0-.144-.143.808.808,0,0,0-.181-.085l-.148-.053a2.464,2.464,0,0,1-.25-.1.647.647,0,0,1-.218-.176.426.426,0,0,1-.095-.276.542.542,0,0,1,.079-.3A.442.442,0,0,1,58.5,31a.781.781,0,0,1,.287-.053H58.9a.577.577,0,0,1,.282.074.608.608,0,0,1,.323.574Z"/><path class="b" d="M61.011,33.046H59.853v-2.1h1.158v.212h-.924V31.8h.818v.212h-.818v.819h.924Z"/><path class="b" d="M61.542,33.046h-.265l.613-1.056-.6-1.047h.266l.47.817.475-.817h.266l-.608,1.047.608,1.056H62.5l-.475-.826Z"/><path class="b" d="M87.671,73.6l-.616,1.231v.872h-.233v-.872L86.216,73.6h.265l.457.945.468-.945Z"/><path class="b" d="M98.677,75.707h-.234V73.954l-.467,1.031h-.255l-.436-1.042v1.764h-.233V73.6h.318l.479,1.083.5-1.083h.329Z"/><path class="b" d="M108.185,73.6h.531a.829.829,0,0,1,.664.265,1.2,1.2,0,0,1,.239.775,1.256,1.256,0,0,1-.218.776.806.806,0,0,1-.685.287h-.531Zm.233,1.89h.3a.58.58,0,0,0,.5-.233,1.027,1.027,0,0,0,.17-.617.947.947,0,0,0-.175-.61.6.6,0,0,0-.494-.218h-.3Z"/><path class="b" d="M47.132,73.6l-.616,1.231v.872h-.233v-.872L45.677,73.6h.265l.457.945.468-.945Z"/><path class="b" d="M58.138,75.707H57.9V73.954l-.468,1.031h-.254l-.436-1.042v1.764h-.234V73.6h.319l.478,1.083.5-1.083h.329Z"/><path class="b" d="M39.708,98.823H40.3a.683.683,0,0,1,.475.148.57.57,0,0,1,.165.446.577.577,0,0,1-.165.442.675.675,0,0,1-.475.153h-.379v.914h-.214Zm.214.976H40.3a.421.421,0,0,0,.324-.111.383.383,0,0,0,.1-.271.377.377,0,0,0-.1-.282.452.452,0,0,0-.324-.1h-.379Z"/><path class="b" d="M42.548,100.926H41.49v-2.1h1.058v.211H41.7v.649h.748V99.9H41.7v.819h.844Z"/><path class="b" d="M44.466,100.926h-.272l-.5-.914H43.36v.914h-.214v-2.1h.593a.683.683,0,0,1,.475.148.57.57,0,0,1,.165.446.53.53,0,0,1-.455.58ZM43.36,99.8h.379a.419.419,0,0,0,.324-.111.383.383,0,0,0,.1-.271.377.377,0,0,0-.1-.282.45.45,0,0,0-.324-.1H43.36Z"/><path class="b" d="M45.345,100.926H44.8v-.212h.165v-1.68H44.8v-.211h.543v.211H45.18v1.68h.165Z"/><path class="b" d="M46.584,98.823a.585.585,0,0,1,.461.28,1.576,1.576,0,0,1,.01,1.551.68.68,0,0,1-1.1-.02,1.325,1.325,0,0,1-.194-.749,1.289,1.289,0,0,1,.209-.776.591.591,0,0,1,.48-.286Zm-.068.222a.468.468,0,0,0-.383.219,1.032,1.032,0,0,0-.161.621,1.064,1.064,0,0,0,.146.611.461.461,0,0,0,.4.207.452.452,0,0,0,.373-.2,1.026,1.026,0,0,0,.151-.622,1.079,1.079,0,0,0-.151-.621A.443.443,0,0,0,46.516,99.045Z"/><path class="b" d="M47.813,98.823H48.3a.724.724,0,0,1,.606.265,1.272,1.272,0,0,1,.219.775,1.34,1.34,0,0,1-.2.776.71.71,0,0,1-.626.287h-.486Zm.214,1.891H48.3a.515.515,0,0,0,.456-.234,1.093,1.093,0,0,0,.155-.617,1.012,1.012,0,0,0-.16-.61.529.529,0,0,0-.451-.219h-.272Z"/><path class="b" d="M51.455,98.823a.585.585,0,0,1,.461.28,1.293,1.293,0,0,1,.209.782,1.274,1.274,0,0,1-.2.769.679.679,0,0,1-1.1-.02,1.325,1.325,0,0,1-.194-.749,1.289,1.289,0,0,1,.209-.776.591.591,0,0,1,.48-.286Zm-.068.222a.468.468,0,0,0-.383.219,1.032,1.032,0,0,0-.161.621,1.064,1.064,0,0,0,.146.611.461.461,0,0,0,.4.207.452.452,0,0,0,.373-.2,1.026,1.026,0,0,0,.151-.622,1.079,1.079,0,0,0-.151-.621A.443.443,0,0,0,51.387,99.045Z"/><path class="b" d="M52.684,100.926v-2.1H53.7v.211H52.9v.649h.708V99.9H52.9v1.031Z"/><path class="b" d="M56.646,98.823l-.582,2.1h-.281l-.583-2.1h.243l.476,1.816.5-1.816Z"/><path class="b" d="M57.021,100.926l.6-2.1h.242l.593,2.1h-.253l-.193-.744h-.557l-.2.744Zm.718-1.8-.227.838h.445Z"/><path class="b" d="M59.987,100.926H58.949v-2.1h.213v1.891h.825Z"/><path class="b" d="M60.934,100.926h-.543v-.212h.165v-1.68h-.165v-.211h.543v.211h-.165v1.68h.165Z"/><path class="b" d="M61.4,98.823h.486a.724.724,0,0,1,.606.265,1.272,1.272,0,0,1,.219.775,1.34,1.34,0,0,1-.2.776.71.71,0,0,1-.626.287H61.4Zm.214,1.891h.272a.515.515,0,0,0,.456-.234,1.093,1.093,0,0,0,.155-.617,1.012,1.012,0,0,0-.16-.61.529.529,0,0,0-.451-.219H61.61Z"/><path class="b" d="M63.654,100.926H63.11v-.212h.165v-1.68H63.11v-.211h.544v.211h-.165v1.68h.165Z"/><path class="b" d="M65.32,99.034h-.544v1.892h-.213V99.034h-.544v-.211h1.3Z"/><path class="b" d="M67.053,98.823l-.563,1.232v.871h-.213v-.871l-.554-1.232h.243l.417.945.428-.945Z"/><path class="b" d="M69.327,98.823a.585.585,0,0,1,.461.28,1.293,1.293,0,0,1,.209.782,1.274,1.274,0,0,1-.2.769.679.679,0,0,1-1.1-.02,1.325,1.325,0,0,1-.194-.749,1.3,1.3,0,0,1,.208-.776.592.592,0,0,1,.481-.286Zm-.068.222a.47.47,0,0,0-.384.219,1.032,1.032,0,0,0-.16.621,1.056,1.056,0,0,0,.146.611.461.461,0,0,0,.4.207.452.452,0,0,0,.373-.2,1.026,1.026,0,0,0,.151-.622,1.079,1.079,0,0,0-.151-.621A.443.443,0,0,0,69.259,99.045Z"/><path class="b" d="M70.555,100.926v-2.1h1.02v.211h-.806v.649h.708V99.9h-.708v1.031Z"/><path class="b" d="M74.381,99.034h-.543v1.892h-.213V99.034h-.544v-.211h1.3Z"/><path class="b" d="M76.135,100.926h-.214V99.9h-.815v1.031h-.214v-2.1h.214v.86h.815v-.86h.214Z"/><path class="b" d="M77.13,100.926h-.543v-.212h.165v-1.68h-.165v-.211h.543v.211h-.165v1.68h.165Z"/><path class="b" d="M78.554,99.471a.986.986,0,0,0-.058-.234.3.3,0,0,0-.131-.149.387.387,0,0,0-.2-.054.492.492,0,0,0-.223.043.266.266,0,0,0-.111.112.378.378,0,0,0-.034.164.222.222,0,0,0,.063.161.535.535,0,0,0,.136.1,1.6,1.6,0,0,0,.16.069l.136.053a1.093,1.093,0,0,1,.238.138.748.748,0,0,1,.189.213.606.606,0,0,1-.009.61.45.45,0,0,1-.21.181.9.9,0,0,1-.325.048.993.993,0,0,1-.291-.048.493.493,0,0,1-.252-.175.761.761,0,0,1-.116-.4h.213a.437.437,0,0,0,.082.271.362.362,0,0,0,.17.106.726.726,0,0,0,.194.027.734.734,0,0,0,.214-.027.259.259,0,0,0,.141-.106.332.332,0,0,0,.053-.186.382.382,0,0,0-.053-.2.446.446,0,0,0-.131-.144.713.713,0,0,0-.165-.084l-.136-.054a1.777,1.777,0,0,1-.228-.1.6.6,0,0,1-.2-.175.451.451,0,0,1-.087-.277.585.585,0,0,1,.073-.3.417.417,0,0,1,.2-.175.66.66,0,0,1,.262-.053h.1a.492.492,0,0,1,.256.073.638.638,0,0,1,.2.2.749.749,0,0,1,.093.372Z"/><path class="b" d="M81.7,100.161a1.01,1.01,0,0,1-.2.579.615.615,0,0,1-.485.186.594.594,0,0,1-.539-.287,1.5,1.5,0,0,1-.179-.8,1.318,1.318,0,0,1,.184-.743.567.567,0,0,1,.5-.276h.087a.6.6,0,0,1,.432.174.789.789,0,0,1,.209.517l-.223.02a.639.639,0,0,0-.17-.388.45.45,0,0,0-.3-.1.412.412,0,0,0-.374.224,1.122,1.122,0,0,0-.131.573,1.285,1.285,0,0,0,.131.627.44.44,0,0,0,.709.1.762.762,0,0,0,.131-.426Z"/><path class="b" d="M82.133,100.926l.6-2.1h.243l.592,2.1h-.253l-.192-.744h-.557l-.2.744Zm.719-1.8-.227.838h.445Z"/><path class="b" d="M85.381,100.926h-.272l-.5-.914h-.335v.914h-.213v-2.1h.593a.683.683,0,0,1,.475.148.57.57,0,0,1,.165.446.53.53,0,0,1-.455.58ZM84.274,99.8h.38a.421.421,0,0,0,.324-.111.387.387,0,0,0,.1-.271.381.381,0,0,0-.1-.282.452.452,0,0,0-.324-.1h-.38Z"/><path class="b" d="M85.863,98.823h.485a.723.723,0,0,1,.606.265,1.272,1.272,0,0,1,.219.775,1.34,1.34,0,0,1-.2.776.709.709,0,0,1-.626.287h-.485Zm.213,1.891h.272a.515.515,0,0,0,.456-.234,1.093,1.093,0,0,0,.155-.617,1.02,1.02,0,0,0-.159-.61.531.531,0,0,0-.452-.219h-.272Z"/><path class="b" d="M5.727,45.067l.658-2.1h.266l.648,2.1H7.023l-.211-.744H6.2l-.219.744Zm.786-1.8-.248.839h.486Z"/><path class="b" d="M7.564,42.964H8.1a.826.826,0,0,1,.664.265A1.2,1.2,0,0,1,9,44a1.25,1.25,0,0,1-.218.776.8.8,0,0,1-.685.287H7.564Zm.234,1.89h.3a.578.578,0,0,0,.5-.233A1.02,1.02,0,0,0,8.764,44a.953.953,0,0,0-.174-.61.6.6,0,0,0-.495-.219H7.8Z"/><path class="b" d="M9.328,42.964h.531a.829.829,0,0,1,.664.265,1.2,1.2,0,0,1,.239.775,1.256,1.256,0,0,1-.218.776.806.806,0,0,1-.685.287H9.328Zm.233,1.89h.3a.58.58,0,0,0,.5-.233,1.027,1.027,0,0,0,.17-.617.947.947,0,0,0-.175-.61.6.6,0,0,0-.494-.219h-.3Z"/><path class="b" d="M12.536,45.067h-.3l-.548-.914h-.365v.914h-.234v-2.1h.648a.8.8,0,0,1,.521.148.634.634,0,0,1,0,.887.65.65,0,0,1-.317.138Zm-1.211-1.126h.414a.488.488,0,0,0,.356-.112.37.37,0,0,0,.111-.271.364.364,0,0,0-.111-.282.522.522,0,0,0-.356-.1h-.414Z"/><path class="b" d="M13.949,45.067H12.791v-2.1h1.158v.211h-.924v.649h.818v.212h-.818v.818h.924Z"/><path class="b" d="M15.383,43.611a.918.918,0,0,0-.064-.233.308.308,0,0,0-.143-.149.454.454,0,0,0-.218-.054.561.561,0,0,0-.244.043.272.272,0,0,0-.122.111.348.348,0,0,0-.038.166.209.209,0,0,0,.069.159.622.622,0,0,0,.149.1,1.825,1.825,0,0,0,.175.069l.149.053a1.255,1.255,0,0,1,.261.138.835.835,0,0,1,.207.212.531.531,0,0,1,.085.3.524.524,0,0,1-.1.313.482.482,0,0,1-.229.181,1.069,1.069,0,0,1-.355.048,1.171,1.171,0,0,1-.319-.048.541.541,0,0,1-.277-.175.722.722,0,0,1-.127-.4h.234a.41.41,0,0,0,.09.271.388.388,0,0,0,.186.106.858.858,0,0,0,.213.027.872.872,0,0,0,.233-.027.28.28,0,0,0,.155-.106.314.314,0,0,0,.058-.186.359.359,0,0,0-.058-.2.46.46,0,0,0-.144-.144.855.855,0,0,0-.181-.085l-.148-.053a2.074,2.074,0,0,1-.25-.1.632.632,0,0,1-.218-.175.426.426,0,0,1-.1-.276.548.548,0,0,1,.079-.3.441.441,0,0,1,.218-.174.781.781,0,0,1,.287-.053h.106a.569.569,0,0,1,.281.073.676.676,0,0,1,.223.2.692.692,0,0,1,.1.371Z"/><path class="b" d="M17.019,43.611a.92.92,0,0,0-.063-.233.31.31,0,0,0-.144-.149.453.453,0,0,0-.217-.054.566.566,0,0,0-.245.043.283.283,0,0,0-.122.111.348.348,0,0,0-.037.166.209.209,0,0,0,.069.159.6.6,0,0,0,.148.1,1.749,1.749,0,0,0,.176.069l.149.053a1.223,1.223,0,0,1,.26.138.8.8,0,0,1,.207.212.524.524,0,0,1,.085.3.517.517,0,0,1-.1.313.475.475,0,0,1-.228.181,1.08,1.08,0,0,1-.356.048,1.182,1.182,0,0,1-.319-.048.542.542,0,0,1-.276-.175.714.714,0,0,1-.127-.4h.233a.41.41,0,0,0,.091.271.389.389,0,0,0,.185.106.933.933,0,0,0,.446,0,.273.273,0,0,0,.155-.106.307.307,0,0,0,.058-.186.351.351,0,0,0-.058-.2.45.45,0,0,0-.144-.144.825.825,0,0,0-.18-.085l-.149-.053a2.142,2.142,0,0,1-.25-.1.629.629,0,0,1-.217-.175.422.422,0,0,1-.1-.276.548.548,0,0,1,.08-.3.439.439,0,0,1,.217-.174.786.786,0,0,1,.288-.053h.106a.572.572,0,0,1,.281.073.614.614,0,0,1,.324.574Z"/><path class="b" d="M7.081,26.4v-.635h.268V26.4H8.388v.245H7.349v.635h.9v.244h-.9v.794h1.21v.244H5.872v-.244H7.081V27.52H6.165v-.244h.916v-.635H6.472a2.573,2.573,0,0,1-.368.622l-.244-.2A2.411,2.411,0,0,0,6.4,25.981l.269.037a3.538,3.538,0,0,1-.1.378Z"/><path class="b" d="M9.658,25.761l.281.073c-.029.094-.062.184-.1.269h1.685v.244h-.892v.489h.745v.232h-.745v.525h1.051v.232H10.635v.781h-.269v-.781H9v-.232h.513v-.525H9.377v-.232h.989v-.489H9.727a1.886,1.886,0,0,1-.68.733l-.171-.256A1.708,1.708,0,0,0,9.658,25.761Zm.708,1.832v-.525H9.78v.525Z"/><path class="b" d="M12.333,28.619l-.22-.2a2.307,2.307,0,0,0,.476-1.612v-.965h1.784v2.407c0,.235-.107.353-.318.353h-.44l-.036-.243h.415c.073,0,.11-.041.11-.123v-.647H12.793A2.066,2.066,0,0,1,12.333,28.619Zm.494-1.258H14.1v-.537H12.858A4.529,4.529,0,0,1,12.827,27.361Zm.031-1.283v.513H14.1v-.513Z"/><path class="b" d="M15.741,28.423V28.6h-.269V25.956h2.247V28.6h-.281v-.172Zm1.7-1.331v-.9h-1.7v.9Zm0,1.1v-.854h-1.7v.854Z"/><path class="b" d="M6.421,38.042l.294.036a4.011,4.011,0,0,1-.294.943v1.854H6.153V39.486a2.622,2.622,0,0,1-.183.229l-.208-.171A2.633,2.633,0,0,0,6.421,38.042Zm.99,1.515v-.685H6.629v-.244H8.51v.244H7.679v.685h.758V39.8H7.679v.758h.929V40.8h-2.1v-.244h.9V39.8H6.653v-.243Zm-.294-1.3.111-.22a3.416,3.416,0,0,1,.793.268l-.134.269A3.066,3.066,0,0,0,7.117,38.262Z"/><path class="b" d="M9.145,40.9l-.269-.172a2.113,2.113,0,0,0,.354-1.233V38.127h2.345v.807h-.891v.317h1v.244h-1v.378h.782v.941H9.951v.073H9.683V39.873h.732v-.378H9.5A2.582,2.582,0,0,1,9.145,40.9ZM9.5,38.7h1.807v-.342H9.5Zm0,.233v.317h.915v-.317Zm1.7,1.648V40.1H9.951v.477Z"/><path class="b" d="M12.137,40.582l-.073-.293a3.316,3.316,0,0,0,.4-.114V38.982h-.342V38.75h.342v-.623h.269v.623h.342v.232h-.342v1.092c.111-.044.225-.095.342-.151v.293A3.231,3.231,0,0,1,12.137,40.582Zm1.136-2.345h.269v.771l.342-.143v-.823h.268v.713l.66-.274V39.69c0,.228-.093.342-.281.342h-.3l-.025-.243h.269c.049,0,.073-.034.073-.1V38.9l-.391.163v1.23h-.268V39.17l-.342.141v1.271a.043.043,0,0,0,.049.049h.879c.049,0,.084-.035.1-.1a1.458,1.458,0,0,0,.031-.36l.281.1a1.314,1.314,0,0,1-.086.434.3.3,0,0,1-.305.177h-.916c-.2,0-.306-.1-.306-.293V39.423l-.293.121-.085-.269.378-.156Z"/><path class="b" d="M5.872,49.262V49.03h.821a3.04,3.04,0,0,0,.144-.5l.269.049a4.114,4.114,0,0,1-.129.453H8.559v.232H6.884a3.172,3.172,0,0,1-.4.67v1.43H6.214V50.23a3.063,3.063,0,0,1-.293.252l-.2-.232a2.715,2.715,0,0,0,.489-.431V49.6h.171a2.708,2.708,0,0,0,.206-.341Zm1.588.818v-.623h.269v.623h.732v.232H7.729v.769H8.62v.232H6.58v-.232h.88v-.769H6.751V50.08Z"/><path class="b" d="M9.121,48.736l.268.049a1.716,1.716,0,0,0,.758-.268l.159.243a2.166,2.166,0,0,1-.917.27v.578a2.3,2.3,0,0,0,.587-.227,2.746,2.746,0,0,0-.2-.266l.208-.159a2.242,2.242,0,0,1,.427.586l-.268.147c-.013-.029-.027-.057-.042-.086a3.2,3.2,0,0,1-.856.326l-.006,0,0,0-.01,0,0-.011-.107-.074Zm.293,2.5v.122H9.145v-1.3h2.394v1.3H11.27V51.24Zm.793-.928H9.414v.22h.793Zm-.793.464V51h.793v-.22Zm.61-.99a.9.9,0,0,0,.733-.915h-.415v-.245h1.344v.464a1.106,1.106,0,0,1-.141.642.453.453,0,0,1-.385.189H10.9l-.061-.257h.281a.235.235,0,0,0,.2-.116.951.951,0,0,0,.092-.458v-.219h-.379a1.146,1.146,0,0,1-.891,1.16Zm1.246.746v-.22h-.794v.22Zm0,.464v-.22h-.794V51Z"/><path class="b" d="M12.822,49.383a1.758,1.758,0,0,1-.685.452L12,49.53a1.762,1.762,0,0,0,.66-.366Zm-.257.33h.26l-.077-.146a1.187,1.187,0,0,0,.94-.513h.294a1.731,1.731,0,0,1-.118.186,2.857,2.857,0,0,0,.985.437l-.135.256a3.109,3.109,0,0,1-.354-.113V51h-.216a3.975,3.975,0,0,1,.68.1l-.122.268a8.517,8.517,0,0,0-1.014-.208L13.75,51h-.635l.085.146a2.611,2.611,0,0,1-.977.22l-.11-.281A4.649,4.649,0,0,0,12.9,51h-.33ZM12.309,48.5a2.253,2.253,0,0,1,.464.354l-.172.208a2.482,2.482,0,0,0-.439-.306Zm2.393.5a1.1,1.1,0,0,1-.22.44l-.256-.1a.948.948,0,0,0,.183-.317H13.332a1.315,1.315,0,0,1-.327.39l-.208-.207a1.29,1.29,0,0,0,.464-.7l.244.073a2.088,2.088,0,0,1-.066.207H14.7Zm-1.869,1.062h1.259v-.146H12.833Zm0,.367h1.259v-.147H12.833Zm0,.354h1.259v-.134H12.833Zm1.29-1.075a2.827,2.827,0,0,1-.435-.273,1.388,1.388,0,0,1-.417.273Z"/><path class="b" d="M15.874,49.542a1.529,1.529,0,0,1,.44.379l-.219.207a1.34,1.34,0,0,0-.221-.28v1.514h-.268V50.1a1.533,1.533,0,0,1-.207.55l-.257-.159a2.542,2.542,0,0,0,.427-1.16H15.2V49.09h.4v-.562h.268v.562h.38v.245h-.38Zm.868-1.014.268.062c-.023.079-.05.157-.08.232h.789v.208a2.487,2.487,0,0,1-.423.673,2.478,2.478,0,0,0,.777.425L17.9,50.4c-.067-.026-.132-.053-.2-.083v.914h-.928v.134H16.51V50.306c-.071.036-.144.071-.22.1l-.159-.281a3.022,3.022,0,0,0,.754-.429,2.488,2.488,0,0,1-.256-.347,2.225,2.225,0,0,1-.315.337l-.208-.208A1.89,1.89,0,0,0,16.742,48.528Zm.011,1.637h.681a2.487,2.487,0,0,1-.343-.256A2.652,2.652,0,0,1,16.753,50.165Zm.685.244h-.66V51h.66Zm-.024-1.355H16.82c-.011.022-.023.043-.035.065a2.442,2.442,0,0,0,.306.393A1.741,1.741,0,0,0,17.414,49.054Z"/><path class="b" d="M24.134,46.975v3.679H20.417V46.975Z"/><path class="b" d="M29.117,46.975v3.679H25.4V46.975Z"/><path class="b" d="M5.635,65.836v-.231H6.45a2.953,2.953,0,0,0,.143-.5l.268.049a4.025,4.025,0,0,1-.129.448H8.3v.231H6.64a3.108,3.108,0,0,1-.4.666v1.42H5.975V66.8a3.2,3.2,0,0,1-.292.25l-.194-.23a2.8,2.8,0,0,0,.486-.43v-.213h.169a2.488,2.488,0,0,0,.2-.34Zm1.577.813V66.03h.267v.619h.727v.23H7.479v.764h.885v.231H6.339v-.231h.873v-.764h-.7v-.23Z"/><path class="b" d="M8.862,65.314l.266.049a1.716,1.716,0,0,0,.753-.267l.157.242a2.131,2.131,0,0,1-.91.267v.575a2.287,2.287,0,0,0,.584-.225,3.042,3.042,0,0,0-.2-.265l.206-.157a2.2,2.2,0,0,1,.424.582l-.266.146c-.013-.029-.027-.057-.042-.085a3.2,3.2,0,0,1-.85.322l-.006,0,0,0-.009,0,0-.01-.106-.075ZM9.153,67.8v.121H8.886V66.636h2.377v1.286H11V67.8Zm.788-.922H9.153V67.1h.788Zm-.788.461v.218h.788V67.34Zm.606-.983a.9.9,0,0,0,.728-.909h-.412v-.243h1.334v.461a1.091,1.091,0,0,1-.14.637.45.45,0,0,1-.381.188h-.255l-.061-.255h.279a.233.233,0,0,0,.2-.115.942.942,0,0,0,.091-.455v-.218h-.376A1.139,1.139,0,0,1,9.881,66.6ZM11,67.1v-.219h-.789V67.1Zm0,.46V67.34h-.789v.218Z"/><path class="b" d="M12.355,67.183l.218.181a3.1,3.1,0,0,1-.57.57l-.218-.242A1.622,1.622,0,0,0,12.355,67.183Zm-.558-.025v-.23h.3v-1.2h-.255V65.5H12.1v-.388h.267V65.5h.5v-.388h.266V65.5H13.4v.231h-.267v1.2h.291v.23H11.8Zm.57-1.189h.5v-.242h-.5Zm0,.473h.5V66.2h-.5Zm0,.486h.5v-.255h-.5Zm.692.849a1.772,1.772,0,0,0-.377-.437l.183-.182a3.408,3.408,0,0,1,.424.4Zm.436-2.584h1.019v2.438a.257.257,0,0,1-.291.291h-.267l-.036-.242H14.2a.043.043,0,0,0,.049-.049v-.716h-.486a1.427,1.427,0,0,1-.376,1.019l-.242-.194a1.131,1.131,0,0,0,.351-.849Zm.753.74v-.522h-.486v.522Zm-.486.219v.533h.486v-.533Z"/><path class="b" d="M15.218,66.248v1.674h-.267V65.193H16.14v1.055Zm0-.63h.655v-.207h-.655Zm0,.412h.655v-.206h-.655Zm.692,1.577V67.8h-.279V66.479h1.31V67.7h-.279v-.1Zm.752-.668V66.71H15.91v.229Zm0,.449v-.23H15.91v.23Zm.692-1.14h-.923V65.193H17.62v2.438c0,.194-.089.291-.266.291h-.316l-.024-.242h.266c.049,0,.074-.02.074-.061Zm-.656-.63h.656v-.207H16.7Zm0,.412h.656v-.206H16.7Z"/><path class="b" d="M5.6,79.506v-.231H6.715v.231Zm1.759-.679a3.441,3.441,0,0,1-.1.376h.944v.23H7.7v.692h.692v.23H7.7v1.237H7.43V80.355h-.7v-.23h.7v-.692H7.175a2.1,2.1,0,0,1-.339.546l-.206-.174v.137H5.683v-.23H6.63v.047a1.819,1.819,0,0,0,.46-.981ZM5.683,80.38v-.231H6.63v.231Zm.267,1.055v.157H5.683v-.983H6.63v.826ZM5.793,79l.133-.218a1.6,1.6,0,0,1,.595.267l-.182.23A1.415,1.415,0,0,0,5.793,79ZM5.95,81.2h.413v-.376H5.95Z"/><path class="b" d="M11.093,79.251V81.3a.257.257,0,0,1-.29.291h-.486l-.036-.242h.5a.043.043,0,0,0,.048-.049v-2.05H8.74v-.243h2.669v.243Zm-1.965.34h1.287v1.237H9.4v.206H9.128Zm.267.242v.752h.752v-.752Z"/><path class="b" d="M13.265,79.118a1.485,1.485,0,0,1,.588.121,1.059,1.059,0,0,1,.455.358,1.006,1.006,0,0,1,.17.6,1.289,1.289,0,0,1-.127.589,1.128,1.128,0,0,1-.4.424,1.987,1.987,0,0,1-.752.261l-.121-.267a2.171,2.171,0,0,0,.691-.2.789.789,0,0,0,.334-.328,1.03,1.03,0,0,0,.1-.479.813.813,0,0,0-.121-.436.753.753,0,0,0-.334-.292,1.131,1.131,0,0,0-.429-.095,6.862,6.862,0,0,1-.087.829,1.711,1.711,0,0,1-.309.728.664.664,0,0,1-.528.321.455.455,0,0,1-.394-.194.767.767,0,0,1-.139-.46,1.752,1.752,0,0,1,.151-.716,1.317,1.317,0,0,1,.455-.552A1.343,1.343,0,0,1,13.265,79.118Zm-.607.418a1.055,1.055,0,0,0-.388.449,1.429,1.429,0,0,0-.133.613.505.505,0,0,0,.072.273.223.223,0,0,0,.194.115q.171,0,.34-.261a1.7,1.7,0,0,0,.237-.606,5.987,5.987,0,0,0,.079-.732A1.029,1.029,0,0,0,12.658,79.536Z"/><path class="b" d="M15.655,79.773v.182a1.943,1.943,0,0,1,.34.5l-.207.194c-.064-.161-.109-.271-.133-.327v1.286H15.4V80.391a1.771,1.771,0,0,1-.376.643l-.194-.194a2.792,2.792,0,0,0,.558-1.067h-.424v-.206H15.4v-.474a1.513,1.513,0,0,1-.3.025l-.061-.219a3.685,3.685,0,0,0,.837-.133l.1.23c-.129.033-.234.057-.315.073v.5H16v.206Zm1.25-.012h.606v.994h-.606V80.9h.606v.218h-.606V81.3h.776v.231h-1.82V81.3h.776v-.182h-.57V80.9h.57v-.146h-.594v-.994h.594v-.219h-.679v-.218h.679v-.232q-.294.014-.594.014l-.061-.243a11.958,11.958,0,0,0,1.444-.085l.085.243c-.2.023-.4.042-.606.056v.247h.715v.218h-.715Zm-.268.218H16.31v.17h.327Zm-.327.376v.182h.327v-.182Zm.922-.206v-.17h-.327v.17Zm0,.388v-.182h-.327v.182Z"/><path class="b" d="M18.518,79.87a1.508,1.508,0,0,1-.413.4l-.206-.254a1.273,1.273,0,0,0,.473-.377h-.364v-.23H18.2a1.579,1.579,0,0,0-.194-.449l.255-.133a1.48,1.48,0,0,1,.206.546l-.121.036h.17v-.631h.255v.631h.133l-.1-.049a2.179,2.179,0,0,0,.219-.533l.267.109a1.687,1.687,0,0,1-.194.473h.218v.23h-.545v.024a1.571,1.571,0,0,1,.582.316l-.207.242a1.79,1.79,0,0,0-.375-.3v.34h-.125l.209.037a2.654,2.654,0,0,1-.06.266h.509v.231h-.437a2.493,2.493,0,0,1,.449.436l-.266.219a2.632,2.632,0,0,0-.391-.5,1.8,1.8,0,0,1-.5.66l-.23-.219a1.559,1.559,0,0,0,.483-.594H18v-.231h.511a2.031,2.031,0,0,0,.069-.3h-.058Zm.958,1.092v-1.6h.352l.06-.267h-.522v-.23h1.42v.23h-.619l-.072.267h.57v1.6h-.331a2.338,2.338,0,0,1,.537.424l-.218.219a2.2,2.2,0,0,0-.5-.486l.146-.157h-.437l.17.181a1.383,1.383,0,0,1-.655.449l-.158-.242a1.383,1.383,0,0,0,.62-.388Zm.922-1.14v-.243h-.655v.243Zm0,.46V80.04h-.655v.242Zm0,.461V80.5h-.655v.243Z"/><path class="b" d="M5.6,85.634V85.4H6.715v.23Zm1.759-.679a3.384,3.384,0,0,1-.1.376h.944v.23H7.7v.692h.692v.23H7.7V87.72H7.43V86.483h-.7v-.23h.7v-.692H7.175a2.1,2.1,0,0,1-.339.546l-.206-.174v.138H5.683V85.84H6.63v.047a1.819,1.819,0,0,0,.46-.98ZM5.683,86.508v-.231H6.63v.231Zm.267,1.055v.157H5.683v-.982H6.63v.825Zm-.157-2.438.133-.218a1.585,1.585,0,0,1,.595.266l-.182.231A1.4,1.4,0,0,0,5.793,85.125Zm.157,2.207h.413v-.375H5.95Z"/><path class="b" d="M11.093,85.38v2.05a.256.256,0,0,1-.29.29h-.486l-.036-.242h.5a.043.043,0,0,0,.048-.048V85.38H8.74v-.244h2.669v.244Zm-1.965.339h1.287v1.238H9.4v.205H9.128Zm.267.243v.752h.752v-.752Z"/><path class="b" d="M12.5,84.907l.279.072c-.029.093-.061.182-.1.267h1.674v.243h-.886v.485h.74v.23h-.74v.522h1.043v.231H13.471v.776H13.2v-.776H11.845v-.231h.51V86.2h-.133v-.23H13.2v-.485h-.635a1.871,1.871,0,0,1-.675.727l-.169-.254A1.7,1.7,0,0,0,12.5,84.907Zm.7,1.819V86.2h-.582v.522Z"/><path class="b" d="M15.158,87.745l-.218-.194a2.3,2.3,0,0,0,.473-1.6v-.959h1.771v2.39c0,.234-.106.352-.316.352h-.437L16.4,87.49h.412c.073,0,.109-.04.109-.121v-.643h-1.3A2.06,2.06,0,0,1,15.158,87.745Zm.491-1.25h1.267v-.533H15.679A4.456,4.456,0,0,1,15.649,86.5Zm.03-1.274v.51h1.237v-.51Z"/><path class="b" d="M18.542,87.551v.169h-.267V85.1h2.232V87.72h-.279v-.169Zm1.686-1.322v-.9H18.542v.9Zm0,1.092v-.85H18.542v.85Z"/><path class="b" d="M27.684,79.081v2.293H25.367V79.081Z"/><path class="b" d="M30.79,79.081v2.293H28.472V79.081Z"/><path class="b" d="M33.9,79.081v2.293H31.577V79.081Z"/><path class="b" d="M37,79.081v2.293H34.683V79.081Z"/><path class="b" d="M40.106,79.081v2.293H37.789V79.081Z"/><path class="b" d="M43.211,79.081v2.293H40.894V79.081Z"/><path class="b" d="M46.317,79.081v2.293H44V79.081Z"/><path class="b" d="M49.422,79.081v2.293H47.105V79.081Z"/><path class="b" d="M52.528,79.081v2.293H50.21V79.081Z"/><path class="b" d="M55.633,79.081v2.293H53.315V79.081Z"/><path class="b" d="M58.738,79.081v2.293H56.421V79.081Z"/><path class="b" d="M61.844,79.081v2.293H59.527V79.081Z"/><path class="b" d="M64.949,79.081v2.293H62.632V79.081Z"/><path class="b" d="M68.054,79.081v2.293H65.737V79.081Z"/><path class="b" d="M71.16,79.081v2.293H68.843V79.081Z"/><path class="b" d="M74.265,79.081v2.293H71.948V79.081Z"/><path class="b" d="M23.248,67.983l-.194.121a2.472,2.472,0,0,1,0-3.069l.194.122a2.4,2.4,0,0,0-.449,1.407A2.354,2.354,0,0,0,23.248,67.983Z"/><path class="b" d="M23.49,65.957l.194-.182a2.137,2.137,0,0,1,.449.5l-.218.17A1.891,1.891,0,0,0,23.49,65.957Zm.025,1.82a3.153,3.153,0,0,0,.449-1.117l.218.134a3.509,3.509,0,0,1-.413,1.14Zm.048-2.5.194-.182a4.8,4.8,0,0,1,.449.461l-.194.17A2.357,2.357,0,0,0,23.563,65.278Zm.728.9v-.219h.425v-.3H24.23v-.218h.486v-.328h.266v.328h.51v-.328h.266v.328h.51v.218h-.51v.3h.462v.219h-.85v.29h.8v1.153q0,.3-.279.3h-.254L25.6,67.68h.255c.032,0,.048-.02.048-.061V66.7H25.37V67.3h.159v-.509H25.8v.837h-.266v-.1h-.837v-.74h.266V67.3h.158V66.7h-.534v1.225h-.267V66.466h.8v-.29Zm1.2-.219v-.3h-.51v.3Z"/><path class="b" d="M28.125,66.346v1.225q0,.291-.255.291h-.327l-.037-.243h.316q.036,0,.036-.048V66.139l.145.013a2.44,2.44,0,0,0,.765-.656H26.863v-.23h2.244v.218A3.247,3.247,0,0,1,28.125,66.346Z"/><path class="b" d="M30.247,67.752v.17H29.98V65.3h2.233v2.62h-.279v-.17Zm1.687-1.321v-.9H30.247v.9Zm0,1.091v-.849H30.247v.849Z"/><path class="b" d="M32.928,65.035a2.287,2.287,0,0,1,.558,1.529,2.241,2.241,0,0,1-.558,1.54l-.194-.121a2.312,2.312,0,0,0,.461-1.419,2.362,2.362,0,0,0-.461-1.407Z"/><path class="b" d="M21.927,39.485v3.3H18.592v-3.3Z"/><path class="b" d="M26.4,39.485v3.3H23.063v-3.3Z"/><path class="b" d="M30.868,39.485v3.3H27.533v-3.3Z"/><path class="b" d="M35.339,39.485v3.3H32v-3.3Z"/><path class="b" d="M39.808,39.485v3.3H36.473v-3.3Z"/><path class="b" d="M44.279,39.485v3.3H40.943v-3.3Z"/><path class="b" d="M48.749,39.485v3.3H45.414v-3.3Z"/><path class="b" d="M53.219,39.485v3.3H49.884v-3.3Z"/><path class="b" d="M54.809,42.785c-.222,0-.419-.145-.594-.437a2.633,2.633,0,0,1-.262-1.327,2.385,2.385,0,0,1,.271-1.275.74.74,0,0,1,.585-.419h.209a.74.74,0,0,1,.585.419,2.428,2.428,0,0,1,.271,1.293,2.588,2.588,0,0,1-.262,1.309c-.175.292-.373.437-.594.437Zm.1-.384c.175,0,.318-.116.428-.35a2.276,2.276,0,0,0,.149-1.012,2.509,2.509,0,0,0-.158-.987c-.1-.239-.244-.357-.419-.357s-.314.118-.418.357a2.452,2.452,0,0,0-.158.969A2.6,2.6,0,0,0,54.5,42.06C54.6,42.288,54.739,42.4,54.913,42.4Z"/><path class="b" d="M57.044,42.785c-.222,0-.419-.145-.594-.437a2.645,2.645,0,0,1-.261-1.327,2.386,2.386,0,0,1,.27-1.275.74.74,0,0,1,.585-.419h.209a.74.74,0,0,1,.585.419,2.428,2.428,0,0,1,.271,1.293,2.588,2.588,0,0,1-.262,1.309.727.727,0,0,1-.594.437Zm.1-.384c.175,0,.318-.116.429-.35a2.292,2.292,0,0,0,.148-1.012,2.511,2.511,0,0,0-.157-.987c-.1-.239-.245-.357-.42-.357s-.314.118-.418.357a2.454,2.454,0,0,0-.157.969,2.6,2.6,0,0,0,.157,1.039C56.834,42.288,56.974,42.4,57.148,42.4Z"/><path class="b" d="M83.6,25.744v2.661H80.914V25.744Z"/><path class="b" d="M87.207,25.744v2.661H84.518V25.744Z"/><path class="b" d="M90.812,25.744v2.661h-2.69V25.744Z"/><path class="b" d="M94.415,25.744v2.661H91.726V25.744Z"/><path class="b" d="M98.019,25.744v2.661H95.33V25.744Z"/><path class="b" d="M101.624,25.744v2.661h-2.69V25.744Z"/><path class="b" d="M105.227,25.744v2.661h-2.689V25.744Z"/><path class="b" d="M108.831,25.744v2.661h-2.689V25.744Z"/><path class="b" d="M22.073,28.666a.766.766,0,0,1-.625-.459,2.777,2.777,0,0,1-.276-1.4,2.513,2.513,0,0,1,.285-1.342.777.777,0,0,1,.616-.441h.22a.779.779,0,0,1,.616.441,2.556,2.556,0,0,1,.285,1.36,2.729,2.729,0,0,1-.276,1.379.767.767,0,0,1-.625.459Zm.11-.4q.276,0,.45-.369a2.393,2.393,0,0,0,.156-1.066,2.647,2.647,0,0,0-.165-1.038c-.11-.252-.257-.377-.441-.377s-.331.125-.441.377a2.57,2.57,0,0,0-.166,1.02,2.721,2.721,0,0,0,.166,1.093Q21.907,28.263,22.183,28.263Z"/><path class="b" d="M25.461,28.666a.767.767,0,0,1-.625-.459,2.777,2.777,0,0,1-.276-1.4,2.513,2.513,0,0,1,.285-1.342.78.78,0,0,1,.616-.441h.22a.779.779,0,0,1,.616.441,2.556,2.556,0,0,1,.285,1.36,2.741,2.741,0,0,1-.275,1.379c-.185.306-.392.459-.626.459Zm.11-.4q.276,0,.451-.369a2.422,2.422,0,0,0,.156-1.066,2.665,2.665,0,0,0-.165-1.038c-.111-.252-.258-.377-.442-.377s-.33.125-.441.377a2.588,2.588,0,0,0-.166,1.02A2.739,2.739,0,0,0,25.13,27.9Q25.3,28.263,25.571,28.263Z"/><path class="b" d="M28.849,28.666a.767.767,0,0,1-.625-.459,2.789,2.789,0,0,1-.275-1.4,2.514,2.514,0,0,1,.284-1.342.78.78,0,0,1,.616-.441h.22a.777.777,0,0,1,.616.441,2.555,2.555,0,0,1,.286,1.36,2.729,2.729,0,0,1-.276,1.379.767.767,0,0,1-.626.459Zm.111-.4q.274,0,.45-.369a2.408,2.408,0,0,0,.156-1.066A2.647,2.647,0,0,0,29.4,25.79c-.111-.252-.258-.377-.441-.377s-.331.125-.442.377a2.59,2.59,0,0,0-.165,1.02,2.742,2.742,0,0,0,.165,1.093Q28.685,28.263,28.96,28.263Z"/><path class="b" d="M32.237,28.666a.767.767,0,0,1-.625-.459,2.777,2.777,0,0,1-.276-1.4,2.513,2.513,0,0,1,.285-1.342.78.78,0,0,1,.616-.441h.22a.779.779,0,0,1,.616.441,2.556,2.556,0,0,1,.285,1.36,2.741,2.741,0,0,1-.275,1.379c-.185.306-.393.459-.626.459Zm.11-.4q.276,0,.451-.369a2.422,2.422,0,0,0,.156-1.066,2.665,2.665,0,0,0-.165-1.038c-.111-.252-.258-.377-.442-.377s-.33.125-.441.377a2.588,2.588,0,0,0-.166,1.02,2.739,2.739,0,0,0,.166,1.093Q32.073,28.263,32.347,28.263Z"/><path class="b" d="M35.883,24.733l.422.11c-.043.141-.092.276-.145.405H38.7v.367H37.353v.736h1.121V26.7H37.353v.791h1.581v.348H37.353v1.177h-.4V27.839H34.89v-.348h.772V26.7h-.2v-.349h1.49v-.736h-.963a2.844,2.844,0,0,1-1.022,1.1l-.258-.386A2.57,2.57,0,0,0,35.883,24.733Zm1.066,2.758V26.7h-.883v.791Z"/><path class="b" d="M41.366,28.666a.767.767,0,0,1-.625-.459,2.778,2.778,0,0,1-.275-1.4,2.514,2.514,0,0,1,.284-1.342.78.78,0,0,1,.616-.441h.22a.779.779,0,0,1,.616.441,2.556,2.556,0,0,1,.285,1.36,2.73,2.73,0,0,1-.275,1.379.767.767,0,0,1-.626.459Zm.111-.4q.274,0,.45-.369a2.422,2.422,0,0,0,.156-1.066,2.647,2.647,0,0,0-.165-1.038c-.111-.252-.258-.377-.441-.377s-.331.125-.442.377a2.59,2.59,0,0,0-.165,1.02,2.742,2.742,0,0,0,.165,1.093Q41.2,28.263,41.477,28.263Z"/><path class="b" d="M44.754,28.666a.766.766,0,0,1-.624-.459,2.777,2.777,0,0,1-.276-1.4,2.524,2.524,0,0,1,.284-1.342.78.78,0,0,1,.616-.441h.221a.779.779,0,0,1,.616.441,2.556,2.556,0,0,1,.285,1.36,2.729,2.729,0,0,1-.276,1.379.767.767,0,0,1-.625.459Zm.111-.4c.184,0,.333-.123.45-.369a2.393,2.393,0,0,0,.156-1.066,2.647,2.647,0,0,0-.165-1.038c-.11-.252-.257-.377-.441-.377s-.331.125-.441.377a2.57,2.57,0,0,0-.166,1.02,2.721,2.721,0,0,0,.166,1.093Q44.589,28.263,44.865,28.263Z"/><path class="b" d="M47.72,29.035l-.331-.3a3.479,3.479,0,0,0,.717-2.426V24.862h2.683v3.621c0,.355-.158.533-.477.533H49.65l-.055-.367h.625c.11,0,.166-.062.166-.185v-.973H48.413A3.119,3.119,0,0,1,47.72,29.035Zm.745-1.894h1.921v-.809H48.51A7.317,7.317,0,0,1,48.465,27.141Zm.045-1.93v.772h1.876v-.772Z"/><path class="b" d="M53.884,28.666a.766.766,0,0,1-.625-.459,2.777,2.777,0,0,1-.276-1.4,2.513,2.513,0,0,1,.285-1.342.779.779,0,0,1,.616-.441h.22a.779.779,0,0,1,.616.441,2.556,2.556,0,0,1,.285,1.36,2.741,2.741,0,0,1-.275,1.379c-.185.306-.393.459-.626.459Zm.11-.4q.276,0,.45-.369a2.393,2.393,0,0,0,.156-1.066,2.647,2.647,0,0,0-.165-1.038c-.11-.252-.257-.377-.441-.377s-.331.125-.441.377a2.57,2.57,0,0,0-.166,1.02,2.721,2.721,0,0,0,.166,1.093Q53.718,28.263,53.994,28.263Z"/><path class="b" d="M57.272,28.666a.767.767,0,0,1-.625-.459,2.778,2.778,0,0,1-.275-1.4,2.514,2.514,0,0,1,.284-1.342.78.78,0,0,1,.616-.441h.22a.779.779,0,0,1,.616.441,2.556,2.556,0,0,1,.285,1.36,2.73,2.73,0,0,1-.275,1.379.767.767,0,0,1-.626.459Zm.11-.4q.276,0,.451-.369a2.422,2.422,0,0,0,.156-1.066,2.647,2.647,0,0,0-.165-1.038c-.111-.252-.258-.377-.442-.377s-.33.125-.441.377a2.59,2.59,0,0,0-.165,1.02,2.742,2.742,0,0,0,.165,1.093Q57.108,28.263,57.382,28.263Z"/><path class="b" d="M60.66,28.74V29h-.4v-3.97h3.383V29h-.423V28.74Zm2.555-2v-1.36H60.66v1.36Zm0,1.655V27.1H60.66v1.287Z"/><path class="b" d="M69.527,27.2v.625a1.753,1.753,0,0,1-.185.873.61.61,0,0,1-.57.322h-.606l-.055-.367h.625a.313.313,0,0,0,.284-.212,1.463,1.463,0,0,0,.1-.616v-.276H67.717a2.151,2.151,0,0,1-1.885,1.471l-.184-.4a1.838,1.838,0,0,0,1.613-1.066H65.832V27.2h1.557a3.014,3.014,0,0,0,.1-.478l.4.037a3.827,3.827,0,0,1-.073.441ZM66,26.718V24.862h3.364v1.856H66Zm1.489-1.507H66.4v.4h1.085Zm-1.085.754v.4h1.085v-.4Zm2.555-.35v-.4H67.89v.4Zm0,.754v-.4H67.89v.4Z"/><path class="b" d="M74.219,28.666h-.4V25.634l-.809,1.783h-.441l-.754-1.8v3.051h-.4V25.027h.551l.828,1.875.864-1.875h.569Z"/><path class="b" d="M39.043,71.562a.766.766,0,0,1-.625-.459,2.777,2.777,0,0,1-.276-1.4,2.513,2.513,0,0,1,.285-1.342.777.777,0,0,1,.616-.441h.22a.779.779,0,0,1,.616.441,2.556,2.556,0,0,1,.285,1.36,2.732,2.732,0,0,1-.276,1.379.767.767,0,0,1-.625.459Zm.11-.4c.184,0,.334-.122.45-.368a2.393,2.393,0,0,0,.156-1.066,2.647,2.647,0,0,0-.165-1.038c-.11-.252-.257-.377-.441-.377s-.331.125-.441.377a2.57,2.57,0,0,0-.166,1.02,2.724,2.724,0,0,0,.166,1.093C38.822,71.039,38.969,71.158,39.153,71.158Z"/><path class="b" d="M42.121,71.562A.767.767,0,0,1,41.5,71.1a2.777,2.777,0,0,1-.276-1.4,2.513,2.513,0,0,1,.285-1.342.78.78,0,0,1,.616-.441h.22a.779.779,0,0,1,.616.441,2.556,2.556,0,0,1,.285,1.36,2.743,2.743,0,0,1-.275,1.379c-.185.306-.393.459-.626.459Zm.11-.4c.184,0,.334-.122.451-.368a2.422,2.422,0,0,0,.156-1.066,2.665,2.665,0,0,0-.165-1.038c-.111-.252-.258-.377-.442-.377s-.33.125-.441.377a2.588,2.588,0,0,0-.166,1.02A2.742,2.742,0,0,0,41.79,70.8C41.9,71.039,42.048,71.158,42.231,71.158Z"/><path class="b" d="M45.413,67.629l.423.11c-.044.141-.093.276-.146.405h2.536v.367H46.883v.735h1.122v.35H46.883v.79h1.582v.349H46.883v1.177h-.4V70.735H44.42v-.349h.772V69.6h-.2v-.35h1.489v-.735h-.963a2.837,2.837,0,0,1-1.022,1.1l-.257-.386A2.575,2.575,0,0,0,45.413,67.629Zm1.066,2.757V69.6H45.6v.79Z"/><path class="b" d="M50.452,71.562a.767.767,0,0,1-.625-.459,2.777,2.777,0,0,1-.276-1.4,2.513,2.513,0,0,1,.285-1.342.78.78,0,0,1,.616-.441h.22a.779.779,0,0,1,.616.441,2.556,2.556,0,0,1,.285,1.36A2.743,2.743,0,0,1,51.3,71.1c-.185.306-.393.459-.626.459Zm.11-.4c.184,0,.334-.122.451-.368a2.422,2.422,0,0,0,.156-1.066A2.665,2.665,0,0,0,51,68.686c-.111-.252-.258-.377-.442-.377s-.33.125-.441.377a2.588,2.588,0,0,0-.166,1.02,2.742,2.742,0,0,0,.166,1.093C50.232,71.039,50.379,71.158,50.562,71.158Z"/><path class="b" d="M53.529,71.562a.766.766,0,0,1-.624-.459,2.777,2.777,0,0,1-.276-1.4,2.513,2.513,0,0,1,.285-1.342.777.777,0,0,1,.615-.441h.221a.779.779,0,0,1,.616.441,2.556,2.556,0,0,1,.285,1.36,2.732,2.732,0,0,1-.276,1.379.767.767,0,0,1-.625.459Zm.111-.4c.184,0,.333-.122.45-.368a2.393,2.393,0,0,0,.156-1.066,2.647,2.647,0,0,0-.165-1.038c-.11-.252-.257-.377-.441-.377s-.331.125-.441.377a2.57,2.57,0,0,0-.166,1.02A2.724,2.724,0,0,0,53.2,70.8C53.309,71.039,53.456,71.158,53.64,71.158Z"/><path class="b" d="M55.89,71.93l-.331-.294a3.479,3.479,0,0,0,.717-2.426V67.758h2.683v3.621q0,.532-.478.533H57.82l-.056-.368h.625c.111,0,.166-.061.166-.184v-.974H56.582A3.11,3.11,0,0,1,55.89,71.93Zm.744-1.893h1.921v-.809H56.68A7.073,7.073,0,0,1,56.634,70.037Zm.046-1.93v.772h1.875v-.772Z"/><path class="b" d="M81.527,31.643h.827v.845h-.827Z"/><path class="b" d="M83.879,31.643h.828v.845h-.828Z"/><path class="b" d="M86.233,31.643h.827v.845h-.827Z"/><path class="b" d="M88.585,31.643h.828v.845h-.828Z"/><path class="b" d="M90.939,31.643h.827v.845h-.827Z"/><path class="b" d="M93.291,31.643h.827v.845h-.827Z"/><path class="b" d="M95.644,31.643h.828v.845h-.828Z"/><path class="b" d="M98,31.643h.827v.845H98Z"/><path class="b" d="M100.35,31.643h.827v.845h-.827Z"/><path class="b" d="M102.7,31.643h.827v.845H102.7Z"/><path class="b" d="M105.056,31.643h.827v.845h-.827Z"/><path class="b" d="M107.409,31.643h.827v.845h-.827Z"/><path class="b" d="M5.821,54.269h.828v.845H5.821Z"/><path class="b" d="M8.174,54.269H9v.845H8.174Z"/><path class="b" d="M10.527,54.269h.827v.845h-.827Z"/><path class="b" d="M12.88,54.269h.827v.845H12.88Z"/><path class="b" d="M16.666,54.269h.828v.845h-.828Z"/><path class="b" d="M19.02,54.269h.827v.845H19.02Z"/><path class="b" d="M21.372,54.269H22.2v.845h-.828Z"/><path class="b" d="M23.726,54.269h.827v.845h-.827Z"/><path class="b" d="M26.078,54.269h.827v.845h-.827Z"/><path class="b" d="M6.057,70.768h.828v.845H6.057Z"/><path class="b" d="M8.41,70.768h.827v.845H8.41Z"/><path class="b" d="M10.763,70.768h.828v.845h-.828Z"/><path class="b" d="M13.116,70.768h.827v.845h-.827Z"/><path class="b" d="M16.9,70.768h.827v.845H16.9Z"/><path class="b" d="M19.256,70.768h.827v.845h-.827Z"/><path class="b" d="M21.608,70.768h.828v.845h-.828Z"/><path class="b" d="M23.962,70.768h.827v.845h-.827Z"/><path class="b" d="M26.314,70.768h.828v.845h-.828Z"/><path class="b" d="M6.057,74.233h.828v.845H6.057Z"/><path class="b" d="M8.41,74.233h.827v.845H8.41Z"/><path class="b" d="M10.763,74.233h.828v.845h-.828Z"/><path class="b" d="M13.116,74.233h.827v.845h-.827Z"/><path class="b" d="M15.469,74.233H16.3v.845h-.827Z"/><path class="b" d="M17.822,74.233h.827v.845h-.827Z"/><path class="b" d="M20.175,74.233H21v.845h-.827Z"/><path class="b" d="M22.528,74.233h.827v.845h-.827Z"/><path class="b" d="M24.881,74.233h.827v.845h-.827Z"/><path class="b" d="M27.233,74.233h.828v.845h-.828Z"/><path class="b" d="M29.587,74.233h.827v.845h-.827Z"/><path class="b" d="M31.939,74.233h.827v.845h-.827Z"/><path class="b" d="M34.292,74.233h.828v.845h-.828Z"/><path class="b" d="M16.64,57.145h.827v.845H16.64Z"/><path class="b" d="M18.992,57.145h.827v.845h-.827Z"/><path class="b" d="M21.345,57.145h.828v.845h-.828Z"/><path class="b" d="M23.7,57.145h.827v.845H23.7Z"/><path class="b" d="M26.051,57.145h.827v.845h-.827Z"/><path class="b" d="M64.972,72.185l-.294.183a3.745,3.745,0,0,1,0-4.65l.294.183a3.643,3.643,0,0,0-.68,2.133A3.569,3.569,0,0,0,64.972,72.185Z"/><path class="b" d="M74.632,71.723a.767.767,0,0,1-.625-.459,2.789,2.789,0,0,1-.275-1.4,2.512,2.512,0,0,1,.284-1.342.78.78,0,0,1,.616-.441h.22a.779.779,0,0,1,.616.441,2.555,2.555,0,0,1,.286,1.36,2.732,2.732,0,0,1-.276,1.379.767.767,0,0,1-.626.459Zm.111-.4q.275,0,.45-.368a2.408,2.408,0,0,0,.156-1.066,2.647,2.647,0,0,0-.165-1.038c-.111-.252-.258-.377-.441-.377s-.331.125-.442.377a2.59,2.59,0,0,0-.165,1.02A2.745,2.745,0,0,0,74.3,70.96C74.412,71.2,74.559,71.319,74.743,71.319Z"/><path class="b" d="M77.456,71.723a.766.766,0,0,1-.625-.459,2.777,2.777,0,0,1-.276-1.4,2.511,2.511,0,0,1,.285-1.342.779.779,0,0,1,.616-.441h.22a.779.779,0,0,1,.616.441,2.556,2.556,0,0,1,.285,1.36,2.743,2.743,0,0,1-.275,1.379c-.185.306-.393.459-.626.459Zm.11-.4q.276,0,.45-.368a2.393,2.393,0,0,0,.156-1.066,2.647,2.647,0,0,0-.165-1.038c-.11-.252-.257-.377-.441-.377s-.331.125-.441.377a2.57,2.57,0,0,0-.166,1.02,2.724,2.724,0,0,0,.166,1.093C77.235,71.2,77.382,71.319,77.566,71.319Z"/><path class="b" d="M80.279,71.723a.767.767,0,0,1-.625-.459,2.789,2.789,0,0,1-.275-1.4,2.512,2.512,0,0,1,.284-1.342.78.78,0,0,1,.616-.441h.22a.779.779,0,0,1,.616.441,2.555,2.555,0,0,1,.286,1.36,2.732,2.732,0,0,1-.276,1.379.767.767,0,0,1-.626.459Zm.111-.4q.274,0,.45-.368A2.408,2.408,0,0,0,81,69.885a2.647,2.647,0,0,0-.165-1.038c-.111-.252-.258-.377-.441-.377s-.331.125-.442.377a2.59,2.59,0,0,0-.165,1.02,2.745,2.745,0,0,0,.165,1.093C80.059,71.2,80.206,71.319,80.39,71.319Z"/><path class="b" d="M83.1,71.723a.766.766,0,0,1-.625-.459,2.777,2.777,0,0,1-.276-1.4,2.511,2.511,0,0,1,.285-1.342.779.779,0,0,1,.616-.441h.22a.779.779,0,0,1,.616.441,2.556,2.556,0,0,1,.285,1.36,2.743,2.743,0,0,1-.275,1.379c-.185.306-.393.459-.626.459Zm.11-.4q.276,0,.45-.368a2.393,2.393,0,0,0,.156-1.066,2.647,2.647,0,0,0-.165-1.038c-.11-.252-.257-.377-.441-.377s-.331.125-.441.377a2.57,2.57,0,0,0-.166,1.02,2.724,2.724,0,0,0,.166,1.093C82.882,71.2,83.029,71.319,83.213,71.319Z"/><path class="b" d="M86.184,67.789l.422.111c-.043.141-.092.275-.145.405H89v.367H87.654v.735h1.121v.35H87.654v.79h1.581V70.9H87.654v1.177h-.4V70.9H85.191v-.349h.772v-.79h-.2v-.35h1.49v-.735h-.963a2.844,2.844,0,0,1-1.022,1.1l-.258-.386A2.572,2.572,0,0,0,86.184,67.789Zm1.066,2.758v-.79h-.883v.79Z"/><path class="b" d="M91.1,71.723a.768.768,0,0,1-.625-.459,2.789,2.789,0,0,1-.275-1.4,2.512,2.512,0,0,1,.284-1.342.78.78,0,0,1,.616-.441h.221a.777.777,0,0,1,.615.441,2.555,2.555,0,0,1,.286,1.36,2.732,2.732,0,0,1-.276,1.379.767.767,0,0,1-.625.459Zm.111-.4q.275,0,.45-.368a2.408,2.408,0,0,0,.156-1.066,2.647,2.647,0,0,0-.165-1.038c-.111-.252-.258-.377-.441-.377s-.331.125-.442.377a2.59,2.59,0,0,0-.165,1.02,2.745,2.745,0,0,0,.165,1.093C90.882,71.2,91.029,71.319,91.213,71.319Z"/><path class="b" d="M93.926,71.723a.766.766,0,0,1-.625-.459,2.777,2.777,0,0,1-.276-1.4,2.511,2.511,0,0,1,.285-1.342.779.779,0,0,1,.616-.441h.22a.779.779,0,0,1,.616.441,2.556,2.556,0,0,1,.285,1.36,2.743,2.743,0,0,1-.275,1.379c-.185.306-.393.459-.626.459Zm.11-.4q.276,0,.45-.368a2.393,2.393,0,0,0,.156-1.066,2.647,2.647,0,0,0-.165-1.038c-.11-.252-.257-.377-.441-.377s-.331.125-.441.377a2.57,2.57,0,0,0-.166,1.02A2.724,2.724,0,0,0,93.6,70.96C93.705,71.2,93.853,71.319,94.036,71.319Z"/><path class="b" d="M96.327,72.091,96,71.8a3.48,3.48,0,0,0,.717-2.426V67.919H99.4V71.54q0,.532-.478.533h-.661l-.056-.368h.625c.111,0,.166-.061.166-.184v-.974H97.019A3.11,3.11,0,0,1,96.327,72.091Zm.744-1.893h1.921v-.809H97.117A7.073,7.073,0,0,1,97.071,70.2Zm.046-1.93v.772h1.875v-.772Z"/><path class="b" d="M101.926,71.723a.767.767,0,0,1-.625-.459,2.778,2.778,0,0,1-.275-1.4,2.512,2.512,0,0,1,.284-1.342.78.78,0,0,1,.616-.441h.22a.779.779,0,0,1,.616.441,2.556,2.556,0,0,1,.285,1.36,2.733,2.733,0,0,1-.275,1.379.767.767,0,0,1-.626.459Zm.11-.4q.276,0,.451-.368a2.422,2.422,0,0,0,.156-1.066,2.647,2.647,0,0,0-.165-1.038c-.111-.252-.258-.377-.442-.377s-.33.125-.441.377a2.59,2.59,0,0,0-.165,1.02,2.745,2.745,0,0,0,.165,1.093C101.706,71.2,101.853,71.319,102.036,71.319Z"/><path class="b" d="M104.749,71.723a.766.766,0,0,1-.624-.459,2.777,2.777,0,0,1-.276-1.4,2.511,2.511,0,0,1,.285-1.342.777.777,0,0,1,.615-.441h.221a.779.779,0,0,1,.616.441,2.556,2.556,0,0,1,.285,1.36,2.732,2.732,0,0,1-.276,1.379.767.767,0,0,1-.625.459Zm.111-.4c.184,0,.333-.123.45-.368a2.393,2.393,0,0,0,.156-1.066,2.647,2.647,0,0,0-.165-1.038c-.11-.252-.257-.377-.441-.377s-.331.125-.441.377a2.57,2.57,0,0,0-.166,1.02,2.724,2.724,0,0,0,.166,1.093C104.529,71.2,104.676,71.319,104.86,71.319Z"/><path class="b" d="M107.573,71.8v.257h-.4v-3.97h3.383v3.97h-.423V71.8Zm2.555-2v-1.36h-2.555v1.36Zm0,1.655V70.161h-2.555v1.287Z"/><path class="b" d="M112.106,67.68A3.457,3.457,0,0,1,112.951,70a3.4,3.4,0,0,1-.845,2.334l-.295-.183a3.507,3.507,0,0,0,.7-2.151,3.58,3.58,0,0,0-.7-2.133Z"/><path class="b" d="M24.752,87.891q-.3,0-.538-.4a2.391,2.391,0,0,1-.238-1.2,2.167,2.167,0,0,1,.245-1.155.671.671,0,0,1,.531-.38h.19a.671.671,0,0,1,.53.38,2.2,2.2,0,0,1,.245,1.17,2.342,2.342,0,0,1-.238,1.187q-.237.4-.537.4Zm.094-.348q.238,0,.388-.317a2.089,2.089,0,0,0,.135-.918,2.27,2.27,0,0,0-.143-.893c-.095-.216-.221-.325-.38-.325s-.284.109-.379.325a2.222,2.222,0,0,0-.143.878,2.356,2.356,0,0,0,.143.941Q24.61,87.543,24.846,87.543Z"/><path class="b" d="M27.182,87.891q-.3,0-.538-.4a2.392,2.392,0,0,1-.237-1.2,2.167,2.167,0,0,1,.245-1.155.669.669,0,0,1,.53-.38h.19a.668.668,0,0,1,.53.38,2.2,2.2,0,0,1,.246,1.17A2.353,2.353,0,0,1,27.91,87.5a.661.661,0,0,1-.538.4Zm.1-.348q.238,0,.388-.317a2.089,2.089,0,0,0,.135-.918,2.27,2.27,0,0,0-.143-.893c-.095-.216-.221-.325-.38-.325s-.285.109-.379.325a2.222,2.222,0,0,0-.143.878,2.356,2.356,0,0,0,.143.941C26.992,87.44,27.119,87.543,27.277,87.543Z"/><path class="b" d="M29.612,87.891a.661.661,0,0,1-.538-.4,2.392,2.392,0,0,1-.237-1.2,2.167,2.167,0,0,1,.245-1.155.669.669,0,0,1,.53-.38h.19a.668.668,0,0,1,.53.38,2.2,2.2,0,0,1,.246,1.17A2.353,2.353,0,0,1,30.34,87.5a.661.661,0,0,1-.538.4Zm.1-.348q.238,0,.388-.317a2.089,2.089,0,0,0,.135-.918,2.27,2.27,0,0,0-.143-.893c-.095-.216-.221-.325-.38-.325s-.285.109-.379.325a2.2,2.2,0,0,0-.143.878,2.338,2.338,0,0,0,.143.941C29.422,87.44,29.549,87.543,29.707,87.543Z"/><path class="b" d="M32.043,87.891a.661.661,0,0,1-.538-.4,2.391,2.391,0,0,1-.238-1.2,2.176,2.176,0,0,1,.245-1.155.671.671,0,0,1,.531-.38h.19a.669.669,0,0,1,.53.38,2.2,2.2,0,0,1,.245,1.17,2.354,2.354,0,0,1-.237,1.187q-.239.4-.538.4Zm.094-.348q.239,0,.388-.317a2.074,2.074,0,0,0,.135-.918,2.27,2.27,0,0,0-.143-.893c-.094-.216-.221-.325-.38-.325s-.284.109-.379.325a2.222,2.222,0,0,0-.143.878,2.356,2.356,0,0,0,.143.941Q31.9,87.543,32.137,87.543Z"/><path class="b" d="M34.694,84.505l.364.095c-.038.121-.079.237-.125.348h2.182v.316H35.96V85.9h.965v.3H35.96v.68h1.36v.3H35.96v1.012h-.348V87.179H33.84v-.3H34.5V86.2H34.33v-.3h1.282v-.633h-.829a2.447,2.447,0,0,1-.88.95l-.222-.332A2.214,2.214,0,0,0,34.694,84.505Zm.918,2.373V86.2h-.76v.68Z"/><path class="b" d="M38.929,87.891q-.3,0-.538-.4a2.391,2.391,0,0,1-.238-1.2,2.167,2.167,0,0,1,.245-1.155.671.671,0,0,1,.531-.38h.189a.671.671,0,0,1,.531.38,2.2,2.2,0,0,1,.245,1.17,2.342,2.342,0,0,1-.238,1.187q-.237.4-.538.4Zm.094-.348q.238,0,.388-.317a2.089,2.089,0,0,0,.135-.918,2.27,2.27,0,0,0-.143-.893c-.095-.216-.221-.325-.38-.325s-.284.109-.379.325a2.222,2.222,0,0,0-.143.878,2.356,2.356,0,0,0,.143.941Q38.787,87.543,39.023,87.543Z"/><path class="b" d="M41.358,87.891q-.3,0-.537-.4a2.38,2.38,0,0,1-.238-1.2,2.167,2.167,0,0,1,.245-1.155.671.671,0,0,1,.53-.38h.19a.671.671,0,0,1,.531.38,2.2,2.2,0,0,1,.245,1.17,2.353,2.353,0,0,1-.238,1.187q-.237.4-.538.4Zm.1-.348q.239,0,.388-.317a2.089,2.089,0,0,0,.135-.918,2.27,2.27,0,0,0-.143-.893c-.095-.216-.221-.325-.38-.325s-.284.109-.379.325a2.222,2.222,0,0,0-.143.878,2.356,2.356,0,0,0,.143.941Q41.217,87.543,41.453,87.543Z"/><path class="b" d="M43.425,88.207l-.284-.253a3,3,0,0,0,.616-2.088v-1.25h2.311v3.117c0,.306-.138.458-.412.458h-.569l-.048-.316h.538c.095,0,.142-.052.142-.158v-.839h-1.7A2.675,2.675,0,0,1,43.425,88.207Zm.641-1.629h1.653v-.7H44.105A5.86,5.86,0,0,1,44.066,86.578Zm.039-1.662v.664h1.614v-.664Z"/><path class="b" d="M48.244,87.891a.661.661,0,0,1-.538-.4,2.392,2.392,0,0,1-.237-1.2,2.167,2.167,0,0,1,.245-1.155.669.669,0,0,1,.53-.38h.19a.668.668,0,0,1,.53.38,2.2,2.2,0,0,1,.246,1.17,2.353,2.353,0,0,1-.238,1.187.661.661,0,0,1-.538.4Zm.095-.348q.239,0,.388-.317a2.089,2.089,0,0,0,.135-.918,2.27,2.27,0,0,0-.143-.893c-.095-.216-.221-.325-.38-.325s-.285.109-.379.325a2.2,2.2,0,0,0-.143.878,2.338,2.338,0,0,0,.143.941C48.054,87.44,48.181,87.543,48.339,87.543Z"/><path class="b" d="M50.675,87.891a.661.661,0,0,1-.538-.4,2.391,2.391,0,0,1-.238-1.2,2.166,2.166,0,0,1,.246-1.155.668.668,0,0,1,.53-.38h.19a.669.669,0,0,1,.53.38,2.2,2.2,0,0,1,.245,1.17A2.354,2.354,0,0,1,51.4,87.5a.661.661,0,0,1-.538.4Zm.094-.348c.159,0,.288-.106.389-.317a2.076,2.076,0,0,0,.134-.918,2.252,2.252,0,0,0-.143-.893c-.094-.216-.221-.325-.38-.325s-.284.109-.379.325a2.222,2.222,0,0,0-.143.878,2.356,2.356,0,0,0,.143.941Q50.533,87.543,50.769,87.543Z"/><path class="b" d="M53.105,87.954v.221h-.348V84.758h2.911v3.417H55.3v-.221Zm2.2-1.724V85.058h-2.2V86.23Zm0,1.423V86.546h-2.2v1.107Z"/><path class="b" d="M64.359,85.719l.243.132a1.946,1.946,0,0,1-.928.74l-.111-.221A1.33,1.33,0,0,0,64.359,85.719Zm1.756,1.657-.1.265a2.335,2.335,0,0,1-1.166-.472,2.366,2.366,0,0,1-1.22.472l-.045-.232a2.027,2.027,0,0,0,1.08-.4,2.718,2.718,0,0,1-.483-.636l.21-.121a2.353,2.353,0,0,0,.451.6,2.238,2.238,0,0,0,.422-.611l.243.121a2.537,2.537,0,0,1-.475.649A1.994,1.994,0,0,0,66.115,87.376ZM63.63,85.663v-.221h1.093v-.364h.243v.364H66.06v.221Zm1.6.033a3.441,3.441,0,0,1,.894.7l-.2.187a3.07,3.07,0,0,0-.84-.707Z"/><path class="b" d="M67.021,85.078l.265.044a3.428,3.428,0,0,1-.254.77v1.749h-.243V86.3a2.207,2.207,0,0,1-.254.29l-.177-.165A2.215,2.215,0,0,0,67.021,85.078Zm.1.707h1.127v-.707h.243v.707h.42v.221h-.42v1.37c0,.177-.085.265-.254.265h-.365l-.055-.221H68.2c.03,0,.045-.014.045-.044v-1.37H67.121Zm.21.6.188-.143a2.3,2.3,0,0,1,.419.674l-.254.121A1.839,1.839,0,0,0,67.331,86.381Z"/><path class="b" d="M69.883,85.078l.254.066a2.394,2.394,0,0,1-.088.243h1.524v.221h-.806v.442h.674v.21h-.674v.475h.95v.21h-.95v.707h-.243v-.707H69.286v-.21h.464V86.26h-.121v-.21h.895v-.442h-.579a1.709,1.709,0,0,1-.615.663l-.154-.232A1.544,1.544,0,0,0,69.883,85.078Zm.641,1.657V86.26h-.531v.475Z"/><path class="b" d="M72.3,87.663l-.2-.177a2.091,2.091,0,0,0,.43-1.458v-.873h1.613v2.177q0,.32-.287.32h-.4l-.033-.221h.376c.066,0,.1-.037.1-.11v-.586H72.719A1.874,1.874,0,0,1,72.3,87.663Zm.448-1.138H73.9v-.486H72.777A4.114,4.114,0,0,1,72.75,86.525Zm.027-1.16v.464H73.9v-.464Z"/><path class="b" d="M75.385,87.486v.155h-.243V85.255h2.033v2.386h-.254v-.155Zm1.536-1.2v-.818H75.385v.818Zm0,.994V86.5H75.385v.773Z"/><path class="b" d="M78.49,87.891a.661.661,0,0,1-.538-.4,2.392,2.392,0,0,1-.237-1.2,2.167,2.167,0,0,1,.245-1.155.668.668,0,0,1,.53-.38h.19a.668.668,0,0,1,.53.38,2.2,2.2,0,0,1,.245,1.17,2.354,2.354,0,0,1-.237,1.187.661.661,0,0,1-.538.4Zm.095-.348c.158,0,.288-.106.388-.317a2.076,2.076,0,0,0,.134-.918,2.252,2.252,0,0,0-.143-.893c-.094-.216-.221-.325-.379-.325s-.285.109-.379.325a2.2,2.2,0,0,0-.143.878,2.338,2.338,0,0,0,.143.941C78.3,87.44,78.427,87.543,78.585,87.543Z"/><path class="b" d="M80.921,87.891q-.3,0-.538-.4a2.391,2.391,0,0,1-.238-1.2,2.167,2.167,0,0,1,.245-1.155.671.671,0,0,1,.531-.38h.19a.671.671,0,0,1,.53.38,2.2,2.2,0,0,1,.245,1.17,2.342,2.342,0,0,1-.238,1.187q-.237.4-.537.4Zm.094-.348q.239,0,.388-.317a2.089,2.089,0,0,0,.135-.918,2.27,2.27,0,0,0-.143-.893c-.095-.216-.221-.325-.38-.325s-.284.109-.379.325a2.222,2.222,0,0,0-.143.878,2.356,2.356,0,0,0,.143.941Q80.779,87.543,81.015,87.543Z"/><path class="b" d="M83.351,87.891q-.3,0-.538-.4a2.391,2.391,0,0,1-.238-1.2,2.167,2.167,0,0,1,.245-1.155.671.671,0,0,1,.531-.38h.189a.671.671,0,0,1,.531.38,2.2,2.2,0,0,1,.245,1.17,2.353,2.353,0,0,1-.238,1.187q-.237.4-.538.4Zm.094-.348q.239,0,.388-.317a2.089,2.089,0,0,0,.135-.918,2.27,2.27,0,0,0-.143-.893c-.095-.216-.221-.325-.38-.325s-.284.109-.379.325a2.222,2.222,0,0,0-.143.878,2.356,2.356,0,0,0,.143.941Q83.209,87.543,83.445,87.543Z"/><path class="b" d="M85.781,87.891a.661.661,0,0,1-.538-.4,2.392,2.392,0,0,1-.237-1.2,2.167,2.167,0,0,1,.245-1.155.668.668,0,0,1,.53-.38h.19a.668.668,0,0,1,.53.38,2.2,2.2,0,0,1,.245,1.17,2.354,2.354,0,0,1-.237,1.187.661.661,0,0,1-.538.4Zm.095-.348q.238,0,.388-.317a2.076,2.076,0,0,0,.134-.918,2.272,2.272,0,0,0-.142-.893c-.095-.216-.221-.325-.38-.325s-.285.109-.379.325a2.2,2.2,0,0,0-.143.878,2.338,2.338,0,0,0,.143.941C85.591,87.44,85.718,87.543,85.876,87.543Z"/><path class="b" d="M88.433,84.505l.364.095q-.057.182-.126.348h2.183v.316H89.7V85.9h.966v.3H89.7v.68h1.361v.3H89.7v1.012H89.35V87.179H87.578v-.3h.665V86.2h-.174v-.3H89.35v-.633h-.828a2.456,2.456,0,0,1-.881.95l-.221-.332A2.217,2.217,0,0,0,88.433,84.505Zm.917,2.373V86.2h-.759v.68Z"/><path class="b" d="M92.667,87.891a.661.661,0,0,1-.538-.4,2.391,2.391,0,0,1-.238-1.2,2.166,2.166,0,0,1,.246-1.155.668.668,0,0,1,.53-.38h.19a.669.669,0,0,1,.53.38,2.2,2.2,0,0,1,.245,1.17A2.354,2.354,0,0,1,93.4,87.5a.661.661,0,0,1-.538.4Zm.095-.348q.237,0,.388-.317a2.076,2.076,0,0,0,.134-.918,2.252,2.252,0,0,0-.143-.893c-.094-.216-.221-.325-.379-.325s-.285.109-.38.325a2.224,2.224,0,0,0-.142.878,2.358,2.358,0,0,0,.142.941C92.477,87.44,92.6,87.543,92.762,87.543Z"/><path class="b" d="M95.1,87.891a.661.661,0,0,1-.538-.4,2.391,2.391,0,0,1-.238-1.2,2.166,2.166,0,0,1,.246-1.155.668.668,0,0,1,.53-.38h.19a.669.669,0,0,1,.53.38,2.2,2.2,0,0,1,.245,1.17,2.354,2.354,0,0,1-.237,1.187.661.661,0,0,1-.538.4Zm.094-.348c.159,0,.288-.106.389-.317a2.076,2.076,0,0,0,.134-.918,2.252,2.252,0,0,0-.143-.893c-.094-.216-.221-.325-.38-.325s-.284.109-.379.325a2.222,2.222,0,0,0-.143.878,2.356,2.356,0,0,0,.143.941Q94.955,87.543,95.191,87.543Z"/><path class="b" d="M97.164,88.207l-.285-.253a3,3,0,0,0,.617-2.088v-1.25h2.31v3.117c0,.306-.137.458-.411.458h-.57l-.048-.316h.538c.095,0,.142-.052.142-.158v-.839h-1.7A2.665,2.665,0,0,1,97.164,88.207Zm.64-1.629h1.653v-.7H97.844A6.071,6.071,0,0,1,97.8,86.578Zm.04-1.662v.664h1.613v-.664Z"/><path class="b" d="M101.983,87.891q-.3,0-.538-.4a2.391,2.391,0,0,1-.238-1.2,2.167,2.167,0,0,1,.245-1.155.671.671,0,0,1,.531-.38h.19a.671.671,0,0,1,.53.38,2.2,2.2,0,0,1,.245,1.17,2.342,2.342,0,0,1-.238,1.187q-.237.4-.537.4Zm.094-.348q.239,0,.388-.317a2.089,2.089,0,0,0,.135-.918,2.27,2.27,0,0,0-.143-.893c-.095-.216-.221-.325-.38-.325s-.284.109-.379.325a2.222,2.222,0,0,0-.143.878,2.356,2.356,0,0,0,.143.941Q101.841,87.543,102.077,87.543Z"/><path class="b" d="M104.413,87.891a.661.661,0,0,1-.538-.4,2.392,2.392,0,0,1-.237-1.2,2.167,2.167,0,0,1,.245-1.155.669.669,0,0,1,.53-.38h.19a.668.668,0,0,1,.53.38,2.2,2.2,0,0,1,.246,1.17,2.353,2.353,0,0,1-.238,1.187.661.661,0,0,1-.538.4Zm.095-.348q.239,0,.388-.317a2.089,2.089,0,0,0,.135-.918,2.27,2.27,0,0,0-.143-.893c-.095-.216-.221-.325-.38-.325s-.285.109-.379.325a2.2,2.2,0,0,0-.143.878,2.338,2.338,0,0,0,.143.941C104.223,87.44,104.35,87.543,104.508,87.543Z"/><path class="b" d="M106.843,87.954v.221H106.5V84.758h2.911v3.417h-.364v-.221Zm2.2-1.724V85.058h-2.2V86.23Zm0,1.423V86.546h-2.2v1.107Z"/><rect class="c" x="39.854" y="53.854" width="73" height="11"/><path class="b" d="M81.585,57.405v3.678H77.867V57.405Z"/><path class="b" d="M86.568,57.405v3.678H82.85V57.405Z"/><path class="b" d="M91.55,57.405v3.678H87.833V57.405Z"/><path class="b" d="M96.532,57.405v3.678H92.815V57.405Z"/><path class="b" d="M42.114,59.609l.266.073a2.638,2.638,0,0,1-.315.813l-.242-.182A1.983,1.983,0,0,0,42.114,59.609Zm.606-1.492h.571v.23h-1.42v-.23h.583V57.8h.266Zm0,1.383v.813q0,.3-.279.3h-.23l-.025-.243h.194c.049,0,.074-.02.074-.06V59.5h-.413v-.849h1.091V59.5Zm-.412-.218h.558v-.413h-.558Zm.485.412.243-.109q.144.279.242.522l-.266.133A4.319,4.319,0,0,0,42.793,59.694Zm1.092-.655h.17v1.189c0,.065.024.1.072.1h.11c.048,0,.082-.037.1-.109a2.57,2.57,0,0,0,.043-.485l.279.048a2.486,2.486,0,0,1-.054.558.29.29,0,0,1-.322.23h-.218q-.279,0-.279-.339v-.776a2.885,2.885,0,0,1-.425,1.176l-.255-.157a3.58,3.58,0,0,0,.558-1.711h-.424v-.23h.437c.015-.187.024-.429.024-.728h.255c0,.307-.009.55-.025.728H44.6v.23h-.679A2.39,2.39,0,0,1,43.885,59.039Zm.218-1.055.231-.134a2.594,2.594,0,0,1,.266.546l-.242.134Q44.248,58.263,44.1,57.984Z"/><path class="b" d="M45.183,59.209h.943c0-.04,0-.08,0-.121v-.3H46.4v.3c0,.041,0,.081,0,.121h1.035v.606a1.237,1.237,0,0,1-.116.595.413.413,0,0,1-.394.206h-.46l-.061-.243h.485a.218.218,0,0,0,.218-.139,1.112,1.112,0,0,0,.061-.419v-.363h-.792a1.346,1.346,0,0,1-1.258,1.164l-.085-.255a1.1,1.1,0,0,0,1.071-.909h-.913Zm-.146-.121v-.607h1.8a1.75,1.75,0,0,0,.279-.679l.292.072a3.215,3.215,0,0,1-.268.607h.571v.607h-.267v-.364H45.3v.364Zm.34-1.116.206-.122a1.768,1.768,0,0,1,.327.486l-.266.133A1.76,1.76,0,0,0,45.377,57.972Zm.655-.037.206-.121a1.774,1.774,0,0,1,.328.485l-.268.133A1.744,1.744,0,0,0,46.032,57.935Z"/><path class="b" d="M48.822,58.287V57.8h.266v.485h.655v.243h-.655V58.8h.729v.243h-.729v.219h.631v.836c0,.2-.1.3-.291.3H49.2l-.061-.243H49.4c.032,0,.048-.02.048-.061V59.5h-.364v1.116h-.266V59.5h-.364v.922H48.19V59.258h.632v-.219h-.728V58.8h.728V58.53h-.377a1.731,1.731,0,0,1-.157.242l-.231-.146a1.5,1.5,0,0,0,.3-.678l.279.036a2.01,2.01,0,0,1-.086.3ZM49.962,58h.267v1.989h-.267Zm.582-.194h.267v2.5q0,.315-.279.315h-.425l-.061-.243h.425a.064.064,0,0,0,.073-.072Z"/><path class="b" d="M52.182,58.081l-.279.752a1.1,1.1,0,0,1,.316.74q0,.582-.51.582h-.182l-.012-.121v.594h-.267V57.887h.934Zm-.5,1.831q.255,0,.255-.339a1.087,1.087,0,0,0-.328-.716l.267-.752h-.364v1.807Zm.922-.654v1.024a3.722,3.722,0,0,0,.436-.115v.279a2.593,2.593,0,0,1-.654.17l-.042-.25-.007-.005V57.887h1.37v1.371h-.734a2.923,2.923,0,0,0,.21.4,1.544,1.544,0,0,0,.452-.325l.194.243a2.045,2.045,0,0,1-.49.3,2.329,2.329,0,0,0,.6.534l-.206.218a2.636,2.636,0,0,1-1.007-1.261l.219-.109Zm0-.8h.837v-.34h-.837Zm0,.57h.837V58.7h-.837Z"/><path class="b" d="M55.773,58.142a1.5,1.5,0,0,1,.588.12,1.061,1.061,0,0,1,.455.359,1,1,0,0,1,.169.6,1.272,1.272,0,0,1-.127.588,1.121,1.121,0,0,1-.394.425,2.022,2.022,0,0,1-.752.261l-.121-.267a2.194,2.194,0,0,0,.691-.2.793.793,0,0,0,.334-.327,1.042,1.042,0,0,0,.1-.479.8.8,0,0,0-.122-.436.751.751,0,0,0-.333-.292,1.131,1.131,0,0,0-.429-.095,7.119,7.119,0,0,1-.087.829,1.711,1.711,0,0,1-.309.728.664.664,0,0,1-.528.321.455.455,0,0,1-.394-.194.768.768,0,0,1-.14-.461,1.744,1.744,0,0,1,.152-.716,1.314,1.314,0,0,1,.455-.551A1.343,1.343,0,0,1,55.773,58.142Zm-.607.418a1.043,1.043,0,0,0-.388.449,1.424,1.424,0,0,0-.133.612.5.5,0,0,0,.072.273.221.221,0,0,0,.194.115c.113,0,.227-.087.34-.261a1.692,1.692,0,0,0,.237-.606,5.944,5.944,0,0,0,.079-.731A1.014,1.014,0,0,0,55.166,58.56Z"/><path class="b" d="M60.127,58.214v.218H58.581c-.044.114-.092.223-.143.328h1.313V60.3q0,.315-.3.315h-.267l-.036-.23h.267c.048,0,.072-.029.072-.085V60H58.393v.619h-.268V59.268a2.882,2.882,0,0,1-.569.572l-.194-.243a2.773,2.773,0,0,0,.929-1.165h-.833v-.218h.92A4.052,4.052,0,0,0,58.5,57.8l.255.048c-.03.126-.063.247-.1.364Zm-.643,1.055V58.99H58.393v.279Zm0,.51v-.291H58.393v.291Z"/><path class="b" d="M62.845,59.088v.533h.279v.243H62.8a2.326,2.326,0,0,1,.449.582L63,60.628a2.166,2.166,0,0,0-.389-.558l.161-.206H60.662v-.243h.279v-.533h-.377v-.243h.377v-.284a2.13,2.13,0,0,1-.255.2l-.207-.243a1.573,1.573,0,0,0,.667-.728l.268.122c-.036.072-.073.14-.114.206h1.848v.243h-.3v.485h.388v.243Zm-1.893.788L61.2,60a1.168,1.168,0,0,1-.412.631l-.23-.23A.985.985,0,0,0,60.952,59.876Zm.255-1.031h.279V58.36h-.279Zm.292.776v-.533h-.292v.533Zm-.146.425.218-.17a1.99,1.99,0,0,1,.316.606l-.255.146A1.946,1.946,0,0,0,61.353,60.046Zm.4-1.2h.291V58.36h-.291Zm.291.776v-.533h-.291v.533Zm-.036.437.218-.182a2.231,2.231,0,0,1,.328.606l-.255.146A2,2,0,0,0,62.008,60.058Zm.3-1.213h.279V58.36h-.279Zm.279.776v-.533h-.279v.533Z"/><path class="c" d="M1.816,3.854H160.162a1.692,1.692,0,0,1,1.692,1.692v7.308a0,0,0,0,1,0,0H.854a0,0,0,0,1,0,0V4.816A.962.962,0,0,1,1.816,3.854Z"/><rect class="c" x="0.854" y="89.854" width="119" height="8"/><path class="b" d="M6.185,95.563l.205-.183a1.012,1.012,0,0,0,.407.34,1.254,1.254,0,0,0,.5.1A6.089,6.089,0,0,0,8.489,95.7v.255a6.426,6.426,0,0,1-1.189.121,1.5,1.5,0,0,1-.709-.139A1.056,1.056,0,0,1,6.185,95.563Zm2.122-1.444a5.44,5.44,0,0,0-.606.292l-.133-.1a2.32,2.32,0,0,1,.279-.207,5.961,5.961,0,0,0-1.4-.012l-.024-.255a7.275,7.275,0,0,1,1.856.073Z"/><path class="b" d="M10.236,93.731a1.493,1.493,0,0,1,.589.121,1.05,1.05,0,0,1,.454.358,1.007,1.007,0,0,1,.17.6,1.276,1.276,0,0,1-.127.589,1.133,1.133,0,0,1-.394.424,2.028,2.028,0,0,1-.752.261l-.122-.268a2.175,2.175,0,0,0,.691-.2.8.8,0,0,0,.335-.329,1.041,1.041,0,0,0,.1-.478.8.8,0,0,0-.121-.436.747.747,0,0,0-.334-.292,1.126,1.126,0,0,0-.428-.1,7.067,7.067,0,0,1-.087.83,1.73,1.73,0,0,1-.31.728.661.661,0,0,1-.527.321.46.46,0,0,1-.395-.194.773.773,0,0,1-.139-.46,1.738,1.738,0,0,1,.152-.717,1.323,1.323,0,0,1,.455-.552A1.349,1.349,0,0,1,10.236,93.731Zm-.607.419a1.05,1.05,0,0,0-.388.449,1.429,1.429,0,0,0-.133.613.492.492,0,0,0,.073.272.222.222,0,0,0,.194.114c.113,0,.226-.085.339-.259a1.677,1.677,0,0,0,.237-.608,5.9,5.9,0,0,0,.08-.73A1.024,1.024,0,0,0,9.629,94.15Z"/><path class="b" d="M13.8,94.375H13a2.726,2.726,0,0,1-1.064,1.758L11.74,95.9a2.378,2.378,0,0,0,.983-1.527h-.8v-.231h.842a4.426,4.426,0,0,0,.044-.668l.279.012a5.206,5.206,0,0,1-.049.656h.91l.121.12a4.982,4.982,0,0,1-.127,1.123.815.815,0,0,1-.291.479.692.692,0,0,1-.37.122h-.364l-.037-.268h.377a.4.4,0,0,0,.26-.108.723.723,0,0,0,.194-.384A4.7,4.7,0,0,0,13.8,94.375Z"/><path class="b" d="M14.555,94.969v-.243h2.511v.243Z"/><path class="b" d="M19.212,95.137l-.206.256a3.6,3.6,0,0,0-1.164-.764v1.577h-.267V93.488h.267v.887A4.351,4.351,0,0,1,19.212,95.137Zm-.618-1.455a1.95,1.95,0,0,1,.412.352l-.194.182a1.775,1.775,0,0,0-.376-.364Zm.315-.23a2.116,2.116,0,0,1,.437.376l-.194.182a1.691,1.691,0,0,0-.413-.376Z"/><path class="b" d="M20.1,93.464l.267.109a4.056,4.056,0,0,0-.388,1.456,1.192,1.192,0,0,0,.1.546,1.534,1.534,0,0,1,.145-.363l.182.061a2.279,2.279,0,0,0-.145.751l-.243.109a2.3,2.3,0,0,1-.3-1.1A4.926,4.926,0,0,1,20.1,93.464Zm2.16.485.109.267a5.36,5.36,0,0,1-.692.2v.965a2.582,2.582,0,0,1,.764.461l-.194.244a2.886,2.886,0,0,0-.57-.406.488.488,0,0,1-.133.356.58.58,0,0,1-.425.135.648.648,0,0,1-.437-.121.4.4,0,0,1-.133-.3.374.374,0,0,1,.17-.34.923.923,0,0,1,.5-.109,1.161,1.161,0,0,1,.194.015v-.845a5.6,5.6,0,0,1-.886.077v-.266a4.617,4.617,0,0,0,.886-.071v-.73h.267v.672A3.707,3.707,0,0,0,22.258,93.949Zm-1.044,1.6a.693.693,0,0,0-.3.047.161.161,0,0,0-.091.147.133.133,0,0,0,.073.132.489.489,0,0,0,.218.038.309.309,0,0,0,.219-.068.226.226,0,0,0,.072-.175v-.1A.84.84,0,0,0,21.214,95.551Z"/><path class="b" d="M33.732,96.133c-.309,0-.584-.2-.828-.609a3.688,3.688,0,0,1-.365-1.851,3.327,3.327,0,0,1,.377-1.777,1.032,1.032,0,0,1,.816-.584h.292a1.029,1.029,0,0,1,.815.584,3.383,3.383,0,0,1,.378,1.8,3.615,3.615,0,0,1-.365,1.826c-.244.406-.519.609-.828.609Zm.146-.536q.365,0,.6-.486a3.179,3.179,0,0,0,.207-1.413,3.5,3.5,0,0,0-.219-1.376c-.146-.332-.341-.5-.584-.5s-.438.167-.585.5a3.448,3.448,0,0,0-.219,1.351,3.646,3.646,0,0,0,.219,1.449C33.44,95.44,33.634,95.6,33.878,95.6Z"/><path class="b" d="M37.472,96.133a1.015,1.015,0,0,1-.828-.609,3.687,3.687,0,0,1-.366-1.851,3.326,3.326,0,0,1,.378-1.777,1.03,1.03,0,0,1,.816-.584h.292a1.029,1.029,0,0,1,.815.584,3.383,3.383,0,0,1,.378,1.8,3.626,3.626,0,0,1-.365,1.826q-.366.609-.828.609Zm.146-.536q.364,0,.6-.486a3.179,3.179,0,0,0,.207-1.413,3.5,3.5,0,0,0-.219-1.376c-.146-.332-.341-.5-.584-.5s-.438.167-.585.5a3.429,3.429,0,0,0-.219,1.351,3.628,3.628,0,0,0,.219,1.449C37.18,95.44,37.374,95.6,37.618,95.6Z"/><path class="b" d="M41.211,96.133q-.462,0-.828-.609a3.688,3.688,0,0,1-.365-1.851A3.326,3.326,0,0,1,40.4,91.9a1.029,1.029,0,0,1,.815-.584H41.5a1.029,1.029,0,0,1,.816.584,3.383,3.383,0,0,1,.378,1.8,3.614,3.614,0,0,1-.366,1.826,1.015,1.015,0,0,1-.828.609Zm.147-.536q.364,0,.6-.486a3.208,3.208,0,0,0,.207-1.413,3.5,3.5,0,0,0-.219-1.376c-.146-.332-.341-.5-.584-.5s-.439.167-.585.5a3.429,3.429,0,0,0-.219,1.351,3.628,3.628,0,0,0,.219,1.449C40.919,95.44,41.114,95.6,41.358,95.6Z"/><path class="b" d="M44.951,96.133a1.015,1.015,0,0,1-.828-.609,3.687,3.687,0,0,1-.366-1.851,3.326,3.326,0,0,1,.378-1.777,1.029,1.029,0,0,1,.816-.584h.292a1.029,1.029,0,0,1,.815.584,3.383,3.383,0,0,1,.378,1.8,3.626,3.626,0,0,1-.365,1.826q-.366.609-.828.609ZM45.1,95.6q.364,0,.6-.486A3.193,3.193,0,0,0,45.9,93.7a3.5,3.5,0,0,0-.219-1.376c-.146-.332-.341-.5-.584-.5s-.439.167-.585.5a3.429,3.429,0,0,0-.219,1.351,3.628,3.628,0,0,0,.219,1.449C44.658,95.44,44.853,95.6,45.1,95.6Z"/><path class="b" d="M49.031,90.922l.56.147q-.087.279-.193.535h3.358v.487H50.979v.974h1.485v.463H50.979v1.047h2.094v.463H50.979V96.6h-.535V95.038H47.717v-.463h1.022V93.528h-.268v-.463h1.973v-.974H49.168a3.765,3.765,0,0,1-1.354,1.461l-.341-.511A3.409,3.409,0,0,0,49.031,90.922Zm1.413,3.653V93.528H49.275v1.047Z"/><path class="b" d="M55.546,96.133q-.462,0-.828-.609a3.688,3.688,0,0,1-.365-1.851,3.326,3.326,0,0,1,.378-1.777,1.029,1.029,0,0,1,.815-.584h.293a1.029,1.029,0,0,1,.815.584,3.383,3.383,0,0,1,.378,1.8,3.614,3.614,0,0,1-.366,1.826,1.015,1.015,0,0,1-.827.609Zm.147-.536q.365,0,.6-.486A3.208,3.208,0,0,0,56.5,93.7a3.5,3.5,0,0,0-.219-1.376c-.146-.332-.341-.5-.584-.5s-.439.167-.585.5a3.429,3.429,0,0,0-.219,1.351,3.628,3.628,0,0,0,.219,1.449C55.254,95.44,55.449,95.6,55.693,95.6Z"/><path class="b" d="M59.286,96.133q-.462,0-.828-.609a3.688,3.688,0,0,1-.365-1.851,3.326,3.326,0,0,1,.378-1.777,1.029,1.029,0,0,1,.815-.584h.292a1.032,1.032,0,0,1,.816.584,3.383,3.383,0,0,1,.378,1.8,3.614,3.614,0,0,1-.366,1.826c-.244.406-.519.609-.828.609Zm.147-.536q.364,0,.6-.486a3.208,3.208,0,0,0,.207-1.413,3.523,3.523,0,0,0-.219-1.376c-.147-.332-.341-.5-.584-.5s-.439.167-.585.5a3.429,3.429,0,0,0-.219,1.351,3.628,3.628,0,0,0,.219,1.449C58.994,95.44,59.189,95.6,59.433,95.6Z"/><path class="b" d="M62.466,96.62l-.438-.389a4.613,4.613,0,0,0,.95-3.215V91.093h3.554v4.8q0,.707-.633.706h-.877l-.072-.488h.827c.146,0,.22-.08.22-.243v-1.29H63.384A4.126,4.126,0,0,1,62.466,96.62Zm.986-2.508H66V93.041H63.513A9.457,9.457,0,0,1,63.452,94.112Zm.061-2.557v1.023H66V91.555Z"/><path class="b" d="M69.882,96.133c-.309,0-.584-.2-.828-.609a3.688,3.688,0,0,1-.365-1.851,3.326,3.326,0,0,1,.378-1.777,1.029,1.029,0,0,1,.815-.584h.292a1.032,1.032,0,0,1,.816.584,3.384,3.384,0,0,1,.377,1.8A3.615,3.615,0,0,1,71,95.524c-.244.406-.519.609-.828.609Zm.147-.536q.365,0,.595-.486a3.191,3.191,0,0,0,.208-1.413,3.523,3.523,0,0,0-.219-1.376c-.147-.332-.341-.5-.584-.5s-.439.167-.585.5a3.429,3.429,0,0,0-.219,1.351,3.628,3.628,0,0,0,.219,1.449C69.59,95.44,69.785,95.6,70.029,95.6Z"/><path class="b" d="M73.622,96.133c-.309,0-.584-.2-.828-.609a3.688,3.688,0,0,1-.365-1.851,3.327,3.327,0,0,1,.377-1.777,1.032,1.032,0,0,1,.816-.584h.292a1.032,1.032,0,0,1,.816.584,3.384,3.384,0,0,1,.377,1.8,3.615,3.615,0,0,1-.365,1.826c-.244.406-.519.609-.828.609Zm.146-.536q.364,0,.6-.486a3.179,3.179,0,0,0,.207-1.413,3.5,3.5,0,0,0-.219-1.376c-.146-.332-.341-.5-.584-.5s-.438.167-.585.5a3.45,3.45,0,0,0-.218,1.351,3.649,3.649,0,0,0,.218,1.449C73.33,95.44,73.525,95.6,73.768,95.6Z"/><path class="b" d="M77.362,96.231v.34h-.536V91.312h4.48v5.259h-.56v-.34Zm3.384-2.655v-1.8H77.362v1.8Zm0,2.192v-1.7H77.362v1.7Z"/><path class="b" d="M85.133,91.659h.433v.907a10.3,10.3,0,0,0,1.4-.269l.158.387a11.731,11.731,0,0,1-1.559.287v.537a7.6,7.6,0,0,0,1.125-.244l.158.386a9.31,9.31,0,0,1-1.283.265v.707q.084.025.168.054a5.991,5.991,0,0,1,1.391.773l-.336.406a5.185,5.185,0,0,0-1.223-.777v.062a.681.681,0,0,1-.275.6,1.535,1.535,0,0,1-.868.194,1.715,1.715,0,0,1-.829-.174.578.578,0,0,1-.315-.542.6.6,0,0,1,.326-.541,2.091,2.091,0,0,1,1.035-.193,2.97,2.97,0,0,1,.493.04v-.56a12.034,12.034,0,0,1-1.913.016l.019-.406a11.776,11.776,0,0,0,1.894-.013v-.545a13.308,13.308,0,0,1-2.15,0l.02-.406a12.957,12.957,0,0,0,2.13.005Zm-.493,3.21a1.77,1.77,0,0,0-.73.1.285.285,0,0,0-.178.251c0,.116.073.2.217.242a1.625,1.625,0,0,0,.474.068,1.154,1.154,0,0,0,.542-.1.315.315,0,0,0,.168-.29v-.2A2.011,2.011,0,0,0,84.64,94.869Z"/><path class="b" d="M91.325,92.046l.138.425a3.652,3.652,0,0,0-1.8.7,1.313,1.313,0,0,0-.542.909,1.094,1.094,0,0,0,.671,1.093,3.6,3.6,0,0,0,1.479.3l-.119.444A4.157,4.157,0,0,1,89.4,95.43a1.43,1.43,0,0,1-.72-1.354,1.344,1.344,0,0,1,.316-.8,1.765,1.765,0,0,1,.749-.589,19.3,19.3,0,0,1-2.248.154l-.119-.425A19.342,19.342,0,0,0,91.325,92.046Zm-.868,1.121a3.048,3.048,0,0,1,.69.541l-.315.31a1.817,1.817,0,0,0-.632-.542Zm.651-.367a3.641,3.641,0,0,1,.67.483l-.3.29a2.737,2.737,0,0,0-.612-.483Z"/><path class="b" d="M96.551,92.181v.348H94.037q-.107.272-.233.522H95.94v2.456a.441.441,0,0,1-.493.5h-.434l-.059-.367h.434c.078,0,.118-.046.118-.136v-.483H93.731v.986H93.3V93.86a4.711,4.711,0,0,1-.926.913l-.316-.387a4.422,4.422,0,0,0,1.51-1.857H92.213v-.348h1.494a6.475,6.475,0,0,0,.2-.657l.415.077c-.048.2-.1.394-.162.58Zm-1.045,1.682v-.445H93.731v.445Zm0,.813v-.465H93.731v.465Z"/><path class="b" d="M98.957,93.612l.453.116a4.366,4.366,0,0,1-.351.81q.262.184.51.389l-.336.368a5.061,5.061,0,0,0-.427-.368A3.073,3.073,0,0,1,97.3,96.01l-.217-.367a2.952,2.952,0,0,0,1.365-.977,7.328,7.328,0,0,0-.812-.474l.236-.348a8.013,8.013,0,0,1,.815.448A3.314,3.314,0,0,0,98.957,93.612Zm-.947-.851.414.193a3.175,3.175,0,0,1-.986,1.122l-.3-.31A2.334,2.334,0,0,0,98.01,92.761Zm-.788-.155V92.22h1.1v-.7h.434v.7H99.9v.386Zm1.755.078a4.409,4.409,0,0,1,.986.85l-.355.31a3.829,3.829,0,0,0-.907-.87Zm1.281,0v-1.16h.435v1.16h.906v1.7a2.781,2.781,0,0,1-.207,1.218.69.69,0,0,1-.66.406h-.375l-.1-.387h.4a.4.4,0,0,0,.4-.29,2.93,2.93,0,0,0,.109-.947V93.07h-.473a3.181,3.181,0,0,1-1.479,2.959l-.316-.348a2.684,2.684,0,0,0,1.36-2.611h-.591v-.386Z"/><path class="b" d="M112.675,93.9l.088.278a2.305,2.305,0,0,0-1.155.453.866.866,0,0,0-.347.594.714.714,0,0,0,.43.713,2.24,2.24,0,0,0,.946.2l-.076.29a2.6,2.6,0,0,1-1.117-.315.938.938,0,0,1-.461-.884.881.881,0,0,1,.2-.523,1.138,1.138,0,0,1,.48-.386,12.175,12.175,0,0,1-1.439.1l-.076-.277A12.093,12.093,0,0,0,112.675,93.9Zm-.556.731a1.949,1.949,0,0,1,.442.354l-.2.2a1.161,1.161,0,0,0-.4-.354Zm.417-.239a2.4,2.4,0,0,1,.429.315l-.189.189a1.774,1.774,0,0,0-.392-.314Z"/><path class="b" d="M114.973,93.646v.58a6.566,6.566,0,0,0,.794-.163l.1.252a7.925,7.925,0,0,1-.9.176v.569c.016.059.031.123.044.189a1.268,1.268,0,0,1-.013.341.893.893,0,0,1-.19.442,1.087,1.087,0,0,1-.334.3,2.061,2.061,0,0,1-.48.17l-.189-.278a1.38,1.38,0,0,0,.486-.113.812.812,0,0,0,.284-.215.732.732,0,0,0,.139-.266.581.581,0,0,1-.379.115.6.6,0,0,1-.435-.152.475.475,0,0,1-.158-.353.449.449,0,0,1,.17-.366.707.707,0,0,1,.461-.14.814.814,0,0,1,.315.064v-.272a8.256,8.256,0,0,1-1.476.007l.012-.266a8.116,8.116,0,0,0,1.464,0v-.613Zm-.253,1.566a.188.188,0,0,0-.1-.172.492.492,0,0,0-.24-.056.467.467,0,0,0-.252.07.2.2,0,0,0-.114.17.235.235,0,0,0,.088.189.335.335,0,0,0,.227.076.469.469,0,0,0,.279-.081A.239.239,0,0,0,114.72,95.212Z"/><path class="b" d="M116.3,96.158a.456.456,0,0,1,.113-.315.39.39,0,0,1,.3-.127.4.4,0,0,1,.3.127.439.439,0,0,1,.12.315.409.409,0,0,1-.12.291.394.394,0,0,1-.3.126.389.389,0,0,1-.3-.126A.424.424,0,0,1,116.3,96.158Zm.252,0a.125.125,0,0,0,.051.095.167.167,0,0,0,.113.044.154.154,0,0,0,.1-.044.125.125,0,0,0,.051-.095.159.159,0,0,0-.051-.114.144.144,0,0,0-.1-.049.156.156,0,0,0-.113.049A.159.159,0,0,0,116.55,96.158Z"/><line class="d" x1="31.766" y1="97.011" x2="102.53" y2="97.011"/><path class="b" d="M5.992,9.976v.287H5.541V5.835H9.313v4.428H8.841V9.976ZM8.841,7.741V6.224H5.992V7.741Zm0,1.845V8.151H5.992V9.586Z"/><path class="b" d="M13.187,6.922a5.748,5.748,0,0,0,1.947,2.3l-.389.389A5.423,5.423,0,0,1,12.9,7.27v1.5h.9v.409h-.9v1.107h-.451V9.176h-.943V8.767h.943V7.29A6.147,6.147,0,0,1,10.6,9.607l-.39-.389a5.575,5.575,0,0,0,1.948-2.3H10.419v-.39h2.03V5.507H12.9V6.532h2.029v.39Z"/><path class="b" d="M19.726,10.016H16.118v.247h-.451V5.671h4.51v4.592h-.451Zm-3.608-.409h3.608V6.081H16.118ZM17.7,7.6V6.86H16.446V6.45H19.4v.41h-1.25V7.6h1.127v.41H18.148v.861h1.373v.41h-3.2v-.41H17.7V8.008H16.57V7.6Zm.492.8.184-.348a3.7,3.7,0,0,1,1,.39l-.266.43A3.5,3.5,0,0,0,18.189,8.4Z"/><path class="b" d="M23.682,5.507l.451.082a8.981,8.981,0,0,1-.144.9h1.6V6.9h-.475a5.1,5.1,0,0,1-.643,1.9,3.444,3.444,0,0,0,1.24,1.091l-.327.41a4.328,4.328,0,0,1-1.192-1.1,3.783,3.783,0,0,1-1.371,1.077l-.287-.369a3.6,3.6,0,0,0,1.4-1.117,4.251,4.251,0,0,1-.4-1.014,2.677,2.677,0,0,1-.2.307L23.026,7.8v.045h-.574V9.157a7.658,7.658,0,0,0,.758-.247v.451a9.383,9.383,0,0,1-2.3.594l-.082-.492c.1-.011.193-.024.287-.037V7.27h.43V9.358c.161-.029.319-.06.471-.094V6.429H20.915V6.04h2.3v.389h-.758V7.475h.574v.176A4.61,4.61,0,0,0,23.682,5.507Zm.184,1.886a4.395,4.395,0,0,0,.343.963A4.445,4.445,0,0,0,24.665,6.9h-.781a4.273,4.273,0,0,1-.3.771Z"/><path class="b" d="M26.86,6.511V8.069c0,.064,0,.126,0,.187a4.027,4.027,0,0,0,1.007-1.745l.431.165a5.309,5.309,0,0,1-.39.973v2.614h-.451V8.333a3.341,3.341,0,0,1-.308.331l-.293-.294a5.566,5.566,0,0,1-.4,1.913l-.472-.225a4.645,4.645,0,0,0,.431-1.989V6.122h1.968V5.507h.451v.615h1.844v.389H26.86Zm1.332.861h1.373V6.655h.451v.717h.656v.39h-.656V9.771q0,.492-.43.492h-.553l-.042-.41H29.5c.041,0,.061-.028.061-.082V7.762H28.192Zm.1,1.005.368-.287a4.895,4.895,0,0,1,.616,1.025l-.431.225A5.225,5.225,0,0,0,28.3,8.377Z"/><path class="b" d="M122.956,96.932l.076-.056a3.14,3.14,0,0,1,.277.276l.889-1.882.1.038-.785,2.109a1.243,1.243,0,0,1,.211.663c0,.153-.05.229-.153.229a.183.183,0,0,1-.134-.058A2.277,2.277,0,0,0,122.956,96.932Zm.076-1.854.057-.076q.593.23.593.554c0,.153-.077.2-.229.153A1.839,1.839,0,0,0,123.032,95.078Zm.4-1.05.058-.077q.592.228.593.554c0,.153-.077.2-.23.153A1.8,1.8,0,0,0,123.433,94.028Zm2.046.954V93.951h.439c0,.1-.057.152-.171.152v.879h.8l.191-.248.344.248c0,.078-.051.115-.153.115h-1.185V96.13h1.032l.191-.248.345.248c0,.076-.051.115-.154.115h-1.624l-.709,1.52,1.887-.13a3.208,3.208,0,0,0-.529-.759l.077-.058q.9.669.9,1.3c0,.154-.076.212-.229.173a2.391,2.391,0,0,0-.176-.566l-2.348.317c0,.115-.031.173-.095.173l-.153-.4.571-.04.48-1.527h-.994V96.13h1.262V95.1h-1.071v-.115Z"/><path class="b" d="M127.907,95.728h1.549l.153-.153.3.249a.166.166,0,0,1-.191.1l-.516.63-.1-.057.345-.65H128.9v2.122c0,.23-.16.344-.478.344,0-.153-.109-.229-.326-.229v-.115h.536V96.336a4.468,4.468,0,0,1-.841,1.438l-.1-.076a5.569,5.569,0,0,0,.8-1.855h-.594Zm.249-1.031a3.987,3.987,0,0,1,.587.309l.368-.692h-1.184V94.2h1.166l.172-.21.4.306c-.038.088-.121.121-.249.095l-.567.695c.136.107.2.208.2.3,0,.166-.07.237-.21.21a2.3,2.3,0,0,0-.746-.821Zm2.447,3.268.038-.095.478.095a1.77,1.77,0,0,0,.4-1.108h-.882a2.981,2.981,0,0,1-1.374,1.452l-.077-.095a3.139,3.139,0,0,0,1.133-1.357h-.865v-.134h.92a3.64,3.64,0,0,0,.17-.593l.42.095c0,.09-.051.141-.153.154a3.48,3.48,0,0,1-.118.344h.768l.134-.192.344.23a.228.228,0,0,1-.153.152q-.153,1.4-.765,1.4A.646.646,0,0,0,130.6,97.965Zm-.211-4.014.44.152c-.012.09-.089.128-.229.115a3.287,3.287,0,0,1-.291.5h1.361l.211-.286.363.3a.085.085,0,0,1-.1.095H131.6a3.643,3.643,0,0,1-.6.836,3.455,3.455,0,0,0,1.234.426v.115a.3.3,0,0,0-.306.21,3.711,3.711,0,0,1-1.113-.575,3.332,3.332,0,0,1-1.315.709l-.057-.095a3.688,3.688,0,0,0,1.2-.752,3.276,3.276,0,0,1-.585-.676,3.079,3.079,0,0,1-.427.377l-.1-.058A3.346,3.346,0,0,0,130.392,93.951Zm.88.878h-1.047q-.042.056-.09.108a3.3,3.3,0,0,0,.663.6A3.062,3.062,0,0,0,131.272,94.829Z"/><path class="b" d="M135.057,95.48a3.586,3.586,0,0,0,1.97,2.408V98a.325.325,0,0,0-.306.172,3.662,3.662,0,0,1-1.714-2.466,2.711,2.711,0,0,1-2.186,2.6l-.057-.095a2.784,2.784,0,0,0,1.986-2.734h-1.929v-.115h1.931V93.951h.439c0,.1-.057.152-.172.152v1.262h1.491l.211-.287.363.287c0,.076-.057.115-.172.115Z"/><path class="b" d="M139.913,96.723v1.165h1.376l.211-.248.344.248c0,.077-.045.115-.134.115h-3.46v.23l-.268.076V94.161l.344.153h2.811l.191-.229.344.229c0,.076-.045.115-.134.115h-1.625V95.4h1.166l.134-.154.325.21a.182.182,0,0,1-.153.134v1.338l-.268.078v-.287Zm-.268-1.319v-.975h-1.4V95.4Zm-1.4,1.2h2.867v-1.09H138.25Zm1.4.115h-1.4v1.165h1.4Z"/><path class="b" d="M64.833,6.851V6.429h1.49a5.491,5.491,0,0,0,.262-.908l.488.088a6.982,6.982,0,0,1-.235.82h2.874v.422H66.671a5.682,5.682,0,0,1-.729,1.218v2.6h-.488V8.611a5.841,5.841,0,0,1-.532.457l-.355-.421a5.083,5.083,0,0,0,.887-.784V7.472h.311a4.723,4.723,0,0,0,.372-.621Zm2.883,1.485V7.205H68.2V8.336h1.331v.422H68.2v1.4h1.62v.421h-3.7v-.421h1.6v-1.4H66.43V8.336Z"/><path class="b" d="M71.867,5.9l.489.088A3.1,3.1,0,0,0,73.73,5.5l.288.444a3.9,3.9,0,0,1-1.662.487V7.48a4.227,4.227,0,0,0,1.065-.411,5.117,5.117,0,0,0-.356-.484l.377-.288a4.09,4.09,0,0,1,.776,1.064l-.488.266c-.024-.052-.049-.1-.075-.155a5.845,5.845,0,0,1-1.555.59l-.011.009-.006,0-.016,0-.006-.02-.194-.136Zm.533,4.545v.222h-.488V8.314h4.346v2.351H75.77v-.222Zm1.441-1.685H72.4v.4h1.441ZM72.4,9.6V10h1.441V9.6Zm1.109-1.8a1.645,1.645,0,0,0,1.33-1.664h-.754V5.7h2.439V6.54a2.014,2.014,0,0,1-.255,1.165.822.822,0,0,1-.7.343h-.466l-.111-.466h.51a.428.428,0,0,0,.366-.21,1.75,1.75,0,0,0,.167-.832v-.4h-.688A2.083,2.083,0,0,1,73.73,8.248ZM75.77,9.157v-.4H74.329v.4Zm0,.843V9.6H74.329V10Z"/><path class="b" d="M81.9,7.317H80.426a4.981,4.981,0,0,1-1.946,3.215l-.355-.422a4.342,4.342,0,0,0,1.8-2.793H78.458V6.9H80a8,8,0,0,0,.079-1.219l.51.022A9.4,9.4,0,0,1,80.5,6.9h1.663l.221.222a9.164,9.164,0,0,1-.232,2.052,1.487,1.487,0,0,1-.533.875,1.241,1.241,0,0,1-.676.222h-.665l-.067-.488H80.9a.738.738,0,0,0,.477-.2,1.325,1.325,0,0,0,.355-.7A8.844,8.844,0,0,0,81.9,7.317Z"/><path class="b" d="M84.405,8.4V7.959H89V8.4Z"/><path class="b" d="M94.056,8.713l-.377.467a6.548,6.548,0,0,0-2.129-1.4v2.883h-.488V5.7h.488V7.317A7.953,7.953,0,0,1,94.056,8.713ZM92.925,6.052a3.483,3.483,0,0,1,.754.644l-.355.333a3.215,3.215,0,0,0-.687-.666Zm.577-.421a3.958,3.958,0,0,1,.8.688l-.355.333a3.031,3.031,0,0,0-.754-.688Z"/><path class="e" d="M64.833,6.851V6.429h1.49a5.491,5.491,0,0,0,.262-.908l.488.088a6.982,6.982,0,0,1-.235.82h2.874v.422H66.671a5.682,5.682,0,0,1-.729,1.218v2.6h-.488V8.611a5.841,5.841,0,0,1-.532.457l-.355-.421a5.083,5.083,0,0,0,.887-.784V7.472h.311a4.723,4.723,0,0,0,.372-.621Zm2.883,1.485V7.205H68.2V8.336h1.331v.422H68.2v1.4h1.62v.421h-3.7v-.421h1.6v-1.4H66.43V8.336Z"/><path class="e" d="M71.867,5.9l.489.088A3.1,3.1,0,0,0,73.73,5.5l.288.444a3.9,3.9,0,0,1-1.662.487V7.48a4.227,4.227,0,0,0,1.065-.411,5.117,5.117,0,0,0-.356-.484l.377-.288a4.09,4.09,0,0,1,.776,1.064l-.488.266c-.024-.052-.049-.1-.075-.155a5.845,5.845,0,0,1-1.555.59l-.011.009-.006,0-.016,0-.006-.02-.194-.136Zm.533,4.545v.222h-.488V8.314h4.346v2.351H75.77v-.222Zm1.441-1.685H72.4v.4h1.441ZM72.4,9.6V10h1.441V9.6Zm1.109-1.8a1.645,1.645,0,0,0,1.33-1.664h-.754V5.7h2.439V6.54a2.014,2.014,0,0,1-.255,1.165.822.822,0,0,1-.7.343h-.466l-.111-.466h.51a.428.428,0,0,0,.366-.21,1.75,1.75,0,0,0,.167-.832v-.4h-.688A2.083,2.083,0,0,1,73.73,8.248ZM75.77,9.157v-.4H74.329v.4Zm0,.843V9.6H74.329V10Z"/><path class="e" d="M81.9,7.317H80.426a4.981,4.981,0,0,1-1.946,3.215l-.355-.422a4.342,4.342,0,0,0,1.8-2.793H78.458V6.9H80a8,8,0,0,0,.079-1.219l.51.022A9.4,9.4,0,0,1,80.5,6.9h1.663l.221.222a9.164,9.164,0,0,1-.232,2.052,1.487,1.487,0,0,1-.533.875,1.241,1.241,0,0,1-.676.222h-.665l-.067-.488H80.9a.738.738,0,0,0,.477-.2,1.325,1.325,0,0,0,.355-.7A8.844,8.844,0,0,0,81.9,7.317Z"/><path class="e" d="M84.405,8.4V7.959H89V8.4Z"/><path class="e" d="M94.056,8.713l-.377.467a6.548,6.548,0,0,0-2.129-1.4v2.883h-.488V5.7h.488V7.317A7.953,7.953,0,0,1,94.056,8.713ZM92.925,6.052a3.483,3.483,0,0,1,.754.644l-.355.333a3.215,3.215,0,0,0-.687-.666Zm.577-.421a3.958,3.958,0,0,1,.8.688l-.355.333a3.031,3.031,0,0,0-.754-.688Z"/><path class="b" d="M117.228,8.263a2.252,2.252,0,0,0,1.257.643l-.146.336a4.667,4.667,0,0,1-.453-.16V10.4h-.322V10.31h-1.652V10.4h-.322V9.083a4.482,4.482,0,0,1-.439.159l-.146-.336a2.4,2.4,0,0,0,1.257-.643h-1.126V7.984h.714a1.885,1.885,0,0,0-.172-.248l.248-.205a1.792,1.792,0,0,1,.292.41l-.067.043h.433v-.5q-.593.046-1.17.047l-.073-.307a14.2,14.2,0,0,0,2.6-.234l.117.307c-.389.067-.775.12-1.155.158v.529h.278a2.814,2.814,0,0,0,.277-.569l.352.087a4.274,4.274,0,0,1-.249.482h.789v.279Zm-.644.921h-.672v.307h.672Zm-.672.57v.307h.672V9.754Zm.994-1.375v.527h-.322V8.379a2.179,2.179,0,0,1-.66.542h1.627A1.976,1.976,0,0,1,116.906,8.379Zm.658,1.112V9.184h-.658v.307Zm0,.57V9.754h-.658v.307Z"/><path class="b" d="M120.462,8.789h-.833V8.5h3.217v.292H120.8l-.085.351h1.665v.394a.983.983,0,0,1-.176.63.616.616,0,0,1-.512.219h-.482l-.029-.293h.5a.336.336,0,0,0,.271-.138.669.669,0,0,0,.109-.418V9.418h-1.725l.029-.081Zm-.409-1.7h2.325V8.131h-2.325Zm.321.277v.483h1.682V7.37Z"/><path class="b" d="M125.849,10.119l.907-2.895h.366l.892,2.895h-.38L127.343,9.1h-.84l-.3,1.023Zm1.082-2.471L126.59,8.8h.67Z"/><path class="b" d="M129.079,10.119l.907-2.895h.366l.892,2.895h-.381l-.29-1.023h-.84l-.3,1.023Zm1.082-2.471L129.819,8.8h.671Z"/><path class="b" d="M133.055,10.119a.609.609,0,0,1-.5-.365,2.205,2.205,0,0,1-.219-1.112,2,2,0,0,1,.226-1.067.622.622,0,0,1,.49-.351h.175a.622.622,0,0,1,.491.351,2.038,2.038,0,0,1,.226,1.083,2.165,2.165,0,0,1-.22,1.1.606.606,0,0,1-.5.365Zm.088-.321q.219,0,.358-.293a1.9,1.9,0,0,0,.124-.847,2.1,2.1,0,0,0-.131-.827q-.132-.3-.351-.3t-.351.3a2.051,2.051,0,0,0-.131.811,2.177,2.177,0,0,0,.131.87Q132.924,9.8,133.143,9.8Z"/><path class="b" d="M135.788,10.119a.609.609,0,0,1-.5-.365,2.205,2.205,0,0,1-.219-1.112,2,2,0,0,1,.226-1.067.622.622,0,0,1,.49-.351h.175a.622.622,0,0,1,.491.351,2.038,2.038,0,0,1,.226,1.083,2.177,2.177,0,0,1-.219,1.1.609.609,0,0,1-.5.365Zm.088-.321c.146,0,.266-.1.358-.293a1.9,1.9,0,0,0,.124-.847,2.1,2.1,0,0,0-.131-.827q-.132-.3-.351-.3t-.351.3a2.051,2.051,0,0,0-.131.811,2.177,2.177,0,0,0,.131.87Q135.657,9.8,135.876,9.8Z"/><path class="b" d="M138.52,10.119c-.185,0-.35-.121-.5-.365a2.216,2.216,0,0,1-.219-1.112,2,2,0,0,1,.227-1.067.619.619,0,0,1,.489-.351h.176a.619.619,0,0,1,.49.351,2.038,2.038,0,0,1,.226,1.083,2.177,2.177,0,0,1-.219,1.1.609.609,0,0,1-.5.365Zm.088-.321c.146,0,.266-.1.358-.293a1.917,1.917,0,0,0,.125-.847,2.1,2.1,0,0,0-.132-.827c-.087-.2-.205-.3-.351-.3s-.263.1-.351.3a2.07,2.07,0,0,0-.131.811,2.2,2.2,0,0,0,.131.87Q138.389,9.8,138.608,9.8Z"/><path class="b" d="M141.253,10.119c-.185,0-.35-.121-.5-.365a2.216,2.216,0,0,1-.219-1.112,2,2,0,0,1,.227-1.067.619.619,0,0,1,.489-.351h.176a.619.619,0,0,1,.49.351,2.036,2.036,0,0,1,.227,1.083,2.175,2.175,0,0,1-.22,1.1.607.607,0,0,1-.5.365Zm.088-.321c.146,0,.266-.1.358-.293a1.917,1.917,0,0,0,.125-.847,2.119,2.119,0,0,0-.131-.827c-.088-.2-.206-.3-.352-.3s-.263.1-.351.3a2.07,2.07,0,0,0-.131.811,2.2,2.2,0,0,0,.131.87Q141.122,9.8,141.341,9.8Z"/><path class="b" d="M143.986,10.119c-.185,0-.35-.121-.5-.365a2.216,2.216,0,0,1-.219-1.112,2,2,0,0,1,.227-1.067.619.619,0,0,1,.489-.351h.176a.619.619,0,0,1,.49.351,2.036,2.036,0,0,1,.227,1.083,2.175,2.175,0,0,1-.22,1.1.607.607,0,0,1-.5.365Zm.088-.321q.22,0,.358-.293a1.917,1.917,0,0,0,.125-.847,2.119,2.119,0,0,0-.131-.827q-.132-.3-.352-.3t-.351.3a2.07,2.07,0,0,0-.131.811,2.2,2.2,0,0,0,.131.87Q143.855,9.8,144.074,9.8Z"/><path class="b" d="M146.719,10.119a.609.609,0,0,1-.5-.365A2.205,2.205,0,0,1,146,8.642a2,2,0,0,1,.226-1.067.619.619,0,0,1,.49-.351h.175a.619.619,0,0,1,.49.351,2.027,2.027,0,0,1,.227,1.083,2.165,2.165,0,0,1-.22,1.1.606.606,0,0,1-.5.365Zm.087-.321c.147,0,.266-.1.359-.293a1.919,1.919,0,0,0,.124-.847,2.1,2.1,0,0,0-.131-.827q-.132-.3-.352-.3c-.145,0-.263.1-.35.3a2.049,2.049,0,0,0-.132.811,2.174,2.174,0,0,0,.132.87C146.543,9.7,146.661,9.8,146.806,9.8Z"/><path class="b" d="M149.452,10.119a.609.609,0,0,1-.5-.365,2.205,2.205,0,0,1-.219-1.112,2,2,0,0,1,.226-1.067.619.619,0,0,1,.49-.351h.175a.619.619,0,0,1,.49.351,2.027,2.027,0,0,1,.227,1.083,2.165,2.165,0,0,1-.22,1.1.606.606,0,0,1-.5.365Zm.088-.321q.219,0,.358-.293a1.919,1.919,0,0,0,.124-.847,2.1,2.1,0,0,0-.131-.827q-.132-.3-.351-.3c-.146,0-.264.1-.351.3a2.051,2.051,0,0,0-.131.811,2.177,2.177,0,0,0,.131.87C149.276,9.7,149.394,9.8,149.54,9.8Z"/><path class="b" d="M152.185,10.119a.609.609,0,0,1-.5-.365,2.205,2.205,0,0,1-.219-1.112,2,2,0,0,1,.226-1.067c.152-.234.314-.351.49-.351h.175a.622.622,0,0,1,.491.351,2.038,2.038,0,0,1,.226,1.083,2.165,2.165,0,0,1-.22,1.1.606.606,0,0,1-.5.365Zm.088-.321q.219,0,.358-.293a1.919,1.919,0,0,0,.124-.847,2.1,2.1,0,0,0-.131-.827q-.132-.3-.351-.3c-.146,0-.264.1-.351.3a2.051,2.051,0,0,0-.131.811,2.177,2.177,0,0,0,.131.87C152.009,9.7,152.127,9.8,152.273,9.8Z"/><path class="b" d="M154.171,10.119l.907-2.895h.366l.892,2.895h-.38L155.665,9.1h-.84l-.3,1.023Zm1.082-2.471L154.912,8.8h.67Z"/><path class="b" d="M157.4,10.119l.906-2.895h.366l.892,2.895h-.38L158.9,9.1h-.839l-.3,1.023Zm1.082-2.471L158.142,8.8h.67Z"/><path class="f" d="M158.263,31.085H116.309v56.25h1.279a24.508,24.508,0,0,1-.634-5.459c0-9.958,5.91-18.389,14.079-21.312a12.874,12.874,0,0,1-5.077-10.421c0-6.914,5.1-12.52,11.386-12.52s11.386,5.606,11.386,12.52a12.871,12.871,0,0,1-5.077,10.421c8.17,2.923,14.079,11.354,14.079,21.312a24.508,24.508,0,0,1-.634,5.459h1.167Z"/><path class="g" d="M143.651,60.564a12.871,12.871,0,0,0,5.077-10.421c0-6.914-5.1-12.52-11.386-12.52s-11.386,5.606-11.386,12.52a12.874,12.874,0,0,0,5.077,10.421c-8.169,2.923-14.079,11.354-14.079,21.312a24.508,24.508,0,0,0,.634,5.459H157.1a24.508,24.508,0,0,0,.634-5.459C157.73,71.918,151.821,63.487,143.651,60.564Z"/><rect class="h" x="142.943" y="90.482" width="11.078" height="9.664" rx="1.033" ry="1.033"/><path class="i" d="M146.01,96.562l1.64.028.283-.366.448.355a.153.153,0,0,1-.18.168l-2.194-.037-.015.866-.354.069.072-4.229.35.155a5.5,5.5,0,0,0,1.857-.909l.525.33c-.052.083-.17.114-.355.093a8.447,8.447,0,0,1-2.029.609l-.02,1.186,1.489.027.258-.343.447.354c0,.1-.061.147-.178.146l-2.019-.035Zm2.608-3.492.475.206,1.437.024.181-.244.424.3a.182.182,0,0,1-.2.17l-.057,3.387q-.009.57-.691.557c-.012-.264-.245-.4-.7-.408l0-.172,1.033.018.059-3.462-1.588-.028-.082,4.822-.379.068Z"/><polygon class="i" points="108.759 83.379 93.311 83.379 96.155 80.668 93.311 77.958 108.759 77.958 105.921 80.668 108.759 83.379"/><rect class="i" x="90.696" y="78.883" width="3.599" height="3.615" transform="translate(-29.965 89.038) rotate(-45)"/><rect class="g" x="91.547" y="79.734" width="1.898" height="1.913" transform="translate(-29.966 89.034) rotate(-44.998)"/><rect class="i" x="107.758" y="78.883" width="3.599" height="3.615" transform="translate(-24.968 101.102) rotate(-45)"/><rect class="g" x="108.609" y="79.734" width="1.898" height="1.913" transform="translate(-24.969 101.097) rotate(-44.998)"/><path class="g" d="M99.179,82.265H98.85V79.792l-.66,1.454h-.359l-.616-1.469v2.488h-.329V79.3h.449l.675,1.528.7-1.528h.465Z"/><path class="g" d="M101.318,79.3a.918.918,0,0,1,.712.4,2.06,2.06,0,0,1,.015,2.188,1.111,1.111,0,0,1-1.7-.03,1.751,1.751,0,0,1-.3-1.056,1.716,1.716,0,0,1,.322-1.095.934.934,0,0,1,.743-.4Zm-.105.314a.741.741,0,0,0-.593.308,1.365,1.365,0,0,0-.247.877,1.393,1.393,0,0,0,.225.861.733.733,0,0,0,.615.293.719.719,0,0,0,.576-.277,1.349,1.349,0,0,0,.233-.877,1.422,1.422,0,0,0-.233-.877A.7.7,0,0,0,101.213,79.612Z"/><path class="g" d="M104.759,79.3v1.979q0,.989-1.064.988a1.743,1.743,0,0,1-.555-.089v-.33a1.6,1.6,0,0,0,.555.1q.735,0,.734-.674V79.3Z"/><rect class="j" x="0.354" y="0.354" width="162" height="104" rx="4.798" ry="4.798"/><path d="M18.736,16.465h3.892v5.05h-.42v-.36H19.15v.395h-.414Zm3.472.408H19.15v1.721h3.058ZM19.15,20.747h3.058V18.99H19.15Z"/><path d="M30.182,16.381c-.012,1.086-.054,2.555-.108,3.467h.534v.377H25.091v-.377h.557L25.54,16.4l.342.084a5.684,5.684,0,0,0,.7-.372l.264.276H28.9v3.461h.821c.018-.241.03-.517.042-.81h-.684V18.7h.7c.006-.264.018-.534.024-.8h-.719v-.341h.725c.006-.282.012-.558.012-.822h-.773v-.348Zm-2.9,4.21a.15.15,0,0,1-.12.042,7.964,7.964,0,0,1-1.709,1.019,3.893,3.893,0,0,0-.312-.294,6.974,6.974,0,0,0,1.721-1.013Zm-1.3-1.553.024.81h.822V16.459l-.03-.006a8.781,8.781,0,0,1-.882.366l.024.732h.69v.341h-.678l.025.8h.653v.342Zm2.6-2.327H27.136v3.137h1.445Zm-.186.426v.288H27.322v-.288ZM27.388,19.26V17.85h.935v1.41Zm.228-1.134v.858H28.1v-.858Zm2.6,3.532a13.263,13.263,0,0,0-1.775-1.031l.288-.27a15.307,15.307,0,0,1,1.859,1.013Z"/><path d="M37.736,18.12h-2.3A4.638,4.638,0,0,0,37.9,21.286a1.8,1.8,0,0,0-.3.372,5.1,5.1,0,0,1-2.525-3.37,4.329,4.329,0,0,1-2.519,3.358,1.412,1.412,0,0,0-.3-.33,3.976,3.976,0,0,0,2.417-3.2H32.387v-.414h2.338a13.347,13.347,0,0,0,.072-1.625l.57.03c-.006.054-.054.091-.138.1a14.059,14.059,0,0,1-.078,1.493h2.585ZM35.583,21.5a8.464,8.464,0,0,0-1.224-1.235l.336-.24a8.967,8.967,0,0,1,1.248,1.194Z"/><path d="M41.452,20.423c-.168-.234-.348-.462-.516-.659l.306-.181A7.886,7.886,0,0,1,42.3,21.058l-.33.205a4.986,4.986,0,0,0-.311-.54c-.726.234-1.464.456-1.95.593a.1.1,0,0,1-.077.1l-.186-.473c.126-.03.276-.066.431-.108V16.843h.96v-.78l.51.03c-.006.042-.042.072-.12.084v.666h.953v2.512H40.252v1.38Zm.348-3.2H40.252v.7H41.8Zm-1.548,1.751H41.8V18.27H40.252Zm4.48-2.531.258.138a.136.136,0,0,1-.06.054c-.246.51-.588,1.157-.942,1.787.7.6.99,1.062.99,1.493,0,.942-.69.942-1.092.942-.1,0-.2,0-.293-.006a.944.944,0,0,0-.133-.39,3.96,3.96,0,0,0,.444.024c.318,0,.684-.012.684-.582,0-.395-.318-.815-1.032-1.415.318-.588.606-1.157.828-1.643h-1.3V21.67h-.4V16.465h1.961Z"/></svg>