<svg xmlns="http://www.w3.org/2000/svg" width="185.5" height="116.5" viewBox="0 0 185.5 116.5"><defs><style>.cls-1,.cls-2{fill:#fffad2;}.cls-1,.cls-2,.cls-3{stroke:#221e1f;}.cls-1,.cls-3,.cls-4{stroke-width:0.5px;}.cls-2{stroke-width:0.75px;}.cls-3{fill:#fff5d7;}.cls-4,.cls-8{fill:none;}.cls-4{stroke:#000;stroke-linecap:round;stroke-linejoin:round;}.cls-5{fill:#221e1f;}.cls-6{fill:#212121;}.cls-7{fill:#ff1d25;}.cls-8{stroke:#ff1d25;stroke-miterlimit:10;stroke-width:0.548px;}</style></defs><title>23</title><g id="レイヤー_2" data-name="レイヤー 2"><g id="レイヤー_1-2" data-name="レイヤー 1"><rect class="cls-1" x="0.25" y="0.25" width="185" height="116" rx="4.278" ry="4.278"/><rect class="cls-2" x="11.25" y="12.25" width="164" height="41"/><line class="cls-3" x1="175.25" y1="42.25" x2="11.25" y2="42.25"/><line class="cls-4" x1="132.417" y1="62" x2="27.333" y2="62"/><path d="M10.894,74.921a3.731,3.731,0,0,0,.036-.585v-2.48h-.216a4.011,4.011,0,0,0-.464.027v-.572a2.56,2.56,0,0,0,.451.027h.414a3.266,3.266,0,0,0,.459-.023,6.8,6.8,0,0,0-.036.743v2.278a3.764,3.764,0,0,0,.036.585Z"/><path d="M13.265,74.921v-.657h.657v.657Z"/><path d="M15.412,71.847c-.216.04-.315.058-.612.1a1.361,1.361,0,0,0-.167-.432,5.8,5.8,0,0,0,1.427-.306.976.976,0,0,0,.257-.126l.292.414-.193.068c-.252.09-.342.117-.522.166v.577h.288a1.8,1.8,0,0,0,.4-.028v.491a2.564,2.564,0,0,0-.4-.023h-.238a3.463,3.463,0,0,0,.621.671,1.979,1.979,0,0,0-.216.459,2.985,2.985,0,0,1-.473-.625c0,.054,0,.094.009.121a3.249,3.249,0,0,1,.014.428v.864a3.455,3.455,0,0,0,.027.572h-.545a4.09,4.09,0,0,0,.032-.572v-.725c0-.063.009-.256.035-.58a3.7,3.7,0,0,1-.684,1.134,1.61,1.61,0,0,0-.247-.468,3.259,3.259,0,0,0,.423-.531,3.841,3.841,0,0,0,.369-.689.574.574,0,0,1,.027-.059h-.3a2.64,2.64,0,0,0-.4.023v-.491a2.194,2.194,0,0,0,.419.028h.355Zm2.381-.563a6.552,6.552,0,0,0-.189.8,23.345,23.345,0,0,1-.67,2.413c.369-.036.909-.117,1.192-.175a8.381,8.381,0,0,0-.549-1.306l.432-.158a9.188,9.188,0,0,1,.856,2.125l-.5.167c-.045-.194-.058-.257-.1-.4-.576.117-1.035.189-1.832.292-.108.014-.175.023-.238.036l-.095-.531a.476.476,0,0,0,.091,0c.049,0,.049,0,.224-.01a18.708,18.708,0,0,0,.608-2.21,6.266,6.266,0,0,0,.193-1.152Z"/><path d="M19.691,75.034a1.36,1.36,0,0,0-.023-.176,8.584,8.584,0,0,1-.121-1.431,8.1,8.1,0,0,1,.085-1.193c.023-.135.023-.135.122-.644a2.354,2.354,0,0,0,.05-.333v-.018l.607.063a7.272,7.272,0,0,0-.36,2.26c0,.162,0,.162,0,.234v.072a.68.68,0,0,1,0,.094h0c.022-.049.022-.049.054-.13.009-.032.031-.081.054-.153l.085-.2a.779.779,0,0,0,.054-.139l.374.166a3.746,3.746,0,0,0-.446,1.378.876.876,0,0,0,.009.121Zm1.017-2.949a3.25,3.25,0,0,0,.815.072c.158,0,.257,0,.414-.009,0-.265,0-.49,0-.675a1.252,1.252,0,0,0-.014-.216l.563-.013a4.312,4.312,0,0,0-.032.661v.207A4.518,4.518,0,0,0,23.058,72l.1-.036.036-.009.018.509a.85.85,0,0,0-.13.023c-.153.031-.388.071-.626.1v.1c0,.252,0,.262.045,1.018a3.616,3.616,0,0,1,.707.409.84.84,0,0,0,.126.077l-.216.545a1.672,1.672,0,0,0-.338-.288c-.153-.1-.257-.167-.283-.185v.063a.771.771,0,0,1-.037.252A.844.844,0,0,1,21.6,75c-.589,0-.95-.279-.95-.738,0-.437.383-.743.928-.743a1.067,1.067,0,0,1,.4.063c-.013-.112-.018-.333-.036-.959-.18,0-.288.009-.405.009-.166,0-.347,0-.558-.022-.063,0-.112,0-.135,0a.755.755,0,0,0-.077,0,.226.226,0,0,0-.044,0,.094.094,0,0,0-.028,0Zm.914,1.886c-.288,0-.468.113-.468.3,0,.166.162.278.414.278a.443.443,0,0,0,.365-.139.38.38,0,0,0,.058-.243v-.122A.94.94,0,0,0,21.622,73.971Z"/><path d="M24.277,73.836a5.268,5.268,0,0,1,1.013.991l-.419.391a4.842,4.842,0,0,0-.976-1.026Z"/><path d="M10.381,83.147a4.187,4.187,0,0,0-.581.022,2.327,2.327,0,0,1,.117-.576,2.229,2.229,0,0,1,.617-.882,6.157,6.157,0,0,1,.743-.545c.414-.283.54-.432.54-.662,0-.306-.239-.5-.621-.5a.638.638,0,0,0-.572.266.855.855,0,0,0-.14.414l-.643-.077a1.359,1.359,0,0,1,.31-.72,1.309,1.309,0,0,1,1.031-.4c.788,0,1.274.378,1.274.994a.913.913,0,0,1-.32.721,5.608,5.608,0,0,1-.756.553,3.971,3.971,0,0,0-.535.45,1.071,1.071,0,0,0-.257.406h1.26a4.8,4.8,0,0,0,.657-.036v.594c-.211-.018-.391-.027-.679-.027Z"/><path d="M13.265,83.147V82.49h.657v.657Z"/><path d="M15.412,80.072c-.216.041-.315.059-.612.1a1.352,1.352,0,0,0-.167-.432,5.848,5.848,0,0,0,1.427-.306.976.976,0,0,0,.257-.126l.292.414-.193.067c-.252.09-.342.117-.522.167v.576h.288a1.81,1.81,0,0,0,.4-.027V81a2.447,2.447,0,0,0-.4-.023h-.238a3.492,3.492,0,0,0,.621.671,1.979,1.979,0,0,0-.216.459,2.993,2.993,0,0,1-.473-.626c0,.054,0,.095.009.122a3.24,3.24,0,0,1,.014.427V82.9a3.434,3.434,0,0,0,.027.571h-.545a4.075,4.075,0,0,0,.032-.571V82.17c0-.063.009-.256.035-.581a3.692,3.692,0,0,1-.684,1.135,1.629,1.629,0,0,0-.247-.469,3.176,3.176,0,0,0,.423-.531,3.832,3.832,0,0,0,.369-.688.49.49,0,0,1,.027-.059h-.3a2.514,2.514,0,0,0-.4.023v-.491a2.2,2.2,0,0,0,.419.027h.355Zm2.381-.562a6.391,6.391,0,0,0-.189.8,23.415,23.415,0,0,1-.67,2.413c.369-.036.909-.118,1.192-.176a8.327,8.327,0,0,0-.549-1.305l.432-.158a9.152,9.152,0,0,1,.856,2.125l-.5.166c-.045-.193-.058-.256-.1-.4-.576.117-1.035.189-1.832.293-.108.013-.175.022-.238.036l-.095-.531a.593.593,0,0,0,.091,0c.049,0,.049,0,.224-.009a18.761,18.761,0,0,0,.608-2.21,6.266,6.266,0,0,0,.193-1.152Z"/><path d="M19.691,83.259a1.352,1.352,0,0,0-.023-.175,8.6,8.6,0,0,1-.121-1.432,8.123,8.123,0,0,1,.085-1.193c.023-.135.023-.135.122-.643a2.374,2.374,0,0,0,.05-.333v-.018l.607.063a7.261,7.261,0,0,0-.36,2.26c0,.161,0,.161,0,.233v.072a.693.693,0,0,1,0,.095h0c.022-.049.022-.049.054-.13.009-.032.031-.081.054-.154.04-.094.04-.094.085-.2a.822.822,0,0,0,.054-.14l.374.167a3.748,3.748,0,0,0-.446,1.377.887.887,0,0,0,.009.122Zm1.017-2.948a3.25,3.25,0,0,0,.815.072c.158,0,.257,0,.414-.009,0-.266,0-.491,0-.675a1.244,1.244,0,0,0-.014-.216l.563-.014a4.328,4.328,0,0,0-.032.662v.207a4.518,4.518,0,0,0,.608-.108l.1-.036.036-.009.018.508a.85.85,0,0,0-.13.023c-.153.032-.388.072-.626.1v.1c0,.252,0,.261.045,1.018a3.518,3.518,0,0,1,.707.409.822.822,0,0,0,.126.076l-.216.545a1.7,1.7,0,0,0-.338-.288c-.153-.1-.257-.166-.283-.184v.063a.771.771,0,0,1-.037.252.846.846,0,0,1-.855.423c-.589,0-.95-.279-.95-.738,0-.437.383-.743.928-.743a1.067,1.067,0,0,1,.4.063c-.013-.113-.018-.333-.036-.959-.18,0-.288.009-.405.009-.166,0-.347,0-.558-.023-.063,0-.112,0-.135,0a.755.755,0,0,0-.077,0,.182.182,0,0,0-.044,0,.076.076,0,0,0-.028,0Zm.914,1.886c-.288,0-.468.113-.468.3,0,.167.162.279.414.279a.443.443,0,0,0,.365-.139.382.382,0,0,0,.058-.243v-.122A.94.94,0,0,0,21.622,82.2Z"/><path d="M24.277,82.062a5.291,5.291,0,0,1,1.013.99l-.419.392a4.872,4.872,0,0,0-.976-1.027Z"/><path d="M10.385,90.4a.585.585,0,0,0,.212.369.85.85,0,0,0,.545.175c.445,0,.729-.23.729-.585a.526.526,0,0,0-.252-.473,1.168,1.168,0,0,0-.518-.108,3.816,3.816,0,0,0-.481.023v-.558a3.081,3.081,0,0,0,.436.022c.45,0,.716-.207.716-.553,0-.311-.212-.487-.594-.487a.751.751,0,0,0-.491.14.659.659,0,0,0-.189.347L9.854,88.6a1.12,1.12,0,0,1,.428-.644,1.464,1.464,0,0,1,.882-.248c.752,0,1.238.378,1.238.963a.819.819,0,0,1-.311.662,1.1,1.1,0,0,1-.436.176.941.941,0,0,1,.643.3.861.861,0,0,1,.217.621.956.956,0,0,1-.27.657,1.559,1.559,0,0,1-1.108.365,1.406,1.406,0,0,1-1.143-.428,1.181,1.181,0,0,1-.252-.5Z"/><path d="M13.265,91.373v-.658h.657v.658Z"/><path d="M15.412,88.3c-.216.04-.315.058-.612.1a1.369,1.369,0,0,0-.167-.432,5.8,5.8,0,0,0,1.427-.306.976.976,0,0,0,.257-.126l.292.414-.193.068c-.252.09-.342.117-.522.167v.576h.288a1.8,1.8,0,0,0,.4-.028v.491a2.578,2.578,0,0,0-.4-.022h-.238a3.492,3.492,0,0,0,.621.671,1.941,1.941,0,0,0-.216.459,2.993,2.993,0,0,1-.473-.626c0,.054,0,.094.009.122a3.223,3.223,0,0,1,.014.427v.864a3.455,3.455,0,0,0,.027.572h-.545a4.08,4.08,0,0,0,.032-.572V90.4c0-.063.009-.257.035-.581a3.7,3.7,0,0,1-.684,1.134,1.636,1.636,0,0,0-.247-.468,3.217,3.217,0,0,0,.423-.531,3.808,3.808,0,0,0,.369-.689.584.584,0,0,1,.027-.058h-.3a2.65,2.65,0,0,0-.4.022v-.491a2.194,2.194,0,0,0,.419.028h.355Zm2.381-.563a6.553,6.553,0,0,0-.189.8,23.393,23.393,0,0,1-.67,2.412c.369-.036.909-.117,1.192-.175a8.381,8.381,0,0,0-.549-1.306l.432-.157a9.152,9.152,0,0,1,.856,2.125l-.5.166c-.045-.194-.058-.257-.1-.4-.576.117-1.035.189-1.832.293-.108.013-.175.022-.238.036L16.1,91a.476.476,0,0,0,.091,0c.049,0,.049,0,.224-.009a18.814,18.814,0,0,0,.608-2.21,6.272,6.272,0,0,0,.193-1.153Z"/><path d="M19.691,91.485a1.331,1.331,0,0,0-.023-.175,8.6,8.6,0,0,1-.121-1.432,8.123,8.123,0,0,1,.085-1.193c.023-.135.023-.135.122-.643a2.381,2.381,0,0,0,.05-.334V87.69l.607.063a7.272,7.272,0,0,0-.36,2.26c0,.162,0,.162,0,.234v.072a.7.7,0,0,1,0,.095h0c.022-.05.022-.05.054-.131.009-.032.031-.081.054-.153.04-.094.04-.094.085-.2a.779.779,0,0,0,.054-.139l.374.167a3.748,3.748,0,0,0-.446,1.377.9.9,0,0,0,.009.122Zm1.017-2.948a3.306,3.306,0,0,0,.815.071c.158,0,.257,0,.414-.008,0-.266,0-.491,0-.676a1.252,1.252,0,0,0-.014-.216l.563-.013a4.312,4.312,0,0,0-.032.661v.207a4.53,4.53,0,0,0,.608-.107l.1-.037.036-.008.018.508a.85.85,0,0,0-.13.023c-.153.031-.388.072-.626.1v.1c0,.252,0,.261.045,1.017a3.616,3.616,0,0,1,.707.409.764.764,0,0,0,.126.077l-.216.545a1.7,1.7,0,0,0-.338-.288c-.153-.1-.257-.167-.283-.185v.063a.771.771,0,0,1-.037.252.844.844,0,0,1-.855.424c-.589,0-.95-.28-.95-.739,0-.437.383-.742.928-.742a1.047,1.047,0,0,1,.4.063c-.013-.113-.018-.334-.036-.959-.18,0-.288.008-.405.008-.166,0-.347,0-.558-.022-.063,0-.112,0-.135,0a.605.605,0,0,0-.077,0,.226.226,0,0,0-.044,0,.094.094,0,0,0-.028,0Zm.914,1.885c-.288,0-.468.113-.468.3,0,.166.162.279.414.279a.444.444,0,0,0,.365-.14.38.38,0,0,0,.058-.243V90.5A.925.925,0,0,0,21.622,90.422Z"/><path d="M24.277,90.288a5.262,5.262,0,0,1,1.013.99l-.419.391a4.891,4.891,0,0,0-.976-1.026Z"/><line class="cls-4" x1="123.75" y1="75" x2="31" y2="75"/><line class="cls-4" x1="123.75" y1="82" x2="31" y2="82"/><line class="cls-4" x1="123.75" y1="90.5" x2="31" y2="90.5"/><line class="cls-3" x1="175.25" y1="22.25" x2="11.25" y2="22.25"/><line class="cls-3" x1="175.25" y1="32.25" x2="11.25" y2="32.25"/><line class="cls-3" x1="41.25" y1="12.25" x2="41.25" y2="22.25"/><path d="M20.026,15.81c-.012,1.919-.144,2.68-.582,3.454a2.985,2.985,0,0,0-.413-.414c.011.27.011.306.03.48h-.588a5.131,5.131,0,0,0,.036-.726V16.859c0-.252.006-.516.018-.827a3.265,3.265,0,0,1-.456.737c-.018-.048-.036-.09-.042-.114a1.715,1.715,0,0,0-.216-.449,4.985,4.985,0,0,0,.87-1.422,4.8,4.8,0,0,0,.3-.989l.545.132c-.035.1-.042.114-.1.3a5.076,5.076,0,0,1-.395.989v3.628a1.907,1.907,0,0,0,.3-.672,8.782,8.782,0,0,0,.186-2.146c0-.3,0-.5-.023-.7a4.237,4.237,0,0,0,.611.03h2.675a4.444,4.444,0,0,0,.641-.03v.51a5.759,5.759,0,0,0-.588-.024Zm.4-1.613a2,2,0,0,0-.024-.378h.563a2.156,2.156,0,0,0-.023.378v.161h.9V14.2a2,2,0,0,0-.024-.378h.564a2.044,2.044,0,0,0-.024.378v.161h.456a3.824,3.824,0,0,0,.593-.035v.515a5.228,5.228,0,0,0-.593-.024h-.456v.078a2.1,2.1,0,0,0,.018.318h-.552a2.563,2.563,0,0,0,.018-.324v-.072h-.9v.072a2.2,2.2,0,0,0,.018.324H20.4a2.4,2.4,0,0,0,.018-.318v-.078H20.1a4.6,4.6,0,0,0-.587.024v-.509a5.458,5.458,0,0,0,.587.029h.318Zm.288,4.059v.4a3.662,3.662,0,0,0,.03.642H20.2a3.455,3.455,0,0,0,.036-.642V16.769a5.739,5.739,0,0,0-.024-.642c.168.013.294.019.624.019h1.8a3.561,3.561,0,0,0,.587-.03,5.9,5.9,0,0,0-.024.659v2.039c0,.36-.126.456-.605.456-.06,0-.09,0-.336-.006a1.385,1.385,0,0,0-.1-.462,2.294,2.294,0,0,0,.414.042c.126,0,.15-.024.15-.144v-.444h-.8v.312a4.255,4.255,0,0,0,.03.654h-.522a3.724,3.724,0,0,0,.036-.654v-.312Zm.755-1.685H20.71v.42h.755Zm0,.834H20.71v.42h.755Zm1.254-.414v-.42h-.8v.42Zm0,.834v-.42h-.8v.42Z"/><path d="M30.2,15.966a6.262,6.262,0,0,0-.738.035V15.45a5.163,5.163,0,0,0,.732.036h1.4V14.91H30.73a5.1,5.1,0,0,0-.671.03V14.4a4.392,4.392,0,0,0,.671.037h.864v-.09a3.182,3.182,0,0,0-.036-.522h.606a2.83,2.83,0,0,0-.037.522v.09h.5A4.453,4.453,0,0,0,33.3,14.4v.45a4.137,4.137,0,0,0,.726-.887l.485.336c-.042.048-.048.054-.132.156a8.3,8.3,0,0,1-1.061,1.031h.78a4.743,4.743,0,0,0,.7-.036V16a5.872,5.872,0,0,0-.7-.035H32.686a10.546,10.546,0,0,1-.954.594c-.012.047-.012.047-.024.089a13.342,13.342,0,0,0,1.745-.239,2.828,2.828,0,0,0,.582-.162l.353.473c-.054.012-.059.012-.132.024l-.407.078a21.482,21.482,0,0,1-2.279.288c-.048.144-.06.18-.108.312h1.979a4.794,4.794,0,0,0,.647-.024c-.017.1-.017.1-.047.336a3.108,3.108,0,0,1-.294,1.313c-.132.186-.348.252-.81.252a8.312,8.312,0,0,1-.893-.054,1.563,1.563,0,0,0-.126-.552,6.7,6.7,0,0,0,1.031.108c.366,0,.432-.114.516-.9h-2.2c-.06.132-.09.2-.2.413l-.587-.1a7.25,7.25,0,0,0,.623-1.325c-.5.24-.905.408-1.469.624a1.653,1.653,0,0,0-.306-.486,11.335,11.335,0,0,0,2.507-1.061Zm2.339-.48a8.421,8.421,0,0,0,.683-.558c-.162-.011-.282-.018-.54-.018h-.552v.576Z"/><path d="M15.312,102.641a3.841,3.841,0,0,1-.145.587,1.114,1.114,0,0,0-.347-.18,3.646,3.646,0,0,0,.2-1.187c0-.024,0-.052-.007-.1l.391.048a.971.971,0,0,0-.024.2l-.008.06-.012.164h.184v-.472a1.727,1.727,0,0,0-.028-.328h.472a2,2,0,0,0-.024.328v.472H16a1.59,1.59,0,0,0,.32-.025v.42c.124.009.223.013.368.013h.455v-.388h-.335a4,4,0,0,0-.412.02v-.436a2.839,2.839,0,0,0,.412.024h.335v-.124a1.754,1.754,0,0,0-.024-.3h.464a1.639,1.639,0,0,0-.02.3v.128h.432a3.021,3.021,0,0,0,.42-.024v.436a4.059,4.059,0,0,0-.42-.02h-.432v.388h.54a4.37,4.37,0,0,0,.452-.02v.431a3.4,3.4,0,0,0-.42-.024H18.11v.336h.036a2.421,2.421,0,0,0,.392-.02v.44a2.82,2.82,0,0,0-.392-.024H18.11v.955c0,.3-.128.38-.592.38-.068,0-.216,0-.34-.012a1.167,1.167,0,0,0-.1-.44,3.439,3.439,0,0,0,.468.044c.128,0,.152-.02.152-.12v-.807H16.646a2.281,2.281,0,0,0-.391.024V103.6c-.112.052-.184.084-.288.128v.951a3.975,3.975,0,0,0,.024.464h-.472a3.324,3.324,0,0,0,.028-.464v-.8c-.1.036-.184.068-.268.1-.212.076-.259.1-.3.116l-.1-.456a3.525,3.525,0,0,0,.672-.18v-.823Zm.655.679c.156-.06.208-.08.344-.14l0,.176c.092.008.207.012.384.012h.995v-.336H16.687a2.691,2.691,0,0,0-.452.024v-.411c-.088,0-.14,0-.2,0h-.064Zm.791.464a3.24,3.24,0,0,1,.524.612l-.347.263a3.093,3.093,0,0,0-.508-.656Z"/><path d="M19.112,102.113a1.762,1.762,0,0,0,.32.02h.987a2.1,2.1,0,0,0,.32-.016v.411a1.992,1.992,0,0,0-.3-.015h-1a2.6,2.6,0,0,0-.32.015Zm.136-.568a1.9,1.9,0,0,0,.332.02h.687a1.909,1.909,0,0,0,.332-.02v.4a2.67,2.67,0,0,0-.332-.016H19.58a2.589,2.589,0,0,0-.332.016Zm.008,3.606a3.224,3.224,0,0,0,.024-.392v-.592a1.875,1.875,0,0,0-.02-.315c.1.008.159.012.311.012h.784a1.42,1.42,0,0,0,.268-.012,1.869,1.869,0,0,0-.012.288v.671a2.807,2.807,0,0,0,.016.284h-.408v-.16h-.54v.216Zm.008-2.435a2.156,2.156,0,0,0,.263.013h.824a1.927,1.927,0,0,0,.256-.013v.372a2.289,2.289,0,0,0-.256-.012h-.824a2.23,2.23,0,0,0-.263.012Zm0,.564a2.2,2.2,0,0,0,.263.012h.824a1.968,1.968,0,0,0,.256-.012v.372a1.668,1.668,0,0,0-.264-.012h-.82a2.2,2.2,0,0,0-.259.012Zm.407,1.3h.548V104.2h-.548Zm1.623-.093c0,.08.02.1.092.12a1.812,1.812,0,0,0,.352.024c.316,0,.44-.02.5-.08s.088-.239.1-.651a1.824,1.824,0,0,0,.44.148,1.512,1.512,0,0,1-.184.811c-.1.14-.316.184-.864.184-.731,0-.875-.064-.875-.4v-1.411a3.42,3.42,0,0,0-.016-.392,3.744,3.744,0,0,0,.4.016h.9v-.847H21.21a3.9,3.9,0,0,0-.415.02v-.452a3.214,3.214,0,0,0,.419.024h.968a3.831,3.831,0,0,0,.408-.016,3.846,3.846,0,0,0-.016.4v.883a3.683,3.683,0,0,0,.016.4,3.764,3.764,0,0,0-.4-.016h-.9Z"/><path d="M25.45,102.908c0-.04,0-.075,0-.124-.152,0-.164,0-.272,0h-.427v1.891a2.617,2.617,0,0,0,.02.448h-.42a2.874,2.874,0,0,0,.024-.472v-1.423a2.722,2.722,0,0,0-.14.256,2.643,2.643,0,0,1-.192-.384,4.81,4.81,0,0,1,.02.52v1.043c0,.2.008.36.02.488h-.428a4.32,4.32,0,0,0,.024-.488V103.9l.008-.276.024-.276a2.745,2.745,0,0,1-.284.7,1.475,1.475,0,0,0-.239-.336,3.061,3.061,0,0,0,.459-1.159h-.092a1.682,1.682,0,0,0-.267.015v-.419a1.24,1.24,0,0,0,.267.02h.12v-.32a2.735,2.735,0,0,0-.02-.412h.428a3.606,3.606,0,0,0-.02.412v.32a1.468,1.468,0,0,0,.248-.016v.415a1.413,1.413,0,0,0-.228-.015,1.92,1.92,0,0,0,.292.531v-1.079c0-.2,0-.344-.016-.464a3,3,0,0,0,.36.016h.475a2.589,2.589,0,0,0,.332-.016c-.008.092-.012.212-.012.372v.523c0,.141,0,.221.008.3h.176c.008-.088.008-.168.008-.3v-.523q0-.222-.012-.372a2.811,2.811,0,0,0,.352.016h.479a3.181,3.181,0,0,0,.373-.016,3.608,3.608,0,0,0-.02.464v2.679a.417.417,0,0,1-.1.307c-.068.068-.175.092-.419.092-.048,0-.092,0-.2,0a1.214,1.214,0,0,0-.068-.328l-.08-.064c-.04-.036-.072-.056-.084-.067a.807.807,0,0,1-.176-.165c.008.061.016.18.016.236v.168a1.1,1.1,0,0,0,.016.208h-.344a1,1,0,0,0,.016-.208V104.7c0-.056,0-.1.012-.208a1.476,1.476,0,0,1-.508.432,1.029,1.029,0,0,0-.2-.288,1.332,1.332,0,0,0,.572-.383h-.089c-.156,0-.24,0-.331.007.007-.075.011-.172.011-.279v-.332c0-.164,0-.248-.011-.328.091,0,.2.008.331.008h.208v-.116h-.316a2.267,2.267,0,0,0-.311.012v-.3a2.506,2.506,0,0,0,.3.015h.327Zm-.707-1.023v.164H25.2v-.164Zm0,.436v.167H25.2v-.167Zm.487,1.235v.128h.22v-.128Zm0,.332v.135h.224v-.135Zm.812-1.108c-.1,0-.16,0-.268,0,0,.052-.008.088-.008.128v.02h.36a2.4,2.4,0,0,0,.3-.015v.3a2.321,2.321,0,0,0-.312-.012h-.352v.116h.252c.124,0,.232,0,.316-.008a2.617,2.617,0,0,0-.008.268v.384c0,.136,0,.192.008.287-.088,0-.172-.007-.32-.007h-.12a1.363,1.363,0,0,0,.48.283.9.9,0,0,0-.128.177c.06,0,.08,0,.112,0,.124,0,.14-.012.14-.1V102.78Zm-.276.9h.256v-.128h-.256Zm0,.339h.256v-.135h-.256Zm.252-1.974H26.5v-.164h-.483Zm0,.439H26.5v-.167h-.483Z"/><path d="M28.155,102.557v.583h-.583v-.583Zm0,1.711v.583h-.583v-.583Z"/><path d="M12.025,58.67a3.945,3.945,0,0,0-.036-.535h.572a3.869,3.869,0,0,0-.022.441v.1l.022,2.147a9.59,9.59,0,0,0,1.157-.612l.108.473a12.13,12.13,0,0,1-1.769.9c-.171.077-.2.09-.315.144l-.144-.549a2.959,2.959,0,0,0,.45-.144Zm3.313-.54c0,.05,0,.05-.045.626a5.986,5.986,0,0,1-.216,1.256,3.223,3.223,0,0,1-.284.657,2.609,2.609,0,0,0,.982.968,1.971,1.971,0,0,0-.315.513,3.518,3.518,0,0,1-.968-1.04,3.6,3.6,0,0,1-1.508,1.076,2.074,2.074,0,0,0-.288-.446,3,3,0,0,0,1.607-1.2,4,4,0,0,0,.486-2.121,1.786,1.786,0,0,0-.018-.3Zm-1.976.266a6.692,6.692,0,0,1,.891,1.1l-.463.319a5.2,5.2,0,0,0-.86-1.148Z"/><path d="M16.948,58.72c-.224,0-.423.009-.6.027V58.22a5.754,5.754,0,0,0,.6.027h2.827a5.932,5.932,0,0,0,.6-.027v.527c-.189-.018-.373-.027-.6-.027H18.506v.527a11.19,11.19,0,0,1,1.616.828l-.257.45a8.883,8.883,0,0,0-1.359-.77v1.76a4.4,4.4,0,0,0,.032.621h-.586a4.365,4.365,0,0,0,.032-.621v-2.8Z"/><path d="M22.889,60.754c-.257.581-.545.847-.914.847-.513,0-.882-.522-.882-1.247a1.937,1.937,0,0,1,.5-1.31,2.022,2.022,0,0,1,1.549-.63,1.622,1.622,0,0,1,1.782,1.669,1.736,1.736,0,0,1-1.094,1.68,2.937,2.937,0,0,1-.706.189,1.442,1.442,0,0,0-.275-.527,2.408,2.408,0,0,0,.9-.247,1.263,1.263,0,0,0,.625-1.126,1.114,1.114,0,0,0-.553-1,.987.987,0,0,0-.455-.135A6.518,6.518,0,0,1,22.889,60.754Zm-.661-1.611a1.5,1.5,0,0,0-.613,1.215c0,.37.157.662.356.662.148,0,.3-.189.464-.576a5.975,5.975,0,0,0,.373-1.522A1.138,1.138,0,0,0,22.228,59.143Z"/><path d="M11.6,65.774a1.992,1.992,0,0,0,.36.022h1.112a2.3,2.3,0,0,0,.36-.018v.464a2.118,2.118,0,0,0-.342-.018h-1.13a2.781,2.781,0,0,0-.36.018Zm.153-.639a2.165,2.165,0,0,0,.374.022H12.9a2.165,2.165,0,0,0,.374-.022v.445a3.107,3.107,0,0,0-.374-.018h-.774a3.021,3.021,0,0,0-.374.018Zm.009,4.06a3.425,3.425,0,0,0,.027-.441v-.667a2.109,2.109,0,0,0-.022-.355c.112.009.18.014.351.014H13a1.547,1.547,0,0,0,.3-.014,2.031,2.031,0,0,0-.014.324v.756a3.178,3.178,0,0,0,.018.32h-.459v-.18h-.608v.243Zm.009-2.741a2.741,2.741,0,0,0,.3.013H13a2.442,2.442,0,0,0,.288-.013v.418A2.59,2.59,0,0,0,13,66.859H12.07a2.55,2.55,0,0,0-.3.013Zm0,.634a2.464,2.464,0,0,0,.3.014H13a2.2,2.2,0,0,0,.288-.014v.419a1.817,1.817,0,0,0-.3-.014h-.923a2.5,2.5,0,0,0-.293.014Zm.459,1.463h.617v-.423h-.617Zm1.828-.1c0,.09.023.116.1.135a2.117,2.117,0,0,0,.4.027c.355,0,.495-.023.562-.09s.1-.27.108-.734a2.042,2.042,0,0,0,.5.167,1.715,1.715,0,0,1-.207.913c-.118.158-.356.207-.973.207-.824,0-.986-.072-.986-.454V67.03a3.749,3.749,0,0,0-.018-.442,4.111,4.111,0,0,0,.45.018h1.013v-.954h-1.04a4.247,4.247,0,0,0-.468.023v-.509a3.63,3.63,0,0,0,.473.027h1.089a4.475,4.475,0,0,0,.46-.018,4.179,4.179,0,0,0-.019.455v1a4,4,0,0,0,.019.445,4.387,4.387,0,0,0-.451-.018H14.06Z"/><path d="M17.534,65.72c-.122,0-.257.009-.432.022V65.2a2.72,2.72,0,0,0,.422.023h.716a2.449,2.449,0,0,0,.41-.023,2.055,2.055,0,0,0-.014.284,3.48,3.48,0,0,0,.482,1.782,3.633,3.633,0,0,0,.72.864,3.255,3.255,0,0,0,.666.487,1.9,1.9,0,0,0-.382.508,4.539,4.539,0,0,1-1.094-1.058,3.4,3.4,0,0,1-.4-.666,2.952,2.952,0,0,1-.23-.639,3.792,3.792,0,0,1-.643,1.36,4.524,4.524,0,0,1-1.116,1.017,1.275,1.275,0,0,0-.37-.473,3.548,3.548,0,0,0,.905-.707,3.329,3.329,0,0,0,.77-1.332,3.564,3.564,0,0,0,.148-.909Z"/><path d="M23.586,66.8c0,.018.005.055.005.109a1.369,1.369,0,0,1,.144.635,1.444,1.444,0,0,1-.671,1.215,3.166,3.166,0,0,1-.814.369,1.472,1.472,0,0,0-.32-.509,2.127,2.127,0,0,0,.765-.261.946.946,0,0,0,.522-.657.74.74,0,0,1-.661.32.837.837,0,0,1-.523-.162.707.707,0,0,1-.31-.608.829.829,0,0,1,.9-.82.751.751,0,0,1,.468.136.174.174,0,0,1,0-.055c0-.008,0-.26,0-.382-.644.018-1.067.031-1.265.045-.68.049-.68.049-.8.067l-.018-.535a1.951,1.951,0,0,0,.22.009c.113,0,.185,0,.765-.023.293-.009.338-.009.707-.018.148,0,.148,0,.383-.013a2.519,2.519,0,0,0-.027-.545l.567,0a3.593,3.593,0,0,0-.023.536c.784,0,1.135-.013,1.3-.031l0,.517c-.167-.013-.383-.022-.756-.022-.109,0-.19,0-.545.009v.293Zm-.918.046a.393.393,0,0,0-.418.36.354.354,0,0,0,.382.355.41.41,0,0,0,.441-.405C23.073,66.962,22.916,66.841,22.668,66.841Z"/><path d="M26.854,66.944a2.194,2.194,0,0,1,.945-.207c.769,0,1.264.4,1.264,1.013a1.1,1.1,0,0,1-.612,1A2.23,2.23,0,0,1,27.362,69a1.522,1.522,0,0,1-.873-.207.643.643,0,0,1-.27-.518.693.693,0,0,1,.774-.643.965.965,0,0,1,.778.369,1.2,1.2,0,0,1,.208.405c.373-.139.535-.333.535-.653,0-.351-.347-.58-.891-.58a2.77,2.77,0,0,0-1.854.756l-.307-.486a4.059,4.059,0,0,0,.635-.423,14.971,14.971,0,0,0,1.346-1.171l.081-.08,0,0c-.171.022-.459.04-1.274.076a1.491,1.491,0,0,0-.216.023l-.023-.54a4.075,4.075,0,0,0,.531.027c.383,0,.932-.023,1.369-.054a.671.671,0,0,0,.279-.059l.279.4a.974.974,0,0,0-.234.185c-.225.207-.554.5-.707.63-.081.068-.405.311-.5.369a1.484,1.484,0,0,1-.185.117Zm.134,1.121c-.162,0-.265.081-.265.207,0,.18.2.284.535.284a1.225,1.225,0,0,0,.235-.018C27.412,68.227,27.24,68.065,26.988,68.065Z"/><path d="M31.6,67.786a2.57,2.57,0,0,1-.554.382,1.02,1.02,0,0,0-.171-.238,8.472,8.472,0,0,1-.9.473s-.027.017-.058.035a.273.273,0,0,0-.045.023l-.113-.526a3.311,3.311,0,0,0,.509-.181V66.562h-.131a2.2,2.2,0,0,0-.351.022V66.1a2.031,2.031,0,0,0,.356.022h.126v-.558a3.552,3.552,0,0,0-.027-.5h.522a3.091,3.091,0,0,0-.027.5v.554h.081a1.88,1.88,0,0,0,.32-.018v.473a2.255,2.255,0,0,0-.315-.018h-.086v.967c.121-.063.157-.085.3-.166v.31a1.76,1.76,0,0,0,.536-.454h-.1a3.309,3.309,0,0,0-.418.022v-.45a2.507,2.507,0,0,0,.423.022h1.967a3.006,3.006,0,0,0,.468-.026v.45a4.275,4.275,0,0,0-.464-.018H32.078a1.6,1.6,0,0,1-.121.184h1.431c.22,0,.306,0,.436-.013a2.546,2.546,0,0,0-.017.265,3.944,3.944,0,0,1-.185,1.225c-.09.207-.234.266-.63.266-.122,0-.2,0-.378-.014a1.072,1.072,0,0,0-.122-.414,3.277,3.277,0,0,1-.742.495,1.238,1.238,0,0,0-.325-.342,2.78,2.78,0,0,0,.82-.486,2.022,2.022,0,0,0,.467-.6h-.27a2.7,2.7,0,0,1-1.246.985,1.122,1.122,0,0,0-.288-.341,2.337,2.337,0,0,0,1.044-.644Zm.135-1.161a3.156,3.156,0,0,0-.414.018,4.16,4.16,0,0,0,.018-.437v-.657a3.624,3.624,0,0,0-.018-.41,3.146,3.146,0,0,0,.454.023h1.31a3.379,3.379,0,0,0,.482-.023,3.546,3.546,0,0,0-.018.446v.621a3.384,3.384,0,0,0,.018.432c-.095-.009-.23-.013-.41-.013Zm.067-.878h1.274v-.189H31.8Zm0,.513h1.274v-.185H31.8Zm1.373,1.526a2.521,2.521,0,0,1-.63.882,3.143,3.143,0,0,0,.464.036c.166,0,.216-.045.256-.238a5.475,5.475,0,0,0,.077-.68Z"/><path d="M35.417,66.512a4.591,4.591,0,0,1-.721.378,1.708,1.708,0,0,0-.261-.459,4.5,4.5,0,0,0,1.148-.648,3.156,3.156,0,0,0,.707-.752h.536a2.933,2.933,0,0,0,.756.761,4.258,4.258,0,0,0,1.147.617,2.384,2.384,0,0,0-.247.495,4.349,4.349,0,0,1-.734-.4v.316a3.175,3.175,0,0,0-.4-.018H35.8a3.277,3.277,0,0,0-.387.018Zm-.365,2.634a3.625,3.625,0,0,0,.027-.478V67.619a4.2,4.2,0,0,0-.022-.445,2.9,2.9,0,0,0,.386.018h2.251a3.045,3.045,0,0,0,.392-.018,3.054,3.054,0,0,0-.023.445v1.054a2.876,2.876,0,0,0,.027.473h-.535v-.23H35.587v.23Zm.535-.671h1.968v-.847H35.587Zm1.752-2.139h.153a4.1,4.1,0,0,1-.928-.878,3.125,3.125,0,0,1-.882.878h1.657Z"/><path d="M39.588,68.97c-.005-.045-.005-.072-.023-.176a8.584,8.584,0,0,1-.121-1.431,8.123,8.123,0,0,1,.085-1.193c.023-.135.023-.135.122-.644a2.354,2.354,0,0,0,.05-.333v-.018l.607.063a7.266,7.266,0,0,0-.36,2.26c0,.162,0,.162,0,.234V67.8a.68.68,0,0,1-.005.094h.005c.022-.049.022-.049.054-.13.009-.032.031-.081.054-.153.04-.094.04-.094.085-.2a.779.779,0,0,0,.054-.139l.374.166a3.751,3.751,0,0,0-.446,1.378.876.876,0,0,0,.009.121ZM40.6,66.021a3.25,3.25,0,0,0,.815.072c.158,0,.257,0,.414-.009,0-.265,0-.49,0-.675a1.252,1.252,0,0,0-.014-.216l.563-.013a4.312,4.312,0,0,0-.032.661v.207a4.518,4.518,0,0,0,.608-.108l.1-.036.036-.008.018.508a.951.951,0,0,0-.13.022c-.153.032-.388.073-.626.1v.1c0,.251,0,.261.045,1.017a3.645,3.645,0,0,1,.707.409.891.891,0,0,0,.125.077l-.215.545a1.7,1.7,0,0,0-.338-.288c-.153-.1-.257-.167-.283-.185v.063a.771.771,0,0,1-.037.252.844.844,0,0,1-.855.423c-.589,0-.95-.279-.95-.738,0-.437.383-.742.928-.742a1.047,1.047,0,0,1,.4.063c-.013-.113-.018-.334-.036-.959-.18,0-.288.009-.405.009-.167,0-.347,0-.558-.023-.063,0-.112,0-.135,0a.755.755,0,0,0-.077,0,.226.226,0,0,0-.044,0,.094.094,0,0,0-.028,0Zm.914,1.886c-.288,0-.468.113-.468.3,0,.166.162.278.414.278a.443.443,0,0,0,.365-.139.38.38,0,0,0,.058-.243v-.122A.94.94,0,0,0,41.519,67.907Z"/><path d="M44.173,67.772a5.239,5.239,0,0,1,1.013.991l-.418.391a4.821,4.821,0,0,0-.977-1.026Z"/><path d="M47.765,68.884a3.766,3.766,0,0,0,.036-.59V65.819h-.216a4.011,4.011,0,0,0-.464.027v-.572a2.462,2.462,0,0,0,.45.027h.414a3.3,3.3,0,0,0,.46-.022,6.526,6.526,0,0,0-.036.742v2.273a3.71,3.71,0,0,0,.036.59Z"/><path d="M52.044,65.17a1.187,1.187,0,0,0-.036.14c-.008.059-.013.081-.027.153-.013.1-.013.1-.076.433-.018.1-.018.107-.032.166.131-.009.194-.014.279-.014a.869.869,0,0,1,.666.239,1.086,1.086,0,0,1,.212.8,2.863,2.863,0,0,1-.346,1.639.57.57,0,0,1-.5.2,2.17,2.17,0,0,1-.693-.131c0-.09.009-.153.009-.2a1.7,1.7,0,0,0-.045-.383,1.84,1.84,0,0,0,.657.176c.13,0,.2-.085.27-.306a4,4,0,0,0,.117-1.026c0-.414-.1-.536-.459-.536a2.45,2.45,0,0,0-.261.014,9.281,9.281,0,0,1-.815,2.241l-.068.135c-.013.027-.013.032-.036.077l-.522-.288a5.019,5.019,0,0,0,.469-.846,7.742,7.742,0,0,0,.436-1.274,7.646,7.646,0,0,0-.8.144l-.055-.532c.167,0,.712-.054.959-.089a6.942,6.942,0,0,0,.117-.91v-.086Zm1.49.577a4.359,4.359,0,0,1,.927,1.755l-.513.261a4.015,4.015,0,0,0-.36-1.021,2.935,2.935,0,0,0-.517-.77Z"/><path d="M56,66.012a9.55,9.55,0,0,0-.2,1.108c-.009.063-.009.063-.022.13l.009.009a2.132,2.132,0,0,1,1.363-.427c.766,0,1.27.378,1.27.954a1.1,1.1,0,0,1-.463.869,1.952,1.952,0,0,1-1.189.306,4.144,4.144,0,0,1-1.148-.158,1.976,1.976,0,0,0-.067-.58,3.659,3.659,0,0,0,1.211.225c.634,0,1.075-.266,1.075-.649,0-.3-.283-.481-.76-.481a2.047,2.047,0,0,0-1.121.328,1.011,1.011,0,0,0-.2.194l-.567-.018c.014-.081.014-.1.036-.27.036-.279.108-.779.189-1.31a1.766,1.766,0,0,0,.027-.261Zm.058-.882a6.767,6.767,0,0,0,1.679.5l-.184.517a8.167,8.167,0,0,1-1.756-.562Z"/><path d="M60.113,67.9a.573.573,0,0,0,.211.37.852.852,0,0,0,.545.175c.446,0,.729-.23.729-.585a.526.526,0,0,0-.252-.473,1.163,1.163,0,0,0-.517-.108,3.833,3.833,0,0,0-.482.023v-.558a3.1,3.1,0,0,0,.437.022c.45,0,.716-.207.716-.554,0-.31-.212-.486-.595-.486a.748.748,0,0,0-.49.14.646.646,0,0,0-.189.346l-.644-.107a1.125,1.125,0,0,1,.427-.645,1.469,1.469,0,0,1,.883-.247c.752,0,1.237.378,1.237.963a.822.822,0,0,1-.31.662,1.1,1.1,0,0,1-.437.176.946.946,0,0,1,.644.3.869.869,0,0,1,.216.622.952.952,0,0,1-.27.657,1.558,1.558,0,0,1-1.107.364,1.409,1.409,0,0,1-1.144-.427,1.2,1.2,0,0,1-.252-.5Z"/><path d="M66.576,68.853a3.056,3.056,0,0,0-.833-.617,1.859,1.859,0,0,0-.243-.112v.049a.7.7,0,0,1-.252.608,1.2,1.2,0,0,1-.743.193c-.657,0-1.035-.256-1.035-.7,0-.491.446-.779,1.2-.779a2.442,2.442,0,0,1,.3.018.993.993,0,0,0,0-.108v-.1c0-.063,0-.063-.01-.243-.215,0-.355.009-.45.009-.274,0-.441,0-.814-.031-.059,0-.1,0-.172,0l.01-.486a5.791,5.791,0,0,0,1.049.077c.089,0,.243,0,.369-.009,0-.041,0-.194,0-.45-.144,0-.216,0-.283,0-.221,0-.8-.023-1.1-.045-.05,0-.086,0-.1,0h-.071l0-.5a5.968,5.968,0,0,0,1.211.094c.072,0,.225,0,.337-.008a3.189,3.189,0,0,0-.022-.568h.572a2.775,2.775,0,0,0-.032.549,6.072,6.072,0,0,0,1.3-.171l.022.5a2.585,2.585,0,0,0-.356.041c-.4.053-.571.067-.967.089,0,.113,0,.167.009.446.225-.013.225-.013.639-.058a3.33,3.33,0,0,0,.558-.1l.014.495c-.077,0-.19.018-.293.031-.068.009-.27.032-.608.063-.063,0-.13.009-.306.018.014.437.014.437.018.545a4.02,4.02,0,0,1,1.234.635c.076.049.1.067.162.1Zm-1.968-.914c-.364,0-.585.117-.585.311,0,.166.194.27.514.27a.463.463,0,0,0,.391-.145.567.567,0,0,0,.054-.288v-.108A1.606,1.606,0,0,0,64.608,67.939Z"/><path d="M67.569,65.661c.1,0,.148,0,.171,0,.081,0,.081,0,.743-.045.252-.014,1-.054,2.246-.113a3.366,3.366,0,0,0,.518-.04l.031.572a.618.618,0,0,0-.094-.005,2.02,2.02,0,0,0-.892.243,1.464,1.464,0,0,0-.909,1.2.755.755,0,0,0,.6.733,2.721,2.721,0,0,0,.671.118.868.868,0,0,0,.09-.005l-.081.612c-.054-.013-.076-.013-.153-.027a2.7,2.7,0,0,1-1.053-.3,1.2,1.2,0,0,1-.643-1.085,1.564,1.564,0,0,1,.427-1.057,1.987,1.987,0,0,1,.626-.455c-.365.054-.54.072-1.517.144a6.618,6.618,0,0,0-.747.09Zm3.083.662a2.36,2.36,0,0,1,.4.608l-.342.18a2.849,2.849,0,0,0-.4-.617Zm.558.536a2.916,2.916,0,0,0-.387-.6l.329-.162a2.352,2.352,0,0,1,.4.581Z"/><path d="M73.91,67.754c-.257.581-.545.847-.914.847-.513,0-.882-.522-.882-1.247a1.937,1.937,0,0,1,.495-1.31,2.022,2.022,0,0,1,1.549-.63,1.622,1.622,0,0,1,1.782,1.669,1.736,1.736,0,0,1-1.094,1.68,2.937,2.937,0,0,1-.706.189,1.442,1.442,0,0,0-.275-.527,2.408,2.408,0,0,0,.9-.247,1.263,1.263,0,0,0,.625-1.126,1.114,1.114,0,0,0-.553-1,.987.987,0,0,0-.455-.135A6.518,6.518,0,0,1,73.91,67.754Zm-.661-1.611a1.5,1.5,0,0,0-.613,1.215c0,.37.157.662.356.662.148,0,.3-.189.464-.576a5.975,5.975,0,0,0,.373-1.522A1.138,1.138,0,0,0,73.249,66.143Z"/><path d="M77.4,65.5a5.139,5.139,0,0,0-.036.684,8.332,8.332,0,0,0,.086,1.206c.076.469.22.757.364.757.068,0,.131-.068.184-.194a3.251,3.251,0,0,0,.239-.815,2.25,2.25,0,0,0,.45.41c-.233.877-.495,1.242-.877,1.242-.3,0-.545-.221-.725-.653a6.762,6.762,0,0,1-.284-2.349,1.988,1.988,0,0,0-.018-.288Zm2.129.2a4.488,4.488,0,0,1,1.013,2.422l-.558.212a4.571,4.571,0,0,0-.288-1.3,3.95,3.95,0,0,0-.639-1.108Z"/><path d="M83.667,66.9c0,.014,0,.054,0,.1a1.377,1.377,0,0,1,.144.635,1.447,1.447,0,0,1-.67,1.22,3.328,3.328,0,0,1-.815.365,1.565,1.565,0,0,0-.32-.509,2.229,2.229,0,0,0,.765-.256A.952.952,0,0,0,83.3,67.8a.74.74,0,0,1-.661.32.832.832,0,0,1-.522-.162.7.7,0,0,1-.311-.608.83.83,0,0,1,.9-.82.749.749,0,0,1,.468.136.178.178,0,0,1,0-.055c0-.008,0-.256,0-.382-.644.018-1.067.031-1.265.049a6.192,6.192,0,0,0-.8.068l-.018-.54a1.951,1.951,0,0,0,.22.009c.113,0,.185,0,.766-.023.292-.009.337-.009.707-.017.148,0,.148,0,.382-.01a2.431,2.431,0,0,0-.027-.549h.567a3.377,3.377,0,0,0-.022.531c.783,0,1.134-.009,1.3-.027l0,.518a7.528,7.528,0,0,0-.756-.023c-.108,0-.189,0-.545.005v.292Zm-1.337.4a.354.354,0,0,0,.382.355.41.41,0,0,0,.441-.405.25.25,0,0,0-.085-.2.455.455,0,0,0-.3-.109A.4.4,0,0,0,82.33,67.3Zm2.093-2.327a2.007,2.007,0,0,1,.31.589l-.364.086a2.224,2.224,0,0,0-.311-.6Zm.5.562a2.278,2.278,0,0,0-.3-.585l.346-.095a2.054,2.054,0,0,1,.31.572Z"/><path d="M86.987,66.683a3.322,3.322,0,0,1,.549-.468,1.612,1.612,0,0,1,.95-.423.58.58,0,0,1,.63.6,3.215,3.215,0,0,1-.112.688,5.76,5.76,0,0,0-.19,1.013c0,.144.068.225.185.225a.45.45,0,0,0,.315-.23,2.2,2.2,0,0,0,.261-.513,2.221,2.221,0,0,0,.3.541,2.048,2.048,0,0,1-.315.445.87.87,0,0,1-.666.324.665.665,0,0,1-.387-.117.642.642,0,0,1-.235-.567,4.528,4.528,0,0,1,.185-1.13,2.912,2.912,0,0,0,.095-.567c0-.108-.063-.167-.185-.167a1.075,1.075,0,0,0-.558.244,5.094,5.094,0,0,0-.819.733c-.01.2-.01.329-.01.455,0,.036,0,.036,0,.536a6.118,6.118,0,0,0,.023.742h-.581a3.912,3.912,0,0,0,.031-.715c0-.482,0-.482.009-.6l-.009,0a3.28,3.28,0,0,1-.319.378,2.563,2.563,0,0,0-.207.257l-.261-.536a2.048,2.048,0,0,0,.292-.257c.424-.418.424-.418.509-.513,0-.216,0-.266.013-.441,0-.1.005-.113.005-.234a5.591,5.591,0,0,0-.689.063l-.027-.509a1.4,1.4,0,0,0,.185.009c.085,0,.333-.013.544-.027.005-.067.005-.067.01-.171,0-.126,0-.265,0-.369a1.445,1.445,0,0,0-.014-.252l.572.009a.589.589,0,0,0-.018.167c0,.022,0,.081-.014.171s-.008.126-.017.4c0,0,.022-.009.054-.018l.166.189a.752.752,0,0,0-.13.136.348.348,0,0,0-.063.081c-.018.027-.027.035-.055.071l-.008.266s-.005.027-.01.081Z"/><path d="M92.037,65.17a1.016,1.016,0,0,0-.037.14c-.008.059-.013.081-.026.153-.014.1-.014.1-.077.433-.018.1-.018.107-.032.166.131-.009.194-.014.28-.014a.872.872,0,0,1,.666.239,1.091,1.091,0,0,1,.211.8,2.854,2.854,0,0,1-.346,1.639.569.569,0,0,1-.5.2,2.17,2.17,0,0,1-.693-.131c0-.09.009-.153.009-.2a1.7,1.7,0,0,0-.045-.383,1.84,1.84,0,0,0,.657.176c.13,0,.2-.085.27-.306a4,4,0,0,0,.117-1.026c0-.414-.1-.536-.459-.536a2.463,2.463,0,0,0-.261.014,9.281,9.281,0,0,1-.815,2.241l-.067.135c-.014.027-.014.032-.036.077l-.522-.288a5.025,5.025,0,0,0,.468-.846,7.742,7.742,0,0,0,.436-1.274,7.646,7.646,0,0,0-.8.144l-.055-.532c.167,0,.712-.054.959-.089a6.762,6.762,0,0,0,.117-.91v-.086Zm1.489.577a4.36,4.36,0,0,1,.928,1.755l-.514.261a4.052,4.052,0,0,0-.359-1.021,2.962,2.962,0,0,0-.518-.77Z"/><path d="M96.8,67.754c-.257.581-.545.847-.914.847-.513,0-.882-.522-.882-1.247a1.937,1.937,0,0,1,.5-1.31,2.022,2.022,0,0,1,1.549-.63,1.622,1.622,0,0,1,1.782,1.669,1.736,1.736,0,0,1-1.094,1.68,2.937,2.937,0,0,1-.706.189,1.442,1.442,0,0,0-.275-.527,2.408,2.408,0,0,0,.9-.247,1.263,1.263,0,0,0,.625-1.126,1.114,1.114,0,0,0-.553-1,.987.987,0,0,0-.455-.135A6.484,6.484,0,0,1,96.8,67.754Zm-.661-1.611a1.5,1.5,0,0,0-.613,1.215c0,.37.158.662.356.662.148,0,.3-.189.464-.576a5.933,5.933,0,0,0,.373-1.522A1.138,1.138,0,0,0,96.141,66.143Z"/><path d="M103.053,66.138a3.287,3.287,0,0,0,.491-.027v.464a3.929,3.929,0,0,0-.491-.027h-.774a3.407,3.407,0,0,0,1.427.725,1.824,1.824,0,0,0-.261.463c-.189-.085-.261-.121-.41-.2v1.174a2.9,2.9,0,0,0,.027.473h-.5v-.207h-2v.207h-.49c.013-.135.022-.306.022-.473V67.539c-.121.067-.18.1-.373.2a1.21,1.21,0,0,0-.262-.445,3.089,3.089,0,0,0,1.337-.743h-.738a3.9,3.9,0,0,0-.495.027v-.464a3.482,3.482,0,0,0,.495.027h.374a3.3,3.3,0,0,0-.2-.355l.32-.108c-.279.009-.324.013-.6.013a1.288,1.288,0,0,0-.194-.427c.207.009.3.009.432.009a14.167,14.167,0,0,0,1.58-.086,6.694,6.694,0,0,0,1.175-.193l.338.414c-.045,0-.045,0-.136.018-.013,0-.053.009-.116.018-.248.036-.523.072-1.261.153v.544h.405a2.677,2.677,0,0,0,.284-.585l.473.117a4.083,4.083,0,0,1-.27.468Zm-2.485,1.756h.747V67.61h-.747Zm0,.675h.747V68.29h-.747Zm1.932-1.35a3.307,3.307,0,0,1-.743-.653.679.679,0,0,1,0,.068.376.376,0,0,1,.009.085v.122a1.511,1.511,0,0,0,.018.288h-.5a1.648,1.648,0,0,0,.023-.284v-.117c0-.027,0-.081.008-.157a3.129,3.129,0,0,1-.7.648Zm-1.193-1.58c-.185.013-.185.013-.644.031a4.743,4.743,0,0,1,.243.468h.4Zm.459,2.935h.8V68.29h-.8Zm0-.676h.8v-.283h-.8Z"/><path d="M104.753,67.165a4.088,4.088,0,0,0-.523.027v-.486a3.955,3.955,0,0,0,.527.026h3.061a4.071,4.071,0,0,0,.532-.026v.486a4.092,4.092,0,0,0-.532-.027h-2.026c-.067.157-.089.211-.148.328h1.7a3.746,3.746,0,0,0,.464-.018c-.005.027-.014.095-.036.288a2.636,2.636,0,0,1-.284,1.148c-.139.172-.311.221-.783.221-.234,0-.405-.009-.68-.027a1.166,1.166,0,0,0-.121-.482c.306.036.634.063.8.063.221,0,.32-.027.374-.094a1.653,1.653,0,0,0,.162-.685h-1.805c-.063.113-.1.172-.207.338l-.54-.1a4.335,4.335,0,0,0,.571-.981Zm.049-1.652a3.053,3.053,0,0,0-.018-.374,4.268,4.268,0,0,0,.509.023h1.985a3.514,3.514,0,0,0,.513-.023,3.064,3.064,0,0,0-.018.374V66.1a3.2,3.2,0,0,0,.018.382,4.205,4.205,0,0,0-.463-.018h-2.08a4.322,4.322,0,0,0-.464.018,3.148,3.148,0,0,0,.018-.382Zm.482.072v.463h1.994v-.463Z"/><path d="M109.127,65.567a5.5,5.5,0,0,0,1.044.058,1.8,1.8,0,0,0,.181-.558l.589.063a3.438,3.438,0,0,0-.18.405c-.022.05-.032.063-.04.081.036,0,.036,0,.283-.018a6.058,6.058,0,0,0,1.18-.153l.031.513c-.126.009-.126.009-.356.037-.328.04-.9.076-1.355.089a2.3,2.3,0,0,1-.414.6l0,.009.09-.067a1.09,1.09,0,0,1,.635-.2.59.59,0,0,1,.643.477q.521-.189.689-.243a1.383,1.383,0,0,0,.333-.135l.212.518a4.064,4.064,0,0,0-.5.121q-.095.027-.675.23v.049c0,.117,0,.117,0,.18v.18c0,.077,0,.118,0,.149a1.69,1.69,0,0,0,.014.239l-.523.013a3.558,3.558,0,0,0,.027-.522V67.57a2.7,2.7,0,0,0-.432.234.474.474,0,0,0-.234.369c0,.234.216.328.761.328a3.9,3.9,0,0,0,1.323-.189l.045.581a1.4,1.4,0,0,0-.207.018,8.088,8.088,0,0,1-1.152.081,1.936,1.936,0,0,1-1-.189.652.652,0,0,1-.328-.58.716.716,0,0,1,.2-.5,2.214,2.214,0,0,1,.968-.635.247.247,0,0,0-.274-.243,1.514,1.514,0,0,0-.923.464,2.027,2.027,0,0,0-.392.409l-.409-.405a2.8,2.8,0,0,0,.405-.4,6.012,6.012,0,0,0,.54-.77.233.233,0,0,1,.036-.059c-.018,0-.077,0-.077,0-.071,0-.467-.009-.567-.009s-.085,0-.126,0a.455.455,0,0,0-.072,0Z"/><path d="M116.85,65.774a1.952,1.952,0,0,1,.508,1.319,1.974,1.974,0,1,1-3.947,0,1.937,1.937,0,0,1,.652-1.463,2,2,0,0,1,1.324-.509A1.941,1.941,0,0,1,116.85,65.774Zm-2.813.108a1.8,1.8,0,0,0-.469,1.211,1.817,1.817,0,0,0,3.633,0,1.778,1.778,0,0,0-.6-1.35,1.812,1.812,0,0,0-1.211-.468A1.783,1.783,0,0,0,114.037,65.882Z"/><path d="M117.979,65.661c.1,0,.148,0,.171,0,.08,0,.08,0,.743-.045.252-.014,1-.054,2.246-.113a3.344,3.344,0,0,0,.517-.04l.032.572a.638.638,0,0,0-.095-.005,2.012,2.012,0,0,0-.891.243,1.463,1.463,0,0,0-.91,1.2.755.755,0,0,0,.6.733,2.721,2.721,0,0,0,.671.118.88.88,0,0,0,.09-.005l-.081.612c-.054-.013-.076-.013-.153-.027a2.7,2.7,0,0,1-1.053-.3,1.2,1.2,0,0,1-.644-1.085,1.568,1.568,0,0,1,.427-1.057,2.011,2.011,0,0,1,.626-.455c-.364.054-.54.072-1.517.144a6.678,6.678,0,0,0-.747.09Zm3.083.662a2.384,2.384,0,0,1,.4.608l-.341.18a2.925,2.925,0,0,0-.4-.617Zm.558.536a2.959,2.959,0,0,0-.387-.6l.329-.162a2.352,2.352,0,0,1,.4.581Z"/><path d="M125.958,69.186v-.257h-2.876v.257h-.514a4.7,4.7,0,0,0,.028-.585v-2.89a4.8,4.8,0,0,0-.028-.541,4.63,4.63,0,0,0,.532.023h2.84a4.6,4.6,0,0,0,.531-.023,4.6,4.6,0,0,0-.027.541v2.894a4.474,4.474,0,0,0,.027.581Zm-2.876-.689h2.876V65.625h-2.876Zm.5-.927a1.706,1.706,0,0,0-.338.022v-.454a1.706,1.706,0,0,0,.338.022h.23c.008-.184.013-.284.013-.531h-.185a1.867,1.867,0,0,0-.342.022V66.2a1.717,1.717,0,0,0,.342.022h.185v-.14a2.471,2.471,0,0,0-.023-.324h.491a1.36,1.36,0,0,0-.022.3v.166h.535v-.135a1.716,1.716,0,0,0-.022-.329h.5a1.649,1.649,0,0,0-.023.329v.135h.149a1.862,1.862,0,0,0,.355-.022v.449a1.922,1.922,0,0,0-.355-.022h-.149v.531h.212a1.782,1.782,0,0,0,.355-.022v.454a1.837,1.837,0,0,0-.355-.022h-.212v.405a2.45,2.45,0,0,0,.023.392h-.5a2.571,2.571,0,0,0,.022-.392V67.57h-.594a1.378,1.378,0,0,1-.486.868,2.187,2.187,0,0,0-.428-.233,1.039,1.039,0,0,0,.459-.635Zm.689-.941c-.005.252-.01.351-.018.531h.553v-.531Z"/><path d="M128.284,67.142l.086-.1a.843.843,0,0,1,.58-.265.612.612,0,0,1,.505.256c.089.144.112.306.112.824,0,.324.018.414.1.481a.372.372,0,0,0,.238.064c.239,0,.432-.167.563-.482a2.808,2.808,0,0,0,.171-.716,1.419,1.419,0,0,0,.5.338c-.193.932-.634,1.4-1.314,1.4a.7.7,0,0,1-.707-.392,1.317,1.317,0,0,1-.076-.5v-.045c0-.162,0-.27,0-.315a.612.612,0,0,0-.036-.265.222.222,0,0,0-.2-.1c-.243,0-.5.225-.716.631a5.166,5.166,0,0,0-.378,1.03l-.581-.189a6.742,6.742,0,0,0,.248-.63,31.012,31.012,0,0,0,1.066-3.061l.608.153a4.395,4.395,0,0,0-.22.518c-.257.657-.455,1.148-.554,1.359Z"/><path d="M131.339,65.661c.1,0,.148,0,.171,0,.081,0,.081,0,.743-.045.252-.014,1-.054,2.246-.113a3.366,3.366,0,0,0,.518-.04l.031.572a.618.618,0,0,0-.094-.005,2.02,2.02,0,0,0-.892.243,1.464,1.464,0,0,0-.909,1.2.755.755,0,0,0,.6.733,2.721,2.721,0,0,0,.671.118.868.868,0,0,0,.09-.005l-.081.612c-.054-.013-.076-.013-.153-.027a2.71,2.71,0,0,1-1.053-.3,1.2,1.2,0,0,1-.643-1.085,1.564,1.564,0,0,1,.427-1.057,1.987,1.987,0,0,1,.626-.455c-.365.054-.541.072-1.517.144a6.618,6.618,0,0,0-.747.09Zm3.083.662a2.36,2.36,0,0,1,.4.608l-.342.18a2.849,2.849,0,0,0-.4-.617Zm.558.536a2.916,2.916,0,0,0-.387-.6l.329-.162a2.352,2.352,0,0,1,.4.581Z"/><path d="M138.518,65.463a6.728,6.728,0,0,0-.554.5c-.23.212-.545.464-1.071.865-.14.1-.172.139-.172.189,0,.067.009.076.405.373a15.163,15.163,0,0,1,1.418,1.175,1.289,1.289,0,0,0,.131.113l-.464.468a4.371,4.371,0,0,0-.585-.617,14.157,14.157,0,0,0-1.161-.959c-.3-.229-.378-.351-.378-.558a.522.522,0,0,1,.148-.364,2.792,2.792,0,0,1,.4-.325,10.005,10.005,0,0,0,1.04-.877,2.238,2.238,0,0,0,.329-.374Z"/><path d="M139.709,65.837a3.588,3.588,0,0,0,.6.04c.054,0,.1,0,.208,0a5.549,5.549,0,0,0,.085-.689.686.686,0,0,0,0-.081l.593.054a2.674,2.674,0,0,0-.085.432c-.023.126-.027.153-.045.257a3.785,3.785,0,0,0,.769-.135l.023.518c-.036,0-.036,0-.144.022a6.251,6.251,0,0,1-.738.095c-.05.279-.162.756-.279,1.165a15.348,15.348,0,0,1-.5,1.49l-.567-.22a9.629,9.629,0,0,0,.805-2.422.418.418,0,0,1-.058,0h-.261c-.023,0-.068,0-.144,0s-.144,0-.18,0a.612.612,0,0,0-.086,0Zm2.233,1.746a.75.75,0,0,0-.234.5c0,.229.225.347.675.347a3.339,3.339,0,0,0,1.022-.171l.04.553c-.081.009-.117.014-.22.032a4.875,4.875,0,0,1-.838.076,1.828,1.828,0,0,1-.905-.18.651.651,0,0,1-.319-.553,1.284,1.284,0,0,1,.333-.784Zm1.337-.589a4.6,4.6,0,0,0-.568-.032,4.862,4.862,0,0,0-1.188.131l-.041-.5a5.761,5.761,0,0,1,1.342-.144c.122,0,.162,0,.446,0Zm-.77-1.783a2.311,2.311,0,0,1,.387.612l-.355.162a2.688,2.688,0,0,0-.388-.625Zm.545.545a3,3,0,0,0-.374-.608l.338-.144a2.334,2.334,0,0,1,.382.59Z"/><path d="M144.3,65.949a3.065,3.065,0,0,0,.436.023c.338,0,.937-.041,1.216-.076-.077-.2-.27-.676-.293-.712l.581-.077a3.787,3.787,0,0,0,.247.721,6.847,6.847,0,0,0,1.1-.266l.063.536c-.117.018-.166.031-.32.063-.067.018-.288.063-.661.135.162.3.265.491.31.572.122.207.32.5.477.711l-.522.238a.794.794,0,0,0-.31-.193,2.246,2.246,0,0,0-.712-.1c-.611,0-.972.184-.972.5,0,.293.333.455.946.455a3.139,3.139,0,0,0,1.355-.3l.071.576a4.643,4.643,0,0,1-1.426.243,1.862,1.862,0,0,1-1.252-.342.841.841,0,0,1-.266-.608.879.879,0,0,1,.325-.671,1.723,1.723,0,0,1,1.148-.324,2.09,2.09,0,0,1,.778.135,5.065,5.065,0,0,1-.486-.819,15.682,15.682,0,0,1-1.6.108,1.408,1.408,0,0,0-.2.014Z"/><path d="M149.2,65.5a5.35,5.35,0,0,0-.035.684,8.344,8.344,0,0,0,.085,1.206c.077.469.22.757.365.757.067,0,.13-.068.184-.194a3.337,3.337,0,0,0,.239-.815,2.2,2.2,0,0,0,.45.41c-.234.877-.5,1.242-.878,1.242-.3,0-.544-.221-.725-.653a6.8,6.8,0,0,1-.283-2.349,2.327,2.327,0,0,0-.018-.288Zm2.13.2a4.487,4.487,0,0,1,1.012,2.422l-.558.212a4.537,4.537,0,0,0-.288-1.3,3.926,3.926,0,0,0-.639-1.108Z"/><path d="M154.434,68.394a.761.761,0,1,1-.761-.761A.764.764,0,0,1,154.434,68.394Zm-1.171,0a.41.41,0,1,0,.41-.41A.413.413,0,0,0,153.263,68.394Z"/><path d="M135.548,62.2a3.6,3.6,0,0,1-.491-.887,3.312,3.312,0,0,1-.239-1.242,3.194,3.194,0,0,1,.23-1.2,3.659,3.659,0,0,1,.5-.887h.63a3.5,3.5,0,0,0-.571.9,2.947,2.947,0,0,0-.234,1.193,3.044,3.044,0,0,0,.238,1.233,3.459,3.459,0,0,0,.572.9Z"/><path d="M136.744,58.774a1.992,1.992,0,0,0,.36.022h1.112a2.307,2.307,0,0,0,.36-.018v.464a2.135,2.135,0,0,0-.342-.018H137.1a2.771,2.771,0,0,0-.36.018Zm.153-.639a2.158,2.158,0,0,0,.374.022h.774a2.145,2.145,0,0,0,.373-.022v.445a3.1,3.1,0,0,0-.373-.018h-.774a3,3,0,0,0-.374.018Zm.009,4.06a3.425,3.425,0,0,0,.027-.441v-.667a2.1,2.1,0,0,0-.023-.355c.113.009.18.014.351.014h.883a1.535,1.535,0,0,0,.3-.014,2.186,2.186,0,0,0-.013.324v.756a3.178,3.178,0,0,0,.018.32h-.459v-.18h-.608V62.2Zm.009-2.741a2.728,2.728,0,0,0,.3.013h.927a2.43,2.43,0,0,0,.288-.013v.418a2.59,2.59,0,0,0-.288-.013h-.927a2.55,2.55,0,0,0-.3.013Zm0,.634a2.452,2.452,0,0,0,.3.014h.927a2.188,2.188,0,0,0,.288-.014v.419a1.8,1.8,0,0,0-.3-.014h-.922a2.471,2.471,0,0,0-.293.014Zm.459,1.463h.617v-.423h-.617Zm1.828-.1c0,.09.022.116.1.135a2.125,2.125,0,0,0,.4.027c.356,0,.5-.023.563-.09s.1-.27.108-.734a2.049,2.049,0,0,0,.495.167,1.705,1.705,0,0,1-.207.913c-.117.158-.356.207-.972.207-.824,0-.986-.072-.986-.454V60.03a3.981,3.981,0,0,0-.018-.442,4.1,4.1,0,0,0,.45.018h1.013v-.954h-1.04a4.247,4.247,0,0,0-.468.023v-.509a3.613,3.613,0,0,0,.472.027h1.09a4.454,4.454,0,0,0,.459-.018,4.21,4.21,0,0,0-.018.455v.995a4.025,4.025,0,0,0,.018.445,4.366,4.366,0,0,0-.45-.018H139.2Z"/><path d="M142.675,58.72c-.121,0-.257.009-.432.022V58.2a2.734,2.734,0,0,0,.423.023h.716a2.456,2.456,0,0,0,.41-.023,2.055,2.055,0,0,0-.014.284,3.48,3.48,0,0,0,.482,1.782,3.609,3.609,0,0,0,.72.864,3.228,3.228,0,0,0,.666.487,1.9,1.9,0,0,0-.382.508,4.521,4.521,0,0,1-1.094-1.058,3.4,3.4,0,0,1-.4-.666,2.95,2.95,0,0,1-.229-.639,3.776,3.776,0,0,1-.644,1.36,4.524,4.524,0,0,1-1.116,1.017,1.273,1.273,0,0,0-.369-.473,3.565,3.565,0,0,0,.905-.707,3.327,3.327,0,0,0,.769-1.332,3.563,3.563,0,0,0,.149-.909Z"/><path d="M146.522,61.97a1.493,1.493,0,0,0-.022-.176,8.484,8.484,0,0,1-.122-1.431,8.123,8.123,0,0,1,.085-1.193c.023-.135.023-.135.122-.644a2.354,2.354,0,0,0,.05-.333v-.018l.607.063a7.266,7.266,0,0,0-.36,2.26c0,.162,0,.162,0,.234V60.8a.68.68,0,0,1,0,.094h0c.022-.049.022-.049.054-.13.009-.032.031-.081.054-.153.04-.094.04-.094.085-.2a.779.779,0,0,0,.054-.139l.374.166a3.751,3.751,0,0,0-.446,1.378.876.876,0,0,0,.009.121Zm1.018-2.949a3.236,3.236,0,0,0,.814.072c.158,0,.257,0,.414-.009,0-.265,0-.49,0-.675a1.252,1.252,0,0,0-.014-.216l.563-.013a4.449,4.449,0,0,0-.032.661v.207a4.518,4.518,0,0,0,.608-.108l.1-.036.036-.008.018.508a.951.951,0,0,0-.13.022c-.153.032-.388.073-.626.1v.1c0,.251,0,.261.045,1.017a3.616,3.616,0,0,1,.707.409.84.84,0,0,0,.126.077l-.216.545a1.7,1.7,0,0,0-.338-.288c-.153-.1-.256-.167-.283-.185v.063a.8.8,0,0,1-.036.252.847.847,0,0,1-.856.423c-.589,0-.95-.279-.95-.738,0-.437.383-.742.928-.742a1.047,1.047,0,0,1,.4.063c-.013-.113-.018-.334-.036-.959-.18,0-.288.009-.4.009-.166,0-.347,0-.558-.023-.063,0-.112-.005-.135-.005a.751.751,0,0,0-.076,0,.24.24,0,0,0-.045,0,.094.094,0,0,0-.028,0Zm.913,1.886c-.288,0-.468.113-.468.3,0,.166.162.278.414.278a.443.443,0,0,0,.365-.139.38.38,0,0,0,.058-.243v-.122A.94.94,0,0,0,148.453,60.907Z"/><path d="M152.148,58.571a2.454,2.454,0,0,0,.207-.594l.567.054c-.081.216-.149.369-.23.54h1.045a4.648,4.648,0,0,0,.554-.022,4.108,4.108,0,0,0-.023.554v2.52a3.044,3.044,0,0,0,.027.523h-.518v-.23h-2.223v.23h-.509a3.888,3.888,0,0,0,.027-.523V59.1a4.677,4.677,0,0,0-.022-.554,4.506,4.506,0,0,0,.549.022Zm-.59.968h2.224V59.03h-2.224Zm0,.945h2.224v-.513h-2.224Zm0,.977h2.224v-.544h-2.224Z"/><path d="M158.592,58.8a4.085,4.085,0,0,0,.509-.023,4.442,4.442,0,0,0-.023.455v2.394c0,.181.009.37.027.554h-.5v-.22h-2.75v.22h-.5a5.52,5.52,0,0,0,.027-.558V59.21a4.253,4.253,0,0,0-.023-.432,3.593,3.593,0,0,0,.487.023h1.107v-.329a2.928,2.928,0,0,0-.032-.463h.568a2.811,2.811,0,0,0-.032.468V58.8Zm-2.741.446v.877h1.1v-.877Zm0,1.309v.955h1.1v-.955Zm2.75-.432v-.877h-1.148v.877Zm0,1.387v-.955h-1.148v.955Z"/><path d="M159.847,58.661c.1,0,.148,0,.171,0,.081,0,.081,0,.743-.045.252-.014,1-.054,2.246-.113a3.344,3.344,0,0,0,.517-.04l.032.572a.638.638,0,0,0-.095-.005,2.012,2.012,0,0,0-.891.243,1.464,1.464,0,0,0-.909,1.2.754.754,0,0,0,.6.733,2.721,2.721,0,0,0,.671.118.868.868,0,0,0,.09-.005l-.081.612c-.054-.013-.076-.013-.153-.027a2.7,2.7,0,0,1-1.053-.3,1.2,1.2,0,0,1-.644-1.085,1.565,1.565,0,0,1,.428-1.057,1.987,1.987,0,0,1,.626-.455c-.365.054-.54.072-1.518.144a6.678,6.678,0,0,0-.747.09Zm3.083.662a2.413,2.413,0,0,1,.4.608l-.342.18a2.849,2.849,0,0,0-.4-.617Zm.558.536a2.959,2.959,0,0,0-.387-.6l.329-.162a2.352,2.352,0,0,1,.4.581Z"/><path d="M166.886,59.8c0,.018,0,.055,0,.109a1.369,1.369,0,0,1,.144.635,1.444,1.444,0,0,1-.671,1.215,3.166,3.166,0,0,1-.814.369,1.472,1.472,0,0,0-.32-.509,2.133,2.133,0,0,0,.766-.261.952.952,0,0,0,.522-.657.743.743,0,0,1-.662.32.832.832,0,0,1-.522-.162.705.705,0,0,1-.311-.608.83.83,0,0,1,.9-.82.749.749,0,0,1,.468.136.174.174,0,0,1,0-.055c0-.008,0-.26,0-.382-.644.018-1.067.031-1.265.045-.679.049-.679.049-.8.067l-.018-.535a1.968,1.968,0,0,0,.221.009c.112,0,.184,0,.765-.023.292-.009.337-.009.706-.018.149,0,.149,0,.383-.013a2.519,2.519,0,0,0-.027-.545l.567-.005a3.512,3.512,0,0,0-.022.536c.783,0,1.134-.013,1.3-.031l0,.517c-.167-.013-.382-.022-.756-.022-.108,0-.189,0-.545.009v.293Zm-.919.046a.393.393,0,0,0-.418.36.355.355,0,0,0,.383.355.41.41,0,0,0,.441-.4C166.373,59.962,166.215,59.841,165.967,59.841Z"/><path d="M169.864,61.394a.761.761,0,1,1-.76-.761A.763.763,0,0,1,169.864,61.394Zm-1.17,0a.41.41,0,1,0,.41-.41A.412.412,0,0,0,168.694,61.394Z"/><path d="M170.764,62.2a3.478,3.478,0,0,0,.571-.9,3.011,3.011,0,0,0,.239-1.233,2.932,2.932,0,0,0-.229-1.193,3.724,3.724,0,0,0-.576-.9h.634a3.623,3.623,0,0,1,.491.887,3.2,3.2,0,0,1,.229,1.2,3.371,3.371,0,0,1-.234,1.242,3.737,3.737,0,0,1-.491.887Z"/><path d="M174.814,61.394a.761.761,0,1,1-.76-.761A.763.763,0,0,1,174.814,61.394Zm-1.17,0a.41.41,0,1,0,.41-.41A.413.413,0,0,0,173.644,61.394Z"/><path d="M13.24,108.9,10.3,107.52V98.448l2.944-1.377.215.4-2.691,1.276v8.465l2.691,1.276Z"/><path d="M79.035,108.9l-.215-.4,2.692-1.276V98.751L78.82,97.475l.215-.4,2.944,1.377v9.072Z"/><path d="M93.042,107.443H92.69l-.8-1.871.8-1.871h.352l-.8,1.871Zm.563,0h-.351l-.8-1.871.8-1.871h.351l-.8,1.871Z"/><path d="M94.556,105.771a2.639,2.639,0,0,0-.44.024v-.407a2.527,2.527,0,0,0,.44.024h1.027v-.2h-.764a3.37,3.37,0,0,0-.383.016v-.364a2.319,2.319,0,0,0,.383.02h.764v-.176h-.872c-.175,0-.336,0-.416.012a1.658,1.658,0,0,0,.02-.312v-.252a1.813,1.813,0,0,0-.02-.327,4.2,4.2,0,0,0,.453.016h2.378a3.828,3.828,0,0,0,.444-.016,2.466,2.466,0,0,0-.016.327v.252a2.19,2.19,0,0,0,.016.312,3.337,3.337,0,0,0-.412-.012H96v.176h.5a2.684,2.684,0,0,0,.351-.016v.192a1.6,1.6,0,0,0,.32-.316l.384.212a4.923,4.923,0,0,1-.588.456h.364a2.483,2.483,0,0,0,.436-.024v.407a2.7,2.7,0,0,0-.444-.024h-.944c-.135.072-.171.092-.336.172h.944a2.442,2.442,0,0,0,.368-.016c-.008.076-.016.24-.016.38v.74a1.857,1.857,0,0,0,.024.371h-.444v-.155H95.275v.152h-.436a2.442,2.442,0,0,0,.02-.372v-.6c-.171.056-.336.1-.571.16a1.683,1.683,0,0,0-.216-.388,5.929,5.929,0,0,0,1.559-.444Zm.719-1.61h-.56v.231h.56Zm0,2.11v.168h1.643v-.18H95.3Zm0,.66h1.643v-.184H95.275Zm.928-2.77h-.556v.231H96.2Zm.131,1.251c.145-.088.188-.116.309-.2H96v.2Zm.808-1.02v-.231h-.568v.231Z"/><path d="M99.555,104.748a3.536,3.536,0,0,1,.5.4,4.191,4.191,0,0,0,.683-.692H99.687a4.148,4.148,0,0,1-1.08.832,1,1,0,0,0-.272-.336,3.061,3.061,0,0,0,1.42-1.291l.472.116c-.1.152-.141.2-.208.291h.819a2.2,2.2,0,0,0,.352-.02l.236.252c-.048.06-.052.064-.144.184a5.346,5.346,0,0,1-1.2,1.156h1.3a2.437,2.437,0,0,0,.335-.016,2.4,2.4,0,0,0-.02.367v1.028a2.83,2.83,0,0,0,.024.4h-.455V107.2H99.73v.216h-.463a3.009,3.009,0,0,0,.024-.4v-.868a6.638,6.638,0,0,1-.76.36,1.1,1.1,0,0,0-.256-.4,5.819,5.819,0,0,0,.96-.407c.128-.072.26-.156.475-.3a2.882,2.882,0,0,0-.487-.42Zm.172,2.071h1.535v-.788H99.727Z"/><path d="M103.167,105.284a2.2,2.2,0,0,0-.012-.232c.084.008.172.012.28.012h.872v-.52h-.836a3.714,3.714,0,0,1-.659.788,1.818,1.818,0,0,0-.3-.356,2.493,2.493,0,0,0,.779-1,1.155,1.155,0,0,0,.1-.292l.476.1c-.024.048-.032.059-.06.119,0,.013-.044.1-.116.252h1.871a2.7,2.7,0,0,0,.408-.02v.436a2.944,2.944,0,0,0-.408-.02h-.815v.52h.643a2.936,2.936,0,0,0,.412-.02v.424a3.764,3.764,0,0,0-.4-.016h-.655v.647h.927a3.267,3.267,0,0,0,.436-.024v.456a3.4,3.4,0,0,0-.436-.024h-.927v.5a2.316,2.316,0,0,0,.024.428h-.488a2.915,2.915,0,0,0,.024-.436v-.492h-1.344a3.434,3.434,0,0,0-.435.024v-.456a3.346,3.346,0,0,0,.435.024h.2Zm1.14.815v-.647h-.72v.647Z"/><path d="M107.579,106.167a2.965,2.965,0,0,1-.116.476,2.243,2.243,0,0,1-.472.792,1.561,1.561,0,0,0-.371-.368,1.5,1.5,0,0,0,.427-.7,6.3,6.3,0,0,0,.161-1.879,5.932,5.932,0,0,0-.02-.6,4.007,4.007,0,0,0,.467.02h1.667a3.605,3.605,0,0,0,.464-.02,3.041,3.041,0,0,0-.02.453v2.59c0,.2-.044.316-.144.38a.793.793,0,0,1-.464.08c-.128,0-.26,0-.464-.016a1.475,1.475,0,0,0-.115-.448,4.021,4.021,0,0,0,.587.048c.12,0,.148-.02.148-.108v-.692Zm1.735-.407v-.536h-1.655c0,.124-.008.212-.032.536Zm0-.944v-.5h-1.651v.5Z"/><path d="M110.928,104.333c0-.157-.009-.3-.02-.428a3.748,3.748,0,0,0,.444.019h1.934a3.424,3.424,0,0,0,.432-.019,3.6,3.6,0,0,0-.02.407V106.9a4.022,4.022,0,0,0,.024.483h-.484v-.239h-1.859v.239H110.9a4.4,4.4,0,0,0,.024-.483Zm.451.943h1.859v-.928h-1.859Zm0,1.443h1.859V105.7h-1.859Z"/><path d="M114.488,103.7h.351l.8,1.871-.8,1.871h-.351l.791-1.871Zm.563,0h.352l.8,1.871-.8,1.871h-.352l.792-1.871Z"/><path d="M137.817,105.284a2.2,2.2,0,0,0-.012-.232c.084.008.172.012.28.012h.872v-.52h-.836a3.688,3.688,0,0,1-.66.788,1.781,1.781,0,0,0-.3-.356,2.493,2.493,0,0,0,.779-1,1.155,1.155,0,0,0,.1-.292l.476.1c-.024.048-.032.059-.06.119,0,.013-.044.1-.116.252h1.871a2.7,2.7,0,0,0,.408-.02v.436a2.944,2.944,0,0,0-.408-.02H139.4v.52h.644a2.936,2.936,0,0,0,.412-.02v.424a3.764,3.764,0,0,0-.4-.016H139.4v.647h.928a3.267,3.267,0,0,0,.436-.024v.456a3.4,3.4,0,0,0-.436-.024H139.4v.5a2.409,2.409,0,0,0,.024.428h-.487a2.915,2.915,0,0,0,.024-.436v-.492h-1.344a3.434,3.434,0,0,0-.435.024v-.456a3.346,3.346,0,0,0,.435.024h.2Zm1.14.815v-.647h-.72v.647Z"/><path d="M152.831,106.167a2.965,2.965,0,0,1-.116.476,2.243,2.243,0,0,1-.472.792,1.561,1.561,0,0,0-.371-.368,1.5,1.5,0,0,0,.427-.7,6.307,6.307,0,0,0,.16-1.879,5.649,5.649,0,0,0-.02-.6,4.036,4.036,0,0,0,.468.02h1.667a3.605,3.605,0,0,0,.464-.02,3.041,3.041,0,0,0-.02.453v2.59c0,.2-.044.316-.144.38a.793.793,0,0,1-.464.08c-.128,0-.26,0-.464-.016a1.475,1.475,0,0,0-.115-.448,4.021,4.021,0,0,0,.587.048c.12,0,.148-.02.148-.108v-.692Zm1.735-.407v-.536h-1.655c0,.124-.008.212-.032.536Zm0-.944v-.5h-1.651v.5Z"/><path d="M166.92,104.333c0-.157-.008-.3-.02-.428a3.758,3.758,0,0,0,.444.019h1.935a3.424,3.424,0,0,0,.432-.019,3.6,3.6,0,0,0-.02.407V106.9a4.022,4.022,0,0,0,.024.483h-.484v-.239h-1.859v.239H166.9a4.165,4.165,0,0,0,.024-.483Zm.452.943h1.859v-.928h-1.859Zm0,1.443h1.859V105.7h-1.859Z"/><path d="M93.042,98.47H92.69l-.8-1.871.8-1.871h.352l-.8,1.871Zm.563,0h-.351l-.8-1.871.8-1.871h.351l-.8,1.871Z"/><path d="M95.327,95.247a2.189,2.189,0,0,0,.184-.527l.5.048c-.072.191-.132.327-.2.479h.927a4.075,4.075,0,0,0,.491-.02,4.022,4.022,0,0,0-.02.492v2.239a2.842,2.842,0,0,0,.024.463h-.459v-.2H94.8v.2h-.452a3.424,3.424,0,0,0,.024-.463V95.719a3.943,3.943,0,0,0-.02-.492,3.99,3.99,0,0,0,.488.02Zm-.524.859h1.975v-.451H94.8Zm0,.84h1.975V96.49H94.8Zm0,.867h1.975V97.33H94.8Z"/><path d="M98.719,95.354a2.452,2.452,0,0,1-.463.481,1.62,1.62,0,0,0-.26-.313,1.539,1.539,0,0,0,.628-.811l.423.08c-.052.108-.064.124-.108.208h.508a2.052,2.052,0,0,0,.392-.023v.3a1.29,1.29,0,0,0,.3-.56l.419.072c-.04.1-.047.116-.092.212h.76a3.169,3.169,0,0,0,.44-.02v.4a3.1,3.1,0,0,0-.42-.02h-.328a2.51,2.51,0,0,1,.144.232l-.364.1a2.37,2.37,0,0,0-.176-.328h-.263a2.055,2.055,0,0,1-.221.264,1.172,1.172,0,0,0-.015.124h.827a3.385,3.385,0,0,0,.424-.017,1.927,1.927,0,0,0-.016.325v.164h.036a2.113,2.113,0,0,0,.364-.021v.38a2.277,2.277,0,0,0-.376-.019h-.024v.159a2.471,2.471,0,0,0,.012.324c-.1-.008-.24-.012-.416-.012h-.831v.152h.943a3.7,3.7,0,0,0,.42-.016v.352a3.027,3.027,0,0,0-.42-.02h-.943v.151H101.2a3.471,3.471,0,0,0,.464-.023v.392a3.978,3.978,0,0,0-.484-.025h-1.151a2.885,2.885,0,0,0,.024.477h-.468a2.98,2.98,0,0,0,.024-.477h-1.06a3.925,3.925,0,0,0-.483.025v-.392a3.672,3.672,0,0,0,.463.023h1.08V97.5h-.868a2.942,2.942,0,0,0-.419.02v-.352a3.762,3.762,0,0,0,.419.016h.868V97.03h-.744a3.524,3.524,0,0,0-.395.016v-.352a3.208,3.208,0,0,0,.395.016h.744v-.151H98.492a3.25,3.25,0,0,0-.428.019v-.384a3.223,3.223,0,0,0,.459.025h1.084v-.153h-.744a3.122,3.122,0,0,0-.391.017V95.73a3.025,3.025,0,0,0,.4.017h.74a.859.859,0,0,0-.02-.156h.364a1.533,1.533,0,0,0-.276-.172c.036-.028.048-.04.072-.06-.084,0-.14,0-.2,0h-.232c.056.089.076.121.14.233l-.364.1a2.136,2.136,0,0,0-.164-.333Zm2.131.712h-.823v.153h.823Zm0,.644v-.151h-.823v.151Z"/><path d="M102.691,96.8a2.646,2.646,0,0,0-.44.024v-.408a2.437,2.437,0,0,0,.44.024h1.028v-.2h-.764a3.15,3.15,0,0,0-.384.017v-.364a2.451,2.451,0,0,0,.384.02h.764v-.177h-.872c-.176,0-.336,0-.416.013a1.754,1.754,0,0,0,.02-.312v-.252a1.915,1.915,0,0,0-.02-.328,4.178,4.178,0,0,0,.452.016h2.379a3.85,3.85,0,0,0,.444-.016,2.3,2.3,0,0,0-.017.328v.252a2.03,2.03,0,0,0,.017.312,3.082,3.082,0,0,0-.412-.013h-1.16v.177h.5a2.882,2.882,0,0,0,.352-.016v.192a1.6,1.6,0,0,0,.32-.316l.383.211a4.736,4.736,0,0,1-.587.456h.364a2.37,2.37,0,0,0,.435-.024v.408a2.685,2.685,0,0,0-.443-.024h-.944c-.136.072-.172.092-.336.172h.944a2.442,2.442,0,0,0,.368-.016c-.009.076-.016.24-.016.38v.739a1.868,1.868,0,0,0,.024.372h-.444v-.156h-1.643v.152h-.436a2.442,2.442,0,0,0,.02-.372v-.6c-.172.055-.336.1-.572.16a1.679,1.679,0,0,0-.215-.388,5.929,5.929,0,0,0,1.559-.444Zm.72-1.61h-.56v.231h.56Zm0,2.11v.168h1.643v-.18h-1.619Zm0,.66h1.643v-.185h-1.643Zm.927-2.77h-.555v.231h.555Zm.132,1.25c.144-.087.188-.116.308-.2h-.644v.2Zm.808-1.019v-.231h-.568v.231Z"/><path d="M107.691,95.774a3.556,3.556,0,0,1,.5.4,4.2,4.2,0,0,0,.684-.693h-1.052a4.142,4.142,0,0,1-1.079.832,1.019,1.019,0,0,0-.272-.335,3.063,3.063,0,0,0,1.419-1.291l.472.116c-.1.151-.14.2-.208.291h.819a2.2,2.2,0,0,0,.352-.02l.236.252c-.048.06-.052.064-.144.184a5.321,5.321,0,0,1-1.2,1.155h1.3a2.462,2.462,0,0,0,.336-.016,2.418,2.418,0,0,0-.02.368v1.028a2.679,2.679,0,0,0,.024.395h-.456v-.215h-1.527v.215H107.4a3,3,0,0,0,.024-.395v-.868a6.812,6.812,0,0,1-.76.36,1.1,1.1,0,0,0-.255-.4,5.846,5.846,0,0,0,.959-.408c.128-.072.26-.156.476-.3a2.883,2.883,0,0,0-.488-.42Zm.172,2.072H109.4v-.788h-1.535Z"/><path d="M110.58,94.728h.351l.8,1.871-.8,1.871h-.351l.791-1.871Zm.563,0h.352l.8,1.871-.8,1.871h-.352l.792-1.871Z"/><line class="cls-4" x1="174.25" y1="110.25" x2="91.25" y2="110.25"/><line class="cls-4" x1="174.25" y1="100.25" x2="92.25" y2="100.25"/><path class="cls-5" d="M35.993,27.891v.373H33.641v2.018h-.385V28.264H30.938v-.373h2.318V25.862H31.233v-.374h4.442v.374H33.641v2.029Zm-3.818-.312a5.332,5.332,0,0,0-.535-1.327l.34-.106a4.818,4.818,0,0,1,.552,1.31Zm3.222-1.3c-.017.039-.056.05-.123.056a9.974,9.974,0,0,1-.663,1.288l-.323-.129a8.2,8.2,0,0,0,.641-1.377Z"/><path class="cls-5" d="M39.777,26.469a11.282,11.282,0,0,0,.357,2.068,6.138,6.138,0,0,0,.746-1.594l.458.139c-.011.039-.056.056-.128.056a6.33,6.33,0,0,1-.937,1.823c.229.591.507.964.831.964.172,0,.251-.307.289-1.07a.9.9,0,0,0,.318.2c-.078.958-.223,1.243-.635,1.243-.452,0-.8-.391-1.071-1A5.035,5.035,0,0,1,38.757,30.3a1.9,1.9,0,0,0-.246-.29,4.339,4.339,0,0,0,1.344-1.109,10.971,10.971,0,0,1-.452-2.436H37.358v.753H38.64l.078-.006.195.011v.129a5.326,5.326,0,0,1-.179,1.962c-.139.15-.284.156-.585.156-.128,0-.273,0-.423-.011a.871.871,0,0,0-.112-.352,6.219,6.219,0,0,0,.624.028.223.223,0,0,0,.179-.056,4.5,4.5,0,0,0,.128-1.516H37.358a4.847,4.847,0,0,1-.624,2.726,1.588,1.588,0,0,0-.3-.245,4.126,4.126,0,0,0,.552-2.38V26.107h2.391c-.022-.329-.033-.663-.039-1l.5.028c0,.045-.039.072-.117.084,0,.295.005.6.022.886h1.823v.362Zm.574-1.327a5.426,5.426,0,0,1,1.014.658l-.234.251a5.665,5.665,0,0,0-1.008-.68Z"/><path class="cls-5" d="M44.62,25.182a2.508,2.508,0,1,1-2.509,2.508A2.5,2.5,0,0,1,44.62,25.182Zm2.307,2.508A2.308,2.308,0,1,0,44.62,30,2.305,2.305,0,0,0,46.927,27.69Z"/><path class="cls-5" d="M50.2,25.182a2.508,2.508,0,1,1-2.509,2.508A2.5,2.5,0,0,1,50.2,25.182Zm2.307,2.508A2.308,2.308,0,1,0,50.2,30,2.305,2.305,0,0,0,52.505,27.69Z"/><path class="cls-5" d="M58.335,28.638v.368H56.25v1.276h-.379V29.006H53.229v-.368h.936V27.105h1.706v-.914H54.433a5.2,5.2,0,0,1-.892,1.125,2.268,2.268,0,0,0-.3-.245,5.126,5.126,0,0,0,1.3-1.99l.473.151a.1.1,0,0,1-.128.05,5.378,5.378,0,0,1-.251.541h3.434v.368H56.25v.914h1.694v.356H56.25v1.177Zm-3.791,0h1.327V27.461H54.544Z"/><path class="cls-5" d="M61.354,25.182a2.508,2.508,0,1,1-2.508,2.508A2.505,2.505,0,0,1,61.354,25.182Zm2.308,2.508A2.308,2.308,0,1,0,61.354,30,2.306,2.306,0,0,0,63.662,27.69Z"/><path class="cls-5" d="M68.694,25.4V29.73c0,.29-.078.418-.284.485a4.651,4.651,0,0,1-1.188.067,2.087,2.087,0,0,0-.161-.4c.267.011.524.017.724.017.485,0,.519,0,.519-.173V28.487H65.545a3.178,3.178,0,0,1-1.026,1.806,1.342,1.342,0,0,0-.279-.279,3.53,3.53,0,0,0,1.054-2.893V25.4Zm-3.021,1.717a7.493,7.493,0,0,1-.061,1H68.3v-1ZM68.3,25.772H65.673v.993H68.3Z"/><path class="cls-5" d="M72.31,25.182A2.508,2.508,0,1,1,69.8,27.69,2.505,2.505,0,0,1,72.31,25.182Zm2.308,2.508A2.308,2.308,0,1,0,72.31,30,2.306,2.306,0,0,0,74.618,27.69Z"/><path class="cls-5" d="M77.889,25.182A2.508,2.508,0,1,1,75.38,27.69,2.5,2.5,0,0,1,77.889,25.182ZM80.2,27.69A2.308,2.308,0,1,0,77.889,30,2.305,2.305,0,0,0,80.2,27.69Z"/><path class="cls-5" d="M81.588,25.466h3.618v4.693h-.39v-.334H81.973v.368h-.385Zm3.228.379H81.973v1.6h2.843Zm-2.843,3.6h2.843V27.813H81.973Z"/><path class="cls-6" d="M31.64,35.887a5.122,5.122,0,0,0-.726.036v-.659a5.429,5.429,0,0,0,.768.042h1.583a3.592,3.592,0,0,0-.042-.54h.731a2.98,2.98,0,0,0-.036.54h1.637a5.155,5.155,0,0,0,.786-.042v.659a6.411,6.411,0,0,0-.744-.036H33.918v.336h1.253a5.8,5.8,0,0,0,.666-.024c-.018.18-.024.378-.024.606v1.109a4.729,4.729,0,0,0,.024.612,4.712,4.712,0,0,0-.671-.03h-.72a4.214,4.214,0,0,0,2.081,1.025,3.966,3.966,0,0,0-.342.636,6.246,6.246,0,0,1-1.229-.546,3.887,3.887,0,0,1-1.05-.863c.006.2.012.312.012.414v.431a3.675,3.675,0,0,0,.042.684h-.737a4.963,4.963,0,0,0,.042-.684v-.431c0-.073.006-.294.012-.408a3.92,3.92,0,0,1-1.146.947,6.214,6.214,0,0,1-1.025.462,2.564,2.564,0,0,0-.336-.606,4.95,4.95,0,0,0,1.127-.444,3.534,3.534,0,0,0,.858-.617h-.648a4.56,4.56,0,0,0-.677.03.782.782,0,0,1,.018-.174c0-.024,0-.024.006-.438v-1.1a5.727,5.727,0,0,0-.024-.618,4.191,4.191,0,0,0,.653.03h1.182v-.336Zm.449.852V37.1h1.176v-.365Zm0,.864v.377h1.176V37.6Zm1.829-.5h1.26v-.365h-1.26Zm0,.876h1.26V37.6h-1.26Z"/><path class="cls-6" d="M38.713,38.55A4.873,4.873,0,0,1,37.268,40.1a2.006,2.006,0,0,0-.426-.522,3.439,3.439,0,0,0,.785-.605,2.894,2.894,0,0,0,.528-.738Zm.522-3.341a2.485,2.485,0,0,0-.036-.437h.743a2.151,2.151,0,0,0-.036.432v.179h1.716a4.212,4.212,0,0,0,.7-.042v.678a3.633,3.633,0,0,0-.659-.036H37.592a3.568,3.568,0,0,0-.648.036v-.678a4.274,4.274,0,0,0,.72.042h1.571Zm-1.08,2.921c-.263,0-.378.006-.539.018a3.546,3.546,0,0,0,.024-.474v-.857c0-.2-.006-.312-.006-.324s-.007-.036-.012-.084a.43.43,0,0,0-.006-.078c.048.006.048.006.143.012.054.006.246.012.4.012H41.04a3.454,3.454,0,0,0,.545-.024,3.65,3.65,0,0,0-.023.486v.857c0,.21.005.312.018.474-.139-.012-.312-.018-.546-.018h-1.05v1.5c0,.462-.2.594-.905.594-.1,0-.156,0-.486-.006a1.847,1.847,0,0,0-.174-.642,4.422,4.422,0,0,0,.654.054c.2,0,.246-.024.246-.126V38.13Zm.12-.594h2.651v-.618H38.275Zm2.711.7a3.022,3.022,0,0,0,.594.714,3.539,3.539,0,0,0,.827.569,2.514,2.514,0,0,0-.426.576,4.932,4.932,0,0,1-.893-.743,6.074,6.074,0,0,1-.624-.78Z"/><path class="cls-6" d="M43.55,37.081a3.447,3.447,0,0,0-.636.036v-.63a3.382,3.382,0,0,0,.636.036h.485v-.576h-.311a3.79,3.79,0,0,0-.564.03v-.618a3.4,3.4,0,0,0,.564.031h.311v-.144a4.063,4.063,0,0,0-.03-.486h.7a2.2,2.2,0,0,0-.036.486v.144h.126a2.051,2.051,0,0,0,.432-.031v.462A4.3,4.3,0,0,0,45.612,35l.534.317a3.535,3.535,0,0,0-.024-.383c.162.012.282.018.528.018h.959a2.476,2.476,0,0,0,.492-.03l.282.413a1.871,1.871,0,0,0-.1.24c-.036.084-.2.492-.27.654-.012.03-.072.162-.168.372-.036.084-.1.216-.168.39a3.028,3.028,0,0,1,.51.821,1.945,1.945,0,0,1,.168.756.831.831,0,0,1-.486.875,1.946,1.946,0,0,1-.815.1,1.389,1.389,0,0,0-.162-.665c.186.012.246.018.317.018.342,0,.48-.1.48-.33a2,2,0,0,0-.084-.582,2.146,2.146,0,0,0-.6-.936,8.894,8.894,0,0,0,.617-1.517h-.845V39.5a7.67,7.67,0,0,0,.036.816H46.11a6.352,6.352,0,0,0,.036-.828V35.4c-.048.078-.054.09-.1.181a7.254,7.254,0,0,1-.611.947h.053a3.762,3.762,0,0,0,.486-.03v.6a4.981,4.981,0,0,0-.581-.023h-.432c-.18.2-.282.3-.444.449h.708a3.377,3.377,0,0,0,.491-.024c-.011.162-.018.282-.018.642v1.427a5.847,5.847,0,0,0,.024.618h-.629v-.21H44.077V40.3H43.43a4.5,4.5,0,0,0,.036-.666V38.388c-.144.108-.222.156-.414.282a1.616,1.616,0,0,0-.336-.582,6.029,6.029,0,0,0,1.463-1.007Zm.521,1.409h1.02v-.468h-1.02Zm0,.977h1.02v-.491h-1.02Zm.648-2.944a4.965,4.965,0,0,0,.426-.564,2.217,2.217,0,0,0-.282-.012h-.192v.576Z"/><path class="cls-6" d="M51.223,35.875c-.846.1-1.056.114-1.757.144a1.868,1.868,0,0,0-.246-.629,13.764,13.764,0,0,0,3.472-.408,2.5,2.5,0,0,0,.66-.252l.449.6c-.2.047-.2.053-.384.1a10.662,10.662,0,0,1-1.487.347v1.254h1.7a4.248,4.248,0,0,0,.7-.042v.7a4.73,4.73,0,0,0-.69-.042H51.93v1.943a4.441,4.441,0,0,0,.042.738h-.791a4.829,4.829,0,0,0,.042-.75V37.65H49.616a4.754,4.754,0,0,0-.684.042v-.7a4.38,4.38,0,0,0,.684.042h1.607Z"/><path class="cls-6" d="M55.64,37.944c0-.306.006-.462.018-.69a4.258,4.258,0,0,1-.612.75,2.421,2.421,0,0,0-.318-.69,5.2,5.2,0,0,0,1.206-1.781,3.6,3.6,0,0,0,.233-.785l.684.234a9.835,9.835,0,0,1-.558,1.277v3.322a5.148,5.148,0,0,0,.042.726H55.6a4.916,4.916,0,0,0,.042-.738ZM58.452,37a4.764,4.764,0,0,0,.611,1.848c.2.336.48.635.588.635s.2-.294.258-1.007a2.48,2.48,0,0,0,.57.39c-.138,1.025-.348,1.409-.773,1.409a1.3,1.3,0,0,1-.918-.612,5.242,5.242,0,0,1-1.008-2.608l-.635.053a4.274,4.274,0,0,0-.6.073l-.018-.672c.1.006.144.006.186.006.114,0,.306-.012.456-.024l.545-.042c-.042-.48-.042-.54-.053-1.139,0-.121-.018-.342-.031-.444l.726-.012a2.3,2.3,0,0,0-.03.45,9.551,9.551,0,0,0,.06,1.085l1.283-.1a4.681,4.681,0,0,0,.654-.084l.018.678c-.1-.007-.138-.007-.174-.007-.1,0-.246.007-.444.025Zm.63-2.152a8.457,8.457,0,0,1,.917.929l-.5.456a3.418,3.418,0,0,0-.438-.527,5.3,5.3,0,0,0-.449-.462Z"/><path class="cls-6" d="M65.43,40.229V39.9H61.8v.33h-.683a6.492,6.492,0,0,0,.036-.756V35.708a5.4,5.4,0,0,0-.03-.642,6.193,6.193,0,0,0,.7.03h3.6a6.144,6.144,0,0,0,.69-.03,5.133,5.133,0,0,0-.03.635v3.772a6.564,6.564,0,0,0,.036.756ZM61.8,37.152h1.452V35.7H61.8Zm0,2.153h1.452V37.746H61.8Zm2.1-2.153h1.528V35.7H63.9Zm0,2.153h1.528V37.746H63.9Z"/><path class="cls-6" d="M72.287,40.031a4.485,4.485,0,0,0-.654-.036H67.819v.282h-.707a5.612,5.612,0,0,0,.036-.7V35.659c0-.251-.006-.443-.024-.641a4.987,4.987,0,0,0,.647.03H71.5a4.168,4.168,0,0,0,.707-.042v.7a4.356,4.356,0,0,0-.7-.037H67.819v3.7h3.808a3.483,3.483,0,0,0,.66-.036Zm-.906-.906a15.379,15.379,0,0,0-1.259-1.187,7.077,7.077,0,0,1-1.7,1.3,3.822,3.822,0,0,0-.48-.515,6.667,6.667,0,0,0,1.686-1.194,13.524,13.524,0,0,0-1.386-.947l.456-.468c.8.528.809.534,1.361.936a4.361,4.361,0,0,0,.768-1.3l.659.311a3.346,3.346,0,0,0-.186.306,6.456,6.456,0,0,1-.731,1.079c.462.366.809.666,1.325,1.146Z"/><path class="cls-6" d="M73.909,36.883c.33.221.552.384.8.575a5.187,5.187,0,0,0,.15-1.019H73.813a5,5,0,0,0-.671.036v-.714a4.731,4.731,0,0,0,.666.036h1.073c.006-.113.006-.131.006-.264a3.357,3.357,0,0,0-.048-.749h.744a5.46,5.46,0,0,0-.048,1.013h1.013a5.276,5.276,0,0,0,.683-.03,3.969,3.969,0,0,0-.023.522l-.037,3.13c0,.066.007.1.037.12a.675.675,0,0,0,.233.036c.24,0,.312-.03.348-.15a5.471,5.471,0,0,0,.078-1.139,1.98,1.98,0,0,0,.618.246c-.03.917-.114,1.319-.306,1.505-.138.132-.318.174-.785.174-.714,0-.876-.108-.876-.552l.036-3.22H75.511a5.887,5.887,0,0,1-.24,1.481c.383.33.575.51.875.816l-.39.581c-.294-.323-.444-.48-.743-.761A4.628,4.628,0,0,1,73.3,40.319a2.622,2.622,0,0,0-.468-.606,3.405,3.405,0,0,0,1.655-1.625,9.815,9.815,0,0,0-.977-.726Z"/><path class="cls-6" d="M81.462,38.412c-.341.774-.725,1.127-1.217,1.127-.683,0-1.175-.7-1.175-1.661a2.581,2.581,0,0,1,.659-1.745,2.7,2.7,0,0,1,2.063-.84,2.162,2.162,0,0,1,2.375,2.226,2.31,2.31,0,0,1-1.457,2.236,3.926,3.926,0,0,1-.941.252,1.929,1.929,0,0,0-.366-.7,3.191,3.191,0,0,0,1.193-.329,1.679,1.679,0,0,0,.834-1.5,1.488,1.488,0,0,0-.738-1.332,1.311,1.311,0,0,0-.606-.18A8.673,8.673,0,0,1,81.462,38.412Zm-.881-2.147a2.007,2.007,0,0,0-.815,1.619c0,.492.21.882.473.882.2,0,.4-.252.618-.768a7.859,7.859,0,0,0,.5-2.027A1.527,1.527,0,0,0,80.581,36.265Z"/><path class="cls-6" d="M89.447,38.238a2.261,2.261,0,0,0-.395.564,4.462,4.462,0,0,1-1.446-1.524,2.715,2.715,0,0,1-.287.57,3.441,3.441,0,0,1-1.14,1.062,2.247,2.247,0,0,0-.384-.5v1.163a4.762,4.762,0,0,0,.031.714h-.738a5.036,5.036,0,0,0,.042-.726V36.139a5.255,5.255,0,0,0-.024-.581,5.719,5.719,0,0,0,.7.029h1.47c.006-.137.006-.221.006-.323a3.111,3.111,0,0,0-.036-.528h.749a1.416,1.416,0,0,0-.036.3c-.006.084-.006.084-.017.33-.007.125-.007.125-.013.221h1.53a5.227,5.227,0,0,0,.683-.029,5.118,5.118,0,0,0-.024.581v3.436c0,.252-.018.342-.09.432-.132.168-.348.216-.911.216-.162,0-.342-.006-.582-.018a2.235,2.235,0,0,0-.186-.684,5.611,5.611,0,0,0,.78.066c.293,0,.323-.018.323-.191Zm-3.652.1a2.734,2.734,0,0,0,1-.9,3.059,3.059,0,0,0,.426-1.248H85.8Zm2.075-2.147c-.017.15-.024.18-.042.288a3.518,3.518,0,0,0,.678.995,4.065,4.065,0,0,0,.941.7V36.187Z"/><path class="cls-6" d="M97.043,39.215l-.263.27-1.661-1.661-1.656,1.661-.263-.27,1.654-1.654L93.2,35.905l.263-.27L95.119,37.3l1.661-1.661.263.264-1.655,1.662Z"/><path class="cls-6" d="M98.324,37.788h1.637v.384H98.324Z"/><path class="cls-6" d="M105.089,39.215l-.263.27-1.661-1.661-1.656,1.661-.263-.27,1.654-1.654-1.654-1.656.263-.27,1.656,1.661,1.661-1.661.263.264-1.655,1.662Z"/><path class="cls-6" d="M106.37,37.788h1.637v.384H106.37Z"/><path class="cls-6" d="M113.135,39.215l-.263.27-1.662-1.661-1.655,1.661-.263-.27,1.654-1.654-1.654-1.656.263-.27L111.21,37.3l1.662-1.661.263.264-1.655,1.662Z"/><path class="cls-6" d="M119.135,39.215l-.263.27-1.662-1.661-1.655,1.661-.263-.27,1.654-1.654-1.654-1.656.263-.27L117.21,37.3l1.662-1.661.263.264-1.655,1.662Z"/><path class="cls-7" d="M93.273,31.436a2.108,2.108,0,0,0,.808.674,3.944,3.944,0,0,0,1.615.456v.064a.707.707,0,0,0-.381.409,1.428,1.428,0,0,0-.063.2c-.012.046-.029.064-.064.064a1.9,1.9,0,0,1-.5-.219,3.65,3.65,0,0,1-1.506-1.587l.012.7c.023.883.023.883.029,1.119,0,.069-.012.1-.047.127a.842.842,0,0,1-.409.057c-.179,0-.208-.017-.213-.126.011-.271.034-.819.034-1.033l.006-.4a4.966,4.966,0,0,1-1.165.889,5.914,5.914,0,0,1-1.171.49l-.035-.075a5.651,5.651,0,0,0,2.036-1.811h-.64v.086c-.006.064-.017.093-.046.116a.817.817,0,0,1-.392.063c-.15,0-.185-.023-.191-.139.03-.564.035-.79.035-1.314A8.144,8.144,0,0,0,91,29.313c.3.133.381.173.687.317h.905v-.623H90.828a2.338,2.338,0,0,0-.438.035l-.047-.213a2.188,2.188,0,0,0,.485.057h1.759a3.338,3.338,0,0,0-.046-.732c.79.075.877.092.877.173,0,.052-.052.092-.225.15v.409H94.45c.2-.219.254-.282.45-.49.283.219.369.289.652.525.023.023.029.035.029.052s-.023.034-.058.034h-2.33v.623h1c.133-.144.174-.19.312-.322.208.138.271.184.461.328.064.046.087.075.087.11s-.052.092-.214.173c0,.923,0,.969.018,1.563v.023a.117.117,0,0,1-.041.1.8.8,0,0,1-.42.075c-.122,0-.15-.023-.162-.11v-.138Zm-.686-1.685h-.969v.7h.969Zm0,.825h-.969v.738h.969Zm1.644-.825H93.193v.7h1.038Zm0,.825H93.193v.738h1.038Z"/><path class="cls-7" d="M96.354,33.2a5.3,5.3,0,0,0,.9-1.038,3.918,3.918,0,0,0,.392-.71c.721.259.808.294.808.358s-.052.063-.277.086A4.774,4.774,0,0,1,96.4,33.252Zm4.257-4.153c.19-.214.248-.283.438-.485.3.22.392.283.7.52a.07.07,0,0,1,.024.04c0,.029-.029.046-.064.046H96.856a1.819,1.819,0,0,0-.352.035l-.04-.2a1.45,1.45,0,0,0,.387.046H98.7v-.415a2.552,2.552,0,0,0-.035-.462c.2.017.346.029.444.035.364.028.508.063.508.132s-.063.1-.248.156v.554ZM99.394,32l.006.923a.372.372,0,0,1-.173.346,1.151,1.151,0,0,1-.427.15,1.029,1.029,0,0,1-.219.029c-.058,0-.081-.017-.087-.081-.046-.346-.121-.4-.784-.577v-.063c.1,0,.179.011.23.011.531.035.531.035.756.041.058,0,.081-.018.081-.07V31.084h-.854v.138a.1.1,0,0,1-.086.1,1.522,1.522,0,0,1-.381.041c-.15,0-.185-.023-.19-.11.011-.294.017-.456.017-.831,0-.53-.006-.714-.023-1.009a6.73,6.73,0,0,1,.727.358h2.151c.133-.15.173-.2.317-.346a5.779,5.779,0,0,1,.514.357c.034.023.052.047.052.07a.191.191,0,0,1-.029.057c-.017.012-.075.052-.185.115v.3c0,.294,0,.438.017.917,0,.08-.023.109-.1.127a3.3,3.3,0,0,1-.4.029c-.11,0-.144-.024-.15-.093v-.219h-.779Zm-1.471-1.038h2.25V29.89h-2.25Zm1.857.6a5.88,5.88,0,0,1,1.252.548.654.654,0,0,1,.323.525c0,.277-.167.566-.329.566-.069,0-.121-.058-.2-.22a4,4,0,0,0-1.078-1.361Z"/><path class="cls-7" d="M102.412,30.986a6.467,6.467,0,0,0,1.142-1.523,3.819,3.819,0,0,0,.5-1.182c.767.288.9.352.9.421s-.08.1-.271.11a6.1,6.1,0,0,1-1.009,1.355,4.984,4.984,0,0,1-1.211.888Zm3.183-.012a9.976,9.976,0,0,1,1.136.923,1.213,1.213,0,0,1,.456.762c0,.3-.23.663-.427.663-.092,0-.138-.064-.19-.225a4.546,4.546,0,0,0-.225-.652c-.323.093-.6.156-1,.243-.5.109-.611.132-1.5.293-.329.064-.329.064-.589.11-.04.173-.069.225-.127.225-.08,0-.086-.029-.3-.946.219.017.311.023.473.023l.38-.006a10.574,10.574,0,0,0,.917-2.613c.8.18.969.237.969.318s-.057.1-.26.127a11.971,11.971,0,0,1-1.36,2.163c.115,0,.115,0,.3-.006.612-.006,1.143-.035,2.019-.11a4.944,4.944,0,0,0-.738-1.234Zm.2-2.682a.352.352,0,0,0-.012.087,1.634,1.634,0,0,0,.479.842,3.372,3.372,0,0,0,1.02.79,3.113,3.113,0,0,0,.7.265v.064a.7.7,0,0,0-.346.271,1.494,1.494,0,0,0-.173.311c-.023.058-.04.081-.069.081a.64.64,0,0,1-.213-.127,3.887,3.887,0,0,1-1-1.136,5.16,5.16,0,0,1-.485-1.136.586.586,0,0,0-.121-.243Z"/><path class="cls-7" d="M111.508,29.429h1.315c.219-.237.219-.237.439-.479.282.213.369.277.64.5.023.028.035.046.035.057s-.029.041-.07.041H111.6a1.976,1.976,0,0,0,.657.4,5.229,5.229,0,0,0,1.754.323v.052a.735.735,0,0,0-.346.542c-.012.057-.035.08-.064.08a4.787,4.787,0,0,1-.8-.277,3.646,3.646,0,0,1-1.292-1.055l.012.352c0,.139.006.329.017.565v.023c0,.1-.092.133-.392.133-.213,0-.248-.012-.248-.1V30.57c.017-.328.017-.345.017-.466v-.191a5.457,5.457,0,0,1-1.165.779,6.18,6.18,0,0,1-1.159.427l-.023-.064a6.822,6.822,0,0,0,1.938-1.5h-1.408a1.455,1.455,0,0,0-.334.034l-.035-.2a1.574,1.574,0,0,0,.369.047h1.817v-.52c-.5.035-.79.047-1.118.047-.185,0-.364-.006-.722-.018l-.011-.075A13.435,13.435,0,0,0,111,28.575a6.237,6.237,0,0,0,1.54-.479c.733.456.738.462.738.513,0,.035-.04.064-.086.064a1.254,1.254,0,0,1-.266-.04,13.253,13.253,0,0,1-1.413.224Zm1.154,2.03a3.2,3.2,0,0,1-.548.9,3.248,3.248,0,0,1,1.015.3.486.486,0,0,1,.231.438c0,.225-.081.375-.2.375-.046,0-.093-.023-.2-.1a6.673,6.673,0,0,0-1.183-.692,2.933,2.933,0,0,1-1.159.582,6.729,6.729,0,0,1-1.8.214l-.011-.064a6.382,6.382,0,0,0,1.724-.49,3,3,0,0,0,.71-.456,5.355,5.355,0,0,0-.848-.248l-.15.2a.214.214,0,0,1-.19.1,2.214,2.214,0,0,1-.45-.064c-.041-.017-.063-.04-.063-.063a.146.146,0,0,1,.034-.07,6.611,6.611,0,0,0,.634-.853h-1.124a1.386,1.386,0,0,0-.323.034l-.035-.2a1.275,1.275,0,0,0,.352.041h1.2a2.418,2.418,0,0,0,.306-.629c.179.035.311.063.4.075.363.069.427.087.427.144s-.069.087-.26.11c-.08.144-.109.19-.179.3h1.857c.174-.185.225-.243.387-.4.277.179.363.236.623.433.029.023.04.04.04.057s-.023.035-.063.035Zm-1.754,0c-.144.23-.277.427-.438.657.462.052.8.092,1,.127a2.6,2.6,0,0,0,.49-.784Z"/><rect class="cls-8" x="89.333" y="26.799" width="26.042" height="8.901" rx="1.097" ry="1.097"/></g></g></svg>