<svg xmlns="http://www.w3.org/2000/svg" width="165" height="104" viewBox="0 0 165.118 104"><defs><style>.cls-1{fill:#fff;}.cls-2{fill:#221e1f;}.cls-3{fill:#1a1a1a;}.cls-4{fill:#ecae32;}.cls-5{fill:#d7972c;}.cls-6{fill:#ccc;}.cls-7{fill:#3f8acb;}.cls-8{fill:#212121;}.cls-9{fill:#666;}</style></defs><title>17</title><g id="レイヤー_2" data-name="レイヤー 2"><g id="レイヤー_1-2" data-name="レイヤー 1"><rect class="cls-1" x="0.25" y="0.25" width="164.5" height="103.5" rx="3.746" ry="3.746"/><path d="M161.005.5A3.5,3.5,0,0,1,164.5,4v96.01a3.5,3.5,0,0,1-3.5,3.5H4a3.5,3.5,0,0,1-3.495-3.5V4A3.5,3.5,0,0,1,4,.5h157.01m0-.5H4A4.007,4.007,0,0,0,0,4v96.01a4.007,4.007,0,0,0,4,4h157.01a4.007,4.007,0,0,0,4-4V4a4.007,4.007,0,0,0-4-3.995Z"/><polygon class="cls-2" points="7.66 5.833 13.325 8.038 13.325 3.609 7.66 5.833"/><rect class="cls-3" x="0.5" y="10.083" width="164.618" height="14.046"/><path class="cls-4" d="M21,34.846H38.9a3.729,3.729,0,0,1,3.729,3.729V56.469A3.729,3.729,0,0,1,38.9,60.2H21.007a3.729,3.729,0,0,1-3.729-3.729v-17.9A3.726,3.726,0,0,1,21,34.846Z"/><path class="cls-5" d="M42.629,48.056V46.988H38.692V34.846H37.624v9.492a5.388,5.388,0,0,0-4.33-2.178h-.073V34.846H32.153V42.16H30.94l-.136.332a.924.924,0,0,1-.334.412.9.9,0,0,1-.517.16.913.913,0,0,1-.518-.16.934.934,0,0,1-.333-.412l-.135-.332H27.749V34.846H26.682v8.38h1.611a1.972,1.972,0,0,0,3.321,0h1.68a4.33,4.33,0,0,1,4.33,4.189v.3a4.326,4.326,0,0,1-4.33,4.187H31.632a1.977,1.977,0,0,0-2.817-.574,1.934,1.934,0,0,0-.54.574H26.612a4.326,4.326,0,0,1-4.332-4.238V34.846H21.212V46.988H17.278v1.068h3.934V60.2H22.28V50.785a5.39,5.39,0,0,0,4.332,2.183h.07V60.2h1.067V52.968h1.215l.131-.344a.943.943,0,0,1,.331-.426.918.918,0,0,1,.527-.165.907.907,0,0,1,.525.165.921.921,0,0,1,.333.426l.132.344h1.21V60.2h1.068V52.968h.073a5.388,5.388,0,0,0,4.33-2.179V60.2h1.068V48.056Z"/><path class="cls-1" d="M34,98.04H10.114V74.155H34ZM24.557,80.647h.708v-.718h-.124l-.585-.008v-.714h.708V77.049h-.715v.717H23.113v.723h.71V79.2H22.384v-.712H21.67v1.44h.716c0,.058,0,.1,0,.15,0,.189,0,.379.008.568H20.938v.728h-.722v.714h-.688c-.007,0-.014-.01-.022-.015v-.7h.715V79.928h.713v-.71H18.782v.713h.71v.724h-.711v1.438h.7c.01,0,.021-.012.031-.018v.743H17.339v.723h2.892a.344.344,0,0,0-.01.063q0,.653,0,1.3a.521.521,0,0,0,.009.069h.706V83.54h.73v.713h.727V83.54h2.152v.725h-.718v.717H23.1v.725h-.718v-.72h-.716v1.441h.712v.72H20.938v2.157l0,0a.335.335,0,0,1-.054.008H19.562c-.018,0-.036,0-.055,0v-.7a1.182,1.182,0,0,1,.118-.013c.2,0,.389,0,.6,0V86.424h.711V85.7H19.5V84.268H18.78v2.159H19.5v.12q0,.971,0,1.94c0,.04,0,.08.009.12l-.6-.014c-.041,0-.083,0-.126,0v2.168H19.5v.711H18.78v3.612H19.5v-.722h.73c0,.2-.007.4-.01.6,0,.039,0,.078.006.117h.708v-.721h.732v.722h2.162v-.722h1.443v.722H26V94.37h.723v.713h4.325V92.2H29.6c0-.048,0-.087,0-.127l-.009-.605a.481.481,0,0,0,.065.008h1.323a.428.428,0,0,0,.061-.009V90.036H28.886q0-.366,0-.732H29.6v-.7h-.709v.7h-.722V87.865h.718v-.111q0-.606,0-1.212c0-.034.006-.067.009-.1.061,0,.122-.013.183-.013.173,0,.345,0,.528,0v1.446h.724v.713h.715v-1.44h-.712v-.724h.712V84.26h-.722V82.821h-.712v2.164h.709v.723H28.9v.734l-.738-.006v-1.46h.72v-.7H27.429c0-.021.007-.043.007-.064q0-.663,0-1.325a.394.394,0,0,0-.009-.06h-.709c0,.213,0,.421,0,.629,0,.274,0,.547.006.82h-.732v.708h-.727c0-.034.006-.068.006-.1V83.539h.716v-.728H24.556V82.1h.709v-.726h-.708Zm-9.381,7.219v-.714H14.45v.712h.729c0,.145-.008.291-.01.436,0,.095,0,.19,0,.3h1.443v.711h1.435v-.716h-.708v-.723h.709v-.726H17.34v-.719h.709v-.711H16.608v2.154Zm0-2.166v.72h.7V85.7h-.706a.362.362,0,0,1-.006-.046V84.323c0-.018,0-.035.007-.062.15,0,.295,0,.44,0,.086,0,.172.009.258.013,0,.163.01.326.014.49,0,.07,0,.14,0,.211h2.159v-.709a.7.7,0,0,0-.071-.006H15.963a.6.6,0,0,0-.091.015c.006-.052.015-.1.016-.156,0-.192,0-.384,0-.585H16.6v-.715h-3.6v1.441h.716V85.7ZM26,77.05v5.038h5.046V77.05ZM18.049,90.041h-5.04v5.041h5.04ZM13.007,77.048v5.041h5.041V77.048Zm0,9.384V89.3h.707V86.432Zm7.219-9.383V78.48h.707V77.049Zm7.937,5.77v.716h.71v-.716Zm-8.673-4.337V77.77h-.71v.712Zm2.177-.726h.712v-.707h-.712Z"/><path d="M28.893,86.441c0,.034-.009.067-.009.1q0,.606,0,1.212v.111h-.718v1.441h.722l0,0,0,.732,0,0h-.722v.73h.722l0,0v.707h-.719V92.2h.716v-.729l.715.007,0,0,.009.605c0,.04,0,.079,0,.127h1.441v2.882H26.718V94.37H26v.714h-.723v-.722H23.829l0,0c0-.257,0-.514,0-.771,0-.22,0-.44.006-.66.033,0,.066-.01.1-.01.41,0,.82,0,1.23,0h.1v-.719H23.837v.731l-.738-.007v-.722h-.7v.722l-1.46,0,0,0V92.2h-.711l0,0V91.47H19.5l0,0v-.711H18.78V88.593c.043,0,.085,0,.126,0l.6.014h0v.7c.019,0,.037,0,.055,0h1.324a.335.335,0,0,0,.054-.008v1.46h.726v.709H23.1v-.717h-.712v-.722h-.724v-.728h-.724V87.148h1.443v-.72h-.712V84.987h.716v.72H23.1l0,0v1.438h1.453v-.709h.72v.717h.715v.724h-4.32v.719h2.157V89.3h-.714v.73h.722v1.441h.713V90.035H23.83c0-.246,0-.491-.007-.737a.8.8,0,0,0,.108.013h.625v-.722h2.165V86.433h.719v.7h.72v-.706l0,0,.738.006Zm-1.462,5.032V89.319H25.276v2.154Zm0,1.451v-.719h-.717v.718H26v.716h2.154v-.715Zm1.455,1.434h1.429v-1.43H29.6v.716h-.712Z"/><path d="M26,77.05h5.046v5.038H26Zm4.325.718h-3.6v3.6h3.6Z"/><path d="M18.049,90.041v5.041h-5.04V90.041Zm-.72,4.32v-3.6h-3.6v3.6Z"/><path d="M13.007,77.048h5.041v5.041H13.007Zm4.321,4.322v-3.6h-3.6v3.6Z"/><path d="M15.874,84.275c-.086,0-.172-.012-.258-.013-.145,0-.29,0-.44,0,0,.027-.007.044-.007.062v1.334a.362.362,0,0,0,.006.046l0,0H13.724V84.262h-.716V82.821h3.6v.715h-.715c0,.2,0,.393,0,.585,0,.052-.01.1-.016.156Z"/><path d="M15.874,86.418c-.086,0-.172-.012-.258-.013-.145,0-.29,0-.44,0,0,.027-.007.045-.007.062V87.8a.362.362,0,0,0,.006.046l0,0H13.724V86.406h-.716V84.964h3.6v.715h-.715c0,.2,0,.393,0,.585,0,.052-.01.1-.016.156Z"/><path d="M24.556,82.1v.707h1.431v.728h-.716v1.338c0,.034,0,.068-.006.1l0,0h-.715V85.7H23.1l0,0v-.725h.724v-.717h.718V83.54H22.393l0,0v-.73h.712V81.378h.724l0,0v.72c.105,0,.2,0,.285,0l.446.011Z"/><path d="M28.9,86.442v-.734h1.423v-.723h-.709V82.821h.712V84.26h.722v2.162h-.712v.724h.712v1.44h-.715v-.713H29.6V86.427c-.183,0-.355,0-.528,0-.061,0-.122.008-.183.013Z"/><path d="M22.4,80.65c0-.189-.006-.379-.008-.568,0-.046,0-.092,0-.15H21.67v-1.44h.714V79.2h1.439v-.715h-.71v-.723h1.436v-.717h.715v2.158h-.708v.714l0,0c-.04,0-.08.009-.12.009H23.1v.718h-.708Z"/><path d="M15.177,87.866h1.431V85.712h1.441v.711H17.34v.719h.708v.726h-.709v.723h.708v.716H16.612V88.6H15.169c0-.106,0-.2,0-.3,0-.145.007-.291.01-.436Z"/><path d="M20.231,94.362H19.5v.722H18.78V91.472H19.5l0,0V92.2h.731l0,0v.731h.711l0,0v.711l0,0h-.711v.73Z"/><path d="M21.666,83.54h-.73l0,0v-.721h-.711v.721l0,0H17.339v-.723h2.169v-.741c.007.005.014.015.021.015h.688v-.714h.722l0,0v.72c.114,0,.209,0,.3,0l.425.011,0,0v1.439Z"/><path d="M19.509,87.881c0-.04-.009-.08-.009-.12q0-.97,0-1.94V85.7H18.78V83.542H19.5v1.433h1.438V85.7h-.711v2.168h-.6a1.179,1.179,0,0,0-.118.012Z"/><path d="M19.508,82.074c-.01.006-.021.018-.031.018h-.7V80.655h.711v-.724h-.71v-.713h2.152v.71h-.713v1.447h-.715c0,.238,0,.47,0,.7Z"/><path d="M28.886,90.036h2.156v1.432a.428.428,0,0,1-.061.009H29.658a.481.481,0,0,1-.065-.008l0,0v-.712h-.712l0,0v-.73Z"/><path d="M25.265,84.979h.727v-.708h.732l0,0v2.153h-.729V85.7h-.725v-.725Z"/><path d="M27.429,84.271h1.448v.7h-.72v1.46l0,0h-.718c0-.047,0-.077,0-.107,0-.2,0-.4,0-.605q0-.726,0-1.452Z"/><path d="M13.009,86.432h.707V89.3h-.707Z"/><path d="M20.938,81.378V80.65H22.4l0,0c0,.035,0,.069,0,.1,0,.413,0,.827,0,1.24,0,.033,0,.066,0,.105h-.149l-.568.008,0,0v-.731h-.73Z"/><path d="M23.829,94.362v.722H21.667v-.722l0,0h2.167Z"/><path d="M15.872,84.277a.6.6,0,0,1,.091-.015h2.013a.7.7,0,0,1,.071.006v.709H15.888c0-.071,0-.141,0-.211,0-.164-.009-.327-.014-.49Z"/><path d="M26.724,84.271c0-.273,0-.546-.006-.82,0-.208,0-.416,0-.629h.709a.394.394,0,0,1,.009.06q0,.663,0,1.325c0,.021,0,.043-.007.064l0,0h-.711Z"/><path d="M20.228,77.049h.707V78.48h-.707Z"/><path d="M20.936,83.54v1.435H20.23a.521.521,0,0,1-.009-.069q0-.651,0-1.3a.344.344,0,0,1,.01-.063l0,0h.711Z"/><path d="M21.667,94.362h-.732l0,0v-.73l0,0h.728v.728Z"/><path d="M24.557,80.647v.731l0,0h-.731l0,0V80.65h.728Z"/><path d="M28.165,82.819h.71v.716h-.71Z"/><path d="M15.172,88.593h-.73v-.711h.726q0,.358,0,.714Z"/><path d="M22.393,83.54v.713h-.727V83.54l0,0H22.4Z"/><path d="M19.492,78.482h-.71V77.77h.71Z"/><path d="M21.669,77.756v-.707h.712v.707Z"/><path d="M20.935,94.362v.721h-.708c0-.039-.007-.078-.006-.117,0-.2.007-.4.01-.6l0,0h.712Z"/><path d="M24.556,79.921l.585.008h.124v.718h-.708l0,0v-.731Z"/><path d="M15.175,85.7h.706v.717h-.7V85.7Z"/><path d="M18.045,87.151h.706v.717h-.7v-.72Z"/><path d="M24.557,81.378h.708V82.1h-.709l0,0v-.731Z"/><path d="M28.887,89.306v-.7H29.6v.7h-.712Z"/><path class="cls-1" d="M26.721,84.268h.711q0,.726,0,1.452c0,.2,0,.4,0,.605,0,.03,0,.06,0,.107h.718v.706h-.72v-.7h-.719v2.156H24.556v.722h-.625a.991.991,0,0,1-.108-.012l0,0v-.708H21.668v-.719h4.32V87.15h-.715v-.717h-.72v.709H23.1V85.7h1.452v-.727h.715V85.7h.725v.719h.729Z"/><path class="cls-1" d="M27.431,91.473H25.276V89.319h2.155ZM26,90.753h.713v-.714H26Z"/><path class="cls-1" d="M21.664,94.365v-.728h-.728v-.711l1.46,0,0,0v.711H23.1v-.711l0,0,.738.007v0c0,.22-.006.44-.006.66,0,.257,0,.514,0,.771Z"/><path class="cls-1" d="M20.938,89.305h.724v.728h.724v.722H23.1v.717H21.666v-.709H20.94V89.3Z"/><path class="cls-1" d="M27.434,92.924h.72v.715H26v-.716h.717v-.718h.717Z"/><path class="cls-1" d="M28.889,94.358v-.714H29.6v-.716h.717v1.43Z"/><path class="cls-1" d="M23.83,90.035h.716v1.438h-.713V90.032Z"/><path class="cls-1" d="M23.837,92.936v-.731h1.427v.719h-.1c-.41,0-.82,0-1.23,0-.034,0-.067.007-.1.01Z"/><path class="cls-1" d="M28.882,91.466V92.2h-.716v-.727h.719Z"/><path class="cls-1" d="M28.888,90.034v.73h-.722v-.73Z"/><path class="cls-1" d="M23.833,90.032h-.722V89.3h.714l0,0c0,.245,0,.49.007.736Z"/><path class="cls-1" d="M20.23,92.2H19.5V91.47h.731Z"/><path class="cls-1" d="M22.4,92.929v-.722h.7v.722l0,0h-.711Z"/><path class="cls-1" d="M20.938,92.929h-.711V92.2h.711Z"/><path class="cls-1" d="M28.885,90.761H29.6v.712l-.715-.007,0,0Z"/><path class="cls-1" d="M30.323,77.768v3.6h-3.6v-3.6Zm-2.879.721v2.156H29.6V78.489Z"/><path class="cls-1" d="M17.329,94.361h-3.6v-3.6h3.6ZM16.6,91.485H14.451v2.153H16.6Z"/><path class="cls-1" d="M17.328,81.37h-3.6v-3.6h3.6Zm-2.877-2.88v2.153h2.154V78.49Z"/><path class="cls-1" d="M24.559,79.919v.731h-.728v.728h-.724v1.435H22.4v.73h-.731V82.1l.568-.008h.149c0-.039,0-.072,0-.105,0-.413,0-.827,0-1.24,0-.034,0-.068,0-.1H23.1v-.718h1.339C24.479,79.928,24.519,79.922,24.559,79.919Z"/><path class="cls-1" d="M24.559,81.375v.731l-.446-.011c-.09,0-.18,0-.285,0v-.72Z"/><path class="cls-1" d="M20.939,94.365h-.712v-.73h.711Z"/><path class="cls-1" d="M20.936,81.375h.73v.731l-.425-.011c-.1,0-.191,0-.3,0Z"/><path class="cls-1" d="M20.938,83.542h-.711v-.721h.711Z"/><path d="M26,90.753v-.714h.713v.714Z"/><path d="M22.392,92.926H23.1v.711h-.711Z"/><path d="M27.444,78.489H29.6v2.156H27.444Z"/><path d="M16.6,91.485v2.153H14.451V91.485Z"/><path d="M14.451,78.49h2.154v2.153H14.451Z"/><rect class="cls-6" x="74.404" y="27.421" width="23.794" height="8.923"/><rect class="cls-7" x="61.62" y="27.421" width="9.562" height="8.923"/><rect class="cls-6" x="102.719" y="27.421" width="23.794" height="8.923"/><rect class="cls-6" x="131.153" y="27.421" width="23.794" height="8.923"/><path d="M77.968,34.793a6.466,6.466,0,0,0,.063-1.016v-4.3h-.375a6.791,6.791,0,0,0-.805.047v-.993a4.343,4.343,0,0,0,.781.047h.719a5.716,5.716,0,0,0,.8-.039,11.737,11.737,0,0,0-.063,1.289v3.953a6.531,6.531,0,0,0,.063,1.016Z"/><path d="M82.175,34.793a7.256,7.256,0,0,0-1.008.039,3.974,3.974,0,0,1,.2-1,3.855,3.855,0,0,1,1.07-1.531,10.8,10.8,0,0,1,1.289-.946c.719-.492.937-.75.937-1.148,0-.531-.414-.859-1.078-.859a1.1,1.1,0,0,0-.992.461,1.482,1.482,0,0,0-.242.718L81.238,30.4a2.338,2.338,0,0,1,.539-1.25,2.268,2.268,0,0,1,1.789-.7c1.367,0,2.211.656,2.211,1.727a1.587,1.587,0,0,1-.555,1.25,9.907,9.907,0,0,1-1.312.961,6.787,6.787,0,0,0-.93.781,1.883,1.883,0,0,0-.445.7h2.187a8.244,8.244,0,0,0,1.141-.062V34.84c-.367-.031-.68-.047-1.18-.047Z"/><path d="M87.281,33.1a1.012,1.012,0,0,0,.367.64,1.476,1.476,0,0,0,.945.3c.774,0,1.266-.4,1.266-1.016a.909.909,0,0,0-.438-.82,2.025,2.025,0,0,0-.9-.187,6.534,6.534,0,0,0-.836.039V31.09a5.4,5.4,0,0,0,.758.039c.781,0,1.242-.359,1.242-.961,0-.539-.367-.844-1.031-.844a1.306,1.306,0,0,0-.852.242,1.156,1.156,0,0,0-.328.6l-1.117-.188a1.942,1.942,0,0,1,.742-1.117,2.537,2.537,0,0,1,1.531-.429c1.3,0,2.149.656,2.149,1.671a1.425,1.425,0,0,1-.539,1.149,1.937,1.937,0,0,1-.758.3,1.64,1.64,0,0,1,1.117.523,1.5,1.5,0,0,1,.375,1.078,1.655,1.655,0,0,1-.469,1.141,2.7,2.7,0,0,1-1.922.633,2.439,2.439,0,0,1-1.984-.743,2.05,2.05,0,0,1-.437-.875Z"/><path d="M96.316,33.4a5.9,5.9,0,0,0-.781-.054h-.281V33.9a4.938,4.938,0,0,0,.062.891H94.207a4.965,4.965,0,0,0,.063-.906v-.539H92.105c-.46,0-.71.007-.976.031v-.961c.266-.289.351-.391.625-.719l1.851-2.265a7.473,7.473,0,0,0,.649-.86h1.055a10.972,10.972,0,0,0-.055,1.321v2.562h.273a5.145,5.145,0,0,0,.789-.055Zm-2.039-2.554a8.9,8.9,0,0,1,.039-.938,8.645,8.645,0,0,1-.531.7l-1.5,1.86h1.992Z"/><path class="cls-1" d="M64.11,31.258a3.276,3.276,0,0,0,.015.349h-.352a2.932,2.932,0,0,0,.019-.352v-.9c0-.1,0-.171.006-.333a1.633,1.633,0,0,1-.217.312,1.836,1.836,0,0,0-.138-.358,2.17,2.17,0,0,0,.457-.772,1.864,1.864,0,0,0,.114-.421l.328.118c-.021.06-.027.078-.057.162a4.5,4.5,0,0,1-.175.451Zm.229-1.972c0-.15,0-.24-.012-.339.108.009.186.011.327.011h1.182a3.448,3.448,0,0,0,.36-.011,3.1,3.1,0,0,0-.011.369v1.876a3.459,3.459,0,0,0,.014.394h-.315v-.132H64.636v.132h-.315a2.885,2.885,0,0,0,.018-.37Zm.3,1.876h1.248V29.253H64.636Zm.839-1.04c.087,0,.15,0,.222-.009a1.651,1.651,0,0,0-.006.207v.457a1,1,0,0,0,.01.211c-.079-.007-.157-.009-.223-.009H65.03a2.03,2.03,0,0,0-.219.009,1.49,1.49,0,0,0,.009-.2v-.466a1.442,1.442,0,0,0-.009-.2c.066.006.123.009.219.009h.075v-.268h-.213a1.02,1.02,0,0,0-.181.013v-.3a.812.812,0,0,0,.184.015h.21v-.066a1.1,1.1,0,0,0-.015-.2h.319a1.173,1.173,0,0,0-.012.2v.066h.219a.882.882,0,0,0,.193-.015v.3a1.034,1.034,0,0,0-.187-.013H65.4v.268Zm-.391.592h.34V30.39h-.34Z"/><path class="cls-1" d="M68.09,28.872a1.975,1.975,0,0,0-.021.309,2.15,2.15,0,0,0,.3,1.184,2.006,2.006,0,0,0,.475.572,1.982,1.982,0,0,0,.466.324,1.106,1.106,0,0,0-.235.334,2.93,2.93,0,0,1-.763-.71,2.369,2.369,0,0,1-.4-.82,2.156,2.156,0,0,1-.235.607,2.064,2.064,0,0,1-.463.577,2.488,2.488,0,0,1-.465.346.916.916,0,0,0-.235-.31,2,2,0,0,0,.656-.5,2.319,2.319,0,0,0,.549-1.659,2.195,2.195,0,0,0-.011-.252Z"/><path class="cls-1" d="M65.9,33.1a2.2,2.2,0,0,0,.328-.018v.31a2.461,2.461,0,0,0-.328-.018h-.517a2.274,2.274,0,0,0,.952.483,1.239,1.239,0,0,0-.174.31c-.126-.057-.174-.081-.273-.135v.784a1.908,1.908,0,0,0,.018.316h-.331v-.138H64.24v.138h-.328c.009-.091.015-.205.015-.316v-.781c-.081.045-.12.066-.25.132a.8.8,0,0,0-.174-.3,2.079,2.079,0,0,0,.893-.5H63.9a2.449,2.449,0,0,0-.331.018v-.31a2.324,2.324,0,0,0,.331.018h.249a2.064,2.064,0,0,0-.135-.238l.213-.072c-.186.006-.216.009-.4.009a.844.844,0,0,0-.13-.285c.139.006.2.006.289.006a9.184,9.184,0,0,0,1.055-.058,4.388,4.388,0,0,0,.785-.129l.225.277-.09.012c-.009,0-.036.006-.078.012-.166.024-.349.048-.842.1V33.1h.27a1.787,1.787,0,0,0,.19-.391l.316.078a2.6,2.6,0,0,1-.181.313ZM64.24,34.273h.5v-.189h-.5Zm0,.451h.5v-.186h-.5Zm1.289-.9a2.185,2.185,0,0,1-.5-.436.432.432,0,0,1,0,.046.253.253,0,0,1,.006.057v.081a.978.978,0,0,0,.012.192h-.337a1.087,1.087,0,0,0,.015-.189v-.078c0-.018,0-.055.007-.106a2.1,2.1,0,0,1-.469.433Zm-.8-1.055c-.123.009-.123.009-.429.021a3.151,3.151,0,0,1,.162.313h.267Zm.307,1.96h.532v-.189h-.532Zm0-.451h.532v-.189h-.532Z"/><path class="cls-1" d="M66.879,33.786a2.713,2.713,0,0,0-.349.018v-.325a2.431,2.431,0,0,0,.352.019h2.044a2.516,2.516,0,0,0,.355-.019V33.8a2.741,2.741,0,0,0-.355-.018H67.573c-.045.106-.06.141-.1.22h1.133a2.8,2.8,0,0,0,.31-.012c0,.018-.009.063-.024.192a1.759,1.759,0,0,1-.189.767c-.094.114-.208.147-.524.147-.156,0-.27-.006-.453-.018a.782.782,0,0,0-.081-.322c.2.024.423.042.531.042.148,0,.214-.018.25-.063a1.108,1.108,0,0,0,.108-.457h-1.2c-.042.075-.066.114-.139.226l-.36-.067a2.869,2.869,0,0,0,.381-.655Zm.033-1.1a2.1,2.1,0,0,0-.012-.249,3.077,3.077,0,0,0,.34.015h1.325a2.536,2.536,0,0,0,.343-.015,1.972,1.972,0,0,0-.012.249v.391a2.075,2.075,0,0,0,.012.255,2.745,2.745,0,0,0-.31-.012H67.209a2.793,2.793,0,0,0-.309.012,2.171,2.171,0,0,0,.012-.255Zm.321.048v.31h1.332v-.31Z"/><path d="M105.859,33.176a1.073,1.073,0,0,0,.234.453,1.183,1.183,0,0,0,.961.4,1.211,1.211,0,0,0,1.281-1.289,1.165,1.165,0,0,0-1.226-1.258,1.371,1.371,0,0,0-.969.36.9.9,0,0,0-.234.351l-.977-.093c.078-.555.086-.594.1-.813l.179-1.937c.008-.141.024-.407.032-.8.234.015.414.023.828.023h1.922a6.023,6.023,0,0,0,1.086-.062V29.5A7.488,7.488,0,0,0,108,29.434h-1.836l-.125,1.367c-.008.062-.024.172-.047.328a1.923,1.923,0,0,1,1.336-.477,2.009,2.009,0,0,1,1.523.586,1.92,1.92,0,0,1,.555,1.469,2.125,2.125,0,0,1-2.352,2.227,2.173,2.173,0,0,1-2.273-1.532Z"/><path d="M113.425,30.1a.982.982,0,0,0-1.047-.789,1.3,1.3,0,0,0-1.226.812,3.438,3.438,0,0,0-.32,1.383,1.811,1.811,0,0,1,1.671-.781,2.032,2.032,0,0,1,1.813.929,2.25,2.25,0,0,1,.281,1.172,2.1,2.1,0,0,1-2.265,2.11,2.46,2.46,0,0,1-1.586-.516,3.422,3.422,0,0,1-.907-2.617,4.258,4.258,0,0,1,.641-2.414,2.219,2.219,0,0,1,1.906-.93,2.152,2.152,0,0,1,1.6.594,2.253,2.253,0,0,1,.492.8Zm-2.437,2.726a1.322,1.322,0,0,0,2.39.688,1.328,1.328,0,0,0,.18-.711,1.128,1.128,0,0,0-1.234-1.227A1.26,1.26,0,0,0,110.988,32.824Z"/><path d="M119.593,29.441a5.356,5.356,0,0,0-.812,1.125,10.07,10.07,0,0,0-1.453,4.227h-1.235a11.634,11.634,0,0,1,.946-3.023,12.846,12.846,0,0,1,1.367-2.274h-2.414a7.478,7.478,0,0,0-1.024.055V28.52a8.671,8.671,0,0,0,1.071.054h2.484a8.677,8.677,0,0,0,1.07-.039Z"/><path d="M120.6,31.105a1.492,1.492,0,0,1-.383-1.031c0-1,.844-1.633,2.18-1.633a2.19,2.19,0,0,1,1.976.852,1.535,1.535,0,0,1,.211.781,1.449,1.449,0,0,1-1.125,1.461,1.566,1.566,0,0,1,1.391,1.586c0,1.164-.875,1.8-2.477,1.8A2.685,2.685,0,0,1,120.4,34.3a1.617,1.617,0,0,1-.454-1.172,1.479,1.479,0,0,1,.641-1.281,1.692,1.692,0,0,1,.773-.313A1.493,1.493,0,0,1,120.6,31.105Zm3.148,1.938c0-.648-.508-1.039-1.351-1.039s-1.36.4-1.36,1.047.5,1.015,1.344,1.015C123.254,34.066,123.746,33.7,123.746,33.043Zm-2.484-2.859c0,.57.437.929,1.148.929.7,0,1.117-.351,1.117-.922,0-.554-.437-.906-1.132-.906S121.262,29.637,121.262,30.184Z"/><path d="M134.455,33.285a1.282,1.282,0,0,0,.242.43,1.4,1.4,0,0,0,1.781,0,2.566,2.566,0,0,0,.609-1.86,1.518,1.518,0,0,1-.414.446,2.123,2.123,0,0,1-1.265.359,1.951,1.951,0,0,1-2.125-2.055,2.057,2.057,0,0,1,.992-1.835,2.548,2.548,0,0,1,1.367-.344,2.217,2.217,0,0,1,2.149,1.539,5.016,5.016,0,0,1,.226,1.617,3.936,3.936,0,0,1-.828,2.711,2.164,2.164,0,0,1-1.664.594,2.261,2.261,0,0,1-1.508-.453,2.211,2.211,0,0,1-.641-.868Zm2.453-2.742a1.293,1.293,0,0,0-2.586.023,1.167,1.167,0,0,0,1.242,1.25A1.281,1.281,0,0,0,136.908,30.543Z"/><path d="M139.13,34.285a2.183,2.183,0,0,1-.515-.789,5.233,5.233,0,0,1-.305-1.8,4.6,4.6,0,0,1,.477-2.164,2.221,2.221,0,0,1,1.992-1.086,2.269,2.269,0,0,1,1.648.633,2.186,2.186,0,0,1,.516.789,5.259,5.259,0,0,1,.3,1.813A4.1,4.1,0,0,1,142.669,34a2.218,2.218,0,0,1-1.9.922A2.252,2.252,0,0,1,139.13,34.285Zm2.493-.6a3.016,3.016,0,0,0,.546-2.008,3.034,3.034,0,0,0-.546-2,1.13,1.13,0,0,0-.852-.328,1.052,1.052,0,0,0-.875.4,2.914,2.914,0,0,0-.516,1.9,3.512,3.512,0,0,0,.4,1.859,1.243,1.243,0,0,0,1.844.18Z"/><path d="M145.416,34.793a6.6,6.6,0,0,0,.062-1.016v-4.3H145.1a6.791,6.791,0,0,0-.805.047v-.993a4.355,4.355,0,0,0,.782.047h.718a5.716,5.716,0,0,0,.8-.039,11.737,11.737,0,0,0-.062,1.289v3.953a6.542,6.542,0,0,0,.062,1.016Z"/><path d="M149.623,34.793a7.256,7.256,0,0,0-1.008.039,4.024,4.024,0,0,1,.2-1,3.858,3.858,0,0,1,1.071-1.531,10.715,10.715,0,0,1,1.289-.946c.718-.492.937-.75.937-1.148,0-.531-.414-.859-1.078-.859a1.1,1.1,0,0,0-.992.461,1.472,1.472,0,0,0-.242.718l-1.117-.132a2.338,2.338,0,0,1,.539-1.25,2.267,2.267,0,0,1,1.789-.7c1.367,0,2.211.656,2.211,1.727a1.587,1.587,0,0,1-.555,1.25,9.881,9.881,0,0,1-1.313.961,6.833,6.833,0,0,0-.929.781,1.886,1.886,0,0,0-.446.7h2.188a8.244,8.244,0,0,0,1.141-.062V34.84c-.368-.031-.68-.047-1.18-.047Z"/><path class="cls-8" d="M75.877,44.565c0,.119-.072.139-.428.139-.185,0-.211-.016-.211-.123.031-.919.036-1.476.036-2.652,0-1.057,0-1.309-.031-1.748a5.364,5.364,0,0,1,.691.345H77.9c.14-.149.186-.2.325-.345.206.15.268.2.454.345.051.042.072.068.072.1,0,.046-.041.082-.2.165l0,.825c0,1.542,0,1.877.036,2.893,0,.062-.01.088-.036.108a.866.866,0,0,1-.387.057c-.175,0-.217-.015-.217-.1V44.25H75.877Zm2.068-3.93H75.877v1.619h2.068Zm-2.068,1.728v1.779h2.068V42.363Z"/><path class="cls-8" d="M79.618,44.792a6.263,6.263,0,0,0,.99-.712,2.065,2.065,0,0,0,.434-.479c.149.066.268.118.34.154.289.124.361.165.361.217s-.046.067-.124.067c-.025,0-.108-.005-.165-.005a4.948,4.948,0,0,1-1.81.8Zm2.945-4.431c.1-.118.129-.154.232-.262.129.1.17.133.294.242.047.036.062.056.062.072a.1.1,0,0,1-.031.052.6.6,0,0,0,.165.02h.274c.108-.118.144-.154.257-.273.176.124.227.165.392.294.052.041.067.067.067.1s-.051.077-.18.134l-.077,2.641h.01c.114-.171.114-.171.222-.325.139.16.18.206.3.366a.064.064,0,0,1,.02.041c0,.016-.02.026-.051.026H79.964a.869.869,0,0,0-.289.036l-.031-.175a1.268,1.268,0,0,0,.314.031h.109l-.057-2.187c-.01-.325-.026-.583-.052-.831a3.528,3.528,0,0,1,.5.264,1.887,1.887,0,0,0,.315-.506c.159.134.216.181.3.258,0-.087,0-.134-.015-.3a4.7,4.7,0,0,1,.521.288Zm-1.49.269v-.062l-.083-.016c-.052.021-.217.078-.49.171l.021.727h.1c.077-.124.1-.165.186-.289.123.144.159.186.262.319l.006.006Zm-.052.933h-.5l.025.851h.073l.191-.3c.118.139.154.18.252.309l.011.016v-.882Zm.052.949a.135.135,0,0,1-.062.01h-.465l.021.857h.506Zm1.531.867V41.032c-.02.021-.025.021-.066.021h-.733a.634.634,0,0,0-.2.026l-.026-.165a.68.68,0,0,0,.222.03h.258c.087-.118.119-.149.206-.263.139.124.181.16.315.294l.02.031V40.47H81.511v2.909Zm-.644-.392c0,.062-.042.077-.181.077-.1,0-.118-.01-.118-.062.01-.273.01-.361.01-.675,0-.65,0-.8-.016-1.006a2.781,2.781,0,0,1,.3.165h.185c.068-.083.088-.1.155-.181.093.078.124.1.211.186.032.026.047.047.047.062s-.026.051-.1.088v.943c0,.041,0,.186,0,.361,0,.078-.031.093-.2.093-.083,0-.1-.01-.1-.057v-.19h-.2Zm0-.3h.2V41.594h-.2Zm.454.99c.69.129.784.144.949.19.552.15.732.289.732.568,0,.2-.108.361-.232.361-.083,0-.1-.011-.279-.207a5.269,5.269,0,0,0-1.191-.861Zm1.1-.294.026-.9H83.3a.488.488,0,0,0-.185.021l-.026-.155a.653.653,0,0,0,.211.026h.248l.026-.841H83.3a.6.6,0,0,0-.18.021l-.021-.155a.656.656,0,0,0,.2.026h.283l.021-.825h-.31a.876.876,0,0,0-.2.02l-.015-.113-.031.02v2.858Z"/><path class="cls-8" d="M89.146,41.574a2.45,2.45,0,0,0,.181.567,3.392,3.392,0,0,0,1.263,1.49,2.944,2.944,0,0,0,.851.377l-.01.056a.634.634,0,0,0-.325.233,1.037,1.037,0,0,0-.149.284c-.026.071-.042.087-.078.087a2.316,2.316,0,0,1-.727-.578,4.556,4.556,0,0,1-1.011-1.985,4.8,4.8,0,0,1-.093-.531,3.479,3.479,0,0,1-.753,1.939,3.627,3.627,0,0,1-1.083.913,7.3,7.3,0,0,1-.686.32l-.036-.062a4.923,4.923,0,0,0,.9-.764,4.059,4.059,0,0,0,1.047-2.346H87.062a2.643,2.643,0,0,0-.428.036l-.036-.2a2.032,2.032,0,0,0,.475.051H88.45a8.327,8.327,0,0,0,.041-.892,2.229,2.229,0,0,0-.036-.464c.181.016.33.026.423.036.366.026.469.057.469.124,0,.051-.067.092-.227.144-.015.531-.031.748-.057,1.052h1.2c.176-.221.232-.289.407-.5a7.431,7.431,0,0,1,.63.511.1.1,0,0,1,.031.062c0,.02-.031.036-.067.036Zm-.6,1.743c.66.3.928.516.928.758s-.2.49-.392.49c-.093,0-.134-.057-.165-.237a2.453,2.453,0,0,0-.4-.96Z"/><path class="cls-8" d="M92.583,43.822c.376-.072.376-.072.871-.185a2.743,2.743,0,0,0-.35-.645l.041-.041a4.106,4.106,0,0,1,.851.613.526.526,0,0,1,.2.4.548.548,0,0,1-.171.4.359.359,0,0,1-.175.088c-.082,0-.123-.067-.191-.283-.041-.135-.077-.232-.139-.392a13.607,13.607,0,0,1-1.48.706c-.01.129-.036.191-.088.191s-.072-.046-.268-.717c.16-.015.186-.015.356-.041V41.326c0-.227-.01-.516-.026-.768a4.91,4.91,0,0,1,.6.33h.2v-.346a2.687,2.687,0,0,0-.026-.413c.16.016.283.026.366.031.3.026.4.052.4.119,0,.041-.057.077-.2.124v.485h.191c.113-.129.149-.165.278-.3.191.129.243.171.413.294.046.042.062.068.062.093,0,.042-.041.067-.186.134,0,.506,0,.506,0,.6,0,.16,0,.16.01.995a.185.185,0,0,1-.015.088c-.036.052-.155.082-.335.082s-.2-.015-.206-.1v-.144h-.975Zm.975-2.14V41h-.975v.686Zm-.975.108v.738h.975V41.79Zm2.5,1.991c0,.273,0,.474.01.913,0,.113-.087.139-.407.139-.145,0-.181-.026-.181-.134.021-.9.026-1.5.026-2.919,0-1.037,0-1.254-.026-1.6a5.221,5.221,0,0,1,.614.3h.6c.114-.129.15-.165.269-.289.211.165.273.217.469.382.052.047.072.072.072.1,0,.047-.056.073-.2.1a9.964,9.964,0,0,1-.867,1.259,2.459,2.459,0,0,1,.609.546,1.522,1.522,0,0,1,.315.888.741.741,0,0,1-.439.732,1.091,1.091,0,0,1-.32.057c-.061,0-.077-.021-.082-.109-.015-.242-.129-.345-.459-.412Zm0-.119c.237.016.32.021.418.021.181,0,.232-.005.263-.036.047-.036.067-.145.067-.33a1.822,1.822,0,0,0-.129-.681,1.559,1.559,0,0,0-.35-.588,9.572,9.572,0,0,0,.386-1.46h-.655Z"/><path class="cls-8" d="M65.027,41.953l.3-.353c.19.147.248.194.446.357.011.015.019.022.019.034a.038.038,0,0,1-.039.031l-1.294.027a1.869,1.869,0,0,0,.527,1.144.871.871,0,0,0,.341.252c.02,0,.043-.02.066-.054.089-.156.217-.4.36-.718l.035.012-.128.729a.826.826,0,0,0-.011.108c0,.051,0,.051.093.136a.218.218,0,0,1-.186.361.894.894,0,0,1-.457-.179,2.164,2.164,0,0,1-.884-1.093,3.05,3.05,0,0,1-.167-.686l-.849.016v1.294a11.236,11.236,0,0,0,1.12-.217l.016.047a9.4,9.4,0,0,1-1.659.7c-.015.109-.043.167-.081.167s-.09-.116-.214-.605a3.267,3.267,0,0,0,.376-.035V41.255c0-.14,0-.233-.019-.419a4.845,4.845,0,0,1,.5.245,7.479,7.479,0,0,0,1.132-.33,2.025,2.025,0,0,0,.507-.256c.532.334.535.334.535.38a.049.049,0,0,1-.054.043,1.18,1.18,0,0,1-.171-.031c-.368.089-.453.1-.759.163v.24c0,.275.008.523.023.674Zm-.985.019a7.907,7.907,0,0,1-.035-.857c-.286.035-.442.051-.806.074v.8Z"/><path class="cls-8" d="M68.561,41.015c.1-.093.127-.12.232-.213.167.127.217.166.376.306.019.019.027.031.027.046a.065.065,0,0,1-.019.043c-.019.015-.019.015-.182.054a4.985,4.985,0,0,1-1.337,1.275h1.3c.1-.1.128-.128.236-.233.159.109.21.144.361.26.019.02.027.031.027.051,0,.046-.051.081-.171.127,0,.493,0,.683.012.869.008.233.008.233.008.321,0,.055-.02.078-.062.09a1.666,1.666,0,0,1-.287.023c-.078,0-.1-.015-.105-.07V43.79H67.588v.167c-.008.042-.024.062-.078.073a1.178,1.178,0,0,1-.232.019c-.1,0-.128-.015-.132-.073.02-.318.031-.683.031-1.175a4.484,4.484,0,0,1-1.023.368l-.016-.034a6.639,6.639,0,0,0,1.225-.748,5.972,5.972,0,0,0,.849-.826,3.472,3.472,0,0,0,.333-.465h-.9a4.1,4.1,0,0,1-.372.364l.256.117c.166.073.248.162.248.271a.318.318,0,0,1-.264.306c-.054,0-.07-.023-.089-.143a1,1,0,0,0-.2-.508,3.376,3.376,0,0,1-.978.593l-.022-.039a4.574,4.574,0,0,0,.821-.818,2.424,2.424,0,0,0,.461-.779l.291.078c.3.077.341.093.341.136s-.027.05-.2.077c-.116.14-.154.186-.224.264Zm-.973,2.693h1.391v-1.1H67.588Z"/><rect class="cls-9" x="35.201" y="62.881" width="22.5" height="1.863"/><rect class="cls-9" x="35.201" y="66.641" width="22.5" height="1.863"/><rect class="cls-9" x="35.201" y="70.401" width="22.5" height="1.863"/><rect class="cls-9" x="35.201" y="74.16" width="22.5" height="1.863"/><rect class="cls-9" x="35.201" y="77.92" width="22.5" height="1.863"/><rect class="cls-9" x="35.201" y="81.679" width="22.5" height="1.863"/><rect class="cls-9" x="35.201" y="85.439" width="22.5" height="1.863"/><rect class="cls-9" x="35.201" y="89.198" width="22.5" height="1.863"/><rect class="cls-9" x="35.201" y="92.958" width="7.89" height="1.863"/><path class="cls-8" d="M119.957,55.58h.8c.12-.148.159-.2.283-.336.2.149.255.2.446.361.01.014.018.021.018.028s-.014.021-.039.021h-1.512v.372c0,.177.007.528.018.942a.082.082,0,0,1-.064.092,1.365,1.365,0,0,1-.255.024c-.095,0-.124-.017-.124-.091.008-.22.018-.836.018-.967v-.372h-.995a3.006,3.006,0,0,0-.375.022l-.021-.128a1.741,1.741,0,0,0,.393.032h1V54.1h-.86a2.418,2.418,0,0,0-.336.021l-.022-.124a1.473,1.473,0,0,0,.358.028h1.947c.117-.13.152-.169.272-.293.192.13.248.173.436.315.014.014.021.021.021.032s-.014.021-.042.021h-1.367Zm-1.391-1.3c.428.3.687.581.687.765,0,.156-.16.354-.287.354-.053,0-.078-.035-.1-.145a2.654,2.654,0,0,0-.329-.956Zm1.586,1.165a4.331,4.331,0,0,0,.343-.768,2.478,2.478,0,0,0,.124-.425c.531.213.56.223.56.262s-.043.053-.167.06a3.824,3.824,0,0,1-.832.9Z"/><path class="cls-8" d="M124.835,54.465c.081-.106.109-.145.205-.269.163.124.212.163.372.294a.081.081,0,0,1,.014.031c0,.011-.014.018-.032.018H124.3a3.843,3.843,0,0,0,.156,1.1,2.436,2.436,0,0,0,.276-.822c.414.121.506.156.506.2s-.035.053-.155.07a3.415,3.415,0,0,1-.457.917,1.665,1.665,0,0,0,.421.468,5.65,5.65,0,0,0,.365-.662l.039.01-.145.655a.351.351,0,0,0-.014.089c0,.032,0,.032.066.1a.207.207,0,0,1,.05.138.2.2,0,0,1-.2.209c-.134,0-.315-.116-.538-.343a2.266,2.266,0,0,1-.293-.368,3.751,3.751,0,0,1-.344.3,2.638,2.638,0,0,1-.814.421l-.018-.035a3.222,3.222,0,0,0,1.023-.967,4.122,4.122,0,0,1-.3-1.483h-1.055c0,.333,0,.457-.014.641h.478c.078-.1.1-.124.184-.216.124.085.163.113.287.2.028.025.039.043.039.057s-.022.046-.114.1a2.892,2.892,0,0,1-.166,1.058.455.455,0,0,1-.337.2.558.558,0,0,1-.106.01c-.039,0-.053-.014-.053-.064,0-.173-.067-.24-.3-.318l.007-.042c.262.021.336.028.393.028.078,0,.1-.025.124-.145a5.53,5.53,0,0,0,.067-.79h-.51a4.221,4.221,0,0,1-.081.737,2.2,2.2,0,0,1-.333.743,2.242,2.242,0,0,1-.287.333l-.032-.021a2.843,2.843,0,0,0,.28-.846,8.062,8.062,0,0,0,.078-1.4c0-.262,0-.354-.014-.57a4.516,4.516,0,0,1,.449.237h1.01c-.008-.1-.011-.153-.011-.227a3.08,3.08,0,0,0-.028-.421c.5.042.53.05.53.1s-.028.053-.12.085c0,.148-.007.237-.007.286s0,.075,0,.181Zm-.361-.573a1.732,1.732,0,0,1,.333.063c.12.043.176.1.176.188a.224.224,0,0,1-.191.23.117.117,0,0,1-.06-.021c-.021-.018-.025-.029-.06-.121a.742.742,0,0,0-.209-.311Z"/><path class="cls-8" d="M129.04,54.4a1.55,1.55,0,0,1-1.151,2.588,1.554,1.554,0,0,1-1.55-1.551,1.518,1.518,0,0,1,.513-1.15,1.569,1.569,0,0,1,1.037-.4A1.526,1.526,0,0,1,129.04,54.4Zm-2.216.078a1.434,1.434,0,1,0,2.5.959,1.406,1.406,0,0,0-.474-1.065,1.441,1.441,0,0,0-.96-.368A1.412,1.412,0,0,0,126.824,54.479Z"/><path class="cls-8" d="M133.078,54.4a1.549,1.549,0,0,1-1.151,2.588,1.554,1.554,0,0,1-1.55-1.551,1.518,1.518,0,0,1,.513-1.15,1.569,1.569,0,0,1,1.037-.4A1.526,1.526,0,0,1,133.078,54.4Zm-2.216.078a1.434,1.434,0,1,0,2.5.959,1.406,1.406,0,0,0-.474-1.065,1.441,1.441,0,0,0-.96-.368A1.412,1.412,0,0,0,130.862,54.479Z"/><path class="cls-8" d="M136.348,55.1h.379c.11-.12.145-.159.255-.283.166.127.219.166.382.3a.07.07,0,0,1,.018.032.036.036,0,0,1-.035.029h-1v.863h.538c.124-.134.163-.173.291-.308.173.138.226.181.392.326a.07.07,0,0,1,.018.032c0,.014-.014.025-.039.025h-1.2v.311c0,.053,0,.322.011.538,0,.06-.011.082-.047.1a.83.83,0,0,1-.236.024c-.124,0-.145-.01-.145-.066V57c.01-.4.013-.471.013-.553v-.332H134.67c-.049,0-.23.014-.3.021l-.021-.124a2.072,2.072,0,0,0,.322.028h.23v-.75c0-.2,0-.269-.014-.446.205.11.265.145.46.258h.6v-.683h-.686a3.437,3.437,0,0,1-.843.81l-.028-.035a3.573,3.573,0,0,0,.488-.786,3,3,0,0,0,.22-.609,3.174,3.174,0,0,1,.566.181.043.043,0,0,1,.018.036c0,.038-.025.049-.184.07a2.233,2.233,0,0,1-.184.259h1.49c.089-.1.181-.2.269-.3.184.135.238.177.414.319a.048.048,0,0,1,.018.028c0,.014-.014.025-.035.025h-1.119Zm-1.048.075v.863h.644v-.863Z"/><path class="cls-8" d="M141.155,54.4A1.552,1.552,0,0,1,140,56.993a1.556,1.556,0,0,1-1.554-1.555,1.521,1.521,0,0,1,.514-1.15,1.571,1.571,0,0,1,1.04-.4A1.526,1.526,0,0,1,141.155,54.4Zm-2.213.085a1.414,1.414,0,0,0-.368.952,1.429,1.429,0,1,0,2.857,0,1.4,1.4,0,0,0-.474-1.062,1.423,1.423,0,0,0-.953-.368A1.405,1.405,0,0,0,138.942,54.486Z"/><path class="cls-8" d="M143.42,55.715a1.882,1.882,0,0,1-.372.913,1.977,1.977,0,0,1-.492.45l-.025-.029a2.159,2.159,0,0,0,.443-.991,6.264,6.264,0,0,0,.078-1.274c0-.472,0-.677-.022-.985a5.363,5.363,0,0,1,.492.241h1.166c.088-.1.113-.131.208-.23.142.1.181.128.315.223.036.029.05.046.05.064s-.032.056-.131.106v1.221c0,.333,0,.7.014,1.182a.378.378,0,0,1-.046.231.558.558,0,0,1-.375.181.6.6,0,0,1-.117.013c-.039,0-.046-.01-.053-.063a.282.282,0,0,0-.192-.238,2.267,2.267,0,0,0-.485-.127l0-.046c.3.018.361.021.761.032.06,0,.075-.011.075-.06v-.814Zm1.3-.8h-1.254a7.019,7.019,0,0,1-.031.729h1.285Zm0-.8H143.47c0,.262,0,.262,0,.723h1.25Z"/><path class="cls-8" d="M149.231,54.4a1.534,1.534,0,0,1,.4,1.037,1.553,1.553,0,1,1-3.105,0,1.524,1.524,0,0,1,.513-1.15,1.573,1.573,0,0,1,1.041-.4A1.522,1.522,0,0,1,149.231,54.4Zm-2.212.085a1.414,1.414,0,0,0-.368.952,1.429,1.429,0,1,0,2.857,0,1.4,1.4,0,0,0-.475-1.062,1.421,1.421,0,0,0-.952-.368A1.405,1.405,0,0,0,147.019,54.486Z"/><path class="cls-8" d="M151.419,56.89c0,.081-.05.095-.294.095-.127,0-.146-.01-.146-.085.022-.629.025-1.012.025-1.819,0-.726,0-.9-.021-1.2a3.756,3.756,0,0,1,.475.237h1.349l.222-.237c.142.1.184.135.312.237.035.028.05.046.05.068s-.029.056-.135.113l0,.566c0,1.058,0,1.288.025,1.986,0,.043-.007.06-.025.074a.586.586,0,0,1-.265.039c-.12,0-.149-.01-.149-.067v-.223h-1.419Zm1.419-2.7h-1.419V55.3h1.419Zm-1.419,1.186V56.6h1.419V55.378Z"/><path class="cls-8" d="M156,54.688v-.411a4.173,4.173,0,0,0-.024-.453c.545.053.587.06.587.11,0,.032-.046.06-.156.1v.651h.5c.117-.145.153-.191.273-.333.191.149.248.2.435.354.014.015.021.025.021.032s-.014.021-.042.021H156.4v.9h.439c.117-.138.153-.184.273-.326.184.146.24.191.418.347.014.014.021.025.021.032s-.014.021-.039.021H156.4v1.059h.638c.124-.149.163-.2.29-.336.191.151.255.2.446.36.011.015.018.022.018.029s-.015.021-.039.021h-2.878a1.806,1.806,0,0,0-.287.021l-.021-.127a1.4,1.4,0,0,0,.3.032H156V55.732h-.725a1.071,1.071,0,0,0-.238.021l-.017-.12a1.1,1.1,0,0,0,.251.025H156v-.9h-.623a3.019,3.019,0,0,1-.75.885l-.036-.035a3.73,3.73,0,0,0,.468-.952,2.269,2.269,0,0,0,.145-.655c.517.138.584.162.584.2s-.05.061-.17.074c-.092.2-.128.277-.2.4Z"/></g></g></svg>