<svg xmlns="http://www.w3.org/2000/svg" width="162.5" height="104.5" viewBox="0 0 162.5 104.5"><defs><style>.a{fill:#e1f0fa;stroke:#221e1f;}.a,.b,.c,.d{stroke-width:0.5px;}.b,.c,.d,.g,.h{fill:none;stroke-miterlimit:10;}.b,.c,.d{stroke:#231815;}.c{stroke-dasharray:1 1;}.d{stroke-dasharray:0.986 0.986;}.e{fill:#212121;}.f{fill:#ff1d25;}.g{stroke:#ff1d25;stroke-width:0.308px;}.h{stroke:#000;stroke-width:0.3px;}</style></defs><title>28-2</title><rect class="a" x="0.25" y="0.25" width="162" height="104" rx="4.798" ry="4.798"/><path d="M9.318,12.854H7.29a3.323,3.323,0,0,1-.562,2.192l-.05-.033a4.2,4.2,0,0,0,.394-2.072v-.906l.258.111H9.285l.1-.134.294.207a.28.28,0,0,1-.144.07v.658a.279.279,0,0,1-.217.067Zm0-.628H7.29v.548H9.318Zm.094,1.123.287.207a.268.268,0,0,1-.144.07v1.327a.276.276,0,0,1-.214.073v-.194H7.7v.141s-.027.08-.214.08V13.379l.234.107h.682v-.535l.347.03c0,.047-.037.067-.133.08v.425h.688Zm-1.006.217H7.7v.545h.7Zm-.7.625v.561h.7v-.561Zm1.637-.625H8.62v.545h.721ZM8.62,14.752h.721v-.561H8.62Z"/><path d="M12.866,13.636l.351.027c-.007.05-.037.073-.137.083v1.2c0,.007-.034.073-.214.073v-.287h-2.2v.244c0,.007-.029.074-.21.074V13.636l.348.027c-.007.05-.034.073-.138.083v.906h.979V13.325h-.808v.141c0,.006-.033.073-.214.073v-1.27l.351.027c-.007.047-.037.073-.137.084v.865h.808V11.972l.375.033c0,.054-.044.077-.157.09v1.15H12.7v-.976l.35.027c0,.047-.036.073-.136.084v1.069c0,.007-.027.073-.214.073v-.2h-.829v1.327h1Z"/><path d="M16.511,13.817l.321.22c-.027.05-.067.074-.164.074h-1.2v.868a.219.219,0,0,1-.187.071h-.037v-.939H13.761l-.024-.08h.569v-.957l.26.111h.682v-.652h-.735a2.752,2.752,0,0,1-.7.819l-.046-.033a3.886,3.886,0,0,0,.751-1.414l.341.124c-.013.04-.04.06-.127.053a3.74,3.74,0,0,1-.176.371h1.633l.167-.211.315.221c-.024.05-.064.07-.161.07H15.472v.652h.611l.157-.2.3.207c-.027.05-.067.07-.161.07h-.9v.766h.872Zm-1.989.214h.726v-.766h-.726Z"/><path d="M19.508,12.072l.294.217a.287.287,0,0,1-.147.071v2.365c0,.178-.053.3-.384.325,0-.184-.154-.218-.425-.231v-.047h.508c.061,0,.081-.013.081-.054v-.885H18.051a1.607,1.607,0,0,1-.782,1.217l-.043-.04a2.053,2.053,0,0,0,.645-1.735V12.106l.26.11H19.4Zm-1.42,1.2a4.557,4.557,0,0,1-.024.481h1.371v-.7H18.088Zm1.347-.976H18.088v.678h1.347Z"/><path d="M22.9,12.169l.291.217a.287.287,0,0,1-.148.07v2.43c0,.006-.06.083-.22.083v-.277H21.181v.237c0,.007-.013.094-.214.094V12.2l.238.114h1.58Zm-.077.227H21.181v1.05h1.638Zm-1.638,2.216h1.638V13.526H21.181Z"/><path d="M4.307,85.245c.208-.03.689-.134,1.18-.248l.013.051c-.22.1-.531.227-.962.394a.118.118,0,0,1-.07.077ZM5.63,86.922a.091.091,0,0,1-.073.027.373.373,0,0,1-.09-.017,4.035,4.035,0,0,1-1.14.338l-.02-.053a3.488,3.488,0,0,0,1.033-.5Zm-1.189-2.63c.451.051.595.241.595.368a.112.112,0,0,1-.1.123.127.127,0,0,1-.08-.026,1.074,1.074,0,0,0-.428-.428ZM6.9,86.732c0,.023-.114.073-.187.073H6.68V86.7H5.026v.07s-.03.077-.214.077V85.378l.234.107h1.6l.1-.127.277.2a.225.225,0,0,1-.127.06ZM6.68,85.566H5.026v.294H6.68Zm0,.668V85.94H5.026v.294Zm-1.654.381H6.68v-.3H5.026ZM6.86,84.9a2.683,2.683,0,0,0,.131-.334H6.355c.107.307.375.565,1.06.708l-.007.04c-.107.017-.17.047-.187.157a1.156,1.156,0,0,1-.912-.819,1.282,1.282,0,0,1-1.043.8L5.25,85.4A1.119,1.119,0,0,0,6.1,84.57h-.35a1.582,1.582,0,0,1-.445.351l-.04-.037a1.54,1.54,0,0,0,.451-.715l.348.073c-.01.037-.037.05-.117.047a1.67,1.67,0,0,1-.131.2H6.977l.13-.133.238.234a.188.188,0,0,1-.127.033,1.706,1.706,0,0,1-.308.3Zm-.715,1.871c.949.077,1.21.281,1.21.4,0,.057-.057.094-.127.094a.216.216,0,0,1-.114-.033,2.859,2.859,0,0,0-.982-.405Z"/><path d="M8.574,85.037v.4c.347.147.457.327.457.444,0,.077-.046.127-.1.127a.134.134,0,0,1-.087-.04,1.391,1.391,0,0,0-.267-.464v1.687c0,.006-.027.08-.214.08V85.642a2.845,2.845,0,0,1-.525.852l-.05-.049a3.754,3.754,0,0,0,.531-1.408H7.838l-.023-.08H8.36v-.781l.354.029c0,.051-.033.074-.14.084v.668h.12l.137-.194.264.2c-.03.049-.067.069-.154.069Zm1.911-.594.251.23c-.027.03-.06.041-.141.044a2.829,2.829,0,0,1-.534.755,2.546,2.546,0,0,0,.916.377l-.007.037a.233.233,0,0,0-.181.181A2.385,2.385,0,0,1,9.93,85.6a3.229,3.229,0,0,1-.681.461l.19.08h.949l.1-.133.291.207a.284.284,0,0,1-.143.067V87.2a.273.273,0,0,1-.214.07v-.194H9.4V87.2a.187.187,0,0,1-.17.078H9.2v-1.19c-.1.05-.21.093-.324.137l-.027-.057a3.145,3.145,0,0,0,.963-.692,2.132,2.132,0,0,1-.388-.581,2.014,2.014,0,0,1-.464.511L8.9,85.368a2.805,2.805,0,0,0,.6-1.239l.331.09c-.014.04-.044.057-.114.05a2.707,2.707,0,0,1-.13.317h.739Zm-.063,1.777H9.4v.772h1.023Zm-.869-1.553c-.027.053-.057.1-.087.154a1.972,1.972,0,0,0,.444.537,2.747,2.747,0,0,0,.422-.691Z"/><path d="M12.6,84.827l.137-.14.247.223c-.027.034-.06.044-.133.047a2.905,2.905,0,0,1-1.464,2.316l-.03-.06a3.086,3.086,0,0,0,1.266-2.306h-.611a3.078,3.078,0,0,1-.285.6c.449.1.592.311.592.447,0,.074-.043.131-.1.131a.14.14,0,0,1-.087-.034,1.142,1.142,0,0,0-.435-.491,1.845,1.845,0,0,1-.321.378l-.05-.034a3.726,3.726,0,0,0,.635-1.73l.345.073c-.011.043-.037.067-.121.067-.04.177-.087.351-.14.511Zm1.236-.608c-.006.047-.04.073-.143.083V85.76a2.153,2.153,0,0,0,.768.494l-.006.04a.253.253,0,0,0-.208.187,2.12,2.12,0,0,1-.554-.4v1.116c0,.006-.027.08-.217.08v-1.45a3.173,3.173,0,0,1-.5-1.076l.061-.027a2.715,2.715,0,0,0,.438.8V84.185Z"/><path d="M14.858,85.081c.411.043.541.214.541.334a.122.122,0,0,1-.113.131.153.153,0,0,1-.084-.031.914.914,0,0,0-.361-.4Zm.184,1.26c.043,0,.053,0,.087-.07.017-.027.06-.121.671-1.5l.064.013c-.151.431-.448,1.23-.5,1.393a1.182,1.182,0,0,0-.054.294,4.541,4.541,0,0,1,.087.538c0,.054,0,.271-.187.271-.06,0-.1-.06-.107-.167a2.668,2.668,0,0,0,.027-.344c0-.307-.067-.351-.24-.358v-.073c.113,0,.15,0,.15,0ZM15,84.216c.421.056.555.237.555.364a.124.124,0,0,1-.118.134.134.134,0,0,1-.086-.031,1.014,1.014,0,0,0-.371-.434Zm2.663.852.3.22c-.027.05-.067.07-.16.07h-.873v.692H17.4l.1-.134.294.208a.288.288,0,0,1-.144.07v.982a.267.267,0,0,1-.217.074v-.214H16.2V87.2s-.031.074-.214.074V85.947l.234.1h.491v-.692h-.976l-.024-.08h1v-.715c-.3.044-.605.077-.9.093l-.014-.063a8.149,8.149,0,0,0,1.675-.428l.26.241a.094.094,0,0,1-.067.023.3.3,0,0,1-.106-.026c-.178.043-.395.086-.629.127v.748h.572Zm-.227,1.062H16.2v.826h1.236Z"/><path d="M19.309,86.822l.725-.107.009.053c-.35.1-.828.238-1.483.4a.12.12,0,0,1-.081.073l-.126-.3c.153-.013.424-.046.748-.093v-.375h-.635l-.023-.08H19.1v-.321h-.4v.077c0,.017-.067.067-.171.067H18.5V85.111l.241.1H19.1v-.308h-.735l-.023-.08H19.1v-.3c-.227.027-.464.05-.685.06l-.013-.057a8.218,8.218,0,0,0,1.383-.354l.244.237a.074.074,0,0,1-.057.017.264.264,0,0,1-.113-.027c-.154.034-.344.067-.551.094v.334h.4l.14-.18.274.19c-.026.05-.064.07-.157.07h-.661v.308h.384l.1-.124.26.2a.224.224,0,0,1-.123.054v.788a.236.236,0,0,1-.174.064h-.034v-.121h-.41v.321h.307l.13-.17.261.181c-.027.049-.064.069-.154.069h-.544ZM19.1,85.3h-.4V85.6h.4Zm-.4.7h.4v-.311h-.4Zm1.015-.7h-.41V85.6h.41Zm-.41.7h.41v-.311h-.41Zm1.871-1.112.27.217a.227.227,0,0,1-.14.057,4.945,4.945,0,0,1-.187,1.988.423.423,0,0,1-.341.127c0-.134-.043-.174-.321-.207V87c.117,0,.3.013.385.013a.117.117,0,0,0,.11-.04A5.99,5.99,0,0,0,21.1,85.1h-.451a2.5,2.5,0,0,1-.873,2.166l-.05-.057a2.738,2.738,0,0,0,.712-2.109H20.06l-.023-.08h.4c0-.134,0-.448,0-.845l.362.026c-.007.047-.031.071-.144.084,0,.254,0,.5-.007.735h.411Z"/><path d="M23,84.65l.271.191c-.024.049-.064.069-.154.069h-1.24l-.02-.08h1ZM22,85.261h.7l.127-.167.248.174c-.027.054-.064.074-.151.074h-.9Zm1.066.438c-.027.05-.06.07-.15.07h-.9l-.02-.08h.682l.13-.167Zm.03-1.286c-.026.05-.063.07-.153.07h-.909l-.02-.08h.674l.141-.181Zm-.324,1.711.1-.127.284.2a.246.246,0,0,1-.14.067v.815c0,.01-.064.071-.207.071v-.2h-.585v.244s-.03.073-.207.073V86.023l.224.1Zm-.551.745h.585V86.2h-.585Zm2.5-1.3L25,85.78c-.023.049-.064.069-.157.069H24.18v1.337A.2.2,0,0,1,24,87.27h-.034V85.849H23.19l-.02-.08h.792V84.85h-.347a2.576,2.576,0,0,1-.367.659l-.051-.03a5.017,5.017,0,0,0,.371-1.307l.344.084c-.01.04-.033.063-.117.066-.043.151-.093.3-.147.448h.832l.147-.194.285.2c-.027.05-.067.07-.158.07H24.18v.919h.394Z"/><path d="M28.146,84.232l.324.227c-.027.047-.064.071-.161.071h-.374v2.416c0,.177-.054.3-.4.324,0-.184-.156-.207-.471-.224V87h.572c.067,0,.087-.01.087-.05V84.53H25.4l-.02-.081h2.6Zm-1.25.715.287.208a.276.276,0,0,1-.144.066v1.15a.271.271,0,0,1-.214.074v-.251h-.832v.3s-.023.078-.21.078V84.977l.227.1h.782Zm-.9,1.167h.832v-.953h-.832Z"/><path d="M29.943,84.65l.27.191c-.026.049-.063.069-.153.069H28.89l-.02-.08h.936Zm.083-.234c-.03.05-.067.07-.153.07h-.832l-.024-.08h.6l.14-.181Zm-1,.845h.645l.127-.167.247.174c-.026.05-.063.074-.15.074h-.845Zm1.019.441c-.026.051-.063.071-.15.071h-.845l-.024-.08h.645l.127-.164Zm-.224.3.284.2a.289.289,0,0,1-.143.064v.808c0,.007-.06.071-.2.071v-.2h-.521v.25c0,.007-.03.074-.2.074V86.027l.22.1h.472Zm-.584.865h.521v-.658h-.521Zm2.492-.026.291.21c-.026.05-.066.07-.157.07H30.073l-.023-.08h.3v-1.8l.361.03c0,.057-.047.077-.157.094v1.677h.418V84.55h-.736l-.023-.081h1.273l.151-.193.281.2c-.024.05-.064.074-.154.074h-.582v1.123h.268l.147-.194.274.2c-.027.051-.067.071-.158.071h-.531v1.286h.4Z"/><path d="M123.745,85.051c-.024.042-.057.063-.144.063h-1.627a3.368,3.368,0,0,1-.3.517l.081.015c-.006.033-.036.054-.114.063V87.17c0,.018-.057.072-.163.072h-.03V85.913a2.4,2.4,0,0,1-.463.4l-.033-.039a2.7,2.7,0,0,0,.5-.568v-.111l.063.012a3.8,3.8,0,0,0,.253-.49H121l-.018-.072h.814a4.261,4.261,0,0,0,.187-.587l.318.094c-.012.036-.042.054-.12.051a4.4,4.4,0,0,1-.169.442h1.317l.147-.184Zm-.415,2,.141-.18.271.19c-.024.045-.057.063-.141.063h-1.807l-.018-.073h.827V86.049h-.695l-.018-.073h.713v-.691l.318.027c0,.045-.033.063-.123.075v.589h.4l.135-.171.258.181c-.027.045-.056.063-.141.063H122.8v1.006Z"/><path d="M124.583,85.562c.181-.033.391-.07.607-.112a1.208,1.208,0,0,0-.261-.309l.027-.027c.382.141.5.342.5.472,0,.078-.042.132-.1.132a.12.12,0,0,1-.078-.036.673.673,0,0,0-.061-.174c-.219.081-.513.183-.905.306a.111.111,0,0,1-.068.069l-.133-.246c.07-.009.166-.024.283-.043V84.63l.255.114a4.386,4.386,0,0,0,.586-.289l.229.19a.075.075,0,0,1-.057.021.26.26,0,0,1-.087-.018,5.384,5.384,0,0,1-.74.189Zm1.684.45.1-.12.258.186a.218.218,0,0,1-.129.061v1.01c0,.009-.057.066-.2.066v-.16h-1.589v.121s-.021.069-.193.069V85.916l.214.1Zm-.866.073h-.694v.408h.694Zm-.694.481v.418h.694v-.418Zm1.911-2.012.235.181c-.019.027-.055.039-.115.048-.018.595-.06.9-.168.983a.407.407,0,0,1-.274.078c0-.12-.036-.144-.249-.174l0-.051c.081,0,.241.006.3.006s.072,0,.09-.021a2.068,2.068,0,0,0,.111-.86h-.46a1.249,1.249,0,0,1-.715,1.184l-.042-.048a1.256,1.256,0,0,0,.543-1.136h-.324l-.021-.072h.992Zm-.322,1.531h-.7v.408h.7Zm-.7.9h.7v-.418h-.7Z"/><path d="M127.234,86.271h.334V85.006h-.259l-.018-.073h.277v-.468l.312.026c0,.045-.036.063-.129.079v.363h.523v-.468l.325.026c0,.048-.039.07-.139.081v.361h.055l.108-.153.21.162c-.024.046-.057.064-.135.064h-.238v1.265h.058l.117-.165.228.174c-.024.045-.057.063-.141.063h-1.47Zm.712.3c-.014.029-.039.045-.108.042a1.613,1.613,0,0,1-.553.631l-.039-.033a1.971,1.971,0,0,0,.409-.758Zm.328-1.56h-.523v.366h.523Zm-.523.439v.372h.523v-.372Zm0,.444v.382h.523v-.382Zm2.032-1.307.259.192a.236.236,0,0,1-.133.06v2.125c0,.156-.042.262-.309.289,0-.162-.1-.186-.316-.2v-.042h.373c.048,0,.06-.01.06-.049v-.844h-.649a1.388,1.388,0,0,1-.616,1.127l-.043-.033a1.3,1.3,0,0,0,.205-.232.081.081,0,0,1-.036.01.122.122,0,0,1-.081-.037.988.988,0,0,0-.289-.451l.027-.027c.355.121.448.3.433.412h0a2.247,2.247,0,0,0,.225-1.142v-1.13l.223.1h.568Zm-.7,1.154c0,.1,0,.2-.009.3h.643v-.607h-.634Zm.634-.956h-.634v.58h.634Z"/><path d="M131.41,85.531h-.635v1.63c0,.012-.015.081-.192.081V84.554l.21.1h.589l.085-.111.243.174a.213.213,0,0,1-.114.054v.86a.233.233,0,0,1-.186.06Zm0-.805h-.635v.325h.635Zm-.635.733h.635v-.336h-.635Zm1.7.5a.22.22,0,0,1-.117.055v.925a.235.235,0,0,1-.187.066V86.86h-.739v.106s-.028.065-.187.065V85.8l.2.09h.7l.084-.111Zm-.3.01h-.739v.363h.739Zm-.739.823h.739V86.4h-.739Zm1.464-2.26.261.192a.236.236,0,0,1-.132.06v2.173c0,.157-.045.262-.325.289,0-.169-.123-.187-.342-.2V87h.4c.054,0,.066-.011.066-.045V85.531h-.658v.084s-.027.067-.189.067V84.564l.2.09h.616Zm-.067.2h-.658v.325h.658Zm-.658.733h.658v-.336h-.658Z"/><path d="M135.78,86.166h-.752a1.135,1.135,0,0,1-.252.526,3.82,3.82,0,0,0,1.584.334l0,.036a.213.213,0,0,0-.165.18,3.1,3.1,0,0,1-1.509-.457,2.371,2.371,0,0,1-1.1.475l-.021-.054a2.345,2.345,0,0,0,1-.517,1.407,1.407,0,0,1-.3-.367l.042-.036a1.268,1.268,0,0,0,.327.322,1,1,0,0,0,.2-.442h-.694v.111s-.021.069-.193.069V85.053l.214.1h.712v-.379h-1.278l-.017-.072h2.335l.15-.187.283.2c-.024.042-.057.063-.144.063h-1.134v.379h.683l.093-.12.261.186a.246.246,0,0,1-.129.06v.983c0,.009-.063.066-.195.066Zm-.908-.944h-.733v.393h.733Zm-.733.871h.709a2.416,2.416,0,0,0,.024-.405h-.733Zm.928-.405a2.511,2.511,0,0,1-.026.405h.739v-.405Zm.713-.466h-.713v.393h.713Z"/><path d="M137.514,86.268l0,0c.376.093.5.265.5.382a.1.1,0,0,1-.1.114.121.121,0,0,1-.075-.03.951.951,0,0,0-.328-.424v.866c0,.009-.024.069-.189.069v-.854a2.1,2.1,0,0,1-.593.635l-.039-.049a2.293,2.293,0,0,0,.554-.881h-.481l-.021-.071h.58v-.394h-.6l-.018-.073h.839c.054-.174.12-.411.156-.586l.3.087c-.009.034-.042.046-.108.043a4.491,4.491,0,0,1-.277.456h.217l.129-.165.249.175c-.021.045-.057.063-.141.063h-.454c-.015.018-.045.027-.1.033v.361h.282l.124-.166.237.175c-.024.044-.054.062-.138.062h-.5Zm-.737-1.332-.018-.072h.566v-.406l.318.028c0,.042-.033.063-.126.075v.3h.246l.13-.168.246.177c-.027.045-.06.063-.141.063Zm.223.042a.533.533,0,0,1,.268.4c0,.1-.055.162-.115.162a.1.1,0,0,1-.081-.048,1.04,1.04,0,0,0-.111-.5Zm2.275.361.265.192c-.024.045-.06.063-.144.063h-.268v1.588c0,.015-.063.063-.162.063h-.03V85.594h-.445v.1a1.644,1.644,0,0,1-.689,1.545l-.042-.039A1.83,1.83,0,0,0,138.3,85.7v-1l.226.078a3.766,3.766,0,0,0,.7-.316l.238.193a.071.071,0,0,1-.057.021.36.36,0,0,1-.088-.015,5.126,5.126,0,0,1-.823.192v.671h.643Z"/><path d="M142.648,85.868c-.024.042-.057.063-.142.063h-.426c-.009.027-.037.042-.118.052V86.3h.238l.132-.165.25.174c-.024.042-.058.063-.142.063h-.478v.565c0,.162-.039.277-.348.307,0-.156-.151-.177-.4-.192V87h.472c.063,0,.078-.014.078-.063V86.37h-1.8l-.018-.072h1.822v-.367h-1.891l-.018-.072h1.3v-.385h-.968l-.021-.072h.989v-.276a1.386,1.386,0,0,1-.172.111l-.039-.036a2.1,2.1,0,0,0,.5-.749l.271.133a.07.07,0,0,1-.072.036.227.227,0,0,1-.043,0,1.666,1.666,0,0,1-.12.177h.767l.132-.171.256.177c-.024.045-.06.066-.141.066h-.674c.169.072.226.171.226.247a.111.111,0,0,1-.1.12.123.123,0,0,1-.081-.036.743.743,0,0,0-.189-.331h-.253a1.857,1.857,0,0,1-.24.238l.271.024c0,.039-.028.054-.106.066V85.4h.644l.126-.156.246.168c-.021.042-.057.06-.141.06h-.875v.385h.911l.132-.168Zm-2.1-1c.148.081.2.175.2.247a.106.106,0,0,1-.1.114.108.108,0,0,1-.078-.039.713.713,0,0,0-.132-.322h-.163a1.7,1.7,0,0,1-.373.421l-.042-.033a2.506,2.506,0,0,0,.391-.8l.279.1c-.011.031-.039.049-.108.043-.03.066-.066.132-.1.2h.568l.117-.156.232.162c-.024.045-.06.066-.138.066Zm-.078,1.575c.43.1.566.3.566.421a.1.1,0,0,1-.1.117.124.124,0,0,1-.079-.027,1.143,1.143,0,0,0-.412-.481Z"/><path d="M144.03,84.885l.243.171c-.021.046-.057.064-.138.064H143.02L143,85.048h.9Zm-.893.55h.626l.114-.15.222.156c-.024.048-.057.067-.135.067h-.809Zm.959.394c-.024.045-.054.063-.135.063h-.806l-.018-.072h.613l.118-.15Zm.028-1.157c-.025.045-.058.063-.139.063h-.818l-.018-.072h.608l.126-.163Zm-.292,1.539.087-.115.255.181a.223.223,0,0,1-.126.06v.734c0,.009-.057.063-.186.063v-.181h-.526v.22s-.027.066-.187.066V86.121l.2.09Zm-.5.67h.526v-.6h-.526Zm2.245-1.166.252.186c-.021.046-.056.064-.141.064h-.6v1.2a.177.177,0,0,1-.165.075h-.03V85.965h-.694l-.018-.073h.712v-.826h-.313a2.269,2.269,0,0,1-.331.592l-.045-.027a4.5,4.5,0,0,0,.334-1.176l.31.076c-.009.036-.03.057-.105.06-.04.135-.084.273-.133.4h.749l.132-.174.255.184c-.023.045-.06.063-.141.063h-.517v.826h.355Z"/><path d="M148.653,84.51l.292.2c-.024.042-.057.063-.144.063h-.337V86.95c0,.16-.048.268-.363.292,0-.166-.142-.187-.424-.2V87h.513c.06,0,.079-.008.079-.045V84.777H146.18l-.018-.072H148.5Zm-1.124.643.259.186a.246.246,0,0,1-.129.06v1.034a.248.248,0,0,1-.193.066v-.225h-.748v.271s-.021.069-.19.069V85.18l.2.093h.7Zm-.811,1.049h.748v-.857h-.748Z"/><path d="M151.6,84.894l.261.193a.242.242,0,0,1-.129.06v1.331c0,.01-.06.07-.2.07v-.232h-.8v.848c0,.009-.027.084-.2.084v-.932h-.787v.19s-.022.071-.2.071V84.921l.217.1h.766v-.563l.328.031c-.007.042-.033.065-.127.075v.457h.767Zm-1.064.2h-.787v.535h.787Zm-.787,1.151h.787V85.7h-.787Zm1.785-1.151h-.8v.535h.8Zm-.8,1.151h.8V85.7h-.8Z"/><path d="M153.285,84.885l.24.171c-.021.046-.057.064-.138.064h-1.049l-.021-.072h.842Zm.072-.21c-.024.045-.057.063-.138.063h-.749l-.021-.072h.545l.123-.162Zm-.9.76h.584l.114-.15.222.156c-.024.046-.057.067-.138.067h-.761Zm.92.4c-.024.045-.057.063-.138.063h-.761l-.021-.072h.584l.114-.147Zm-.288.382.087-.114.252.18a.274.274,0,0,1-.126.057v.728c0,.006-.054.063-.186.063V86.95h-.466v.226c0,.006-.027.066-.184.066V86.124l.2.09Zm-.439.664h.466v-.592h-.466Zm2.245-1.515.256.178c-.027.045-.06.066-.145.066h-1.539l-.018-.073h.719v-.285h-.532l-.021-.072h.553V84.9h-.628l-.021-.072h.649v-.37l.333.031c0,.047-.036.068-.141.081v.258h.343l.132-.168.247.174c-.021.045-.058.066-.139.066h-.583v.277h.274l.12-.16.244.169c-.028.045-.061.063-.139.063h-.5v.285h.4Zm-.243.511.093-.117.255.183a.208.208,0,0,1-.126.06v.95c0,.154-.036.262-.273.286,0-.156-.06-.186-.247-.2v-.042h.28c.039,0,.048-.008.048-.047V86.68h-.821v.49s-.021.069-.189.069V85.781l.2.093Zm.03.073h-.821v.288h.821Zm-.821.661h.821v-.3h-.821Z"/><path d="M157.006,85.414h-.379v1.75c0,.009-.012.075-.177.075V85.228a.239.239,0,0,1-.093.015h-.289v.445c.274.135.361.291.361.4,0,.072-.039.117-.09.117a.1.1,0,0,1-.072-.033.963.963,0,0,0-.2-.421v1.416c0,.009-.024.072-.183.072V85.859a2.808,2.808,0,0,1-.367.689l-.048-.042a3.977,3.977,0,0,0,.379-1.263H155.5l-.021-.072h.4v-.71l.313.028c0,.042-.033.065-.13.075v.607h.084l.12-.175.178.145v-.6l.193.1h.333l.084-.111.247.174a.274.274,0,0,1-.126.057v.7c0,.01-.052.063-.175.063Zm0-.7h-.379v.282h.379Zm-.379.631h.379v-.276h-.379Zm.737,1.206v.078c.345.054.454.195.454.285a.07.07,0,0,1-.069.078.087.087,0,0,1-.055-.015.952.952,0,0,0-.33-.3v.436c0,.008-.021.066-.159.066V86.7a1.584,1.584,0,0,1-.491.37l-.032-.055a1.547,1.547,0,0,0,.444-.462h-.147v.06s-.024.051-.147.051v-.733l.162.078h.211v-.169h-.466l-.021-.072h.487v-.216l.267.021c-.006.036-.027.054-.108.063v.132h.21l.109-.138.219.147c-.024.045-.057.063-.135.063h-.4V86h.2l.072-.1.217.154a.236.236,0,0,1-.108.051v.439a.19.19,0,0,1-.157.057v-.06Zm-.159-.473h-.226v.166h.226Zm-.226.4h.226v-.162h-.226Zm.607-.4h-.222v.166h.222Zm-.222.4h.222v-.162h-.222Zm.673-1.963.255.193a.266.266,0,0,1-.131.06v2.2c0,.144-.031.243-.3.279,0-.165-.166-.177-.3-.19v-.042h.349c.045,0,.063-.008.063-.051V85.417h-.394v.042s-.024.06-.177.06v-.968l.192.088h.349Zm-.063.2h-.394V85h.394Zm-.394.634h.394v-.276h-.394Z"/><path d="M74.424,13.673a5.736,5.736,0,0,0,.762-1.718l.344.111c-.013.036-.04.06-.127.056a5.683,5.683,0,0,1-.294.675l.113.044c-.01.03-.043.053-.1.06v2.078a.259.259,0,0,1-.178.074H74.9V13.161a3.137,3.137,0,0,1-.427.545Zm2.8.916.321.223c-.031.051-.071.071-.164.071H75.336a.5.5,0,0,0-.02-.081h.959V13.786h-.742a.573.573,0,0,0-.02-.08h.762v-.892h-.849l-.023-.08h1.574l.16-.207.3.217c-.027.05-.067.07-.161.07H76.5v.892h.414l.15-.194.291.2c-.03.05-.067.07-.157.07h-.7V14.8h.558Zm-1.29-2.627c.565.113.741.364.741.521a.124.124,0,0,1-.116.14.152.152,0,0,1-.087-.03A1.46,1.46,0,0,0,75.914,12Z"/><path d="M80.769,13.168l.3.217c-.027.05-.067.071-.161.071H79.846v.528h.615l.1-.134.29.207a.265.265,0,0,1-.143.067v.825a.267.267,0,0,1-.217.074v-.167H79.011v.12c0,.007-.033.074-.211.074V13.88l.234.1h.6v-.528h-1.1a2.688,2.688,0,0,1-.549,1.59l-.049-.033a4.2,4.2,0,0,0,.394-2.072v-.906l.257.111h1.955l.1-.134.294.207a.281.281,0,0,1-.143.07v.658a.28.28,0,0,1-.218.067v-.16H78.543c0,.164,0,.291-.01.521h1.1v-.5l.355.03c0,.05-.04.07-.141.084v.387h.765Zm-.2-.942H78.543v.548h2.028ZM80.5,14.064H79.011v.712H80.5Z"/><path d="M82.091,13.018v1.159c.171-.04.358-.086.545-.133l.013.05c-.224.107-.538.257-.969.437a.122.122,0,0,1-.074.084l-.147-.294c.094-.017.241-.05.421-.094V13.018h-.394l-.02-.08h.414v-.876l.368.03c0,.057-.05.074-.157.09v.756h.14l.137-.2.261.207c-.026.051-.064.071-.153.071Zm2.366,1.226-.007.5c.111.033.134.046.134.083,0,.1-.107.137-.461.137h-.949c-.331,0-.421-.063-.421-.357V13.409l-.355.16-.053-.06.408-.187V12.289l.357.031c-.006.053-.033.073-.147.089v.816l.478-.217V11.962l.351.03c-.007.05-.037.074-.141.083v.836L84.1,12.7l.1-.184.3.164a.255.255,0,0,1-.153.09V13.9c0,.147-.044.264-.315.29,0-.156-.023-.183-.217-.207v-.04h.261c.05,0,.06-.013.06-.05V12.774L83.651,13v1.243c0,.007-.029.08-.21.08V13.092l-.478.22v1.3c0,.14.024.16.2.16h.965c.067,0,.118-.007.151-.053a2.442,2.442,0,0,0,.143-.472Z"/><path d="M135.086,12.623l.144-.187.281.2c-.027.05-.067.07-.154.07h-1.34l-.02-.081Zm.211-.424c-.026.05-.064.07-.153.07h-.963l-.02-.08h.725l.14-.18Zm-.24.688.25.174c-.027.054-.06.074-.15.074h-.966l-.02-.081h.755Zm-.866.676-.02-.081h.755l.131-.167.25.177c-.027.051-.06.071-.15.071Zm.772.354.1-.127.284.2a.273.273,0,0,1-.14.067v.826c0,.009-.064.073-.207.073v-.207h-.612v.227c0,.007-.03.074-.2.074V13.817l.22.1Zm-.578.752H135V14h-.612Zm2.63-.485-.007.534c.11.038.127.044.127.081,0,.093-.1.144-.405.144h-.778c-.3,0-.361-.054-.361-.308v-1.41l.254.11h.872V12.276h-1.189l-.024-.08h1.18l.1-.134.287.207a.268.268,0,0,1-.144.067v1.18c0,.01-.067.077-.214.077v-.178h-.912v1.223c0,.107.007.114.151.114h.758c.07,0,.11,0,.137-.06a3.112,3.112,0,0,0,.13-.508Z"/><path d="M140.6,14.3l-.056.5a.354.354,0,0,1,.1.18c0,.034-.036.077-.1.077a1.176,1.176,0,0,1-.716-.625,2.306,2.306,0,0,1-.772.615l-.033-.05a2.414,2.414,0,0,0,.729-.722,4.125,4.125,0,0,1-.294-1.36h-1.879l-.023-.08h.809v-.381h-.632l-.023-.08h.655v-.4l.371.034c0,.053-.04.073-.157.09v.281h.33l.141-.184.267.191c-.023.05-.063.073-.154.073h-.584v.381h.872c-.02-.274-.027-.565-.027-.869l.348.04c-.007.044-.031.061-.131.07,0,.254,0,.512.014.759h.528l.157-.2.3.21c-.026.047-.063.07-.16.07h-.819a4.059,4.059,0,0,0,.218,1.143,3.273,3.273,0,0,0,.3-.845l.334.09c-.017.043-.047.06-.137.057a3.08,3.08,0,0,1-.414.892,1.242,1.242,0,0,0,.371.445.093.093,0,0,0,.053.029c.054,0,.17-.391.181-.434Zm-1.163.227c-.03.05-.063.07-.154.07h-.715v.381c0,.007-.03.077-.207.077V14.6H137.6l-.02-.08h.772v-.247h-.374v.056s-.03.067-.2.067v-.912l.214.1h.357v-.234h-.691l-.02-.08h.711v-.281l.318.027c0,.04-.027.057-.111.066v.188h.392l.133-.161.264.171c-.027.05-.063.07-.154.07h-.635v.234h.352l.086-.107.244.17a.21.21,0,0,1-.1.051V14.3c0,.01-.06.071-.2.071v-.107h-.378v.247h.465l.137-.177Zm-1.076-.869h-.374v.224h.374Zm-.374.531h.374V13.96h-.374Zm.959-.531h-.378v.224h.378Zm-.378.531h.378V13.96h-.378Zm1.337-2.118c.474.043.628.231.628.354a.1.1,0,0,1-.1.11.144.144,0,0,1-.077-.023,1.2,1.2,0,0,0-.464-.4Z"/><path d="M143.827,12.867l.3.218c-.027.047-.064.07-.161.07h-1.093a7.087,7.087,0,0,1-.721.451h1.27l.1-.137.291.207a.272.272,0,0,1-.144.07v1.2a.267.267,0,0,1-.217.074v-.2h-1.434v.151s-.026.077-.217.077V13.786a7.212,7.212,0,0,1-.795.328l-.02-.057a7.067,7.067,0,0,0,.815-.411V13.5l.144.067a7.264,7.264,0,0,0,.6-.408h-1.484l-.023-.081h1.24v-.537h-.913l-.02-.081h.933v-.5l.354.03c0,.047-.04.07-.137.084v.387h.444l.154-.2.274.19c.12-.127.23-.251.324-.371l.284.227a.077.077,0,0,1-.06.027.213.213,0,0,1-.084-.024,5.256,5.256,0,0,1-.855.765h.681Zm-.368.819h-1.434v.468h1.434Zm-1.434,1.056h1.434v-.508h-1.434Zm.482-1.668h.157a6.587,6.587,0,0,0,.628-.541.172.172,0,0,1-.047,0h-.738Z"/><path d="M147.175,13.559l.294.214a.3.3,0,0,1-.147.07v1.106c0,.007-.064.077-.221.077v-.19h-1.393v.14a.211.211,0,0,1-.181.074h-.037V13.843a4.991,4.991,0,0,1-.925.378l-.023-.057a4.411,4.411,0,0,0,1.266-.718.11.11,0,0,1-.083-.031,1.567,1.567,0,0,0-.478-.574,3.026,3.026,0,0,1-.569.384l-.036-.047a3.143,3.143,0,0,0,1.032-1.226l.351.107c-.013.036-.044.047-.127.04a2.256,2.256,0,0,1-.177.25h.929l.167-.15.254.248c-.027.029-.067.036-.154.04a3.433,3.433,0,0,1-1.176,1.209l.007,0h1.32Zm-1.517-1.129a3.811,3.811,0,0,1-.361.371c.461.153.608.384.608.524a.212.212,0,0,1-.007.047,3.226,3.226,0,0,0,.752-.942Zm.05,2.326H147.1V13.78h-1.393Z"/><path d="M65.975,7.074a7.861,7.861,0,0,0,1.043-2.353l.472.151c-.019.05-.055.082-.175.078a7.58,7.58,0,0,1-.4.924l.155.06c-.013.041-.059.073-.141.082V8.864a.36.36,0,0,1-.243.1h-.055V6.373a4.331,4.331,0,0,1-.586.746Zm3.831,1.254.439.307c-.041.068-.1.1-.224.1h-2.8a.725.725,0,0,0-.027-.11H68.51V7.229H67.494a.769.769,0,0,0-.027-.11H68.51V5.9H67.348l-.033-.11h2.157l.219-.283.413.3c-.037.069-.092.1-.22.1H68.812V7.119h.568l.206-.265.4.279c-.041.069-.091.1-.215.1h-.957V8.621h.765Zm-1.767-3.6c.773.155,1.016.5,1.016.714a.171.171,0,0,1-.16.192.213.213,0,0,1-.119-.041,1.986,1.986,0,0,0-.76-.814Z"/><path d="M74.657,6.383l.417.3c-.036.069-.092.1-.22.1h-1.46V7.5h.842l.142-.182.4.283a.365.365,0,0,1-.2.092v1.13a.367.367,0,0,1-.3.1V8.694H72.25v.165c0,.009-.046.1-.289.1v-1.6l.321.141H73.1V6.776H71.59a3.693,3.693,0,0,1-.75,2.179l-.069-.046a5.745,5.745,0,0,0,.54-2.837V4.831l.353.151h2.678l.137-.183.4.283a.389.389,0,0,1-.2.1v.9c0,.01-.092.092-.3.092v-.22H71.609c0,.224,0,.4-.014.714H73.1V5.98l.485.041c0,.069-.055.1-.192.114v.531h1.048Zm-.27-1.291H71.609v.751h2.778ZM74.282,7.61H72.25v.974h2.032Z"/><path d="M76.46,6.176V7.765c.234-.055.49-.119.747-.183l.018.069c-.307.146-.737.352-1.328.6a.166.166,0,0,1-.1.114l-.2-.4c.129-.023.33-.069.577-.128V6.176h-.54L75.6,6.067h.568v-1.2l.5.041c0,.079-.069.1-.216.124V6.067h.193l.187-.27.357.283c-.036.069-.087.1-.21.1ZM79.7,7.857l-.009.677c.151.046.183.064.183.115,0,.137-.146.187-.631.187h-1.3c-.453,0-.576-.087-.576-.49V6.712l-.486.22-.073-.083.559-.256V5.178l.489.042c-.008.073-.045.1-.2.123V6.46l.655-.3V4.73l.481.041c-.01.069-.051.1-.193.114V6.03l.618-.284.138-.252.416.225a.348.348,0,0,1-.21.124V7.381c0,.2-.06.361-.431.4,0-.215-.032-.252-.3-.284V7.44h.356c.069,0,.083-.018.083-.069V5.843l-.673.306v1.7c0,.009-.041.11-.288.11V6.277l-.655.3V8.356c0,.192.032.219.275.219h1.323c.091,0,.16-.009.206-.073a3.382,3.382,0,0,0,.2-.645Z"/><path d="M81.88,5.636l.2-.256.384.27c-.037.069-.091.1-.211.1H80.415l-.028-.11Zm.288-.581c-.037.069-.087.1-.21.1H80.639l-.027-.11h.993l.192-.247ZM81.838,6l.344.238c-.037.073-.082.1-.206.1H80.653l-.028-.11H81.66Zm-1.185.925-.028-.11H81.66l.178-.229.344.242c-.037.069-.082.1-.206.1Zm1.057.485.133-.174.389.275a.377.377,0,0,1-.192.091V8.731c0,.013-.087.1-.284.1V8.548h-.838v.311c0,.009-.041.1-.279.1V7.271l.3.137Zm-.792,1.03h.838v-.92h-.838Zm3.6-.664-.009.733c.151.05.174.059.174.109,0,.128-.133.2-.554.2H83.065c-.407,0-.494-.073-.494-.421V6.46l.348.152h1.194V5.16H82.484l-.032-.109h1.616l.141-.184.395.284a.384.384,0,0,1-.2.092V6.859c0,.013-.091.105-.293.105V6.721H82.864V8.4c0,.146.009.155.206.155h1.039c.1,0,.151,0,.188-.082a4.4,4.4,0,0,0,.178-.7Z"/><path d="M89.418,7.93l-.078.686a.471.471,0,0,1,.133.248.128.128,0,0,1-.141.1,1.6,1.6,0,0,1-.98-.856,3.2,3.2,0,0,1-1.058.842l-.045-.069a3.324,3.324,0,0,0,1-.988,5.638,5.638,0,0,1-.4-1.864H85.271l-.032-.109h1.108V5.4h-.866l-.031-.11h.9V4.739l.508.046c-.005.073-.055.1-.215.123v.385h.453l.192-.252.366.261c-.032.069-.087.1-.21.1h-.8v.522h1.194c-.027-.375-.036-.774-.036-1.19l.476.054c-.009.06-.041.083-.179.1,0,.349,0,.7.019,1.04h.723l.215-.275.412.289c-.036.064-.087.095-.22.095H88.123a5.541,5.541,0,0,0,.3,1.566,4.475,4.475,0,0,0,.417-1.158l.458.124c-.023.059-.065.082-.188.077a4.185,4.185,0,0,1-.567,1.222,1.7,1.7,0,0,0,.507.609.138.138,0,0,0,.074.042c.073,0,.233-.536.247-.595Zm-1.593.311c-.041.069-.087.1-.21.1h-.98v.522c0,.009-.041.105-.283.105V8.337H85.321l-.027-.11h1.058V7.888h-.513v.079s-.042.091-.271.091V6.808l.293.133h.491V6.62H85.4l-.028-.109h.976V6.126l.434.037c0,.055-.036.077-.151.091v.257h.536l.183-.22.361.234c-.036.068-.087.095-.21.095h-.87v.321h.481l.119-.146.334.233a.28.28,0,0,1-.142.069v.842c0,.014-.082.1-.275.1V7.888h-.517v.339h.636l.188-.242Zm-1.473-1.19h-.513v.307h.513Zm-.513.728h.513V7.468h-.513Zm1.313-.728h-.517v.307h.517Zm-.517.728h.517V7.468h-.517Zm1.831-2.9c.65.059.861.316.861.485a.142.142,0,0,1-.138.151.2.2,0,0,1-.1-.032,1.65,1.65,0,0,0-.636-.554Z"/><path d="M92.329,6.176h-.577V8.841c0,.014-.019.114-.271.114V5.893a.369.369,0,0,1-.141.023H90.9v.677c.417.206.55.444.55.6,0,.11-.06.179-.138.179a.156.156,0,0,1-.109-.051,1.47,1.47,0,0,0-.3-.64V8.841c0,.014-.036.109-.279.109v-2.1A4.252,4.252,0,0,1,90.062,7.9l-.073-.065a6.08,6.08,0,0,0,.577-1.922H90.04l-.032-.11h.613V4.725l.476.042c0,.064-.05.1-.2.114v.925h.128l.183-.266.27.22V4.849L91.774,5h.509l.128-.169.375.266a.415.415,0,0,1-.192.086V6.24c0,.014-.078.1-.265.1Zm0-1.071h-.577v.431h.577Zm-.577.962h.577V5.646h-.577ZM92.873,7.9v.118c.527.083.691.3.691.435a.107.107,0,0,1-.1.119.135.135,0,0,1-.082-.023,1.46,1.46,0,0,0-.5-.462v.664c0,.013-.032.1-.242.1V8.127a2.384,2.384,0,0,1-.746.563l-.051-.083a2.362,2.362,0,0,0,.678-.7h-.225v.091s-.036.078-.224.078V6.955l.247.119h.321V6.818h-.71l-.032-.11h.742v-.33l.407.032c-.009.055-.041.082-.165.1v.2h.321l.164-.211.335.224c-.037.069-.088.1-.206.1h-.614v.256h.3l.11-.147.33.234a.357.357,0,0,1-.165.078v.668a.28.28,0,0,1-.238.087V7.9Zm-.242-.719h-.344v.251h.344Zm-.344.608h.344V7.545h-.344Zm.925-.608h-.339v.251h.339Zm-.339.608h.339V7.545h-.339ZM93.9,4.8l.39.293a.408.408,0,0,1-.2.092V8.539c0,.22-.045.37-.453.425,0-.251-.252-.27-.458-.288V8.612h.532c.068,0,.1-.014.1-.078V6.181h-.6v.064s-.037.092-.27.092V4.863L93.226,5h.531Zm-.095.3h-.6V5.54h.6Zm-.6.967h.6V5.65h-.6Z"/><rect class="b" x="0.25" y="10.25" width="162" height="7"/><line class="b" x1="162.25" y1="25.25" x2="161.75" y2="25.25"/><line class="c" x1="160.75" y1="25.25" x2="1.25" y2="25.25"/><line class="b" x1="0.75" y1="25.25" x2="0.25" y2="25.25"/><polyline class="b" points="162.25 32.75 162.25 33.25 161.75 33.25"/><line class="c" x1="160.75" y1="33.25" x2="1.25" y2="33.25"/><polyline class="b" points="0.75 33.25 0.25 33.25 0.25 32.75"/><line class="c" x1="0.25" y1="31.75" x2="0.25" y2="26.25"/><polyline class="b" points="0.25 25.75 0.25 25.25 0.75 25.25"/><line class="c" x1="1.75" y1="25.25" x2="161.25" y2="25.25"/><polyline class="b" points="161.75 25.25 162.25 25.25 162.25 25.75"/><line class="c" x1="162.25" y1="26.75" x2="162.25" y2="32.25"/><polyline class="b" points="162.25 40.75 162.25 41.25 161.75 41.25"/><line class="c" x1="160.75" y1="41.25" x2="1.25" y2="41.25"/><polyline class="b" points="0.75 41.25 0.25 41.25 0.25 40.75"/><line class="c" x1="0.25" y1="39.75" x2="0.25" y2="34.25"/><polyline class="b" points="0.25 33.75 0.25 33.25 0.75 33.25"/><line class="c" x1="1.75" y1="33.25" x2="161.25" y2="33.25"/><polyline class="b" points="161.75 33.25 162.25 33.25 162.25 33.75"/><line class="c" x1="162.25" y1="34.75" x2="162.25" y2="40.25"/><polyline class="b" points="162.25 48.75 162.25 49.25 161.75 49.25"/><line class="c" x1="160.75" y1="49.25" x2="1.25" y2="49.25"/><polyline class="b" points="0.75 49.25 0.25 49.25 0.25 48.75"/><line class="c" x1="0.25" y1="47.75" x2="0.25" y2="42.25"/><polyline class="b" points="0.25 41.75 0.25 41.25 0.75 41.25"/><line class="c" x1="1.75" y1="41.25" x2="161.25" y2="41.25"/><polyline class="b" points="161.75 41.25 162.25 41.25 162.25 41.75"/><line class="c" x1="162.25" y1="42.75" x2="162.25" y2="48.25"/><polyline class="b" points="162.25 56.75 162.25 57.25 161.75 57.25"/><line class="c" x1="160.75" y1="57.25" x2="1.25" y2="57.25"/><polyline class="b" points="0.75 57.25 0.25 57.25 0.25 56.75"/><line class="c" x1="0.25" y1="55.75" x2="0.25" y2="50.25"/><polyline class="b" points="0.25 49.75 0.25 49.25 0.75 49.25"/><line class="c" x1="1.75" y1="49.25" x2="161.25" y2="49.25"/><polyline class="b" points="161.75 49.25 162.25 49.25 162.25 49.75"/><line class="c" x1="162.25" y1="50.75" x2="162.25" y2="56.25"/><polyline class="b" points="162.25 64.75 162.25 65.25 161.75 65.25"/><line class="c" x1="160.75" y1="65.25" x2="1.25" y2="65.25"/><polyline class="b" points="0.75 65.25 0.25 65.25 0.25 64.75"/><line class="c" x1="0.25" y1="63.75" x2="0.25" y2="58.25"/><polyline class="b" points="0.25 57.75 0.25 57.25 0.75 57.25"/><line class="c" x1="1.75" y1="57.25" x2="161.25" y2="57.25"/><polyline class="b" points="161.75 57.25 162.25 57.25 162.25 57.75"/><line class="c" x1="162.25" y1="58.75" x2="162.25" y2="64.25"/><polyline class="b" points="162.25 72.75 162.25 73.25 161.75 73.25"/><line class="c" x1="160.75" y1="73.25" x2="1.25" y2="73.25"/><polyline class="b" points="0.75 73.25 0.25 73.25 0.25 72.75"/><line class="c" x1="0.25" y1="71.75" x2="0.25" y2="66.25"/><polyline class="b" points="0.25 65.75 0.25 65.25 0.75 65.25"/><line class="c" x1="1.75" y1="65.25" x2="161.25" y2="65.25"/><polyline class="b" points="161.75 65.25 162.25 65.25 162.25 65.75"/><line class="c" x1="162.25" y1="66.75" x2="162.25" y2="72.25"/><line class="b" x1="0.25" y1="73.25" x2="0.75" y2="73.25"/><line class="c" x1="1.75" y1="73.25" x2="161.25" y2="73.25"/><line class="b" x1="161.75" y1="73.25" x2="162.25" y2="73.25"/><line class="b" x1="32.25" y1="81.25" x2="32.25" y2="80.75"/><line class="d" x1="32.25" y1="79.764" x2="32.25" y2="11.243"/><line class="b" x1="32.25" y1="10.75" x2="32.25" y2="10.25"/><line class="b" x1="118.25" y1="10.25" x2="118.25" y2="10.75"/><line class="c" x1="118.25" y1="11.75" x2="118.25" y2="103.25"/><line class="b" x1="118.25" y1="103.75" x2="118.25" y2="104.25"/><path class="e" d="M35.109,19.787a4.5,4.5,0,0,0-.631.032v-.574a4.7,4.7,0,0,0,.668.036h1.377a2.4,2.4,0,0,0-.037-.469h.642a2.615,2.615,0,0,0-.036.469h1.425a4.313,4.313,0,0,0,.683-.036v.574a5.461,5.461,0,0,0-.647-.032H37.092v.293h1.091a5.146,5.146,0,0,0,.579-.021,5.236,5.236,0,0,0-.021.527v.965a4.109,4.109,0,0,0,.021.533,3.99,3.99,0,0,0-.579-.027h-.627a3.72,3.72,0,0,0,1.811.893,2.914,2.914,0,0,0-.3.553,4.4,4.4,0,0,1-1.988-1.226c0,.151.01.276.01.36v.375a3.878,3.878,0,0,0,.036.6h-.642a4.062,4.062,0,0,0,.037-.6v-.375c0-.063,0-.256.016-.355a4.162,4.162,0,0,1-1.89,1.227,2.254,2.254,0,0,0-.3-.528,3.976,3.976,0,0,0,1.728-.924h-.564a4.025,4.025,0,0,0-.59.027l.006-.068.01-.084a.505.505,0,0,0,.005-.11V20.591a4.917,4.917,0,0,0-.021-.538,3.646,3.646,0,0,0,.574.027h1.023v-.293Zm.391.742v.318h1.023v-.318Zm0,.751v.329h1.023V21.28Zm1.592-.433h1.1v-.318h-1.1Zm0,.762h1.1V21.28h-1.1Z"/><path class="e" d="M41.269,22.105a4.319,4.319,0,0,1-1.258,1.346A1.651,1.651,0,0,0,39.64,23a2.823,2.823,0,0,0,1.143-1.169Zm.454-2.907a2.149,2.149,0,0,0-.032-.381h.647a1.862,1.862,0,0,0-.031.376v.156H43.8a3.79,3.79,0,0,0,.611-.036v.59a3.068,3.068,0,0,0-.574-.032H40.292a3,3,0,0,0-.563.032v-.59a3.828,3.828,0,0,0,.626.036h1.368Zm-.94,2.541c-.229,0-.328,0-.47.016a3.032,3.032,0,0,0,.021-.412V20.6c-.005-.188-.005-.2-.005-.234a.394.394,0,0,0-.005-.079l0-.042a.347.347,0,0,0-.006-.067.286.286,0,0,0,.053,0l.073.005c.047,0,.214.011.344.011h2.51l.23-.006a1.293,1.293,0,0,0,.172,0c.016,0,.026-.005.073-.01a3.08,3.08,0,0,0-.021.422v.747c0,.182.005.271.016.412-.12-.011-.271-.016-.475-.016h-.913v1.3c0,.4-.172.516-.788.516-.1,0-.146,0-.423,0A1.7,1.7,0,0,0,41.013,23a3.885,3.885,0,0,0,.569.047c.172,0,.213-.021.213-.11v-1.2Zm.1-.517h2.306v-.537H40.888Zm2.358.611a3.077,3.077,0,0,0,1.237,1.117,2.354,2.354,0,0,0-.37.5,4.7,4.7,0,0,1-1.321-1.326Z"/><path class="e" d="M45.482,20.826a3.056,3.056,0,0,0-.553.031v-.548a2.948,2.948,0,0,0,.553.032H45.9v-.5h-.271a3.237,3.237,0,0,0-.49.026v-.538a2.954,2.954,0,0,0,.49.026H45.9v-.125a2.661,2.661,0,0,0-.026-.423h.606a3.434,3.434,0,0,0-.032.423v.125h.11a1.734,1.734,0,0,0,.376-.026v.4a3.809,3.809,0,0,0,.339-.715l.464.277c-.005-.146-.01-.23-.015-.334.135.01.24.015.454.015h.835a2.208,2.208,0,0,0,.433-.026l.24.36a1.8,1.8,0,0,0-.084.209c-.162.407-.193.475-.38.892-.1.225-.1.235-.147.34a2.668,2.668,0,0,1,.444.715,1.691,1.691,0,0,1,.146.657.727.727,0,0,1-.417.762,1.724,1.724,0,0,1-.715.084,1.286,1.286,0,0,0-.141-.58c.146.011.209.016.281.016.308,0,.413-.079.413-.313a1.611,1.611,0,0,0-.131-.626,1.83,1.83,0,0,0-.464-.668,8.644,8.644,0,0,0,.543-1.321h-.742v3.455a5.518,5.518,0,0,0,.037.71h-.616a7.083,7.083,0,0,0,.026-.72V19.365a.283.283,0,0,0-.036.068.515.515,0,0,0-.052.088,6.137,6.137,0,0,1-.533.825h.047a3.215,3.215,0,0,0,.423-.026v.527a4.232,4.232,0,0,0-.506-.021h-.371c-.1.115-.219.229-.391.392h.616a3.055,3.055,0,0,0,.428-.021c-.011.146-.016.245-.016.558V23a4.761,4.761,0,0,0,.021.537h-.548v-.182h-.882v.271h-.558a5.219,5.219,0,0,0,.026-.579v-1.08c-.126.093-.2.146-.36.245a1.387,1.387,0,0,0-.293-.506,5.329,5.329,0,0,0,1.274-.877Zm.454,1.226h.887v-.407h-.887Zm0,.851h.887v-.428h-.887Zm.564-2.562a4.016,4.016,0,0,0,.37-.491,1.887,1.887,0,0,0-.24-.01h-.172v.5Z"/><path class="e" d="M52.163,19.777c-.715.084-.934.1-1.529.126a1.669,1.669,0,0,0-.214-.549,9.474,9.474,0,0,0,3.6-.573l.391.521c-.167.042-.177.047-.334.089a10.069,10.069,0,0,1-1.294.3v1.09h1.482a3.707,3.707,0,0,0,.6-.036v.61a4.123,4.123,0,0,0-.6-.036H52.779v1.69a4.012,4.012,0,0,0,.036.643h-.688A4.126,4.126,0,0,0,52.163,23v-1.68h-1.4a4.143,4.143,0,0,0-.595.036v-.61a3.824,3.824,0,0,0,.595.036h1.4Z"/><path class="e" d="M56.011,21.577c0-.266.006-.4.016-.6a3.5,3.5,0,0,1-.532.653,1.975,1.975,0,0,0-.277-.6A4.4,4.4,0,0,0,56.47,18.8l.595.2a8.639,8.639,0,0,1-.485,1.111V23a4.344,4.344,0,0,0,.037.632h-.642a4.2,4.2,0,0,0,.036-.643Zm2.447-.819a4.137,4.137,0,0,0,.533,1.607c.177.292.417.554.511.554s.173-.256.225-.877a2.251,2.251,0,0,0,.5.339c-.12.893-.3,1.227-.674,1.227a1.124,1.124,0,0,1-.8-.533,4.6,4.6,0,0,1-.877-2.27l-.553.047a4.345,4.345,0,0,0-.522.063l-.015-.585h.151c.125,0,.3,0,.407-.015l.475-.037c-.031-.407-.037-.532-.047-.992-.005-.172-.016-.271-.026-.385l.631-.011a1.947,1.947,0,0,0-.026.4,8.112,8.112,0,0,0,.052.94l1.117-.089a4.223,4.223,0,0,0,.569-.073l.016.59c-.074,0-.11,0-.157,0-.078,0-.146,0-.381.021Zm.549-1.873a7.369,7.369,0,0,1,.8.809l-.433.4a2.046,2.046,0,0,0-.225-.292,6.192,6.192,0,0,0-.547-.569Z"/><path class="e" d="M64.535,23.566v-.287H61.373v.287h-.6a5.605,5.605,0,0,0,.032-.658V19.631c0-.209-.011-.376-.026-.559a5.34,5.34,0,0,0,.6.027h3.136a5.267,5.267,0,0,0,.6-.027,4.459,4.459,0,0,0-.026.554v3.282a5.7,5.7,0,0,0,.031.658Zm-3.162-2.678h1.262V19.626H61.373Zm0,1.874h1.262V21.406H61.373ZM63.2,20.888H64.53V19.626H63.2Zm0,1.874H64.53V21.406H63.2Z"/><path class="e" d="M70.507,23.393a3.893,3.893,0,0,0-.569-.031H66.619v.246H66A4.991,4.991,0,0,0,66.034,23V19.589c0-.224-.005-.386-.02-.558a4.5,4.5,0,0,0,.563.026h3.241a3.5,3.5,0,0,0,.616-.037v.611a3.937,3.937,0,0,0-.611-.031h-3.2v3.22h3.314a2.929,2.929,0,0,0,.574-.032Zm-.788-.787a13.016,13.016,0,0,0-1.1-1.034,6.275,6.275,0,0,1-1.482,1.133,3.019,3.019,0,0,0-.418-.449,5.9,5.9,0,0,0,1.466-1.038,11.808,11.808,0,0,0-1.2-.825l.4-.407c.631.412.746.5,1.184.814a3.824,3.824,0,0,0,.668-1.132l.575.271c-.037.057-.074.11-.084.125l-.078.141a6.375,6.375,0,0,1-.637.939c.438.35.741.611,1.153,1Z"/><path class="e" d="M71.928,20.654c.245.167.475.329.694.5a4.614,4.614,0,0,0,.125-.887h-.9a4.424,4.424,0,0,0-.59.031v-.621a4.2,4.2,0,0,0,.579.031h.934c0-.115,0-.157,0-.245a2.846,2.846,0,0,0-.042-.637h.648a2.029,2.029,0,0,0-.031.366l-.011.516h.882a4.7,4.7,0,0,0,.595-.026,4.311,4.311,0,0,0-.021.454l-.031,2.724c0,.063.01.089.041.105a.625.625,0,0,0,.2.025c.209,0,.267-.025.3-.13a5.163,5.163,0,0,0,.063-.986,1.964,1.964,0,0,0,.537.214c-.026.8-.1,1.148-.26,1.3-.121.12-.277.152-.689.152-.622,0-.762-.089-.757-.475l.031-2.8h-.908a5.261,5.261,0,0,1-.214,1.288,9.488,9.488,0,0,1,.762.71l-.339.507c-.23-.256-.4-.429-.647-.663A4.073,4.073,0,0,1,71.4,23.644a2.48,2.48,0,0,0-.413-.527A3,3,0,0,0,72.429,21.7a8.378,8.378,0,0,0-.856-.631Z"/><path class="e" d="M78.5,21.985c-.3.672-.631.981-1.06.981-.594,0-1.022-.6-1.022-1.446A2.236,2.236,0,0,1,76.992,20a2.339,2.339,0,0,1,1.8-.731,1.886,1.886,0,0,1,2.067,1.936,2.009,2.009,0,0,1-1.274,1.947,3.331,3.331,0,0,1-.814.219,1.7,1.7,0,0,0-.318-.611,2.84,2.84,0,0,0,1.038-.287,1.464,1.464,0,0,0,.725-1.3,1.287,1.287,0,0,0-.647-1.159,1.1,1.1,0,0,0-.522-.157A7.545,7.545,0,0,1,78.5,21.985Zm-.767-1.869a1.732,1.732,0,0,0-.71,1.409c0,.428.183.767.413.767.171,0,.349-.219.537-.668a7.135,7.135,0,0,0,.433-1.763A1.329,1.329,0,0,0,77.733,20.116Z"/><path class="e" d="M85.453,21.833a2.129,2.129,0,0,0-.345.49A3.8,3.8,0,0,1,83.851,21a2.839,2.839,0,0,1-1.242,1.42,2.052,2.052,0,0,0-.334-.439v1.012a4.3,4.3,0,0,0,.026.622h-.642a4.41,4.41,0,0,0,.036-.632V20.007a4.792,4.792,0,0,0-.02-.506,5.132,5.132,0,0,0,.605.026h1.279c0-.136,0-.2,0-.277a2.808,2.808,0,0,0-.032-.465h.653a1.232,1.232,0,0,0-.032.262c-.01.2-.015.338-.026.48h1.331a4.745,4.745,0,0,0,.595-.026,4.372,4.372,0,0,0-.021.506V23c0,.219-.015.3-.078.376-.115.146-.292.187-.8.187-.156,0-.26,0-.5-.015a1.869,1.869,0,0,0-.161-.6,4.315,4.315,0,0,0,.694.058c.24,0,.266-.017.266-.167Zm-3.178.084a2.332,2.332,0,0,0,1.237-1.868H82.275Zm1.806-1.868a2.463,2.463,0,0,1-.037.25,3.183,3.183,0,0,0,1.409,1.477V20.049Z"/><path class="e" d="M92.068,22.684l-.229.235-1.445-1.446-1.441,1.446-.229-.235,1.44-1.441-1.44-1.44.229-.234,1.441,1.445,1.445-1.445.229.229-1.44,1.445Z"/><path class="e" d="M93.187,21.442h1.425v.334H93.187Z"/><path class="e" d="M99.076,22.684l-.23.235L97.4,21.473,95.96,22.919l-.229-.235,1.44-1.441-1.44-1.44.229-.234L97.4,21.014l1.445-1.445.23.229-1.44,1.445Z"/><path class="e" d="M100.194,21.442h1.425v.334h-1.425Z"/><path class="e" d="M106.083,22.684l-.229.235-1.446-1.446-1.44,1.446-.23-.235,1.441-1.441-1.441-1.44.23-.234,1.44,1.445,1.446-1.445.229.229-1.44,1.445Z"/><path class="e" d="M111.309,22.684l-.23.235-1.445-1.446-1.441,1.446-.229-.235,1.44-1.441-1.44-1.44.229-.234,1.441,1.445,1.445-1.445.23.229-1.44,1.445Z"/><path class="e" d="M9.19,93.988a1.858,1.858,0,0,0,.32.02h.851a2.074,2.074,0,0,0,.32-.017V94.4a2.568,2.568,0,0,0-.3-.012H9.51a2.391,2.391,0,0,0-.32.016Zm.14-.561a1.808,1.808,0,0,0,.332.02h.587a1.815,1.815,0,0,0,.332-.02v.389a2.383,2.383,0,0,0-.332-.016H9.662a2.418,2.418,0,0,0-.332.016Zm0,3.595a3.68,3.68,0,0,0,.02-.388v-.6a2.474,2.474,0,0,0-.017-.32,2.341,2.341,0,0,0,.3.017h.691a1.429,1.429,0,0,0,.276-.013c-.008.084-.012.168-.012.292v.628a2.291,2.291,0,0,0,.02.328h-.4v-.136H9.733v.188ZM9.342,94.6a2.242,2.242,0,0,0,.263.012h.728a1.487,1.487,0,0,0,.256-.012v.376a2.145,2.145,0,0,0-.256-.012H9.605a2.23,2.23,0,0,0-.263.012Zm0,.564a2.242,2.242,0,0,0,.263.012h.724a1.513,1.513,0,0,0,.26-.012v.375a2.6,2.6,0,0,0-.264-.011H9.6a1.788,1.788,0,0,0-.26.011Zm.391,1.323h.476v-.4H9.733Zm2.291-1.439h.444a3.267,3.267,0,0,0,.436-.024v.448a3.263,3.263,0,0,0-.436-.024h-.444v1.1a3.477,3.477,0,0,0,.028.492h-.495a3.857,3.857,0,0,0,.027-.492v-1.1h-.436a3.424,3.424,0,0,0-.435.024v-.448a2.444,2.444,0,0,0,.371.024h.5v-.776h-.3a2.96,2.96,0,0,1-.372.58,1.428,1.428,0,0,0-.348-.3,2.355,2.355,0,0,0,.612-1.247l.459.1-.024.055s-.028.077-.036.1c-.024.061-.039.108-.119.32h.927a3.045,3.045,0,0,0,.432-.024v.44a3.983,3.983,0,0,0-.428-.02h-.364Z"/><path class="e" d="M13.773,93.911c-.175,0-.332.009-.491.024v-.451a4.245,4.245,0,0,0,.484.024h2.618a4.518,4.518,0,0,0,.491-.024v.451c-.1-.011-.271-.02-.447-.024v2.647c0,.376-.1.444-.676.444-.124,0-.252,0-.44-.012a1.573,1.573,0,0,0-.111-.444,4.425,4.425,0,0,0,.6.044c.148,0,.18-.02.18-.124V93.911Zm1.66,1.764a2.969,2.969,0,0,0,.015.323c-.072-.008-.079-.008-.156-.012h-.1c-.051,0-.087,0-.1,0h-.939v.332h-.459a2.808,2.808,0,0,0,.023-.36V94.7a2.324,2.324,0,0,0-.02-.368,3.173,3.173,0,0,0,.372.016h1.008a3.551,3.551,0,0,0,.384-.016,1.954,1.954,0,0,0-.02.34Zm-1.292-.081h.864v-.863h-.864Z"/><path class="e" d="M19.34,94.035v.584h-.583v-.584Zm0,1.711v.584h-.583v-.584Z"/><path class="e" d="M23.041,94.187a2.116,2.116,0,0,0,.112-.3H21.989v.327a8.194,8.194,0,0,1-.2,2.111,2.759,2.759,0,0,1-.3.692,2.282,2.282,0,0,0-.316-.388,2.329,2.329,0,0,0,.256-.644,8.71,8.71,0,0,0,.132-1.791,5.788,5.788,0,0,0-.024-.715,5.032,5.032,0,0,0,.511.02H24.32a3.187,3.187,0,0,0,.488-.025V93.9a3.261,3.261,0,0,0-.464-.02H23.6c-.037.111-.073.2-.117.3h.672a3.466,3.466,0,0,0,.408-.016,3.388,3.388,0,0,0-.016.388v.787a3.308,3.308,0,0,0,.016.389,3.859,3.859,0,0,0-.4-.017H23.6v.88c0,.32-.116.4-.607.4-.1,0-.188,0-.356-.008a1.269,1.269,0,0,0-.1-.428,3,3,0,0,0,.472.04c.124,0,.151-.012.151-.076v-.8h-.539a3.859,3.859,0,0,0-.4.017c.008-.121.012-.228.012-.4v-.764c0-.188,0-.256-.012-.4a3.669,3.669,0,0,0,.4.016Zm-.2,1.783a2.962,2.962,0,0,1-.7.972,2.205,2.205,0,0,0-.324-.3,2.154,2.154,0,0,0,.632-.84Zm-.2-1.2h1.479v-.232H22.645Zm0,.588h1.479v-.244H22.645Zm1.535.443a2.578,2.578,0,0,0,.732.78,2.11,2.11,0,0,0-.312.344,3.234,3.234,0,0,1-.776-.936Z"/><path class="e" d="M26.157,96.3a2.331,2.331,0,0,1-.647.748,1.443,1.443,0,0,0-.332-.3,1.6,1.6,0,0,0,.595-.644Zm-.431-.22a2.648,2.648,0,0,0-.292.012c.007-.127.012-.22.012-.388V93.867a3.529,3.529,0,0,0-.016-.371,3.245,3.245,0,0,0,.351.015h.872A2.664,2.664,0,0,0,27,93.5c-.008.084-.012.223-.012.347v1.879c0,.148,0,.312.012.372a2.882,2.882,0,0,0-.3-.012Zm.135-1.827h.72V93.9h-.72Zm0,.7h.72V94.6h-.72Zm0,.747h.72v-.4h-.72Zm.824.416a2.25,2.25,0,0,0,.552.58,2.709,2.709,0,0,0-.336.292,3.209,3.209,0,0,1-.572-.688Zm1.127-2.49a3.908,3.908,0,0,0-.024.483v1.5a3.616,3.616,0,0,0,.02.475h-.459a4.553,4.553,0,0,0,.02-.468V94.111a4,4,0,0,0-.024-.483Zm.864,2.9c0,.36-.124.456-.592.456-.112,0-.236,0-.408-.008a1.772,1.772,0,0,0-.135-.436,4.841,4.841,0,0,0,.511.032c.16,0,.2-.024.2-.12v-2.5a3.978,3.978,0,0,0-.028-.543H28.7a4.167,4.167,0,0,0-.028.543Z"/><path class="e" d="M29.222,94.871a1.789,1.789,0,0,0,.32.02h.3a1.734,1.734,0,0,0,.3-.02,3.983,3.983,0,0,0-.016.436v.863a.527.527,0,0,0,.176.2.719.719,0,0,0,.26.12,3.093,3.093,0,0,0,.687.06,14.942,14.942,0,0,0,1.716-.076,1.731,1.731,0,0,0-.12.456c-.4.016-.86.024-1.223.024a4.235,4.235,0,0,1-1.2-.084.972.972,0,0,1-.508-.364,4.112,4.112,0,0,1-.54.448l-.219-.424a2.7,2.7,0,0,0,.551-.392v-.86h-.215a1.567,1.567,0,0,0-.272.02Zm.352-1.483a5.149,5.149,0,0,1,.691.723l-.332.324a3.98,3.98,0,0,0-.679-.747Zm1.267.443c-.008,1.736-.044,2.012-.332,2.555a1.427,1.427,0,0,0-.344-.292c.24-.428.272-.668.272-2.055a4.8,4.8,0,0,0-.02-.595,3.6,3.6,0,0,0,.424.016h1.487a3.24,3.24,0,0,0,.416-.016,3.372,3.372,0,0,0-.016.423v2.179c0,.2-.064.292-.224.336a1.806,1.806,0,0,1-.44.032c-.06,0-.1,0-.18,0a.779.779,0,0,0-.088-.368,3.553,3.553,0,0,0,.36.02c.144,0,.156-.008.156-.1V93.831Zm.528.6H31.3c-.136,0-.237,0-.336.012v-.336a2.912,2.912,0,0,0,.336.016h.068v-.036a1.369,1.369,0,0,0-.016-.18h.407a1.126,1.126,0,0,0-.016.185v.031h.1a2.8,2.8,0,0,0,.332-.016v.336c-.1-.008-.2-.012-.332-.012h-.1v.208H31.9a2.616,2.616,0,0,0,.336-.016v.352a3,3,0,0,0-.336-.016h-.644a3.119,3.119,0,0,0-.339.016v-.352a2.708,2.708,0,0,0,.339.016h.117Zm-.4,1.7a2.587,2.587,0,0,0,.012-.3v-.48c0-.1,0-.172-.012-.26.091.008.16.012.248.012h.667a2.341,2.341,0,0,0,.248-.012c0,.1-.008.156-.008.252v.411c0,.1,0,.152.008.212-.064,0-.116-.007-.184-.007h-.616v.167Zm.363-.476h.452V95.41h-.452Z"/><path class="e" d="M34.781,96.75a3.678,3.678,0,0,0-.515.02,2,2,0,0,1,.108-.512,2.532,2.532,0,0,1,1.2-1.267c.376-.256.48-.384.48-.592,0-.268-.216-.435-.548-.435A.567.567,0,0,0,35,94.2a.794.794,0,0,0-.123.368l-.568-.068a1.082,1.082,0,0,1,1.187-.995c.7,0,1.132.336,1.132.883a.821.821,0,0,1-.24.6,3.218,3.218,0,0,1-.492.379c-.6.408-.82.624-.924.912h1.115a4.152,4.152,0,0,0,.584-.032v.528c-.188-.016-.348-.024-.6-.024Z"/><path class="e" d="M37.4,94.863a.76.76,0,0,1-.2-.528c0-.512.432-.835,1.115-.835s1.116.323,1.116.839a.741.741,0,0,1-.572.744.8.8,0,0,1,.712.811.815.815,0,0,1-.265.636,1.471,1.471,0,0,1-1,.288A1.37,1.37,0,0,1,37.3,96.5a.823.823,0,0,1-.232-.6.756.756,0,0,1,.328-.655.844.844,0,0,1,.4-.16A.768.768,0,0,1,37.4,94.863Zm.223,1c0,.328.252.52.688.52s.7-.188.7-.524-.26-.532-.7-.532C37.89,95.322,37.625,95.531,37.625,95.858Zm.117-1.467c0,.3.223.476.583.476s.572-.176.572-.472-.224-.464-.584-.464C37.969,93.931,37.742,94.115,37.742,94.391Z"/><path class="e" d="M41.066,93.959a3.774,3.774,0,0,0-.016-.4,3.116,3.116,0,0,0,.352.013h.483a3.227,3.227,0,0,0,.348-.013,2.975,2.975,0,0,0-.012.4v2.287c0,.212,0,.3.012.4h-.407v-.2h-.364v.336h-.42a3.644,3.644,0,0,0,.024-.476Zm.4.824h.36v-.836h-.36Zm0,1.267h.36v-.9h-.36Zm1.375-1.891c-.116,0-.212,0-.292.008a1.1,1.1,0,0,0-.136.012v-.423a2.871,2.871,0,0,0,.416.024h.352v-.108a1.779,1.779,0,0,0-.024-.3h.46a1.949,1.949,0,0,0-.02.3v.108h.435a2.91,2.91,0,0,0,.416-.024v.423a2.9,2.9,0,0,0-.412-.02H43.6v.38h.551a2.915,2.915,0,0,0,.436-.024v.424a2.6,2.6,0,0,0-.392-.02h-.068v.34h.052a2.5,2.5,0,0,0,.4-.02v.436a2.175,2.175,0,0,0-.4-.024h-.052v.9c0,.232-.04.328-.16.384a1.131,1.131,0,0,1-.44.064l-.311,0a1.049,1.049,0,0,0-.1-.42,3.449,3.449,0,0,0,.447.032c.124,0,.148-.016.148-.108v-.851h-.955a3.385,3.385,0,0,0-.428.024v-.436a3,3,0,0,0,.436.02h.947v-.34h-.947c-.164,0-.316.008-.44.02v-.424a3.154,3.154,0,0,0,.444.024h.412v-.38ZM43,96.578a3.216,3.216,0,0,0-.512-.656l.34-.224a3.206,3.206,0,0,1,.524.612Z"/><path class="e" d="M45.49,96.526a3.47,3.47,0,0,0,.024.492h-.468a3.576,3.576,0,0,0,.024-.5V93.911a4.413,4.413,0,0,0-.016-.447,3.633,3.633,0,0,0,.412.016h.707a3.38,3.38,0,0,0,.408-.016c-.008.128-.012.215-.012.372v.611c0,.184,0,.276.012.364-.1-.008-.228-.012-.368-.012H45.49Zm0-2.523h.687v-.2H45.49Zm0,.488h.687v-.2H45.49Zm2.051,1.719c0,.152,0,.244.012.348.112.012.227.02.3.02.112,0,.148-.028.148-.108V94.8h-.787c-.14,0-.268,0-.368.012.008-.116.012-.192.012-.364v-.611c0-.137,0-.248-.012-.372a3.466,3.466,0,0,0,.408.016h.767a3.588,3.588,0,0,0,.412-.016c-.012.148-.016.244-.016.443v2.619c0,.24-.048.344-.192.4a1.193,1.193,0,0,1-.448.048c-.064,0-.124,0-.28-.012a1.444,1.444,0,0,0-.1-.412c-.115,0-.191,0-.223,0h-.848v.224H45.9a2.742,2.742,0,0,0,.029-.4V95.4c0-.14-.005-.252-.013-.36a3.262,3.262,0,0,0,.372.016h.892a3.217,3.217,0,0,0,.372-.016c-.009.1-.012.2-.012.36Zm-1.216-.579h.816V95.39h-.816Zm0,.583h.816v-.26h-.816ZM47.257,94H48v-.2h-.747Zm0,.488H48v-.2h-.747Z"/><path class="e" d="M49.31,93.92a3.494,3.494,0,0,0-.032-.476h.512a2.351,2.351,0,0,0-.024.372v.108l.02,1.906a8.666,8.666,0,0,0,1.027-.543l.1.419a11.046,11.046,0,0,1-1.571.8c-.164.072-.172.076-.28.128l-.128-.488a2.726,2.726,0,0,0,.4-.128Zm2.9.075a3.933,3.933,0,0,1-.443,1.7,2.362,2.362,0,0,0,.871.859,2.026,2.026,0,0,0-.28.456,3.2,3.2,0,0,1-.86-.924,3.237,3.237,0,0,1-1.339.956,1.751,1.751,0,0,0-.256-.4,2.677,2.677,0,0,0,1.428-1.068,3.534,3.534,0,0,0,.432-1.882,1.822,1.822,0,0,0-.016-.264l.5.008a.594.594,0,0,0-.008.06c0,.051,0,.115-.012.192l0,.075ZM50.5,93.676a5.842,5.842,0,0,1,.792.979l-.412.284a4.655,4.655,0,0,0-.764-1.019Z"/><path class="e" d="M55.964,95.655a1.62,1.62,0,0,0-.263.375,2.935,2.935,0,0,1-.964-1.015,2.172,2.172,0,0,1-.951,1.087,1.589,1.589,0,0,0-.256-.336v.776a3.3,3.3,0,0,0,.02.476h-.492a3.357,3.357,0,0,0,.028-.484V94.255a3.536,3.536,0,0,0-.016-.388,3.608,3.608,0,0,0,.464.02h.979c0-.1,0-.151,0-.211a2.159,2.159,0,0,0-.024-.356h.5a.9.9,0,0,0-.024.2c-.008.152-.012.26-.02.367h1.019a3.336,3.336,0,0,0,.456-.02,3.433,3.433,0,0,0-.016.388v2.291c0,.168-.012.228-.06.288-.088.112-.224.144-.612.144-.119,0-.2,0-.383-.012a1.455,1.455,0,0,0-.124-.456,3.233,3.233,0,0,0,.531.044c.184,0,.2-.012.2-.128Zm-2.434.063a1.783,1.783,0,0,0,.947-1.431H53.53Zm1.383-1.431a1.825,1.825,0,0,1-.028.192,2.436,2.436,0,0,0,1.079,1.132V94.287Z"/><path class="e" d="M59.221,95.183a.476.476,0,1,1-.472-.476A.474.474,0,0,1,59.221,95.183Z"/><path class="e" d="M61.678,94.291a12.887,12.887,0,0,1-.064,1.523,2.856,2.856,0,0,1-.392,1.256,1.614,1.614,0,0,0-.364-.356,1.978,1.978,0,0,0,.308-.856,9.547,9.547,0,0,0,.088-1.671,4.277,4.277,0,0,0-.032-.7,3.817,3.817,0,0,0,.476.024h2.014a3.541,3.541,0,0,0,.46-.024c-.024.208-.04.591-.04,1.091a8.371,8.371,0,0,0,.076,1.379,1.512,1.512,0,0,0,.136.468,2.462,2.462,0,0,0,.1-.552,1.448,1.448,0,0,0,.26.3,2.03,2.03,0,0,1-.136.628c-.064.132-.144.2-.24.2-.124,0-.236-.1-.336-.316a5.715,5.715,0,0,1-.28-2.287c0-.192,0-.28,0-.5H61.678Zm.807.208c-.284.02-.319.024-.568.036a1.167,1.167,0,0,0-.151-.344h.128a4.543,4.543,0,0,0,1.455-.2l.252.347c-.053.008-.181.032-.388.072-.068.012-.156.028-.256.04l-.048,0-.036.008v.3h.352a2.71,2.71,0,0,0,.308-.012,1.962,1.962,0,0,0-.012.3v.6a1.931,1.931,0,0,0,.012.275,2.32,2.32,0,0,0-.261-.008h-.4v.456c.112-.012.172-.02.352-.048-.016-.04-.032-.072-.052-.116a.7.7,0,0,0-.072-.136l.323-.116a4.66,4.66,0,0,1,.392.848l-.375.156a2.786,2.786,0,0,0-.1-.3,11.539,11.539,0,0,1-1.316.172c-.175.016-.284.028-.319.036l-.073-.428a1.021,1.021,0,0,0,.108,0c.144,0,.492-.016.744-.036v-.492h-.324a2.5,2.5,0,0,0-.32.02,2.273,2.273,0,0,0,.017-.315v-.568a3.047,3.047,0,0,0-.013-.308,2.968,2.968,0,0,0,.316.012h.328Zm-.268.592v.5h.268v-.5Zm.932.5v-.5h-.28v.5Z"/><path class="e" d="M65.686,96.542c0,.2.007.36.02.5h-.468a4.474,4.474,0,0,0,.024-.5V95.426c0-.119,0-.255.012-.439a2.925,2.925,0,0,1-.256.364,1.458,1.458,0,0,0-.208-.476,3.193,3.193,0,0,0,.768-1.559l.471.108c-.051.151-.1.275-.128.368a4.662,4.662,0,0,1-.235.571Zm2.47-.884v.936a2.878,2.878,0,0,0,.02.428h-.451v-.2H66.653v.2h-.46a3.076,3.076,0,0,0,.02-.432v-1c-.1.068-.16.108-.283.183a1.659,1.659,0,0,0-.228-.4,2.833,2.833,0,0,0,1.219-1.2h.46a2.947,2.947,0,0,0,1.291,1.156,1.81,1.81,0,0,0-.212.443,2.418,2.418,0,0,1-.3-.188Zm-1.171-2.05a3.011,3.011,0,0,1-.908.971,1.154,1.154,0,0,0-.271-.36,2.127,2.127,0,0,0,.811-.851Zm.888,1.747a3.086,3.086,0,0,1-.7-.808,3.088,3.088,0,0,1-.668.808Zm-1.232,1.071h1.088v-.684H66.641Zm1-3.066a2.505,2.505,0,0,0,.927.763,1.347,1.347,0,0,0-.236.412,3.407,3.407,0,0,1-1.024-.94Z"/><path class="e" d="M69.718,93.864a2.291,2.291,0,0,0-.26-.4l.439-.092a3.983,3.983,0,0,1,.3.5h.368a3.4,3.4,0,0,0-.228-.46l.448-.072a4.752,4.752,0,0,1,.248.532h.288a3.014,3.014,0,0,0,.283-.536l.46.1c-.056.108-.164.287-.259.432h.239a3.8,3.8,0,0,0,.428-.017,2.882,2.882,0,0,0-.016.356v.32a1.88,1.88,0,0,0,.02.316h-.444v-.6H69.462v.6h-.44a1.949,1.949,0,0,0,.02-.312v-.316c0-.139,0-.228-.016-.364a4.129,4.129,0,0,0,.428.017Zm.3,1.6a3.617,3.617,0,0,0-.423.016,2.987,2.987,0,0,0,.016-.36v-.38c0-.132-.005-.228-.012-.3a2.144,2.144,0,0,0,.3.016h1.7a2.056,2.056,0,0,0,.292-.016,2.719,2.719,0,0,0-.012.316v.368a2.358,2.358,0,0,0,.016.36,3.952,3.952,0,0,0-.423-.016h-.564c-.048.107-.088.191-.14.283H71.84a3.248,3.248,0,0,0,.376-.015,2.988,2.988,0,0,0-.016.383v.52a2.538,2.538,0,0,0,.02.392h-.451v-.156H69.718v.156h-.444c.012-.136.02-.26.02-.4v-.52a3.163,3.163,0,0,0-.016-.379,3.227,3.227,0,0,0,.368.015h.663a2.186,2.186,0,0,0,.148-.283Zm-.3,1.023h2.054V96.1H69.718Zm.311-1.359h1.436v-.34H70.029Z"/><path class="e" d="M73.506,94.943a3.042,3.042,0,0,0-.412.02v-.38a3.633,3.633,0,0,0,.412.016h.483a3.28,3.28,0,0,0-.148-.3H73.41c-.2,0-.344.008-.476.02v-.4a3.642,3.642,0,0,0,.456.023h.128a1.8,1.8,0,0,0-.272-.372l.4-.151a2.753,2.753,0,0,1,.308.523h.227v-.283a2.225,2.225,0,0,0-.02-.312H74.6a2.681,2.681,0,0,0-.012.3v.3h.284v-.3a2.836,2.836,0,0,0-.012-.3h.435a2.235,2.235,0,0,0-.02.312v.283h.252a2.182,2.182,0,0,0,.288-.535l.412.152a4.19,4.19,0,0,1-.247.383h.111a3.4,3.4,0,0,0,.452-.023v.4c-.12-.012-.276-.02-.476-.02h-.4c-.072.16-.1.208-.148.3h.463a3.678,3.678,0,0,0,.412-.016v.38a3.007,3.007,0,0,0-.412-.02H74.937v.192h.835a2.893,2.893,0,0,0,.412-.02v.359a3.124,3.124,0,0,0-.412-.019h-.835v.2h1.115a3.661,3.661,0,0,0,.484-.024v.4a4.321,4.321,0,0,0-.48-.024h-.8a2.9,2.9,0,0,0,1.375.548,1.508,1.508,0,0,0-.228.408,3.106,3.106,0,0,1-1.483-.792,2.738,2.738,0,0,1,.012.284v.2c0,.08.02.324.028.4h-.472a2.919,2.919,0,0,0,.024-.407v-.192a2.652,2.652,0,0,1,.012-.272,3.069,3.069,0,0,1-1.391.776,1.591,1.591,0,0,0-.244-.384,2.877,2.877,0,0,0,1.307-.568H73.45a4.345,4.345,0,0,0-.484.024v-.4a3.811,3.811,0,0,0,.48.024h1.059v-.2h-.792a3.051,3.051,0,0,0-.407.019v-.359a2.868,2.868,0,0,0,.407.02h.792v-.192Zm1.567-.344a2.7,2.7,0,0,0,.132-.3h-.912a3.06,3.06,0,0,1,.12.3Z"/><path class="e" d="M78.413,93.708c-.02.092-.044.192-.084.351a3.673,3.673,0,0,0,.64-.112l.012.46a.184.184,0,0,1-.04,0c-.012,0-.044.008-.088.016q-.318.048-.636.072a8.143,8.143,0,0,1-.767,1.8l-.028.056-.46-.256a5.429,5.429,0,0,0,.767-1.583c-.155,0-.195,0-.259,0s-.076,0-.156,0l-.212,0v-.456a2.777,2.777,0,0,0,.54.036c.056,0,.128,0,.2,0a3.948,3.948,0,0,0,.119-.695l.512.052a.764.764,0,0,0-.028.1c0,.015-.012.048-.02.088Zm1.875,2.97a2.393,2.393,0,0,0-.607-.5.75.75,0,0,1,0,.084.653.653,0,0,1-.168.42.922.922,0,0,1-.668.224c-.528,0-.868-.264-.868-.672s.356-.687.864-.687a1.9,1.9,0,0,1,.368.036c-.012-.181-.02-.332-.02-.46a2.122,2.122,0,0,1,.032-.4l.463.024a1.462,1.462,0,0,0-.047.4,4.255,4.255,0,0,0,.035.551,2.434,2.434,0,0,1,.568.32,1.678,1.678,0,0,1,.232.184l.032.028Zm-1.419-.731c-.256,0-.424.107-.424.275s.144.26.392.26c.268,0,.4-.112.4-.336a1.042,1.042,0,0,0-.012-.136A.992.992,0,0,0,78.869,95.947Zm1.439-1.108a5.242,5.242,0,0,0-1.151-.56l.239-.388a6.46,6.46,0,0,1,1.128.536Z"/><path class="e" d="M82.425,93.444a6.926,6.926,0,0,0,.264,1.251c.18-.068.328-.12.5-.18s.355-.112.536-.172a1.021,1.021,0,0,0,.148-.06l.175.5a9.25,9.25,0,0,0-1.319.384q-.874.322-.875.755c0,.292.267.416.915.416a4.511,4.511,0,0,0,1.291-.16l.044.544c-.08,0-.108,0-.324.028a7.59,7.59,0,0,1-.935.06,2.184,2.184,0,0,1-1.159-.22.748.748,0,0,1-.348-.66.941.941,0,0,1,.355-.723,2.375,2.375,0,0,1,.544-.34,10.88,10.88,0,0,1-.272-1.088,1.832,1.832,0,0,0-.06-.259Zm1.123.08a2.109,2.109,0,0,1,.36.535l-.307.152a2.391,2.391,0,0,0-.36-.543Zm.5.467a3.057,3.057,0,0,0-.351-.527l.291-.14a2.066,2.066,0,0,1,.356.507Z"/><path class="e" d="M86.641,95.77c-.228.516-.484.752-.811.752-.456,0-.784-.46-.784-1.107a1.718,1.718,0,0,1,.44-1.164,1.8,1.8,0,0,1,1.375-.559,1.445,1.445,0,0,1,1.583,1.483,1.539,1.539,0,0,1-.975,1.491,2.528,2.528,0,0,1-.624.168,1.305,1.305,0,0,0-.244-.468,2.161,2.161,0,0,0,.8-.22,1.123,1.123,0,0,0,.556-1,.988.988,0,0,0-.5-.888.854.854,0,0,0-.4-.12A5.77,5.77,0,0,1,86.641,95.77Zm-.588-1.431a1.327,1.327,0,0,0-.543,1.08c0,.327.139.587.316.587.132,0,.267-.167.411-.512a5.467,5.467,0,0,0,.332-1.351A1.018,1.018,0,0,0,86.053,94.339Z"/><path class="e" d="M89.318,95.858c0-.136,0-.216.008-.452a1.967,1.967,0,0,1-.3.3,1.982,1.982,0,0,0-.18-.439,2.717,2.717,0,0,0,.891-1.032l.36.252a1.713,1.713,0,0,0-.132.192,3.155,3.155,0,0,1-.219.3v1.583a3.524,3.524,0,0,0,.02.468h-.468a3.786,3.786,0,0,0,.024-.464v-.712Zm.764-2.278a.647.647,0,0,0-.073.079,4.166,4.166,0,0,1-.9.8,1.632,1.632,0,0,0-.228-.372,2.373,2.373,0,0,0,.848-.767Zm.639.627a2.567,2.567,0,0,0-.4-.676l.372-.183a3.627,3.627,0,0,1,.452.711l-.316.148h.527a3.585,3.585,0,0,0,.409-.855l.439.136a4.5,4.5,0,0,1-.392.719h.312a2.78,2.78,0,0,0,.4-.02v.432a3.507,3.507,0,0,0-.424-.02h-.615v.624h.5a2.991,2.991,0,0,0,.4-.02v.428a2.9,2.9,0,0,0-.4-.02h-.495v.811a2.633,2.633,0,0,0,.631.06c.132,0,.252,0,.52-.016a2.148,2.148,0,0,0-.12.464H92.2a2.327,2.327,0,0,1-1.3-.3,1.375,1.375,0,0,1-.4-.4,3.092,3.092,0,0,1-.372.78,1.41,1.41,0,0,0-.339-.32,2.515,2.515,0,0,0,.391-.884,3.543,3.543,0,0,0,.1-.787.772.772,0,0,0,0-.092l.448.06c-.012.056-.02.128-.032.228a4.387,4.387,0,0,1-.072.531,1.2,1.2,0,0,0,.432.508V94.6h-.5a3.227,3.227,0,0,0-.428.02v-.432a2.76,2.76,0,0,0,.4.02Z"/><path class="e" d="M94.5,95.351H93.55c-.14,0-.252,0-.368.015v-.347a2.953,2.953,0,0,0,.376.016H94.5v-.152h-.848c-.139,0-.251,0-.335.012.008-.08.012-.168.012-.268v-.264c0-.112,0-.184-.012-.28.1.009.187.012.34.012H94.5v-.151H93.4a3.706,3.706,0,0,0-.468.024v-.4a3.748,3.748,0,0,0,.492.023H94.5a1.511,1.511,0,0,0-.024-.271h.484a1.127,1.127,0,0,0-.028.271h1.123a3.789,3.789,0,0,0,.492-.023v.4a3.664,3.664,0,0,0-.468-.024H94.929V94.1h.9c.151,0,.239,0,.335-.012a2.723,2.723,0,0,0-.012.28v.264a2.528,2.528,0,0,0,.012.268c-.08-.008-.191-.012-.319-.012h-.92v.152h.895c.232,0,.324,0,.428-.012a2.665,2.665,0,0,0-.012.363v.141a2.356,2.356,0,0,0,.348-.02v.379a2.377,2.377,0,0,0-.348-.02V96.1a3.007,3.007,0,0,0,.02.432h-.448v-.156h-.883V96.6c0,.36-.1.436-.588.436-.1,0-.252,0-.383-.016a1.168,1.168,0,0,0-.125-.4,4.475,4.475,0,0,0,.508.036c.128,0,.156-.016.156-.092v-.192h-.939a2.66,2.66,0,0,0-.4.02v-.372a2.789,2.789,0,0,0,.38.016H94.5v-.172H93.35a2.964,2.964,0,0,0-.44.02v-.379a2.744,2.744,0,0,0,.432.02H94.5Zm-.747-.944v.164H94.5v-.164Zm1.179.164h.8v-.164h-.8Zm.883.956v-.176h-.883v.176Zm-.883.511h.883v-.172h-.883Z"/><path class="e" d="M98.121,93.88a1.592,1.592,0,0,0,.16-.5l.524.056a.512.512,0,0,0-.044.084c-.04.091-.08.184-.116.276l-.008.016a.331.331,0,0,1-.028.055.123.123,0,0,1,.036,0,.062.062,0,0,0,.02,0l.2-.009a5.219,5.219,0,0,0,1.047-.136l.029.457-.053,0-.108.012-.155.016c-.28.036-.824.072-1.2.08a2.115,2.115,0,0,1-.368.532l0,.008a.582.582,0,0,1,.08-.06.976.976,0,0,1,.564-.18.529.529,0,0,1,.572.424c.275-.1.48-.172.611-.216a1.094,1.094,0,0,0,.3-.12l.188.46a5.642,5.642,0,0,0-1.043.312c0,.155,0,.155,0,.2,0,.029,0,.084,0,.164v.132a1.558,1.558,0,0,0,.012.212l-.464.012a3.289,3.289,0,0,0,.024-.471v-.088a2.217,2.217,0,0,0-.384.207.421.421,0,0,0-.208.328c0,.208.192.292.672.292a3.466,3.466,0,0,0,1.179-.168l.04.516a.869.869,0,0,0-.184.016,7.229,7.229,0,0,1-1.023.072,1.708,1.708,0,0,1-.892-.168.581.581,0,0,1-.291-.516.886.886,0,0,1,.443-.7,2.769,2.769,0,0,1,.592-.311.22.22,0,0,0-.244-.216,1.362,1.362,0,0,0-.82.412,1.74,1.74,0,0,0-.347.364l-.364-.36a3.915,3.915,0,0,0,.839-1.04l.013-.024.02-.028-.073,0c-.075,0-.427-.008-.5-.012-.04,0-.084,0-.1,0a.331.331,0,0,0-.08.008l.008-.456a4.428,4.428,0,0,0,.819.053h.108Z"/><path class="e" d="M102.261,95.538c0,.456-.168.6-.671.588a.85.85,0,0,0-.08-.4c.1.009.139.013.192.013.119,0,.159-.057.159-.221a1.189,1.189,0,0,0-.051-.371.9.9,0,0,0-.272-.436,3.421,3.421,0,0,0,.372-.868h-.432v2.691c0,.168.008.352.02.488h-.46a4.3,4.3,0,0,0,.024-.492v-2.7c0-.148,0-.267-.012-.38a2.57,2.57,0,0,0,.3.013h.531a1.671,1.671,0,0,0,.284-.016l.232.2a1.07,1.07,0,0,0-.06.143c-.072.212-.12.336-.192.5a2.325,2.325,0,0,0,.928-.927h.444a2.436,2.436,0,0,0,1.171.975,1.54,1.54,0,0,0-.18.444,4.186,4.186,0,0,1-.364-.216v.272a2.85,2.85,0,0,0-.339-.012h-.3v.324h.655a2.55,2.55,0,0,0,.384-.02v.436a2.456,2.456,0,0,0-.384-.025h-.655V96.59c0,.32-.113.4-.536.4-.092,0-.2,0-.356-.012a1.115,1.115,0,0,0-.112-.424,2.86,2.86,0,0,0,.384.036c.152,0,.2-.024.2-.1v-.952Zm.6.261a2.58,2.58,0,0,1-.7,1.083,1.4,1.4,0,0,0-.3-.324,1.7,1.7,0,0,0,.616-.907Zm.224-.976h-.232a2.859,2.859,0,0,0-.34.012v-.26a2,2,0,0,1-.224.144,1.3,1.3,0,0,0-.187-.32c-.033.072-.049.112-.128.268a1.221,1.221,0,0,1,.239.48h.872Zm.724-.376c.084,0,.119,0,.175,0a3.037,3.037,0,0,1-.672-.7,2.787,2.787,0,0,1-.631.708h1.128Zm.255,1.219a2.21,2.21,0,0,0,.588.856,1.607,1.607,0,0,0-.3.356,3.135,3.135,0,0,1-.648-1.072Z"/><path class="e" d="M107.665,93.736c-.024.02-.044.031-.048.036-.133.119-.28.251-.444.4-.208.191-.576.487-.952.767-.124.092-.152.124-.152.168,0,.06,0,.064.356.332a13.029,13.029,0,0,1,1.263,1.043,1.387,1.387,0,0,0,.116.1l-.411.416a8.791,8.791,0,0,0-1.552-1.4c-.263-.2-.335-.307-.335-.5a.467.467,0,0,1,.132-.324,2.133,2.133,0,0,1,.351-.288,6.584,6.584,0,0,0,1.216-1.111Z"/><path class="e" d="M1.625,23.247a3.534,3.534,0,0,0-.506.02,1.937,1.937,0,0,1,.106-.5A2.473,2.473,0,0,1,2.4,21.522c.368-.251.47-.376.47-.58,0-.263-.211-.428-.537-.428a.559.559,0,0,0-.5.231.8.8,0,0,0-.122.361l-.556-.066a1.139,1.139,0,0,1,.266-.628,1.143,1.143,0,0,1,.9-.349c.691,0,1.11.33,1.11.867a.8.8,0,0,1-.235.588,3.242,3.242,0,0,1-.483.373c-.591.4-.8.611-.9.894H2.9a3.988,3.988,0,0,0,.572-.032v.518c-.184-.016-.341-.024-.592-.024Z"/><path class="e" d="M5.764,20.381a1.145,1.145,0,0,1,.259.4,2.634,2.634,0,0,1,.153.91,2.094,2.094,0,0,1-.29,1.16,1.112,1.112,0,0,1-.953.463,1.123,1.123,0,0,1-.824-.318,1.1,1.1,0,0,1-.259-.4,2.605,2.605,0,0,1-.153-.9,2.327,2.327,0,0,1,.24-1.09,1.113,1.113,0,0,1,1.015-.545A1.144,1.144,0,0,1,5.764,20.381ZM4.235,21.667a1.746,1.746,0,0,0,.2.933.624.624,0,0,0,.925.091,1.5,1.5,0,0,0,.275-1,2.091,2.091,0,0,0-.15-.832.565.565,0,0,0-.56-.349C4.49,20.514,4.235,20.942,4.235,21.667Z"/><path class="e" d="M7.339,23.247a3.234,3.234,0,0,0,.032-.509V20.577H7.182a3.761,3.761,0,0,0-.4.023v-.5a2.14,2.14,0,0,0,.392.024h.361a2.8,2.8,0,0,0,.4-.02,6.054,6.054,0,0,0-.031.647v1.985a3.339,3.339,0,0,0,.031.509Z"/><path class="e" d="M9.592,22.49a.657.657,0,0,0,.122.216.587.587,0,0,0,.447.161.6.6,0,0,0,.447-.161,1.284,1.284,0,0,0,.306-.933.762.762,0,0,1-.208.223,1.061,1.061,0,0,1-.635.181A.98.98,0,0,1,9,21.146a1.074,1.074,0,0,1,1.157-1.1,1.106,1.106,0,0,1,1.039.616,2.118,2.118,0,0,1,.181.969A1.974,1.974,0,0,1,10.965,23a1.086,1.086,0,0,1-.835.3,1.132,1.132,0,0,1-.757-.228,1.073,1.073,0,0,1-.322-.435Zm-.066-1.364a.585.585,0,0,0,.623.627.643.643,0,0,0,.675-.639.649.649,0,0,0-1.3.012Z"/><path class="e" d="M13.25,21.428a1.9,1.9,0,0,0-.013-.228c.087.008.169.012.275.012h.855V20.7h-.82a3.46,3.46,0,0,1-.647.773,1.714,1.714,0,0,0-.29-.349,2.376,2.376,0,0,0,.863-1.271l.463.094c-.02.04-.075.161-.169.365H15.6A2.857,2.857,0,0,0,16,20.3v.427a2.821,2.821,0,0,0-.4-.02h-.8v.51h.632a2.949,2.949,0,0,0,.4-.019v.415a3.592,3.592,0,0,0-.392-.015H14.8v.635h.91a3.108,3.108,0,0,0,.428-.024v.448a3.232,3.232,0,0,0-.428-.024H14.8v.49a2.253,2.253,0,0,0,.028.42h-.483a2.369,2.369,0,0,0,.024-.428v-.482H13.053a3.324,3.324,0,0,0-.431.024V22.2a3.281,3.281,0,0,0,.431.024h.2Zm1.117.8v-.635h-.706v.635Z"/><path class="e" d="M18.972,20.405a1.136,1.136,0,0,1,.259.4,2.632,2.632,0,0,1,.153.909,2.1,2.1,0,0,1-.29,1.161,1.113,1.113,0,0,1-.953.463,1.125,1.125,0,0,1-.824-.318,1.088,1.088,0,0,1-.258-.4,2.586,2.586,0,0,1-.153-.9,2.325,2.325,0,0,1,.239-1.09,1.114,1.114,0,0,1,1.016-.545A1.138,1.138,0,0,1,18.972,20.405Zm-1.529,1.286a1.758,1.758,0,0,0,.2.933.623.623,0,0,0,.925.09,1.493,1.493,0,0,0,.275-1,2.1,2.1,0,0,0-.149-.831.566.566,0,0,0-.561-.349C17.7,20.538,17.443,20.965,17.443,21.691Z"/><path class="e" d="M21.076,22.3a2.346,2.346,0,0,1-.576,1.243,1.6,1.6,0,0,0-.365-.361,1.486,1.486,0,0,0,.42-.69,6.24,6.24,0,0,0,.156-1.843c0-.275-.007-.455-.019-.593a3.883,3.883,0,0,0,.459.02h1.635a3.48,3.48,0,0,0,.455-.02,2.9,2.9,0,0,0-.02.443v2.542c0,.2-.043.309-.141.372a.766.766,0,0,1-.455.079c-.133,0-.251,0-.455-.016a1.582,1.582,0,0,0-.113-.439,3.919,3.919,0,0,0,.58.047c.113,0,.141-.02.141-.106V22.3Zm1.7-.4v-.526H21.155c0,.11-.008.212-.032.526Zm0-.926v-.49H21.159v.49Z"/><path class="e" d="M26.5,20.405a1.133,1.133,0,0,1,.258.4,2.632,2.632,0,0,1,.153.909,2.086,2.086,0,0,1-.29,1.161,1.217,1.217,0,0,1-1.776.145,1.091,1.091,0,0,1-.259-.4,2.586,2.586,0,0,1-.153-.9,2.325,2.325,0,0,1,.239-1.09,1.116,1.116,0,0,1,1.016-.545A1.142,1.142,0,0,1,26.5,20.405Zm-1.53,1.286a1.758,1.758,0,0,0,.2.933.624.624,0,0,0,.926.09,1.5,1.5,0,0,0,.274-1,2.087,2.087,0,0,0-.149-.831.566.566,0,0,0-.56-.349C25.223,20.538,24.968,20.965,24.968,21.691Z"/><path class="e" d="M28.072,20.494c0-.152-.008-.29-.019-.419a3.411,3.411,0,0,0,.435.019h1.9a3.1,3.1,0,0,0,.424-.019,3.265,3.265,0,0,0-.02.4v2.533a4.144,4.144,0,0,0,.023.475h-.474v-.236H28.515v.236h-.466a4.349,4.349,0,0,0,.023-.475Zm.443.926h1.824v-.91H28.515Zm0,1.416h1.824v-1H28.515Z"/><path class="f" d="M130.96,21.356a1.192,1.192,0,0,0,.454.379,2.219,2.219,0,0,0,.905.255v.036a.39.39,0,0,0-.213.229.746.746,0,0,0-.036.11c-.007.026-.016.036-.035.036a1.041,1.041,0,0,1-.282-.123,2.041,2.041,0,0,1-.844-.89l.007.395.016.627c0,.039-.007.059-.026.072a.471.471,0,0,1-.23.032c-.1,0-.116-.009-.12-.071.006-.152.02-.459.02-.579l0-.223a2.775,2.775,0,0,1-.654.5,3.311,3.311,0,0,1-.656.275l-.019-.042a3.173,3.173,0,0,0,1.141-1.016h-.359v.049a.08.08,0,0,1-.026.064.448.448,0,0,1-.22.036c-.084,0-.1-.013-.106-.078.016-.317.019-.443.019-.737a4.689,4.689,0,0,0-.016-.524c.165.074.213.1.385.177h.508v-.349h-.987a1.338,1.338,0,0,0-.246.019l-.026-.119a1.2,1.2,0,0,0,.272.032h.987a1.947,1.947,0,0,0-.026-.411c.443.042.492.052.492.1,0,.029-.03.051-.126.084v.229h.705c.109-.123.142-.158.252-.275.158.123.207.162.365.3.013.013.016.019.016.029s-.012.019-.032.019h-1.306v.349h.559c.074-.08.1-.106.174-.181.117.078.153.1.259.185.036.026.049.042.049.061s-.029.052-.12.1c0,.518,0,.544.01.877V21.4a.066.066,0,0,1-.023.058.445.445,0,0,1-.236.042c-.067,0-.084-.013-.09-.061v-.078Zm-.384-.945h-.544v.395h.544Zm0,.463h-.544v.414h.544Zm.922-.463h-.582v.395h.582Zm0,.463h-.582v.414h.582Z"/><path class="f" d="M132.694,22.346a2.972,2.972,0,0,0,.5-.582,2.234,2.234,0,0,0,.22-.4c.405.145.453.165.453.2s-.029.036-.155.049a2.688,2.688,0,0,1-1,.76Zm2.387-2.329c.107-.12.139-.159.246-.272.168.123.22.159.391.291a.041.041,0,0,1,.013.023c0,.016-.016.026-.035.026h-2.721a1.022,1.022,0,0,0-.2.019l-.023-.113a.817.817,0,0,0,.217.026h1.038v-.233a1.451,1.451,0,0,0-.019-.259c.11.01.194.016.249.02.2.016.284.035.284.074s-.035.055-.138.087v.311Zm-.683,1.656,0,.518a.209.209,0,0,1-.1.194.657.657,0,0,1-.24.084.556.556,0,0,1-.123.016c-.032,0-.045-.01-.048-.045-.026-.194-.068-.227-.44-.324v-.035c.055,0,.1.006.129.006.3.02.3.02.424.023.033,0,.045-.01.045-.039v-.912h-.478v.078c0,.032-.016.044-.049.054a.845.845,0,0,1-.213.023c-.084,0-.1-.013-.107-.061.006-.165.009-.256.009-.466,0-.3,0-.4-.012-.567a3.668,3.668,0,0,1,.407.2h1.207c.074-.084.1-.11.178-.194.135.088.174.113.288.2.019.014.029.026.029.04a.1.1,0,0,1-.017.032c-.009.006-.042.029-.1.065v.168c0,.165,0,.246.01.514,0,.045-.013.061-.055.071a1.9,1.9,0,0,1-.227.016c-.061,0-.081-.012-.084-.052v-.122H134.4Zm-.824-.582h1.261v-.6h-1.261Zm1.041.336a3.208,3.208,0,0,1,.7.308.366.366,0,0,1,.181.294c0,.155-.094.317-.184.317-.039,0-.068-.032-.113-.123a2.234,2.234,0,0,0-.6-.763Z"/><path class="f" d="M137.044,20.023c.061-.08.081-.1.145-.187.091.084.1.1.191.181a2.119,2.119,0,0,0,.149-.35c.336.155.382.182.382.214s-.03.042-.123.048a4.439,4.439,0,0,1-.473.673h.143c.074-.09.1-.116.174-.2.107.093.139.123.24.223.013.013.016.019.016.029s-.016.019-.039.019h-.592a3.127,3.127,0,0,1-.44.424h.476c.071-.084.094-.106.168-.185.117.079.149.1.252.185.033.026.042.039.042.055s-.022.042-.1.081c0,.673,0,.815.01,1.145,0,.045-.01.062-.045.074a1.008,1.008,0,0,1-.211.02c-.068,0-.084-.013-.087-.068v-.133h-.566v.142c0,.033-.006.049-.023.059a.458.458,0,0,1-.22.032c-.084,0-.107-.016-.107-.081.01-.285.013-.388.013-.637v-.414a3.073,3.073,0,0,1-.339.175l-.019-.036a3.911,3.911,0,0,0,.355-.285,2.959,2.959,0,0,0-.01-.307c.117.052.188.084.227.1a4.051,4.051,0,0,0,.317-.35h-.621a1.285,1.285,0,0,0-.22.02l-.02-.11a1.313,1.313,0,0,0,.24.022h.343v-.511h-.259a1.218,1.218,0,0,0-.191.013L136.2,20a.9.9,0,0,0,.216.026h.253v-.194a2.43,2.43,0,0,0-.017-.307,2.686,2.686,0,0,1,.437.049c.026.009.042.025.042.042s-.032.048-.133.081v.329Zm.278,1.139h-.566v.443h.566Zm-.566.511V22.2h.566v-.527ZM137,20.091V20.6h0a4.123,4.123,0,0,0,.333-.511Zm1.259,1.793c0,.028,0,.119,0,.258,0,.058,0,.152,0,.275,0,.081-.042.1-.246.1-.084,0-.107-.016-.107-.077.006-.36.013-1.152.013-1.65,0-.628,0-1.055-.013-1.249.168.081.217.107.372.194h.379a1.981,1.981,0,0,1,.171-.184c.136.1.178.129.3.226.029.029.042.046.042.065s-.039.048-.133.074a6.978,6.978,0,0,1-.569.819,1.377,1.377,0,0,1,.43.34.855.855,0,0,1,.2.543.51.51,0,0,1-.271.492.675.675,0,0,1-.207.042c-.039,0-.049-.01-.055-.068-.016-.162-.088-.223-.314-.269Zm0-.124c.142.013.265.02.343.02s.094-.007.11-.026a.44.44,0,0,0,.048-.233,1.112,1.112,0,0,0-.11-.475.836.836,0,0,0-.245-.3,6.384,6.384,0,0,0,.265-.948h-.411Z"/><path class="f" d="M142.125,20.065a1.4,1.4,0,0,1,.365.948,1.417,1.417,0,1,1-2.833,0,1.388,1.388,0,0,1,.468-1.051,1.436,1.436,0,0,1,.948-.366A1.4,1.4,0,0,1,142.125,20.065Zm-2.025.071a1.31,1.31,0,1,0,2.284.877,1.285,1.285,0,0,0-.434-.974,1.319,1.319,0,0,0-.877-.336A1.29,1.29,0,0,0,140.1,20.136Z"/><path class="f" d="M145.56,20.065a1.416,1.416,0,0,1-1.051,2.365,1.42,1.42,0,0,1-1.417-1.417,1.385,1.385,0,0,1,.469-1.051,1.432,1.432,0,0,1,.948-.366A1.394,1.394,0,0,1,145.56,20.065Zm-2.025.071a1.31,1.31,0,1,0,2.284.877,1.285,1.285,0,0,0-.434-.974,1.319,1.319,0,0,0-.876-.336A1.292,1.292,0,0,0,143.535,20.136Z"/><path class="f" d="M147.021,22.375c0,.062-.019.078-.078.091a1.241,1.241,0,0,1-.171.009c-.113,0-.132-.013-.132-.081.019-.53.022-.815.022-1.62,0-.786,0-.961-.022-1.22a3.2,3.2,0,0,1,.426.214h1.663c.1-.113.136-.149.243-.262.162.116.21.155.375.284.01.013.016.02.016.026s-.013.02-.032.02h-2.31v2.332h1.753c.114-.113.146-.152.256-.275.162.12.214.162.379.294a.05.05,0,0,1,.012.026c0,.013-.016.023-.035.023h-2.365Zm.282-2.129a6.419,6.419,0,0,1,.838.492,2.9,2.9,0,0,0,.313-.792c.239.081.434.152.463.165s.032.025.032.045c0,.042-.042.058-.158.058a5.189,5.189,0,0,1-.385.705c.365.276.365.276.427.353a.4.4,0,0,1,.087.265c0,.139-.068.265-.146.265a.112.112,0,0,1-.074-.045,2.319,2.319,0,0,1-.133-.2,3.509,3.509,0,0,0-.326-.414,3.136,3.136,0,0,1-.476.466,3.025,3.025,0,0,1-.611.375l-.023-.029a3.72,3.72,0,0,0,.489-.472,4.012,4.012,0,0,0,.41-.56,5.376,5.376,0,0,0-.75-.641Z"/><path class="f" d="M151.258,21.126a1.1,1.1,0,0,0,.4.534,2.091,2.091,0,0,0,.4-.492c.479.22.479.22.479.253s-.029.042-.074.042c-.02,0-.059,0-.13-.01l-.268.126a3.314,3.314,0,0,1-.327.139,1.457,1.457,0,0,0,.369.188,2.59,2.59,0,0,0,.76.171v.039a.44.44,0,0,0-.243.22c-.009.02-.025.058-.045.117-.006.032-.016.038-.039.038a1.863,1.863,0,0,1-.355-.145,2.07,2.07,0,0,1-.625-.488,7.046,7.046,0,0,1-1.352.559c-.01.094-.029.139-.065.139-.013,0-.026-.009-.039-.029a2.429,2.429,0,0,1-.135-.469,3.063,3.063,0,0,0,.5-.048v-.884h-.32a1.006,1.006,0,0,0-.239.03l-.033-.13a1.174,1.174,0,0,0,.272.032h.32V20.15c0-.172-.006-.4-.019-.57a3.56,3.56,0,0,1,.427.207h1.061c.1-.116.139-.152.245-.265.165.12.217.162.389.294a.028.028,0,0,1,.009.02c0,.009-.012.019-.028.019h-1.725V20.2h.993c.1-.1.127-.133.224-.23.148.107.19.143.333.259l.01.016c0,.013-.014.023-.03.023h-1.53v.352h.974c.1-.109.136-.142.236-.245a3.9,3.9,0,0,1,.346.278c.006.006.01.009.01.016s-.013.019-.029.019h-1.537v.372h1.391c.11-.119.146-.158.259-.275.162.126.21.165.375.3a.024.024,0,0,1,.01.016c0,.012-.013.022-.033.022Zm-.424,0v.832c.3-.046.427-.068.55-.1l.149-.036a1.682,1.682,0,0,1-.343-.7Z"/><rect class="g" x="126.75" y="18.75" width="29" height="5" rx="0.616" ry="0.616"/><line class="b" x1="0.25" y1="81.25" x2="162.25" y2="81.25"/><rect class="h" x="5.75" y="90.048" width="107.5" height="10.75"/><path class="e" d="M126.551,94.377a2.646,2.646,0,0,0,.361-.018v.351a2.945,2.945,0,0,0-.361-.018h-1.239a3.432,3.432,0,0,1-.394.629v1.105a2.384,2.384,0,0,0,.016.349h-.367a2.649,2.649,0,0,0,.018-.349v-.742a1.853,1.853,0,0,1-.229.2,1.08,1.08,0,0,0-.225-.3,3.2,3.2,0,0,0,.454-.4l0-.069c0-.045,0-.051-.009-.1h.153a2.608,2.608,0,0,0,.216-.331h-.366a2.9,2.9,0,0,0-.361.018v-.351a2.646,2.646,0,0,0,.361.018h.517a1.855,1.855,0,0,0,.12-.4l.373.072a.862.862,0,0,0-.048.12c-.03.084-.054.151-.079.208Zm-.1.965a2.024,2.024,0,0,0,.321-.019v.34a2.393,2.393,0,0,0-.321-.015h-.376v.707h.478a2.459,2.459,0,0,0,.334-.018v.345a2.944,2.944,0,0,0-.337-.018h-1.2a2.638,2.638,0,0,0-.337.018v-.345a2.667,2.667,0,0,0,.333.018h.4v-.707h-.312a2.421,2.421,0,0,0-.325.015v-.34a2,2,0,0,0,.322.019h.315v-.193a2.023,2.023,0,0,0-.015-.312h.364a1.9,1.9,0,0,0-.015.318v.187Z"/><path class="e" d="M127.705,94.987c.156-.042.276-.079.4-.123a2.7,2.7,0,0,0-.162-.247l.255-.1a2.558,2.558,0,0,1,.316.529.722.722,0,0,0,.363-.6h-.1a1.123,1.123,0,0,0-.231.015v-.322a2.5,2.5,0,0,0,.306.015h.743c.117,0,.195,0,.261-.009a.975.975,0,0,0-.011.1c-.052.722-.076.893-.151.986s-.168.112-.369.112c-.073,0-.124,0-.238-.013a1.385,1.385,0,0,0-.06-.288,1.282,1.282,0,0,0,.282.036c.079,0,.115-.018.133-.069a2.045,2.045,0,0,0,.066-.562h-.331a1.174,1.174,0,0,1-.607.95.836.836,0,0,0-.115-.187l-.174.075c-.039-.1-.042-.105-.066-.168a7.917,7.917,0,0,1-.875.28c-.024.006-.035.012-.087.03l-.072-.331a1.349,1.349,0,0,0,.208-.03l-.024-.631c0-.088-.01-.157-.018-.226a2.663,2.663,0,0,0,.94-.222l.223.277a5.377,5.377,0,0,1-.833.2Zm1.641.445a2.788,2.788,0,0,0,.295-.012,2.516,2.516,0,0,0-.012.3v.737c0,.123.006.216.015.315h-.337v-.123h-1.488v.123h-.33a2.642,2.642,0,0,0,.018-.315V95.72a2.752,2.752,0,0,0-.012-.3,2.708,2.708,0,0,0,.285.012Zm-1.527.478h.575v-.229h-.575Zm0,.48h.575v-.234h-.575Zm.884-.48h.61v-.229h-.61Zm0,.48h.61v-.234h-.61Z"/><path class="e" d="M131.381,94.467a2,2,0,0,1-.285.252.738.738,0,0,0-.2-.2,1.249,1.249,0,0,0,.48-.541l.316.057a.385.385,0,0,0-.027.042c-.009.015-.015.03-.024.042a.939.939,0,0,1-.066.1h.881a1.45,1.45,0,0,0,.249-.012l.18.138c-.027.037-.03.042-.072.1a1.692,1.692,0,0,1-.261.31,1.446,1.446,0,0,0-.28-.115.848.848,0,0,0,.205-.177h-.463c.084.292.405.457.946.487a.984.984,0,0,0-.123.294,2.057,2.057,0,0,1-.273-.06c0,.081-.006.169-.006.262v.556c0,.138.006.264.012.318-.066,0-.193-.008-.316-.008h-.141a2.256,2.256,0,0,0,.829.2,1.881,1.881,0,0,0-.186.276,2.37,2.37,0,0,1-.98-.343l.175-.131h-.821l.183.131a2.489,2.489,0,0,1-.95.346,1.323,1.323,0,0,0-.186-.267,2.139,2.139,0,0,0,.8-.21h-.121c-.135,0-.243,0-.318.008.006-.054.012-.174.012-.3v-.592c0-.142,0-.229-.009-.313.06.006.168.009.3.009H131a.967.967,0,0,0-.127-.192c-.168.078-.246.111-.436.186-.047.021-.075.033-.128.06l-.121-.309a3.037,3.037,0,0,0,.737-.271l.09.264-.1.052c.462-.052.718-.2.772-.451Zm-.637.1a2.082,2.082,0,0,0-.475-.3l.2-.228a2.816,2.816,0,0,1,.484.277Zm.117.9h1.383v-.115h-1.383Zm0,.316h1.383v-.124h-1.383Zm0,.3h1.383V95.97h-1.383Zm1.5-.953a.928.928,0,0,1-.51-.4.863.863,0,0,1-.617.4h1.127Z"/><path class="e" d="M134.222,95.762a.865.865,0,0,0-.12-.2l-.027.051a2.126,2.126,0,0,1-.178-.339c.01.141.013.246.013.393v.752a3.044,3.044,0,0,0,.018.369h-.346c.009-.093.018-.246.018-.369V95.81c0-.084.006-.153.009-.21,0-.033.006-.081.012-.18a2.737,2.737,0,0,1-.267.649.9.9,0,0,0-.193-.277,2.8,2.8,0,0,0,.409-.941h-.114a1.528,1.528,0,0,0-.223.013v-.313a1.292,1.292,0,0,0,.225.015h.139v-.252a1.982,1.982,0,0,0-.015-.313h.342a2.367,2.367,0,0,0-.014.313v.252H134a.906.906,0,0,0,.174-.012v.219a1.686,1.686,0,0,0,.466-.784l.334.057c-.013.024-.024.054-.052.12-.005.015-.015.036-.029.075h.421a1.245,1.245,0,0,0,.261-.015l.183.2a.9.9,0,0,0-.081.132,2.609,2.609,0,0,1-.412.547,2.837,2.837,0,0,0,.767.334.963.963,0,0,0-.169.315l-.132-.054c0,.036,0,.054,0,.126v.662a1.9,1.9,0,0,0,.015.3H135.4v-.15h-.76v.153H134.3a1.971,1.971,0,0,0,.015-.3v-.77Zm-.3-.911a1.827,1.827,0,0,0,.331.521.736.736,0,0,0-.057.06,2.758,2.758,0,0,0,.592-.322,2.1,2.1,0,0,1-.252-.283,2.424,2.424,0,0,1-.232.25.9.9,0,0,0-.189-.222c-.057,0-.072,0-.111,0Zm1.642.776a3.517,3.517,0,0,1-.535-.316,2.688,2.688,0,0,1-.514.316h1.049Zm-.923.707h.76v-.421h-.76Zm.1-1.8c-.012.021-.015.024-.03.051a1.622,1.622,0,0,0,.313.339,1.418,1.418,0,0,0,.3-.39Z"/><path class="e" d="M138.458,95.778c-.037.032-.042.039-.069.063s-.076.078-.112.111a3.249,3.249,0,0,1-.381.325,3.252,3.252,0,0,0,1.063.177,1.209,1.209,0,0,0-.165.339,3.848,3.848,0,0,1-1.214-.33,3.579,3.579,0,0,1-1.281.316,1.033,1.033,0,0,0-.162-.316,3.059,3.059,0,0,0,1.124-.186,1.974,1.974,0,0,1-.312-.262,2.278,2.278,0,0,1-.46.225,1.172,1.172,0,0,0-.184-.264,1.773,1.773,0,0,0,.95-.655l.3.123a.113.113,0,0,1-.024.027l-.028.033s-.017.021-.039.045a.31.31,0,0,1-.026.036H138a1.2,1.2,0,0,0,.261-.018Zm-1.479-1.038a2,2,0,0,1-.523.68.372.372,0,0,1-.063-.055c-.042-.036-.07-.057-.079-.063a.715.715,0,0,0-.069-.051c-.012-.009-.036-.024-.054-.039a1.351,1.351,0,0,0,.5-.607Zm-.421-.186a2.487,2.487,0,0,0-.334.015v-.322a2.424,2.424,0,0,0,.355.018h.794v-.06a.867.867,0,0,0-.016-.195h.376a.906.906,0,0,0-.015.192v.063h.8a2.721,2.721,0,0,0,.363-.018v.322c-.1-.009-.21-.015-.354-.015h-.475v.61c0,.172-.067.225-.286.225-.114,0-.162,0-.231,0a.642.642,0,0,0-.094-.3,1.358,1.358,0,0,0,.229.021c.057,0,.069-.009.069-.057v-.5h-.279a.973.973,0,0,1-.515.956.982.982,0,0,0-.267-.2.713.713,0,0,0,.469-.754Zm.622,1.292a1.725,1.725,0,0,0,.391.283,2,2,0,0,0,.379-.283Zm1.166-1.211a5.062,5.062,0,0,1,.542.577l-.283.214a2.853,2.853,0,0,0-.5-.625Z"/><path class="e" d="M139.8,95.831a2.928,2.928,0,0,0-.34.015c.01-.107.013-.219.013-.324v-.6a2.985,2.985,0,0,0-.013-.325,3.026,3.026,0,0,0,.34.012h.6V94.4h-.829a3.244,3.244,0,0,0-.367.018v-.325a3.234,3.234,0,0,0,.367.018h1.966a3.406,3.406,0,0,0,.37-.018v.325a3.275,3.275,0,0,0-.37-.018h-.806v.21h.595a2.874,2.874,0,0,0,.337-.012c-.009.108-.012.2-.012.327v.6c0,.123,0,.211.012.318a2.66,2.66,0,0,0-.333-.015h-.665a1.227,1.227,0,0,1-.177.4,2.6,2.6,0,0,0,1.145.217c.093,0,.168,0,.327-.012a1.492,1.492,0,0,0-.117.342,3.21,3.21,0,0,1-1.563-.321,1.84,1.84,0,0,1-.965.369,1.17,1.17,0,0,0-.138-.306,1.546,1.546,0,0,0,.824-.253,2.079,2.079,0,0,1-.232-.213.36.36,0,0,0-.033-.036.366.366,0,0,1-.042-.045l.268-.139Zm-.015-.946v.207h.608l0-.207Zm0,.465v.208h.589c.006-.06.009-.105.013-.208Zm.195.481a1.376,1.376,0,0,0,.229.229.656.656,0,0,0,.117-.229Zm.74-.481c-.006.109-.006.151-.012.208h.628V95.35Zm.006-.258h.61v-.207h-.607Z"/><path class="e" d="M142.155,94.494a1.327,1.327,0,0,0,.241.015h.64a1.578,1.578,0,0,0,.24-.012V94.8a2.263,2.263,0,0,0-.228-.008H142.4a2.013,2.013,0,0,0-.241.011Zm.1-.421a1.444,1.444,0,0,0,.25.015h.442a1.432,1.432,0,0,0,.249-.015v.291a2.138,2.138,0,0,0-.249-.011h-.442a2.18,2.18,0,0,0-.25.011Zm0,2.7a2.76,2.76,0,0,0,.015-.291v-.448a2.007,2.007,0,0,0-.012-.24,1.962,1.962,0,0,0,.229.011h.52a1.3,1.3,0,0,0,.207-.008c-.006.063-.009.126-.009.219v.472a1.719,1.719,0,0,0,.015.246h-.3v-.1h-.357v.141Zm.009-1.824a1.718,1.718,0,0,0,.2.009h.547a1.115,1.115,0,0,0,.192-.009v.282a1.608,1.608,0,0,0-.192-.009h-.547a1.718,1.718,0,0,0-.2.009Zm0,.424a1.718,1.718,0,0,0,.2.009h.544a1.135,1.135,0,0,0,.195-.009v.282a1.723,1.723,0,0,0-.2-.009h-.544a1.244,1.244,0,0,0-.2.009Zm.295.994h.357v-.3h-.357Zm1.722-1.082h.334a2.477,2.477,0,0,0,.328-.018v.337a2.608,2.608,0,0,0-.328-.018h-.334v.83a2.608,2.608,0,0,0,.021.369h-.372a2.753,2.753,0,0,0,.021-.369v-.83h-.328a2.724,2.724,0,0,0-.328.018v-.337a1.851,1.851,0,0,0,.28.018h.376V94.7h-.226a2.2,2.2,0,0,1-.279.436,1.093,1.093,0,0,0-.262-.228,1.769,1.769,0,0,0,.46-.938l.346.072-.018.042s-.021.057-.027.078c-.018.045-.031.081-.091.24h.7a2.247,2.247,0,0,0,.324-.018v.331a2.987,2.987,0,0,0-.321-.015h-.274Z"/><path class="e" d="M145.594,94.437a3.625,3.625,0,0,0-.37.018v-.34a3.2,3.2,0,0,0,.364.018h1.969a3.446,3.446,0,0,0,.37-.018v.34c-.075-.009-.2-.015-.337-.018v1.989c0,.283-.078.334-.508.334-.093,0-.189,0-.331-.009a1.181,1.181,0,0,0-.084-.333,3.35,3.35,0,0,0,.451.033c.111,0,.135-.015.135-.093V94.437Zm1.247,1.325a1.863,1.863,0,0,0,.013.244C146.8,96,146.793,96,146.736,96h-.078c-.039,0-.066,0-.078,0h-.706v.249h-.346a2.11,2.11,0,0,0,.018-.27v-.947a1.852,1.852,0,0,0-.015-.277,2.186,2.186,0,0,0,.28.012h.757a2.422,2.422,0,0,0,.288-.012,1.478,1.478,0,0,0-.015.256Zm-.97-.06h.649v-.649h-.649Z"/><path class="e" d="M148.7,96v.171h-.355l0-.039a2.383,2.383,0,0,0,.012-.271V94.7a1.853,1.853,0,0,0-.015-.288c.112.009.184.012.334.012h.691v-.087a2.084,2.084,0,0,0-.017-.328h.372a1.765,1.765,0,0,0-.021.315v.1h.713c.171,0,.237,0,.345-.012a1.918,1.918,0,0,0-.015.285v1.169a2.132,2.132,0,0,0,.015.31H150.4V96h-.7v.405a2.409,2.409,0,0,0,.021.376h-.376a2.593,2.593,0,0,0,.021-.376V96Zm0-1.281v.337h.67v-.337Zm0,.635V95.7h.67v-.345Zm1-.3h.7v-.337h-.7Zm0,.643h.7v-.345h-.7Z"/><path class="e" d="M151.185,94.5a1.327,1.327,0,0,0,.241.015h.568a1.578,1.578,0,0,0,.24-.012V94.8a1.8,1.8,0,0,0-.228-.01h-.58a1.628,1.628,0,0,0-.241.013Zm.1,2.266c.009-.087.015-.2.015-.294v-.439a1.792,1.792,0,0,0-.012-.237,1.884,1.884,0,0,0,.235.011h.469a1.764,1.764,0,0,0,.2-.008,1.886,1.886,0,0,0-.009.219v.472a1.636,1.636,0,0,0,.012.237H151.9v-.1h-.315v.141Zm0-2.687a1.33,1.33,0,0,0,.244.015h.411a1.363,1.363,0,0,0,.244-.015v.277a1.724,1.724,0,0,0-.244-.013h-.411a1.7,1.7,0,0,0-.244.013Zm.006.878a1.53,1.53,0,0,0,.189.009h.509a1.32,1.32,0,0,0,.183-.009v.264a1.478,1.478,0,0,0-.183-.009h-.509a1.53,1.53,0,0,0-.189.009Zm0,.421a1.567,1.567,0,0,0,.189.008h.506a1.412,1.412,0,0,0,.186-.008v.264a1.493,1.493,0,0,0-.19-.009h-.5a1.517,1.517,0,0,0-.187.009Zm.3.983h.315v-.292h-.315Zm1.019-1.906a2.287,2.287,0,0,0-.286.012V94.2a1.458,1.458,0,0,0,.286.019h.307a.95.95,0,0,0-.018-.223h.345a.95.95,0,0,0-.018.223h.382a1.488,1.488,0,0,0,.292-.019v.268a2.472,2.472,0,0,0-.292-.012h-.382v.126h.319a1.743,1.743,0,0,0,.249-.012v.258a2.151,2.151,0,0,0-.255-.011h-.313v.123h.433a1.611,1.611,0,0,0,.3-.018V95.2a1.669,1.669,0,0,0-.3-.018h-1.088a1.689,1.689,0,0,0-.3.018v-.282a1.49,1.49,0,0,0,.3.018h.346v-.123h-.265a2.195,2.195,0,0,0-.252.011v-.258a1.954,1.954,0,0,0,.255.012h.262v-.126Zm.081,1.981a2.6,2.6,0,0,0,.018.343h-.34a1.973,1.973,0,0,0,.018-.343v-.887c0-.111,0-.171-.008-.256a2.3,2.3,0,0,0,.24.009h.9a1.8,1.8,0,0,0,.27-.012,2.711,2.711,0,0,0-.012.31v.866c0,.234-.075.292-.378.292-.1,0-.145,0-.244-.01a1.214,1.214,0,0,0-.072-.291,2.231,2.231,0,0,0,.291.027c.082,0,.1-.015.1-.087v-.1h-.778Zm.778-.749v-.129h-.778v.129Zm0,.364v-.124h-.778v.124Z"/><path class="e" d="M155.363,94.331a1.945,1.945,0,0,0-.018-.327h.379a2.205,2.205,0,0,0-.018.316v.2h.824a2.145,2.145,0,0,0,.273-.012,2.2,2.2,0,0,0-.012.264v.917a2.071,2.071,0,0,0,.015.3h-.354V95.8h-.746v.611a2.36,2.36,0,0,0,.021.372h-.385a2.489,2.489,0,0,0,.021-.372V95.8h-.709v.181H154.3l0-.042a2.174,2.174,0,0,0,.012-.259v-.92a2.129,2.129,0,0,0-.012-.261,2.341,2.341,0,0,0,.271.012h.79Zm-.709.5v.652h.709v-.652Zm1.8.652v-.652h-.746v.652Z"/><rect class="h" x="121.75" y="91.548" width="37.167" height="7.75"/></svg>