<svg xmlns="http://www.w3.org/2000/svg" width="20.84" height="20.84" viewBox="0 0 20.84 20.84"><defs><style>.cls-1{fill:none;stroke:#004831;stroke-miterlimit:10;stroke-width:1.84px;}.cls-2{fill:#004831;}</style></defs><title>ico_num_02</title><g id="レイヤー_2" data-name="レイヤー 2"><g id="レイヤー_1-2" data-name="レイヤー 1"><circle class="cls-1" cx="10.42" cy="10.42" r="9.5"/><path class="cls-2" d="M7.781,16.093a12.92,12.92,0,0,0-1.807.07,7.1,7.1,0,0,1,.365-1.793,6.915,6.915,0,0,1,1.919-2.746A19.234,19.234,0,0,1,10.569,9.93c1.288-.883,1.681-1.345,1.681-2.059,0-.953-.742-1.541-1.934-1.541a1.977,1.977,0,0,0-1.778.826A2.661,2.661,0,0,0,8.1,8.445l-2-.239a4.216,4.216,0,0,1,.967-2.241,4.073,4.073,0,0,1,3.207-1.246c2.452,0,3.965,1.176,3.965,3.1a2.847,2.847,0,0,1-1,2.242,17.476,17.476,0,0,1-2.354,1.722,12.32,12.32,0,0,0-1.666,1.4,3.369,3.369,0,0,0-.8,1.261h3.922a14.716,14.716,0,0,0,2.045-.112v1.849c-.658-.056-1.217-.084-2.114-.084Z"/></g></g></svg>