<svg xmlns="http://www.w3.org/2000/svg" width="18.689" height="11.133" viewBox="0 0 18.689 11.133"><defs><style>.a{fill:#fff;}</style></defs><title>35</title><path class="a" d="M2.576,8.715H3.52a.14.14,0,0,0,.158-.158V7.613a.139.139,0,0,0-.158-.157H2.576a.139.139,0,0,0-.158.157v.944A.14.14,0,0,0,2.576,8.715Z"/><path class="a" d="M2.576,6.2h2.2a.14.14,0,0,0,.157-.158V5.094a.139.139,0,0,0-.157-.157h-2.2a.14.14,0,0,0-.158.157v.945A.14.14,0,0,0,2.576,6.2Z"/><path class="a" d="M2.576,3.678H3.52a.14.14,0,0,0,.158-.158V2.576a.139.139,0,0,0-.158-.157H2.576a.139.139,0,0,0-.158.157V3.52A.14.14,0,0,0,2.576,3.678Z"/><path class="a" d="M13.594,7.456h-8.5a.139.139,0,0,0-.157.157v.944a.14.14,0,0,0,.157.158h8.5a.14.14,0,0,0,.158-.158V7.613A.139.139,0,0,0,13.594,7.456Z"/><path class="a" d="M6.2,6.039a.14.14,0,0,0,.158.158H7.3a.139.139,0,0,0,.157-.158V5.094A.139.139,0,0,0,7.3,4.937H6.354a.14.14,0,0,0-.158.157v.945Z"/><path class="a" d="M5.094,3.678h.945A.139.139,0,0,0,6.2,3.52V2.576a.139.139,0,0,0-.157-.157H5.094a.139.139,0,0,0-.157.157V3.52A.14.14,0,0,0,5.094,3.678Z"/><path class="a" d="M8.715,6.039a.139.139,0,0,0,.157.158h.945a.14.14,0,0,0,.157-.158V5.094a.139.139,0,0,0-.157-.157H8.872a.139.139,0,0,0-.157.157v.945Z"/><path class="a" d="M7.613,3.678h.944a.14.14,0,0,0,.158-.158V2.576a.139.139,0,0,0-.158-.157H7.613a.139.139,0,0,0-.158.157V3.52A.14.14,0,0,0,7.613,3.678Z"/><path class="a" d="M11.233,6.039a.14.14,0,0,0,.158.158h.944a.139.139,0,0,0,.157-.158V5.094a.139.139,0,0,0-.157-.157h-.944a.14.14,0,0,0-.158.157Z"/><path class="a" d="M16.113,7.456h-.945a.139.139,0,0,0-.157.157v.944a.14.14,0,0,0,.157.158h.945a.139.139,0,0,0,.157-.158V7.613A.139.139,0,0,0,16.113,7.456Z"/><path class="a" d="M10.131,3.678h.945a.139.139,0,0,0,.157-.158V2.576a.139.139,0,0,0-.157-.157h-.945a.139.139,0,0,0-.157.157V3.52A.139.139,0,0,0,10.131,3.678Z"/><path class="a" d="M12.65,3.678h.944a.14.14,0,0,0,.158-.158V2.576a.139.139,0,0,0-.158-.157H12.65a.139.139,0,0,0-.158.157V3.52A.14.14,0,0,0,12.65,3.678Z"/><path class="a" d="M13.752,6.039a.139.139,0,0,0,.157.158h2.2a.139.139,0,0,0,.157-.158V2.576a.139.139,0,0,0-.157-.157h-.945a.139.139,0,0,0-.157.157V4.937h-1.1a.139.139,0,0,0-.157.157v.945Z"/><path class="a" d="M1.159,11.133a1.1,1.1,0,0,1-.819-.34A1.1,1.1,0,0,1,0,9.974V1.159A1.1,1.1,0,0,1,.34.34,1.1,1.1,0,0,1,1.159,0h16.37a1.1,1.1,0,0,1,.82.34,1.107,1.107,0,0,1,.34.819V9.974a1.161,1.161,0,0,1-1.16,1.159Zm-.1-1.059h16.57V1.059H1.059Z"/></svg>