<svg id="レイヤー_1" data-name="レイヤー 1" xmlns="http://www.w3.org/2000/svg" xmlns:xlink="http://www.w3.org/1999/xlink" viewBox="0 0 50 50"><defs><style>.cls-1,.cls-5{fill:none;}.cls-2{clip-path:url(#clip-path);}.cls-3{fill:#fff;}.cls-4{fill:#004831;}.cls-5{stroke:#fff;stroke-linecap:round;stroke-linejoin:round;stroke-width:1.95px;}.cls-6{fill:#006;}</style><clipPath id="clip-path"><rect class="cls-1" width="50" height="50" rx="11.14"/></clipPath></defs><title>03_50x50-c のコピー 5</title><g class="cls-2"><rect class="cls-3" width="50" height="50" rx="11.14"/><rect class="cls-4" y="36" width="50" height="14"/></g><rect class="cls-1" width="50" height="50" rx="11.14"/><path class="cls-3" d="M11.08,45.5v-.4H9.21c0,.77-.24,1.2-1.7,1.2l-.35-.78h.28c.82,0,1-.08,1-.42H5.76v-.63H8.4V44H5.2v-.57H8.4V43H5.75v-.6H8.4V42H5.94V40.48H8.4v-.39H5.34v-.61H8.4V39.1h.81v.38h3.1v.61H9.21v.39h2.51V42H9.21v.4h2.65v1h.54V44h-.54v1.5ZM8.4,41H6.74v.49H8.4Zm2.51,0H9.21v.49h1.7Zm.17,2H9.21v.44h1.87Zm0,1H9.21v.47h1.87Z"/><path class="cls-3" d="M20.2,42.8A6.15,6.15,0,0,1,18.64,42a5.62,5.62,0,0,1-1.58.88l-.25-.44a5,5,0,0,1-.72,1.5l-.44-.5V45c0,.88-.08,1.18-1.17,1.23l-.4-.78c.78,0,.82,0,.82-.43V43a7.06,7.06,0,0,1-1.15,2.05l-.39-.79a5.3,5.3,0,0,0,1.24-1.89H13.44v-.69h1.67a8.6,8.6,0,0,0-1.06-.79l.52-.49s.17.11.42.3a4.83,4.83,0,0,0,.63-.65h-2v-.69h2.91v.72a7.53,7.53,0,0,1-1,1,4.47,4.47,0,0,1,.35.29l-.35.28h1.33v.4a4.13,4.13,0,0,0,1.22-.48,5.75,5.75,0,0,1-.67-.72,4.89,4.89,0,0,1-.62.58l-.52-.54a4,4,0,0,0,1.4-1.78l.74.16a3,3,0,0,1-.19.41h2.14v.65H20a3.41,3.41,0,0,1-.76,1.18,5.55,5.55,0,0,0,1.32.49Zm-4.55-.42v1a4.6,4.6,0,0,0,.52-1Zm2.76,3.15c1,0,1.05-.17,1.05-1.27v-.2h-.92a3.2,3.2,0,0,1-1.73,2.24l-.58-.63a2.58,2.58,0,0,0,1.52-1.61h-1.1v-.7H18a4.86,4.86,0,0,0,.06-.75v0h.75v0a6.51,6.51,0,0,1-.06.74h1.53v.07c0,2.3,0,2.69-1.47,2.82Zm-.49-5.16a3.77,3.77,0,0,0,.71.79,2.53,2.53,0,0,0,.52-.79Z"/><path class="cls-3" d="M25.73,44V45c0,.94-.13,1.23-1.92,1.23l-.4-.78c1.39,0,1.52,0,1.52-.43V44H21.58v-.72h3.35V42.09H22.2v-.71h2.73V40.19c-.72.05-1.53.08-2.51.08l-.28-.73a26.64,26.64,0,0,0,5.45-.41l.49.64a14.94,14.94,0,0,1-2.35.36v1.25H28v.71H25.73v1.16h2.92V44Z"/><path class="cls-3" d="M36,43.57v-.88H33.4v.89h-.73v-.29l-.47.25a2.31,2.31,0,0,0-.1-.33l-.47,0v3h-.76v-3c-.51,0-1.07,0-1.07,0l-.12-.72h.46c.31-.36.62-.75.8-1a10,10,0,0,0-1.26-.86l.46-.58.31.24a7.57,7.57,0,0,0,.64-1.34l.68.3a10.36,10.36,0,0,1-.83,1.4c.14.12.25.24.35.32a7.28,7.28,0,0,0,.58-1l.7.32A18,18,0,0,1,31,42.62l.87,0a2.26,2.26,0,0,0-.17-.35l.6-.27a8.87,8.87,0,0,1,.4,1V42h4v1.53ZM29.72,45.8a12.77,12.77,0,0,0,.33-2.07l.65.08s-.12,1.38-.29,2.16Zm2.36-.35s-.11-.73-.27-1.51l.61-.14c.23.89.34,1.5.34,1.5Zm.32.19c1.22-.47,1.28-1.16,1.28-2.46h.75c0,1.81-.3,2.56-1.5,3.12Zm.45-4.13V40.9h1.44v-.65H32.67v-.64h1.62V39.1h.78v.51h1.68v.64H35.07v.65H36.5v.61Zm2.76,4.62a.7.7,0,0,1-.71-.71V43.18h.75v2.1c0,.19.2.18.2.18h.09c.11,0,.25,0,.27-.94l.67.36c-.07,1.16-.4,1.25-.83,1.25Z"/><path class="cls-3" d="M43.37,46a15.24,15.24,0,0,1-1.93.13c-1.81,0-2.95-.44-2.95-1.57,0,0,0-.08,0-.13.08-1,1-1.42,2.25-1.42a7.17,7.17,0,0,1,1.41.16,6.4,6.4,0,0,1-.58-.86c-1.12.12-2.22.21-3.24.27l-.09-.8h.12c.75,0,1.78-.07,2.85-.18-.11-.22-.21-.45-.32-.68-.85.08-1.69.15-2.38.17l-.09-.77h.26c.54,0,1.22,0,1.92-.1-.1-.28-.2-.54-.28-.8l.85-.17a7.68,7.68,0,0,0,.3.88,18.61,18.61,0,0,0,2.15-.33l.07.76c-.58.09-1.25.18-1.93.26a7.11,7.11,0,0,0,.34.68c.73-.09,1.44-.2,2-.31l.09.77c-.56.09-1.15.17-1.74.24a7,7,0,0,0,1.22,1.54l-.66.54a4.43,4.43,0,0,0-2.17-.55c-.8,0-1.46.23-1.5.71v.06c0,.65.86.85,1.91.85a13,13,0,0,0,2.07-.2Z"/><path class="cls-4" d="M37.52,27.27V12a1.73,1.73,0,0,0-1.73-1.74H13.69A1.74,1.74,0,0,0,12,12V27.27A1.74,1.74,0,0,0,13.69,29h22.1a1.73,1.73,0,0,0,1.73-1.73ZM12.6,19.65a1,1,0,0,1,2.07,0,1,1,0,0,1-2.07,0Zm3,7.59V12.05H35.44V27.24Zm0,0"/><rect class="cls-4" x="18.69" y="19.23" width="13.62" height="1.29"/><rect class="cls-4" x="18.69" y="22.52" width="11.27" height="1.29"/><rect class="cls-5" x="27.64" y="16.38" width="14.91" height="1.95" transform="translate(-1.99 29.9) rotate(-45)"/><rect class="cls-5" x="27.64" y="16.38" width="14.91" height="1.95" transform="translate(-1.99 29.9) rotate(-45)"/><polygon class="cls-5" points="29.13 21.94 30.51 23.32 28.82 23.63 29.13 21.94"/><rect class="cls-5" x="40.69" y="10.61" width="0.36" height="1.95" transform="translate(3.78 32.29) rotate(-45)"/><path class="cls-5" d="M40.31,10.77a.92.92,0,0,1,1.31.06.94.94,0,0,1,.06,1.32Z"/><rect class="cls-6" x="27.64" y="16.38" width="14.91" height="1.95" transform="translate(-1.99 29.9) rotate(-45)"/><rect class="cls-4" x="27.64" y="16.38" width="14.91" height="1.95" transform="translate(-1.99 29.9) rotate(-45)"/><rect class="cls-4" x="27.64" y="16.38" width="14.91" height="1.95" transform="translate(-1.99 29.9) rotate(-45)"/><polygon class="cls-4" points="29.13 21.94 30.51 23.32 28.82 23.63 29.13 21.94"/><rect class="cls-4" x="40.69" y="10.61" width="0.36" height="1.95" transform="translate(3.78 32.29) rotate(-45)"/><path class="cls-4" d="M40.31,10.77a.92.92,0,0,1,1.31.06.94.94,0,0,1,.06,1.32Z"/><rect class="cls-4" x="18.69" y="15.95" width="13.62" height="1.29"/></svg>