<svg xmlns="http://www.w3.org/2000/svg" width="10.488" height="15.561" viewBox="0 0 10.488 15.561"><defs><style>.a{fill:#fff;}</style></defs><title>ico_question0</title><path class="a" d="M3.827,10.991V9.821a4.546,4.546,0,0,1,.059-.8A1.824,1.824,0,0,1,4.1,8.429a2.424,2.424,0,0,1,.4-.511q.248-.243.6-.584L6.921,5.676a1.774,1.774,0,0,0,.59-1.382,1.7,1.7,0,0,0-.6-1.35,2.247,2.247,0,0,0-1.523-.521,2.269,2.269,0,0,0-1.63.606,2.327,2.327,0,0,0-.733,1.478L0,4.294A5.108,5.108,0,0,1,.59,2.477,4.418,4.418,0,0,1,1.76,1.126,5.177,5.177,0,0,1,3.425.287,7.14,7.14,0,0,1,5.5,0,6.764,6.764,0,0,1,7.476.276a4.88,4.88,0,0,1,1.583.8,3.65,3.65,0,0,1,1.051,1.3,4.021,4.021,0,0,1,.378,1.776,3.3,3.3,0,0,1-.213,1.232,3.879,3.879,0,0,1-.567.978,6.5,6.5,0,0,1-.815.851q-.46.4-.98.85-.332.276-.567.489a2.535,2.535,0,0,0-.39.435,1.546,1.546,0,0,0-.224.511,2.931,2.931,0,0,0-.071.691v.808Zm-.473,2.954a1.51,1.51,0,0,1,.555-1.169,1.95,1.95,0,0,1,1.335-.489,2.013,2.013,0,0,1,1.322.468A1.436,1.436,0,0,1,7.133,13.9a1.505,1.505,0,0,1-.555,1.169,1.948,1.948,0,0,1-1.334.489,2.049,2.049,0,0,1-.721-.127,2.094,2.094,0,0,1-.6-.341,1.583,1.583,0,0,1-.413-.51A1.363,1.363,0,0,1,3.354,13.945Z"/></svg>