<svg xmlns="http://www.w3.org/2000/svg" width="35.19" height="46.276" viewBox="0 0 35.19 46.276"><defs><style>.a{fill:#90a4ae;}.b{fill:#fff;}.c{fill:#455a64;}</style></defs><title>32</title><circle class="a" cx="17.544" cy="15" r="15"/><path class="b" d="M16.454,18.053a9.634,9.634,0,0,0,.036-1.1c.018-1.693.613-2.593,2.431-3.692,1.152-.756,1.584-1.35,1.584-2.16,0-1.062-.954-1.783-2.394-1.783a2.754,2.754,0,0,0-2.017.721,2.662,2.662,0,0,0-.666,1.674l-2.665-.324a4.551,4.551,0,0,1,1.423-2.719,5.935,5.935,0,0,1,4-1.26,5.325,5.325,0,0,1,4,1.44,3.068,3.068,0,0,1,.882,2.269A3.4,3.4,0,0,1,22,13.642a10.717,10.717,0,0,1-1.8,1.35c-1.116.756-1.386,1.17-1.386,2.143a8.332,8.332,0,0,0,.054.918Zm2.5,1.494v2.467H16.346V19.547Z" transform="translate(-0.456)"/><path class="c" d="M.456,41.707a14.879,14.879,0,0,0,2.578-2.9,3.581,3.581,0,0,1,.9-.947,1.438,1.438,0,0,1,.816-.241c.587,0,.875.192,1.787,1.224a42.941,42.941,0,0,0,3.885,3.838,9.264,9.264,0,0,0,1.14.9l-.756,1.643a61.289,61.289,0,0,1-5.073-5.073c-.768-.839-.768-.839-.972-.839s-.227.035-.731.7c-.516.684-1.5,1.919-2.147,2.675-.192.227-.24.287-.408.5Z" transform="translate(-0.456)"/><path class="c" d="M16.426,36.418a5.08,5.08,0,0,0-.06.72l-.012.336c-.024.551-.037,1.091-.048,1.631-.108,3.525-.744,5.277-2.627,7.148a4.438,4.438,0,0,0-1.211-1.164A4.923,4.923,0,0,0,13.7,43.71c.852-1.367,1.139-2.938,1.139-6.285a7.508,7.508,0,0,0-.048-1.091Zm3.178-.144a5.464,5.464,0,0,0-.072,1.14l-.072,6.824a5.469,5.469,0,0,0,3.01-3.562A5.121,5.121,0,0,0,23.609,41.8a7.011,7.011,0,0,1-4.473,4.234c-.288.108-.36.144-.516.216l-.767-.816a5.379,5.379,0,0,0,.108-1.271l.06-6.765a6.279,6.279,0,0,0-.048-1.151Z" transform="translate(-0.456)"/><path class="c" d="M32.348,36.994a6.512,6.512,0,0,0,.659-.024,1.32,1.32,0,1,1,1.343,1.355.58.58,0,0,1-.143-.012,10.731,10.731,0,0,1-6.885,7.963,4.406,4.406,0,0,0-1.055-1.426,8.7,8.7,0,0,0,6.26-6.453H26.818a9.7,9.7,0,0,0-1.511.072V36.91a8.447,8.447,0,0,0,1.535.084Zm1.3,0a.684.684,0,1,0,1.367-.012.684.684,0,0,0-1.367.012Z" transform="translate(-0.456)"/></svg>