<svg xmlns="http://www.w3.org/2000/svg" width="14.188" height="14.191" viewBox="0 0 14.188 14.191"><defs><style>.a{fill:#fff;}</style></defs><title>63</title><path class="a" d="M9.83,1.432c.467-.339.744-.063,1.031.238.4.419.82.821,1.228,1.234a.51.51,0,0,1,.074.781c-.285.43-.576.856-.832,1.327.376-.254.752-.507,1.127-.763.525-.357.629-.348,1.077.1.149.149.3.295.447.448a.483.483,0,0,1,0,.794c-.436.445-.88.881-1.322,1.32-.747.745-1.5,1.487-2.239,2.238-.13.131-.2.153-.34.007Q7.567,6.629,5.039,4.118c-.133-.132-.15-.2-.007-.339C6.215,2.6,7.388,1.419,8.568.24c.323-.323.532-.318.862,0,.083.081.165.164.246.247C10.022.838,10.038.932,9.83,1.432Z"/><path class="a" d="M1.773,14.191A1.76,1.76,0,0,1,.108,13.056a1.681,1.681,0,0,1,.52-1.913c.719-.59,1.527-1.051,2.3-1.566.333-.222.678-.427,1.006-.656a.934.934,0,0,0,.145-1.475c-.306-.32-.624-.629-.932-.948-.292-.3-.294-.52-.009-.815s.6-.6.886-.9c.106-.113.166-.112.273,0Q6.853,7.341,9.419,9.9c.116.116.086.176-.016.272-.3.291-.6.6-.9.887a.483.483,0,0,1-.794,0c-.32-.306-.623-.631-.949-.931a.937.937,0,0,0-1.532.191C4.542,11.344,3.907,12.4,3.179,13.4A1.761,1.761,0,0,1,1.773,14.191Z"/></svg>