<svg xmlns="http://www.w3.org/2000/svg" width="20.84" height="20.84" viewBox="0 0 20.84 20.84"><defs><style>.cls-1{fill:none;stroke:#004831;stroke-miterlimit:10;stroke-width:1.84px;}.cls-2{fill:#004831;}</style></defs><title>ico_num_04</title><g id="レイヤー_2" data-name="レイヤー 2"><g id="レイヤー_1-2" data-name="レイヤー 1"><circle class="cls-1" cx="10.42" cy="10.42" r="9.5"/><path class="cls-2" d="M14.855,13.6a10.808,10.808,0,0,0-1.4-.1h-.5v1a8.7,8.7,0,0,0,.112,1.6H11.073a8.935,8.935,0,0,0,.112-1.625V13.5H7.3c-.826,0-1.274.014-1.75.056V11.834c.476-.518.63-.7,1.121-1.288L9.994,6.484a13.319,13.319,0,0,0,1.163-1.541h1.891a19.713,19.713,0,0,0-.1,2.367V11.9h.49a9.221,9.221,0,0,0,1.415-.1ZM11.2,9.019a15.863,15.863,0,0,1,.07-1.681c-.28.406-.448.63-.953,1.247L7.627,11.918H11.2Z"/></g></g></svg>