<svg xmlns="http://www.w3.org/2000/svg" width="20.84" height="20.84" viewBox="0 0 20.84 20.84"><defs><style>.cls-1{fill:none;stroke:#004831;stroke-miterlimit:10;stroke-width:1.84px;}.cls-2{fill:#004831;}</style></defs><title>ico_num_03</title><g id="レイヤー_2" data-name="レイヤー 2"><g id="レイヤー_1-2" data-name="レイヤー 1"><circle class="cls-1" cx="10.42" cy="10.42" r="9.5"/><path class="cls-2" d="M7.8,13.053A1.813,1.813,0,0,0,8.454,14.2a2.644,2.644,0,0,0,1.694.546c1.387,0,2.27-.714,2.27-1.821a1.632,1.632,0,0,0-.785-1.47,3.617,3.617,0,0,0-1.611-.337,11.981,11.981,0,0,0-1.5.07V9.453a9.619,9.619,0,0,0,1.36.07c1.4,0,2.226-.645,2.226-1.723,0-.966-.658-1.512-1.849-1.512a2.34,2.34,0,0,0-1.526.433A2.065,2.065,0,0,0,8.145,7.8l-2-.336a3.479,3.479,0,0,1,1.331-2,4.547,4.547,0,0,1,2.745-.77c2.339,0,3.853,1.176,3.853,3a2.554,2.554,0,0,1-.967,2.06,3.486,3.486,0,0,1-1.359.546,2.951,2.951,0,0,1,2,.938,2.693,2.693,0,0,1,.672,1.934,2.972,2.972,0,0,1-.841,2.045,4.839,4.839,0,0,1-3.446,1.134,4.376,4.376,0,0,1-3.557-1.331,3.7,3.7,0,0,1-.785-1.569Z"/></g></g></svg>