<svg xmlns="http://www.w3.org/2000/svg" width="19" height="19" viewBox="0 0 19 19"><defs><style>.cls-1{fill:#fff;}.cls-2{fill:#a1c632;}</style></defs><title>ico_num_03_c</title><g id="レイヤー_2" data-name="レイヤー 2"><g id="レイヤー_1-2" data-name="レイヤー 1"><circle class="cls-1" cx="9.5" cy="9.5" r="9.5"/><path class="cls-2" d="M6.792,12.4a1.814,1.814,0,0,0,.658,1.148,2.648,2.648,0,0,0,1.695.546c1.387,0,2.27-.714,2.27-1.82A1.63,1.63,0,0,0,10.63,10.8a3.627,3.627,0,0,0-1.611-.337,11.964,11.964,0,0,0-1.5.071V8.8a9.456,9.456,0,0,0,1.36.071c1.4,0,2.226-.645,2.226-1.723,0-.967-.658-1.513-1.849-1.513a2.334,2.334,0,0,0-1.526.434,2.05,2.05,0,0,0-.589,1.079l-2-.336a3.48,3.48,0,0,1,1.331-2,4.55,4.55,0,0,1,2.746-.77c2.339,0,3.851,1.177,3.851,3A2.549,2.549,0,0,1,12.1,9.091a3.442,3.442,0,0,1-1.358.546,2.942,2.942,0,0,1,2,.939,2.686,2.686,0,0,1,.673,1.933,2.963,2.963,0,0,1-.841,2.045,4.838,4.838,0,0,1-3.445,1.135,4.38,4.38,0,0,1-3.559-1.331,3.72,3.72,0,0,1-.784-1.569Z"/></g></g></svg>