<svg id="レイヤー_1" data-name="レイヤー 1" xmlns="http://www.w3.org/2000/svg" xmlns:xlink="http://www.w3.org/1999/xlink" viewBox="0 0 570 500"><defs><style>.cls-1,.cls-11,.cls-6,.cls-7{fill:none;}.cls-2{clip-path:url(#clip-path);}.cls-3{fill:#282829;}.cls-4{fill:#6f6e6e;}.cls-5{fill:#fff;}.cls-6{stroke:#1d462b;stroke-width:1.86px;}.cls-7{stroke:#9b9796;stroke-width:2px;}.cls-11,.cls-7{stroke-miterlimit:10;}.cls-8{fill:url(#radial-gradient);}.cls-9{fill:url(#linear-gradient);}.cls-10{fill:#580e10;}.cls-11{stroke:#767676;}.cls-12{fill:#aace36;}.cls-13{fill:url(#radial-gradient-2);}.cls-14{fill:#edac86;}.cls-15{fill:#9d9c9d;}.cls-16{fill:#2d2d2d;}.cls-17{fill:#060001;}.cls-18{fill:url(#radial-gradient-3);}.cls-19{fill:url(#linear-gradient-2);}</style><clipPath id="clip-path"><rect id="SVGID" class="cls-1" x="9.09" y="30" width="571.82" height="500"/></clipPath><radialGradient id="radial-gradient" cx="1782.2" cy="831.48" r="117.68" gradientTransform="translate(-1659.23 510.56) rotate(-29.95) scale(0.91)" gradientUnits="userSpaceOnUse"><stop offset="0" stop-color="#fbeedb"/><stop offset="1" stop-color="#efba95"/></radialGradient><linearGradient id="linear-gradient" x1="65.13" y1="438.32" x2="182.08" y2="438.32" gradientUnits="userSpaceOnUse"><stop offset="0" stop-color="#c4c4c3"/><stop offset="0.05" stop-color="#cbcbca"/><stop offset="0.25" stop-color="#e2e2e1"/><stop offset="0.46" stop-color="#f2f2f2"/><stop offset="0.7" stop-color="#fcfcfc"/><stop offset="1" stop-color="#fff"/></linearGradient><radialGradient id="radial-gradient-2" cx="-728.95" cy="631.84" r="91.72" gradientTransform="translate(1110.16 55.3) rotate(17) scale(0.91)" xlink:href="#radial-gradient"/><radialGradient id="radial-gradient-3" cx="498.81" cy="319.94" r="153.32" gradientTransform="translate(-43.18 20.06) rotate(-3) scale(0.91)" xlink:href="#radial-gradient"/><linearGradient id="linear-gradient-2" x1="441.84" y1="459.41" x2="548.89" y2="459.41" gradientTransform="matrix(1, -0.05, 0.05, 1, -47.11, 21.92)" xlink:href="#linear-gradient"/></defs><title>アートボード 109</title><g class="cls-2"><path class="cls-3" d="M453.68,322a16.34,16.34,0,0,1-16.35,16.34H137.72A16.34,16.34,0,0,1,121.38,322V102.29A16.34,16.34,0,0,1,137.72,86H437.33a16.34,16.34,0,0,1,16.35,16.33Z"/><path class="cls-4" d="M445.51,223.81a2.72,2.72,0,0,1-2.73-2.72V203.22a2.73,2.73,0,0,1,5.45,0v17.87a2.72,2.72,0,0,1-2.72,2.72Z"/><path class="cls-5" d="M144.54,319.09a3.87,3.87,0,0,1-3.86-3.86V109.12a3.88,3.88,0,0,1,3.86-3.87h286a3.88,3.88,0,0,1,3.87,3.87V315.23a3.87,3.87,0,0,1-3.87,3.86Z"/><rect class="cls-6" x="242.47" y="193.72" width="73.02" height="21.15"/><path class="cls-7" d="M228,252.9a9.8,9.8,0,1,1-9.8-9.8A9.8,9.8,0,0,1,228,252.9Z"/><path class="cls-7" d="M302.24,252.9a9.8,9.8,0,1,1-9.8-9.8A9.8,9.8,0,0,1,302.24,252.9Z"/><path class="cls-8" d="M156.73,338.35s-1.71-8-10.21-19.55-20.87-21.9-20.87-21.9c2.71-6.91,18.21-21.33,26.71-48.84,6.53-21.16-8-30.17-14.59-18.35s-37.49,51-39.89,63.13,1.42,32.64,7.39,54.62c2.44,9,9.84,17.07,7.29,26.57S79.3,478.84,79.3,478.84s75.2,3.3,79.7-17c6.37-28.67,15-64.16,19.63-68.39,7.89-7.22,29-19.37,34.12-29,2.07-3.89,6.78-14.8,11.67-26.11Z"/><path class="cls-9" d="M182.08,414.1S141.59,389.59,95.56,401L65.13,478.65H159.3Z"/><path class="cls-10" d="M184.94,424.12A143.63,143.63,0,0,0,138.24,408a122.3,122.3,0,0,0-49.42,1.6L12.22,606.84H116.85Z"/><line class="cls-11" x1="197.22" y1="154.21" x2="373.01" y2="154.21"/><line class="cls-11" x1="197.22" y1="174.21" x2="249.85" y2="174.21"/><line class="cls-11" x1="234.06" y1="258.53" x2="269.32" y2="258.53"/><path class="cls-12" d="M287.74,252.9a4.7,4.7,0,1,1,4.7,4.7A4.71,4.71,0,0,1,287.74,252.9Z"/><path class="cls-13" d="M382.48,262.66s-13.82,12.53-16.75,16.39-3,7.42-.31,14.26,8.9,17.31,12.68,23.81,12.77,17,19.35,9.7,12.66-22.56,10.66-29-3.5-36.09-9.51-38.37S382.48,262.66,382.48,262.66Z"/><path class="cls-14" d="M395.75,315.46s-4-21.23-6.12-23.54,6.06-10.65,6.06-10.65l3.73-3,.52,5.16a26,26,0,0,0-5.3,5.88c-1.57,2.86,7.28,19.74,3.62,29.45S395.75,315.46,395.75,315.46Z"/><path class="cls-15" d="M294.42,254.05c-1.07-1.2-.66-1.84.9-1.78s20.1,1.16,20.1,1.16l-6.08,14.32S295.5,255.24,294.42,254.05Z"/><path class="cls-16" d="M457.46,323.86c-2.36,5.08-5.65,5.32-5.65,5.32L309.34,267.75s-1.87-3.33.26-8.19a11.12,11.12,0,0,1,5.82-6.13l142.4,62S459.81,318.78,457.46,323.86Z"/><path class="cls-17" d="M457.46,323.86c2.35-5.08.36-8.4.36-8.4s-2.46,1.09-4.7,6.34c-1.62,3.76-1.59,5.91-.87,7.3C453.21,328.84,455.62,327.83,457.46,323.86Z"/><path class="cls-1" d="M396.86,284.27c-2.14-8.13-4.66-16.56-5.74-18.57-2.12-4-5.09-2.39-10.07.25-3,1.61-15.17,4.07-26.34,4.6l42.74,18.61A21.56,21.56,0,0,0,396.86,284.27Z"/><path class="cls-1" d="M366.38,324.82c-.63,4.8,18,12.15,20.71,11.33,1.71-.52,8.23-18.65,9.44-23.15a43.85,43.85,0,0,0,.81-7.31L351.54,286C360.45,298.32,366.92,320.74,366.38,324.82Z"/><path class="cls-18" d="M505.44,480.69c-3.24-8.49-28.05-82.75-26.95-89.09.68-3.85-5.54-70.89-6.52-74.49s-9.76-19.58-11.12-25.92c-1.71-8-12.91-12.29-18.61-18.2s-23.54-23.87-26.72-29.83-11.56-8.54-19.58-6.83c-6.71,1.43-58.41,13.82-62.91,14.94-2.62.65-3.95,4.46-2.85,8.59a14,14,0,0,0,6.79,8.45c3.64,2.1,10.48,2.58,17.74,2.24,11.17-.53,23.32-3,26.34-4.6,5-2.64,7.95-4.23,10.07-.25,1.08,2,3.6,10.44,5.74,18.57a21.56,21.56,0,0,1,.59,4.89l60.37,26.3s2,3.32-.36,8.4a13,13,0,0,1-.84,1.55l-.27.39a8.32,8.32,0,0,1-.62.84l-.29.34c-.22.24-.43.45-.64.64l-.22.2a8.48,8.48,0,0,1-.78.57l-.26.15-.45.24-.28.12-.32.12-.2.06,0,0h0a3.26,3.26,0,0,1-.44.09l-54.47-23.49a43.85,43.85,0,0,1-.81,7.31c-1.21,4.5-7.73,22.63-9.44,23.15-2.75.82-21.34-6.53-20.71-11.33.54-4.08-5.93-26.5-14.84-38.87a29,29,0,0,0-4.93-5.52c-6-4.91-12-5.16-15.83-3.44-3.46,1.54-5.24,4.64-3.74,7.46,3.18,6,11.12,50.9,16.27,55.83s30.2,37.56,37.19,44.7S395.93,397.2,402,399.07s11,5,12.09,9.52,37.27,98.93,37.27,98.93S508.68,489.18,505.44,480.69Z"/><path class="cls-19" d="M416.87,433.4S451.5,407,497.79,416.07l29.36,76.19-88.95,4.66Z"/><path class="cls-10" d="M414.18,443.57s38.47-29.29,89.9-19.26l68.49,186.53L473.74,616Z"/></g></svg>