<svg xmlns="http://www.w3.org/2000/svg" xmlns:xlink="http://www.w3.org/1999/xlink" viewBox="0 0 495.24 500"><defs><linearGradient id="prefix__linear-gradient" x1="355.91" y1="516.18" x2="391.45" y2="360.65" gradientUnits="userSpaceOnUse"><stop offset="0" stop-color="#071630"/><stop offset="1" stop-color="#133c62"/></linearGradient><linearGradient id="prefix__linear-gradient-2" x1="375.46" y1="197.54" x2="375.46" y2="155.91" gradientUnits="userSpaceOnUse"><stop offset="0" stop-color="#fbeedb"/><stop offset="1" stop-color="#efba95"/></linearGradient><linearGradient id="prefix__linear-gradient-3" x1="360.69" y1="202.16" x2="360.69" y2="249.46" gradientTransform="rotate(1 798.766 1053.055)" gradientUnits="userSpaceOnUse"><stop offset="0" stop-color="#c4c4c3"/><stop offset=".05" stop-color="#cbcbca"/><stop offset=".25" stop-color="#e2e2e1"/><stop offset=".46" stop-color="#f2f2f2"/><stop offset=".7" stop-color="#fcfcfc"/><stop offset="1" stop-color="#fff"/></linearGradient><linearGradient id="prefix__linear-gradient-4" x1="4734.78" y1="104.13" x2="4734.78" y2="137.02" gradientTransform="matrix(-1 .02 .02 1 5107.45 -13.78)" gradientUnits="userSpaceOnUse"><stop offset="0" stop-color="#c4c4c3"/><stop offset=".09" stop-color="#d5d5d5"/><stop offset=".23" stop-color="#e8e8e7"/><stop offset=".4" stop-color="#f5f5f5"/><stop offset=".6" stop-color="#fdfdfd"/><stop offset="1" stop-color="#fff"/></linearGradient><linearGradient id="prefix__linear-gradient-5" x1="352.77" y1="298.87" x2="432.14" y2="298.87" gradientTransform="rotate(1 798.766 1053.055)" xlink:href="#prefix__linear-gradient"/><linearGradient id="prefix__linear-gradient-6" x1="415.36" y1="397.78" x2="403.77" y2="350.86" gradientTransform="rotate(1 798.766 1053.055)" xlink:href="#prefix__linear-gradient"/><linearGradient id="prefix__linear-gradient-7" x1="398.77" y1="255.93" x2="396.42" y2="246.45" gradientTransform="rotate(1 798.766 1053.055)" xlink:href="#prefix__linear-gradient"/><linearGradient id="prefix__linear-gradient-8" x1="402.11" y1="247.74" x2="313.06" y2="209.86" gradientTransform="rotate(1 798.766 1053.055)" xlink:href="#prefix__linear-gradient"/><linearGradient id="prefix__linear-gradient-9" x1="4696.64" y1="222.86" x2="4774.72" y2="222.86" gradientTransform="matrix(-1 .02 .02 1 5076.78 -13.78)" xlink:href="#prefix__linear-gradient"/><linearGradient id="prefix__linear-gradient-10" x1="4759.54" y1="321.74" x2="4747.95" y2="274.82" gradientTransform="matrix(-1 .02 .02 1 5076.78 -13.78)" xlink:href="#prefix__linear-gradient"/><linearGradient id="prefix__linear-gradient-11" x1="4744.04" y1="175.39" x2="4656.63" y2="138.2" gradientTransform="matrix(-1 .02 .02 1 5076.78 -13.78)" xlink:href="#prefix__linear-gradient"/><linearGradient id="prefix__linear-gradient-12" x1="145.14" y1="692.23" x2="118.18" y2="536.24" gradientTransform="matrix(.99 .1 -.1 .99 249.13 -327.42)" xlink:href="#prefix__linear-gradient"/><linearGradient id="prefix__linear-gradient-13" x1="158.85" y1="1256.82" x2="144.14" y2="1251.31" gradientTransform="matrix(.95 .31 -.27 .82 539.13 -714.55)" xlink:href="#prefix__linear-gradient-3"/><linearGradient id="prefix__linear-gradient-14" x1="6565.63" y1="16.93" x2="6538.66" y2="-139.06" gradientTransform="matrix(-.99 .1 .1 .99 6958.91 -327.42)" xlink:href="#prefix__linear-gradient"/><linearGradient id="prefix__linear-gradient-15" x1="6294.24" y1="-1071.35" x2="6279.53" y2="-1076.87" gradientTransform="matrix(-.95 .31 .27 .82 6668.91 -714.55)" xlink:href="#prefix__linear-gradient-3"/><linearGradient id="prefix__linear-gradient-16" x1="384.55" y1="260.21" x2="384.55" y2="230.45" gradientTransform="matrix(.86 .16 -.18 .98 142.91 -185.76)" gradientUnits="userSpaceOnUse"><stop offset="0" stop-color="#e9b373"/><stop offset=".57" stop-color="#f5d0b5"/><stop offset="1" stop-color="#f6e2d0"/></linearGradient><linearGradient id="prefix__linear-gradient-17" x1="297.46" y1="-12.92" x2="297.46" y2="-42.68" gradientTransform="rotate(-10.11 1128.141 -81.936)" xlink:href="#prefix__linear-gradient-16"/><linearGradient id="prefix__linear-gradient-18" x1="-281.8" y1="64.68" x2="-222.81" y2="64.68" gradientTransform="rotate(6 -3861.527 3316.932)" xlink:href="#prefix__linear-gradient-3"/><linearGradient id="prefix__linear-gradient-19" x1="286.5" y1="491.39" x2="346.08" y2="491.39" xlink:href="#prefix__linear-gradient-3"/><radialGradient id="prefix__radial-gradient" cx="382.42" cy="94.63" r="45.06" gradientUnits="userSpaceOnUse"><stop offset="0" stop-color="#432610"/><stop offset=".36" stop-color="#311305"/><stop offset="1" stop-color="#241004"/></radialGradient><radialGradient id="prefix__radial-gradient-2" cx="525.77" cy="-140.15" r="25.6" gradientTransform="matrix(.67 .71 .73 -.69 120.63 -91.57)" xlink:href="#prefix__linear-gradient-2"/><radialGradient id="prefix__radial-gradient-3" cx="-312.47" cy="1035.62" r="8.59" gradientTransform="matrix(.88 .12 -.16 1.13 812.05 -754.76)" xlink:href="#prefix__linear-gradient-2"/><radialGradient id="prefix__radial-gradient-4" cx="5053.91" cy="4561.74" r="25.26" gradientTransform="matrix(-.67 .71 -.73 -.69 7087.42 -91.57)" xlink:href="#prefix__linear-gradient-2"/><radialGradient id="prefix__radial-gradient-5" cx="374.56" cy="98.96" r="60.69" gradientUnits="userSpaceOnUse"><stop offset="0" stop-color="#f6e2d0"/><stop offset="1" stop-color="#f5d0b5"/></radialGradient><radialGradient id="prefix__radial-gradient-6" cx="520.49" cy="66.58" r="10.48" gradientTransform="matrix(1.21 0 0 1.22 -232.44 20.24)" gradientUnits="userSpaceOnUse"><stop offset="0" stop-color="#6e4c37"/><stop offset="1" stop-color="#040000"/></radialGradient><radialGradient id="prefix__radial-gradient-7" cx="447.73" cy="125.3" r="13.26" gradientTransform="matrix(1.04 0 0 1 -53.55 0)" gradientUnits="userSpaceOnUse"><stop offset="0" stop-color="#fbe5d4"/><stop offset="1" stop-color="#fff"/></radialGradient><radialGradient id="prefix__radial-gradient-8" cx="380.64" cy="125.3" r="13.26" xlink:href="#prefix__radial-gradient-7"/><radialGradient id="prefix__radial-gradient-11" cx="367.82" cy="36.64" r="100.22" gradientUnits="userSpaceOnUse"><stop offset="0" stop-color="#4e3217"/><stop offset=".36" stop-color="#3f210f"/><stop offset="1" stop-color="#241004"/></radialGradient><radialGradient id="prefix__radial-gradient-12" cx="348.41" cy="71.25" r="13.97" gradientTransform="matrix(.93 0 0 1.18 72.23 15.85)" xlink:href="#prefix__radial-gradient-6"/><radialGradient id="prefix__radial-gradient-13" cx="1684.73" cy="66.58" r="10.48" gradientTransform="matrix(-1.21 0 0 1.22 2394.85 20.24)" xlink:href="#prefix__radial-gradient-6"/><radialGradient id="prefix__radial-gradient-14" cx="1862.55" cy="71.25" r="13.97" gradientTransform="matrix(-.93 0 0 1.18 2093.05 15.85)" xlink:href="#prefix__radial-gradient-6"/><radialGradient id="prefix__radial-gradient-15" cx="448.94" cy="62.82" r="47.94" xlink:href="#prefix__radial-gradient"/><radialGradient id="prefix__radial-gradient-16" cx="332.48" cy="59.05" r="50.96" xlink:href="#prefix__radial-gradient"/><radialGradient id="prefix__radial-gradient-17" cx="442.91" cy="92.21" r="32.53" xlink:href="#prefix__radial-gradient"/><radialGradient id="prefix__radial-gradient-18" cx="1007.49" cy="-538.38" r="61.02" gradientTransform="rotate(-20 3282.32 2565.35)" xlink:href="#prefix__linear-gradient-2"/><radialGradient id="prefix__radial-gradient-19" cx="-361.14" cy="1314.12" r="46.71" gradientTransform="rotate(20 2358.268 2562.688)" xlink:href="#prefix__linear-gradient-2"/><radialGradient id="prefix__radial-gradient-20" cx="296.81" cy="397.67" r="78.07" xlink:href="#prefix__linear-gradient-2"/><clipPath id="prefix__clip-path"><path id="prefix__SVGID" class="prefix__cls-1" d="M0 0h495.24v516.75H0z"/></clipPath><style>.prefix__cls-1,.prefix__cls-46{fill:none}.prefix__cls-16{fill:#eac233}.prefix__cls-20{fill:#edac86}.prefix__cls-35{fill:#46160b}.prefix__cls-46{stroke:#000;stroke-miterlimit:10;stroke-width:.39px;stroke-dasharray:2.33 .78}</style></defs><g style="isolation:isolate"><g clip-path="url(#prefix__clip-path)" id="prefix__レイヤー_1" data-name="レイヤー 1"><path d="M314.56 122.15c0 9.23 30 41.57 38.5 46.86a44.28 44.28 0 0145.06 0c8.5-5.29 37.92-32.81 37.92-42 0-16-40.29-62.58-60.45-62.58s-58.8 7.4-61.93 58.68" fill="url(#prefix__radial-gradient)"/><path d="M436 385.74l-49.91-38.8v-15.43l-9.93 7.72-9.92-7.72v15.43l-49.91 38.8s-3.73 1.31-3.17 29.83c.56 28.83 10.17 87.81 10.17 87.81H429s9.61-59 10.17-87.81c.59-28.52-3.17-29.83-3.17-29.83z" fill="url(#prefix__linear-gradient)"/><path d="M406.3 182.61s-9.14.1-15.44-10-.41-36.87-.41-36.87a54.69 54.69 0 00-15 3.5 54.66 54.66 0 00-15-3.5s5.9 26.79-.41 36.87-15.45 10-15.45 10a113.94 113.94 0 0114.59 4.44 32.4 32.4 0 007 1.51c2.08.72 4.61 26.66 8 26.61h.94c0 26.07.63 0 .94 0 3.35.05 6.5-25.89 8.58-26.61a32.49 32.49 0 007.05-1.51 113.6 113.6 0 0114.61-4.44z" fill="url(#prefix__linear-gradient-2)"/><path fill="url(#prefix__linear-gradient-3)" d="M339.01 184.91l36.75 8.78 34.49-9.35 1.5 43.13-32.33 70.68-39.84-66.32-.57-46.92z"/><path d="M375.57 194.6l-13.27 17.16-19.76-30.68s12.88-7.58 14.58-7 16.17 19.62 18.43 19.33c2.26.29 16.73-18.8 18.43-19.33s14.58 7 14.58 7l-19.76 30.68z" fill="url(#prefix__linear-gradient-4)"/><path d="M406.57 178.57l18.43 6.91s5.84 37.6 5.33 67c-.25 14.13-6.66 28.34-5.87 58.89.31 12 7.86 57.23 15.94 78.49 2.57 6.76 5.27 16.08.18 16-1.82 0-8.74-1.75-16.58-2.31-14-1-23-1.38-33.57-1.38s-25-78.25-24.89-83.34c.1-9.04 41.03-140.26 41.03-140.26z" fill="url(#prefix__linear-gradient-5)"/><path d="M403 341.94c0 2.82 6.75 34.32 7.83 37.45s2.47 4 4.73 4 16.37 1.7 18.62 2.31c1.39.37 3.55.76 5 1a304.22 304.22 0 01-12.77-47.52c-3.55-.16-20.13-.9-21.64-.93-1.68.01-1.69.86-1.77 3.69z" fill="url(#prefix__linear-gradient-6)"/><path fill="url(#prefix__linear-gradient-7)" d="M400.22 240.21l24.04-.71.46 6.51-26.31.67 1.81-6.47z"/><path d="M408.36 227.63c1.19-3.37 1.2-3.94.08-4.8s-5-4.05-7.53-6.07-1.34-4-.21-4 7.09-1.29 8.79-1.55 3.41-1.07 3.17-3.62c-.2-2.15-.51-21.12-.6-26.89l-5.49-2.17s-19 60.88-31.14 102.56l.62-.35c17.95-10.1 31.12-49.74 32.31-53.11z" fill="url(#prefix__linear-gradient-8)"/><path d="M363.33 244.65c-7.73-21.3-19.27-66.08-19.27-66.08l-16.77 6.91s-6.49 39.2-6 68.61c.25 14.14 5.7 26.74 4.92 57.29-.31 12-7.87 57.23-16 78.49-2.57 6.76-2.06 16.08 3 16 1.82 0 5.53-1.75 13.37-2.31 14-1 25.92-1.38 33.58-1.38S385 340.28 385 326.24s.89-23-.75-36-13.2-24.3-20.92-45.59z" fill="url(#prefix__linear-gradient-9)"/><path d="M347.61 341.94c.05 2.82-6.75 34.32-7.83 37.45s-2.47 4-4.74 4-16.36 1.7-18.61 2.31c-1.4.37-3.55.76-5 1a305.33 305.33 0 0012.77-47.52c3.54-.16 20.12-.9 21.64-.93 1.7.01 1.72.86 1.77 3.69z" fill="url(#prefix__linear-gradient-10)"/><path d="M342.28 227.63c-1.19-3.37-1.2-3.94-.08-4.8s5-4.05 7.52-6.07 1.35-4 .22-4-7.09-1.29-8.79-1.55-3.42-1.07-3.18-3.62c.2-2.15.52-21.12.61-26.89l5.48-2.17s17.94 57.83 23.22 71.77 13.33 28.83 15.64 36.75a111.51 111.51 0 01-9.79-6.41c-15.37-11.7-29.66-49.64-30.85-53.01z" fill="url(#prefix__linear-gradient-11)"/><path class="prefix__cls-16" d="M381.41 293.79a5.28 5.28 0 11-5.18-5.36 5.27 5.27 0 015.18 5.36zM381.41 324.33a5.28 5.28 0 11-5.18-5.37 5.27 5.27 0 015.18 5.37z"/><path d="M314.1 311c1.63-5.36 7.21-28.06 9.84-39-1-9.84-2-15.78-2-21.08.22-30 5.65-65.41 5.65-65.41a19.1 19.1 0 00-12.3 11.69A494.16 494.16 0 00300 247.66c-5.09 20.92-18.87 74.28-17.82 78.82.65 4.62 6.25 9.77 13 14.71s33.5 25.28 37.72 28.09 13.24-3.19 19.56-10.58-.71-11.05-.71-11.05S314.8 317.82 314 317s-.53-3.92.1-6z" fill="url(#prefix__linear-gradient-12)"/><path d="M339.34 355.09c3.52-3.84 8.15-6.34 9.72-5.36 3.36 2.11 6.87 4.32 7.45 4.72s2.13 2.69-3.73 9.7-11.16 7.43-11.94 6.78a42.79 42.79 0 00-6.89-4.76c-1.4-.77 1.37-6.69 5.39-11.08z" fill="url(#prefix__linear-gradient-13)"/><path d="M349.38 372.7c1.67 1.18 4.79 11.77 7.23 13.87 8.85 7.59 14.47 5 20.08 7.73s6 4.9 9.62 5.63a7.45 7.45 0 005.95-1.08c.28.06 2.35.56 3.1-.05 1-.81 2.07-1.7 2.07-2.45 1.51-.76 1.54-2.4 0-5.28-.37-.69-.92-1.8-.92-1.8s-.45-5.39-2.28-8-9.1-7.57-16-12.83c-4.88-3.74-11-6.29-15.31-8.31a40.89 40.89 0 01-4.46-2.45 36 36 0 00-4.44-2.87c-1.94-.86-3.52-.4-6.24 1.37-4.17 2.71-8.55 10-6.53 11.31 1.25.76 6.44 4.02 8.13 5.21z" fill="url(#prefix__radial-gradient-2)"/><path class="prefix__cls-20" d="M397.43 396.35s-6.21-6.1-8.81-8.52a103.9 103.9 0 00-9.78-7.68c-.59-.25-1.47.4-.66 1.3s9.15 6.6 11.13 9a88.84 88.84 0 006.8 5.72zM392.26 398.85s-4.84-4.17-6.62-5.85a30.65 30.65 0 00-5.77-4.15c-1.31-.67-5.35-3.94-6.44-4s-.18 1.22 1 1.87 10 6.35 10.82 7 6.15 5.28 6.15 5.28z"/><path class="prefix__cls-20" d="M364.45 400.49s6.6-4.9 7.92-5.84a40.68 40.68 0 017.16-3.39c1.32-.38 1.32.38 1.32.38s-4.71 2.26-6.41 3a39.27 39.27 0 00-7.16 4.71c-.57.77-2.83 1.14-2.83 1.14z"/><path d="M379.53 365.63s-6.37-.67-10.18 2.26-6.06 5.84-6.78 10.93 18.43-6.37 18.43-6.37z" fill="url(#prefix__radial-gradient-3)"/><path d="M438.14 311c-1.63-5.36-8.11-30.89-10.74-41.85 1-9.84 2.15-11.36 2.24-16.66.51-29.41-5-67-5-67a19.1 19.1 0 0112.3 11.69 494.16 494.16 0 0115.3 50.49c5.09 20.92 18.87 74.28 17.82 78.82-.66 4.62-6.25 9.77-13 14.71s-33.49 25.28-37.71 28.09-13.24-3.19-19.56-10.58.71-11.05.71-11.05 36.95-29.83 37.73-30.61.54-3.97-.09-6.05z" fill="url(#prefix__linear-gradient-14)"/><path d="M412.9 355.09c-3.52-3.84-8.15-6.34-9.72-5.36-3.36 2.11-6.88 4.32-7.46 4.72s-2.13 2.69 3.74 9.7 11.16 7.43 11.94 6.78a42.34 42.34 0 016.89-4.76c1.4-.77-1.37-6.69-5.39-11.08z" fill="url(#prefix__linear-gradient-15)"/><path d="M402.86 372.7c-1.68 1.18-4.79 11.77-7.24 13.87-8.85 7.59-11.94 7.14-15.71 8.83s-7 3.61-9.43 4.9a7.92 7.92 0 01-6 .19c-4.14 1.51-4.33.57-5.65-.94-3-.38-2.26-3.58-2.26-3.58a3.68 3.68 0 01-1.89-3.39c.4-4.81 2-6.23 4.21-9.34 1.87-2.65 8.24-9.54 15.1-14.8 4.89-3.74 11-6.29 15.32-8.31a40.89 40.89 0 004.46-2.45 36.9 36.9 0 014.43-2.87c1.94-.86 3.53-.4 6.25 1.37 4.16 2.71 8.55 10 6.53 11.31-1.24.76-6.44 4.02-8.12 5.21z" fill="url(#prefix__radial-gradient-4)"/><path class="prefix__cls-20" d="M356.54 396s4.75-7 7.35-9.42a67.18 67.18 0 017.91-6.22c.59-.25.8.23 0 1.13s-5.68 4.65-8.1 6.59-5.84 7.73-5.84 7.73zM358.8 399.55s5-5.11 6.78-6.78a29.2 29.2 0 015.09-4.15 53.17 53.17 0 004.71-3.2c1.32-.95 2.26-.38.76.94-.59.51-2.32 1.57-4.9 3.39a32.46 32.46 0 00-4.34 3.58c-.73.73-6.59 6.22-6.59 6.22z"/><rect x="82.67" y="254.66" width="216.13" height="164.16" rx="10.63" fill="#29292a"/><path d="M292.93 344.32a1.77 1.77 0 01-1.77-1.77v-11.62a1.77 1.77 0 013.54 0v11.62a1.77 1.77 0 01-1.77 1.77z" fill="#6f6e6e"/><path d="M417.88 114.55c-1.66 9 2.61 17.31 9.54 18.59s13.91-5 15.56-13.95-2.6-17.31-9.54-18.59-13.9 5-15.56 14" fill="url(#prefix__linear-gradient-16)"/><path d="M332.13 115c1.61 9-2.58 17.26-9.35 18.47s-13.56-5.1-15.17-14.1 2.58-17.27 9.36-18.48S330.53 106 332.13 115" fill="url(#prefix__linear-gradient-17)"/><path d="M319.32 92.46c0 20.08 5.18 40.54 15.14 51.88 12.42 14.14 36.39 20.32 40.52 20.32 9.21 0 27.77-6.46 40.51-20.3 10.09-11 14.31-31.81 14.31-51.9 0-41.76-18.88-59.2-54.82-59.2s-55.66 17.44-55.66 59.2" fill="url(#prefix__radial-gradient-5)"/><path d="M396.7 106c0 4.12 2.58 7.46 5.74 7.46s5.74-3.34 5.74-7.46-2.56-7.46-5.74-7.46-5.74 3.34-5.74 7.46" fill="url(#prefix__radial-gradient-6)"/><path d="M374.59 128.2a1.5 1.5 0 01-.74-.18l-4-2.16 3.51-10.09c.17-.64.29-1.39 1-1.25s0 1.32-.18 2l-1.2 8.26 2.31 1.25a1.1 1.1 0 01.43 1.65 1.44 1.44 0 01-1.18.55" fill="#df9c5c"/><path class="prefix__cls-1" d="M395.33 113.47h30.13v23.68h-30.13zM325.8 113.47h30.13v23.68H325.8z"/><path class="prefix__cls-1" d="M395.33 113.47h30.13v23.68h-30.13zM325.8 113.47h30.13v23.68H325.8z"/><path class="prefix__cls-35" d="M408.44 83.76c-6.82-1.16-10.94.24-14.05 6.24a15.08 15.08 0 0112.29-3.88c7.46 1.09 11.19 4.25 11.19 4.25a13.15 13.15 0 00-9.43-6.58"/><path d="M361.37 136.82c3.29 3.3 11.34 5.52 13.61 5.39s10.33-2.09 13.61-5.39" stroke="#de816a" stroke-linecap="round" stroke-linejoin="round" fill="none"/><path d="M357.6 15.44c-30.24 9.3-51 29.33-58.93 66.28s5.75 52.18 19.18 63.56c14.65 12.42 32.51 11.62 32.51 11.62-14.68-4.61-31.48-13.87-31.16-43.29.23-22.4 22.28-38.54 43.62-50.89a123.91 123.91 0 0134.4-13.23s51.71 35.33 16.78 90.38c0 0 11.46-5.7 16.11-15.2-2.4 14.85-16.41 28.53-30.56 36.53 0 0 14-1.43 27.39-12.8s31.12-29.85 24.43-67.06c-5.68-31.56-15.9-43.42-27.14-52.72s-24.87-5-24.87-5-7.21-10.87-25.13-10.87a56.63 56.63 0 00-16.67 2.73" fill="url(#prefix__radial-gradient-11)"/><path d="M401.06 99.82s7.46-3.51 11.2 7.82c0 0-.65-8.51-8.31-9.69s-8.32 6.73-8.32 6.73 2.26-4.86 5.43-4.86z" fill="url(#prefix__radial-gradient-12)"/><path d="M353.78 106c0 4.12-2.58 7.46-5.75 7.46s-5.74-3.34-5.74-7.46 2.56-7.46 5.74-7.46 5.75 3.34 5.75 7.46" fill="url(#prefix__radial-gradient-13)"/><path class="prefix__cls-35" d="M342.56 83.63c6.79-1.36 10.94-.1 14.22 5.77a15 15 0 00-12.39-3.49c-7.43 1.32-11.07 4.59-11.07 4.59a13.21 13.21 0 019.24-6.87"/><path d="M349.42 99.82s-7.47-3.51-11.21 7.82c0 0 .65-8.51 8.32-9.69s8.32 6.73 8.32 6.73-2.26-4.86-5.43-4.86z" fill="url(#prefix__radial-gradient-14)"/><path d="M436 66.48s25.42 38.36 4.67 67.88c-.02 0 11.41-26.93-4.67-67.88z" fill="url(#prefix__radial-gradient-15)"/><path d="M314.1 142a52.73 52.73 0 01-4.06-8.27c-5.78-14.41-12.84-45.55 14.96-77.97 0 0-41 37.77-16.92 79.93z" fill="url(#prefix__radial-gradient-16)"/><path d="M430.15 124.67s7.71-9.86 7.71-36.59c0 0 5.31 33.67-11.86 48.07z" fill="url(#prefix__radial-gradient-17)"/><rect x="95.22" y="267.21" width="191.02" height="139.06" rx="2.51" fill="#fff"/><path d="M95 341v66h191.4v-66zm182.7 57.24H103.76V349.7H277.7z" fill="#524f4d"/><path class="prefix__cls-46" d="M129.13 291.83h123.2M129.13 305.91h123.2M129.13 319.99h123.2"/><path d="M93.81 413.06s-.25-4.24-2.65-12.74-8.06-16.7-8.06-16.7c2-3.34 11.39-9.41 18.31-22.91 5.32-10.39-1.42-16.39-5.9-10.86S71.41 372.93 69.06 379s-2.24 17.07-1.14 29c.45 4.86 3.55 9.75 1.36 14.45s-23.6 51.35-23.6 51.35l31.32 17s22.55-50.36 24.84-52.24c4.36-3.57 16.81-7.41 20.35-11.95 1-1.25 2.89-4 5.14-7.37H107s-11.57-1.72-13.19-6.18z" fill="url(#prefix__radial-gradient-18)"/><path d="M98.53 450.35s-14.31-17.57-40.68-13.88L36.31 478 82 485z" fill="url(#prefix__linear-gradient-18)"/><path d="M96.57 462.07s-2.69-9.26-17.57-14.19a68.76 68.76 0 00-27.53-3.45l-38.14 70.94 51.08 10.34z" fill="#48080f"/><path d="M135.78 364.13a2.44 2.44 0 011.18.43 35.42 35.42 0 004.48-.6 23.23 23.23 0 003.93-1 3 3 0 01.69-.09 5.83 5.83 0 011.92.84c1.17.63 1.75 1.08 1.75 1.35a1 1 0 01-.08.28 11.77 11.77 0 00-1.07 3.79q0 2.67.32 6.15c.11 2.06.17 3.39.17 4a4.89 4.89 0 01-.89 2.61c-.65.88-1.19 1.32-1.63 1.32-.1 0-.22-.26-.35-.77a26.67 26.67 0 00-1.55-3.22c-1.42.06-2.81.17-4.19.34-1.67.22-2.71.32-3.13.32a1.82 1.82 0 010 .32 2.38 2.38 0 01-.35 1c-.24.27-.45.4-.6.4-.34 0-.61-.36-.8-1.09a3.7 3.7 0 01-.35-1.32v-.37c.23-1.46.37-2.6.43-3.45.1-1.85.15-4.17.15-6.94a10.35 10.35 0 00-.66-3.74 1.43 1.43 0 01-.06-.31c.09-.17.29-.25.69-.25zm1.58 14.58c.77 0 1.75-.16 3-.31a38.31 38.31 0 003.79-.61 3.51 3.51 0 01.71-.08 1.89 1.89 0 011.3.43 1.25 1.25 0 00.23.23 3.32 3.32 0 00.08-.49q.15-1.81.15-6.43c0-2-.06-3.68-.18-5-.09-.64-.3-1-.63-1.18a2.09 2.09 0 00-1-.17h-.63a58.21 58.21 0 00-5.86.69 3.46 3.46 0 01-.66.08 1.43 1.43 0 01-.29 0v5.86c1.55-.21 3-.47 4.28-.78a3.16 3.16 0 01.66-.11c1.53 0 2.3.31 2.3.92 0 .13-.11.22-.32.26-1.17.26-2.25.47-3.24.6s-1.4.2-1.61.2a9 9 0 01-2-.2h-.06q-.08 3.48-.02 6.09zM160.36 364.24c.15 0 .42.18.8.52s.58.52.58.75-.14.27-.4.37c-.43.15-.9.35-1.44.6-.27.16-.51.28-.72.38a.39.39 0 010 .14l.2 2.18c.71-.15 1.15-.26 1.32-.31h.18c.84 0 1.26.14 1.26.43a.7.7 0 01-.09.37c-.55.08-1.27.14-2.15.2H159.44l.2 2.33 1.32-.35a.33.33 0 01.15 0c.84 0 1.26.17 1.26.49a.55.55 0 01-.12.35l-1.89.2h-.14a2.85 2.85 0 01-.52-.06l.26 3a1.65 1.65 0 01-.06.46l3.19-.26-.09-8.3a14.61 14.61 0 00-.34-3.3 1.86 1.86 0 00-.78-1.29.84.84 0 01-.06-.18c0-.15.15-.23.43-.23a3.69 3.69 0 011.35.29 2.92 2.92 0 01.52.35l.6-.12a23.93 23.93 0 004.19-1.06 1.36 1.36 0 01.38-.06 4.56 4.56 0 011.12.38c.7.34 1.06.64 1.06.89a1.25 1.25 0 01-.2.51 3.23 3.23 0 00-.46 1.58q-.21 3-.46 9.85l3.33-.38v-.43c0-.36.08-1.25.23-2.67l-1.32.15h-.2a4.34 4.34 0 01-.78-.12c-.32 0-.48-.11-.48-.23s.08-.16.25-.2c1-.23 1.66-.37 1.87-.43a.51.51 0 01.17 0 4.73 4.73 0 01.58 0c0-.29 0-.56.08-.83.06-.58.11-1.08.15-1.52l-1.61.11a.75.75 0 01-.23 0 5.12 5.12 0 01-.78-.11c-.32 0-.48-.12-.48-.23s.08-.22.25-.26c1.27-.21 2-.36 2.33-.43h.6q.15-1.56.15-2c0-.37-.15-.55-.43-.55-.71.08-1.13.12-1.27.12a2.78 2.78 0 01-.86-.15c-.34-.09-.52-.2-.52-.31s.07-.1.2-.12c.5-.06.89-.11 1.18-.17a13.14 13.14 0 001.52-.52 1 1 0 01.41-.11 6.2 6.2 0 011.29.37c.67.35 1 .64 1 .89a1.76 1.76 0 01-.37.81 4.88 4.88 0 00-.92 2.23 33.94 33.94 0 01-1.18 6.44 1.21 1.21 0 000 .14c.8-.1 1.55-.19 2.24-.29a4 4 0 01.66-.06 5.16 5.16 0 011.89.46c.65.39 1 .78 1 1.18s-.24.43-.72.43-1.37 0-2.61-.08c-.79-.08-1.44-.12-2-.12q-6.7 0-10.85.32a68.54 68.54 0 00-7 .86 5.63 5.63 0 01-1.41.2 3.08 3.08 0 01-1.49-.46q-.72-.47-.72-.6c0-.08.08-.12.23-.12 1 0 2.82-.08 5.37-.26a1.08 1.08 0 01-.2-.51 29.14 29.14 0 01-.63-4.65 16.84 16.84 0 00-.63-3.19 3.25 3.25 0 00-.67-1.47c0-.23.11-.34.32-.34a4.93 4.93 0 011.18.17 1.79 1.79 0 01.34.2 3.66 3.66 0 00.55-.63 5.82 5.82 0 00.77-1.41c.04-.15.13-.22.23-.22zm2.3 13.78a5.52 5.52 0 011.29.41c.65.28 1 .62 1 1 0 .12-.08.22-.25.32a8.08 8.08 0 00-1.61 1.32 23.38 23.38 0 01-3.3 2.49 14.33 14.33 0 01-2.18 1 1.28 1.28 0 01-.55.17c-.15 0-.23 0-.23-.11a27 27 0 002.76-2.36 12.38 12.38 0 002.41-2.87 1.51 1.51 0 00.31-1.09c-.03-.19.1-.3.35-.3zm1.6-2.18h.15l4.56-.46c.12-3.88.19-7.7.23-11.45 0-.56-.16-.83-.49-.83a18.85 18.85 0 00-2.35.34 11.52 11.52 0 01-2 .34v.22c0 .38 0 1.15-.06 2.32a.41.41 0 01.2-.09 12 12 0 002.13-.63.75.75 0 01.29-.08q1.26 0 1.26.6a.16.16 0 01-.14.17 13.07 13.07 0 01-1.53.38 7.1 7.1 0 01-.74.11 5.31 5.31 0 01-1.12-.11 1.1 1.1 0 01-.35-.15zm.43-6.86a2.79 2.79 0 01.64.09 1.1 1.1 0 01.31.17l.35-.12a1.73 1.73 0 00.8-.4.71.71 0 01.32-.2 2.8 2.8 0 01.8.26c.46.23.69.4.69.52a.41.41 0 01-.06.23 4.72 4.72 0 00-.69 1.2 6.42 6.42 0 00-.2.78 1 1 0 01.43.2.89.89 0 01.29.49s0 .05-.06.05a6.74 6.74 0 00-1.4.15 4.28 4.28 0 01-.72.14h-.12c0 .31-.12.46-.31.46a.31.31 0 01-.26-.17.66.66 0 01-.09-.26 7.53 7.53 0 01-.31-1.75 6.14 6.14 0 00-.29-1.15 1.47 1.47 0 00-.32-.57c0-.1.07-.1.2-.1zm1.33 2.93a4.37 4.37 0 00.51-.12 3.44 3.44 0 00.38-.11c.07-1 .11-1.71.11-2.15 0-.08-.08-.12-.23-.12a1.17 1.17 0 00-.4.14 1.58 1.58 0 01-.6.23zm4.1 6.11a3.19 3.19 0 01.86.18 22.61 22.61 0 012.3 1.29 6.69 6.69 0 011.95 1.95 4 4 0 01.4 1.78 1.82 1.82 0 01-.23.86.63.63 0 01-.6.4.65.65 0 01-.43-.11 18.2 18.2 0 01-1.64-2 23.18 23.18 0 00-2.06-3.16c-.44-.48-.66-.83-.66-1.06-.01-.09-.01-.15.11-.15zM197.8 367.92a3.83 3.83 0 011.67.43c.57.27.86.62.86 1.06s-.19.6-.58.6a79.6 79.6 0 00-8.44.43l-.17 1.38v.09a37.67 37.67 0 004.28 5.31 15.27 15.27 0 003 2.53c1.1.95 3.51 2.23 7.2 3.81 0 .25-.07.39-.2.41-1.38.09-2.83.14-4.36.14a6.87 6.87 0 01-2.9-.32 79.15 79.15 0 01-7.18-10.65 18.37 18.37 0 01-.75 3.13 15.89 15.89 0 01-1.23 2.53l.34.11a5.54 5.54 0 012 1 2.07 2.07 0 01.52 1.55 1.39 1.39 0 01-.26.8.89.89 0 01-.66.38.88.88 0 01-.66-.43 14.3 14.3 0 01-1.78-2.65 11.78 11.78 0 01-2 1.93 18.48 18.48 0 01-4.65 2.15 6.11 6.11 0 01-1.35.26c-.15 0-.23 0-.23-.12a29.84 29.84 0 004-2.41 10.58 10.58 0 002.5-2.21 11.31 11.31 0 002-3.61 33 33 0 00.92-4.94c-1.25.19-2.59.45-4 .77a5.54 5.54 0 01-1 .2 3.72 3.72 0 01-1.43-.37c-.48-.21-.72-.39-.72-.55a.2.2 0 01.23-.23q4-.51 7.06-1.06c0-.65.06-1.38.06-2.18a23.67 23.67 0 00-.29-3.33 2.3 2.3 0 00-.57-1.52 1.19 1.19 0 01-.29-.63c0-.21.18-.32.54-.32a4.43 4.43 0 012 .4c.76.23 1.14.6 1.14 1.09a.83.83 0 01-.34.55 2.5 2.5 0 00-.37 1.49c0 1.32-.1 2.72-.23 4.19 1.6-.28 3.23-.63 4.88-1a6.41 6.41 0 011.44-.19zM213.77 364.13a1.83 1.83 0 01.94.37c.43.33.64.6.64.81a.94.94 0 01-.26.51 3.65 3.65 0 00-.52 2.33 14.09 14.09 0 01-.4 4.28c-.27.61-.48.91-.63.91s-.32-.22-.55-.66a16.72 16.72 0 00-2.9.32 10.92 10.92 0 01-1.72.34h-.14l-.09 4.94q2.3-1.14 4.51-2.09c-.21-.44-.37-.75-.46-.92a1.66 1.66 0 01-.4-.81.1.1 0 01.11-.11 2.44 2.44 0 01.58.11c.45.29.92.62 1.4 1a4.72 4.72 0 011.24 1.52 3.73 3.73 0 01.23 1.32 1.92 1.92 0 01-.18.78.52.52 0 01-.48.37.7.7 0 01-.49-.14 10.89 10.89 0 01-.86-1.55c-.16-.33-.29-.62-.41-.89a51.3 51.3 0 00-5.08 3.79c-.76.78-1.28 1.17-1.55 1.17s-.56-.24-.77-.71a1.91 1.91 0 01-.38-.89 1.21 1.21 0 01.21-.78c.19-.23.42-.53.68-.89a2.59 2.59 0 00.44-1.58 56.66 56.66 0 00.37-6.49 13.92 13.92 0 00-.35-4.1 2.25 2.25 0 00-.66-.92c-.17-.12-.25-.2-.25-.26 0-.23.2-.34.6-.34a2.29 2.29 0 011.72.57 1.13 1.13 0 01.26.29 12.77 12.77 0 004.36-1.27 3.51 3.51 0 011.24-.33zm-5.4 2.53l-.09 2.38a22.25 22.25 0 002.33-.75 1.17 1.17 0 01.29 0c.84 0 1.26.17 1.26.49a.44.44 0 01-.12.32 25.81 25.81 0 01-3 .66.48.48 0 01-.23 0 3.24 3.24 0 01-.55 0l-.05 2.75c.4-.05.89-.15 1.46-.28a12.2 12.2 0 002-.61 1.22 1.22 0 01.43-.08 2.63 2.63 0 01.49.05 1.67 1.67 0 010-.28 5 5 0 010-.52c.07-.36.14-.79.2-1.29.09-.81.16-1.85.2-3.13 0-.33-.08-.49-.23-.49-.28-.03-1.76.24-4.39.78zm.89-6.89a5.21 5.21 0 011.84.45 3.12 3.12 0 011.38.87 1.49 1.49 0 01.34 1c0 .77-.31 1.15-.92 1.15-.44 0-1-.45-1.66-1.35A5.46 5.46 0 01209 360a.25.25 0 01.26-.23zm15.42 4.23a7 7 0 011.52.4c.9.54 1.35.93 1.35 1.18s-.17.4-.49.52a24.49 24.49 0 00-4.08 3.93.9.9 0 00-.17.37c0 .06.06.12.17.18a8.16 8.16 0 011.75.94 8.83 8.83 0 011.58 1.44 4.57 4.57 0 01.78 1.61 6.8 6.8 0 01.23 1.84 6.66 6.66 0 01-.2 1.49 2.77 2.77 0 01-.72 1.15c-.27.3-.5.46-.69.46a.83.83 0 01-.57-.29c-1.31-1-2.5-1.92-3.59-2.64-.14-.08-.2-.14-.2-.17s0-.12.08-.12a31.52 31.52 0 003.25.32.58.58 0 00.66-.66 5.92 5.92 0 00-.86-2.7 8.43 8.43 0 00-2.13-2.27c-.13-.06-.2-.21-.2-.46a.69.69 0 01.06-.26 40.95 40.95 0 001.63-3.27 3 3 0 00.23-1c0-.18-.07-.26-.23-.26a1.63 1.63 0 00-.4.08 19 19 0 01-3 .58h-.06v.05a5.93 5.93 0 00-.26 2.16q0 9.18-.14 11.88a30.31 30.31 0 01-.4 4.57q-.4 1.8-.72 1.8c-.17 0-.29-.63-.34-1.89q-.12-.51-.12-17.4a4.58 4.58 0 00-.69-2.64c0-.15.15-.23.43-.23a3.41 3.41 0 011.24.23c.63.27 1 .53 1.06.78a13 13 0 001.52-.38 6.22 6.22 0 002.12-1.14 1.32 1.32 0 01.6-.18z"/><path d="M272.36 382s-8.05 6.56-9.79 8.62-1.9 4-.59 7.92 4.45 9.88 6.36 13.6 6.6 9.84 10.47 5.95 7.69-12.16 6.77-15.82-.9-20.16-4.17-21.6-9.05 1.33-9.05 1.33z" fill="url(#prefix__radial-gradient-19)"/><path class="prefix__cls-20" d="M278.2 411.73s-1.63-11.92-2.72-13.26 3.68-5.75 3.68-5.75l2.16-1.57.14 2.88a14.49 14.49 0 00-3.12 3.12c-1 1.54 3.47 11.18 1.15 16.47s-1.29-1.89-1.29-1.89z"/><path d="M223.66 374.64c-.56-.69-.32-1 .55-1l11.14 1.23-3.8 7.78s-7.33-7.31-7.89-8.01z" fill="#9d9c9d"/><path d="M312.25 418.2C310.79 421 309 421 309 421l-77.41-38.3a5.34 5.34 0 01.38-4.54 6.21 6.21 0 013.42-3.24l77.35 38.63a5.17 5.17 0 01-.49 4.65z" fill="#2d2d2d"/><path d="M312.25 418.2a5.17 5.17 0 00.45-4.66s-1.4.54-2.8 3.39c-1 2-1 3.23-.7 4a4.77 4.77 0 003.05-2.73z" fill="#060001"/><path class="prefix__cls-1" d="M279.72 394.43a83.29 83.29 0 00-2.65-10.49c-1.06-2.28-2.76-1.48-5.61-.15-1.72.8-8.55 1.82-14.77 1.78l23.22 11.6a12.31 12.31 0 00-.19-2.74zM261.6 416.08c-.5 2.65 9.62 7.28 11.18 6.9 1-.23 5.12-10.13 5.92-12.59a24.8 24.8 0 00.66-4L254.48 394c4.59 7.18 7.52 19.83 7.12 22.08z"/><path d="M334.35 506.78C332.8 502 321.17 460 322 456.47c.49-2.12-1-39.57-1.46-41.6s-4.85-11.17-5.42-14.73c-.72-4.51-6.82-7.21-9.82-10.66s-12.39-14-14-17.36-6.18-5.09-10.69-4.37c-3.76.6-32.87 6-35.4 6.47-1.47.29-2.32 2.37-1.84 4.7a7.85 7.85 0 003.53 4.89c2 1.28 5.76 1.74 9.8 1.76 6.22 0 13.05-1 14.77-1.78 2.85-1.33 4.55-2.13 5.61.15a83.29 83.29 0 012.65 10.49 12.31 12.31 0 01.19 2.74l32.79 16.37a5.17 5.17 0 01-.45 4.66 7.17 7.17 0 01-.51.84l-.16.21-.37.45-.17.17a3.88 3.88 0 01-.38.34l-.12.11a4.92 4.92 0 01-.46.29l-.14.07-.26.13-.16.06-.18.05h-.11a1.27 1.27 0 01-.24 0l-29.6-14.64a24.8 24.8 0 01-.66 4c-.8 2.46-4.95 12.36-5.92 12.59-1.56.38-11.68-4.25-11.18-6.9.42-2.25-2.53-14.9-7.12-22a16 16 0 00-2.58-3.21c-3.18-2.9-6.5-3.22-8.7-2.37-2 .75-3 2.43-2.3 4 1.6 3.41 4.7 28.61 7.42 31.5s15.69 21.76 19.37 25.93a31.45 31.45 0 0011.56 8.46c3.33 1.21 5.95 3.11 6.44 5.65S303.57 520 303.57 520s32.33-8.41 30.78-13.22z" fill="url(#prefix__radial-gradient-20)"/><path d="M286.5 477.91s20-13.65 45.49-7.28l14.09 43.21h-49.57z" fill="url(#prefix__linear-gradient-19)"/><path d="M284.14 487.35s23.94-15.16 54.5-8.09l28.83 87.23h-59.05z" fill="#580e10"/></g></g></svg>