<svg xmlns="http://www.w3.org/2000/svg" xmlns:xlink="http://www.w3.org/1999/xlink" viewBox="0 0 495.24 500"><defs><linearGradient id="prefix__linear-gradient" x1="355.91" y1="516.18" x2="391.45" y2="360.65" gradientUnits="userSpaceOnUse"><stop offset="0" stop-color="#071630"/><stop offset="1" stop-color="#133c62"/></linearGradient><linearGradient id="prefix__linear-gradient-2" x1="375.46" y1="197.54" x2="375.46" y2="155.91" gradientUnits="userSpaceOnUse"><stop offset="0" stop-color="#fbeedb"/><stop offset="1" stop-color="#efba95"/></linearGradient><linearGradient id="prefix__linear-gradient-3" x1="370.18" y1="202.1" x2="370.18" y2="249.4" gradientTransform="rotate(1 800.328 509.85)" gradientUnits="userSpaceOnUse"><stop offset="0" stop-color="#c4c4c3"/><stop offset=".05" stop-color="#cbcbca"/><stop offset=".25" stop-color="#e2e2e1"/><stop offset=".46" stop-color="#f2f2f2"/><stop offset=".7" stop-color="#fcfcfc"/><stop offset="1" stop-color="#fff"/></linearGradient><linearGradient id="prefix__linear-gradient-4" x1="4744.26" y1="104.07" x2="4744.26" y2="136.96" gradientTransform="matrix(-1 .02 .02 1 5116.93 -13.89)" gradientUnits="userSpaceOnUse"><stop offset="0" stop-color="#c4c4c3"/><stop offset=".09" stop-color="#d5d5d5"/><stop offset=".23" stop-color="#e8e8e7"/><stop offset=".4" stop-color="#f5f5f5"/><stop offset=".6" stop-color="#fdfdfd"/><stop offset="1" stop-color="#fff"/></linearGradient><linearGradient id="prefix__linear-gradient-5" x1="362.25" y1="298.81" x2="441.63" y2="298.81" gradientTransform="rotate(1 800.328 509.85)" xlink:href="#prefix__linear-gradient"/><linearGradient id="prefix__linear-gradient-6" x1="424.84" y1="397.73" x2="413.25" y2="350.8" gradientTransform="rotate(1 800.328 509.85)" xlink:href="#prefix__linear-gradient"/><linearGradient id="prefix__linear-gradient-7" x1="408.25" y1="255.87" x2="405.9" y2="246.4" gradientTransform="rotate(1 800.328 509.85)" xlink:href="#prefix__linear-gradient"/><linearGradient id="prefix__linear-gradient-8" x1="411.59" y1="247.69" x2="322.54" y2="209.8" gradientTransform="rotate(1 800.328 509.85)" xlink:href="#prefix__linear-gradient"/><linearGradient id="prefix__linear-gradient-9" x1="4706.12" y1="222.8" x2="4784.2" y2="222.8" gradientTransform="matrix(-1 .02 .02 1 5086.26 -13.89)" xlink:href="#prefix__linear-gradient"/><linearGradient id="prefix__linear-gradient-10" x1="4769.03" y1="321.69" x2="4757.44" y2="274.76" gradientTransform="matrix(-1 .02 .02 1 5086.26 -13.89)" xlink:href="#prefix__linear-gradient"/><linearGradient id="prefix__linear-gradient-11" x1="4753.53" y1="175.33" x2="4666.11" y2="138.15" gradientTransform="matrix(-1 .02 .02 1 5086.26 -13.89)" xlink:href="#prefix__linear-gradient"/><linearGradient id="prefix__linear-gradient-12" x1="201.81" y1="689.27" x2="174.84" y2="533.27" gradientTransform="matrix(.99 .1 -.1 .99 192.47 -330.4)" xlink:href="#prefix__linear-gradient"/><linearGradient id="prefix__linear-gradient-13" x1="327.47" y1="1311.67" x2="312.75" y2="1306.15" gradientTransform="matrix(.95 .31 -.27 .82 393.63 -812)" xlink:href="#prefix__linear-gradient-3"/><linearGradient id="prefix__linear-gradient-14" x1="6622.29" y1="13.97" x2="6595.32" y2="-142.02" gradientTransform="matrix(-.99 .1 .1 .99 7015.58 -330.4)" xlink:href="#prefix__linear-gradient"/><linearGradient id="prefix__linear-gradient-15" x1="6462.86" y1="-1016.5" x2="6448.14" y2="-1022.02" gradientTransform="matrix(-.95 .31 .27 .82 6814.41 -812)" xlink:href="#prefix__linear-gradient-3"/><linearGradient id="prefix__linear-gradient-16" x1="496.62" y1="251.16" x2="496.62" y2="221.4" gradientTransform="matrix(.86 .16 -.18 .98 44.49 -194.76)" gradientUnits="userSpaceOnUse"><stop offset="0" stop-color="#e9b373"/><stop offset=".57" stop-color="#f5d0b5"/><stop offset="1" stop-color="#f6e2d0"/></linearGradient><linearGradient id="prefix__linear-gradient-17" x1="202.39" y1="-21.34" x2="202.39" y2="-51.1" gradientTransform="rotate(-10.11 1128.195 -623.521)" xlink:href="#prefix__linear-gradient-16"/><linearGradient id="prefix__linear-gradient-18" x1="-225.18" y1="61.73" x2="-166.2" y2="61.73" gradientTransform="rotate(6 -3861.401 2775.35)" xlink:href="#prefix__linear-gradient-3"/><linearGradient id="prefix__linear-gradient-19" x1="209.11" y1="483.39" x2="268.7" y2="483.39" xlink:href="#prefix__linear-gradient-3"/><radialGradient id="prefix__radial-gradient" cx="382.42" cy="94.63" r="45.06" gradientUnits="userSpaceOnUse"><stop offset="0" stop-color="#432610"/><stop offset=".36" stop-color="#311305"/><stop offset="1" stop-color="#241004"/></radialGradient><radialGradient id="prefix__radial-gradient-2" cx="929.75" cy="-1053" r="25.6" gradientTransform="matrix(.67 .71 .73 -.69 515.2 -1004.39)" xlink:href="#prefix__linear-gradient-2"/><radialGradient id="prefix__radial-gradient-3" cx="-227.69" cy="965.49" r="8.59" gradientTransform="matrix(.88 .12 -.16 1.13 726.13 -686.29)" xlink:href="#prefix__linear-gradient-2"/><radialGradient id="prefix__radial-gradient-4" cx="5457.89" cy="3648.89" r="25.26" gradientTransform="matrix(-.67 .71 -.73 -.69 6692.84 -1004.39)" xlink:href="#prefix__linear-gradient-2"/><radialGradient id="prefix__radial-gradient-5" cx="374.56" cy="98.96" r="60.69" gradientUnits="userSpaceOnUse"><stop offset="0" stop-color="#f6e2d0"/><stop offset="1" stop-color="#f5d0b5"/></radialGradient><radialGradient id="prefix__radial-gradient-6" cx="520.49" cy="-32.84" r="10.48" gradientTransform="matrix(1.21 0 0 1.22 -232.44 142.02)" gradientUnits="userSpaceOnUse"><stop offset="0" stop-color="#6e4c37"/><stop offset="1" stop-color="#040000"/></radialGradient><radialGradient id="prefix__radial-gradient-7" cx="447.73" cy="125.3" r="13.26" gradientTransform="matrix(1.04 0 0 1 -53.55 0)" gradientUnits="userSpaceOnUse"><stop offset="0" stop-color="#fbe5d4"/><stop offset="1" stop-color="#fff"/></radialGradient><radialGradient id="prefix__radial-gradient-8" cx="380.64" cy="125.3" r="13.26" xlink:href="#prefix__radial-gradient-7"/><radialGradient id="prefix__radial-gradient-11" cx="367.82" cy="36.64" r="100.22" gradientUnits="userSpaceOnUse"><stop offset="0" stop-color="#4e3217"/><stop offset=".36" stop-color="#3f210f"/><stop offset="1" stop-color="#241004"/></radialGradient><radialGradient id="prefix__radial-gradient-12" cx="348.41" cy="-11.58" r="13.97" gradientTransform="matrix(.93 0 0 1.18 72.23 113.63)" xlink:href="#prefix__radial-gradient-6"/><radialGradient id="prefix__radial-gradient-13" cx="1684.73" cy="-32.84" r="10.48" gradientTransform="matrix(-1.21 0 0 1.22 2394.85 142.02)" xlink:href="#prefix__radial-gradient-6"/><radialGradient id="prefix__radial-gradient-14" cx="1862.55" cy="-11.58" r="13.97" gradientTransform="matrix(-.93 0 0 1.18 2093.05 113.63)" xlink:href="#prefix__radial-gradient-6"/><radialGradient id="prefix__radial-gradient-15" cx="448.94" cy="62.82" r="47.94" xlink:href="#prefix__radial-gradient"/><radialGradient id="prefix__radial-gradient-16" cx="332.48" cy="59.05" r="50.96" xlink:href="#prefix__radial-gradient"/><radialGradient id="prefix__radial-gradient-17" cx="442.91" cy="92.21" r="32.53" xlink:href="#prefix__radial-gradient"/><radialGradient id="prefix__radial-gradient-18" cx="822.23" cy="-571.04" r="61.02" gradientTransform="rotate(-20 3282.414 2020.485)" xlink:href="#prefix__linear-gradient-2"/><radialGradient id="prefix__radial-gradient-19" cx="-251.33" cy="1300.4" r="46.71" gradientTransform="rotate(20 2358.198 2017.789)" xlink:href="#prefix__linear-gradient-2"/><radialGradient id="prefix__radial-gradient-20" cx="219.43" cy="389.67" r="78.07" xlink:href="#prefix__linear-gradient-2"/><clipPath id="prefix__clip-path"><path id="prefix__SVGID" class="prefix__cls-1" d="M0-541.7h495.24v516.75H0z"/></clipPath><style>.prefix__cls-1,.prefix__cls-50,.prefix__cls-51{fill:none}.prefix__cls-15{fill:#eac233}.prefix__cls-19{fill:#edac86}.prefix__cls-25{fill:#6f6e6e}.prefix__cls-34{fill:#46160b}.prefix__cls-48{fill:#580e10}.prefix__cls-50,.prefix__cls-51{stroke:#9b9796;stroke-width:.69px;stroke-miterlimit:10}.prefix__cls-51{stroke:#767676;stroke-width:.34px}.prefix__cls-52{fill:#060001}</style></defs><g style="isolation:isolate"><g id="prefix__レイヤー_1" data-name="レイヤー 1"><path d="M314.56 122.15c0 9.23 30 41.57 38.5 46.86a44.28 44.28 0 0145.06 0c8.5-5.29 37.92-32.81 37.92-42 0-16-40.29-62.58-60.45-62.58s-58.8 7.4-61.93 58.68" fill="url(#prefix__radial-gradient)"/><path d="M436 385.74l-49.91-38.8v-15.43l-9.93 7.72-9.92-7.72v15.43l-49.91 38.8s-3.73 1.31-3.17 29.83c.56 28.83 10.17 87.81 10.17 87.81H429s9.61-59 10.17-87.81c.59-28.52-3.17-29.83-3.17-29.83z" fill="url(#prefix__linear-gradient)"/><path d="M406.3 182.61s-9.14.1-15.44-10-.41-36.87-.41-36.87a54.69 54.69 0 00-15 3.5 54.66 54.66 0 00-15-3.5s5.9 26.79-.41 36.87-15.45 10-15.45 10a113.94 113.94 0 0114.59 4.44 32.4 32.4 0 007 1.51c2.08.72 4.61 26.66 8 26.61h.94c0 26.07.63 0 .94 0 3.35.05 6.5-25.89 8.58-26.61a32.49 32.49 0 007.05-1.51 113.6 113.6 0 0114.61-4.44z" fill="url(#prefix__linear-gradient-2)"/><path fill="url(#prefix__linear-gradient-3)" d="M339.01 184.91l36.75 8.78 34.49-9.35 1.5 43.13-32.33 70.68-39.84-66.32-.57-46.92z"/><path d="M375.57 194.6l-13.27 17.16-19.76-30.68s12.88-7.58 14.58-7 16.17 19.62 18.43 19.33c2.26.29 16.73-18.8 18.43-19.33s14.58 7 14.58 7l-19.76 30.68z" fill="url(#prefix__linear-gradient-4)"/><path d="M406.57 178.57l18.43 6.91s5.84 37.6 5.33 67c-.25 14.13-6.66 28.34-5.87 58.89.31 12 7.86 57.23 15.94 78.49 2.57 6.76 5.27 16.08.18 16-1.82 0-8.74-1.75-16.58-2.31-14-1-23-1.38-33.57-1.38s-25-78.25-24.89-83.34c.1-9.04 41.03-140.26 41.03-140.26z" fill="url(#prefix__linear-gradient-5)"/><path d="M403 341.94c0 2.82 6.75 34.32 7.83 37.45s2.47 4 4.73 4 16.37 1.7 18.62 2.31c1.39.37 3.55.76 5 1a304.22 304.22 0 01-12.77-47.52c-3.55-.16-20.13-.9-21.64-.93-1.68.01-1.69.86-1.77 3.69z" fill="url(#prefix__linear-gradient-6)"/><path fill="url(#prefix__linear-gradient-7)" d="M400.22 240.21l24.04-.71.46 6.51-26.31.67 1.81-6.47z"/><path d="M408.36 227.63c1.19-3.37 1.2-3.94.08-4.8s-5-4.05-7.53-6.07-1.34-4-.21-4 7.09-1.29 8.79-1.55 3.41-1.07 3.17-3.62c-.2-2.15-.51-21.12-.6-26.89l-5.49-2.17s-19 60.88-31.14 102.56l.62-.35c17.95-10.1 31.12-49.74 32.31-53.11z" fill="url(#prefix__linear-gradient-8)"/><path d="M363.33 244.65c-7.73-21.3-19.27-66.08-19.27-66.08l-16.77 6.91s-6.49 39.2-6 68.61c.25 14.14 5.7 26.74 4.92 57.29-.31 12-7.87 57.23-16 78.49-2.57 6.76-2.06 16.08 3 16 1.82 0 5.53-1.75 13.37-2.31 14-1 25.92-1.38 33.58-1.38S385 340.28 385 326.24s.89-23-.75-36-13.2-24.3-20.92-45.59z" fill="url(#prefix__linear-gradient-9)"/><path d="M347.61 341.94c.05 2.82-6.75 34.32-7.83 37.45s-2.47 4-4.74 4-16.36 1.7-18.61 2.31c-1.4.37-3.55.76-5 1a305.33 305.33 0 0012.77-47.52c3.54-.16 20.12-.9 21.64-.93 1.7.01 1.72.86 1.77 3.69z" fill="url(#prefix__linear-gradient-10)"/><path d="M342.28 227.63c-1.19-3.37-1.2-3.94-.08-4.8s5-4.05 7.52-6.07 1.35-4 .22-4-7.09-1.29-8.79-1.55-3.42-1.07-3.18-3.62c.2-2.15.52-21.12.61-26.89l5.48-2.17s17.94 57.83 23.22 71.77 13.33 28.83 15.64 36.75a111.51 111.51 0 01-9.79-6.41c-15.37-11.7-29.66-49.64-30.85-53.01z" fill="url(#prefix__linear-gradient-11)"/><path class="prefix__cls-15" d="M381.41 293.79a5.28 5.28 0 11-5.18-5.36 5.27 5.27 0 015.18 5.36zM381.41 324.33a5.28 5.28 0 11-5.18-5.37 5.27 5.27 0 015.18 5.37z"/><path d="M314.1 311c1.63-5.36 7.21-28.06 9.84-39-1-9.84-2-15.78-2-21.08.22-30 5.65-65.41 5.65-65.41a19.1 19.1 0 00-12.3 11.69A494.16 494.16 0 00300 247.66c-5.09 20.92-18.87 74.28-17.82 78.82.65 4.62 6.25 9.77 13 14.71s33.5 25.28 37.72 28.09 13.24-3.19 19.56-10.58-.71-11.05-.71-11.05S314.8 317.82 314 317s-.53-3.92.1-6z" fill="url(#prefix__linear-gradient-12)"/><path d="M339.34 355.09c3.52-3.84 8.15-6.34 9.72-5.36 3.36 2.11 6.87 4.32 7.45 4.72s2.13 2.69-3.73 9.7-11.16 7.43-11.94 6.78a42.79 42.79 0 00-6.89-4.76c-1.4-.77 1.37-6.69 5.39-11.08z" fill="url(#prefix__linear-gradient-13)"/><path d="M349.38 372.7c1.67 1.18 4.79 11.77 7.23 13.87 8.85 7.59 14.47 5 20.08 7.73s6 4.9 9.62 5.63a7.45 7.45 0 005.95-1.08c.28.06 2.35.56 3.1-.05 1-.81 2.07-1.7 2.07-2.45 1.51-.76 1.54-2.4 0-5.28-.37-.69-.92-1.8-.92-1.8s-.45-5.39-2.28-8-9.1-7.57-16-12.83c-4.88-3.74-11-6.29-15.31-8.31a40.89 40.89 0 01-4.46-2.45 36 36 0 00-4.44-2.87c-1.94-.86-3.52-.4-6.24 1.37-4.17 2.71-8.55 10-6.53 11.31 1.25.76 6.44 4.02 8.13 5.21z" fill="url(#prefix__radial-gradient-2)"/><path class="prefix__cls-19" d="M397.43 396.35s-6.21-6.1-8.81-8.52a103.9 103.9 0 00-9.78-7.68c-.59-.25-1.47.4-.66 1.3s9.15 6.6 11.13 9a88.84 88.84 0 006.8 5.72zM392.26 398.85s-4.84-4.17-6.62-5.85a30.65 30.65 0 00-5.77-4.15c-1.31-.67-5.35-3.94-6.44-4s-.18 1.22 1 1.87 10 6.35 10.82 7 6.15 5.28 6.15 5.28z"/><path class="prefix__cls-19" d="M364.45 400.49s6.6-4.9 7.92-5.84a40.68 40.68 0 017.16-3.39c1.32-.38 1.32.38 1.32.38s-4.71 2.26-6.41 3a39.27 39.27 0 00-7.16 4.71c-.57.77-2.83 1.14-2.83 1.14z"/><path d="M379.53 365.63s-6.37-.67-10.18 2.26-6.06 5.84-6.78 10.93 18.43-6.37 18.43-6.37z" fill="url(#prefix__radial-gradient-3)"/><path d="M438.14 311c-1.63-5.36-8.11-30.89-10.74-41.85 1-9.84 2.15-11.36 2.24-16.66.51-29.41-5-67-5-67a19.1 19.1 0 0112.3 11.69 494.16 494.16 0 0115.3 50.49c5.09 20.92 18.87 74.28 17.82 78.82-.66 4.62-6.25 9.77-13 14.71s-33.49 25.28-37.71 28.09-13.24-3.19-19.56-10.58.71-11.05.71-11.05 36.95-29.83 37.73-30.61.54-3.97-.09-6.05z" fill="url(#prefix__linear-gradient-14)"/><path d="M412.9 355.09c-3.52-3.84-8.15-6.34-9.72-5.36-3.36 2.11-6.88 4.32-7.46 4.72s-2.13 2.69 3.74 9.7 11.16 7.43 11.94 6.78a42.34 42.34 0 016.89-4.76c1.4-.77-1.37-6.69-5.39-11.08z" fill="url(#prefix__linear-gradient-15)"/><path d="M402.86 372.7c-1.68 1.18-4.79 11.77-7.24 13.87-8.85 7.59-11.94 7.14-15.71 8.83s-7 3.61-9.43 4.9a7.92 7.92 0 01-6 .19c-4.14 1.51-4.33.57-5.65-.94-3-.38-2.26-3.58-2.26-3.58a3.68 3.68 0 01-1.89-3.39c.4-4.81 2-6.23 4.21-9.34 1.87-2.65 8.24-9.54 15.1-14.8 4.89-3.74 11-6.29 15.32-8.31a40.89 40.89 0 004.46-2.45 36.9 36.9 0 014.43-2.87c1.94-.86 3.53-.4 6.25 1.37 4.16 2.71 8.55 10 6.53 11.31-1.24.76-6.44 4.02-8.12 5.21z" fill="url(#prefix__radial-gradient-4)"/><path class="prefix__cls-19" d="M356.54 396s4.75-7 7.35-9.42a67.18 67.18 0 017.91-6.22c.59-.25.8.23 0 1.13s-5.68 4.65-8.1 6.59-5.84 7.73-5.84 7.73zM358.8 399.55s5-5.11 6.78-6.78a29.2 29.2 0 015.09-4.15 53.17 53.17 0 004.71-3.2c1.32-.95 2.26-.38.76.94-.59.51-2.32 1.57-4.9 3.39a32.46 32.46 0 00-4.34 3.58c-.73.73-6.59 6.22-6.59 6.22z"/><rect x="82.67" y="254.66" width="216.13" height="164.16" rx="10.63" fill="#29292a"/><path class="prefix__cls-25" d="M292.93 344.32a1.77 1.77 0 01-1.77-1.77v-11.62a1.77 1.77 0 013.54 0v11.62a1.77 1.77 0 01-1.77 1.77z"/><path d="M417.88 114.55c-1.66 9 2.61 17.31 9.54 18.59s13.91-5 15.56-13.95-2.6-17.31-9.54-18.59-13.9 5-15.56 14" fill="url(#prefix__linear-gradient-16)"/><path d="M332.13 115c1.61 9-2.58 17.26-9.35 18.47s-13.56-5.1-15.17-14.1 2.58-17.27 9.36-18.48S330.53 106 332.13 115" fill="url(#prefix__linear-gradient-17)"/><path d="M319.32 92.46c0 20.08 5.18 40.54 15.14 51.88 12.42 14.14 36.39 20.32 40.52 20.32 9.21 0 27.77-6.46 40.51-20.3 10.09-11 14.31-31.81 14.31-51.9 0-41.76-18.88-59.2-54.82-59.2s-55.66 17.44-55.66 59.2" fill="url(#prefix__radial-gradient-5)"/><path d="M396.7 106c0 4.12 2.58 7.46 5.74 7.46s5.74-3.34 5.74-7.46-2.56-7.46-5.74-7.46-5.74 3.34-5.74 7.46" fill="url(#prefix__radial-gradient-6)"/><path d="M374.59 128.2a1.5 1.5 0 01-.74-.18l-4-2.16 3.51-10.09c.17-.64.29-1.39 1-1.25s0 1.32-.18 2l-1.2 8.26 2.31 1.25a1.1 1.1 0 01.43 1.65 1.44 1.44 0 01-1.18.55" fill="#df9c5c"/><path class="prefix__cls-1" d="M395.33 113.47h30.13v23.68h-30.13zM325.8 113.47h30.13v23.68H325.8z"/><path class="prefix__cls-1" d="M395.33 113.47h30.13v23.68h-30.13zM325.8 113.47h30.13v23.68H325.8z"/><path class="prefix__cls-34" d="M408.44 83.76c-6.82-1.16-10.94.24-14.05 6.24a15.08 15.08 0 0112.29-3.88c7.46 1.09 11.19 4.25 11.19 4.25a13.15 13.15 0 00-9.43-6.58"/><path d="M361.37 136.82c3.29 3.3 11.34 5.52 13.61 5.39s10.33-2.09 13.61-5.39" stroke="#de816a" stroke-linecap="round" stroke-linejoin="round" fill="none"/><path d="M357.6 15.44c-30.24 9.3-51 29.33-58.93 66.28s5.75 52.18 19.18 63.56c14.65 12.42 32.51 11.62 32.51 11.62-14.68-4.61-31.48-13.87-31.16-43.29.23-22.4 22.28-38.54 43.62-50.89a123.91 123.91 0 0134.4-13.23s51.71 35.33 16.78 90.38c0 0 11.46-5.7 16.11-15.2-2.4 14.85-16.41 28.53-30.56 36.53 0 0 14-1.43 27.39-12.8s31.12-29.85 24.43-67.06c-5.68-31.56-15.9-43.42-27.14-52.72s-24.87-5-24.87-5-7.21-10.87-25.13-10.87a56.63 56.63 0 00-16.67 2.73" fill="url(#prefix__radial-gradient-11)"/><path d="M401.06 99.82s7.46-3.51 11.2 7.82c0 0-.65-8.51-8.31-9.69s-8.32 6.73-8.32 6.73 2.26-4.86 5.43-4.86z" fill="url(#prefix__radial-gradient-12)"/><path d="M353.78 106c0 4.12-2.58 7.46-5.75 7.46s-5.74-3.34-5.74-7.46 2.56-7.46 5.74-7.46 5.75 3.34 5.75 7.46" fill="url(#prefix__radial-gradient-13)"/><path class="prefix__cls-34" d="M342.56 83.63c6.79-1.36 10.94-.1 14.22 5.77a15 15 0 00-12.39-3.49c-7.43 1.32-11.07 4.59-11.07 4.59a13.21 13.21 0 019.24-6.87"/><path d="M349.42 99.82s-7.47-3.51-11.21 7.82c0 0 .65-8.51 8.32-9.69s8.32 6.73 8.32 6.73-2.26-4.86-5.43-4.86z" fill="url(#prefix__radial-gradient-14)"/><path d="M436 66.48s25.42 38.36 4.67 67.88c-.02 0 11.41-26.93-4.67-67.88z" fill="url(#prefix__radial-gradient-15)"/><path d="M314.1 142a52.73 52.73 0 01-4.06-8.27c-5.78-14.41-12.84-45.55 14.96-77.97 0 0-41 37.77-16.92 79.93z" fill="url(#prefix__radial-gradient-16)"/><path d="M430.15 124.67s7.71-9.86 7.71-36.59c0 0 5.31 33.67-11.86 48.07z" fill="url(#prefix__radial-gradient-17)"/><path d="M97.73 406.27a2.52 2.52 0 01-2.51-2.51v-134a2.52 2.52 0 012.51-2.52h186a2.52 2.52 0 012.51 2.52v134a2.52 2.52 0 01-2.51 2.51z" fill="#fff"/><path d="M93.81 413.06s-.25-4.24-2.65-12.74-8.06-16.7-8.06-16.7c2-3.34 11.39-9.41 18.31-22.91 5.32-10.39-1.42-16.39-5.9-10.86S71.41 372.93 69.06 379s-2.24 17.07-1.14 29c.45 4.86 3.55 9.75 1.36 14.45s-23.6 51.35-23.6 51.35l31.32 17s22.55-50.36 24.84-52.24c4.36-3.57 16.81-7.41 20.35-11.95 1-1.25 2.89-4 5.14-7.37H107s-11.57-1.72-13.19-6.18z" fill="url(#prefix__radial-gradient-18)"/><path d="M98.53 450.35s-14.31-17.57-40.68-13.88L36.31 478 82 485z" fill="url(#prefix__linear-gradient-18)"/><path d="M96.57 462.07s-2.69-9.26-17.57-14.19a68.76 68.76 0 00-27.53-3.45l-38.14 70.94 51.08 10.34z" fill="#48080f"/><g clip-path="url(#prefix__clip-path)"><path class="prefix__cls-48" d="M284.14-54.35s23.94-15.16 54.5-8.09l28.83 87.23h-59.05z"/></g><path class="prefix__cls-25" d="M292.93 344.81a1.77 1.77 0 01-1.77-1.77v-11.62a1.77 1.77 0 013.54 0V343a1.77 1.77 0 01-1.77 1.77z"/><path stroke="#1d462b" stroke-width=".64" fill="none" d="M161.08 325.34h47.52v13.76h-47.52z"/><path class="prefix__cls-50" d="M151.64 363.85a6.38 6.38 0 11-6.38-6.38 6.38 6.38 0 016.38 6.38zM200 363.85a6.38 6.38 0 11-6.38-6.38 6.38 6.38 0 016.38 6.38z"/><path class="prefix__cls-51" d="M131.63 299.62h114.4M131.63 312.64h34.25M155.61 367.51h22.94M205.42 367.51h22.95"/><path class="prefix__cls-52" d="M298.28 414.25c1.7-3.22.51-5.44.51-5.44s-1.63.62-3.26 3.95c-1.18 2.39-1.23 3.78-.81 4.71.63-.14 2.28-.71 3.56-3.22z"/><path d="M142.21 363.85a3.06 3.06 0 113.06 3 3.06 3.06 0 01-3.06-3z" fill="#aace36"/><path d="M195 374s-8.05 6.56-9.79 8.62-1.89 4-.59 7.92 4.45 9.88 6.36 13.6 6.6 9.84 10.47 5.95 7.7-12.16 6.77-15.82-.89-20.16-4.17-21.6S195 374 195 374z" fill="url(#prefix__radial-gradient-19)"/><path class="prefix__cls-19" d="M200.81 403.73s-1.62-11.92-2.72-13.26 3.68-5.75 3.68-5.75l2.16-1.57.14 2.88a14.49 14.49 0 00-3.12 3.12c-1 1.54 3.48 11.18 1.16 16.47s-1.3-1.89-1.3-1.89z"/><path d="M146.27 366.64c-.56-.69-.31-1 .55-1l11.18 1.27-3.79 7.78s-7.37-7.35-7.94-8.05z" fill="#9d9c9d"/><path d="M234.86 410.2c-1.45 2.75-3.29 2.79-3.29 2.79l-77.4-38.3a5.29 5.29 0 01.38-4.54 6.18 6.18 0 013.41-3.24l77.35 38.63a5.17 5.17 0 01-.45 4.66z" fill="#2d2d2d"/><path class="prefix__cls-52" d="M234.86 410.2a5.17 5.17 0 00.45-4.66s-1.4.54-2.8 3.39c-1 2-1 3.23-.7 4a4.77 4.77 0 003.05-2.73z"/><path class="prefix__cls-1" d="M202.33 386.43a85.7 85.7 0 00-2.64-10.49c-1.07-2.28-2.77-1.48-5.61-.15-1.73.8-8.55 1.82-14.78 1.78l23.22 11.6a11.71 11.71 0 00-.19-2.74zM184.21 408.08c-.49 2.65 9.63 7.28 11.18 6.9 1-.23 5.12-10.13 5.92-12.59a23.73 23.73 0 00.66-4L177.09 386c4.59 7.18 7.54 19.83 7.12 22.08z"/><path d="M257 498.78c-1.56-4.82-13.18-46.82-12.39-50.31.49-2.12-1-39.57-1.45-41.6s-4.86-11.17-5.42-14.73c-.73-4.51-6.83-7.21-9.82-10.66s-12.39-14-14-17.36-6.17-5.09-10.69-4.37c-3.76.6-32.87 6-35.4 6.47-1.47.29-2.32 2.37-1.83 4.7a7.77 7.77 0 003.53 4.89c2 1.28 5.75 1.74 9.79 1.76 6.23 0 13-1 14.78-1.78 2.84-1.33 4.54-2.13 5.61.15a85.7 85.7 0 012.64 10.49 11.71 11.71 0 01.19 2.74l32.79 16.37a5.17 5.17 0 01-.45 4.66 6 6 0 01-.51.84l-.16.21c-.12.16-.25.31-.37.45l-.17.17a3.81 3.81 0 01-.37.34 1.5 1.5 0 00-.13.11c-.16.11-.31.21-.45.29l-.15.07-.26.13-.16.06-.18.05h-.11a1.27 1.27 0 01-.24 0L202 398.35a23.73 23.73 0 01-.66 4c-.8 2.46-4.95 12.36-5.92 12.59-1.55.38-11.67-4.25-11.18-6.9.42-2.25-2.53-14.9-7.12-22a16 16 0 00-2.58-3.21c-3.18-2.9-6.5-3.22-8.7-2.37-2 .75-3.05 2.43-2.29 4 1.59 3.41 4.69 28.61 7.42 31.5s15.69 21.76 19.37 25.93a31.42 31.42 0 0011.55 8.46c3.33 1.21 5.95 3.11 6.45 5.65s17.83 56.07 17.83 56.07 32.35-8.48 30.83-13.29z" fill="url(#prefix__radial-gradient-20)"/><path d="M209.11 469.91s20-13.65 45.49-7.28l14.1 43.21h-49.58z" fill="url(#prefix__linear-gradient-19)"/><path class="prefix__cls-48" d="M206.76 479.35s23.93-15.16 54.49-8.09l28.83 87.23H231z"/></g></g></svg>