<svg xmlns="http://www.w3.org/2000/svg" xmlns:xlink="http://www.w3.org/1999/xlink" viewBox="0 0 523.26 500"><defs><radialGradient id="prefix__radial-gradient" cx="285.72" cy="100.22" r="70.04" gradientTransform="matrix(.94 .08 -.08 .94 109.91 17.43)" gradientUnits="userSpaceOnUse"><stop offset="0" stop-color="#432610"/><stop offset=".36" stop-color="#311305"/><stop offset="1" stop-color="#241004"/></radialGradient><radialGradient id="prefix__radial-gradient-2" cx="273.5" cy="107.45" r="94.6" gradientTransform="matrix(.94 .08 -.08 .94 109.91 17.43)" gradientUnits="userSpaceOnUse"><stop offset="0" stop-color="#f6e2d0"/><stop offset="1" stop-color="#f5d0b5"/></radialGradient><radialGradient id="prefix__radial-gradient-3" cx="238.52" cy="84.75" r="16.29" gradientTransform="matrix(1.14 .12 -.13 1.15 119.56 32.37)" gradientUnits="userSpaceOnUse"><stop offset="0" stop-color="#6e4c37"/><stop offset="1" stop-color="#040000"/></radialGradient><radialGradient id="prefix__radial-gradient-4" cx="318.59" cy="162.13" r="20.61" gradientTransform="matrix(.98 .09 -.08 .94 94.42 15.6)" gradientUnits="userSpaceOnUse"><stop offset="0" stop-color="#fbe5d4"/><stop offset="1" stop-color="#fff"/></radialGradient><radialGradient id="prefix__radial-gradient-5" cx="229.32" cy="148.41" r="20.6" xlink:href="#prefix__radial-gradient-4"/><radialGradient id="prefix__radial-gradient-6" cx="316.31" cy="155.28" r="20.61" xlink:href="#prefix__radial-gradient-4"/><radialGradient id="prefix__radial-gradient-7" cx="246.73" cy="97.06" r="20.61" gradientTransform="matrix(.67 .06 -.08 .9 143.96 74.84)" xlink:href="#prefix__radial-gradient-4"/><radialGradient id="prefix__radial-gradient-8" cx="265.15" cy="6.37" r="158.65" gradientTransform="matrix(.94 .08 -.08 .94 109.91 17.43)" gradientUnits="userSpaceOnUse"><stop offset="0" stop-color="#4e3217"/><stop offset=".36" stop-color="#3f210f"/><stop offset="1" stop-color="#241004"/></radialGradient><radialGradient id="prefix__radial-gradient-9" cx="284.07" cy="89.36" r="21.71" gradientTransform="matrix(.88 .1 -.12 1.11 141.58 30.48)" xlink:href="#prefix__radial-gradient-3"/><radialGradient id="prefix__radial-gradient-10" cx="-68.95" cy="81.58" r="16.29" gradientTransform="matrix(-1.14 -.1 -.1 1.15 247.24 47.65)" xlink:href="#prefix__radial-gradient-3"/><radialGradient id="prefix__radial-gradient-11" cx="-110.77" cy="85.24" r="21.71" gradientTransform="matrix(-.88 -.08 -.1 1.11 229.39 42.72)" xlink:href="#prefix__radial-gradient-3"/><radialGradient id="prefix__radial-gradient-12" cx="389.11" cy="50.78" r="74.51" xlink:href="#prefix__radial-gradient"/><radialGradient id="prefix__radial-gradient-13" cx="379.74" cy="96.47" r="50.56" xlink:href="#prefix__radial-gradient"/><radialGradient id="prefix__radial-gradient-14" cx="1307.16" cy="177.92" r="61.62" gradientTransform="rotate(-29.95 1121.889 2478.037) scale(.95)" xlink:href="#prefix__linear-gradient-3"/><radialGradient id="prefix__radial-gradient-15" cx="-482.08" cy="969.85" r="48.02" gradientTransform="rotate(20 1172.568 2414.494) scale(.95)" xlink:href="#prefix__linear-gradient-3"/><radialGradient id="prefix__radial-gradient-16" cx="241.69" cy="378.42" r="80.27" gradientTransform="matrix(.95 0 0 .95 -2.91 28.69)" xlink:href="#prefix__linear-gradient-3"/><radialGradient id="prefix__radial-gradient-17" cx="290.6" cy="319.27" r="61.99" gradientTransform="matrix(.95 0 0 .95 -2.91 28.69)" xlink:href="#prefix__linear-gradient-3"/><linearGradient id="prefix__linear-gradient" x1="287.62" y1="384.8" x2="206.67" y2="384.23" gradientUnits="userSpaceOnUse"><stop offset="0" stop-color="#071630"/><stop offset="1" stop-color="#133c62"/></linearGradient><linearGradient id="prefix__linear-gradient-2" x1="370.95" y1="258.14" x2="361.82" y2="371.93" gradientUnits="userSpaceOnUse"><stop offset="0" stop-color="#c4c4c3"/><stop offset=".05" stop-color="#cbcbca"/><stop offset=".25" stop-color="#e2e2e1"/><stop offset=".46" stop-color="#f2f2f2"/><stop offset=".7" stop-color="#fcfcfc"/><stop offset="1" stop-color="#fff"/></linearGradient><linearGradient id="prefix__linear-gradient-3" x1="357.1" y1="279.65" x2="357.1" y2="252.87" gradientUnits="userSpaceOnUse"><stop offset="0" stop-color="#fbeedb"/><stop offset="1" stop-color="#efba95"/></linearGradient><linearGradient id="prefix__linear-gradient-4" x1="2783.47" y1="209.88" x2="2783.47" y2="285.06" gradientTransform="matrix(-1 -.02 -.02 1 3146.74 58.29)" gradientUnits="userSpaceOnUse"><stop offset="0" stop-color="#c4c4c3"/><stop offset=".09" stop-color="#d5d5d5"/><stop offset=".23" stop-color="#e8e8e7"/><stop offset=".4" stop-color="#f5f5f5"/><stop offset=".6" stop-color="#fdfdfd"/><stop offset="1" stop-color="#fff"/></linearGradient><linearGradient id="prefix__linear-gradient-5" x1="2699.34" y1="408.05" x2="2819.21" y2="408.05" gradientTransform="matrix(-1 -.02 -.02 1 3146.74 58.29)" xlink:href="#prefix__linear-gradient"/><linearGradient id="prefix__linear-gradient-6" x1="2757.88" y1="361.72" x2="2755.17" y2="350.77" gradientTransform="matrix(-1 -.02 -.02 1 3146.74 58.29)" xlink:href="#prefix__linear-gradient"/><linearGradient id="prefix__linear-gradient-7" x1="2716.15" y1="338.34" x2="2950.76" y2="232.85" gradientTransform="matrix(-1 -.02 -.02 1 3146.74 58.29)" xlink:href="#prefix__linear-gradient"/><linearGradient id="prefix__linear-gradient-8" x1="2794.32" y1="392.21" x2="2910.26" y2="392.21" gradientTransform="matrix(-1 -.02 -.02 1 3146.74 58.29)" xlink:href="#prefix__linear-gradient"/><linearGradient id="prefix__linear-gradient-9" x1="2884.83" y1="249.38" x2="2708.8" y2="174.5" gradientTransform="matrix(-1 -.02 -.02 1 3146.74 58.29)" xlink:href="#prefix__linear-gradient"/><linearGradient id="prefix__linear-gradient-10" x1="3189.63" y1="609.47" x2="2972.75" y2="517.21" gradientTransform="matrix(-.98 -.21 -.21 .98 3508.14 397.4)" xlink:href="#prefix__linear-gradient"/><linearGradient id="prefix__linear-gradient-11" x1="455.38" y1="501.32" x2="369.44" y2="301.66" xlink:href="#prefix__linear-gradient"/><linearGradient id="prefix__linear-gradient-12" x1="362.63" y1="329.97" x2="310.25" y2="370.62" xlink:href="#prefix__linear-gradient-2"/><linearGradient id="prefix__linear-gradient-13" x1="405.94" y1="140.4" x2="405.94" y2="96.68" gradientTransform="matrix(.85 .23 -.27 .96 126.15 -35.32)" gradientUnits="userSpaceOnUse"><stop offset="0" stop-color="#e9b373"/><stop offset=".57" stop-color="#f5d0b5"/><stop offset="1" stop-color="#f6e2d0"/></linearGradient><linearGradient id="prefix__linear-gradient-14" x1="128.56" y1="187.04" x2="128.56" y2="143.31" gradientTransform="matrix(1 -.09 .09 1 133.52 7.28)" xlink:href="#prefix__linear-gradient-13"/><linearGradient id="prefix__linear-gradient-15" x1="30.32" y1="464.58" x2="93.59" y2="464.58" xlink:href="#prefix__linear-gradient-2"/><linearGradient id="prefix__linear-gradient-16" x1="215.52" y1="477.47" x2="273.43" y2="477.47" xlink:href="#prefix__linear-gradient-2"/><clipPath id="prefix__clip-path"><path id="prefix__SVGID" class="prefix__cls-1" d="M0 0h523.26v516.75H0z"/></clipPath><style>.prefix__cls-1,.prefix__cls-41,.prefix__cls-42{fill:none}.prefix__cls-13{fill:#eac233}.prefix__cls-30{fill:#46160b}.prefix__cls-41,.prefix__cls-42{stroke:#9b9796;stroke-width:.69px;stroke-miterlimit:10}.prefix__cls-42{stroke:#767676;stroke-width:.34px}.prefix__cls-46{fill:#580e10}.prefix__cls-48{fill:#edac86}</style></defs><g style="isolation:isolate"><g clip-path="url(#prefix__clip-path)" id="prefix__レイヤー_1" data-name="レイヤー 1"><path d="M267.86 167c-1.18 13.51 38.58 64.68 50.34 73.51a65 65 0 0165.95 5.77c13.12-6.65 59.7-43.17 60.88-56.68 2-23.36-50.95-96.76-80.45-99.34s-87 3.31-98.16 78" fill="url(#prefix__radial-gradient)"/><path d="M275.88 231.53s-4.77-1.93-10.55 6.23-17.5 38.43-23.31 56.7c-11.63 36.54-20.34 122.88-22.43 146.18-1.81 20.22 19.73 83.92 24.92 93.85s57.31-3.32 50.66-17.44-29.07-69.13-29.07-78.9c0-14.15 24.9-156.36 24.9-156.36z" fill="url(#prefix__linear-gradient)"/><path fill="url(#prefix__linear-gradient-2)" d="M413.45 248.11l-61.46-16.73-46.68 8.62-4.51 64.03 43.85 99.24 92.7-136.48-23.9-18.68z"/><path d="M397.76 135.39s-31.08 52-20.91 73.23 14.31 21.6 14.31 21.6 1.13 33.68-15 40c-8.55 3.37-22.08 14.1-31.63 13.95-8.49-.14-13.33-10.63-16.47-15.9-6.68-11.19-11.6-43.66-11.6-43.66s12.39-2.27 11.32-29.7c-.3-7.69 2.77-2.67 2.37-19.21-.84-34.28 67.61-40.31 67.61-40.31z" fill="url(#prefix__linear-gradient-3)"/><path d="M388.15 225.9s-4.55 20.36-17.72 37.67c-5.84 7.68-29.05 18-30.07 18.11-1.41.13-8.3-6.93-11.63-15.29a100.24 100.24 0 01-6.63-46.22l-21.77 9 18.43 72.07 21.18-17.51 24.23 24.71 55.09-54.89z" fill="url(#prefix__linear-gradient-4)"/><path d="M414.48 246.59s-37.83 66.63-60.28 115.59c-12.93 28.18-19.76 28.67-21 31.52-3 7-15 45.09-12.78 83.1s12.74 89.7 30.46 104.1 33.22 8.86 62 6.64 27.37-13.73 22.71-31S421 515.28 422 462.12s21.42-194 18.16-196.54c-8.16-6.39-25.68-18.99-25.68-18.99z" fill="url(#prefix__linear-gradient-5)"/><path d="M404 363.84a133 133 0 01-19.39-2.77 62.68 62.68 0 01-16.8-6l-1 9s-1.58 3.1 12.27 6.42a110 110 0 0023.25 3.33z" fill="url(#prefix__linear-gradient-6)"/><path d="M391 267.56c9.2-22.56 8.1-31.77 8.1-31.77l15.36 10.8s-3 48.53-2.55 51.8c.49 3.65-1.33 4.66-8 4.95s-17 1.41-18.74 3.47 11.26 11.65 14.38 14.83.89 4.44-1 8.06-44.48 71.36-70.43 75.12c2.81-6.17-2.45-8 24.93-54.58 13.88-23.5 29.02-60.72 37.95-82.68z" fill="url(#prefix__linear-gradient-7)"/><path d="M343.68 435.27c-6.13-25.28-17.66-76-23.81-96.9-14.06-47.77-9.79-115.17-9.79-115.17l-34.2 8.33s-16.7 50.4-20.79 79.15c-3.81 26.75-3.88 37.1 3.87 67s8 25.65 5.26 67.83c-1.07 16.59-16.6 70.28-29.55 99.27-4.12 9.21-11.15 17.29-4.5 19.5s52.31 15.78 59.8 14.4c11.67-2.15 24.92-28.79 40.42-70.87s16.88-57.7 13.29-72.54z" fill="url(#prefix__linear-gradient-8)"/><path class="prefix__cls-13" d="M315.3 480.9a7.76 7.76 0 107.89-7.62 7.75 7.75 0 00-7.89 7.62zM324 435.82a7.75 7.75 0 107.89-7.61 7.75 7.75 0 00-7.89 7.61zM337.11 394a7.75 7.75 0 107.89-7.61 7.76 7.76 0 00-7.89 7.61z"/><path fill="url(#prefix__linear-gradient-9)" d="M301.92 239.41l8.16-2.73-8.16 2.73z"/><path d="M298.87 233.41c-1.93 7.76-11.81 27.92-12.78 30.76-1.13 3.36 4.84 8.52 7.2 9.42s8.75 5.12 11.85 6.71-3.75 3.56-8 5.47-8.94 3.21-10.81 4-2 1.57-1.38 6.5 4.57 48.93 16.2 77.17 38.62 45.48 38.62 45.48-20.54-83.07-23.77-115.2c-3.9-39.09-5.67-77.55-5.67-77.55z" fill="url(#prefix__linear-gradient-10)"/><path d="M240.52 401.66a8.84 8.84 0 01-8.85 8.84H69.59a8.84 8.84 0 01-8.84-8.84V282.79a8.83 8.83 0 018.84-8.79h162.08a8.84 8.84 0 018.85 8.83z" fill="#282829"/><path d="M236.1 348.54a1.48 1.48 0 01-1.48-1.48v-9.67a1.48 1.48 0 012.95 0v9.67a1.47 1.47 0 01-1.47 1.48z" fill="#6f6e6e"/><path d="M451.29 282.55c-1.7-14.5-11.1-17-11.1-17-7.79 8.41-11.59 25.8-17.61 56.18-8.31 42-5.64 107.92-5.64 107.92l-62.68-91s-9-4.38-26 9.94-19 25.66-19 25.66 14.38 17.12 31 39.27 51.71 57.55 65.87 71.73 42 12.82 47.24-15.17c5.26-28.24 3.46-44.85 3.46-90.2a883.82 883.82 0 00-5.54-97.33z" fill="url(#prefix__linear-gradient-11)"/><path d="M316.43 373.09l-6.16-6.37a36.62 36.62 0 0113.89-23.23c13.6-10.62 21.38-6.69 21.38-6.69l5.95 6.58s1.88 14.92-21.31 26.69c-8.95 4.54-13.75 3.02-13.75 3.02z" fill="url(#prefix__linear-gradient-12)"/><path d="M420.05 169.06c-3.59 12.95 1.6 25.66 11.58 28.42s21-5.47 24.56-18.42-1.6-25.67-11.59-28.43-21 5.48-24.55 18.43" fill="url(#prefix__linear-gradient-13)"/><path d="M294.49 158.74c1.19 13.38-6 24.94-16.06 25.85S259.24 175.38 258 162s6-24.94 16.06-25.84 19.19 9.21 20.39 22.58" fill="url(#prefix__linear-gradient-14)"/><path d="M278.63 124.1c-2.57 29.4 2.39 60 15.51 77.87 16.37 22.29 38.07 34.23 44.11 34.75 13.48 1.18 54.06-5.72 74.47-24.35 16.19-14.79 25-44.72 27.59-74.12 5.35-61.12-20-89.07-72.64-93.67S284 63 278.63 124.1" fill="url(#prefix__radial-gradient-2)"/><path d="M377.68 165.36c-.65 6 2.59 11.3 7.21 11.8s8.91-4 9.56-10-2.55-11.3-7.19-11.81-8.92 4-9.58 10" fill="url(#prefix__radial-gradient-3)"/><path d="M337.9 191a2.14 2.14 0 001.83-.57 1.62 1.62 0 00-.3-2.49l-3.11-2.28 3.4-11.78c.39-.91 1.71-2.46.65-2.83s-1.37.72-1.76 1.61l-7.13 14 5.38 3.95a2.28 2.28 0 001 .41" fill="#df9c5c"/><path class="prefix__cls-1" transform="matrix(.09 -1 1 .09 189.03 573.97)" d="M390.32 161.7h34.79v44.27h-34.79z"/><path class="prefix__cls-1" transform="rotate(-85 305.945 174.936)" d="M288.56 152.8h34.79v44.27h-34.79z"/><path class="prefix__cls-1" transform="rotate(-85 386.11 187.16)" d="M368.72 165.02h34.79v44.27h-34.79z"/><path class="prefix__cls-1" transform="rotate(-85 305.945 174.936)" d="M288.56 152.8h34.79v44.27h-34.79z"/><path class="prefix__cls-30" d="M398 137.62c-9.28-4.14-15.64-3.66-22.26 3.7a22.13 22.13 0 0118.91-1c10.22 4.27 14.37 10.13 14.37 10.13a19.34 19.34 0 00-11-12.81"/><path d="M344.51 11.57c-45.45 9.75-75.45 50.87-88.73 83.27s-9.14 63.12 2.49 84.71 43.19 34.89 43.19 34.89c-14.12-13.29-36.93-41.69-22.43-68.11 37.38-68.1 119.11-58.14 119.11-58.14s49.5 53.16 13 117.43c0 0 17.51-6.88 25.53-20.19-5.41 21.43-24.79 39-47.21 52.26 0 0 29.07-3.32 47.34-18.27s41.55-39.37 36.53-94.68c-4.27-46.92-17.71-65.59-33-80.64s-29.31-10.56-29.31-10.56S395.48 12 369.27 9.71c-7-.61-24.76 1.86-24.76 1.86z" fill="url(#prefix__radial-gradient-8)"/><path d="M385 157s11.45-3.93 15.12 13.21c0 0 .4-12.54-10.61-15.48s-13.22 8.51-13.22 8.51 4.11-6.74 8.71-6.24z" fill="url(#prefix__radial-gradient-9)"/><path d="M319.38 155c-.53 6-4.74 10.58-9.37 10.18s-8-5.62-7.45-11.65 4.71-10.59 9.36-10.19 8 5.62 7.46 11.66" fill="url(#prefix__radial-gradient-10)"/><path class="prefix__cls-30" d="M306.07 123.75c10.06-1.57 16.07.54 20.51 9.38a22.09 22.09 0 00-18-5.92c-11 1.46-16.55 6-16.55 6a19.44 19.44 0 0114-9.51"/><path d="M313.78 145.37s-10.47-6.08-17.4 10c0 0 2.05-12.37 13.41-13.12s11.32 10.91 11.32 10.91-2.68-7.39-7.33-7.79z" fill="url(#prefix__radial-gradient-11)"/><path d="M452.69 101s32.29 59.4-1.86 100c0 0 20.17-38 1.86-100z" fill="url(#prefix__radial-gradient-12)"/><path d="M436.71 185.43s12.54-13.44 16-52.56c0 0 3.47 50-23.51 68.84z" fill="url(#prefix__radial-gradient-13)"/><path d="M341.83 217a15.9 15.9 0 01-2.88-.26c-6.95-1.32-15.43-13.75-15.57-13.95a126.13 126.13 0 0016.91 2.45c9.87.86 21.78 2.42 21.9 2.44-.12.03-10.19 9.32-20.36 9.32z" fill="#e09c92"/><path d="M323.54 203a158.27 158.27 0 0016.75 2.34c9.19.81 20.14 2.21 21.71 2.42a46.91 46.91 0 01-6.19 4.56c-3.46 2.14-8.7 4.69-14 4.69a15 15 0 01-2.87-.26c-6.5-1.23-14.34-12.2-15.42-13.75m-.19-.13s8.52 12.63 15.59 14a15.61 15.61 0 002.89.26c10.27 0 20.37-9.41 20.37-9.41s-11.92-1.56-21.9-2.44a152.46 152.46 0 01-16.95-2.38z" fill="#dd827c"/><path d="M73.28 400.25a2.1 2.1 0 01-2.09-2.1V286.49a2.1 2.1 0 012.09-2.09h155a2.1 2.1 0 012.09 2.09v111.66a2.1 2.1 0 01-2.09 2.1z" fill="#fff"/><path stroke="#1d462b" stroke-width=".64" fill="none" d="M126.34 332.33h39.56v11.46h-39.56z"/><path class="prefix__cls-41" d="M118.48 364.38a5.31 5.31 0 11-5.31-5.31 5.32 5.32 0 015.31 5.31zM158.72 364.38a5.31 5.31 0 11-5.31-5.31 5.32 5.32 0 015.31 5.31z"/><path class="prefix__cls-42" d="M101.82 310.92h95.24M101.82 321.75h28.51M121.78 367.44h19.1"/><path d="M150.86 364.38a2.55 2.55 0 112.55 2.55 2.55 2.55 0 01-2.55-2.55z" fill="#aace36"/><path d="M79.87 410.5s-.92-4.32-5.52-10.58a79.6 79.6 0 00-11.29-11.84c1.46-3.74 9.85-11.54 14.45-26.43 3.53-11.45-4.34-16.32-7.9-9.92S49.34 379.34 48 385.88s.77 17.65 4 29.55c1.31 4.84 5.32 9.23 3.94 14.37s-18 56.7-18 56.7 40.67 1.79 43.11-9.17c3.45-15.51 8.12-34.71 10.62-37 4.27-3.91 15.68-10.48 18.46-15.71 1.12-2.1 3.67-8 6.31-14.12z" fill="url(#prefix__radial-gradient-14)"/><path d="M93.59 451.48s-21.91-13.26-46.81-7.07l-16.46 42h50.94z" fill="url(#prefix__linear-gradient-15)"/><path class="prefix__cls-46" d="M95.13 456.9a77.72 77.72 0 00-25.26-8.73 66.18 66.18 0 00-26.74.87l-27.77 73.64H72z"/><path d="M201.77 371.16s-7.82 6.38-9.51 8.38-1.84 3.92-.57 7.69 4.32 9.6 6.17 13.22 6.42 9.57 10.18 5.79 7.48-11.83 6.58-15.37-.86-19.6-4.05-21-8.8 1.29-8.8 1.29z" fill="url(#prefix__radial-gradient-15)"/><path class="prefix__cls-48" d="M207.45 400.06s-1.58-11.59-2.64-12.9 3.57-5.58 3.57-5.58l2.1-1.53.14 2.81a14 14 0 00-3 3c-.93 1.5 3.38 10.87 1.12 16s-1.29-1.8-1.29-1.8z"/><path d="M154.44 364c-.54-.67-.3-1 .54-.93s10.82 1.19 10.82 1.19l-3.68 7.57s-7.12-7.14-7.68-7.83z" fill="#9d9c9d"/><path d="M240.55 406.34c-1.42 2.68-3.2 2.72-3.2 2.72l-75.23-37.22a5.18 5.18 0 01.37-4.42 6 6 0 013.31-3.15l75.2 37.54a5 5 0 01-.45 4.53z" fill="#2d2d2d"/><path d="M240.55 406.34a5 5 0 00.43-4.53s-1.36.52-2.72 3.3c-1 2-1 3.14-.68 3.91.53-.11 1.86-.59 2.97-2.68z" fill="#060001"/><path class="prefix__cls-1" d="M208.93 383.24a83.74 83.74 0 00-2.57-10.2c-1-2.21-2.69-1.43-5.45-.14-1.68.78-8.31 1.76-14.36 1.73l22.56 11.27a11.23 11.23 0 00-.18-2.66zM191.32 404.28c-.48 2.58 9.35 7.07 10.86 6.71.94-.23 5-9.84 5.76-12.24a23.86 23.86 0 00.64-3.93l-24.18-12c4.46 6.98 7.32 19.27 6.92 21.46z"/><path d="M262 492.43c-1.51-4.68-12.81-45.5-12-48.89.48-2.07-1-38.46-1.41-40.43s-4.72-10.86-5.27-14.32c-.7-4.39-6.63-7-9.54-10.36s-12.05-13.56-13.59-16.87-6-4.95-10.39-4.25c-3.66.59-31.95 5.82-34.41 6.29-1.43.28-2.26 2.3-1.78 4.56a7.55 7.55 0 003.43 4.76c1.9 1.24 5.59 1.69 9.52 1.71 6 0 12.68-.95 14.36-1.73 2.76-1.29 4.41-2.07 5.45.14a83.74 83.74 0 012.57 10.2 11.23 11.23 0 01.18 2.66L241 401.81a5 5 0 01-.43 4.53 6.83 6.83 0 01-.5.82l-.15.2-.36.44-.17.17-.37.33-.12.1a4.73 4.73 0 01-.44.29l-.14.07-.25.12-.16.05-.17.06h-.34l-28.77-14.24a23.86 23.86 0 01-.64 3.93c-.78 2.4-4.82 12-5.76 12.24-1.51.36-11.34-4.13-10.86-6.71.4-2.19-2.46-14.48-6.92-21.42a16.05 16.05 0 00-2.51-3.12c-3.09-2.82-6.31-3.12-8.45-2.3-1.92.73-3 2.36-2.23 3.92 1.54 3.32 4.56 27.81 7.21 30.62s15.25 21.15 18.82 25.2a30.39 30.39 0 0011.23 8.22c3.24 1.18 5.79 3 6.27 5.49s17.33 54.5 17.33 54.5 31.42-8.21 29.88-12.89z" fill="url(#prefix__radial-gradient-16)"/><path d="M215.52 464.37s19.45-13.26 44.21-7.07l13.7 42h-48.19z" fill="url(#prefix__linear-gradient-16)"/><path class="prefix__cls-46" d="M213.78 469.79s21.61-14.73 49.11-7.86l24.9 76.71h-53.54z"/><path d="M345.62 343.35s-18.65-24.5-24.57-28.24c-.08-.05-.16-.07-.24-.12a47.47 47.47 0 00-11-8.18c-12.3-6.54-26.79-12.14-34.88-12.88-9.14-.83-20.76 13.71-20.76 13.71a121.58 121.58 0 01-18.53 3.36c-14.35 1.3-30.46 2.38-34.33 2.94s-7.2 7.3 2.21 7.58c22.48.66 42.08 2.77 42.08 2.77s-.55 3 1.32 7.58 6.85 5.71 6.85 5.71.45 6.73 2.38 8.58a22.66 22.66 0 004.65 3.78c.45 1.74-.21 3.55 3.46 5 5 2 14.88 3.42 17.44 3.24 2.23-.16 10-1.05 15.68-1.32 2.79-.13 9-2.42 11.9-.28s9.06 10 9.06 10 4.4 2.8 15.93-5.54c15.5-11.18 11.35-17.69 11.35-17.69z" fill="url(#prefix__radial-gradient-17)"/><path class="prefix__cls-48" d="M244.53 324.11v-.69s19.31.18 23 .54 2.7 2.34-1.85 1.91c-3.03-.3-21.15-1.76-21.15-1.76zM252.78 337.75l-.05-1s14.91-.23 19.46.21 6.49 1.88 1.91 1.85c-3.29-.06-21.32-1.06-21.32-1.06zM259.9 349.58l-.14-.51s18-.62 20-.47 2.13 1.81-1.4 1.6c-2.55-.14-18.46-.62-18.46-.62zM273.91 306.6c1.46 0 8.52.21 4.16-1.45s-6.65-2.08-7.69-1.46-5.19 2.7-5.19 2.7 7.27.21 8.72.21z"/></g></g></svg>