<svg xmlns="http://www.w3.org/2000/svg" xmlns:xlink="http://www.w3.org/1999/xlink" viewBox="0 0 370 280"><defs><linearGradient id="prefix__linear-gradient" x1="185.88" y1="93.26" x2="185.88" y2="126.06" gradientUnits="userSpaceOnUse"><stop offset="0" stop-color="#e9b373"/><stop offset=".57" stop-color="#f5d0b5"/><stop offset="1" stop-color="#f6e2d0"/></linearGradient><linearGradient id="prefix__linear-gradient-2" x1="151.76" y1="145.05" x2="151.76" y2="172.23" gradientTransform="rotate(1 1887.32 2089.83)" gradientUnits="userSpaceOnUse"><stop offset="0" stop-color="#c2c2c2"/><stop offset=".06" stop-color="#cacaca"/><stop offset=".25" stop-color="#e1e1e1"/><stop offset=".47" stop-color="#f2f2f2"/><stop offset=".7" stop-color="#fcfcfc"/><stop offset="1" stop-color="#fff"/></linearGradient><linearGradient id="prefix__linear-gradient-3" x1="7081.83" y1="11.42" x2="7081.83" y2="30.32" gradientTransform="matrix(-1 .02 .02 1 7266.08 -32.62)" gradientUnits="userSpaceOnUse"><stop offset="0" stop-color="#c2c2c2"/><stop offset=".1" stop-color="#d5d5d5"/><stop offset=".24" stop-color="#e7e7e7"/><stop offset=".4" stop-color="#f5f5f5"/><stop offset=".6" stop-color="#fdfdfd"/><stop offset="1" stop-color="#fff"/></linearGradient><linearGradient id="prefix__linear-gradient-4" x1="147.19" y1="205.19" x2="196" y2="205.19" gradientTransform="rotate(1 1887.32 2089.83)" gradientUnits="userSpaceOnUse"><stop offset="0" stop-color="#06162e"/><stop offset="1" stop-color="#10395f"/></linearGradient><linearGradient id="prefix__linear-gradient-5" x1="183.36" y1="264.82" x2="176.7" y2="237.85" xlink:href="#prefix__linear-gradient-4"/><linearGradient id="prefix__linear-gradient-6" x1="173.68" y1="175.95" x2="172.34" y2="170.5" xlink:href="#prefix__linear-gradient-4"/><linearGradient id="prefix__linear-gradient-7" x1="175.59" y1="171.25" x2="124.44" y2="149.49" xlink:href="#prefix__linear-gradient-4"/><linearGradient id="prefix__linear-gradient-8" x1="7046.68" y1="84.42" x2="7095.85" y2="84.42" gradientTransform="matrix(-1 .02 .02 1 7235.41 -32.62)" xlink:href="#prefix__linear-gradient-4"/><linearGradient id="prefix__linear-gradient-9" x1="7083.21" y1="144.05" x2="7076.55" y2="117.08" gradientTransform="matrix(-1 .02 .02 1 7235.41 -32.62)" xlink:href="#prefix__linear-gradient-4"/><linearGradient id="prefix__linear-gradient-10" x1="7074.14" y1="52.61" x2="7023.93" y2="31.25" gradientTransform="matrix(-1 .02 .02 1 7235.41 -32.62)" xlink:href="#prefix__linear-gradient-4"/><linearGradient id="prefix__linear-gradient-11" x1="7323.25" y1="121.71" x2="7308.2" y2="34.65" gradientTransform="matrix(-1 .02 .02 1 7535.22 -32.62)" xlink:href="#prefix__linear-gradient-4"/><linearGradient id="prefix__linear-gradient-12" x1="6853.08" y1="-1000.04" x2="6844.61" y2="-1003.21" gradientTransform="matrix(-.97 .23 .2 .84 7067.68 -506.9)" xlink:href="#prefix__linear-gradient-2"/><linearGradient id="prefix__linear-gradient-13" x1="124.55" y1="247.72" x2="109.49" y2="160.62" xlink:href="#prefix__linear-gradient-4"/><linearGradient id="prefix__linear-gradient-14" x1="-158.37" y1="895.49" x2="-166.84" y2="892.32" gradientTransform="matrix(.97 .23 -.2 .84 504.29 -506.9)" xlink:href="#prefix__linear-gradient-2"/><linearGradient id="prefix__linear-gradient-15" x1="-207.06" y1="461.99" x2="-207.06" y2="444.89" gradientTransform="matrix(.86 .16 -.18 .98 478.65 -342.37)" xlink:href="#prefix__linear-gradient"/><linearGradient id="prefix__linear-gradient-16" x1="339.89" y1="-269.18" x2="339.89" y2="-286.28" gradientTransform="rotate(-10.11 2216.152 948.63)" xlink:href="#prefix__linear-gradient"/><radialGradient id="prefix__radial-gradient" cx="211.15" cy="65.17" r="29.24" gradientTransform="translate(2.36) scale(.89)" gradientUnits="userSpaceOnUse"><stop offset="0" stop-color="#432610"/><stop offset=".36" stop-color="#311305"/><stop offset="1" stop-color="#241004"/></radialGradient><radialGradient id="prefix__radial-gradient-2" cx="5254.4" cy="6028.85" r="16.67" gradientTransform="matrix(-.65 .58 -.59 -.66 7149.72 1172.96)" gradientUnits="userSpaceOnUse"><stop offset="0" stop-color="#f6e2d0"/><stop offset="1" stop-color="#f5d0b5"/></radialGradient><radialGradient id="prefix__radial-gradient-3" cx="-211.78" cy="1262.27" r="16.95" gradientTransform="matrix(.65 .58 .59 -.66 -423.59 1172.96)" xlink:href="#prefix__radial-gradient-2"/><radialGradient id="prefix__radial-gradient-4" cx="206.05" cy="67.98" r="39.38" gradientTransform="translate(2.36) scale(.89)" xlink:href="#prefix__radial-gradient-2"/><radialGradient id="prefix__radial-gradient-5" cx="564.66" cy="229.65" r="6.8" gradientTransform="matrix(1.08 0 0 1.08 -408.42 -187.27)" gradientUnits="userSpaceOnUse"><stop offset="0" stop-color="#6e4c37"/><stop offset="1" stop-color="#040000"/></radialGradient><radialGradient id="prefix__radial-gradient-6" cx="310.99" cy="85.08" r="8.6" gradientTransform="matrix(.92 0 0 .89 -80.15 0)" gradientUnits="userSpaceOnUse"><stop offset="0" stop-color="#fbe5d4"/><stop offset="1" stop-color="#fff"/></radialGradient><radialGradient id="prefix__radial-gradient-7" cx="267.46" cy="85.08" r="8.6" xlink:href="#prefix__radial-gradient-6"/><radialGradient id="prefix__radial-gradient-10" cx="201.68" cy="27.55" r="65.02" gradientTransform="translate(2.36) scale(.89)" gradientUnits="userSpaceOnUse"><stop offset="0" stop-color="#4e3217"/><stop offset=".36" stop-color="#3f210f"/><stop offset="1" stop-color="#241004"/></radialGradient><radialGradient id="prefix__radial-gradient-11" cx="82.93" cy="202.31" r="9.06" gradientTransform="matrix(.83 0 0 1.05 129.86 -150.73)" xlink:href="#prefix__radial-gradient-5"/><radialGradient id="prefix__radial-gradient-12" cx="3803.46" cy="229.65" r="6.8" gradientTransform="matrix(-1.08 0 0 1.08 4265.77 -187.27)" xlink:href="#prefix__radial-gradient-5"/><radialGradient id="prefix__radial-gradient-13" cx="4287.96" cy="202.31" r="9.06" gradientTransform="matrix(-.83 0 0 1.05 3729.27 -150.73)" xlink:href="#prefix__radial-gradient-5"/><radialGradient id="prefix__radial-gradient-14" cx="254.31" cy="44.54" r="31.1" xlink:href="#prefix__radial-gradient"/><radialGradient id="prefix__radial-gradient-15" cx="178.76" cy="42.09" r="33.06" xlink:href="#prefix__radial-gradient"/><radialGradient id="prefix__radial-gradient-16" cx="250.4" cy="63.61" r="21.11" xlink:href="#prefix__radial-gradient"/><clipPath id="prefix__clip-path"><path id="prefix__SVGID" class="prefix__cls-1" d="M-5.05 0h380.88v285H-5.05z"/></clipPath><style>.prefix__cls-1{fill:none}.prefix__cls-15{fill:#e0bc38}.prefix__cls-20{fill:#e5a782}.prefix__cls-32{fill:#46160b}</style></defs><g style="isolation:isolate"><g clip-path="url(#prefix__clip-path)" id="prefix__レイヤー_1" data-name="レイヤー 1"><path d="M150.71 73.54c0 5.3 17.28 23.88 22.17 26.92a25.55 25.55 0 0126 0c4.9-3 21.84-18.85 21.84-24.16 0-9.17-23.2-36-34.81-36S152 44.6 150.19 74.06" fill="url(#prefix__radial-gradient)"/><path d="M203.64 108.14s-5.27.06-8.9-5.73-.23-21.19-.23-21.19a31.52 31.52 0 00-8.63 2 31.6 31.6 0 00-8.63-2s3.39 15.39-.24 21.19-8.9 5.73-8.9 5.73a66.43 66.43 0 018.4 2.55 18.65 18.65 0 004.06.87c1.2.41 2.66 15.32 4.59 15.29h.54c0 15 .36 0 .54 0 1.93 0 3.74-14.88 4.94-15.29a18.65 18.65 0 004.06-.87 66.43 66.43 0 018.4-2.55z" fill="url(#prefix__linear-gradient)"/><path fill="url(#prefix__linear-gradient-2)" d="M164.89 109.46l21.16 5.05 19.86-5.37.86 24.78-18.62 40.61-22.94-38.1-.32-26.97z"/><path d="M185.94 115l-7.64 9.86-11.38-17.63s7.41-4.35 8.39-4 9.32 11.27 10.62 11.11c1.3.16 9.63-10.81 10.61-11.11s8.4 4 8.4 4l-11.38 17.63z" fill="url(#prefix__linear-gradient-3)"/><path d="M203.79 105.82l10.58 4s3 25.29 2.71 42.19c-.14 8.12-4.49 28.31-4.49 28.31s6 42.09 10.66 54.31c1.48 3.88 6.72 11.08 3.79 11-1 0-5-2.85-9.55-3.17-8.08-.58-14.57-.12-17.49-.8-4.54-1-19.92-52.32-19.87-55.25.09-5.19 23.66-80.59 23.66-80.59z" fill="url(#prefix__linear-gradient-4)"/><path d="M201.75 207.06c0 1.62 3.89 19.72 4.51 21.52s1.42 2.29 2.73 2.32 9.42 1 10.72 1.32c.8.22 2 .44 2.87.58a174.74 174.74 0 01-7.35-27.31c-2-.09-11.59-.51-12.47-.53s-.98.47-1.01 2.1z" fill="url(#prefix__linear-gradient-5)"/><path fill="url(#prefix__linear-gradient-6)" d="M200.13 141.24l13.85-.41.26 3.74-15.15.39 1.04-3.72z"/><path d="M204.82 134c.68-1.94.69-2.26.05-2.76s-2.89-2.32-4.34-3.49-.77-2.28-.12-2.27 4.08-.74 5.06-.89 2-.62 1.83-2.08c-.12-1.24-.3-12.13-.35-15.45l-3.16-1.25s-10.93 35-17.94 58.93l.36-.2c10.36-5.82 17.92-28.54 18.61-30.54z" fill="url(#prefix__linear-gradient-7)"/><path d="M178.89 143.79c-4.45-12.24-11.1-38-11.1-38l-9.66 4s-5.76 26.21-5.47 43.11c.14 8.12 6.34 27.39 6.34 27.39s-6 42.09-10.66 54.31c-1.48 3.88-6.73 11.08-3.8 11 1.05 0 5-2.85 9.55-3.17 8.08-.58 14.58-.12 17.49-.8 2.34-.54 19.25-32.45 19.25-39.81s.74-25.27.74-29.38-8.23-16.44-12.68-28.65z" fill="url(#prefix__linear-gradient-8)"/><path d="M169.83 207.06c0 1.62-3.88 19.72-4.5 21.52s-1.43 2.29-2.73 2.32-9.43 1-10.72 1.32c-.81.22-2 .44-2.88.58a174.83 174.83 0 007.36-27.31c2-.09 11.59-.51 12.46-.53s.99.47 1.01 2.1z" fill="url(#prefix__linear-gradient-9)"/><path d="M166.77 134c-.69-1.94-.7-2.26-.05-2.76s2.89-2.32 4.33-3.49.78-2.28.13-2.27-4.09-.74-5.07-.89-2-.62-1.83-2.08c.12-1.24.3-12.13.35-15.45l3.16-1.25S178.13 139 181.17 147s7.94 16.46 9.27 21a48.42 48.42 0 01-5.91-3.58c-8.85-6.68-17.08-28.42-17.76-30.42z" fill="url(#prefix__linear-gradient-10)"/><ellipse class="prefix__cls-15" cx="187.02" cy="171.54" rx="3.03" ry="3.04" transform="rotate(-89.37 187.027 171.54)"/><path class="prefix__cls-15" d="M190.06 187.69a3 3 0 11-3-3.08 3 3 0 013 3.08z"/><path fill="#ffe5bb" d="M-23.9 193.38h437.34v95.83H-23.9z"/><path d="M199.37 199.44l23.18-15.63s-4.55-13.52-6.66-22.26c.58-5.66 1-5.61 1-8.65.3-16.9-2.7-43.11-2.7-43.11a11 11 0 017.09 6.72 284.75 284.75 0 018.81 29c2.93 12 10.86 42.68 10.26 45.29s-4.08 5.28-8.2 7.77-20.49 12.79-23.05 14.19-7.43-2.49-10.69-7 .96-6.32.96-6.32z" fill="url(#prefix__linear-gradient-11)"/><path d="M206.13 204.32c-1.83-2.37-4.36-4-5.31-3.55l-4.52 2.32c-.33.19-1.35 1.44 1.66 5.75s6 4.8 6.51 4.47a25.47 25.47 0 014.19-2.38c.84-.37-.45-3.93-2.53-6.61z" fill="url(#prefix__linear-gradient-12)"/><path d="M199.48 213.9c-1 .59-3.34 6.5-4.85 7.57-5.45 3.91-8.39 2.61-11.91 3.43s-5.23 1.81-7.36 1.94a7.7 7.7 0 01-4.69-.89c-1.07.13-1.2-1.42.4-3.88a47 47 0 014.48-5.26 30.69 30.69 0 017.57-6.8 47 47 0 019.2-4 24.43 24.43 0 002.68-1.17 21.33 21.33 0 012.69-1.43c1.16-.39 2 0 3.52 1.1 2.25 1.76 4.39 6.17 3.17 6.8-.73.39-3.87 1.99-4.9 2.59z" fill="url(#prefix__radial-gradient-2)"/><path class="prefix__cls-20" d="M170.67 226s3.93-4.1 5.54-5.36a59.78 59.78 0 016-3.9c.35-.12.83.3.32.78s-5.58 3.31-6.84 4.58c-.68.68-4.4 3.78-4.4 3.78zM173.57 226.72s3-2.15 4.09-3a17.92 17.92 0 013.52-2.09c.78-.31 3.26-2 3.89-1.93s0 .71-.65 1-6 3.14-6.56 3.44-3.67 2.63-3.67 2.63z"/><path d="M173.13 199.44L150 183.81s2.82-8.91 4.92-17.66c-.58-5.66-.31-11.13-.36-14.17-.3-16.9 3.62-42.19 3.62-42.19a10.9 10.9 0 00-6.9 6.72 282.19 282.19 0 00-8.81 29c-2.93 12-10.87 42.68-10.26 45.29s4.07 5.28 8.2 7.77 20.48 12.79 23 14.19 7.43-2.49 10.69-7-.97-6.32-.97-6.32z" fill="url(#prefix__linear-gradient-13)"/><path d="M166.38 204.32c1.83-2.37 4.36-4 5.31-3.55l4.51 2.32c.34.19 1.36 1.44-1.65 5.75s-6 4.8-6.51 4.47a25.47 25.47 0 00-4.19-2.38c-.85-.37.45-3.93 2.53-6.61z" fill="url(#prefix__linear-gradient-14)"/><path d="M173 213.9c1 .59 3.34 6.5 4.84 7.57 5.46 3.91 8.4 2.61 11.91 3.43s5.24 1.81 7.37 1.94a7.7 7.7 0 004.69-.89c1.06.13 3-.5 1.44-3a47 47 0 00-4.48-5.26 50.93 50.93 0 00-9.41-7.72 47 47 0 00-9.2-4 24.79 24.79 0 01-2.69-1.17 20.74 20.74 0 00-2.68-1.43c-1.16-.39-2 0-3.52 1.1-2.25 1.76-4.4 6.17-3.17 6.8.76.43 3.9 2.03 4.9 2.63z" fill="url(#prefix__radial-gradient-3)"/><path class="prefix__cls-20" d="M201.84 226s-3.93-4.1-5.54-5.36a60.82 60.82 0 00-6-3.9c-.35-.12-.82.3-.31.78s5.58 3.31 6.84 4.58c.67.68 4.4 3.78 4.4 3.78zM198.94 226.72s-3-2.15-4.09-3a17.92 17.92 0 00-3.52-2.09c-.78-.31-3.26-2-3.89-1.93s-.05.71.65 1 6 3.14 6.56 3.44 3.66 2.63 3.66 2.63z"/><path d="M210.22 69.17c-1 5.17 1.5 9.94 5.49 10.68s8-2.85 9-8-1.5-10-5.5-10.69-8 2.85-8.95 8" fill="url(#prefix__linear-gradient-15)"/><path d="M160.83 69.43c.92 5.17-1.49 9.92-5.39 10.62s-7.81-2.94-8.73-8.11 1.49-9.94 5.39-10.61 7.81 2.93 8.73 8.1" fill="url(#prefix__linear-gradient-16)"/><path d="M153.45 56.48c0 11.53 3 23.29 8.72 29.8 7.15 8.13 21 11.68 23.34 11.68 5.3 0 16-3.71 23.32-11.67 5.82-6.31 8.24-18.27 8.24-29.81 0-24-10.86-34-31.56-34s-32.06 10-32.06 34" fill="url(#prefix__radial-gradient-4)"/><path d="M198 64.26c0 2.37 1.49 4.29 3.31 4.29s3.31-1.92 3.31-4.29-1.47-4.26-3.3-4.26-3.32 1.89-3.32 4.26" fill="url(#prefix__radial-gradient-5)"/><path d="M185.28 77a1 1 0 01-.43-.1l-2.29-1.24 2-5.8c.1-.37.17-.8.6-.72s0 .76-.11 1.13l-.67 4.73 1.33.71a.63.63 0 01.25 1 .83.83 0 01-.68.32" fill="#df9c5c"/><path class="prefix__cls-1" d="M197.22 68.55h17.35v13.6h-17.35zM157.18 68.55h17.35v13.6h-17.35z"/><path class="prefix__cls-1" d="M197.22 68.55h17.35v13.6h-17.35zM157.18 68.55h17.35v13.6h-17.35z"/><path class="prefix__cls-32" d="M204.77 51.48c-3.92-.67-6.29.13-8.09 3.57a8.7 8.7 0 017.08-2.23 13.52 13.52 0 016.45 2.44 7.58 7.58 0 00-5.44-3.78"/><path d="M177.67 82c1.89 1.9 6.53 3.17 7.84 3.1s5.94-1.2 7.83-3.1" stroke="#de816a" stroke-linecap="round" stroke-linejoin="round" fill="none"/><path d="M175.5 12.22c-17.42 5.35-29.35 16.85-33.94 38.09s3.31 30 11.05 36.52a29.7 29.7 0 0018.72 6.67c-8.46-2.65-18.13-8-18-24.87.13-12.88 12.83-22.15 25.13-29.25a71.58 71.58 0 0119.81-7.6s29.82 20.31 9.73 51.94c0 0 6.6-3.28 9.28-8.74-1.38 8.53-9.45 16.39-17.6 21a32 32 0 0015.77-7.35c7.75-6.54 17.92-17.16 14.07-38.54-3.27-18.13-9.15-24.94-15.63-30.29s-14.32-2.89-14.32-2.89-4.15-6.25-14.47-6.25a32.53 32.53 0 00-9.6 1.57" fill="url(#prefix__radial-gradient-10)"/><path d="M200.53 60.7s4.29-2 6.45 4.5c0 0-.38-4.89-4.79-5.57s-4.79 3.86-4.79 3.86 1.3-2.79 3.13-2.79z" fill="url(#prefix__radial-gradient-11)"/><path d="M173.3 64.26c0 2.37-1.49 4.29-3.31 4.29s-3.31-1.92-3.31-4.29S168.16 60 170 60s3.31 1.92 3.31 4.29" fill="url(#prefix__radial-gradient-12)"/><path class="prefix__cls-32" d="M166.83 51.4c3.92-.78 6.31-.06 8.19 3.32a8.67 8.67 0 00-7.13-2 13.66 13.66 0 00-6.38 2.64 7.62 7.62 0 015.32-4"/><path d="M170.78 60.7s-4.29-2-6.45 4.5c0 0 .38-4.89 4.79-5.57s4.79 3.86 4.79 3.86-1.3-2.79-3.13-2.79z" fill="url(#prefix__radial-gradient-13)"/><path d="M220.63 41.55s14.64 22 2.7 39c0 0 6.58-15.47-2.7-39z" fill="url(#prefix__radial-gradient-14)"/><path d="M150.44 84.92a30.74 30.74 0 01-2.34-4.75c-3.32-8.26-7.39-26.15 8.59-44.78 0 0-23.62 21.7-9.74 45.92z" fill="url(#prefix__radial-gradient-15)"/><path d="M217.28 75s4.44-5.66 4.44-21c0 0 3.06 19.35-6.83 27.62z" fill="url(#prefix__radial-gradient-16)"/><path d="M142.75 258.44c-.22.51-.11 2.61.82 2.61h91c.92 0 .94-2.23.73-2.74l-.68.28L224 234a3 3 0 00-2.64-1.34h-64.65a3 3 0 00-2.64 1.34z" fill="#2e2523"/><path d="M142.84 258.31c-.22.51.37.93 1.3.93H234c.94 0 1.52-.42 1.31-.93l-10.89-25.82a3 3 0 00-2.66-1.38h-65.3a3 3 0 00-2.66 1.38z" fill="#3d3a39"/><path d="M230.21 257h-82.12c-1.05 0-.65-.79-.65-.79l9.38-22.2a1 1 0 011-.58h62.58a1 1 0 011 .69l9.3 22s.3.88-.49.88z" fill="#fff"/><path fill="#767676" d="M223.49 239.21h-69.02l1.3-2.9h66.46l1.26 2.9z"/><path stroke="#1d462b" stroke-width=".94" fill="none" d="M199.4 249.28h-21.72l.58-4.05h20.61l.53 4.05z"/></g></g></svg>