<svg id="レイヤー_1" data-name="レイヤー 1" xmlns="http://www.w3.org/2000/svg" xmlns:xlink="http://www.w3.org/1999/xlink" viewBox="0 0 370 280"><defs><style>.cls-1,.cls-16,.cls-19,.cls-20,.cls-23{fill:none;}.cls-2{clip-path:url(#clip-path);}.cls-3{fill:#e4c39c;}.cls-4{fill:#ffe5bb;}.cls-5{fill:url(#radial-gradient);}.cls-6{fill:url(#radial-gradient-2);}.cls-7{fill:url(#radial-gradient-3);}.cls-8{fill:url(#radial-gradient-4);}.cls-9{fill:url(#linear-gradient);}.cls-10{fill:#38070f;}.cls-11{fill:#e5a782;}.cls-12{fill:#606065;}.cls-13{fill:#9e9da5;}.cls-14{fill:#616167;}.cls-15{fill:#fff;}.cls-16,.cls-19{stroke:#bcbcbc;}.cls-16{stroke-width:0.34px;}.cls-17{fill:#808183;}.cls-18{fill:#cfced1;}.cls-19{stroke-width:0.25px;}.cls-20,.cls-23{stroke:#2d7300;}.cls-20{stroke-width:0.73px;}.cls-21{fill:url(#radial-gradient-5);}.cls-22{fill:url(#linear-gradient-2);}</style><clipPath id="clip-path"><rect class="cls-1" x="-9.59" y="-12.7" width="386.16" height="301.33"/></clipPath><radialGradient id="radial-gradient" cx="318.66" cy="-109.73" r="28.35" gradientTransform="matrix(1, -0.02, 0.01, 0.81, -24.78, 270.85)" gradientUnits="userSpaceOnUse"><stop offset="0" stop-color="#c2c2c2"/><stop offset="0.31" stop-color="#939394"/></radialGradient><radialGradient id="radial-gradient-2" cx="324.45" cy="255.09" r="57.21" gradientTransform="matrix(1, -0.02, 0.02, 1, -29.75, -51.1)" xlink:href="#radial-gradient"/><radialGradient id="radial-gradient-3" cx="346.62" cy="287" r="36.13" gradientTransform="matrix(1, -0.02, 0.02, 1, -29.75, -51.1)" xlink:href="#radial-gradient"/><radialGradient id="radial-gradient-4" cx="341.89" cy="295.79" r="33.9" gradientTransform="matrix(1, -0.02, 0.02, 1, -29.75, -51.1)" gradientUnits="userSpaceOnUse"><stop offset="0" stop-color="#f6e2d0"/><stop offset="1" stop-color="#f5d0b5"/></radialGradient><linearGradient id="linear-gradient" x1="4579.75" y1="976.29" x2="4616.82" y2="976.29" gradientTransform="matrix(-0.99, -0.13, -0.13, 0.99, 5018.13, -87.37)" gradientUnits="userSpaceOnUse"><stop offset="0" stop-color="#c5c5c5"/><stop offset="0.04" stop-color="#cacaca"/><stop offset="0.24" stop-color="#e1e1e1"/><stop offset="0.46" stop-color="#f2f2f2"/><stop offset="0.69" stop-color="#fcfcfc"/><stop offset="1" stop-color="#fff"/></linearGradient><radialGradient id="radial-gradient-5" cx="163.82" cy="274.93" r="32.3" xlink:href="#radial-gradient-4"/><linearGradient id="linear-gradient-2" x1="-3.02" y1="392.13" x2="34.05" y2="392.13" gradientTransform="translate(116.68 -148.08) rotate(1.64)" xlink:href="#linear-gradient"/></defs><title>アートボード 107</title><g class="cls-2"><polygon class="cls-3" points="413.13 283.39 407.62 -30.63 -37 -62.37 -31.51 250.9 413.13 283.39"/><polygon class="cls-4" points="413.03 278.18 407.53 -35.84 -37.09 -67.58 -31.6 245.69 413.03 278.18"/><path class="cls-5" d="M297.92,199.31a50.6,50.6,0,0,0-3.33-6.74c-1.59-2.75-1.7-5-.34-6.4,1.63-1.7,5.26-2.14,10.76-1.31,5.95.9,11.55-.75,13.32-3.94s-.89-7.57-7.48-11.7c-16.05-10-46.73-14.6-47-14.65l.27-1.19c.32,0,31.35,4.66,47.68,14.88,7.19,4.49,10.08,9.29,7.93,13.16-2.05,3.69-8.35,5.64-15,4.63-4.85-.73-8.06-.43-9.3.86s-.24,3.81.52,5.13a52.3,52.3,0,0,1,3.4,6.91l-1.43.36Z"/><path class="cls-6" d="M300.34,197.08c-3,.24-8.14,4.57-9,11.58-.66,5.22,4,28.72,11,29.6s21-9.06,21.47-11.55-.26-15.39-3.08-19.56S312,196.13,300.34,197.08Z"/><path class="cls-7" d="M303.12,227.82c-6.45-6.41-9.24-19.45-10.11-24.53a15.61,15.61,0,0,0-1.69,5.37c-.66,5.22,4,28.72,11,29.6,2.94.36,7.13-1.19,11-3.29A36.8,36.8,0,0,1,303.12,227.82Z"/><path class="cls-8" d="M339,252.22c-.85-6.87-.42-16.45-.43-20.55,0-3.93-4.6-11.14-8.28-14.8a45,45,0,0,0-5.11-6.88,94.68,94.68,0,0,0-7.95-7.31,4,4,0,0,0-3.47-.68,11.67,11.67,0,0,0-3.47-2,3.4,3.4,0,0,0-3.39.62,8.3,8.3,0,0,0-3.34-2c-1.66-.35-2.87,1.16-3,3.21-4.17,1-3.5,6.24-2.08,8.16,1.15,1.57,3.16,4.86,3.4,8.21s1.64,11.37-.26,10.91c-1-.25-3.1-2.32-4.11-4.69-1.52-3.54-1.94-7.87-3.52-8.88-4-2.54-5.19,2.1-4,7.52s3.56,14,5.14,15.92c1,1.24,6.84,5.14,12.17,8.42,3,1.84,6.13,4.66,6.65,6.26,1.45,4.45,1.09,7.95,4.24,20l27.07,2.63C341.3,261.49,339.85,259.08,339,252.22Z"/><path class="cls-9" d="M345.62,259.88s-7.82-5.65-20.12-3.7c-10.28,1.62-13.39,8.36-13.39,8.36l1.51,8.35s29.85-8.29,35.57-6Z"/><path class="cls-10" d="M351.35,265.52s-11.26-6-22-4.95-18.47,9.9-18.47,9.9l6.27,45.75,48.3.8Z"/><path class="cls-11" d="M300.57,201.85s4.18,5.21,4.95,6.68,2.44,3.81,3.23,6.4.27,4.84-1.31-.35a44.15,44.15,0,0,0-3.43-6.89,25.87,25.87,0,0,0-4.21-5.51Z"/><path class="cls-11" d="M306.9,200.63s4.33,6.25,5.86,8.27,2.13,4.44,2.51,5,2.1,2.19.93-.76-3.47-5.53-4.42-6.82-4.22-5.88-4.22-5.88Z"/><path class="cls-11" d="M313.76,202s4.19,4.58,5.91,7a30.25,30.25,0,0,1,2.9,5.16c.38.74,1.9,1.65.73-1.13s-5.75-7.72-6.51-8.45a27.41,27.41,0,0,1-2.1-2.57Z"/><path class="cls-12" d="M125.72,157.44a4.21,4.21,0,0,1-3.94-4.48L129,49.53a4.51,4.51,0,0,1,4.52-4.13l154.13,1.7c2.33,0,6.09,3.22,6,5.54l-4.32,110.81a4.11,4.11,0,0,1-4.39,4Z"/><path class="cls-13" d="M123.79,156.21a4.21,4.21,0,0,1-3.94-4.48L127,48.3a4.51,4.51,0,0,1,4.53-4.13L287.61,47.1a4.14,4.14,0,0,1,4.07,4.3l-4.31,110.81a4.13,4.13,0,0,1-4.4,4Z"/><path class="cls-12" d="M125.76,159.76a8.25,8.25,0,0,0-6.61,3.23L68.73,230.62c-1.31,1.92-.52,7.16,1.81,7.33l188.19,14.1a5.63,5.63,0,0,0,5.51-3.71L287.89,174c.7-2.21-.31-7.24-4.92-7.84Z"/><path class="cls-13" d="M123.79,156a8.25,8.25,0,0,0-6.61,3.23L68.73,230.62c-1.31,1.92-.47,3.64,1.85,3.81l186.18,13.86a5.64,5.64,0,0,0,5.5-3.71l23.66-74.33A3.14,3.14,0,0,0,283,166Z"/><path class="cls-14" d="M71.81,203.89c.13.63-.39,3.45-1.09,3.52l-47.87,4.67c-.7.07-1.33-2.72-1.37-3.36L17.72,146c0-.64.38-2.23,1.08-2.3l37.64-1.79A1.42,1.42,0,0,1,58,143Z"/><path class="cls-13" d="M71.77,203.82a.71.71,0,0,1-.67.84l-48.72,4.75a.79.79,0,0,1-.9-.69l-4.41-64.88a.83.83,0,0,1,.79-.85l39-3.8a.94.94,0,0,1,1,.67Z"/><path class="cls-15" d="M19.34,146a1.26,1.26,0,0,1,1.18-1.29l34.18-3.33a1.39,1.39,0,0,1,1.5,1L67.83,198a1.07,1.07,0,0,1-1,1.26l-42.1,4.21a1.19,1.19,0,0,1-1.35-1Z"/><polygon class="cls-16" points="21.48 148.8 54.92 145.58 65.12 193.68 25.14 197.71 21.48 148.8"/><path class="cls-12" d="M144.77,211.15a4,4,0,0,0-3.21,1.61l-9.19,14c-.64,1-.24,1.82.89,1.91l67.41,5.2a2.73,2.73,0,0,0,2.67-1.85l4.53-14.68a1.57,1.57,0,0,0-1.43-2.15Z"/><path class="cls-17" d="M129.32,165c.13-.19,0-.36-.19-.38l-6.25-.36a.81.81,0,0,0-.66.32l-2.47,3.66c-.14.2,0,.36.18.38l6.33.38a.82.82,0,0,0,.65-.33Z"/><path class="cls-17" d="M135.88,169.58a.84.84,0,0,0,.66-.33l2.33-3.69c.13-.2,0-.37-.19-.38l-6.3-.37a.84.84,0,0,0-.66.33l-2.41,3.67a.22.22,0,0,0,.19.38Z"/><path class="cls-17" d="M145.58,170.16a.78.78,0,0,0,.64-.34l2.28-3.7c.12-.2,0-.37-.21-.38l-6.37-.38a.8.8,0,0,0-.65.34l-2.34,3.68c-.12.2,0,.37.2.39Z"/><path class="cls-17" d="M155.31,170.74a.78.78,0,0,0,.64-.34l2.2-3.72c.12-.2,0-.37-.21-.39l-6.42-.36a.78.78,0,0,0-.65.33L148.6,170c-.12.2,0,.38.2.39Z"/><path class="cls-17" d="M165.11,171.33a.77.77,0,0,0,.63-.34l2.14-3.73a.25.25,0,0,0-.22-.4l-6.5-.37a.76.76,0,0,0-.64.34l-2.19,3.72c-.12.2,0,.37.21.39Z"/><path class="cls-17" d="M175,171.92a.74.74,0,0,0,.63-.35l2.06-3.74c.11-.21,0-.38-.23-.4l-6.54-.38a.75.75,0,0,0-.63.34l-2.13,3.74a.24.24,0,0,0,.22.39Z"/><path class="cls-17" d="M184.85,172.52a.75.75,0,0,0,.63-.35l2-3.77a.25.25,0,0,0-.23-.4l-6.61-.38a.77.77,0,0,0-.63.34l-2.05,3.76a.24.24,0,0,0,.22.39Z"/><path class="cls-17" d="M194.81,173.1a.67.67,0,0,0,.61-.35l1.91-3.77a.25.25,0,0,0-.23-.4l-6.67-.39a.7.7,0,0,0-.62.34l-2,3.77a.25.25,0,0,0,.22.4Z"/><path class="cls-17" d="M204.82,173.71a.71.71,0,0,0,.61-.36l1.84-3.79a.26.26,0,0,0-.25-.4l-6.73-.39a.7.7,0,0,0-.62.35l-1.91,3.78a.26.26,0,0,0,.24.4Z"/><path class="cls-17" d="M214.88,174.31a.69.69,0,0,0,.6-.36l1.76-3.81a.27.27,0,0,0-.25-.4l-6.8-.4a.69.69,0,0,0-.6.36l-1.83,3.79a.25.25,0,0,0,.23.4Z"/><path class="cls-17" d="M225,174.92a.65.65,0,0,0,.59-.37l1.68-3.82a.28.28,0,0,0-.25-.41l-6.86-.4a.66.66,0,0,0-.6.36l-1.75,3.81a.27.27,0,0,0,.24.41Z"/><path class="cls-17" d="M235.17,175.53a.65.65,0,0,0,.59-.37l1.6-3.84a.28.28,0,0,0-.26-.41l-6.92-.4a.63.63,0,0,0-.59.36l-1.68,3.83a.28.28,0,0,0,.26.41Z"/><path class="cls-17" d="M245.4,176.14a.63.63,0,0,0,.58-.36l1.53-3.86a.29.29,0,0,0-.27-.42l-7-.41a.64.64,0,0,0-.58.37l-1.6,3.84a.28.28,0,0,0,.25.42Z"/><path class="cls-17" d="M255.68,176.76a.6.6,0,0,0,.57-.37l1.44-3.88a.29.29,0,0,0-.27-.42l-7-.41a.6.6,0,0,0-.58.37l-1.52,3.86a.29.29,0,0,0,.27.42Z"/><path class="cls-17" d="M276.42,178a.57.57,0,0,0,.56-.37l1.28-3.92a.3.3,0,0,0-.29-.42l-17.41-1a.61.61,0,0,0-.57.37l-1.44,3.88a.3.3,0,0,0,.28.42Z"/><path class="cls-17" d="M130.39,171.5a.23.23,0,0,0-.19-.39l-11.5-.69a.85.85,0,0,0-.66.33l-2.59,3.81c-.13.19,0,.36.19.38l11.62.72a.81.81,0,0,0,.65-.33Z"/><path class="cls-17" d="M137.38,176.28A.78.78,0,0,0,138,176l2.4-3.85c.12-.2,0-.37-.2-.39l-6.77-.4a.82.82,0,0,0-.65.33l-2.47,3.84c-.13.2,0,.37.19.38Z"/><path class="cls-17" d="M147.55,176.92a.78.78,0,0,0,.64-.34l2.33-3.87a.24.24,0,0,0-.21-.39l-6.83-.41a.79.79,0,0,0-.65.34l-2.4,3.85c-.13.2,0,.37.2.38Z"/><path class="cls-17" d="M157.77,177.55a.77.77,0,0,0,.64-.34l2.25-3.89a.24.24,0,0,0-.21-.39l-6.92-.42a.78.78,0,0,0-.64.34l-2.32,3.87a.24.24,0,0,0,.21.39Z"/><path class="cls-17" d="M168.07,178.18a.71.71,0,0,0,.62-.34l2.18-3.91a.24.24,0,0,0-.22-.39l-7-.42a.75.75,0,0,0-.64.34l-2.25,3.9c-.12.2,0,.37.21.39Z"/><path class="cls-17" d="M178.41,178.82a.72.72,0,0,0,.62-.35l2.09-3.92a.24.24,0,0,0-.22-.39l-7.05-.43a.73.73,0,0,0-.62.34L171.06,178a.24.24,0,0,0,.21.4Z"/><path class="cls-17" d="M188.81,179.46a.69.69,0,0,0,.62-.35l2-3.94a.25.25,0,0,0-.23-.4l-7.11-.43a.72.72,0,0,0-.62.35l-2.09,3.93a.25.25,0,0,0,.22.4Z"/><path class="cls-17" d="M199.28,180.11a.71.71,0,0,0,.61-.35l1.93-4a.26.26,0,0,0-.23-.4L194.4,175a.67.67,0,0,0-.61.35l-2,3.94a.25.25,0,0,0,.23.4Z"/><path class="cls-17" d="M209.79,180.76a.69.69,0,0,0,.61-.36l1.85-4A.27.27,0,0,0,212,176l-7.24-.43a.66.66,0,0,0-.61.35l-1.93,4a.26.26,0,0,0,.23.41Z"/><path class="cls-17" d="M220.38,181.42a.67.67,0,0,0,.6-.36l1.77-4a.27.27,0,0,0-.25-.41l-7.32-.44a.69.69,0,0,0-.6.36l-1.85,4a.27.27,0,0,0,.25.41Z"/><path class="cls-17" d="M233.3,177.7a.28.28,0,0,0-.26-.41l-7.38-.45a.66.66,0,0,0-.59.36l-1.77,4a.28.28,0,0,0,.26.41l7.46.46a.63.63,0,0,0,.59-.36Z"/><path class="cls-17" d="M243.91,178.34a.29.29,0,0,0-.27-.42l-7.45-.45a.64.64,0,0,0-.58.37l-1.68,4a.29.29,0,0,0,.26.42l7.54.47a.64.64,0,0,0,.58-.37Z"/><path class="cls-17" d="M254.59,179a.29.29,0,0,0-.27-.42l-7.53-.46a.63.63,0,0,0-.57.37l-1.6,4a.29.29,0,0,0,.27.41l7.61.48a.63.63,0,0,0,.58-.37Z"/><path class="cls-17" d="M257.46,178.74a.63.63,0,0,0-.58.37l-1.5,4.06a.29.29,0,0,0,.27.42l7.68.48a.59.59,0,0,0,.56-.37l1.44-4.08a.31.31,0,0,0-.29-.42Z"/><path class="cls-17" d="M266.2,183.84a.31.31,0,0,0,.28.43l7.75.47a.56.56,0,0,0,.55-.37l1.34-4.09a.31.31,0,0,0-.29-.43l-7.65-.46a.59.59,0,0,0-.56.37Z"/><path class="cls-17" d="M121.06,177.53c.13-.19,0-.36-.19-.38l-6.46-.39a.84.84,0,0,0-.66.32l-2.7,4c-.13.19,0,.36.18.37l6.55.42a.81.81,0,0,0,.66-.32Z"/><path class="cls-17" d="M124.15,177.37a.8.8,0,0,0-.66.32l-2.63,4c-.13.19,0,.36.19.38l6.61.42a.8.8,0,0,0,.65-.33l2.55-4c.13-.2,0-.37-.19-.38Z"/><path class="cls-17" d="M133.92,178a.78.78,0,0,0-.65.33l-2.55,4a.24.24,0,0,0,.2.39l6.68.43a.82.82,0,0,0,.65-.34l2.48-4a.24.24,0,0,0-.21-.39Z"/><path class="cls-17" d="M150.63,179.37c.12-.2,0-.37-.21-.39l-6.66-.41a.8.8,0,0,0-.64.33l-2.48,4c-.12.2,0,.38.2.39l6.75.43a.75.75,0,0,0,.64-.33Z"/><path class="cls-17" d="M157.64,184.4a.74.74,0,0,0,.63-.34L160.6,180a.24.24,0,0,0-.22-.39l-6.72-.41a.72.72,0,0,0-.64.34l-2.4,4.05a.24.24,0,0,0,.21.39Z"/><path class="cls-17" d="M167.74,185a.72.72,0,0,0,.63-.34l2.24-4.08a.25.25,0,0,0-.22-.4l-6.79-.42a.75.75,0,0,0-.63.34l-2.32,4.07a.25.25,0,0,0,.22.4Z"/><path class="cls-17" d="M177.89,185.69a.7.7,0,0,0,.62-.35l2.17-4.1a.25.25,0,0,0-.22-.4l-6.85-.42a.71.71,0,0,0-.62.34l-2.25,4.09a.24.24,0,0,0,.22.39Z"/><path class="cls-17" d="M190.82,181.87a.26.26,0,0,0-.23-.4l-6.92-.43a.7.7,0,0,0-.62.35l-2.16,4.1a.25.25,0,0,0,.23.4l7,.45a.72.72,0,0,0,.62-.35Z"/><path class="cls-17" d="M198.39,187a.69.69,0,0,0,.6-.36l2-4.14a.26.26,0,0,0-.23-.4l-7-.43a.67.67,0,0,0-.61.35l-2.08,4.12a.26.26,0,0,0,.23.41Z"/><path class="cls-17" d="M208.72,187.65a.65.65,0,0,0,.6-.36l1.92-4.15a.27.27,0,0,0-.25-.41l-7-.43a.67.67,0,0,0-.61.35l-2,4.14a.26.26,0,0,0,.23.4Z"/><path class="cls-17" d="M221.53,183.78a.27.27,0,0,0-.25-.41l-7.1-.44a.66.66,0,0,0-.6.35l-1.91,4.16a.27.27,0,0,0,.25.41l7.19.46a.64.64,0,0,0,.59-.36Z"/><path class="cls-17" d="M231.89,184.42a.28.28,0,0,0-.26-.41l-7.17-.45a.66.66,0,0,0-.59.36L222,188.1a.29.29,0,0,0,.26.42l7.26.46a.64.64,0,0,0,.59-.36Z"/><path class="cls-17" d="M242.3,185.07a.29.29,0,0,0-.26-.42l-7.23-.45a.63.63,0,0,0-.58.37l-1.75,4.19a.28.28,0,0,0,.26.42l7.32.46a.61.61,0,0,0,.58-.36Z"/><path class="cls-17" d="M243,189.43a.29.29,0,0,0,.27.42l7.39.47a.62.62,0,0,0,.57-.37l1.58-4.23a.29.29,0,0,0-.28-.42l-7.3-.46a.64.64,0,0,0-.58.37Z"/><path class="cls-17" d="M129.14,184.86c.13-.19,0-.37-.2-.38L110,183.27a.83.83,0,0,0-.66.32l-2.83,4.16c-.13.19,0,.36.19.38l19.15,1.25a.78.78,0,0,0,.65-.33Z"/><path class="cls-17" d="M253.52,190.1a.3.3,0,0,0,.28.42l10,.63a.31.31,0,0,1,.29.43l-2.19,6.32a.3.3,0,0,0,.28.42l7.47.49a.57.57,0,0,0,.56-.37L273.9,187a.31.31,0,0,0-.29-.43l-18-1.11a.63.63,0,0,0-.57.37Z"/><path class="cls-17" d="M259,198.12a.6.6,0,0,0,.56-.37l1.55-4.45a.31.31,0,0,0-.29-.42l-7.31-.47a.6.6,0,0,0-.57.37l-1.63,4.43a.29.29,0,0,0,.28.42Z"/><path class="cls-17" d="M240.76,196.52a.29.29,0,0,0,.27.42l7.35.48a.61.61,0,0,0,.57-.37l1.63-4.41a.3.3,0,0,0-.27-.43l-7.24-.46a.6.6,0,0,0-.58.37Z"/><path class="cls-17" d="M230.3,195.84a.28.28,0,0,0,.26.41l7.29.48a.6.6,0,0,0,.57-.36l1.74-4.4a.29.29,0,0,0-.27-.42l-7.19-.46a.65.65,0,0,0-.59.36Z"/><path class="cls-17" d="M219.91,195.16a.27.27,0,0,0,.25.41l7.22.47a.63.63,0,0,0,.59-.36l1.82-4.38a.28.28,0,0,0-.26-.41l-7.12-.45a.63.63,0,0,0-.59.36Z"/><path class="cls-17" d="M209.57,194.48a.27.27,0,0,0,.25.41l7.14.47a.67.67,0,0,0,.6-.36l1.9-4.36a.27.27,0,0,0-.25-.41l-7.06-.45a.66.66,0,0,0-.6.35Z"/><path class="cls-17" d="M199.29,193.81a.27.27,0,0,0,.24.41l7.09.46a.66.66,0,0,0,.6-.35l2-4.34a.27.27,0,0,0-.25-.41l-7-.45a.69.69,0,0,0-.6.36Z"/><path class="cls-17" d="M189.06,193.14a.26.26,0,0,0,.24.4l7,.47a.69.69,0,0,0,.61-.36l2.07-4.32a.26.26,0,0,0-.24-.4l-6.92-.44a.69.69,0,0,0-.61.35Z"/><path class="cls-17" d="M181.76,187.84a.74.74,0,0,0-.62.35l-2.24,4.29a.25.25,0,0,0,.23.4l7,.46a.7.7,0,0,0,.61-.35l2.16-4.31a.26.26,0,0,0-.23-.4Z"/><path class="cls-17" d="M171.75,187.21a.72.72,0,0,0-.63.34l-2.32,4.26a.25.25,0,0,0,.22.4l6.89.46a.69.69,0,0,0,.61-.35l2.25-4.28a.25.25,0,0,0-.23-.4Z"/><path class="cls-17" d="M161.77,186.57a.73.73,0,0,0-.63.34l-2.41,4.25a.24.24,0,0,0,.21.39l6.84.45a.74.74,0,0,0,.63-.34l2.33-4.27c.12-.2,0-.38-.22-.39Z"/><path class="cls-17" d="M151.86,185.94a.74.74,0,0,0-.63.34l-2.48,4.23c-.12.2,0,.37.21.39l6.75.44a.74.74,0,0,0,.63-.34l2.41-4.25a.24.24,0,0,0-.21-.39Z"/><path class="cls-17" d="M142,185.31a.75.75,0,0,0-.64.33l-2.56,4.21c-.12.2,0,.38.2.39l6.7.44a.73.73,0,0,0,.64-.34l2.49-4.22c.12-.2,0-.37-.21-.39Z"/><path class="cls-17" d="M139,185.49c.13-.2,0-.37-.2-.39l-6.55-.41a.77.77,0,0,0-.65.33l-2.64,4.19c-.12.2,0,.38.2.39l6.63.43a.75.75,0,0,0,.64-.33Z"/><path class="cls-17" d="M129.57,191.92a.24.24,0,0,0-.2-.39L105.46,190a.81.81,0,0,0-.65.33l-3,4.33c-.13.19,0,.36.19.38l24.15,1.63a.75.75,0,0,0,.64-.33Z"/><path class="cls-17" d="M243.54,204.16a.3.3,0,0,0,.27.42l23.39,1.59a.59.59,0,0,0,.56-.38l1.53-4.66a.32.32,0,0,0-.3-.43l-23.12-1.52a.63.63,0,0,0-.58.37Z"/><path class="cls-17" d="M132.63,191.74a.8.8,0,0,0-.65.34l-2.72,4.38c-.12.2,0,.38.2.39l6.84.46A.75.75,0,0,0,137,197l2.64-4.4c.12-.2,0-.37-.21-.39Z"/><path class="cls-17" d="M139.36,197.14c-.12.2,0,.38.2.39l6.91.47a.78.78,0,0,0,.64-.34l2.55-4.42a.24.24,0,0,0-.21-.39l-6.82-.45a.78.78,0,0,0-.64.34Z"/><path class="cls-17" d="M152.7,193.07a.73.73,0,0,0-.64.34l-2.55,4.42a.24.24,0,0,0,.22.39l7,.47a.72.72,0,0,0,.63-.34l2.46-4.44c.12-.2,0-.38-.22-.39Z"/><path class="cls-17" d="M162.82,193.73a.73.73,0,0,0-.63.34l-2.47,4.44a.25.25,0,0,0,.22.4l7,.48a.72.72,0,0,0,.62-.35l2.39-4.45a.25.25,0,0,0-.23-.4Z"/><path class="cls-17" d="M170,199.21a.26.26,0,0,0,.23.4l7.11.48a.67.67,0,0,0,.61-.35l2.3-4.48a.26.26,0,0,0-.24-.4l-7-.46a.71.71,0,0,0-.62.34Z"/><path class="cls-17" d="M180.32,199.91a.26.26,0,0,0,.23.4l7.17.48a.66.66,0,0,0,.61-.35l2.21-4.49a.26.26,0,0,0-.24-.41l-7.07-.47a.69.69,0,0,0-.61.35Z"/><path class="cls-17" d="M200.91,196.63a.27.27,0,0,0-.24-.41l-7.15-.47a.69.69,0,0,0-.61.35l-2.21,4.51a.26.26,0,0,0,.24.4l7.24.49a.68.68,0,0,0,.6-.35Z"/><path class="cls-17" d="M203.88,196.43a.66.66,0,0,0-.61.35l-2.12,4.52a.27.27,0,0,0,.24.42l7.31.49a.66.66,0,0,0,.59-.36l2-4.54a.27.27,0,0,0-.25-.41Z"/><path class="cls-17" d="M221.82,198a.28.28,0,0,0-.25-.42l-7.28-.47a.65.65,0,0,0-.6.36l-2,4.54a.28.28,0,0,0,.25.42l7.37.49a.62.62,0,0,0,.59-.35Z"/><path class="cls-17" d="M224.75,197.8a.64.64,0,0,0-.59.36l-1.94,4.56a.28.28,0,0,0,.26.42l7.45.51a.64.64,0,0,0,.58-.37l1.85-4.58a.29.29,0,0,0-.27-.42Z"/><path class="cls-17" d="M235.28,198.49a.62.62,0,0,0-.58.36l-1.85,4.59a.3.3,0,0,0,.27.43l7.51.5a.6.6,0,0,0,.57-.37l1.76-4.6a.3.3,0,0,0-.27-.43Z"/><path class="cls-17" d="M100.79,196.84a.82.82,0,0,0-.66.33l-3.07,4.52c-.13.2,0,.37.19.38l6.92.48a.8.8,0,0,0,.65-.32l3-4.54c.13-.19,0-.36-.19-.38Z"/><path class="cls-17" d="M110.9,197.53a.78.78,0,0,0-.65.32l-3,4.55c-.13.19,0,.36.19.38l7,.48a.77.77,0,0,0,.65-.32l2.9-4.56c.13-.2,0-.37-.19-.38Z"/><path class="cls-17" d="M121.07,198.22a.78.78,0,0,0-.65.33l-2.89,4.56a.23.23,0,0,0,.19.39l7,.49a.77.77,0,0,0,.64-.33l2.82-4.58a.24.24,0,0,0-.2-.39Z"/><path class="cls-17" d="M151.93,200.3a.77.77,0,0,0-.63.34l-2.64,4.63a.25.25,0,0,0,.22.4l7.25.5a.71.71,0,0,0,.63-.34l2.55-4.63c.11-.21,0-.39-.22-.4Z"/><path class="cls-17" d="M201.77,209a.27.27,0,0,0,.25.41l7.62.54a.66.66,0,0,0,.59-.36l2.07-4.76a.27.27,0,0,0-.25-.41l-7.5-.51a.66.66,0,0,0-.6.35Z"/><path class="cls-17" d="M212.58,209.71a.28.28,0,0,0,.26.41l7.67.54a.62.62,0,0,0,.59-.36l2-4.77a.28.28,0,0,0-.26-.42l-7.58-.52a.64.64,0,0,0-.59.36Z"/><path class="cls-17" d="M223.46,210.47a.28.28,0,0,0,.26.41l7.75.55a.63.63,0,0,0,.58-.37l1.89-4.8a.28.28,0,0,0-.26-.42l-7.64-.52a.63.63,0,0,0-.59.36Z"/><path class="cls-17" d="M234.41,211.23a.29.29,0,0,0,.26.42l7.81.54a.62.62,0,0,0,.58-.36l1.8-4.83a.29.29,0,0,0-.28-.42l-7.71-.53a.63.63,0,0,0-.58.37Z"/><path class="cls-17" d="M245.41,212a.3.3,0,0,0,.27.43l7.89.54a.57.57,0,0,0,.56-.37l1.7-4.84a.31.31,0,0,0-.29-.43l-7.77-.53a.61.61,0,0,0-.57.37Z"/><path class="cls-17" d="M264.73,213.74a.56.56,0,0,0,.55-.37l1.6-4.87a.32.32,0,0,0-.29-.43l-7.86-.53a.59.59,0,0,0-.56.36l-1.68,4.86a.3.3,0,0,0,.28.42Z"/><path class="cls-17" d="M131.29,198.91a.77.77,0,0,0-.64.33l-2.81,4.59c-.12.2,0,.37.21.39l17.57,1.23a.77.77,0,0,0,.63-.34l2.64-4.63a.25.25,0,0,0-.22-.4Z"/><path class="cls-17" d="M162.33,201a.75.75,0,0,0-.63.34L159.15,206a.26.26,0,0,0,.23.4l39.42,2.75a.65.65,0,0,0,.6-.35l2.19-4.74a.28.28,0,0,0-.25-.41Z"/><path class="cls-18" d="M128.68,164.38c.12-.2,0-.37-.19-.38l-6.26-.37a.87.87,0,0,0-.66.33l-2.47,3.66c-.13.19,0,.36.18.38l6.33.38a.84.84,0,0,0,.66-.33Z"/><path class="cls-18" d="M135.24,169a.8.8,0,0,0,.65-.34l2.34-3.68c.12-.2,0-.37-.2-.38l-6.3-.37a.79.79,0,0,0-.65.33l-2.42,3.67a.23.23,0,0,0,.19.38Z"/><path class="cls-18" d="M144.93,169.53a.75.75,0,0,0,.64-.33l2.28-3.7a.24.24,0,0,0-.2-.39l-6.38-.37a.83.83,0,0,0-.65.33l-2.33,3.69a.23.23,0,0,0,.19.39Z"/><path class="cls-18" d="M154.67,170.12a.77.77,0,0,0,.63-.34l2.21-3.72a.24.24,0,0,0-.21-.39l-6.43-.37a.78.78,0,0,0-.64.34l-2.28,3.7c-.12.2,0,.37.21.39Z"/><path class="cls-18" d="M164.46,170.71a.75.75,0,0,0,.63-.34l2.14-3.74a.24.24,0,0,0-.21-.39l-6.5-.37a.74.74,0,0,0-.64.33l-2.2,3.73c-.12.2,0,.37.21.39Z"/><path class="cls-18" d="M174.31,171.3a.72.72,0,0,0,.62-.35l2.06-3.74a.25.25,0,0,0-.22-.4l-6.55-.38a.74.74,0,0,0-.63.34l-2.12,3.74a.24.24,0,0,0,.21.39Z"/><path class="cls-18" d="M184.21,171.89a.7.7,0,0,0,.62-.35l2-3.76a.25.25,0,0,0-.22-.4L180,167a.71.71,0,0,0-.62.34l-2.06,3.76a.24.24,0,0,0,.22.39Z"/><path class="cls-18" d="M194.16,172.48a.7.7,0,0,0,.62-.35l1.91-3.77a.27.27,0,0,0-.24-.41l-6.67-.38a.71.71,0,0,0-.62.34l-2,3.77a.26.26,0,0,0,.23.4Z"/><path class="cls-18" d="M204.18,173.09a.69.69,0,0,0,.6-.36l1.84-3.79a.26.26,0,0,0-.24-.4l-6.74-.4a.7.7,0,0,0-.61.36l-1.91,3.78a.26.26,0,0,0,.23.4Z"/><path class="cls-18" d="M214.23,173.69a.66.66,0,0,0,.6-.36l1.76-3.81a.27.27,0,0,0-.25-.41l-6.79-.39a.69.69,0,0,0-.61.36l-1.83,3.79a.26.26,0,0,0,.24.4Z"/><path class="cls-18" d="M224.35,174.3a.68.68,0,0,0,.6-.37l1.68-3.82a.28.28,0,0,0-.26-.41l-6.86-.4a.67.67,0,0,0-.6.36l-1.75,3.81a.27.27,0,0,0,.24.41Z"/><path class="cls-18" d="M234.53,174.9a.63.63,0,0,0,.58-.36l1.6-3.84a.29.29,0,0,0-.26-.42l-6.92-.4a.65.65,0,0,0-.59.37l-1.67,3.82a.28.28,0,0,0,.25.42Z"/><path class="cls-18" d="M244.75,175.52a.61.61,0,0,0,.58-.36l1.53-3.86a.29.29,0,0,0-.27-.42l-7-.41a.63.63,0,0,0-.59.36l-1.6,3.85a.28.28,0,0,0,.26.41Z"/><path class="cls-18" d="M255,176.14a.63.63,0,0,0,.58-.37l1.44-3.88a.3.3,0,0,0-.28-.42l-7-.41a.6.6,0,0,0-.57.36l-1.53,3.87a.29.29,0,0,0,.27.42Z"/><path class="cls-18" d="M275.78,177.38a.58.58,0,0,0,.55-.37l1.29-3.92a.32.32,0,0,0-.29-.43l-17.41-1a.62.62,0,0,0-.58.37l-1.43,3.88a.29.29,0,0,0,.28.42Z"/><path class="cls-18" d="M129.75,170.87c.13-.19,0-.36-.2-.38l-11.49-.69a.82.82,0,0,0-.66.33l-2.59,3.81c-.13.19,0,.36.18.38l11.62.72a.78.78,0,0,0,.65-.33Z"/><path class="cls-18" d="M136.73,175.66a.77.77,0,0,0,.65-.33l2.41-3.85a.24.24,0,0,0-.2-.39l-6.78-.4a.81.81,0,0,0-.65.33l-2.47,3.84c-.13.19,0,.36.2.38Z"/><path class="cls-18" d="M146.9,176.29a.75.75,0,0,0,.64-.33l2.33-3.88c.12-.2,0-.37-.2-.38l-6.84-.41a.83.83,0,0,0-.65.33l-2.4,3.86a.23.23,0,0,0,.2.38Z"/><path class="cls-18" d="M157.13,176.92a.71.71,0,0,0,.63-.34L160,172.7a.24.24,0,0,0-.22-.39l-6.91-.42a.77.77,0,0,0-.64.34l-2.32,3.87a.24.24,0,0,0,.2.39Z"/><path class="cls-18" d="M167.42,177.56a.75.75,0,0,0,.63-.34l2.17-3.91a.24.24,0,0,0-.21-.39l-7-.42a.73.73,0,0,0-.63.34l-2.26,3.89a.25.25,0,0,0,.22.4Z"/><path class="cls-18" d="M177.76,178.2a.72.72,0,0,0,.62-.35l2.1-3.92a.25.25,0,0,0-.22-.4l-7-.42a.73.73,0,0,0-.63.34l-2.17,3.91a.25.25,0,0,0,.22.4Z"/><path class="cls-18" d="M188.17,178.84a.67.67,0,0,0,.61-.35l2-3.94a.26.26,0,0,0-.23-.4l-7.11-.43a.7.7,0,0,0-.62.35l-2.1,3.93a.25.25,0,0,0,.23.4Z"/><path class="cls-18" d="M198.63,179.49a.7.7,0,0,0,.61-.36l1.94-3.95a.26.26,0,0,0-.24-.4l-7.18-.44a.73.73,0,0,0-.62.35l-2,3.95a.26.26,0,0,0,.23.4Z"/><path class="cls-18" d="M209.15,180.14a.69.69,0,0,0,.6-.36l1.86-4a.27.27,0,0,0-.24-.41l-7.25-.43a.66.66,0,0,0-.61.35l-1.93,4a.27.27,0,0,0,.24.41Z"/><path class="cls-18" d="M219.74,180.8a.66.66,0,0,0,.59-.36l1.77-4a.27.27,0,0,0-.25-.41l-7.31-.44a.69.69,0,0,0-.61.36l-1.84,4a.26.26,0,0,0,.24.4Z"/><path class="cls-18" d="M232.65,177.08a.28.28,0,0,0-.26-.42l-7.38-.44a.65.65,0,0,0-.59.36l-1.76,4a.27.27,0,0,0,.25.41l7.47.46a.67.67,0,0,0,.59-.36Z"/><path class="cls-18" d="M243.26,177.71a.28.28,0,0,0-.26-.41l-7.45-.45a.66.66,0,0,0-.59.36l-1.67,4a.29.29,0,0,0,.26.42l7.53.46a.62.62,0,0,0,.58-.36Z"/><path class="cls-18" d="M254,178.36a.3.3,0,0,0-.28-.42l-7.52-.46a.63.63,0,0,0-.58.37l-1.59,4a.28.28,0,0,0,.26.42l7.62.48a.63.63,0,0,0,.57-.37Z"/><path class="cls-18" d="M256.81,178.12a.62.62,0,0,0-.57.37l-1.51,4a.31.31,0,0,0,.28.43l7.67.48a.61.61,0,0,0,.57-.38l1.43-4.07a.3.3,0,0,0-.28-.42Z"/><path class="cls-18" d="M265.55,183.22a.31.31,0,0,0,.28.43l7.75.47a.58.58,0,0,0,.56-.37l1.34-4.09a.31.31,0,0,0-.3-.43l-7.65-.46a.59.59,0,0,0-.56.37Z"/><path class="cls-18" d="M120.42,176.91c.13-.19,0-.36-.19-.38l-6.46-.39a.83.83,0,0,0-.67.32l-2.7,4c-.13.19-.05.36.19.37l6.54.42a.78.78,0,0,0,.66-.33Z"/><path class="cls-18" d="M123.5,176.74a.85.85,0,0,0-.66.33l-2.63,4c-.13.19,0,.36.19.38l6.62.42a.83.83,0,0,0,.65-.33l2.55-4a.24.24,0,0,0-.2-.39Z"/><path class="cls-18" d="M133.28,177.35a.75.75,0,0,0-.65.33l-2.55,4c-.13.2,0,.37.19.38l6.68.43a.75.75,0,0,0,.65-.33l2.48-4c.12-.2,0-.38-.2-.39Z"/><path class="cls-18" d="M150,178.75c.12-.2,0-.37-.21-.39l-6.65-.41a.78.78,0,0,0-.65.33l-2.47,4c-.13.2,0,.37.2.39l6.74.43a.75.75,0,0,0,.64-.34Z"/><path class="cls-18" d="M157,183.78a.77.77,0,0,0,.63-.34l2.32-4.07c.12-.2,0-.38-.22-.39l-6.72-.41a.75.75,0,0,0-.64.33L150,183c-.12.2,0,.37.21.38Z"/><path class="cls-18" d="M167.1,184.42a.75.75,0,0,0,.63-.35L170,180a.24.24,0,0,0-.22-.39l-6.8-.42a.73.73,0,0,0-.63.34L160,183.59a.24.24,0,0,0,.21.39Z"/><path class="cls-18" d="M177.25,185.06a.71.71,0,0,0,.62-.34l2.16-4.1a.25.25,0,0,0-.22-.4L173,179.8a.72.72,0,0,0-.63.34l-2.25,4.09a.24.24,0,0,0,.22.39Z"/><path class="cls-18" d="M190.17,181.25a.25.25,0,0,0-.23-.4l-6.92-.43a.72.72,0,0,0-.62.35l-2.15,4.1a.25.25,0,0,0,.22.4l7,.45a.71.71,0,0,0,.62-.35Z"/><path class="cls-18" d="M197.74,186.37a.67.67,0,0,0,.61-.35l2-4.14a.26.26,0,0,0-.24-.4l-7-.43a.68.68,0,0,0-.62.35l-2.08,4.12a.27.27,0,0,0,.24.41Z"/><path class="cls-18" d="M208.08,187a.69.69,0,0,0,.6-.36l1.91-4.15a.27.27,0,0,0-.24-.41l-7-.43a.67.67,0,0,0-.61.35l-2,4.13a.27.27,0,0,0,.24.41Z"/><path class="cls-18" d="M220.89,183.16a.28.28,0,0,0-.26-.41l-7.1-.44a.66.66,0,0,0-.6.35L211,186.82a.27.27,0,0,0,.25.41l7.19.46a.64.64,0,0,0,.59-.36Z"/><path class="cls-18" d="M231.24,183.8a.28.28,0,0,0-.26-.41l-7.16-.45a.66.66,0,0,0-.6.36l-1.83,4.18a.27.27,0,0,0,.25.41l7.26.47a.63.63,0,0,0,.59-.36Z"/><path class="cls-18" d="M241.66,184.45a.29.29,0,0,0-.27-.42l-7.22-.45a.65.65,0,0,0-.59.37l-1.75,4.19a.29.29,0,0,0,.26.42l7.33.46a.63.63,0,0,0,.58-.36Z"/><path class="cls-18" d="M242.32,188.81a.29.29,0,0,0,.27.42l7.4.46a.6.6,0,0,0,.57-.36l1.57-4.23a.29.29,0,0,0-.28-.42l-7.29-.46a.62.62,0,0,0-.58.37Z"/><path class="cls-18" d="M128.5,184.24c.12-.2,0-.37-.2-.38l-19-1.21a.81.81,0,0,0-.66.32l-2.82,4.16c-.13.19-.05.36.18.37l19.16,1.26a.75.75,0,0,0,.64-.33Z"/><path class="cls-18" d="M252.88,189.48a.29.29,0,0,0,.28.42l10,.63a.31.31,0,0,1,.28.43l-2.19,6.32a.3.3,0,0,0,.29.42l7.47.49a.58.58,0,0,0,.55-.37l3.74-11.42A.31.31,0,0,0,273,186l-18-1.11a.63.63,0,0,0-.57.37Z"/><path class="cls-18" d="M258.32,197.5a.59.59,0,0,0,.56-.37l1.55-4.45a.3.3,0,0,0-.28-.42l-7.32-.47a.6.6,0,0,0-.57.37l-1.63,4.43a.3.3,0,0,0,.28.42Z"/><path class="cls-18" d="M240.11,195.9a.3.3,0,0,0,.27.42l7.35.48a.61.61,0,0,0,.57-.37l1.64-4.41a.31.31,0,0,0-.28-.43l-7.24-.46a.63.63,0,0,0-.58.36Z"/><path class="cls-18" d="M229.65,195.22a.28.28,0,0,0,.26.41l7.29.48a.63.63,0,0,0,.58-.36l1.73-4.4a.29.29,0,0,0-.27-.42l-7.19-.46a.64.64,0,0,0-.58.36Z"/><path class="cls-18" d="M219.27,194.53a.28.28,0,0,0,.25.42l7.21.47a.63.63,0,0,0,.59-.36l1.82-4.38a.29.29,0,0,0-.26-.42l-7.12-.44a.63.63,0,0,0-.59.35Z"/><path class="cls-18" d="M208.92,193.86a.28.28,0,0,0,.25.41l7.15.47a.66.66,0,0,0,.59-.36l1.91-4.36a.28.28,0,0,0-.26-.41l-7.05-.46a.66.66,0,0,0-.6.36Z"/><path class="cls-18" d="M198.64,193.19a.27.27,0,0,0,.25.41l7.08.46a.66.66,0,0,0,.6-.35l2-4.34a.27.27,0,0,0-.24-.41l-7-.45a.67.67,0,0,0-.61.36Z"/><path class="cls-18" d="M188.42,192.51a.26.26,0,0,0,.23.41l7,.46a.66.66,0,0,0,.6-.35l2.08-4.32a.27.27,0,0,0-.24-.41l-6.93-.43a.67.67,0,0,0-.61.35Z"/><path class="cls-18" d="M181.12,187.22a.68.68,0,0,0-.62.35l-2.25,4.29a.25.25,0,0,0,.23.4l7,.46a.71.71,0,0,0,.61-.35l2.16-4.31a.26.26,0,0,0-.24-.4Z"/><path class="cls-18" d="M171.1,186.58a.77.77,0,0,0-.63.35l-2.32,4.26a.25.25,0,0,0,.22.4l6.89.46a.74.74,0,0,0,.62-.35l2.25-4.28a.26.26,0,0,0-.23-.41Z"/><path class="cls-18" d="M161.12,186a.71.71,0,0,0-.63.34l-2.4,4.24a.25.25,0,0,0,.21.4l6.84.45a.77.77,0,0,0,.63-.34l2.33-4.27a.24.24,0,0,0-.22-.39Z"/><path class="cls-18" d="M151.22,185.32a.76.76,0,0,0-.64.34l-2.48,4.22a.25.25,0,0,0,.21.4l6.76.44a.77.77,0,0,0,.63-.34l2.41-4.25a.24.24,0,0,0-.22-.39Z"/><path class="cls-18" d="M141.36,184.69a.75.75,0,0,0-.64.33l-2.56,4.21a.23.23,0,0,0,.2.39l6.7.44a.76.76,0,0,0,.64-.34l2.48-4.22c.12-.2,0-.37-.21-.39Z"/><path class="cls-18" d="M138.32,184.87a.24.24,0,0,0-.2-.39l-6.56-.41a.75.75,0,0,0-.64.33l-2.64,4.19a.23.23,0,0,0,.19.39l6.63.43a.75.75,0,0,0,.65-.33Z"/><path class="cls-18" d="M128.92,191.3c.12-.2,0-.38-.2-.39l-23.9-1.57a.84.84,0,0,0-.66.32l-3,4.34a.23.23,0,0,0,.19.38L125.55,196a.8.8,0,0,0,.64-.33Z"/><path class="cls-18" d="M242.89,203.53a.3.3,0,0,0,.28.43l23.39,1.59a.58.58,0,0,0,.55-.38l1.53-4.66a.32.32,0,0,0-.29-.43l-23.13-1.52a.6.6,0,0,0-.57.37Z"/><path class="cls-18" d="M132,191.12a.8.8,0,0,0-.64.33l-2.72,4.39c-.12.2,0,.37.2.39l6.84.46a.75.75,0,0,0,.64-.33l2.64-4.4c.12-.2,0-.38-.2-.39Z"/><path class="cls-18" d="M138.71,196.52a.24.24,0,0,0,.21.39l6.91.47a.77.77,0,0,0,.63-.34l2.56-4.42a.24.24,0,0,0-.21-.39l-6.82-.45a.79.79,0,0,0-.65.34Z"/><path class="cls-18" d="M152.05,192.45a.71.71,0,0,0-.63.34l-2.55,4.42c-.12.2,0,.37.21.39l7,.47a.73.73,0,0,0,.63-.34l2.47-4.44a.24.24,0,0,0-.22-.39Z"/><path class="cls-18" d="M162.17,193.11a.71.71,0,0,0-.62.34l-2.48,4.44a.25.25,0,0,0,.22.4l7.05.48a.72.72,0,0,0,.62-.35l2.38-4.45a.25.25,0,0,0-.22-.4Z"/><path class="cls-18" d="M169.35,198.59a.25.25,0,0,0,.22.4l7.11.48a.69.69,0,0,0,.61-.35l2.3-4.48a.26.26,0,0,0-.23-.4l-7-.46a.68.68,0,0,0-.62.34Z"/><path class="cls-18" d="M179.67,199.28a.26.26,0,0,0,.23.41l7.17.48a.66.66,0,0,0,.61-.35l2.22-4.5a.26.26,0,0,0-.24-.4l-7.07-.47a.72.72,0,0,0-.62.35Z"/><path class="cls-18" d="M200.27,196a.27.27,0,0,0-.24-.41l-7.16-.47a.68.68,0,0,0-.61.35l-2.2,4.5a.26.26,0,0,0,.23.41l7.24.49a.67.67,0,0,0,.6-.36Z"/><path class="cls-18" d="M203.23,195.81a.66.66,0,0,0-.6.35l-2.13,4.52a.27.27,0,0,0,.25.41l7.3.5a.67.67,0,0,0,.6-.36l2-4.54a.27.27,0,0,0-.25-.41Z"/><path class="cls-18" d="M221.18,197.38a.29.29,0,0,0-.26-.42l-7.28-.47a.63.63,0,0,0-.59.35l-2,4.55a.28.28,0,0,0,.25.42l7.37.49a.63.63,0,0,0,.59-.36Z"/><path class="cls-18" d="M224.1,197.18a.61.61,0,0,0-.58.36l-1.94,4.56a.28.28,0,0,0,.25.42l7.45.5a.61.61,0,0,0,.58-.36l1.85-4.58a.28.28,0,0,0-.26-.42Z"/><path class="cls-18" d="M234.63,197.87a.63.63,0,0,0-.58.36l-1.84,4.59a.28.28,0,0,0,.26.42l7.51.51a.61.61,0,0,0,.58-.37l1.76-4.61a.3.3,0,0,0-.28-.42Z"/><path class="cls-18" d="M100.14,196.22a.84.84,0,0,0-.66.33l-3.06,4.52c-.13.19,0,.37.18.38l6.92.48a.81.81,0,0,0,.65-.32l3-4.54c.12-.19,0-.37-.19-.38Z"/><path class="cls-18" d="M110.26,196.91a.8.8,0,0,0-.66.32l-3,4.54c-.12.2,0,.37.19.39l7,.48a.78.78,0,0,0,.65-.33l2.9-4.55c.12-.2,0-.37-.2-.38Z"/><path class="cls-18" d="M120.43,197.6a.78.78,0,0,0-.66.33l-2.89,4.56a.22.22,0,0,0,.19.38l7.05.5a.83.83,0,0,0,.65-.33l2.81-4.58c.12-.2,0-.38-.2-.39Z"/><path class="cls-18" d="M151.29,199.68a.77.77,0,0,0-.64.34L148,204.65a.25.25,0,0,0,.21.4l7.26.5a.69.69,0,0,0,.62-.34l2.56-4.64a.25.25,0,0,0-.22-.4Z"/><path class="cls-18" d="M201.13,208.34a.27.27,0,0,0,.24.41l7.62.54a.66.66,0,0,0,.59-.36l2.08-4.76a.29.29,0,0,0-.26-.42l-7.5-.51a.69.69,0,0,0-.6.36Z"/><path class="cls-18" d="M211.94,209.09a.27.27,0,0,0,.25.41l7.68.54a.63.63,0,0,0,.58-.36l2-4.77a.29.29,0,0,0-.26-.42l-7.58-.52a.63.63,0,0,0-.59.36Z"/><path class="cls-18" d="M222.82,209.84a.28.28,0,0,0,.26.42l7.75.55a.61.61,0,0,0,.57-.37l1.9-4.8a.29.29,0,0,0-.27-.42l-7.64-.52a.63.63,0,0,0-.58.36Z"/><path class="cls-18" d="M233.76,210.61a.3.3,0,0,0,.27.42l7.81.54a.6.6,0,0,0,.57-.36l1.8-4.83a.29.29,0,0,0-.27-.42l-7.72-.53a.62.62,0,0,0-.58.37Z"/><path class="cls-18" d="M244.76,211.37a.31.31,0,0,0,.28.43l7.89.54a.58.58,0,0,0,.56-.37l1.69-4.84a.31.31,0,0,0-.28-.43l-7.78-.53a.6.6,0,0,0-.57.37Z"/><path class="cls-18" d="M264.08,213.12a.57.57,0,0,0,.56-.37l1.59-4.87a.31.31,0,0,0-.29-.43l-7.85-.54a.58.58,0,0,0-.56.37l-1.69,4.86a.3.3,0,0,0,.28.42Z"/><path class="cls-18" d="M130.65,198.29a.75.75,0,0,0-.65.33l-2.8,4.59a.24.24,0,0,0,.2.39L145,204.82a.72.72,0,0,0,.63-.33l2.64-4.63a.25.25,0,0,0-.21-.4Z"/><path class="cls-18" d="M161.68,200.39a.71.71,0,0,0-.62.34l-2.55,4.65a.25.25,0,0,0,.22.4l39.43,2.75a.63.63,0,0,0,.59-.35l2.19-4.74a.27.27,0,0,0-.25-.41Z"/><polygon class="cls-15" points="131.12 50.49 124.06 151.99 283.14 161.95 287.44 53.43 131.12 50.49"/><path class="cls-14" d="M48.05,204.18a1.94,1.94,0,1,1-2-1.73A1.85,1.85,0,0,1,48.05,204.18Z"/><polygon class="cls-19" points="227.54 134.67 153.44 130.27 157.42 79.44 230.83 81.42 227.54 134.67"/><line class="cls-19" x1="171.33" y1="131.34" x2="175.16" y2="79.92"/><line class="cls-19" x1="189.63" y1="132.42" x2="193.3" y2="80.41"/><line class="cls-19" x1="208.37" y1="133.53" x2="211.85" y2="80.91"/><line class="cls-19" x1="155.44" y1="104.71" x2="229.19" y2="107.89"/><path class="cls-20" d="M159.8,112.32s8.85-1.74,11.72-3.3,6.9-2.78,8.26-1,2.32,2,4.28-.12a49.87,49.87,0,0,1,5.56-6c3.15-2.56,7.76-5.31,11.41-8,2.42-1.76,4.91-4,7.26-5.36a48.54,48.54,0,0,1,6.29-2.77,20.82,20.82,0,0,1,5.78-2.33,26.69,26.69,0,0,1,5.51-.16"/><line class="cls-19" x1="235.51" y1="81.55" x2="258.81" y2="82.18"/><line class="cls-19" x1="234.98" y1="90.36" x2="258.31" y2="91.12"/><line class="cls-19" x1="234.44" y1="99.21" x2="257.81" y2="100.09"/><line class="cls-19" x1="233.9" y1="108.09" x2="257.31" y2="109.1"/><line class="cls-19" x1="233.36" y1="117.01" x2="256.81" y2="118.14"/><line class="cls-19" x1="232.81" y1="125.96" x2="256.3" y2="127.22"/><line class="cls-19" x1="232.27" y1="134.95" x2="255.8" y2="136.34"/><path class="cls-21" d="M167.5,203.33c-3,1-5.84,8-8.33,8.08-1.21,0-2.52-3.95-2.13-7.78.26-2.55,2-5,2.32-6.37,2.09-2.45,8.45-3,9.83-4.08,2-1.53,2.72-4.52-1-4.76a121.32,121.32,0,0,0-12.95.34,6.79,6.79,0,0,0-3.15,1.55,18.27,18.27,0,0,0-4.13-.86c-2.24-.15-4.45,1.75-4.45,1.75s-3.12.09-4.28.82a6.23,6.23,0,0,0-3.15,1.73,11.35,11.35,0,0,0-4.09,1.56c-4.35,2.76-10.7,8.1-11.33,10.82-.93,4-.77,12.92-3.15,19.41s-4.33,8.52-11.57,22.05l27,3.51c5.79-11,6.22-14.51,8.65-18.53.86-1.44,4.57-3.48,7.89-4.6,5.93-2,14.57-5.75,15.83-6.73,2-1.52,3.33-9,5.74-14S170.47,202.28,167.5,203.33Z"/><path class="cls-22" d="M107.11,236.54s8.62-4.31,20.45-.41c9.88,3.27,11.86,10.42,11.86,10.42l-2.85,8s-28.11-13-34.13-11.68Z"/><path class="cls-10" d="M100,241.3s12.09-4.12,22.47-1.34,15.66,15,15.66,15l-25.6,72.51-47.8-7Z"/><path class="cls-23" d="M26.13,177.21a31.19,31.19,0,0,0,5.23-2.65c1.22-1,3-1.95,3.81-1.25s1.28.72,2-.45a22.36,22.36,0,0,1,2.07-3.34c1.24-1.51,3.17-3.23,4.64-4.83,1-1.06,2-2.34,2.93-3.21a22,22,0,0,1,2.72-1.89A9.82,9.82,0,0,1,52.06,158a12.48,12.48,0,0,1,2.59-.59"/></g></svg>