<svg xmlns="http://www.w3.org/2000/svg" xmlns:xlink="http://www.w3.org/1999/xlink" viewBox="0 0 370 280"><defs><linearGradient id="prefix__linear-gradient" x1="223.34" y1="190.06" x2="186.09" y2="148.81" gradientUnits="userSpaceOnUse"><stop offset="0" stop-color="#001733"/><stop offset="1" stop-color="#193e67"/></linearGradient><linearGradient id="prefix__linear-gradient-2" x1="151.2" y1="141.59" x2="151.2" y2="172.92" gradientTransform="rotate(1 1235.772 -84.127)" gradientUnits="userSpaceOnUse"><stop offset="0" stop-color="#c5c5c5"/><stop offset=".04" stop-color="#cacaca"/><stop offset=".24" stop-color="#e1e1e1"/><stop offset=".46" stop-color="#f2f2f2"/><stop offset=".69" stop-color="#fcfcfc"/><stop offset="1" stop-color="#fff"/></linearGradient><linearGradient id="prefix__linear-gradient-3" x1="150.04" y1="101.09" x2="150.04" y2="140.59" gradientUnits="userSpaceOnUse"><stop offset="0" stop-color="#e9b373"/><stop offset=".57" stop-color="#f5d0b5"/><stop offset="1" stop-color="#f6e2d0"/></linearGradient><linearGradient id="prefix__linear-gradient-4" x1="154.77" y1="131.95" x2="154.77" y2="154.28" gradientTransform="rotate(1 1235.772 -84.127)" gradientUnits="userSpaceOnUse"><stop offset="0" stop-color="#c5c5c5"/><stop offset=".08" stop-color="#d5d5d5"/><stop offset=".23" stop-color="#e7e7e7"/><stop offset=".39" stop-color="#f5f5f5"/><stop offset=".6" stop-color="#fdfdfd"/><stop offset="1" stop-color="#fff"/></linearGradient><linearGradient id="prefix__linear-gradient-5" x1="152.7" y1="210.86" x2="204.49" y2="210.86" gradientTransform="rotate(1 1235.772 -84.127)" xlink:href="#prefix__linear-gradient"/><linearGradient id="prefix__linear-gradient-6" x1="113.36" y1="214.32" x2="167.35" y2="214.32" gradientTransform="rotate(1 1235.772 -84.127)" xlink:href="#prefix__linear-gradient"/><linearGradient id="prefix__linear-gradient-7" x1="191.08" y1="274.06" x2="184.02" y2="245.47" gradientTransform="rotate(1 1235.772 -84.127)" xlink:href="#prefix__linear-gradient"/><linearGradient id="prefix__linear-gradient-8" x1="132.27" y1="276.8" x2="141.92" y2="243.9" gradientTransform="rotate(1 1235.772 -84.127)" xlink:href="#prefix__linear-gradient"/><linearGradient id="prefix__linear-gradient-9" x1="288.31" y1="319.9" x2="288.31" y2="301.78" gradientTransform="matrix(.86 .16 -.18 .98 -4.32 -273.65)" gradientUnits="userSpaceOnUse"><stop offset="0" stop-color="#f1b874"/><stop offset=".57" stop-color="#fad4b8"/><stop offset="1" stop-color="#f9e5d2"/></linearGradient><linearGradient id="prefix__linear-gradient-10" x1="-84.35" y1="-185.61" x2="-84.35" y2="-203.74" gradientTransform="rotate(-10.11 1560.808 -1216.682)" xlink:href="#prefix__linear-gradient-9"/><linearGradient id="prefix__linear-gradient-11" x1="142.55" y1="264.77" x2="125.22" y2="164.53" gradientTransform="rotate(1 1235.772 -84.127)" xlink:href="#prefix__linear-gradient"/><linearGradient id="prefix__linear-gradient-12" x1="167.06" y1="229.85" x2="160.61" y2="227.44" gradientTransform="rotate(-.11 1259.047 1522.152)" xlink:href="#prefix__linear-gradient-2"/><linearGradient id="prefix__linear-gradient-13" x1="180.81" y1="179.87" x2="179.38" y2="174.09" gradientTransform="rotate(1 1235.772 -84.127)" xlink:href="#prefix__linear-gradient"/><linearGradient id="prefix__linear-gradient-14" x1="182.82" y1="174.88" x2="128.63" y2="151.83" gradientTransform="rotate(1 1235.772 -84.127)" xlink:href="#prefix__linear-gradient"/><linearGradient id="prefix__linear-gradient-15" x1="131.55" y1="178.53" x2="201.58" y2="147.04" gradientTransform="rotate(1 1235.772 -84.127)" xlink:href="#prefix__linear-gradient"/><linearGradient id="prefix__linear-gradient-16" x1="327.9" y1="243.59" x2="340.44" y2="243.59" xlink:href="#prefix__linear-gradient-2"/><linearGradient id="prefix__linear-gradient-17" x1="149.14" y1="495.7" x2="173.1" y2="495.7" gradientTransform="rotate(3.27 4207.948 2209.079)" xlink:href="#prefix__linear-gradient-2"/><linearGradient id="prefix__linear-gradient-18" x1="369.65" y1="-132.51" x2="369.66" y2="-132.51" gradientTransform="rotate(-5 4199.132 2008.117)" gradientUnits="userSpaceOnUse"><stop offset="0" stop-color="#fff"/><stop offset="1"/></linearGradient><linearGradient id="prefix__linear-gradient-19" x1="371.2" y1="-132.51" x2="371.2" y2="-132.51" xlink:href="#prefix__linear-gradient-18"/><linearGradient id="prefix__linear-gradient-20" x1="372.74" y1="-132.51" x2="372.74" y2="-132.51" xlink:href="#prefix__linear-gradient-18"/><linearGradient id="prefix__linear-gradient-21" x1="374.28" y1="-132.51" x2="374.28" y2="-132.51" xlink:href="#prefix__linear-gradient-18"/><linearGradient id="prefix__linear-gradient-22" x1="375.83" y1="-132.51" x2="375.83" y2="-132.51" xlink:href="#prefix__linear-gradient-18"/><linearGradient id="prefix__linear-gradient-23" x1="377.37" y1="-132.51" x2="377.37" y2="-132.51" xlink:href="#prefix__linear-gradient-18"/><linearGradient id="prefix__linear-gradient-24" x1="378.91" y1="-132.51" x2="378.91" y2="-132.51" xlink:href="#prefix__linear-gradient-18"/><linearGradient id="prefix__linear-gradient-25" x1="380.45" y1="-132.5" x2="380.45" y2="-132.5" xlink:href="#prefix__linear-gradient-18"/><linearGradient id="prefix__linear-gradient-26" x1="381.99" y1="-132.5" x2="382" y2="-132.5" xlink:href="#prefix__linear-gradient-18"/><linearGradient id="prefix__linear-gradient-27" x1="383.54" y1="-132.5" x2="383.54" y2="-132.5" xlink:href="#prefix__linear-gradient-18"/><linearGradient id="prefix__linear-gradient-28" x1="385.08" y1="-132.5" x2="385.08" y2="-132.5" xlink:href="#prefix__linear-gradient-18"/><linearGradient id="prefix__linear-gradient-29" x1="386.62" y1="-132.5" x2="386.63" y2="-132.5" xlink:href="#prefix__linear-gradient-18"/><linearGradient id="prefix__linear-gradient-30" x1="388.17" y1="-132.5" x2="388.17" y2="-132.5" xlink:href="#prefix__linear-gradient-18"/><linearGradient id="prefix__linear-gradient-31" x1="389.71" y1="-132.5" x2="389.71" y2="-132.5" xlink:href="#prefix__linear-gradient-18"/><linearGradient id="prefix__linear-gradient-32" x1="391.25" y1="-132.5" x2="391.25" y2="-132.5" xlink:href="#prefix__linear-gradient-18"/><linearGradient id="prefix__linear-gradient-33" x1="392.8" y1="-132.5" x2="392.8" y2="-132.5" xlink:href="#prefix__linear-gradient-18"/><linearGradient id="prefix__linear-gradient-34" x1="394.34" y1="-132.5" x2="394.34" y2="-132.5" xlink:href="#prefix__linear-gradient-18"/><linearGradient id="prefix__linear-gradient-35" x1="395.88" y1="-132.5" x2="395.88" y2="-132.5" xlink:href="#prefix__linear-gradient-18"/><linearGradient id="prefix__linear-gradient-36" x1="397.43" y1="-132.5" x2="397.43" y2="-132.5" xlink:href="#prefix__linear-gradient-18"/><linearGradient id="prefix__linear-gradient-37" x1="398.97" y1="-132.5" x2="398.97" y2="-132.5" xlink:href="#prefix__linear-gradient-18"/><linearGradient id="prefix__linear-gradient-38" x1="400.51" y1="-132.5" x2="400.51" y2="-132.5" xlink:href="#prefix__linear-gradient-18"/><linearGradient id="prefix__linear-gradient-39" x1="402.05" y1="-132.5" x2="402.05" y2="-132.5" xlink:href="#prefix__linear-gradient-18"/><linearGradient id="prefix__linear-gradient-40" x1="403.59" y1="-132.5" x2="403.6" y2="-132.5" xlink:href="#prefix__linear-gradient-18"/><linearGradient id="prefix__linear-gradient-41" x1="405.14" y1="-132.5" x2="405.14" y2="-132.5" xlink:href="#prefix__linear-gradient-18"/><linearGradient id="prefix__linear-gradient-42" x1="406.68" y1="-132.49" x2="406.68" y2="-132.49" xlink:href="#prefix__linear-gradient-18"/><linearGradient id="prefix__linear-gradient-43" x1="409.77" y1="-132.49" x2="409.77" y2="-132.49" xlink:href="#prefix__linear-gradient-18"/><linearGradient id="prefix__linear-gradient-44" x1="408.22" y1="-132.49" x2="408.22" y2="-132.49" xlink:href="#prefix__linear-gradient-18"/><linearGradient id="prefix__linear-gradient-45" x1="411.31" y1="-132.49" x2="411.31" y2="-132.49" xlink:href="#prefix__linear-gradient-18"/><linearGradient id="prefix__linear-gradient-46" x1="412.85" y1="-132.49" x2="412.85" y2="-132.49" xlink:href="#prefix__linear-gradient-18"/><linearGradient id="prefix__linear-gradient-47" x1="414.4" y1="-132.49" x2="414.4" y2="-132.49" xlink:href="#prefix__linear-gradient-18"/><linearGradient id="prefix__linear-gradient-48" x1="415.94" y1="-132.49" x2="415.94" y2="-132.49" xlink:href="#prefix__linear-gradient-18"/><linearGradient id="prefix__名称未設定グラデーション_5" x1="392.88" y1="-158.55" x2="392.88" y2="-131.27" gradientTransform="rotate(-5 4199.132 2008.117)" gradientUnits="userSpaceOnUse"><stop offset="0" stop-color="#fff"/><stop offset="1" stop-color="#d2f38e"/></linearGradient><radialGradient id="prefix__radial-gradient" cx="161.27" cy="64.96" r="27.64" gradientTransform="matrix(1 0 0 .99 -1.89 0)" gradientUnits="userSpaceOnUse"><stop offset="0" stop-color="#452609"/><stop offset=".36" stop-color="#331200"/><stop offset="1" stop-color="#240f00"/></radialGradient><radialGradient id="prefix__radial-gradient-2" cx="156.45" cy="67.61" r="37.22" gradientTransform="matrix(1 0 0 .99 -1.89 0)" gradientUnits="userSpaceOnUse"><stop offset="0" stop-color="#f6e2d0"/><stop offset="1" stop-color="#f5d0b5"/></radialGradient><radialGradient id="prefix__radial-gradient-3" cx="240.89" cy="85.74" r="8.13" gradientTransform="matrix(1.03 0 0 .99 -70.87 0)" gradientUnits="userSpaceOnUse"><stop offset="0" stop-color="#ffe8d6"/><stop offset="1" stop-color="#fff"/></radialGradient><radialGradient id="prefix__radial-gradient-5" cx="201.63" cy="85.74" r="8.13" xlink:href="#prefix__radial-gradient-3"/><radialGradient id="prefix__radial-gradient-7" cx="150.66" cy="29.39" r="61.23" gradientTransform="matrix(1 0 0 .99 -1.89 0)" gradientUnits="userSpaceOnUse"><stop offset="0" stop-color="#4f3217"/><stop offset=".36" stop-color="#402110"/><stop offset="1" stop-color="#240f00"/></radialGradient><radialGradient id="prefix__radial-gradient-8" cx="6954.93" cy="-165.34" r="6.43" gradientTransform="matrix(-1.21 0 0 1.22 8577.12 273.45)" gradientUnits="userSpaceOnUse"><stop offset="0" stop-color="#6f4c37"/><stop offset="1"/></radialGradient><radialGradient id="prefix__radial-gradient-9" cx="79.99" cy="-126.18" r="8.57" gradientTransform="matrix(.93 0 0 1.17 98.38 219.16)" xlink:href="#prefix__radial-gradient-8"/><radialGradient id="prefix__radial-gradient-10" cx="2642.82" cy="-165.02" r="6.43" gradientTransform="matrix(-1.21 0 0 1.22 3338.81 273.45)" xlink:href="#prefix__radial-gradient-8"/><radialGradient id="prefix__radial-gradient-11" cx="2977.14" cy="-125.85" r="8.57" gradientTransform="matrix(-.93 0 0 1.17 2918.17 219.16)" xlink:href="#prefix__radial-gradient-8"/><radialGradient id="prefix__radial-gradient-12" cx="200" cy="42.44" r="29.4" xlink:href="#prefix__radial-gradient"/><radialGradient id="prefix__radial-gradient-13" cx="130.65" cy="43.14" r="31.25" xlink:href="#prefix__radial-gradient"/><radialGradient id="prefix__radial-gradient-14" cx="197.64" cy="65.89" r="18.17" xlink:href="#prefix__radial-gradient"/><radialGradient id="prefix__radial-gradient-15" cx="165.11" cy="236.84" r="18.72" gradientTransform="matrix(.97 0 0 .99 22.68 2.57)" xlink:href="#prefix__radial-gradient-2"/><radialGradient id="prefix__radial-gradient-16" cx="261.54" cy="287.79" r="53.97" xlink:href="#prefix__radial-gradient-2"/><radialGradient id="prefix__radial-gradient-17" cx="301.19" cy="224.69" r="34.9" xlink:href="#prefix__radial-gradient-2"/><radialGradient id="prefix__radial-gradient-18" cx="639.02" cy="-823.51" r="14.02" gradientTransform="matrix(.98 -.17 .15 .85 -243.63 1015.94)" xlink:href="#prefix__radial-gradient-2"/><style>.prefix__cls-16,.prefix__cls-47,.prefix__cls-82,.prefix__cls-83{fill:none}.prefix__cls-20{fill:#481400}.prefix__cls-30{fill:#ffd21f}.prefix__cls-40{fill:#38070f}.prefix__cls-42{fill:#e5a782}.prefix__cls-47,.prefix__cls-82{stroke:#000}.prefix__cls-47{stroke-width:.18px}.prefix__cls-82,.prefix__cls-83{stroke-miterlimit:10;stroke-width:.5px}.prefix__cls-83{stroke:#767676}</style></defs><g style="isolation:isolate"><g id="prefix__レイヤー_1" data-name="レイヤー 1"><path d="M179.93 121.36a8.53 8.53 0 015 2.25c2.07 2.06 28.33 43.72 29.72 46.13s10.36 21 10.36 21l-12.09 4.48s-2.42 5.85-3.8 2.75-23.5-32-23.5-32z" fill="url(#prefix__linear-gradient)"/><path d="M117.36 81.26c0 5.62 18.34 25.31 23.53 28.54a27.11 27.11 0 0127.55 0c5.19-3.23 23.17-20 23.17-25.61 0-9.72-24.62-38.11-36.94-38.11s-35.95 4.51-37.86 35.73" fill="url(#prefix__radial-gradient)"/><path fill="url(#prefix__linear-gradient-2)" d="M127.55 119.19l27.71-3.66 19.27 4.47.89 28.25-19.76 43.04-36.81-62.04 8.7-10.06z"/><path d="M135 79.64s12.09 24.26 7.55 32.9-10 6.72-10 6.72a32.27 32.27 0 009.81 6.19c3.51 1.52 8.39 4.4 12.37 4.47 3.53.07 6.27-2.44 7.66-4.58 2.94-4.54 5.09-7.54 5.09-7.54s-5.12-1.12-4.27-12.47c.23-3.18-1.12-1.15-.71-8 .86-14.2-27.5-17.69-27.5-17.69z" fill="url(#prefix__linear-gradient-3)"/><path d="M140.09 113.21s12.89 14.11 14.27 14.28 10.22-11.45 11.26-11.77 8.92 4.28 8.92 4.28l-12.08 18.69-8.11-10.45-7.28 11.09-19.52-20.14z" fill="url(#prefix__linear-gradient-4)"/><path d="M172.6 118.48l7.33 2.88s11 29.1 10.69 47c-.15 8.61-7.2 14.33-6.72 32.93.19 7.32 4.41 40.71 9.35 53.66 1.57 4.11 7.14 11.74 4 11.69-1.11 0-5.34-3-10.13-3.36-8.58-.62-15.47-.12-18.57-.84-4.82-1.12-21.14-55.46-21.09-58.56.13-5.5 25.14-85.4 25.14-85.4z" fill="url(#prefix__linear-gradient-5)"/><path d="M132.26 116.69S144.38 146 153 167.83c4.94 12.59 8.9 19 8.9 22.68v29.61c0 6-6.17 36.87-6.34 38.31s-2.44 5.9-5 6.46c-1.25.28-12.72.85-21.38 2.73a169.37 169.37 0 00-17.81 5.2c-2.43.64-5.89.93-3.69-6.61s11.42-42.62 11.83-66-5.11-73.7-3.71-74.77c3.51-2.72 16.46-8.75 16.46-8.75z" fill="url(#prefix__linear-gradient-6)"/><path d="M170.44 225.77c0 1.72 4.12 20.9 4.78 22.81s1.51 2.43 2.9 2.46 10 1 11.38 1.4c.85.23 2.17.47 3.05.61a184.32 184.32 0 01-7.81-28.94c-2.17-.09-12.3-.54-13.23-.56s-1.04.5-1.07 2.22z" fill="url(#prefix__linear-gradient-7)"/><path d="M121.7 236.28c1-6.31 1.76-11.67 1.76-11.67l21.78-.48s-2.62 21.3-3.18 23.7a3 3 0 01-3.33 2.69c-1.21 0-12.1.31-14.36 1s-5 1-5-.77c.02-.91 1.31-8.16 2.33-14.47z" fill="url(#prefix__linear-gradient-8)"/><path d="M-13.16 250.7L401.25 179s1.9 175.84 0 177.68S-13.16 369.3-13.16 369.3z" fill="#ffe5bb"/><path d="M180.52 76.63c-1 5.48 1.59 10.54 5.83 11.32s8.5-3 9.51-8.49-1.59-10.55-5.86-11.33-8.5 3-9.51 8.5" fill="url(#prefix__linear-gradient-9)"/><path d="M128.1 76.91c1 5.48-1.58 10.51-5.72 11.25s-8.29-3.11-9.27-8.59 1.58-10.52 5.72-11.25 8.29 3.11 9.27 8.59" fill="url(#prefix__linear-gradient-10)"/><path d="M120.27 63.18c0 12.23 3.17 24.68 9.26 31.59 7.59 8.61 22.24 12.37 28.69 12.37S176.42 100.31 182 93s5.85-17.56 5.85-29.79c0-25.43-11.54-36.06-33.51-36.06s-34 10.63-34 36.06" fill="url(#prefix__radial-gradient-2)"/><path d="M162.34 88.85a1 1 0 00.45-.11l2.44-1.32-2.15-6.14c-.1-.39-.17-.85-.63-.77s0 .81.11 1.2l.73 5-1.41.76a.68.68 0 00-.27 1 .9.9 0 00.73.34" fill="#e7a05d"/><path class="prefix__cls-16" d="M168.69 77.92h18.42v14.42h-18.42z"/><path class="prefix__cls-16" d="M168.69 77.92h18.42v14.42h-18.42zM128.15 77.92h18.42v14.42h-18.42z"/><path class="prefix__cls-16" d="M128.15 77.92h18.42v14.42h-18.42z"/><path class="prefix__cls-20" d="M178.46 61.78c-4.17-.7-6.69.15-8.59 3.79a9.22 9.22 0 017.51-2.37 14.36 14.36 0 016.84 2.59 8 8 0 00-5.76-4"/><path d="M151.44 94.09c2 2 4.38 4.78 8.53 4.78s3.5-2.8 7.13-4.78z" fill="#e09c92" stroke="#dd827c" stroke-width=".09"/><path d="M143.67 16.27c-18.49 5.67-32.36 17.86-37.22 40.37s4.18 31.77 12.39 38.7c9 7.57 20.4 7.08 20.4 7.08-9-2.81-14.7-15.72-12.4-27.58 2.6-13.4 8.84-22.25 21.89-29.78 10.42-6 23.09-8.05 23.09-8.05s28.93 21.52 7.6 55a25.43 25.43 0 008.6-9.26c-1.47 9-10 17.37-18.68 22.25 0 0 6.25-.87 14.46-7.8s19-18.18 14.93-40.84C195.26 37.19 188.82 30 182 24.3s-12.73-3.07-12.73-3.07-4.41-6.62-15.36-6.62a34.83 34.83 0 00-10.19 1.66" fill="url(#prefix__radial-gradient-7)"/><path d="M179.81 74.94c0 2.51-1.58 4.54-3.51 4.54s-3.51-2-3.51-4.54 1.57-4.54 3.51-4.54 3.51 2 3.51 4.54" fill="url(#prefix__radial-gradient-8)"/><path d="M174.87 71.17s4.56-2.13 6.85 4.77c0 0-.4-5.19-5.08-5.91s-5.09 4.1-5.09 4.1 1.38-2.96 3.32-2.96z" fill="url(#prefix__radial-gradient-9)"/><path class="prefix__cls-20" d="M139.78 61.71c4.15-.84 6.69-.07 8.69 3.51a9.2 9.2 0 00-7.57-2.13 14.37 14.37 0 00-6.77 2.8 8.05 8.05 0 015.65-4.18"/><path d="M146.36 75.33c0 2.51-1.58 4.54-3.51 4.54s-3.51-2-3.51-4.54 1.56-4.54 3.51-4.54 3.51 2 3.51 4.54" fill="url(#prefix__radial-gradient-10)"/><path d="M143.69 71.56s-4.56-2.13-6.85 4.77c0 0 .4-5.19 5.09-5.91s5.08 4.1 5.08 4.1-1.37-2.96-3.32-2.96z" fill="url(#prefix__radial-gradient-11)"/><path d="M189.5 44.37s15.5 23.36 2.86 41.34c0 0 6.98-16.4-2.86-41.34z" fill="url(#prefix__radial-gradient-12)"/><path d="M117.08 93.32a32.58 32.58 0 01-2.49-5c-3.53-8.75-7.84-27.72 9.12-47.46 0 0-25.08 23-10.34 48.67z" fill="url(#prefix__radial-gradient-13)"/><path d="M188 82.79s3.84-3.38 3.84-19.66c0 0 4.11 17.89-6.38 26.65z" fill="url(#prefix__radial-gradient-14)"/><path class="prefix__cls-30" d="M160.22 207.74a3.23 3.23 0 11-3.17-3.27 3.23 3.23 0 013.17 3.27zM160.21 190.25a3.22 3.22 0 11-3.16-3.27 3.21 3.21 0 013.16 3.27z"/><path d="M115.81 125.41s-4.17 1.3-6.35 7.12-3.39 12.75-5 43-2.59 42.65-1.94 45.41 3.7 5.58 8.86 7 44.33 10.69 45.48 11.05 5.27-4.84 6.38-9.41-.33-7.36-.33-7.36l-41.68-11.42s.6-41.1.71-47.64-.45-26.63-6.13-37.75z" fill="url(#prefix__linear-gradient-11)"/><path d="M161.53 223.27l4.92 1.42c.77.26-4.64 13.9-5.59 13.64a37.36 37.36 0 00-4.61-1.57c-1.7-.36 3.06-14.12 5.28-13.49z" fill="url(#prefix__linear-gradient-12)"/><path d="M170.61 227.47c1.13.23 9.34-1.06 11.14-1.06s7.09 1.59 9.57 2.84 7.72 4.77 9.41 5.46 4 2.49 2.12 3c-2.79.78-4 .7-6.9-.44s-3.5-2.47-6.43-2.47-.33 2.76 1.7 4 3.73 3.15 6 3.72 8 2.85 9.13 3.77 1.47 2.31-.9 2.41c-2.92.12-8.22-1.36-9.57-1.47s-3.71-.91-9.57-2.5-10.47-2.61-12.61-3.64-5-3.32-8-4.23-3.62-1.15-4.73-1.54 2.73-9.75 4-9.42c.79.23 4.52 1.34 5.64 1.57z" fill="url(#prefix__radial-gradient-15)"/><path fill="url(#prefix__linear-gradient-13)" d="M168.72 156.01l14.7-.43.27 3.96-16.07.41 1.1-3.94z"/><path d="M173.69 148.35c.73-2 .74-2.39.06-2.92s-3.07-2.47-4.61-3.7-.82-2.42-.13-2.41 4.34-.79 5.38-.94 2.08-.65 1.94-2.21c-.13-1.31-.32-12.86-.37-16.37l-3.36-1.32s-11.6 37.07-19 62.45l.38-.21c10.96-6.18 19.02-30.31 19.71-32.37z" fill="url(#prefix__linear-gradient-14)"/><path d="M132.26 116.69l-2.67 1.31c-.05 2.59-.55 17-.78 18.42-.26 1.6.48 2.08 3.24 2.3s7.07.87 7.74 1.8-4.86 5-6.21 6.31-.44 2 .28 3.57 15.88 32.86 26.62 34.89c-1.08-2.76-3-8.28-7.37-18.61s-20.85-49.99-20.85-49.99z" fill="url(#prefix__linear-gradient-15)"/><path d="M256.12 271.64c2.66-6.24 6.91-15.84 8.29-18.82s2.62-11.89 3.46-13.77c1.84-4.13 9.21-11.25 12.44-12.63s9.91.23 10.83 1.61 4.6 2.76 4.6 4.59-8.29 9.41-7.83 12.85 13.36-8.95 13.36-5.28-1.15 4.37-3.22 5.51-3.69 2.76-7.37 6-10.83 3.67-12 6.2-6.45 17.44-6.45 17.44z" fill="url(#prefix__radial-gradient-16)"/><path d="M308.88 224.82c-2.77-.46-16.59-1.72-19.35-1.72a69.93 69.93 0 00-12.22 1.72c-2.26.48-3 1.15-3.45 2.06-2.53.92-2.3 3.68-.23 4.36.46 2.07 1.61 2.71 3.45 3.22s10 .7 12.79 1.2 7.26 4.41 7.26 4.41a6.85 6.85 0 01-5.53.51c-3.23-1-9.22-1.71-10.14.3s3.92 2.76 9 3.91c3.72.84 6 1.14 9.9 2.06a34.22 34.22 0 0012 .27c4.09-.5 6.69-2.16 9.16-1.5 4.6 1.23 12 3.53 12 3.53l4.14-13.09s-14.51-3.56-15.89-4.42-10.13-6.36-12.89-6.82z" fill="url(#prefix__radial-gradient-17)"/><path d="M328 251.21s-1.39-14.1 6.45-17.77l6 .81s-4.84 15-2.54 19.49z" fill="url(#prefix__linear-gradient-16)"/><path class="prefix__cls-40" d="M332.37 254.65s-2.53-13.05 6.22-22l47.92 6.53 39.68 13.7-10 26.8-34.08-16.5z"/><path d="M253.28 270.82l5.15-9.36s4.78-2.72 11.95.91c5.53 2.8 7 7.06 7 7.06l-1.72 5.89s-15.24-8.23-22.38-4.5z" fill="url(#prefix__linear-gradient-17)"/><path class="prefix__cls-40" d="M254.06 265.35s4.59-3.51 14.73.61c8.57 3.47 8.93 9.24 8.93 9.24l-9.26 28.67-28.31-5.29z"/><path class="prefix__cls-42" d="M273.63 231.24a2.43 2.43 0 012.07-.91c1.5 0 10.71-.58 11.87-.46a25.18 25.18 0 014.72 1c1.15.34 3.08 1.11 3.8 1.38.92.34 1.37-.86.12-1.15-2-.46-5-1.72-6.8-1.84s-13.59.46-14.28.58a7.63 7.63 0 00-2.08 1.15zM273.86 226.88s12.33-1 15.2-1.14 5.21 1.15 7.49 1.6c.58.12.81-.69-.8-1a52.75 52.75 0 00-6-1.26c-1.16 0-15.78 1.37-15.78 1.37z"/><path d="M264.23 213.18a3.75 3.75 0 01-3.42 4.06l-68.67 6a3.75 3.75 0 01-4.07-3.4l-4.41-50.17a3.75 3.75 0 013.42-4.06l68.67-6a3.76 3.76 0 014.07 3.41z" fill="#141414"/><path d="M264.18 214.48a3.76 3.76 0 01-3.42 4.06l-68.67 6a3.77 3.77 0 01-4.08-3.41l-4.4-50.13a3.75 3.75 0 013.42-4.06l68.67-6a3.75 3.75 0 014.07 3.4z" fill="#2a2a2a"/><path d="M193.26 220a.88.88 0 01-1-.8l-4.13-47.06a.88.88 0 01.81-1l65.54-5.72a.89.89 0 011 .81l4.13 47.05a.88.88 0 01-.8 1z" fill="#fff"/><path d="M260.33 192.22a.63.63 0 01-.68-.56l-.35-4.08a.62.62 0 111.24-.11l.36 4.08a.62.62 0 01-.57.67z" fill="#6e6e6e"/><path class="prefix__cls-47" d="M195.45 184.35l2.18 24.81 46.11-4.02"/><path d="M196.19 209.46c0-.23.06-.35.18-.36s.21.1.23.32 0 .35-.18.36-.21-.1-.23-.32zm.34 0c0-.17-.06-.28-.16-.27s-.12.12-.11.29.07.28.16.27.12-.17.11-.32zM195.33 206.3h-.39l.05-.07c.15-.18.22-.28.21-.39s0-.13-.14-.12a.21.21 0 00-.13.07v-.05a.26.26 0 01.17-.09.18.18 0 01.2.18c0 .12-.07.23-.19.38l-.05.06h.29zM195.39 206c0-.23.06-.35.18-.36s.22.1.24.32-.06.35-.19.36-.21-.14-.23-.32zm.34 0c0-.17-.06-.28-.15-.27s-.13.12-.12.29.08.28.16.27.12-.2.11-.36zM195.88 205.92c0-.23.06-.35.18-.36s.21.1.23.32 0 .35-.18.36-.21-.1-.23-.32zm.34 0c0-.17-.06-.28-.16-.27s-.13.11-.11.29.07.28.16.27.12-.21.11-.32zM195 202.76h-.07v-.19h-.29v-.05l.25-.45h.07v.42h.04v.06h-.09zm-.31-.22h.22v-.24-.1a.69.69 0 000 .1l-.15.25zM195.08 202.42c0-.23.06-.35.18-.36s.22.1.24.32-.06.35-.19.36-.21-.1-.23-.32zm.34 0c0-.17-.06-.28-.16-.27s-.12.11-.11.29.08.28.16.27.12-.17.11-.32zM195.56 202.38c0-.23.07-.35.19-.36s.21.1.23.31 0 .36-.18.37-.22-.1-.24-.32zm.34 0c0-.16-.06-.27-.15-.26s-.13.11-.11.29.07.28.16.27.12-.18.1-.34zM194.35 198.9a.21.21 0 01.15-.1.19.19 0 01.21.19.22.22 0 01-.19.25c-.12 0-.22-.09-.24-.26a.38.38 0 01.27-.42h.06v.06a.28.28 0 00-.27.29zm.28.11c0-.11-.07-.16-.15-.15a.13.13 0 00-.12.13c0 .12.07.2.16.2s.12-.09.11-.19zM194.77 198.88c0-.23.06-.35.18-.36s.21.1.23.31-.05.36-.18.37-.21-.1-.23-.32zm.34 0c0-.16-.07-.27-.16-.26s-.12.11-.11.29.07.28.16.27.12-.18.11-.34zM195.25 198.84c0-.23.07-.35.19-.36s.21.1.23.31 0 .36-.18.37-.22-.1-.24-.32zm.35 0c0-.16-.07-.27-.16-.26s-.13.11-.11.29.07.28.15.27.13-.14.12-.34zM194.1 195.35a.16.16 0 01-.12-.14.18.18 0 01.17-.19.17.17 0 01.2.15.18.18 0 01-.1.16.2.2 0 01.15.17.19.19 0 01-.19.2.18.18 0 01-.11-.35zm.22.16c0-.08-.06-.12-.15-.14a.16.16 0 00-.11.16.13.13 0 00.14.12.12.12 0 00.12-.14zm-.27-.31a.16.16 0 00.13.12.14.14 0 00.09-.14.11.11 0 00-.12-.11.12.12 0 00-.1.13zM194.46 195.34c0-.23.06-.35.18-.36s.21.1.23.31-.05.36-.18.37-.21-.1-.23-.32zm.34 0c0-.16-.07-.27-.16-.26s-.12.11-.11.29.07.28.16.27.12-.18.11-.34zM194.94 195.3c0-.24.06-.35.19-.36s.21.09.23.31-.05.36-.19.37-.17-.1-.23-.32zm.34 0c0-.16-.06-.27-.15-.26s-.13.11-.11.28.07.28.15.28.13-.18.11-.34zM193.39 192.19v-.59l-.1.07.12-.09h.07l.06.66zM193.66 191.84c0-.23.06-.35.18-.36s.21.1.23.32 0 .35-.18.36-.21-.1-.23-.32zm.34 0c0-.17-.06-.28-.16-.27s-.12.11-.11.29.08.28.16.27.11-.13.11-.32zM194.15 191.8c0-.23.06-.35.18-.36s.21.1.23.31-.05.36-.18.37-.22-.12-.23-.32zm.34 0c0-.16-.07-.27-.16-.26s-.13.11-.11.29.07.27.16.27.12-.18.11-.34zM194.63 191.75c0-.23.06-.35.19-.36s.21.1.23.32-.05.35-.19.37-.21-.08-.23-.33zm.34 0c0-.16-.06-.28-.15-.27s-.13.12-.11.29.07.28.15.27.14-.16.14-.32zM193.08 188.65l-.05-.59-.1.07.07-.13h.07l.05.66zM193.77 188.59h-.39l.06-.07c.14-.18.21-.28.2-.39a.11.11 0 00-.13-.12.16.16 0 00-.13.07.21.21 0 01.17-.08.18.18 0 01.2.17c0 .12-.07.23-.2.39v.05h.29zM193.84 188.26c0-.23 0-.36.18-.37s.21.1.23.32-.05.35-.18.37-.22-.11-.23-.32zm.34 0c0-.16-.07-.28-.16-.27s-.13.12-.11.29.07.29.16.28.12-.18.11-.34zM194.32 188.21c0-.23.06-.35.18-.36s.22.1.24.32-.05.35-.19.36-.21-.1-.23-.32zm.34 0c0-.17-.06-.28-.15-.27s-.13.12-.11.29.07.28.15.27.13-.16.11-.32zM192.77 185.11l-.05-.59-.1.07v-.05l.13-.09h.07l.05.66zM193.41 185.05h-.07v-.18h-.29v-.05l.24-.45h.08v.41h.09v.05h-.09zm-.31-.21h.22v-.23a.45.45 0 010-.11.93.93 0 000 .1l-.14.26zM193.52 184.71c0-.23.06-.35.19-.36s.21.1.23.32-.05.35-.18.36-.22-.1-.24-.32zm.34 0c0-.17-.06-.28-.15-.27s-.13.12-.11.29.07.28.15.27.13-.16.11-.32zM194 184.67c0-.23.06-.35.18-.36s.22.1.23.31 0 .36-.18.37-.23-.1-.23-.32zm.34 0c0-.17-.06-.28-.16-.27s-.12.12-.11.29.08.28.16.27.13-.17.12-.32z"/><path class="prefix__cls-47" d="M195.13 184.55l46.45-4.05M195.44 188.06l46.45-4.04M195.75 191.59l46.45-4.05M196.06 195.11l46.44-4.05M196.37 198.63l46.44-4.05M196.68 202.15l46.44-4.05M196.99 205.67l46.44-4.05M197.29 209.19l46.45-4.05"/><path fill="url(#prefix__linear-gradient-18)" stroke-width=".18" stroke="#000" d="M197.64 209.2l.03.35"/><path fill="url(#prefix__linear-gradient-19)" stroke-width=".18" stroke="#000" d="M199.17 209.07l.03.34"/><path fill="url(#prefix__linear-gradient-20)" stroke-width=".18" stroke="#000" d="M200.71 208.93l.03.35"/><path fill="url(#prefix__linear-gradient-21)" stroke-width=".18" stroke="#000" d="M202.25 208.8l.03.35"/><path fill="url(#prefix__linear-gradient-22)" stroke-width=".18" stroke="#000" d="M203.78 208.67l.03.34"/><path fill="url(#prefix__linear-gradient-23)" stroke-width=".18" stroke="#000" d="M205.32 208.53l.03.35"/><path fill="url(#prefix__linear-gradient-24)" stroke-width=".18" stroke="#000" d="M206.86 208.4l.03.35"/><path fill="url(#prefix__linear-gradient-25)" stroke-width=".18" stroke="#000" d="M208.39 208.27l.04.34"/><path fill="url(#prefix__linear-gradient-26)" stroke-width=".18" stroke="#000" d="M209.93 208.13l.03.35"/><path fill="url(#prefix__linear-gradient-27)" stroke-width=".18" stroke="#000" d="M211.47 208l.03.34"/><path fill="url(#prefix__linear-gradient-28)" stroke-width=".18" stroke="#000" d="M213.01 207.86l.03.35"/><path fill="url(#prefix__linear-gradient-29)" stroke-width=".18" stroke="#000" d="M214.54 207.73l.03.35"/><path fill="url(#prefix__linear-gradient-30)" stroke-width=".18" stroke="#000" d="M216.08 207.6l.03.34"/><path fill="url(#prefix__linear-gradient-31)" stroke-width=".18" stroke="#000" d="M217.62 207.46l.03.35"/><path fill="url(#prefix__linear-gradient-32)" stroke-width=".18" stroke="#000" d="M219.15 207.33l.03.34"/><path fill="url(#prefix__linear-gradient-33)" stroke-width=".18" stroke="#000" d="M220.69 207.19l.03.35"/><path fill="url(#prefix__linear-gradient-34)" stroke-width=".18" stroke="#000" d="M222.23 207.06l.03.35"/><path fill="url(#prefix__linear-gradient-35)" stroke-width=".18" stroke="#000" d="M223.76 206.93l.03.34"/><path fill="url(#prefix__linear-gradient-36)" stroke-width=".18" stroke="#000" d="M225.3 206.79l.03.35"/><path fill="url(#prefix__linear-gradient-37)" stroke-width=".18" stroke="#000" d="M226.84 206.66l.03.34"/><path fill="url(#prefix__linear-gradient-38)" stroke-width=".18" stroke="#000" d="M228.38 206.52l.03.35"/><path fill="url(#prefix__linear-gradient-39)" stroke-width=".18" stroke="#000" d="M229.91 206.39l.03.35"/><path fill="url(#prefix__linear-gradient-40)" stroke-width=".18" stroke="#000" d="M231.45 206.26l.03.34"/><path fill="url(#prefix__linear-gradient-41)" stroke-width=".18" stroke="#000" d="M232.99 206.12l.03.35"/><path fill="url(#prefix__linear-gradient-42)" stroke-width=".18" stroke="#000" d="M234.52 205.99l.03.35"/><path fill="url(#prefix__linear-gradient-43)" stroke-width=".18" stroke="#000" d="M237.6 205.72l.03.35"/><path fill="url(#prefix__linear-gradient-44)" stroke-width=".18" stroke="#000" d="M236.06 205.85l.03.35"/><path fill="url(#prefix__linear-gradient-45)" stroke-width=".18" stroke="#000" d="M239.13 205.58l.03.35"/><path fill="url(#prefix__linear-gradient-46)" stroke-width=".18" stroke="#000" d="M240.67 205.45l.03.35"/><path fill="url(#prefix__linear-gradient-47)" stroke-width=".18" stroke="#000" d="M242.21 205.32l.03.34"/><path fill="url(#prefix__linear-gradient-48)" stroke-width=".18" stroke="#000" d="M243.75 205.18l.02.35"/><path fill="url(#prefix__名称未設定グラデーション_5)" d="M243.03 205.2l-44.51 3.88-.78-8.88 44.16-6.98 1.13 11.98z"/><path d="M262.35 193.55a39 39 0 01-4.53 6.24c-2.71 3-6.78 6.22-8.4 8-1.41 1.56-3.62 5.54.92 4 0 0-3.77 2.3-2.42 4.06 1.06 1.37 2.93 0 2.93 0s2.89.94 4.35-.22c1.54.45 2.29.63 5 0a30.59 30.59 0 008.84-4.28c2-1.49 3.06-4.22 3.34-4.76.62-1.2.14-2.75.14-5.11s-1.22-4.51-2.9-6.93-7.52-4.71-7.52-4.71z" fill="url(#prefix__radial-gradient-18)"/><path class="prefix__cls-42" d="M250 211.32s5.34-3.3 8.94-6.11a35 35 0 003.87-4.12c1.77-1.77 3.11-1.28 1.51.27a49 49 0 01-4.88 4.31c-4.1 3.05-9.14 6.14-9.14 6.14zM250.85 215.9s8.94-6.11 10.07-6.85a35.16 35.16 0 004.36-3.67c1.6-1.55 2.71-1.21 1.1.35a45.06 45.06 0 01-6.77 5.36l-7.71 4.81zM255.81 215.57s1.74-.61 2.31-.92c1.95-1.06 6.42-3.5 7.42-4.24 1.29-.95 1.92-2.15 2.07-1.27s-3.61 3.18-4.79 3.57-6.37 2.93-6.37 2.93z"/><path d="M197.54 193.48l2.07-.69 2.77-2.76 2.07-.69 1.39.69 2.76-1.37h2.76a7 7 0 012.08-.69 10.11 10.11 0 002.76-1.38l2.77-.69 2.07.69 2.76-1.38 4.15-.69 2.77-.68h2.07l2.07-1.38 1.38.69 2.08-1.38 2.76-.69" stroke="#2d7300" stroke-linecap="round" stroke-linejoin="round" stroke-width=".55" fill="none"/><path class="prefix__cls-82" d="M200.73 210.01l.27 3.73M204.02 209.73l.28 3.74M207.04 209.64l.28 3.74M210.15 209.19l.28 3.73M213.08 209l.28 3.74M216.19 208.64l.28 3.74M219.21 208.27l.28 3.74M222.51 208.09l.27 3.74M225.43 207.91l.28 3.74M228.36 207.64l.28 3.73M231.48 207.54l.27 3.74M234.77 207.18l.27 3.74M237.61 207.09l.27 3.74M240.63 206.82l.27 3.73M243.83 206.45l.27 3.74"/><path class="prefix__cls-83" d="M243.23 175.69l9.97-.76M243.43 178.35l9.97-.77M243.64 181l9.97-.77M243.84 183.65l9.97-.76M244.05 186.31l9.97-.77M244.25 188.96l9.97-.76M244.46 191.61l9.97-.76M244.66 194.27l9.97-.77M244.87 196.92l9.97-.76M245.07 199.58l9.97-.77M245.28 202.23l9.97-.77M193.35 178.9l35.26-2.88"/></g></g></svg>