<svg xmlns="http://www.w3.org/2000/svg" viewBox="0 0 808.03 272.47"><title>アセット 1</title><g id="レイヤー_2" data-name="レイヤー 2"><g id="レイヤー_1-2" data-name="レイヤー 1"><path d="M34.08,174.74V258L0,272.47V189.21Zm42.86-54.33v83.27L111,189.21V105.94ZM38.47,172.88v83.26l34.09-50.6V122.27Z" style="fill:#e6003e"/><path d="M185.69,170a38.58,38.58,0,0,1,9.08,1,14.55,14.55,0,0,0,3.21.47c1.11,0,1.67.46,1.67,1.37l0,.74c-.09,1.3-.33,4.35-.33,9.45,0,1,0,2.91-1.39,2.91-1.24,0-1.39-1.17-1.49-1.9a14.91,14.91,0,0,0-1.16-4.51c-.76-1.42-3.42-4.71-11.36-4.71-6.64,0-11.11,4.18-11.11,10.42,0,5,2.26,8,11.45,15.56l2.68,2.12c11.95,9.41,14.3,15.61,14.3,23.12a20.62,20.62,0,0,1-8.46,16.52,26,26,0,0,1-14.9,4.16,29.23,29.23,0,0,1-13.18-2.67h0c-1.77-.88-1.83-1.67-1.83-4.29,0-3.88.23-7.13.39-9.07,0,0,.08-1.14.09-1.16.06-.72.19-2.2,1.47-2.2s1.38,1.26,1.38,1.77a16,16,0,0,0,.28,3.42c1.69,8.32,10,9.22,13.51,9.22,8.55,0,13-6.07,13-12,0-6.18-2.31-9.76-10.77-16.73l-4.33-3.57c-10.57-8.68-12.75-14.81-12.75-21.37,0-10.76,8.29-18,20.59-18m96.66,2c0,.06-25.39,58.53-25.54,58.83-.18-.19-26.57-59-26.57-59-.37-.88-.88-1.83-2-1.83-1.29,0-1.56,1.61-1.67,2.29,0,.05-6.47,63-6.47,63-.31,3.38-.63,6.56-2.95,7a9.22,9.22,0,0,1-2.51.25c-.92,0-1.62.52-1.62,1.18s.3,1.53,2.22,1.53c1.54,0,4.36-.16,5.5-.2l1.5-.05h2.24c1.09,0,4.25.19,6.5.25.77,0,2.3,0,2.3-1.53a1.32,1.32,0,0,0-1.43-1.19,12.07,12.07,0,0,1-3.17-.42,2.37,2.37,0,0,1-1.8-2.33c0-1.65,0-3.34.08-4.86,0,0,3.31-42.35,3.39-42.35-.22,0,21.56,48.08,21.56,48.08,1.79,3.65,2.16,4.41,3.21,4.41s1.48-.78,3-4.08c0,0,21.54-49.33,21.54-49.33s4.1,47.32,4.1,47.32c0,.58,0,1.08.06,1.51.06.79.06,1.67-.13,1.77a1.26,1.26,0,0,0-.95,1.23c0,1.25,1.43,1.54,3.13,1.65,3.47.18,13,.12,14.94.12,2.38,0,2.58-1.16,2.58-1.53s-.14-1.16-1.42-1.16a17.25,17.25,0,0,1-5.55-.83c-3.5-1.22-4-6.47-4.35-9.59l-6-59c-.12-1.33-.32-3.19-1.76-3.19-1.18,0-1.68,1.22-2,2m46,30c0,.25.12.33.17.35a33.5,33.5,0,0,0,5.63.37c5.32,0,6.4-.17,8.21-2.27a14.13,14.13,0,0,0,3.28-9.22c0-7.63-3.22-15.8-12.27-15.8a21.43,21.43,0,0,0-4.42.46c-.6.15-.6.23-.6.37Zm6.1-30.68c15.72,0,19.91,9.51,19.91,15.12,0,7.69-3.59,13.7-8.45,17,6.66,2.09,16,8.9,16,20.58,0,10.74-8.66,21.64-25.2,21.64-1.4,0-5.84-.24-9.07-.42l-3.7-.16-2.18,0c-2.17.1-5.15.27-7.23.27-.54,0-2.23,0-2.23-1.5a1.31,1.31,0,0,1,1.46-1.28,13.07,13.07,0,0,0,2.74-.37c1.37-.28,1.81-1.79,2.23-4.66.49-4,.49-11.76.49-20.74V199.94c0-14.95,0-17.64-.21-20.69-.19-3.22-1-4.26-3.58-4.81a17,17,0,0,0-3.1-.28,1.37,1.37,0,0,1-1.49-1.3c0-1.47,1.71-1.47,2.24-1.47,3.27,0,7.54.16,9.58.24l1.28.05,3.58-.11c1.91-.08,4.31-.18,6.89-.18m5,69.8c1.32,0,12.84-.38,12.84-12.93,0-3.73-.89-13-9-18.6A15.17,15.17,0,0,0,335.6,207h-.06c-.78-.13-3.21-.18-7.23-.18v5.42c0,7.22,0,19.27.1,20.68l0,.4c.25,4.37.31,5.28,2.82,6.49,2.71,1.31,7.26,1.39,8.14,1.39m46.06-60c-7.26,8.28-9.63,19.34-9.42,26.93.34,12.13,4.28,21.75,11.75,28.59,7.62,7,17.21,10.1,30.14,9.75,5.37-.14,12.41-.93,16.23-2.72,1.8-.91,2.1-1.28,2.62-3.29a104.33,104.33,0,0,0,1.63-12.53c0-1.89-1-2.07-1.35-2.07-1.25,0-1.36,1.26-1.53,2.05-.43,1.86-1.21,5.78-2.92,7.82-3.32,3.87-8.33,4.79-14.82,5a29.76,29.76,0,0,1-23-9.82,37.18,37.18,0,0,1-9.4-23.75c-.2-8.17.46-17.49,7.16-24.81,4.22-4.69,10.7-7.08,19.76-7.34,8-.21,14.65,2.36,17.46,4.81,2.17,1.87,3.4,5.18,3.76,9.22.13,1.12.09,2.68,1.5,2.64s1.38-1.63,1.42-2.69l0-3.39c0-2.08,0-4.66,0-6.5,0-2.1.16-3.33.22-4.17l.07-1.27c0-1-.62-1.58-1.82-1.68a67.33,67.33,0,0,1-8.68-1.1l-.38-.07a72.85,72.85,0,0,0-13.08-.82c-12.06.33-21,4-27.34,11.25M526.05,247H461V171.1h65.07Zm-11.51-35.23H472.17V239h42.37Zm0-32.64H472.17v24.57h42.37Zm121.58,29h26.65v8.06H636.12Zm0,13.34h26.65v25.52H636.12Zm8.37,19.37h9.72V228.37h-9.72ZM715.23,239v8.07H665.59V239h5.61V194.25h10V239h6.83v-59.9H668.22v-8h45.23v8H698.87v25.26H712v8H698.87V239Zm-79.11-43h26.65v8.06H636.12Zm-1.93-12.53h30.08v8H634.19Zm28.58-4.39H636.12v-8l26.65,0Zm78.81,6s-1.63-4.76-7.75-14.88l7.6-3.57c3.12,3.23,5.89,7.42,9.42,12.37Zm42.32-.66-7.35-3.58a78.75,78.75,0,0,0,8.32-13.42l11.76,4.79c-1.45,1.67-9.79,10.75-12.73,12.21m-5.61,6.89a40.91,40.91,0,0,0,6.25,11.17h21.27v6.09H790.5A79.71,79.71,0,0,0,808,220l-4.71,6.3a117.48,117.48,0,0,1-14.43-9c-.13,7.19-1.13,24-4.46,28-2.5,3.13-7.32,3.16-11.62,3.16H762.06l-2.23-5.94c7.15,0,6.36,0,8.35,0,2.87,0,5.38-.21,6.62-3.58,1-2.81,1.75-9.1,2.15-14H764.06c-3.87,17.39-18.3,22.31-30.12,24.15l-2.43-5.76c7.14-2,18.09-4,20.94-18.39H741.3V218a61.1,61.1,0,0,1-15,7.18l-4-5.49a68.48,68.48,0,0,0,16.8-11.15H724.84v-6.09h20.22a56.08,56.08,0,0,0,7.31-11.17H729.13v-6.16H755a57.41,57.41,0,0,0,3.18-18.21h12.08A59.93,59.93,0,0,1,767,185.14h34.7v6.16Zm-13.72,0a64.17,64.17,0,0,1-6.72,11.17h15a43.84,43.84,0,0,1-6.22-11.17Zm23.68,25.52a96.72,96.72,0,0,1-9.9-8.26H752.69a64.48,64.48,0,0,1-9.54,8.26ZM575.93,194.09h12.53v22H575.93Zm4.6,17.89h3.34V198.19h-3.34ZM623,246.05l-9.15,3.3c-5.45-1.31-13-4.91-24.08-15.65l5.56-2.65H568.75l5.35,2.77c-1.31,1.45-9.66,9.47-26,15.35l-7.17-3.77c9.34-4.41,18.27-12.83,19.85-14.35H541.47v-7.4h5.75V173.09s6.13-.71,14.62-5.4l3.57,4.93v-1.51H599v52.53h8.62V211.58H601v-6.75h6.62V194.58H601v-6.75h6.62v-10H601v-6.74h16.18v52.53h5.75v7.41H603.44c1.39,1.53,9.46,10.16,19.59,15m-57.62-71.51a71.17,71.17,0,0,1-8.61,2.31v11h6.62v6.76H556.8v10.25h6.62v6.75H556.8v12.06h8.61Zm25.42,3.31H573.55v45.79h17.28Zm-2.36,11.58H575.92V183.2h12.55Z" style="fill:#231815"/><path d="M234.85,29.38a1,1,0,0,0-.93-1.1c-.87,0-1.9,1.56-2.3,2.23-1.67,2.78-1.76,2.78-2.32,2.78-1.2,0-4-3.55-4-9.15a19.1,19.1,0,0,1,1.32-7.06c.13-.4.24-.71.33-1a4,4,0,0,0,.38-1.5c0-1.87-2.75-6.68-5.78-6.68a.93.93,0,0,0-1,.88,6.18,6.18,0,0,0,.38,1.74l.09.34a14.65,14.65,0,0,1,.37,3.1c0,.69-.19,2.76-.38,4.77-.21,2.24-.41,4.37-.41,5.2,0,11.21,7.5,17.32,11.36,17.32a2.62,2.62,0,0,0,2.78-2.39,8.26,8.26,0,0,0-.38-1.69l-.09-.36a6.66,6.66,0,0,1-.32-2.06,15.39,15.39,0,0,1,.7-4.08A7,7,0,0,0,234.85,29.38Z" style="fill:#231815"/><path d="M254.55,15.41a11.48,11.48,0,0,0-6.15-2.28c-.67,0-1.16.39-1.16.93s.32.79,2.11,2.3c.35.3.65.55.79.69,2.79,2.8,2.79,4.92,2.79,9.57,0,4,2.38,4.42,3.41,4.42,1.29,0,3.46-.57,3.46-4.36A14.72,14.72,0,0,0,254.55,15.41Z" style="fill:#231815"/><path d="M296.73,19.38c-4.53,0-10.71,2.54-12.75,3.37l-.86.36c-4.58,1.89-5.17,2.13-6,2.13-.15,0-.76-.16-1.16-.25a8.3,8.3,0,0,0-1.61-.31,1.38,1.38,0,0,0-1.43,1.55c0,1.72,2.87,4.58,5.94,4.58,1.44,0,1.92-.28,5.26-2.53,5.89-3.9,10.27-5.8,13.39-5.8a6.64,6.64,0,0,1,6.39,7c0,4-2.74,11.25-13,12.65-1.74.23-2.54.33-2.54,1.43,0,1.33,1.5,1.33,2.06,1.33,9.19,0,18.51-4.71,18.51-13.72A11.85,11.85,0,0,0,296.73,19.38Z" style="fill:#231815"/><path d="M352.79,35.49c-.24,0-.29,0-3.43,1.67-1,.51-1.87,1-2.2,1.15a27.23,27.23,0,0,1-11.55,2.87c-6.62,0-8-4-8-10.11A134.44,134.44,0,0,1,330,11.17c0-.12.19-.52.33-.88a9.12,9.12,0,0,0,.76-2.43c0-1.6-2.72-6.51-6.05-6.51a1.32,1.32,0,0,0-1.44,1.21c0,.16,0,.18.39,1.1.12.28.24.55.28.68a6.39,6.39,0,0,1,.46,2.51c0,1.49-.49,6-.73,8-1.19,11.1-1.3,12.23-1.3,15.73,0,11.35,3.43,16.2,11.46,16.2,10.86,0,19.58-9.18,19.58-10.34A.91.91,0,0,0,352.79,35.49Z" style="fill:#231815"/><path d="M380.37,42c.18-.4.35-.78.45-1a7.54,7.54,0,0,1,2.05,1c3.12,2,3.64,2.25,4.57,2.25a2.48,2.48,0,0,0,2.39-2.57c0-1.91-2.9-3.29-6.13-4.65l-.67-.29a8.73,8.73,0,0,1-1.58-.76c-.24-.83-.74-11.19-.74-12.44,0-.09,0-.29,0-.45.5,0,1.51,0,2.72,0,5.28,0,5.55-2.09,5.55-2.5,0-1.32-2.2-2.85-3.64-2.85a9,9,0,0,0-2.53.93l-.64.28a8.14,8.14,0,0,1-1.35.28,27.93,27.93,0,0,1,.38-2.83,7.46,7.46,0,0,1,.26-.89,6.42,6.42,0,0,0,.42-1.63c0-.85-1.83-4.14-5.89-4.14-1.09,0-1.21.69-1.21,1s.2.66.7,1.36a4.69,4.69,0,0,1,.3.46.41.41,0,0,1,0,.09c.37.64.58,1,.58,8.74,0,.91.11,3.52.22,6.29s.23,5.83.23,6.89v.31h-.08l-1.12-.06-1.19,0c-5.92,0-10.22,2.35-10.22,5.6s4,6,8.48,6C374.41,46.42,378.51,46,380.37,42ZM373,38.7a10.15,10.15,0,0,1,3.61.56c-.18.74-1.71,2.54-4.85,2.54-2.54,0-3.92-1-3.92-1.49C367.86,39.47,370.32,38.7,373,38.7Z" style="fill:#231815"/><path d="M414,41.6a6.62,6.62,0,0,0-.72-2.72l-.08-.18a9,9,0,0,1-.78-2.5c0-.76.48-3.51.83-5.52s.47-2.77.47-3.05c0-1.22-.71-1.32-.93-1.32-.75,0-1,.69-1.4,1.84-1.09,3.07-1.56,4-2.09,4-.25,0-.82-1-.82-2.73,0-5,3.71-13.17,4.26-14.22,1.08-1.95,1.15-2.11,1.15-2.91,0-2.2-2.49-7.8-5.61-7.8a1,1,0,0,0-1.09.93,3.06,3.06,0,0,0,.29,1l.08.2a13.45,13.45,0,0,1,.53,3.79,18.42,18.42,0,0,1-.94,5.69l0,.14c-1.89,7-2.34,8.65-2.34,12.31,0,5.51,2.55,15.64,6.72,15.64A2.54,2.54,0,0,0,414,41.6Z" style="fill:#231815"/><path d="M432.45,14.36c2.28,0,7.58-.33,7.58-3.4a3.42,3.42,0,0,0-2.95-3.07c-.73-.08-1,0-2.71.65a21.69,21.69,0,0,1-6,.81A18.24,18.24,0,0,1,424.71,9c-.33-.07-.64-.16-.9-.23a3.36,3.36,0,0,0-.82-.18.94.94,0,0,0-1,.93C422,10.94,426.13,14.36,432.45,14.36Z" style="fill:#231815"/><path d="M439.44,35.83c-.13,0-.68.05-2.49.22-1.06.1-2.14.21-2.55.23a44.83,44.83,0,0,1-4.82.17,13.48,13.48,0,0,1-5.74-.89,2.61,2.61,0,0,1-.33-.22c-.68-.45-1-.64-1.31-.64-.16,0-.93.06-.93,1.21,0,.89.65,2,2,3.29s3.57,2.71,9.23,2.71c7.55,0,10.22-.53,10.22-3.52C442.67,37.44,442,35.83,439.44,35.83Z" style="fill:#231815"/><path d="M453.74,39.62a15.06,15.06,0,0,1,5.69,5.79c1.92,3.48,2.26,4.11,3.84,4.11s2.84-1.66,2.84-3.35c0-5.86-10.13-8.82-12.19-8.82a1.13,1.13,0,0,0-1.27,1C452.65,38.86,453.08,39.18,453.74,39.62Z" style="fill:#231815"/><path d="M513.75,28.11h9.63c.82,0,1,.35,1,.88,0,.88,0,3.44,0,6.06s0,5.55,0,6.55a5.4,5.4,0,0,1-.32,2.3,12.49,12.49,0,0,1-2.5.2c-1.93,0-3,.07-3,1,0,.57.48.78,1.77,1.33l.37.16A4,4,0,0,1,523,48.87l0,.14c.09.55.2,1.24,1.06,1.24,1.58,0,5.55-2.08,5.55-7,0-.3,0-1.1-.11-2.35-.17-2.78-.34-25.56-.34-27.23a47.74,47.74,0,0,1,.19-6.44,1.09,1.09,0,0,1,.41-.65c1.28-1,1.71-1.34,1.71-2.15,0-1.48-4.63-4.42-5.32-4.42s-1.13.58-2.08,1.7c-.35.43-.57.44-1.53.44h-7.88a7.53,7.53,0,0,1-1.5-.2L512,1.57A28.82,28.82,0,0,0,508.23.45a.84.84,0,0,0-.88.82,13.79,13.79,0,0,0,.32,1.86c.06.34.12.63.14.73a133.57,133.57,0,0,1,.56,14.2c0,12.8-.63,19.63-6.4,26.86-.21.27-.86,1-1.48,1.72-1.47,1.67-1.47,1.67-1.47,2a.87.87,0,0,0,1,.87c.76,0,2.79-1.3,4.2-2.52,4.8-4.16,7.3-7.68,8.55-16.46C513.06,28.11,513.06,28.11,513.75,28.11ZM524.25,12c0,.89-.16,1-1.15,1h-8.62c-1.11,0-1.15-.25-1.15-1.21V5.94c0-.67.1-1,1-1h8.9c.94,0,1,.37,1,1.21Zm-11,8.66c0-1.54.08-3.06.08-3.59,0-1,0-1.27,1-1.27h8.79c.67,0,1,0,1,.93v8.08c-.1.35-.3.51-1,.51h-8.79c-1,0-1.27-.07-1.27-.93C513.21,23.85,513.26,22.26,513.3,20.69Z" style="fill:#231815"/><path d="M502.89,31.53a6.6,6.6,0,0,0,.46-2.83c0-1.39-.09-5.24-.17-8.95S503,12.8,503,11.63c0-5.35.11-5.44.67-5.92s.91-.75.91-1.34c0-1.48-4.17-4-4.76-4s-.8.19-2.06,1.45c-.29.26-.46.4-1.6.4H491.5a3.09,3.09,0,0,1-1.69-.32s-4-1.82-4.29-1.82c-.16,0-1,.06-1,1.21,0,.41.23,1.77.23,1.77.33,2.72.33,7.1.33,8.54,0,1.16-.16,16.62-.45,23.33,0,.14,0,.48-.06.81s0,.65,0,.76c0,.37,0,1.5,1.55,1.5,1.83,0,4-1.52,4-3.47a32.24,32.24,0,0,1,.11-3.5c.09-.2.22-.36,1-.36h5.46c.79,0,1,.19,1.06.8.16,1.12.31,2.19,1.87,2.19A4.36,4.36,0,0,0,502.89,31.53ZM490.06,21c0-3.07,0-3.07,1-3.07h6c.75,0,1,.13,1,.93v7.55c0,1.32,0,1.49-1,1.49h-6c-.68,0-1-.14-1-.93Zm6.9-5.88H491.1c-1,0-1-.31-1-1,0-7.45,0-8.43,0-8.5.11-.57.37-.66,1.17-.66h5.58c.63,0,.92.12,1,.38s.14,2.85.14,8.89C498,15,497.7,15.16,497,15.16Z" style="fill:#231815"/><path d="M572,44a3.56,3.56,0,0,1,.08.72c.16,2,1.37,2.74,2.45,2.74A3.49,3.49,0,0,0,578,43.69c0-1.88-.16-8.4-.29-13.63-.08-3-.14-5.61-.16-6.77,0-1.53,0-2.69,0-3.73,0-2.33-.06-4.1-.06-8.26,0-2.57.25-2.76.79-3.18l.15-.13c.93-.82,1.31-1.16,1.31-1.82,0-1.37-4.54-4.14-5.55-4.14s-1.31.54-2.16,1.74c-.18.25-.28.29-1.5.29H553.24a4.54,4.54,0,0,1-2.53-.72c-2.33-1.17-2.56-1.25-2.94-1.25s-1,.07-1,1.09c0,.42.15,1.77.31,3.16l0,.27c.45,5.67.45,18.85.45,25.19,0,1.61-.19,8.46-.29,11.76,0,1.09,0,1.82,0,1.88a2.36,2.36,0,0,0,2.62,2.73c3.07,0,3.24-2.18,3.35-3.63,0-.29.13-.6,1-.6h17.35A2.93,2.93,0,0,1,572,44ZM553.86,25H571.1c.84,0,1,.22,1,1.49,0,8.16,0,13.68-.06,14.08s-.25.6-1,.6H554.09c-.84,0-1.05,0-1.05-1.89,0-1,0-3.92-.09-6.74s-.08-5.31-.08-6.22C552.87,25.17,553,25,553.86,25ZM571.1,22.2H553.8c-.8,0-.93-.21-.93-1.44,0-6.37,0-13,.11-13.57a.7.7,0,0,1,.65-.32H571c.4,0,.65,0,.78.28.11,1.19.27,12.73.27,13.89C572.09,21.86,572.05,22.2,571.1,22.2Z" style="fill:#231815"/><path d="M629.59,6.38c-2-1-4.43-1.87-9.37-1.87A24,24,0,0,0,601.79,12a20.61,20.61,0,0,0-6.43,14.83c0,7.22,3.52,13.32,7.68,13.32,2.14,0,5.23-1,10.18-8.52,5.3-8,5.91-13.46,5.91-16.86a35.16,35.16,0,0,0-.42-5c-.05-.38-.1-.75-.15-1a1.83,1.83,0,0,0-.08-.52l0-.09V8a1.48,1.48,0,0,1,.54-.07c13.5,0,15,10.46,15,15,0,13.61-11.94,18.32-17.68,20.58-1.64.65-1.93.77-1.93,1.39a1.07,1.07,0,0,0,1.21,1,35.72,35.72,0,0,0,9.57-2.12,21.77,21.77,0,0,0,14.63-20.44C639.75,15.85,636,9.5,629.59,6.38Zm-13.45,4.75c0,4.86-2,10.85-5.41,16-3.85,5.8-5.05,6.25-6.33,6.25-2.94,0-4.26-4.7-4.26-8,0-10.57,11-17.27,15.69-17.27h.1A11.05,11.05,0,0,1,616.14,11.13Z" style="fill:#231815"/><path d="M666.76,11.31c.35.06.81.14,1.12.21-.31.41-1,1.09-1.39,1.54-1.16,1.21-1.56,1.65-1.56,2.12a.78.78,0,0,0,.87.76h.09a1.77,1.77,0,0,0,1-.38l.34-.2c2-1.16,3.91-2.26,6.48-2.41l.39,0c3.63-.26,4.61-.32,4.61-1.91,0-1.28-2.19-5.15-6.17-5.15l-2.17,0L668.06,6a33,33,0,0,1-8.83-1c-.1,0-.3-.1-.54-.18a5.35,5.35,0,0,0-1.45-.4.83.83,0,0,0-.93.82C656.31,6.36,659.52,10,666.76,11.31Zm-.88,3.37s0,0,0,0v0Z" style="fill:#231815"/><path d="M678.42,36.28c-.1,0-.35,0-2,.25-2.56.32-7.33.94-8.49.94-.31,0-1.17,0-1.95-.07l-1.49,0c-3.91,0-8.78-1.64-10.21-5.22,0-.06-.06-.17-.1-.32-.37-1.32-.67-2.18-1.41-2.18s-1.38,1.07-1.38,3.41c0,9.48,12.67,10.51,18.11,10.51,5,0,13.33-.52,13.33-4C682.79,38,680.92,36.28,678.42,36.28Z" style="fill:#231815"/><path d="M719.89,39.55a15.41,15.41,0,0,0-4.29.84l-.11,0a24.46,24.46,0,0,1-6.59,1c-4.77,0-7.18-1.55-7.18-4.59,0-3.41,1.8-7.3,14.91-12.59,2.12-.82,4.75-1.84,4.75-4a2.8,2.8,0,0,0-2.79-2.73c-1.51,0-4.18,1.5-6.15,2.75l-.23.15c-2.76,1.73-3,1.89-3.59,1.89-.08,0-.82-.17-.82-6.06a53.09,53.09,0,0,1,.5-7.31c0-.17.12-.53.22-1a18.24,18.24,0,0,0,.58-2.77c0-2.13-3.27-4.87-6.74-4.87-2.16,0-2.16.65-2.16.93s.1.53,1.4,1.88l.14.15c.81.81,1.5,1.5,1.5,4.11,0,.74-.08,2.84-.15,4.87S703,16.06,703,16.7a19,19,0,0,0,1,6.84c.1.24.44,1.35.46,1.5,0,.47-.84,1.28-2.22,2.57a13.45,13.45,0,0,0-4.48,9.6c0,6.3,3.84,9.49,11.41,9.49,4.54,0,15.12-.37,15.12-3.8C724.25,41.14,722.17,39.55,719.89,39.55Z" style="fill:#231815"/><path d="M742.42,35.72a6.82,6.82,0,0,0-6.9,6.84,6.9,6.9,0,1,0,6.9-6.84Zm.06,10.93a4.09,4.09,0,0,1-4.08-4.09,3.88,3.88,0,0,1,4-4,4.09,4.09,0,0,1,4.14,4.08A4,4,0,0,1,742.48,46.65Z" style="fill:#231815"/><path d="M342.59,77.58c-4.66-1.63-6.2-2.58-6.2-5a4,4,0,0,1,4.19-4.06c3.94,0,5.65,2.72,6.57,4.18.57.94.73,1.19,1.24,1.19a1,1,0,0,0,1-1c0-.37-1.85-4.88-1.86-4.91l0-.09c-.33-.85-.53-1.37-1.21-1.37-.37,0-.53.13-1,.46l-.06.06a.9.9,0,0,1-.51.13c-.16,0-1-.18-1.45-.27l-.51-.1a14,14,0,0,0-2.49-.28c-4.25,0-7.22,2.89-7.22,7s3.11,6.14,8.13,7.87c4.48,1.55,6.07,2.58,6.07,5.27a4.46,4.46,0,0,1-4.61,4.71A9.59,9.59,0,0,1,335.06,87l-.22-.35c-.65-1-.83-1.27-1.39-1.27a1.15,1.15,0,0,0-1.18,1.14c0,.35,1.72,4.76,1.73,4.8l0,.11c.65,1.71.79,2.06,1.51,2.06.5,0,.66-.14,1.29-.7a1.35,1.35,0,0,1,1-.32,4.48,4.48,0,0,1,1.22.32,11.42,11.42,0,0,0,3.81.7,7.61,7.61,0,0,0,7.79-7.76C350.65,82.93,349.67,80,342.59,77.58Z" style="fill:#231815"/><path d="M370.92,90.87a1.13,1.13,0,0,1-1.14-.71,22.75,22.75,0,0,1-.2-4.53c0-6.07,0-6.18-.43-7.57-.54-1.77-2.11-2.78-4.31-2.78a7.27,7.27,0,0,0-3.91,1.2,2.79,2.79,0,0,0-.28.21c-.18.13-.61.46-.8.58,0-.16,0-.44,0-.68V74.47c0-5.34,0-7,0-7.12a.75.75,0,0,0-.73-.8c-.28,0-4.33,1.16-4.35,1.17-.4.1-.94.23-.94.82a.77.77,0,0,0,.77.76,5.1,5.1,0,0,0,.56-.07l.42-.06a.92.92,0,0,1,.89.52,31,31,0,0,1,.18,5.3c0,12.6,0,14.54-.21,15.14a1.12,1.12,0,0,1-1.13.74c-.84,0-1.27.33-1.27,1,0,.44.23,1,1.34,1h5.81c.35,0,1.41,0,1.41-.94s-1-1-1.45-1c-1.23,0-1.34-.62-1.34-3.78,0-6.39,0-6.49.22-7.08.38-1.2,2.32-2.42,3.84-2.42a2.22,2.22,0,0,1,1.89,1.07c.64,1,.64,2.54.64,6.73,0,4.84,0,5.09-.78,5.38-.11,0-.56.07-.83.09a3.81,3.81,0,0,0-.76.1.92.92,0,0,0-.68.88c0,.44.23,1,1.34,1h6.52c1,0,1.44-.31,1.44-.94C372.63,90.87,371.56,90.87,370.92,90.87Z" style="fill:#231815"/><path d="M390.32,90.3c-.06,0-.24,0-.55.3a1.85,1.85,0,0,1-.81.27c-.85,0-.93-.79-.93-2.59,0-.42,0-1.29,0-2.32,0-2.17,0-4.86,0-5.64-.08-3.71-3.15-5-6-5-3.1,0-6.57,1.71-6.57,4a2,2,0,0,0,2,2.09c1.62,0,2-1.48,2.19-2.47l0-.1a2,2,0,0,1,2.3-1.74c.65,0,2.77.26,2.77,3.58,0,1.46,0,1.46-1.94,2-5.3,1.55-8,3.83-8,6.76,0,2.77,2.46,4,4.74,4a8.09,8.09,0,0,0,4.75-1.68l.51-.4a.83.83,0,0,1,.12.28,2.93,2.93,0,0,0,2.63,1.8c1.63,0,3.28-1.62,3.28-2.53A.59.59,0,0,0,390.32,90.3Zm-11.71-1.21c0-3,4.92-5,5.9-5,.22,0,.29,0,.29.83,0,3.9-.07,4.06-.21,4.38-.37.89-2.39,1.88-3.48,1.88C378.73,91.14,378.61,89.43,378.61,89.09Z" style="fill:#231815"/><path d="M405.88,75.28c-2.85,0-5,3-5.13,3.09l-.27.35c0-.29,0-.8,0-1.42V75.81a.41.41,0,0,0,0-.19.58.58,0,0,0-.55-.34,21.28,21.28,0,0,0-2.81.82l-1.06.32-.28.09c-1.36.43-1.68.54-1.68,1.1a.76.76,0,0,0,.76.76,4.64,4.64,0,0,0,.91-.16c.25,0,.63-.14.72-.14.33,0,.6.13.66.36s.18,1,.18,6.48c0,4.48-.06,5-.31,5.42a1.26,1.26,0,0,1-1.2.54c-.92,0-1.72,0-1.72,1,0,.36.17,1,1.31,1h7c1.08,0,1.3-.53,1.3-1a1,1,0,0,0-1.13-1c-2,0-2.06-.15-2.06-3.24,0-5,.15-5.72.9-7.07a3.9,3.9,0,0,1,2.51-2c.23,0,.41.16.62.38l0,0a2,2,0,0,0,1.65.87,2.19,2.19,0,0,0,2.13-2.23A2.27,2.27,0,0,0,405.88,75.28Z" style="fill:#231815"/><path d="M424.7,87.92c-.37,0-.69.35-1.28,1.09-.13.15-.23.28-.3.35a6,6,0,0,1-3.82,1.78c-2.52,0-5.22-2.64-5.22-6.57,0-.66.21-.66.67-.66h8.93c.36,0,1.44,0,1.44-1.21,0-1.9-1.76-7.42-7.18-7.42-3.67,0-7.62,2.84-7.62,9,0,5.46,3.15,9.12,7.86,9.12s7.28-3.54,7.28-4.66A.81.81,0,0,0,424.7,87.92Zm-10.38-6.3c0-.47.81-4.57,3.72-4.57,2.53,0,3.65,3.14,3.65,4.33,0,.47-.05.56-.69.56h-6.22C414.36,81.94,414.32,81.88,414.32,81.62Z" style="fill:#231815"/><path d="M454,89.38c-.29,0-.59.24-1.17.75a3.38,3.38,0,0,1-.31.25,3.33,3.33,0,0,1-2,.76,1.82,1.82,0,0,1-1.93-1.56c0-.24-.09-2.16-.09-6.84,0-3.16.06-4.52.11-4.7s.38-.18.38-.18h3.64c1.06,0,1.34-.63,1.34-1s-.1-1-1.37-1h-3.61c-.26,0-.42-.07-.42-.43V71.12c0-1-.68-1.14-1-1.14-.57,0-.86.41-.86,1.21,0,4.18-2.72,4.63-3,4.67-1,.14-1.53.21-1.53,1s1,1,1.34,1h1.33c.15,0,.42,0,.43.45,0,.67,0,3.65,0,8.39v.22c0,3.36,0,6.53,4,6.53,3,0,5.38-2.42,5.38-3.37A.65.65,0,0,0,454,89.38Z" style="fill:#231815"/><path d="M473.62,90.87a1.1,1.1,0,0,1-1.13-.71,21.08,21.08,0,0,1-.21-4.53c0-6.07,0-6.18-.43-7.57-.54-1.77-2.11-2.78-4.31-2.78a7.26,7.26,0,0,0-3.9,1.2,2.62,2.62,0,0,0-.29.21c-.18.13-.61.46-.8.58,0-.16,0-.44,0-.68V74.47c0-5.34,0-7,0-7.12a.75.75,0,0,0-.73-.8c-.28,0-4.32,1.16-4.35,1.17-.39.1-.93.23-.93.82a.76.76,0,0,0,.76.76,5.1,5.1,0,0,0,.56-.07l.43-.06a.93.93,0,0,1,.89.52,32.58,32.58,0,0,1,.18,5.3c0,12.6,0,14.54-.21,15.14a1.14,1.14,0,0,1-1.13.74c-.85,0-1.28.33-1.28,1,0,.44.23,1,1.35,1h5.8c.35,0,1.41,0,1.41-.94s-1-1-1.44-1c-1.23,0-1.34-.62-1.34-3.78,0-6.39,0-6.49.22-7.08.38-1.2,2.32-2.42,3.83-2.42a2.22,2.22,0,0,1,1.89,1.07c.65,1,.65,2.54.65,6.73,0,4.84,0,5.09-.79,5.38-.11,0-.56.07-.83.09a4,4,0,0,0-.76.1.92.92,0,0,0-.68.88c0,.44.23,1,1.34,1h6.52c1,0,1.45-.31,1.45-.94C475.34,90.87,474.26,90.87,473.62,90.87Z" style="fill:#231815"/><path d="M491.94,87.92c-.37,0-.69.35-1.29,1.09a3.2,3.2,0,0,1-.3.35,5.91,5.91,0,0,1-3.82,1.78c-2.51,0-5.21-2.64-5.21-6.57,0-.66.21-.66.66-.66h8.94c.35,0,1.44,0,1.44-1.21,0-1.9-1.77-7.42-7.19-7.42-3.67,0-7.62,2.84-7.62,9,0,5.46,3.16,9.12,7.86,9.12s7.29-3.54,7.29-4.66A.81.81,0,0,0,491.94,87.92Zm-10.38-6.3c0-.47.81-4.57,3.72-4.57,2.53,0,3.65,3.14,3.65,4.33,0,.47-.06.56-.7.56H482C481.6,81.94,481.56,81.88,481.56,81.62Z" style="fill:#231815"/><path d="M527.27,67.2H510.93c-.55,0-1.48,0-1.48,1s.8,1,1.72,1,2,.16,2.2,1.38c0,.17.09,1.43.09,9.37,0,8.94,0,9-.09,9.53-.26,1.32-1.2,1.42-2.61,1.42-.87,0-1.31.33-1.31,1,0,1,1,1,1.48,1h8.73c.4,0,1.34,0,1.34-1s-.79-1-1.72-1c-2.28,0-2.36-.63-2.36-4,0-4.17.07-5.92.11-6.13s.38-.21.39-.21h4c2.9,0,2.9,1.83,2.9,3.59,0,.31,0,1.27,1,1.27.36,0,1-.15,1-1.17V75.37a1,1,0,0,0-1-1.07c-1,0-1,.9-1,1.44,0,2.12-.73,2.84-2.9,2.84h-4a.4.4,0,0,1-.46-.37c0-.19,0-2.25,0-5.12,0-3,.09-3.92,2.06-3.92h3.77a7.91,7.91,0,0,1,6.68,3.89c.89,1.33.94,1.41,1.41,1.41a1,1,0,0,0,1-1c0-.33-1.26-3.86-1.32-4C529.84,67.39,529.33,67.2,527.27,67.2Z" style="fill:#231815"/><path d="M551,90.84c-1.07,0-1.28-.65-1.28-1.78,0-.51,0-1.91,0-3.27s0-2.52,0-3,0-.86,0-1.56c0-4,0-5.2,0-5.41a.78.78,0,0,0-.72-.59,11.9,11.9,0,0,0-1.56.36l-.91.23c-2.43.59-2.81.68-2.81,1.4a.76.76,0,0,0,.84.7l.61-.06.54,0c.8,0,.86.56.86,4,0,3.1-.14,6.5-.43,7.05a5.13,5.13,0,0,1-3.83,2.24,2.65,2.65,0,0,1-2.56-1.73,10.23,10.23,0,0,1-.31-3.62c0-.83,0-7.22,0-9.22v-.66a.74.74,0,0,0-.72-.63c-.2,0-2.83.75-3.25.88-1.28.35-1.63.45-1.63,1a.74.74,0,0,0,.77.73l.59,0,.43,0c.39,0,.43.11.45.17a33.08,33.08,0,0,1,.14,4.78c0,.25,0,.8,0,1.43,0,1.36,0,3.05,0,3.55.26,5.39,4.41,5.66,5.25,5.66a7.71,7.71,0,0,0,4.3-1.58l.06,0a4.46,4.46,0,0,0,.36-.29c.09-.08.23-.19.33-.29,0,.13,0,.28,0,.46a1.05,1.05,0,0,0,1.07,1.1h3.88a1,1,0,0,0,1-1C552.36,90.84,551.38,90.84,551,90.84Z" style="fill:#231815"/><path d="M566.75,89.38c-.3,0-.6.24-1.18.75a3.53,3.53,0,0,1-.3.25,3.35,3.35,0,0,1-2,.76,1.81,1.81,0,0,1-1.93-1.56c-.05-.24-.09-2.16-.09-6.84a45.21,45.21,0,0,1,.1-4.7c.07-.16.39-.18.39-.18h3.63c1.06,0,1.35-.63,1.35-1s-.1-1-1.38-1h-3.6c-.27,0-.42-.07-.42-.43V71.12c0-1-.68-1.14-1-1.14-.58,0-.87.41-.87,1.21,0,4.18-2.71,4.63-3,4.67-1,.14-1.52.21-1.52,1s1,1,1.34,1h1.33c.14,0,.42,0,.42.45,0,.67,0,3.65,0,8.39v.22c0,3.36,0,6.53,4,6.53,3,0,5.38-2.42,5.38-3.37A.65.65,0,0,0,566.75,89.38Zm-6.52-18.94h0v0Z" style="fill:#231815"/><path d="M586.55,90.84c-1.06,0-1.27-.65-1.27-1.78,0-.51,0-1.91,0-3.27s0-2.52,0-3,0-.86,0-1.56c0-4,0-5.2,0-5.41a.79.79,0,0,0-.72-.59,12.16,12.16,0,0,0-1.57.36l-.9.23c-2.44.59-2.81.68-2.81,1.4a.75.75,0,0,0,.83.7l.62-.06.54,0c.8,0,.86.56.86,4,0,3.1-.14,6.5-.43,7.05a5.13,5.13,0,0,1-3.83,2.24,2.64,2.64,0,0,1-2.56-1.73,10.23,10.23,0,0,1-.31-3.62c0-.83,0-7.22,0-9.22v-.66a.75.75,0,0,0-.72-.63c-.21,0-2.83.75-3.25.88-1.28.35-1.63.45-1.63,1a.73.73,0,0,0,.76.73l.6,0,.42,0c.4,0,.43.11.45.17a29.22,29.22,0,0,1,.15,4.78c0,.25,0,.8,0,1.43,0,1.36,0,3.05,0,3.55.26,5.39,4.42,5.66,5.25,5.66a7.72,7.72,0,0,0,4.31-1.58l.06,0a4.46,4.46,0,0,0,.36-.29l.33-.29c0,.13,0,.28,0,.46a1.05,1.05,0,0,0,1.07,1.1h3.87a1,1,0,0,0,1-1C587.9,90.84,586.92,90.84,586.55,90.84Z" style="fill:#231815"/><path d="M602.35,75.28c-2.85,0-5,3-5.12,3.09s-.19.25-.28.35c0-.3,0-.8,0-1.42V75.81a.41.41,0,0,0,0-.19.58.58,0,0,0-.55-.34,22.3,22.3,0,0,0-2.8.82c-.49.15-.9.28-1.07.32l-.27.09c-1.36.43-1.68.54-1.68,1.1a.76.76,0,0,0,.76.76,4.76,4.76,0,0,0,.91-.16c.25,0,.63-.14.72-.14.33,0,.59.13.65.36s.18,1,.18,6.48c0,4.48-.06,5-.31,5.42a1.25,1.25,0,0,1-1.2.54c-.92,0-1.71,0-1.71,1,0,.36.16,1,1.3,1h7c1.08,0,1.31-.53,1.31-1a1,1,0,0,0-1.14-1c-2,0-2.06-.15-2.06-3.24,0-5,.15-5.72.9-7.07a3.91,3.91,0,0,1,2.52-2c.23,0,.4.16.61.38l0,0a2,2,0,0,0,1.66.87,2.18,2.18,0,0,0,2.12-2.23A2.27,2.27,0,0,0,602.35,75.28Z" style="fill:#231815"/><path d="M621.85,87.92c-.37,0-.69.35-1.28,1.09a3.2,3.2,0,0,1-.3.35,5.93,5.93,0,0,1-3.82,1.78c-2.52,0-5.21-2.64-5.21-6.57,0-.66.21-.66.66-.66h8.93c.36,0,1.45,0,1.45-1.21,0-1.9-1.77-7.42-7.19-7.42-3.67,0-7.62,2.84-7.62,9,0,5.46,3.16,9.12,7.86,9.12s7.29-3.54,7.29-4.66A.82.82,0,0,0,621.85,87.92Zm-10.38-6.3c0-.47.81-4.57,3.72-4.57,2.53,0,3.66,3.14,3.66,4.33,0,.47-.06.56-.7.56h-6.22C611.52,81.94,611.47,81.88,611.47,81.62Z" style="fill:#231815"/></g></g></svg>