<?xml version="1.0" encoding="utf-8"?>
<!-- Generator: Adobe Illustrator 23.0.6, SVG Export Plug-In . SVG Version: 6.00 Build 0)  -->
<svg version="1.1" id="レイヤー_1" xmlns="http://www.w3.org/2000/svg" xmlns:xlink="http://www.w3.org/1999/xlink" x="0px"
	 y="0px" viewBox="0 0 138.5 90.3" style="enable-background:new 0 0 138.5 90.3;" xml:space="preserve">
<style type="text/css">
	.st0{fill:none;}
	.st1{fill:#FFFFFF;}
	.st2{clip-path:url(#SVGID_2_);}
	.st3{fill:#C8C9CA;}
	.st4{fill:none;stroke:#221E1F;stroke-width:0.5;}
	.st5{clip-path:url(#SVGID_4_);}
	.st6{font-family:'KozMinPr6N-Regular-83pv-RKSJ-H';}
	.st7{font-size:3.5px;}
	.st8{font-family:'KozMinPr6N-Bold-83pv-RKSJ-H';}
	.st9{font-size:5px;}
	.st10{letter-spacing:1;}
	.st11{fill:none;stroke:#000000;stroke-width:0.25;stroke-miterlimit:10;}
	.st12{fill:none;stroke:#231815;stroke-width:0.5;}
</style>
<path class="st0" d="M138.2,86.8c0.1,1.7-1.3,3.2-3,3.3H3.3c-1.7-0.1-3.1-1.6-3-3.3V3.6c-0.1-1.7,1.3-3.2,3-3.3h132
	c1.7,0.1,3.1,1.6,3,3.3L138.2,86.8z"/>
<path class="st1" d="M138.2,86.8c0.1,1.7-1.3,3.2-3,3.3H3.3c-1.7-0.1-3.1-1.6-3-3.3V3.6c-0.1-1.7,1.3-3.2,3-3.3h132
	c1.7,0.1,3.1,1.6,3,3.3L138.2,86.8z"/>
<g>
	<g>
		<defs>
			<path id="SVGID_1_" d="M138.2,86.8c0.1,1.7-1.3,3.2-3,3.3H3.3c-1.7-0.1-3.1-1.6-3-3.3V3.6c-0.1-1.7,1.3-3.2,3-3.3h132
				c1.7,0.1,3.1,1.6,3,3.3L138.2,86.8z"/>
		</defs>
		<clipPath id="SVGID_2_">
			<use xlink:href="#SVGID_1_"  style="overflow:visible;"/>
		</clipPath>
		<g class="st2">
			<rect x="0.2" y="0.2" class="st3" width="138" height="21.4"/>
		</g>
	</g>
</g>
<path class="st4" d="M138.2,86.8c0.1,1.7-1.3,3.2-3,3.3H3.3c-1.7-0.1-3.1-1.6-3-3.3V3.6c-0.1-1.7,1.3-3.2,3-3.3h132
	c1.7,0.1,3.1,1.6,3,3.3L138.2,86.8z"/>
<title>card_otherO のコピー</title>
<g>
	<g>
		<defs>
			<rect id="SVGID_3_" x="102.2" y="26" width="31.3" height="38.4"/>
		</defs>
		<clipPath id="SVGID_4_">
			<use xlink:href="#SVGID_3_"  style="overflow:visible;"/>
		</clipPath>
		<g class="st5">
			<rect x="101.7" y="26" class="st3" width="31.8" height="38.4"/>
		</g>
	</g>
</g>
<path class="st1" d="M122.3,48.7h-0.8V48c3.1-2.1,4.9-5.5,4.7-9.2c0-5.7-3.8-10.3-8.5-10.3s-8.5,4.6-8.5,10.3
	c-0.1,3.6,1.5,7,4.4,9.1v0.9h-0.8c-5.3,0-9.7,5-9.7,8.7v5.9H132v-5.9C132,53.7,127.6,48.7,122.3,48.7z"/>
<text transform="matrix(1 0 0 1 7 36.1801)" class="st6 st7">氏名</text>
<text transform="matrix(1 0 0 1 7 44.17)" class="st6 st7">住所</text>
<text transform="matrix(1 0 0 1 28.46 36.8)" class="st8 st9">日興太郎</text>
<text transform="matrix(1 0 0 1 28.46 44.55)" class="st8 st9">東京都千代田区丸の</text>
<text transform="matrix(1 0 0 1 73.46 44.55)" class="st8 st9 st10">内</text>
<text transform="matrix(1 0 0 1 79.71 44.55)" class="st8 st9">XX-X-XX</text>
<text transform="matrix(1 0 0 1 7 52.51)" class="st6 st7">生年月日</text>
<text transform="matrix(1 0 0 1 28.46 52.88)" class="st8 st9">□□◯◯年〇〇月〇〇日</text>
<rect x="6.6" y="5.7" class="st11" width="4.8" height="4.8"/>
<rect x="12.2" y="5.7" class="st11" width="4.8" height="4.8"/>
<rect x="17.8" y="5.7" class="st11" width="4.8" height="4.8"/>
<rect x="6.6" y="12.3" class="st11" width="4.8" height="4.8"/>
<rect x="12.2" y="12.3" class="st11" width="4.8" height="4.8"/>
<rect x="17.8" y="12.3" class="st11" width="4.8" height="4.8"/>
<rect x="23.4" y="12.3" class="st11" width="4.8" height="4.8"/>
<rect x="28.9" y="12.3" class="st11" width="4.8" height="4.8"/>
<rect x="48.4" y="12.3" class="st11" width="4.8" height="4.8"/>
<rect x="54" y="12.3" class="st11" width="4.8" height="4.8"/>
<rect x="59.6" y="12.3" class="st11" width="4.8" height="4.8"/>
<rect x="65.2" y="12.3" class="st11" width="4.8" height="4.8"/>
<rect x="42.8" y="5.7" class="st11" width="4.8" height="4.8"/>
<rect x="48.3" y="5.7" class="st11" width="4.8" height="4.8"/>
<rect x="53.9" y="5.7" class="st11" width="4.8" height="4.8"/>
<rect x="59.5" y="5.7" class="st11" width="4.8" height="4.8"/>
<rect x="6.6" y="68.5" class="st11" width="4.8" height="4.8"/>
<rect x="12.2" y="68.5" class="st11" width="4.8" height="4.8"/>
<rect x="17.8" y="68.5" class="st11" width="4.8" height="4.8"/>
<rect x="6.6" y="75.1" class="st11" width="4.8" height="4.8"/>
<rect x="12.2" y="75.1" class="st11" width="4.8" height="4.8"/>
<rect x="17.8" y="75.1" class="st11" width="4.8" height="4.8"/>
<rect x="23.4" y="75.1" class="st11" width="4.8" height="4.8"/>
<rect x="28.9" y="75.1" class="st11" width="4.8" height="4.8"/>
<rect x="48.4" y="75.1" class="st11" width="4.8" height="4.8"/>
<rect x="54" y="75.1" class="st11" width="4.8" height="4.8"/>
<rect x="59.6" y="75.1" class="st11" width="4.8" height="4.8"/>
<rect x="65.2" y="75.1" class="st11" width="4.8" height="4.8"/>
<rect x="42.8" y="68.5" class="st11" width="4.8" height="4.8"/>
<rect x="48.3" y="68.5" class="st11" width="4.8" height="4.8"/>
<rect x="53.9" y="68.5" class="st11" width="4.8" height="4.8"/>
<rect x="59.5" y="68.5" class="st11" width="4.8" height="4.8"/>
<line class="st12" x1="89.2" y1="75.4" x2="133.5" y2="75.4"/>
<line class="st12" x1="89.2" y1="79.9" x2="133.5" y2="79.9"/>
<line class="st12" x1="89.2" y1="70.9" x2="133.5" y2="70.9"/>
</svg>
