<svg xmlns="http://www.w3.org/2000/svg" xmlns:xlink="http://www.w3.org/1999/xlink" width="162.508" height="104.508" viewBox="0 0 162.508 104.508"><defs><style>.a{fill:#d5e9cf;stroke-width:0.499px;}.a,.d,.e,.j{stroke:#231815;}.a,.d,.h,.j{stroke-miterlimit:10;}.b{fill:#231815;}.c{fill:#fff46e;}.d,.e,.h,.j{fill:none;}.d,.h{stroke-width:0.283px;}.e{stroke-width:0.227px;}.f{fill:url(#a);}.g{fill:#fff;}.h{stroke:#c30d23;}.i{fill:#c30d23;}.j{stroke-width:0.508px;}</style><linearGradient id="a" x1="137.186" y1="31.731" x2="137.186" y2="87.981" gradientUnits="userSpaceOnUse"><stop offset="0" stop-color="#4596bd"/><stop offset="1" stop-color="#fff"/></linearGradient></defs><title>27-1</title><rect class="a" x="0.254" y="0.254" width="162" height="104" rx="4.798" ry="4.798"/><path class="b" d="M6.26,19.633v1a4.342,4.342,0,0,0,.879-.243v.269a3.884,3.884,0,0,1-1.037.293L6,20.712l0,0V20.7l-.013-.028.013,0V18.485h.244A4.942,4.942,0,0,0,7.9,18.216l.146.244a5.843,5.843,0,0,1-.7.172c.018.3.041.556.068.769H8.459v.232H7.45a2.479,2.479,0,0,0,.252.745q.183.342.329.342c.049,0,.088-.035.116-.1a1.716,1.716,0,0,0,.068-.433l.281.122a1.484,1.484,0,0,1-.123.556.315.315,0,0,1-.293.189.7.7,0,0,1-.6-.44,2.726,2.726,0,0,1-.318-.9l-.012-.079Zm0-.9V19.4h.864c-.022-.208-.038-.45-.05-.726A6.093,6.093,0,0,1,6.26,18.729Z"/><path class="b" d="M11.133,18.766a3.779,3.779,0,0,1-.954.965h1.186v1.184H9.937v.147H9.68V20.044a6.289,6.289,0,0,1-.769.358l-.147-.28a5.647,5.647,0,0,0,1.245-.6,1.745,1.745,0,0,0-.39-.308l.2-.245a2.387,2.387,0,0,1,.415.393,2.393,2.393,0,0,0,.549-.588H9.9a2.792,2.792,0,0,1-.813.818l-.2-.256a2.035,2.035,0,0,0,.978-1.124l.28.086c-.033.08-.07.157-.109.232h1.1Zm-.024,1.917v-.72H9.937v.72Z"/><rect class="c" x="0.754" y="74.754" width="111" height="15"/><path class="b" d="M7.323,25.685H6.944l-.9-2v2H5.772V23.266h.342l.941,2.04v-2.04h.268Z"/><path class="b" d="M7.641,25.685,8.4,23.266h.3l.745,2.419H9.131l-.243-.855h-.7l-.252.855Zm.9-2.064-.286.965h.56Z"/><path class="b" d="M11.622,25.685h-.269V23.67l-.537,1.185h-.293l-.5-1.2v2.028H9.753V23.266h.367l.549,1.246.574-1.246h.379Z"/><path class="b" d="M13.4,25.685H12.073V23.266H13.4v.245H12.342v.745h.94V24.5h-.94v.941H13.4Z"/><path class="b" d="M5.744,38.837h.531a.826.826,0,0,1,.664.265,1.2,1.2,0,0,1,.239.775,1.25,1.25,0,0,1-.218.776.806.806,0,0,1-.685.287H5.744Zm.233,1.89h.3a.578.578,0,0,0,.5-.233,1.027,1.027,0,0,0,.17-.617.949.949,0,0,0-.175-.61.6.6,0,0,0-.494-.218h-.3Z"/><path class="b" d="M7.391,40.94l.659-2.1h.265l.648,2.1H8.687L8.476,40.2H7.865l-.219.744Zm.786-1.795-.248.839h.486Z"/><path class="b" d="M10.546,39.049H9.951V40.94H9.717V39.049h-.6v-.212h1.424Z"/><path class="b" d="M11.99,40.94H10.832v-2.1H11.99v.212h-.924V39.7h.818v.212h-.818v.818h.924Z"/><path class="b" d="M14.051,38.837a.652.652,0,0,1,.5.281,1.463,1.463,0,0,1,.011,1.551.787.787,0,0,1-1.206-.021,1.241,1.241,0,0,1-.213-.749,1.209,1.209,0,0,1,.229-.776.661.661,0,0,1,.525-.286Zm-.074.223a.524.524,0,0,0-.42.217.968.968,0,0,0-.175.622.992.992,0,0,0,.159.611.522.522,0,0,0,.436.207.513.513,0,0,0,.409-.2.963.963,0,0,0,.165-.621,1.019,1.019,0,0,0-.165-.622A.5.5,0,0,0,13.977,39.06Z"/><path class="b" d="M15.125,40.94v-2.1H16.24v.212h-.882V39.7h.775v.212h-.775V40.94Z"/><path class="b" d="M18.587,39.792a.521.521,0,0,1,.308.553.592.592,0,0,1-.154.446.577.577,0,0,1-.419.149h-.871v-2.1h.818a.553.553,0,0,1,.366.127.466.466,0,0,1,.154.382A.454.454,0,0,1,18.587,39.792Zm-.9-.095h.585a.29.29,0,0,0,.2-.08.347.347,0,0,0,.091-.271.285.285,0,0,0-.085-.217.288.288,0,0,0-.2-.08h-.585Zm0,1.03h.638a.351.351,0,0,0,.244-.085.382.382,0,0,0,.1-.3.456.456,0,0,0-.106-.33.392.392,0,0,0-.287-.106h-.585Z"/><path class="b" d="M19.618,40.94h-.595v-.213H19.2V39.049h-.181v-.212h.595v.212h-.181v1.678h.181Z"/><path class="b" d="M21.3,40.94H21l-.549-.914h-.365v.914h-.233v-2.1H20.5a.8.8,0,0,1,.521.148.634.634,0,0,1,0,.887.647.647,0,0,1-.317.139Zm-1.211-1.126H20.5a.493.493,0,0,0,.357-.112.368.368,0,0,0,.111-.271.364.364,0,0,0-.111-.282.532.532,0,0,0-.357-.1h-.414Z"/><path class="b" d="M22.869,39.049h-.6V40.94H22.04V39.049h-.595v-.212h1.424Z"/><path class="b" d="M24.515,40.94h-.234V39.909h-.892V40.94h-.234v-2.1h.234v.86h.892v-.86h.234Z"/><path class="b" d="M35.012,39.013,34.4,40.245v.872h-.233v-.872l-.607-1.232h.266l.457.946.468-.946Z"/><path class="b" d="M42.7,41.117h-.234V39.364L42,40.394h-.254l-.436-1.041v1.764h-.234v-2.1H41.4l.478,1.084.5-1.084H42.7Z"/><path class="b" d="M52.211,39.013h.531a.827.827,0,0,1,.664.266,1.2,1.2,0,0,1,.239.775,1.25,1.25,0,0,1-.218.776.8.8,0,0,1-.685.287h-.531Zm.234,1.891h.3a.58.58,0,0,0,.5-.233,1.02,1.02,0,0,0,.17-.617.947.947,0,0,0-.175-.61.6.6,0,0,0-.494-.219h-.3Z"/><path class="b" d="M74.912,39.661a.844.844,0,0,0-.063-.233.306.306,0,0,0-.144-.149.448.448,0,0,0-.217-.054.564.564,0,0,0-.244.043.28.28,0,0,0-.123.111.346.346,0,0,0-.037.165.21.21,0,0,0,.069.16.6.6,0,0,0,.149.1,1.825,1.825,0,0,0,.175.069l.15.053a1.2,1.2,0,0,1,.259.138.774.774,0,0,1,.207.212.556.556,0,0,1-.011.611.475.475,0,0,1-.228.181,1.072,1.072,0,0,1-.356.048,1.188,1.188,0,0,1-.319-.048.546.546,0,0,1-.276-.175.714.714,0,0,1-.127-.4h.233a.416.416,0,0,0,.091.27.383.383,0,0,0,.185.107.937.937,0,0,0,.447,0,.268.268,0,0,0,.154-.107.3.3,0,0,0,.058-.185.351.351,0,0,0-.058-.2.447.447,0,0,0-.143-.144.832.832,0,0,0-.181-.085l-.148-.053a2.01,2.01,0,0,1-.25-.1.623.623,0,0,1-.218-.175.422.422,0,0,1-.1-.277.539.539,0,0,1,.081-.3.437.437,0,0,1,.216-.174.787.787,0,0,1,.288-.054h.106a.577.577,0,0,1,.282.074.673.673,0,0,1,.222.2.683.683,0,0,1,.1.371Z"/><path class="b" d="M76.655,41.117H75.5v-2.1h1.158v.212H75.73v.649h.819v.212H75.73V40.9h.925Z"/><path class="b" d="M77.186,41.117H76.92l.614-1.057-.6-1.047H77.2l.471.817.475-.817h.265L77.8,40.06l.608,1.057h-.265l-.477-.827Z"/><path class="b" d="M49.26,86.8l-.616,1.232V88.9h-.233v-.872L47.8,86.8h.266l.457.946L49,86.8Z"/><path class="b" d="M62.181,88.9h-.235V87.15l-.467,1.031h-.255l-.435-1.041V88.9h-.234V86.8h.318l.479,1.084.5-1.084h.33Z"/><path class="b" d="M73.82,86.8h.532a.832.832,0,0,1,.664.265,1.2,1.2,0,0,1,.239.776,1.251,1.251,0,0,1-.218.775.8.8,0,0,1-.685.288H73.82Zm.233,1.891h.3a.578.578,0,0,0,.5-.233,1.024,1.024,0,0,0,.17-.617.956.956,0,0,0-.174-.611.6.6,0,0,0-.494-.218h-.3Z"/><path class="b" d="M5.613,83.706l.208-.183a1.027,1.027,0,0,0,.41.342,1.246,1.246,0,0,0,.507.1,6.248,6.248,0,0,0,1.2-.122V84.1a6.512,6.512,0,0,1-1.2.122,1.533,1.533,0,0,1-.715-.14A1.074,1.074,0,0,1,5.613,83.706Zm2.138-1.453a5.764,5.764,0,0,0-.611.293l-.134-.1a2.3,2.3,0,0,1,.281-.208,6.02,6.02,0,0,0-1.4-.013l-.025-.256a7.322,7.322,0,0,1,1.868.073Z"/><path class="b" d="M9.693,81.862a1.5,1.5,0,0,1,.592.122,1.06,1.06,0,0,1,.458.36,1.013,1.013,0,0,1,.171.605,1.281,1.281,0,0,1-.128.593,1.142,1.142,0,0,1-.4.427,2.048,2.048,0,0,1-.757.263l-.123-.269a2.2,2.2,0,0,0,.7-.2.787.787,0,0,0,.336-.33,1.042,1.042,0,0,0,.1-.482.818.818,0,0,0-.122-.44.753.753,0,0,0-.336-.292,1.106,1.106,0,0,0-.432-.1,7,7,0,0,1-.087.836,1.723,1.723,0,0,1-.311.732.668.668,0,0,1-.531.324.462.462,0,0,1-.4-.2.776.776,0,0,1-.141-.465,1.744,1.744,0,0,1,.153-.72,1.322,1.322,0,0,1,.458-.556A1.36,1.36,0,0,1,9.693,81.862Zm-.611.422a1.055,1.055,0,0,0-.391.451,1.447,1.447,0,0,0-.134.617.5.5,0,0,0,.073.275.223.223,0,0,0,.2.116c.114,0,.228-.087.341-.263a1.689,1.689,0,0,0,.239-.61,5.82,5.82,0,0,0,.08-.736A1.014,1.014,0,0,0,9.082,82.284Z"/><path class="b" d="M11.317,82.3V82.07h1.124V82.3Zm1.869-.452h-.7v-.244h1.539v.244h-.575v.977h.489v.232h-.489v.977h.624v.245H12.356v-.037h-.7v.122H11.39V83.5h.966v.537h.28V82.558h.269v1.478h.281Zm-1.8.928v-.232h.966v.232Zm0,.477v-.232h.966v.232Zm.111-1.491.158-.244a1.6,1.6,0,0,1,.6.269l-.183.232A1.979,1.979,0,0,0,11.5,81.764Zm.158,2.248h.428v-.293h-.428Z"/><path class="b" d="M14.517,81.715h1.148v2.016H15.4V83.6h-.612v.257h-.268Zm.88.819v-.587h-.612v.587Zm-.612.232v.6H15.4v-.6Zm.563,1.588-.172-.245A1.048,1.048,0,0,0,15.946,83V81.606H17.2v2.406q0,.342-.306.342h-.415l-.036-.245h.391a.085.085,0,0,0,.1-.1V83.34h-.748A1.267,1.267,0,0,1,15.348,84.354ZM16.215,83c0,.033,0,.066,0,.1h.722v-.513h-.72Zm0-1.16v.5h.72v-.5Z"/><path class="b" d="M18.853,81.715v-.243h.268v.243h.856v.355h.354v.207h-.354v.367h-.856v.134h1.063v.208H19.121v.146h1.21v.208H17.644v-.208h1.209v-.146H17.778v-.208h1.075v-.134h-.879v-.22h.879v-.147H17.644V82.07h1.209v-.134h-.879v-.221Zm-.879,2.639v-.928h2v.928h-.27v-.062H18.242v.062Zm1.733-.6v-.122H18.242v.122Zm0,.33v-.122H18.242v.122Zm-.586-2.149v.134h.586v-.134Zm0,.341v.147h.586v-.147Z"/><path class="b" d="M21.21,81.593l.269.111a4.073,4.073,0,0,0-.391,1.465,1.2,1.2,0,0,0,.1.55,1.553,1.553,0,0,1,.146-.367l.183.061a2.335,2.335,0,0,0-.146.757l-.245.111a2.321,2.321,0,0,1-.3-1.112A4.989,4.989,0,0,1,21.21,81.593Zm2.174.489.11.269a5.505,5.505,0,0,1-.7.2v.971a2.6,2.6,0,0,1,.77.465l-.2.245a2.786,2.786,0,0,0-.575-.408.494.494,0,0,1-.133.359.589.589,0,0,1-.428.134.648.648,0,0,1-.44-.122.393.393,0,0,1-.134-.3.38.38,0,0,1,.171-.343.935.935,0,0,1,.5-.109,1.3,1.3,0,0,1,.2.015V82.6a5.928,5.928,0,0,1-.892.078v-.269a4.681,4.681,0,0,0,.892-.071v-.735H22.8v.676A3.79,3.79,0,0,0,23.384,82.082Zm-1.051,1.612a.668.668,0,0,0-.3.049.158.158,0,0,0-.091.147.137.137,0,0,0,.073.134.5.5,0,0,0,.22.036.317.317,0,0,0,.22-.067.226.226,0,0,0,.073-.176v-.1A.807.807,0,0,0,22.333,83.694Z"/><path class="b" d="M101.909,81.673l.085.269a2.233,2.233,0,0,0-1.117.44.831.831,0,0,0-.336.574.691.691,0,0,0,.416.689,2.167,2.167,0,0,0,.916.19l-.073.281a2.528,2.528,0,0,1-1.082-.306.905.905,0,0,1-.446-.854.853.853,0,0,1,.2-.507,1.089,1.089,0,0,1,.464-.372,11.846,11.846,0,0,1-1.392.1l-.073-.269A11.637,11.637,0,0,0,101.909,81.673Zm-.538.709a1.887,1.887,0,0,1,.429.342l-.2.195a1.121,1.121,0,0,0-.39-.342Zm.4-.232a2.268,2.268,0,0,1,.415.3l-.183.183a1.688,1.688,0,0,0-.379-.305Z"/><path class="b" d="M104.132,81.429v.561a6.306,6.306,0,0,0,.769-.158l.1.245a7.588,7.588,0,0,1-.867.169V82.8a1.759,1.759,0,0,1,.043.183,1.218,1.218,0,0,1-.012.33.875.875,0,0,1-.184.427,1.028,1.028,0,0,1-.323.287,2.066,2.066,0,0,1-.464.165l-.184-.269a1.332,1.332,0,0,0,.471-.11.778.778,0,0,0,.275-.207.714.714,0,0,0,.134-.257.559.559,0,0,1-.366.11.581.581,0,0,1-.421-.146.458.458,0,0,1-.154-.342.431.431,0,0,1,.166-.354.679.679,0,0,1,.445-.135.777.777,0,0,1,.3.062v-.264a8,8,0,0,1-1.428.007l.012-.257a7.768,7.768,0,0,0,1.416-.006v-.592Zm-.244,1.514a.175.175,0,0,0-.1-.164.5.5,0,0,0-.477.012.192.192,0,0,0-.109.165.232.232,0,0,0,.086.183.322.322,0,0,0,.219.073.452.452,0,0,0,.27-.08A.228.228,0,0,0,103.888,82.943Z"/><path class="b" d="M105.415,83.859a.44.44,0,0,1,.109-.3.406.406,0,0,1,.58,0,.424.424,0,0,1,.116.3.393.393,0,0,1-.116.281.4.4,0,0,1-.58,0A.407.407,0,0,1,105.415,83.859Zm.243,0a.123.123,0,0,0,.05.092.157.157,0,0,0,.109.042.144.144,0,0,0,.1-.042.123.123,0,0,0,.05-.092.15.15,0,0,0-.05-.109.138.138,0,0,0-.1-.049.17.17,0,0,0-.159.158Z"/><path class="b" d="M41.9,91.385h.562a.628.628,0,0,1,.45.148.7.7,0,0,1,0,.887.613.613,0,0,1-.45.154H42.1v.914h-.2Zm.2.977h.359a.389.389,0,0,0,.308-.112.4.4,0,0,0,.1-.271.391.391,0,0,0-.1-.282.412.412,0,0,0-.308-.1H42.1Z"/><path class="b" d="M44.592,93.488h-1v-2.1h1V91.6h-.8v.648H44.5v.212h-.709v.818h.8Z"/><path class="b" d="M46.411,93.488h-.258l-.475-.914h-.317v.914h-.2v-2.1h.562a.629.629,0,0,1,.451.148.7.7,0,0,1,0,.887.529.529,0,0,1-.275.138Zm-1.05-1.126h.359a.389.389,0,0,0,.308-.112.4.4,0,0,0,.1-.271.391.391,0,0,0-.1-.282.412.412,0,0,0-.308-.1h-.359Z"/><path class="b" d="M47.244,93.488h-.515v-.213h.156V91.6h-.156v-.212h.515V91.6h-.156v1.678h.156Z"/><path class="b" d="M48.419,91.385a.551.551,0,0,1,.438.281,1.659,1.659,0,0,1,.009,1.551.626.626,0,0,1-1.045-.021,1.383,1.383,0,0,1-.184-.749,1.338,1.338,0,0,1,.2-.776.558.558,0,0,1,.455-.286Zm-.064.223a.438.438,0,0,0-.364.217,1.08,1.08,0,0,0-.152.622,1.116,1.116,0,0,0,.138.611.433.433,0,0,0,.378.207.425.425,0,0,0,.354-.2,1.069,1.069,0,0,0,.144-.621,1.133,1.133,0,0,0-.144-.622A.415.415,0,0,0,48.355,91.608Z"/><path class="b" d="M49.585,91.385h.459a.673.673,0,0,1,.576.265,1.309,1.309,0,0,1,.207.775,1.4,1.4,0,0,1-.189.776.659.659,0,0,1-.594.287h-.459Zm.2,1.89h.256a.482.482,0,0,0,.434-.233,1.146,1.146,0,0,0,.146-.617,1.05,1.05,0,0,0-.151-.61.49.49,0,0,0-.429-.218h-.256Z"/><path class="b" d="M53.038,91.385a.548.548,0,0,1,.438.281,1.655,1.655,0,0,1,.01,1.551A.627.627,0,0,1,52.44,93.2a1.392,1.392,0,0,1-.183-.749,1.345,1.345,0,0,1,.2-.776.56.56,0,0,1,.456-.286Zm-.063.223a.441.441,0,0,0-.365.217,1.088,1.088,0,0,0-.152.622,1.107,1.107,0,0,0,.139.611.432.432,0,0,0,.378.207.423.423,0,0,0,.353-.2,1.061,1.061,0,0,0,.144-.621,1.124,1.124,0,0,0-.144-.622A.414.414,0,0,0,52.975,91.608Z"/><path class="b" d="M54.205,93.488v-2.1h.967V91.6h-.764v.648h.672v.212h-.672v1.031Z"/><path class="b" d="M57.963,91.385l-.552,2.1h-.267l-.552-2.1h.229l.452,1.816.469-1.816Z"/><path class="b" d="M58.318,93.488l.57-2.1h.231l.561,2.1h-.239l-.184-.744H58.73l-.191.744Zm.681-1.8-.216.839h.423Z"/><path class="b" d="M61.131,93.488h-.984v-2.1h.2v1.89h.781Z"/><path class="b" d="M62.03,93.488h-.515v-.213h.156V91.6h-.156v-.212h.515V91.6h-.156v1.678h.156Z"/><path class="b" d="M62.468,91.385h.46a.674.674,0,0,1,.576.265,1.323,1.323,0,0,1,.207.775,1.405,1.405,0,0,1-.189.776.66.66,0,0,1-.594.287h-.46Zm.2,1.89h.257a.482.482,0,0,0,.434-.233,1.146,1.146,0,0,0,.146-.617,1.05,1.05,0,0,0-.152-.61.489.489,0,0,0-.428-.218h-.257Z"/><path class="b" d="M64.61,93.488H64.1v-.213h.156V91.6H64.1v-.212h.515V91.6h-.156v1.678h.156Z"/><path class="b" d="M66.19,91.6h-.517v1.891h-.2V91.6h-.517v-.212H66.19Z"/><path class="b" d="M67.833,91.385,67.3,92.616v.872h-.2v-.872l-.525-1.231h.23l.4.945.405-.945Z"/><path class="b" d="M69.989,91.385a.551.551,0,0,1,.438.281,1.662,1.662,0,0,1,.01,1.551.627.627,0,0,1-1.046-.021,1.383,1.383,0,0,1-.184-.749,1.338,1.338,0,0,1,.2-.776.559.559,0,0,1,.456-.286Zm-.063.223a.438.438,0,0,0-.365.217,1.08,1.08,0,0,0-.152.622,1.116,1.116,0,0,0,.138.611.433.433,0,0,0,.379.207.424.424,0,0,0,.353-.2,1.069,1.069,0,0,0,.144-.621,1.133,1.133,0,0,0-.144-.622A.415.415,0,0,0,69.926,91.608Z"/><path class="b" d="M71.156,93.488v-2.1h.967V91.6h-.764v.648h.671v.212h-.671v1.031Z"/><path class="b" d="M74.785,91.6h-.516v1.891h-.2V91.6h-.516v-.212h1.234Z"/><path class="b" d="M76.447,93.488h-.2V92.457h-.773v1.031h-.2v-2.1h.2v.86h.773v-.86h.2Z"/><path class="b" d="M77.391,93.488h-.515v-.213h.156V91.6h-.156v-.212h.515V91.6h-.156v1.678h.156Z"/><path class="b" d="M78.742,92.032a.987.987,0,0,0-.055-.233.3.3,0,0,0-.124-.149.366.366,0,0,0-.19-.053.435.435,0,0,0-.211.042.253.253,0,0,0-.106.112.4.4,0,0,0-.032.165.224.224,0,0,0,.059.159.513.513,0,0,0,.13.1,1.262,1.262,0,0,0,.152.069l.128.053a1.015,1.015,0,0,1,.226.138.742.742,0,0,1,.179.212.631.631,0,0,1-.008.611.433.433,0,0,1-.2.181.815.815,0,0,1-.308.048.891.891,0,0,1-.276-.048.465.465,0,0,1-.239-.175.793.793,0,0,1-.111-.4h.2a.457.457,0,0,0,.079.271.321.321,0,0,0,.161.106.651.651,0,0,0,.184.027.661.661,0,0,0,.2-.027.241.241,0,0,0,.133-.106.339.339,0,0,0,.051-.186.39.39,0,0,0-.051-.2.421.421,0,0,0-.125-.144.715.715,0,0,0-.156-.085l-.128-.053a1.583,1.583,0,0,1-.217-.1.576.576,0,0,1-.189-.175.467.467,0,0,1-.083-.276.613.613,0,0,1,.069-.3.4.4,0,0,1,.189-.174.6.6,0,0,1,.249-.053h.092a.44.44,0,0,1,.243.073.609.609,0,0,1,.194.2.783.783,0,0,1,.088.371Z"/><path class="b" d="M81.726,92.723a1.029,1.029,0,0,1-.193.579.565.565,0,0,1-.46.186.558.558,0,0,1-.511-.287,1.573,1.573,0,0,1-.17-.8,1.378,1.378,0,0,1,.174-.743.534.534,0,0,1,.47-.276h.083a.552.552,0,0,1,.41.174.814.814,0,0,1,.2.516l-.211.021a.646.646,0,0,0-.161-.388.41.41,0,0,0-.281-.1.389.389,0,0,0-.355.223,1.164,1.164,0,0,0-.124.573,1.34,1.34,0,0,0,.124.627.388.388,0,0,0,.355.234.377.377,0,0,0,.318-.138.789.789,0,0,0,.124-.426Z"/><path class="b" d="M82.137,93.488l.57-2.1h.231l.56,2.1h-.239l-.183-.744h-.528l-.19.744Zm.68-1.8-.215.839h.423Z"/><path class="b" d="M85.218,93.488h-.259l-.475-.914h-.316v.914h-.2v-2.1h.562a.626.626,0,0,1,.45.148.7.7,0,0,1,0,.887.522.522,0,0,1-.274.138Zm-1.05-1.126h.359a.389.389,0,0,0,.308-.112.4.4,0,0,0,.1-.271.391.391,0,0,0-.1-.282.412.412,0,0,0-.308-.1h-.359Z"/><path class="b" d="M85.673,91.385h.46a.673.673,0,0,1,.576.265,1.309,1.309,0,0,1,.207.775,1.4,1.4,0,0,1-.189.776.66.66,0,0,1-.594.287h-.46Zm.2,1.89h.257a.482.482,0,0,0,.434-.233,1.146,1.146,0,0,0,.146-.617,1.043,1.043,0,0,0-.152-.61.487.487,0,0,0-.428-.218h-.257Z"/><path class="b" d="M5.627,69.047l.659-2.1h.265l.649,2.1H6.923L6.712,68.3H6.1l-.22.744Zm.786-1.8-.248.839h.486Z"/><path class="b" d="M7.465,66.943H8a.832.832,0,0,1,.664.265,1.2,1.2,0,0,1,.239.776,1.251,1.251,0,0,1-.218.775A.8.8,0,0,1,8,69.047H7.465ZM7.7,68.834H8a.578.578,0,0,0,.5-.234,1.026,1.026,0,0,0,.17-.616.95.95,0,0,0-.175-.611A.6.6,0,0,0,8,67.155H7.7Z"/><path class="b" d="M9.228,66.943h.531a.833.833,0,0,1,.665.265,1.2,1.2,0,0,1,.238.776,1.245,1.245,0,0,1-.218.775.8.8,0,0,1-.685.288H9.228Zm.234,1.891h.3a.58.58,0,0,0,.5-.234,1.026,1.026,0,0,0,.169-.616.956.956,0,0,0-.174-.611.6.6,0,0,0-.495-.218h-.3Z"/><path class="b" d="M12.436,69.047h-.3l-.548-.914h-.366v.914h-.233v-2.1h.648a.792.792,0,0,1,.52.149.634.634,0,0,1,0,.887.655.655,0,0,1-.317.138ZM11.225,67.92h.415A.487.487,0,0,0,12,67.808a.4.4,0,0,0,0-.552.526.526,0,0,0-.356-.1h-.415Z"/><path class="b" d="M13.85,69.047H12.692v-2.1H13.85v.212h-.925V67.8h.819v.212h-.819v.818h.925Z"/><path class="b" d="M15.283,67.591a.92.92,0,0,0-.063-.233.308.308,0,0,0-.144-.15.464.464,0,0,0-.217-.053.566.566,0,0,0-.245.043.277.277,0,0,0-.122.111.346.346,0,0,0-.037.165.21.21,0,0,0,.069.16.6.6,0,0,0,.148.1c.053.024.112.047.176.069l.149.053a1.179,1.179,0,0,1,.26.138.8.8,0,0,1,.207.212.561.561,0,0,1-.011.611.487.487,0,0,1-.228.181,1.076,1.076,0,0,1-.356.048A1.182,1.182,0,0,1,14.55,69a.555.555,0,0,1-.276-.175.714.714,0,0,1-.127-.4h.233a.407.407,0,0,0,.091.27.4.4,0,0,0,.185.107.933.933,0,0,0,.446,0,.28.28,0,0,0,.155-.107.3.3,0,0,0,.058-.185.355.355,0,0,0-.058-.2.457.457,0,0,0-.144-.143.825.825,0,0,0-.18-.085l-.149-.053a2.333,2.333,0,0,1-.25-.1.621.621,0,0,1-.217-.176.42.42,0,0,1-.1-.276.545.545,0,0,1,.08-.3A.446.446,0,0,1,14.518,67a.808.808,0,0,1,.288-.053h.106a.57.57,0,0,1,.281.074.611.611,0,0,1,.324.574Z"/><path class="b" d="M16.92,67.591a.918.918,0,0,0-.064-.233.306.306,0,0,0-.143-.15.465.465,0,0,0-.218-.053.561.561,0,0,0-.244.043.266.266,0,0,0-.122.111.346.346,0,0,0-.038.165.21.21,0,0,0,.069.16.622.622,0,0,0,.149.1c.053.024.112.047.175.069l.149.053a1.209,1.209,0,0,1,.261.138.835.835,0,0,1,.207.212.561.561,0,0,1-.011.611.5.5,0,0,1-.229.181,1.069,1.069,0,0,1-.355.048A1.171,1.171,0,0,1,16.187,69a.554.554,0,0,1-.277-.175.722.722,0,0,1-.127-.4h.234a.407.407,0,0,0,.09.27.4.4,0,0,0,.186.107.858.858,0,0,0,.213.027.872.872,0,0,0,.233-.027.287.287,0,0,0,.155-.107.309.309,0,0,0,.058-.185.363.363,0,0,0-.058-.2.467.467,0,0,0-.144-.143.855.855,0,0,0-.181-.085l-.148-.053a2.252,2.252,0,0,1-.25-.1.624.624,0,0,1-.218-.176.424.424,0,0,1-.095-.276.544.544,0,0,1,.079-.3A.449.449,0,0,1,16.155,67a.8.8,0,0,1,.287-.053h.106a.57.57,0,0,1,.281.074.611.611,0,0,1,.324.574Z"/><path class="b" d="M6.757,34.466v-.635h.269v.635H8.064v.245H7.026v.635h.9v.244h-.9v.794H8.235v.244H5.548v-.244H6.757V35.59H5.841v-.244h.916v-.635H6.149a2.582,2.582,0,0,1-.369.623l-.244-.2a2.406,2.406,0,0,0,.537-1.087l.269.037a3.475,3.475,0,0,1-.1.378Z"/><path class="b" d="M9.334,33.831l.281.073c-.029.094-.062.184-.1.27H11.2v.243h-.892v.489h.745v.232h-.745v.525h1.051V35.9H10.311v.782h-.269V35.9H8.674v-.232h.514v-.525H9.054v-.232h.988v-.489H9.4a1.9,1.9,0,0,1-.68.734l-.171-.257A1.7,1.7,0,0,0,9.334,33.831Zm.708,1.832v-.525H9.456v.525Z"/><path class="b" d="M12.009,36.689l-.22-.2a2.31,2.31,0,0,0,.476-1.613v-.964h1.784v2.406c0,.236-.107.354-.318.354h-.44l-.036-.244h.415c.074,0,.11-.041.11-.122v-.648H12.47A2.071,2.071,0,0,1,12.009,36.689Zm.494-1.258H13.78v-.537H12.534A4.529,4.529,0,0,1,12.5,35.431Zm.031-1.282v.513H13.78v-.513Z"/><path class="b" d="M15.417,36.494v.171h-.269V34.027H17.4v2.638h-.281v-.171Zm1.7-1.332v-.9h-1.7v.9Zm0,1.1v-.855h-1.7v.855Z"/><path class="b" d="M6.321,62.021l.294.037A4.035,4.035,0,0,1,6.321,63v1.855H6.053V63.466a2.606,2.606,0,0,1-.183.228l-.208-.17A2.636,2.636,0,0,0,6.321,62.021Zm.99,1.515v-.684H6.529v-.244H8.41v.244H7.579v.684h.758v.244H7.579v.758h.928v.244h-2.1v-.244h.9V63.78H6.553v-.244Zm-.294-1.294.111-.221a3.418,3.418,0,0,1,.793.269l-.134.269A3.03,3.03,0,0,0,7.017,62.242Z"/><path class="b" d="M9.045,64.879l-.269-.171a2.117,2.117,0,0,0,.354-1.233V62.107h2.345v.806h-.891v.317h1v.245h-1v.378h.781v.941H9.851v.073H9.582V63.853h.733v-.378H9.4A2.585,2.585,0,0,1,9.045,64.879Zm.355-2.2h1.807v-.342H9.4Zm0,.232v.317h.915v-.317Zm1.7,1.649v-.477H9.851v.477Z"/><path class="b" d="M12.037,64.562l-.073-.293a3.722,3.722,0,0,0,.4-.114V62.962h-.342V62.73h.342v-.623h.269v.623h.342v.232h-.342v1.092c.11-.045.224-.095.342-.152V64.2A3.259,3.259,0,0,1,12.037,64.562Zm1.136-2.345h.269v.77l.342-.142v-.824h.268v.714l.66-.274V63.67q0,.342-.281.342h-.3l-.025-.244h.269c.049,0,.073-.033.073-.1v-.794l-.391.162v1.231h-.268V63.15l-.342.141v1.271a.043.043,0,0,0,.049.049h.879c.049,0,.083-.035.1-.1a1.477,1.477,0,0,0,.03-.36l.281.1a1.3,1.3,0,0,1-.085.434.3.3,0,0,1-.3.177h-.917c-.2,0-.3-.1-.3-.293V63.4l-.293.122-.085-.269.378-.156Z"/><path class="b" d="M20.457,27.7l-.4.537-.732-.782.07,1.722h-.614l.072-1.722-.709.782-.4-.537.921-.738-.921-.76.4-.514.709.76-.072-1.7h.614l-.07,1.7.732-.76.378.514-.9.76Z"/><path class="b" d="M23.481,27.7l-.4.537-.732-.782.071,1.722H21.8l.072-1.722-.708.782-.4-.537.921-.738-.921-.76.4-.514.708.76-.072-1.7h.615l-.071,1.7.732-.76.379.514-.9.76Z"/><path class="b" d="M26.505,27.7l-.4.537-.733-.782.071,1.722h-.615l.072-1.722-.708.782-.4-.537.921-.738-.921-.76.4-.514.708.76-.072-1.7h.615l-.071,1.7.733-.76.378.514-.9.76Z"/><path class="b" d="M29.529,27.7l-.4.537-.732-.782.071,1.722h-.615l.072-1.722-.708.782-.4-.537.921-.738-.921-.76.4-.514.708.76-.072-1.7h.615l-.071,1.7.732-.76.379.514-.9.76Z"/><path class="b" d="M34.4,27.7l-.4.537-.732-.782.071,1.722h-.615l.072-1.722-.709.782-.4-.537.921-.738-.921-.76.4-.514.709.76-.072-1.7h.615l-.071,1.7.732-.76.379.514-.9.76Z"/><path class="b" d="M37.42,27.7l-.4.537-.732-.782.07,1.722h-.614l.071-1.722-.708.782-.4-.537.921-.738L34.7,26.2l.4-.514.708.76-.071-1.7h.614l-.07,1.7.732-.76.378.514-.9.76Z"/><path class="b" d="M40.445,27.7l-.4.537-.732-.782.071,1.722h-.615l.072-1.722-.709.782-.4-.537.922-.738-.922-.76.4-.514.709.76-.072-1.7h.615l-.071,1.7.732-.76.378.514-.9.76Z"/><path class="b" d="M43.468,27.7l-.4.537-.732-.782.071,1.722H41.79l.072-1.722-.709.782-.4-.537.922-.738-.922-.76.4-.514.709.76-.072-1.7h.615l-.071,1.7.732-.76.378.514-.9.76Z"/><path class="b" d="M21.828,63.464v3.3H18.493v-3.3Z"/><path class="b" d="M26.3,63.464v3.3H22.963v-3.3Z"/><path class="b" d="M30.768,63.464v3.3H27.433v-3.3Z"/><path class="b" d="M35.238,63.464v3.3H31.9v-3.3Z"/><path class="b" d="M39.709,63.464v3.3H36.374v-3.3Z"/><path class="b" d="M44.179,63.464v3.3H40.844v-3.3Z"/><path class="b" d="M48.65,63.464v3.3H45.314v-3.3Z"/><path class="b" d="M53.12,63.464v3.3H49.785v-3.3Z"/><path class="b" d="M54.709,66.765c-.222,0-.419-.146-.593-.437A2.624,2.624,0,0,1,53.853,65a2.382,2.382,0,0,1,.271-1.275.742.742,0,0,1,.585-.419h.209a.742.742,0,0,1,.586.419,2.438,2.438,0,0,1,.27,1.293,2.59,2.59,0,0,1-.262,1.309.729.729,0,0,1-.594.437Zm.1-.384q.262,0,.428-.35a2.293,2.293,0,0,0,.149-1.012,2.511,2.511,0,0,0-.157-.987q-.157-.358-.42-.358t-.418.358a2.449,2.449,0,0,0-.158.969A2.6,2.6,0,0,0,54.4,66.04Q54.552,66.38,54.813,66.381Z"/><path class="b" d="M56.944,66.765c-.221,0-.418-.146-.594-.437A2.648,2.648,0,0,1,56.089,65a2.382,2.382,0,0,1,.271-1.275.737.737,0,0,1,.584-.419h.21a.737.737,0,0,1,.584.419,2.428,2.428,0,0,1,.271,1.293,2.6,2.6,0,0,1-.261,1.309c-.176.291-.373.437-.594.437Zm.1-.384c.174,0,.318-.117.428-.35a2.28,2.28,0,0,0,.148-1.012,2.509,2.509,0,0,0-.158-.987c-.1-.239-.244-.358-.418-.358s-.315.119-.419.358a2.469,2.469,0,0,0-.157.969,2.618,2.618,0,0,0,.157,1.039C56.734,66.267,56.875,66.381,57.049,66.381Z"/><path class="b" d="M8.2,47.779V50.44H5.51V47.779Z"/><path class="b" d="M11.8,47.779V50.44H9.114V47.779Z"/><path class="b" d="M15.408,47.779V50.44h-2.69V47.779Z"/><path class="b" d="M19.011,47.779V50.44H16.322V47.779Z"/><path class="b" d="M22.615,47.779V50.44H19.926V47.779Z"/><path class="b" d="M26.219,47.779V50.44H23.53V47.779Z"/><path class="b" d="M29.823,47.779V50.44h-2.69V47.779Z"/><path class="b" d="M33.427,47.779V50.44H30.738V47.779Z"/><path class="b" d="M22.523,36.178q-.267,0-.478-.351a2.134,2.134,0,0,1-.21-1.068,1.926,1.926,0,0,1,.217-1.027.6.6,0,0,1,.471-.337h.17a.593.593,0,0,1,.469.337,1.946,1.946,0,0,1,.218,1.04,2.1,2.1,0,0,1-.21,1.055.587.587,0,0,1-.477.351Zm.084-.309c.141,0,.255-.094.345-.281a1.841,1.841,0,0,0,.119-.816,2.011,2.011,0,0,0-.126-.794q-.126-.288-.338-.288c-.14,0-.253.1-.337.288a1.989,1.989,0,0,0-.126.781,2.106,2.106,0,0,0,.126.836C22.354,35.778,22.467,35.869,22.607,35.869Z"/><path class="b" d="M25.113,36.178c-.178,0-.336-.117-.477-.351a2.134,2.134,0,0,1-.21-1.068,1.926,1.926,0,0,1,.217-1.027c.146-.225.3-.337.47-.337h.17a.593.593,0,0,1,.47.337,1.936,1.936,0,0,1,.219,1.04,2.1,2.1,0,0,1-.211,1.055.589.589,0,0,1-.478.351Zm.085-.309c.141,0,.255-.094.345-.281a1.87,1.87,0,0,0,.119-.816,2.029,2.029,0,0,0-.126-.794q-.126-.288-.338-.288c-.14,0-.253.1-.337.288a1.989,1.989,0,0,0-.126.781,2.106,2.106,0,0,0,.126.836C24.945,35.778,25.058,35.869,25.2,35.869Z"/><path class="b" d="M27.705,36.178q-.267,0-.478-.351a2.145,2.145,0,0,1-.21-1.068,1.926,1.926,0,0,1,.217-1.027.6.6,0,0,1,.471-.337h.17a.593.593,0,0,1,.469.337,1.936,1.936,0,0,1,.219,1.04,2.11,2.11,0,0,1-.21,1.055.589.589,0,0,1-.478.351Zm.084-.309q.211,0,.345-.281a1.841,1.841,0,0,0,.119-.816,2.031,2.031,0,0,0-.125-.794q-.128-.288-.339-.288c-.139,0-.253.1-.337.288a1.99,1.99,0,0,0-.125.781,2.109,2.109,0,0,0,.125.836C27.536,35.778,27.65,35.869,27.789,35.869Z"/><path class="b" d="M30.3,36.178q-.267,0-.478-.351a2.134,2.134,0,0,1-.21-1.068,1.926,1.926,0,0,1,.217-1.027A.6.6,0,0,1,30.3,33.4h.17a.593.593,0,0,1,.469.337,1.937,1.937,0,0,1,.218,1.04,2.1,2.1,0,0,1-.21,1.055.587.587,0,0,1-.477.351Zm.084-.309c.141,0,.255-.094.345-.281a1.841,1.841,0,0,0,.119-.816,2.011,2.011,0,0,0-.126-.794q-.126-.288-.338-.288c-.139,0-.253.1-.337.288a1.989,1.989,0,0,0-.126.781,2.106,2.106,0,0,0,.126.836C30.127,35.778,30.241,35.869,30.38,35.869Z"/><path class="b" d="M33.085,33.17l.324.084c-.034.108-.071.211-.112.309h1.939v.281H34.21v.563h.857v.267H34.21v.6h1.209v.268H34.21v.9H33.9v-.9H32.326v-.268h.591v-.6h-.155v-.267H33.9v-.563h-.736a2.168,2.168,0,0,1-.782.844l-.2-.3A1.962,1.962,0,0,0,33.085,33.17Zm.815,2.108v-.6h-.674v.6Z"/><path class="b" d="M37.278,36.178q-.267,0-.478-.351a2.145,2.145,0,0,1-.21-1.068,1.926,1.926,0,0,1,.217-1.027c.147-.225.3-.337.471-.337h.17a.593.593,0,0,1,.47.337,1.946,1.946,0,0,1,.218,1.04,2.11,2.11,0,0,1-.21,1.055.589.589,0,0,1-.478.351Zm.084-.309q.211,0,.346-.281a1.857,1.857,0,0,0,.118-.816,2.031,2.031,0,0,0-.125-.794c-.084-.192-.2-.288-.339-.288s-.252.1-.337.288a1.99,1.99,0,0,0-.125.781,2.109,2.109,0,0,0,.125.836C37.11,35.778,37.223,35.869,37.362,35.869Z"/><path class="b" d="M39.869,36.178q-.267,0-.478-.351a2.145,2.145,0,0,1-.21-1.068,1.926,1.926,0,0,1,.217-1.027.6.6,0,0,1,.471-.337h.17a.593.593,0,0,1,.469.337,1.936,1.936,0,0,1,.219,1.04,2.11,2.11,0,0,1-.21,1.055.589.589,0,0,1-.478.351Zm.084-.309q.212,0,.346-.281a1.857,1.857,0,0,0,.118-.816,2.031,2.031,0,0,0-.125-.794q-.127-.288-.339-.288c-.139,0-.252.1-.337.288a1.99,1.99,0,0,0-.125.781,2.109,2.109,0,0,0,.125.836C39.7,35.778,39.814,35.869,39.953,35.869Z"/><path class="b" d="M42.137,36.459l-.253-.225a2.657,2.657,0,0,0,.548-1.855V33.268h2.052v2.769c0,.272-.121.408-.366.408h-.505l-.043-.281h.479c.085,0,.126-.047.126-.14v-.746H42.667A2.389,2.389,0,0,1,42.137,36.459Zm.569-1.448h1.469v-.618H42.742A5.207,5.207,0,0,1,42.706,35.011Zm.036-1.475v.59h1.433v-.59Z"/><path class="b" d="M46.85,36.178q-.267,0-.478-.351a2.145,2.145,0,0,1-.21-1.068,1.926,1.926,0,0,1,.217-1.027c.147-.225.3-.337.471-.337h.17a.593.593,0,0,1,.469.337,1.936,1.936,0,0,1,.219,1.04,2.11,2.11,0,0,1-.21,1.055.589.589,0,0,1-.478.351Zm.084-.309q.212,0,.346-.281a1.857,1.857,0,0,0,.118-.816,2.031,2.031,0,0,0-.125-.794q-.128-.288-.339-.288c-.139,0-.252.1-.337.288a1.99,1.99,0,0,0-.125.781,2.109,2.109,0,0,0,.125.836C46.682,35.778,46.8,35.869,46.934,35.869Z"/><path class="b" d="M49.441,36.178q-.267,0-.478-.351a2.145,2.145,0,0,1-.21-1.068,1.926,1.926,0,0,1,.217-1.027.6.6,0,0,1,.471-.337h.17a.593.593,0,0,1,.469.337,1.937,1.937,0,0,1,.218,1.04,2.111,2.111,0,0,1-.209,1.055.589.589,0,0,1-.478.351Zm.084-.309q.211,0,.345-.281a1.841,1.841,0,0,0,.119-.816,2.011,2.011,0,0,0-.126-.794q-.126-.288-.338-.288c-.139,0-.253.1-.337.288a1.989,1.989,0,0,0-.126.781,2.106,2.106,0,0,0,.126.836C49.272,35.778,49.386,35.869,49.525,35.869Z"/><path class="b" d="M52.032,36.234v.2h-.31V33.4h2.587v3.036h-.323v-.2ZM53.986,34.7v-1.04H52.032V34.7Zm0,1.265v-.984H52.032v.984Z"/><path class="b" d="M73.288,33.779l.333.06a5.7,5.7,0,0,1-.2,1.315l-.317-.166A5.138,5.138,0,0,0,73.288,33.779Zm.7,2.721h-.331V32.992h.331v.441l.258-.123a4.62,4.62,0,0,1,.281.7,3.448,3.448,0,0,0,.187-.794l.348.06c-.023.168-.055.329-.092.485h.319v-.772h.333v.772h.862v.287h-.862v.8h.71v.287h-.71v1h.951v.3h-2.3v-.3h1.014v-1H74.6v-.287h.681v-.8h-.4a3.791,3.791,0,0,1-.327.741l-.332-.182a3.37,3.37,0,0,0,.285-.566l-.315.143a5.279,5.279,0,0,0-.213-.589Z"/><path class="b" d="M77.234,36.515l-.272-.2a2.894,2.894,0,0,0,.664-1.934h-.453v-1.27h1.633v1.27h-.847c0,.134-.011.265-.025.392h1.008v.635a1.663,1.663,0,0,1-.159.825.575.575,0,0,1-.537.264H77.9l-.074-.3h.392a.306.306,0,0,0,.318-.212,1.748,1.748,0,0,0,.075-.575v-.332H77.89A3.01,3.01,0,0,1,77.234,36.515Zm.272-2.434h.967v-.666h-.967Zm1.724-.846h.331v2.418H79.23Zm.876-.243h.332v3.115q0,.393-.377.393h-.439l-.075-.3h.468a.081.081,0,0,0,.091-.091Z"/><path class="b" d="M84.932,35.018v.515a1.448,1.448,0,0,1-.152.718.5.5,0,0,1-.468.264h-.5l-.045-.3h.513a.258.258,0,0,0,.235-.174,1.22,1.22,0,0,0,.083-.506v-.228H83.443a1.768,1.768,0,0,1-1.549,1.21l-.152-.333a1.515,1.515,0,0,0,1.327-.877H81.894v-.287h1.28a2.5,2.5,0,0,0,.08-.393l.333.031a3.459,3.459,0,0,1-.06.362Zm-2.9-.393V33.1H84.8v1.526H82.029Zm1.225-1.239h-.892v.332h.892Zm-.892.619v.333h.892v-.333Zm2.1-.287v-.332h-.877v.332Zm0,.62v-.333h-.877v.333Z"/><path class="b" d="M89.254,36.482h-.392V33.541l-.784,1.729H87.65l-.731-1.747v2.959h-.392V32.953h.534l.8,1.818.838-1.818h.552Z"/><path class="b" d="M6.123,53.277H6.95v.845H6.123Z"/><path class="b" d="M8.476,53.277H9.3v.845H8.476Z"/><path class="b" d="M10.829,53.277h.827v.845h-.827Z"/><path class="b" d="M13.181,53.277h.828v.845h-.828Z"/><path class="b" d="M15.535,53.277h.827v.845h-.827Z"/><path class="b" d="M17.887,53.277h.828v.845h-.828Z"/><path class="b" d="M20.241,53.277h.827v.845h-.827Z"/><path class="b" d="M22.593,53.277h.827v.845h-.827Z"/><path class="b" d="M24.946,53.277h.828v.845h-.828Z"/><path class="b" d="M27.3,53.277h.827v.845H27.3Z"/><path class="b" d="M29.652,53.277h.827v.845h-.827Z"/><path class="b" d="M32,53.277h.827v.845H32Z"/><path class="c" d="M1.716,4.754H160.062a1.692,1.692,0,0,1,1.692,1.692v7.308a0,0,0,0,1,0,0H.754a0,0,0,0,1,0,0V5.716A.962.962,0,0,1,1.716,4.754Z"/><path class="b" d="M33.768,84.409a.919.919,0,0,1-.749-.5,2.8,2.8,0,0,1-.33-1.52,2.542,2.542,0,0,1,.341-1.459.942.942,0,0,1,.738-.48h.263a.939.939,0,0,1,.737.48,2.576,2.576,0,0,1,.341,1.479,2.739,2.739,0,0,1-.33,1.5.918.918,0,0,1-.748.5Zm.131-.44a.612.612,0,0,0,.538-.4,2.408,2.408,0,0,0,.188-1.16,2.657,2.657,0,0,0-.2-1.129.546.546,0,0,0-1.057,0,2.583,2.583,0,0,0-.2,1.109,2.74,2.74,0,0,0,.2,1.19A.6.6,0,0,0,33.9,83.969Z"/><path class="b" d="M37.146,84.409a.919.919,0,0,1-.749-.5,2.8,2.8,0,0,1-.33-1.52,2.542,2.542,0,0,1,.341-1.459.942.942,0,0,1,.738-.48h.263a.936.936,0,0,1,.736.48,2.567,2.567,0,0,1,.342,1.479,2.739,2.739,0,0,1-.33,1.5.918.918,0,0,1-.748.5Zm.131-.44a.612.612,0,0,0,.538-.4A2.408,2.408,0,0,0,38,82.409a2.657,2.657,0,0,0-.2-1.129.546.546,0,0,0-1.057,0,2.583,2.583,0,0,0-.2,1.109,2.74,2.74,0,0,0,.2,1.19A.6.6,0,0,0,37.277,83.969Z"/><path class="b" d="M40.525,84.409a.919.919,0,0,1-.749-.5,2.8,2.8,0,0,1-.33-1.52,2.533,2.533,0,0,1,.342-1.459.939.939,0,0,1,.737-.48h.264a.938.938,0,0,1,.736.48,2.568,2.568,0,0,1,.341,1.479,2.739,2.739,0,0,1-.33,1.5.916.916,0,0,1-.747.5Zm.131-.44a.613.613,0,0,0,.539-.4,2.432,2.432,0,0,0,.188-1.16,2.655,2.655,0,0,0-.2-1.129.545.545,0,0,0-1.056,0,2.566,2.566,0,0,0-.2,1.109,2.723,2.723,0,0,0,.2,1.19A.594.594,0,0,0,40.656,83.969Z"/><path class="b" d="M43.9,84.409a.919.919,0,0,1-.749-.5,2.8,2.8,0,0,1-.33-1.52,2.533,2.533,0,0,1,.342-1.459.939.939,0,0,1,.737-.48h.264a.938.938,0,0,1,.736.48,2.568,2.568,0,0,1,.341,1.479,2.739,2.739,0,0,1-.33,1.5.916.916,0,0,1-.747.5Zm.131-.44a.613.613,0,0,0,.539-.4,2.432,2.432,0,0,0,.188-1.16,2.655,2.655,0,0,0-.2-1.129.545.545,0,0,0-1.056,0,2.566,2.566,0,0,0-.2,1.109,2.723,2.723,0,0,0,.2,1.19A.594.594,0,0,0,44.034,83.969Z"/><path class="b" d="M47.589,80.131l.505.119a4.684,4.684,0,0,1-.174.44h3.033v.4H49.348v.8h1.341v.38H49.348v.86h1.891v.379H49.348v1.28h-.484v-1.28H46.4V83.13h.924v-.86h-.243v-.38h1.782v-.8H47.712a3.223,3.223,0,0,1-1.224,1.2l-.308-.42A2.837,2.837,0,0,0,47.589,80.131Zm1.275,3v-.86H47.809v.86Z"/><path class="b" d="M53.475,84.409a.919.919,0,0,1-.749-.5,2.8,2.8,0,0,1-.33-1.52,2.542,2.542,0,0,1,.341-1.459.942.942,0,0,1,.738-.48h.264a.939.939,0,0,1,.736.48,2.568,2.568,0,0,1,.341,1.479,2.739,2.739,0,0,1-.33,1.5.916.916,0,0,1-.747.5Zm.131-.44a.613.613,0,0,0,.539-.4,2.421,2.421,0,0,0,.187-1.16,2.657,2.657,0,0,0-.2-1.129.546.546,0,0,0-1.057,0,2.583,2.583,0,0,0-.2,1.109,2.74,2.74,0,0,0,.2,1.19A.6.6,0,0,0,53.606,83.969Z"/><path class="b" d="M56.853,84.409a.919.919,0,0,1-.749-.5,2.8,2.8,0,0,1-.33-1.52,2.542,2.542,0,0,1,.341-1.459.942.942,0,0,1,.738-.48h.264a.939.939,0,0,1,.736.48,2.568,2.568,0,0,1,.341,1.479,2.739,2.739,0,0,1-.33,1.5.916.916,0,0,1-.747.5Zm.131-.44a.613.613,0,0,0,.539-.4,2.421,2.421,0,0,0,.187-1.16,2.657,2.657,0,0,0-.2-1.129.546.546,0,0,0-1.057,0,2.583,2.583,0,0,0-.2,1.109,2.74,2.74,0,0,0,.2,1.19A.6.6,0,0,0,56.984,83.969Z"/><path class="b" d="M59.725,84.809l-.4-.32a3.557,3.557,0,0,0,.858-2.639V80.27H63.4v3.939a.509.509,0,0,1-.572.58h-.791l-.066-.4h.747a.177.177,0,0,0,.2-.2V83.13H60.555A3.257,3.257,0,0,1,59.725,84.809Zm.891-2.059h2.3v-.88H60.671A6.767,6.767,0,0,1,60.616,82.75Zm.055-2.1v.84h2.245v-.84Z"/><path class="b" d="M66.425,84.409a.919.919,0,0,1-.749-.5,2.8,2.8,0,0,1-.33-1.52,2.542,2.542,0,0,1,.341-1.459.942.942,0,0,1,.738-.48h.263a.939.939,0,0,1,.737.48,2.576,2.576,0,0,1,.341,1.479,2.739,2.739,0,0,1-.33,1.5.918.918,0,0,1-.748.5Zm.131-.44a.612.612,0,0,0,.538-.4,2.408,2.408,0,0,0,.188-1.16,2.657,2.657,0,0,0-.2-1.129.546.546,0,0,0-1.057,0,2.583,2.583,0,0,0-.2,1.109,2.74,2.74,0,0,0,.2,1.19A.6.6,0,0,0,66.556,83.969Z"/><path class="b" d="M69.8,84.409a.916.916,0,0,1-.748-.5,2.794,2.794,0,0,1-.331-1.52,2.533,2.533,0,0,1,.342-1.459.939.939,0,0,1,.737-.48h.264a.938.938,0,0,1,.736.48,2.568,2.568,0,0,1,.341,1.479,2.739,2.739,0,0,1-.33,1.5.916.916,0,0,1-.747.5Zm.131-.44a.613.613,0,0,0,.539-.4,2.432,2.432,0,0,0,.188-1.16,2.655,2.655,0,0,0-.2-1.129.545.545,0,0,0-1.056,0,2.566,2.566,0,0,0-.2,1.109,2.723,2.723,0,0,0,.2,1.19A.594.594,0,0,0,69.935,83.969Z"/><path class="b" d="M73.182,84.489v.28H72.7V80.45h4.048v4.319h-.507v-.28Zm3.056-2.179V80.83H73.182v1.48Zm0,1.8v-1.4H73.182v1.4Z"/><path class="b" d="M80.2,80.736h.392v.745a10.329,10.329,0,0,0,1.265-.221l.142.317a11.667,11.667,0,0,1-1.407.236v.441a7.474,7.474,0,0,0,1.015-.2l.144.317a9.034,9.034,0,0,1-1.159.217v.581c.051.013.1.028.152.043A5.625,5.625,0,0,1,82,83.848l-.3.333a4.829,4.829,0,0,0-1.105-.638v.051a.541.541,0,0,1-.25.492,1.494,1.494,0,0,1-.783.159,1.685,1.685,0,0,1-.749-.143.469.469,0,0,1-.284-.445.492.492,0,0,1,.293-.445,2.082,2.082,0,0,1,.936-.158,3.081,3.081,0,0,1,.445.033v-.459a11.946,11.946,0,0,1-1.728.013l.018-.333A11.817,11.817,0,0,0,80.2,82.3v-.448a13.116,13.116,0,0,1-1.942,0l.018-.333a13.016,13.016,0,0,0,1.924,0Zm-.445,2.635a1.755,1.755,0,0,0-.66.08.238.238,0,0,0-.16.206c0,.095.066.162.2.2a1.567,1.567,0,0,0,.428.055,1.123,1.123,0,0,0,.49-.079.255.255,0,0,0,.151-.238v-.167A2.034,2.034,0,0,0,79.757,83.371Z"/><path class="b" d="M85.8,81.053l.125.35a3.481,3.481,0,0,0-1.63.571,1.058,1.058,0,0,0-.49.747.9.9,0,0,0,.605.9,3.538,3.538,0,0,0,1.336.246l-.106.365a4.038,4.038,0,0,1-1.577-.4,1.153,1.153,0,0,1-.65-1.111,1.052,1.052,0,0,1,.284-.66,1.592,1.592,0,0,1,.678-.484,18.942,18.942,0,0,1-2.031.127l-.107-.349A19.141,19.141,0,0,0,85.8,81.053Zm-.784.921a2.717,2.717,0,0,1,.624.445l-.286.254a1.6,1.6,0,0,0-.57-.445Zm.588-.3a3.279,3.279,0,0,1,.605.4l-.266.238a2.437,2.437,0,0,0-.553-.4Z"/><path class="b" d="M90.517,81.164v.286H88.245a4.74,4.74,0,0,1-.21.429h1.929V83.9c0,.276-.148.413-.444.413h-.393l-.054-.3h.393a.1.1,0,0,0,.107-.111v-.4h-1.6v.81h-.392V82.544a4.106,4.106,0,0,1-.838.748l-.285-.318a3.714,3.714,0,0,0,1.364-1.524H86.6v-.286h1.35a4.751,4.751,0,0,0,.183-.54l.374.064c-.044.165-.092.324-.146.476Zm-.944,1.382v-.365h-1.6v.365Zm0,.666v-.381h-1.6v.381Z"/><path class="b" d="M92.692,82.34l.409.095a3.4,3.4,0,0,1-.317.664c.158.1.311.208.46.32l-.3.3a4.544,4.544,0,0,0-.385-.3,2.779,2.779,0,0,1-1.36.889l-.2-.3a2.686,2.686,0,0,0,1.233-.8,6.777,6.777,0,0,0-.735-.39l.214-.285a7.646,7.646,0,0,1,.736.367A2.57,2.57,0,0,0,92.692,82.34Zm-.856-.7.374.159a2.7,2.7,0,0,1-.891.921l-.267-.254A2,2,0,0,0,91.836,81.641Zm-.713-.127V81.2h1v-.572h.393V81.2h1.033v.318Zm1.587.063a3.948,3.948,0,0,1,.89.7l-.321.254a3.309,3.309,0,0,0-.819-.714Zm1.157,0v-.953h.392v.953h.819v1.4a2.114,2.114,0,0,1-.186,1,.636.636,0,0,1-.6.333h-.338l-.09-.317h.356a.364.364,0,0,0,.366-.239,2.226,2.226,0,0,0,.1-.778V81.9h-.427a2.55,2.55,0,0,1-1.337,2.429l-.284-.286A2.162,2.162,0,0,0,93.867,81.9h-.534v-.318Z"/><line class="d" x1="31.991" y1="85.131" x2="95.918" y2="85.131"/><path class="b" d="M5.892,10.622v.287H5.441V6.481H9.212v4.428H8.741v-.287ZM8.741,8.387V6.87H5.892V8.387Zm0,1.845V8.8H5.892v1.435Z"/><path class="b" d="M13.087,7.568a5.748,5.748,0,0,0,1.947,2.3l-.389.389A5.423,5.423,0,0,1,12.8,7.916v1.5h.9v.409h-.9v1.107h-.451V9.822h-.943V9.413h.943V7.936A6.147,6.147,0,0,1,10.5,10.253l-.39-.389a5.582,5.582,0,0,0,1.948-2.3H10.319v-.39h2.03V6.153H12.8V7.178h2.029v.39Z"/><path class="b" d="M19.626,10.662H16.018v.247h-.451V6.317h4.51v4.592h-.451Zm-3.608-.409h3.608V6.727H16.018ZM17.6,8.244V7.506H16.346V7.1H19.3v.41H18.047v.738h1.128v.41H18.047v.861h1.374v.41h-3.2v-.41H17.6V8.654H16.47v-.41Zm.492.8.184-.348a3.7,3.7,0,0,1,1,.39l-.267.43A3.483,3.483,0,0,0,18.089,9.043Z"/><path class="b" d="M23.582,6.153l.451.082a8.981,8.981,0,0,1-.144.9h1.6v.41h-.475a5.08,5.08,0,0,1-.642,1.9,3.428,3.428,0,0,0,1.24,1.091l-.328.41a4.338,4.338,0,0,1-1.191-1.1,3.791,3.791,0,0,1-1.371,1.077l-.287-.369a3.611,3.611,0,0,0,1.4-1.117,4.251,4.251,0,0,1-.4-1.014,2.677,2.677,0,0,1-.2.307l-.307-.291V8.49h-.574V9.8a7.658,7.658,0,0,0,.758-.247v.451a9.38,9.38,0,0,1-2.3.594l-.081-.492c.1-.011.193-.024.286-.037V7.916h.431V10c.161-.029.319-.06.471-.094V7.075H20.814V6.686h2.3v.389h-.758V8.121h.574V8.3A4.61,4.61,0,0,0,23.582,6.153Zm.184,1.886A4.395,4.395,0,0,0,24.109,9a4.445,4.445,0,0,0,.456-1.455h-.781a4.349,4.349,0,0,1-.3.771Z"/><path class="b" d="M26.76,7.157V8.715c0,.064,0,.126,0,.187a4.035,4.035,0,0,0,1.006-1.745l.431.165a5.38,5.38,0,0,1-.389.973v2.614h-.452V8.979a3.341,3.341,0,0,1-.308.331l-.293-.294a5.566,5.566,0,0,1-.4,1.913l-.472-.225a4.645,4.645,0,0,0,.431-1.989V6.768h1.968V6.153h.451v.615h1.844v.389H26.76Zm1.332.861h1.374V7.3h.45v.717h.656v.39h-.656v2.009c0,.328-.142.492-.43.492h-.553l-.042-.41H29.4c.041,0,.062-.028.062-.082V8.408H28.092Zm.1,1,.369-.287a4.891,4.891,0,0,1,.615,1.025l-.431.225A5.225,5.225,0,0,0,28.2,9.023Z"/><path class="b" d="M124.459,97.178l.076-.057a3.03,3.03,0,0,1,.278.277l.889-1.883.1.039-.786,2.109a1.229,1.229,0,0,1,.211.663c0,.153-.05.229-.152.229a.183.183,0,0,1-.134-.058A2.276,2.276,0,0,0,124.459,97.178Zm.076-1.855.058-.076q.592.231.593.554c0,.153-.078.2-.229.153A1.842,1.842,0,0,0,124.535,95.323Zm.4-1.051.057-.076c.395.152.594.337.594.554,0,.153-.078.2-.231.153A1.812,1.812,0,0,0,124.937,94.272Zm2.046.956V94.2h.439c0,.1-.057.152-.172.152v.88h.8l.192-.249.344.249c0,.077-.051.115-.154.115H127.25v1.033h1.032l.192-.249.344.249q0,.114-.153.114h-1.624l-.709,1.521,1.887-.13a3.263,3.263,0,0,0-.529-.76l.077-.058q.9.669.9,1.3c0,.153-.076.211-.23.173a2.381,2.381,0,0,0-.175-.567l-2.348.318c0,.115-.032.173-.1.173l-.153-.4.57-.04.481-1.528h-1v-.114h1.263V95.343h-1.071v-.115Z"/><path class="b" d="M129.41,95.974h1.55l.152-.154.306.249a.169.169,0,0,1-.192.1l-.515.629-.1-.056.345-.651h-.555v2.123q0,.343-.478.344c0-.153-.108-.229-.325-.229v-.115h.535v-1.63a4.44,4.44,0,0,1-.841,1.438l-.1-.076a5.56,5.56,0,0,0,.8-1.855h-.594Zm.249-1.032a4.086,4.086,0,0,1,.587.309l.369-.692H129.43v-.115H130.6l.171-.21.4.306q-.058.133-.249.1l-.567.694c.136.108.2.209.2.3q0,.249-.21.21a2.313,2.313,0,0,0-.746-.822Zm2.447,3.269.039-.095.478.095a1.779,1.779,0,0,0,.4-1.109h-.883a2.979,2.979,0,0,1-1.374,1.453l-.076-.1a3.145,3.145,0,0,0,1.132-1.358h-.864v-.134h.92a3.731,3.731,0,0,0,.17-.592l.419.095q0,.135-.153.153a3.308,3.308,0,0,1-.117.344h.768l.133-.192.344.231a.227.227,0,0,1-.153.152q-.151,1.395-.764,1.4A.645.645,0,0,0,132.106,98.211ZM131.9,94.2l.439.152c-.012.089-.088.128-.229.115a3.159,3.159,0,0,1-.291.5h1.361l.212-.286.363.3a.085.085,0,0,1-.1.1H133.1a3.612,3.612,0,0,1-.6.835,3.45,3.45,0,0,0,1.234.427v.115a.3.3,0,0,0-.307.209,3.727,3.727,0,0,1-1.112-.574A3.347,3.347,0,0,1,131,96.8l-.056-.095a3.665,3.665,0,0,0,1.2-.751,3.251,3.251,0,0,1-.584-.677,3.023,3.023,0,0,1-.428.377l-.095-.058A3.35,3.35,0,0,0,131.9,94.2Zm.88.879h-1.047c-.029.037-.059.073-.09.107a3.3,3.3,0,0,0,.662.6A3.109,3.109,0,0,0,132.776,95.075Z"/><path class="b" d="M136.561,95.725a3.587,3.587,0,0,0,1.97,2.409v.114a.326.326,0,0,0-.307.173,3.665,3.665,0,0,1-1.714-2.467,2.71,2.71,0,0,1-2.186,2.6l-.057-.1a2.786,2.786,0,0,0,1.986-2.735h-1.929v-.114h1.931V94.2h.44c0,.1-.058.152-.172.152v1.263h1.491l.21-.288.363.288c0,.075-.056.114-.171.114Z"/><path class="b" d="M141.417,96.968v1.166h1.375l.212-.249.344.249c0,.077-.046.114-.134.114h-3.461v.231l-.268.076V94.406l.345.153h2.811l.19-.229.344.229c0,.077-.044.115-.134.115h-1.624v.975h1.166l.134-.153.324.21a.183.183,0,0,1-.152.134v1.338l-.268.077v-.287Zm-.268-1.319v-.975h-1.4v.975Zm-1.4,1.2h2.868V95.764h-2.868Zm1.4.115h-1.4v1.166h1.4Z"/><path class="b" d="M54.73,7.342V6.167h.488V7.342h.6v.421h-.6v.965c.2-.093.388-.192.577-.3v.488c-.185.117-.377.225-.577.327v2.068H54.73V9.468a8.423,8.423,0,0,1-.82.291l-.2-.488a8.5,8.5,0,0,0,1.02-.333V7.763H54.4a7.239,7.239,0,0,1-.287.909L53.6,8.451a5.689,5.689,0,0,0,.511-1.8l.488.067c-.031.214-.065.421-.1.621Zm2.816,1.973H55.817V8.894h1.729V8.34H55.817V7.918H56.86V7.3h-.866V6.876h.866V6.167h.487v.709h1.087V7.3H57.347v.62H58.7V8.34h-.664v.554H58.7v.421h-.664v1.441q0,.555-.533.555H56.86l-.112-.443h.688a.1.1,0,0,0,.11-.112Zm-1.462.311.421-.244a7.73,7.73,0,0,1,.576,1.064l-.51.266A9.637,9.637,0,0,0,56.084,9.626Z"/><path class="b" d="M60.526,11.333l-.4-.288A4.243,4.243,0,0,0,61.1,8.206h-.666V6.344h2.395V8.206H61.591q-.006.3-.037.577h1.479v.931a2.413,2.413,0,0,1-.233,1.209.844.844,0,0,1-.788.388H61.5l-.112-.443h.577a.448.448,0,0,0,.466-.311,2.583,2.583,0,0,0,.11-.843V9.227H61.49A4.389,4.389,0,0,1,60.526,11.333Zm.4-3.57h1.42V6.787h-1.42Zm2.529-1.242h.488v3.548h-.488Zm1.286-.354h.487v4.567c0,.385-.183.577-.553.577H64.03l-.11-.443h.687a.118.118,0,0,0,.133-.134Z"/><path class="b" d="M68.807,8.3v.4a3.852,3.852,0,0,1-1.84,2.484l-.288-.444A2.99,2.99,0,0,0,68.3,8.739H66.878V8.3Zm.842,2.506a.45.45,0,0,1-.509.51h-.532l-.112-.443h.6a.059.059,0,0,0,.066-.067V7.719H67.72V7.275h1.929V8.344c.017.033.035.066.053.1a4.19,4.19,0,0,0,1.522-.835l.355.421a5.454,5.454,0,0,1-1.656.808,4.444,4.444,0,0,0,2.011,1.875l-.31.466a4.924,4.924,0,0,1-1.975-1.922Zm-1.4-4.213.177-.421a10.4,10.4,0,0,1,1.775.487l-.245.51A8.618,8.618,0,0,0,68.253,6.588Z"/><path class="b" d="M74.4,6.167l.532.066a7.252,7.252,0,0,1-.532,1.71v3.368h-.487V8.788a4.738,4.738,0,0,1-.333.416l-.377-.31A4.788,4.788,0,0,0,74.4,6.167Zm1.8,2.749V7.675H74.781V7.231H78.2v.444H76.688V8.916h1.375v.443H76.688v1.375h1.685v.444H74.559v-.444H76.2V9.359H74.825V8.916Zm-.532-2.35.2-.4a6.1,6.1,0,0,1,1.441.487l-.244.488A5.532,5.532,0,0,0,75.668,6.566Z"/><path class="b" d="M84.813,7.719V8.14H83.067a7.732,7.732,0,0,1-.925.643h1.939v2.528h-.51v-.178H81.62v.178h-.487V9.29a9.724,9.724,0,0,1-1.087.38l-.223-.488a7.366,7.366,0,0,0,2.43-1.042H79.935V7.719h1.907v-.51H80.334V6.787h1.508v-.62h.488v.62h1v.422h-1v.51h.478A6.6,6.6,0,0,0,84.059,6.3l.445.289a7.66,7.66,0,0,1-.962,1.131Zm-1.242,2.04V9.2H81.62v.555Zm0,.975V10.18H81.62v.554Z"/><path class="b" d="M86.329,7.586V7.164h2.042v.422Zm3.394-.821H88.459V6.322h2.794v.443H90.21V8.539H91.1V8.96H90.21v1.774h1.131v.444H88.214v-.067H86.951v.222h-.488V9.759h1.751v.975h.511V8.051h.488v2.683h.51Zm-3.26,1.686V8.029h1.751v.422Zm0,.864V8.894h1.751v.421Zm.2-2.7.289-.443a2.9,2.9,0,0,1,1.087.487l-.333.421A3.511,3.511,0,0,0,86.662,6.61Zm.289,4.08h.776v-.532h-.776Z"/><path class="b" d="M92.991,6.521h2.086V10.18h-.489V9.936H93.48V10.4h-.489Zm1.6,1.486V6.943H93.48V8.007Zm-1.108.421V9.515h1.108V8.428Zm1.02,2.883-.311-.443a1.9,1.9,0,0,0,1.4-2.018V6.322h2.285V10.69q0,.621-.556.621h-.754l-.066-.443h.71a.157.157,0,0,0,.178-.178V9.471h-1.36A2.3,2.3,0,0,1,94.5,11.311ZM96.074,8.85c0,.06,0,.119,0,.177h1.313V8.1H96.074Zm0-2.107v.909h1.309V6.743Z"/><path class="b" d="M101.715,6.521V6.077h.488v.444h1.552v.643h.644v.377h-.644v.665H102.2v.245h1.929v.376H102.2v.267h2.2v.377H99.52V9.094h2.2V8.827H99.764V8.451h1.951V8.206h-1.6v-.4h1.6V7.541h-2.2V7.164h2.2V6.921h-1.6v-.4Zm-1.6,4.79V9.626h3.636v1.685h-.487V11.2h-2.662v.111Zm3.149-1.086V10h-2.662v.222Zm0,.6V10.6h-2.662v.221Zm-1.065-3.9v.243h1.065V6.921Zm0,.62v.266h1.065V7.541Z"/><path class="e" d="M54.73,7.342V6.167h.488V7.342h.6v.421h-.6v.965c.2-.093.388-.192.577-.3v.488c-.185.117-.377.225-.577.327v2.068H54.73V9.468a8.423,8.423,0,0,1-.82.291l-.2-.488a8.5,8.5,0,0,0,1.02-.333V7.763H54.4a7.239,7.239,0,0,1-.287.909L53.6,8.451a5.689,5.689,0,0,0,.511-1.8l.488.067c-.031.214-.065.421-.1.621Zm2.816,1.973H55.817V8.894h1.729V8.34H55.817V7.918H56.86V7.3h-.866V6.876h.866V6.167h.487v.709h1.087V7.3H57.347v.62H58.7V8.34h-.664v.554H58.7v.421h-.664v1.441q0,.555-.533.555H56.86l-.112-.443h.688a.1.1,0,0,0,.11-.112Zm-1.462.311.421-.244a7.73,7.73,0,0,1,.576,1.064l-.51.266A9.637,9.637,0,0,0,56.084,9.626Z"/><path class="e" d="M60.526,11.333l-.4-.288A4.243,4.243,0,0,0,61.1,8.206h-.666V6.344h2.395V8.206H61.591q-.006.3-.037.577h1.479v.931a2.413,2.413,0,0,1-.233,1.209.844.844,0,0,1-.788.388H61.5l-.112-.443h.577a.448.448,0,0,0,.466-.311,2.583,2.583,0,0,0,.11-.843V9.227H61.49A4.389,4.389,0,0,1,60.526,11.333Zm.4-3.57h1.42V6.787h-1.42Zm2.529-1.242h.488v3.548h-.488Zm1.286-.354h.487v4.567c0,.385-.183.577-.553.577H64.03l-.11-.443h.687a.118.118,0,0,0,.133-.134Z"/><path class="e" d="M68.807,8.3v.4a3.852,3.852,0,0,1-1.84,2.484l-.288-.444A2.99,2.99,0,0,0,68.3,8.739H66.878V8.3Zm.842,2.506a.45.45,0,0,1-.509.51h-.532l-.112-.443h.6a.059.059,0,0,0,.066-.067V7.719H67.72V7.275h1.929V8.344c.017.033.035.066.053.1a4.19,4.19,0,0,0,1.522-.835l.355.421a5.454,5.454,0,0,1-1.656.808,4.444,4.444,0,0,0,2.011,1.875l-.31.466a4.924,4.924,0,0,1-1.975-1.922Zm-1.4-4.213.177-.421a10.4,10.4,0,0,1,1.775.487l-.245.51A8.618,8.618,0,0,0,68.253,6.588Z"/><path class="e" d="M74.4,6.167l.532.066a7.252,7.252,0,0,1-.532,1.71v3.368h-.487V8.788a4.738,4.738,0,0,1-.333.416l-.377-.31A4.788,4.788,0,0,0,74.4,6.167Zm1.8,2.749V7.675H74.781V7.231H78.2v.444H76.688V8.916h1.375v.443H76.688v1.375h1.685v.444H74.559v-.444H76.2V9.359H74.825V8.916Zm-.532-2.35.2-.4a6.1,6.1,0,0,1,1.441.487l-.244.488A5.532,5.532,0,0,0,75.668,6.566Z"/><path class="e" d="M84.813,7.719V8.14H83.067a7.732,7.732,0,0,1-.925.643h1.939v2.528h-.51v-.178H81.62v.178h-.487V9.29a9.724,9.724,0,0,1-1.087.38l-.223-.488a7.366,7.366,0,0,0,2.43-1.042H79.935V7.719h1.907v-.51H80.334V6.787h1.508v-.62h.488v.62h1v.422h-1v.51h.478A6.6,6.6,0,0,0,84.059,6.3l.445.289a7.66,7.66,0,0,1-.962,1.131Zm-1.242,2.04V9.2H81.62v.555Zm0,.975V10.18H81.62v.554Z"/><path class="e" d="M86.329,7.586V7.164h2.042v.422Zm3.394-.821H88.459V6.322h2.794v.443H90.21V8.539H91.1V8.96H90.21v1.774h1.131v.444H88.214v-.067H86.951v.222h-.488V9.759h1.751v.975h.511V8.051h.488v2.683h.51Zm-3.26,1.686V8.029h1.751v.422Zm0,.864V8.894h1.751v.421Zm.2-2.7.289-.443a2.9,2.9,0,0,1,1.087.487l-.333.421A3.511,3.511,0,0,0,86.662,6.61Zm.289,4.08h.776v-.532h-.776Z"/><path class="e" d="M92.991,6.521h2.086V10.18h-.489V9.936H93.48V10.4h-.489Zm1.6,1.486V6.943H93.48V8.007Zm-1.108.421V9.515h1.108V8.428Zm1.02,2.883-.311-.443a1.9,1.9,0,0,0,1.4-2.018V6.322h2.285V10.69q0,.621-.556.621h-.754l-.066-.443h.71a.157.157,0,0,0,.178-.178V9.471h-1.36A2.3,2.3,0,0,1,94.5,11.311ZM96.074,8.85c0,.06,0,.119,0,.177h1.313V8.1H96.074Zm0-2.107v.909h1.309V6.743Z"/><path class="e" d="M101.715,6.521V6.077h.488v.444h1.552v.643h.644v.377h-.644v.665H102.2v.245h1.929v.376H102.2v.267h2.2v.377H99.52V9.094h2.2V8.827H99.764V8.451h1.951V8.206h-1.6v-.4h1.6V7.541h-2.2V7.164h2.2V6.921h-1.6v-.4Zm-1.6,4.79V9.626h3.636v1.685h-.487V11.2h-2.662v.111Zm3.149-1.086V10h-2.662v.222Zm0,.6V10.6h-2.662v.221Zm-1.065-3.9v.243h1.065V6.921Zm0,.62v.266h1.065V7.541Z"/><path class="b" d="M116.619,8.532a2.13,2.13,0,0,0,1.2.613l-.139.321a4.444,4.444,0,0,1-.433-.153v1.255h-.306v-.084h-1.576v.084h-.307V9.315a4.315,4.315,0,0,1-.418.151l-.14-.321a2.27,2.27,0,0,0,1.2-.613h-1.073V8.267h.681a1.759,1.759,0,0,0-.166-.237l.238-.195a1.7,1.7,0,0,1,.279.391l-.065.041h.413V7.789c-.376.031-.749.046-1.115.046l-.07-.293a13.616,13.616,0,0,0,2.482-.223l.111.293q-.556.1-1.1.15v.5h.266a2.743,2.743,0,0,0,.265-.543l.334.083a3.943,3.943,0,0,1-.236.46h.752v.265Zm-.614.879h-.641V9.7h.641Zm-.641.544v.292h.641V9.955Zm.947-1.312v.5h-.306v-.5a2.079,2.079,0,0,1-.629.517h1.551A1.9,1.9,0,0,1,116.311,8.643Zm.629,1.06V9.411h-.629V9.7Zm0,.544V9.955h-.629v.292Z"/><path class="b" d="M119.7,9.034h-.794V8.755h3.067v.279h-1.952l-.082.334h1.588v.377a.938.938,0,0,1-.167.6.591.591,0,0,1-.489.209h-.46l-.027-.279h.473a.318.318,0,0,0,.259-.132.635.635,0,0,0,.105-.4V9.634h-1.647l.029-.077Zm-.389-1.618h2.216v.991h-2.216Zm.306.266v.459h1.6V7.682Z"/><path class="b" d="M124.841,10.3l.864-2.761h.348L126.9,10.3h-.363l-.277-.976h-.8l-.288.976Zm1.031-2.356-.326,1.1h.638Z"/><path class="b" d="M127.92,10.3l.865-2.761h.348l.85,2.761h-.363l-.276-.976h-.8l-.289.976Zm1.032-2.356-.326,1.1h.638Z"/><path class="b" d="M131.711,10.3a.583.583,0,0,1-.475-.348,2.121,2.121,0,0,1-.208-1.06,1.907,1.907,0,0,1,.215-1.018.593.593,0,0,1,.468-.335h.167a.592.592,0,0,1,.467.335,1.939,1.939,0,0,1,.217,1.032,2.082,2.082,0,0,1-.21,1.046c-.14.232-.3.348-.474.348Zm.083-.307c.14,0,.254-.092.343-.279a1.826,1.826,0,0,0,.117-.808,2.038,2.038,0,0,0-.124-.788c-.085-.191-.2-.286-.336-.286s-.251.095-.334.286a1.954,1.954,0,0,0-.126.774,2.071,2.071,0,0,0,.126.829C131.543,9.906,131.655,10,131.794,10Z"/><path class="b" d="M134.317,10.3a.583.583,0,0,1-.475-.348,2.121,2.121,0,0,1-.208-1.06,1.907,1.907,0,0,1,.215-1.018.593.593,0,0,1,.468-.335h.167a.592.592,0,0,1,.467.335,1.939,1.939,0,0,1,.217,1.032,2.082,2.082,0,0,1-.21,1.046c-.14.232-.3.348-.474.348ZM134.4,10c.139,0,.254-.092.343-.279a1.826,1.826,0,0,0,.117-.808,2.038,2.038,0,0,0-.124-.788q-.127-.287-.336-.286c-.139,0-.251.095-.334.286a1.954,1.954,0,0,0-.126.774,2.071,2.071,0,0,0,.126.829C134.149,9.906,134.261,10,134.4,10Z"/><path class="b" d="M136.923,10.3a.583.583,0,0,1-.475-.348,2.121,2.121,0,0,1-.208-1.06,1.907,1.907,0,0,1,.215-1.018.593.593,0,0,1,.468-.335h.167a.592.592,0,0,1,.467.335,1.939,1.939,0,0,1,.217,1.032,2.082,2.082,0,0,1-.21,1.046c-.14.232-.3.348-.474.348Zm.083-.307c.139,0,.254-.092.342-.279a1.809,1.809,0,0,0,.118-.808,2.038,2.038,0,0,0-.124-.788q-.128-.287-.336-.286c-.139,0-.251.095-.334.286a1.954,1.954,0,0,0-.126.774,2.071,2.071,0,0,0,.126.829C136.755,9.906,136.867,10,137.006,10Z"/><path class="b" d="M139.529,10.3a.583.583,0,0,1-.475-.348,2.121,2.121,0,0,1-.208-1.06,1.907,1.907,0,0,1,.215-1.018.593.593,0,0,1,.468-.335h.167a.592.592,0,0,1,.467.335,1.939,1.939,0,0,1,.217,1.032,2.082,2.082,0,0,1-.21,1.046c-.14.232-.3.348-.474.348Zm.083-.307c.139,0,.254-.092.342-.279a1.809,1.809,0,0,0,.118-.808,2.038,2.038,0,0,0-.124-.788q-.128-.287-.336-.286c-.139,0-.251.095-.334.286a1.954,1.954,0,0,0-.126.774,2.071,2.071,0,0,0,.126.829C139.361,9.906,139.473,10,139.612,10Z"/><path class="b" d="M142.135,10.3a.583.583,0,0,1-.475-.348,2.121,2.121,0,0,1-.208-1.06,1.907,1.907,0,0,1,.215-1.018.593.593,0,0,1,.468-.335h.167a.592.592,0,0,1,.467.335,1.939,1.939,0,0,1,.217,1.032,2.082,2.082,0,0,1-.21,1.046c-.14.232-.3.348-.474.348Zm.083-.307c.139,0,.254-.092.342-.279a1.809,1.809,0,0,0,.118-.808,2.038,2.038,0,0,0-.124-.788q-.128-.287-.336-.286t-.334.286a1.954,1.954,0,0,0-.126.774,2.071,2.071,0,0,0,.126.829C141.967,9.906,142.078,10,142.218,10Z"/><path class="b" d="M144.741,10.3a.583.583,0,0,1-.475-.348,2.12,2.12,0,0,1-.209-1.06,1.906,1.906,0,0,1,.216-1.018.593.593,0,0,1,.468-.335h.167a.592.592,0,0,1,.467.335,1.939,1.939,0,0,1,.217,1.032,2.082,2.082,0,0,1-.21,1.046c-.14.232-.3.348-.474.348Zm.083-.307c.139,0,.254-.092.342-.279a1.809,1.809,0,0,0,.118-.808,2.038,2.038,0,0,0-.124-.788q-.128-.287-.336-.286t-.334.286a1.954,1.954,0,0,0-.126.774,2.071,2.071,0,0,0,.126.829C144.573,9.906,144.684,10,144.824,10Z"/><path class="b" d="M147.347,10.3a.583.583,0,0,1-.475-.348,2.12,2.12,0,0,1-.209-1.06,1.906,1.906,0,0,1,.216-1.018.593.593,0,0,1,.468-.335h.167a.592.592,0,0,1,.467.335,1.939,1.939,0,0,1,.217,1.032,2.082,2.082,0,0,1-.21,1.046c-.14.232-.3.348-.474.348ZM147.43,10c.139,0,.254-.092.342-.279a1.809,1.809,0,0,0,.118-.808,2.038,2.038,0,0,0-.124-.788q-.127-.287-.336-.286t-.334.286a1.954,1.954,0,0,0-.126.774,2.071,2.071,0,0,0,.126.829C147.179,9.906,147.29,10,147.43,10Z"/><path class="b" d="M149.953,10.3a.582.582,0,0,1-.475-.348,2.12,2.12,0,0,1-.209-1.06,1.906,1.906,0,0,1,.216-1.018.593.593,0,0,1,.468-.335h.167a.592.592,0,0,1,.467.335,1.939,1.939,0,0,1,.217,1.032,2.082,2.082,0,0,1-.21,1.046c-.14.232-.3.348-.474.348Zm.083-.307c.139,0,.254-.092.342-.279a1.824,1.824,0,0,0,.118-.808,2.038,2.038,0,0,0-.124-.788q-.127-.287-.336-.286t-.334.286a1.936,1.936,0,0,0-.126.774,2.053,2.053,0,0,0,.126.829C149.785,9.906,149.9,10,150.036,10Z"/><path class="b" d="M151.846,10.3l.865-2.761h.348l.851,2.761h-.363l-.277-.976h-.8l-.288.976Zm1.032-2.356-.326,1.1h.638Z"/><path class="b" d="M154.928,10.3l.864-2.761h.348l.851,2.761h-.363l-.277-.976h-.8l-.288.976Zm1.031-2.356-.326,1.1h.638Z"/><path class="f" d="M158.163,31.731H116.21v56.25h1.279a24.508,24.508,0,0,1-.634-5.459c0-9.958,5.909-18.389,14.079-21.312a12.871,12.871,0,0,1-5.077-10.421c0-6.914,5.1-12.52,11.386-12.52s11.385,5.606,11.385,12.52a12.871,12.871,0,0,1-5.077,10.421c8.17,2.923,14.079,11.354,14.079,21.312A24.508,24.508,0,0,1,157,87.981h1.167Z"/><path class="g" d="M143.551,61.21a12.871,12.871,0,0,0,5.077-10.421c0-6.914-5.1-12.52-11.385-12.52s-11.386,5.606-11.386,12.52a12.871,12.871,0,0,0,5.077,10.421c-8.17,2.923-14.079,11.354-14.079,21.312a24.508,24.508,0,0,0,.634,5.459H157a24.508,24.508,0,0,0,.634-5.459C157.63,72.564,151.721,64.133,143.551,61.21Z"/><rect class="h" x="144.847" y="91.128" width="11.078" height="9.663" rx="1.033" ry="1.033"/><path class="i" d="M147.915,97.208l1.639.028.284-.366.448.355a.154.154,0,0,1-.18.168l-2.194-.037-.015.866-.354.069.072-4.229.349.155a5.5,5.5,0,0,0,1.858-.909l.525.33c-.051.083-.17.114-.355.093a8.475,8.475,0,0,1-2.029.609l-.021,1.186,1.489.027.258-.343.448.354c0,.1-.061.147-.178.146l-2.019-.035Zm2.607-3.492.477.206,1.436.024.181-.244.424.3a.182.182,0,0,1-.2.17l-.058,3.387c0,.38-.236.565-.69.557-.013-.264-.246-.4-.7-.408l0-.172,1.033.018.059-3.462-1.588-.028-.082,4.822-.379.068Z"/><polygon class="i" points="108.659 56.142 93.212 56.142 96.056 53.432 93.212 50.721 108.659 50.721 105.821 53.432 108.659 56.142"/><rect class="i" x="90.597" y="51.646" width="3.599" height="3.615" transform="translate(-10.735 80.99) rotate(-45)"/><rect class="g" x="91.447" y="52.497" width="1.898" height="1.914" transform="translate(-10.735 80.99) rotate(-45)"/><rect class="i" x="107.658" y="51.646" width="3.599" height="3.615" transform="translate(-5.738 93.055) rotate(-45)"/><rect class="g" x="108.509" y="52.497" width="1.898" height="1.914" transform="translate(-5.731 93.076) rotate(-45.01)"/><path class="g" d="M99.079,55.029H98.75V52.556l-.66,1.454h-.359l-.616-1.469v2.488h-.329V52.061h.449l.676,1.529.7-1.529h.464Z"/><path class="g" d="M101.218,52.061a.916.916,0,0,1,.711.4,2.054,2.054,0,0,1,.016,2.189,1.111,1.111,0,0,1-1.7-.03,1.752,1.752,0,0,1-.3-1.057,1.714,1.714,0,0,1,.322-1.094.938.938,0,0,1,.743-.405Zm-.105.315a.735.735,0,0,0-.592.308,1.358,1.358,0,0,0-.247.876,1.388,1.388,0,0,0,.225.862.763.763,0,0,0,1.19.015,1.347,1.347,0,0,0,.233-.877,1.421,1.421,0,0,0-.233-.876A.7.7,0,0,0,101.113,52.376Z"/><path class="g" d="M104.66,52.061V54.04q0,.99-1.065.989a1.753,1.753,0,0,1-.555-.09V54.61a1.6,1.6,0,0,0,.555.105q.735,0,.735-.675V52.061Z"/><rect class="j" x="0.254" y="0.254" width="162" height="104" rx="4.798" ry="4.798"/><path d="M18.636,17.112h3.892v5.049h-.419V21.8H19.05v.4h-.414Zm3.473.407H19.05V19.24h3.059ZM19.05,21.393h3.059V19.636H19.05Z"/><path d="M30.082,17.028c-.012,1.085-.053,2.554-.108,3.466h.534v.377H24.991v-.377h.558l-.108-3.448.341.084a5.612,5.612,0,0,0,.7-.372l.264.275H28.8v3.461h.821c.018-.24.031-.516.042-.81h-.683v-.341h.7c.006-.265.018-.535.024-.8h-.719V18.2h.726c.006-.282.011-.558.011-.822h-.773v-.347Zm-2.9,4.209a.15.15,0,0,1-.12.042,7.925,7.925,0,0,1-1.709,1.02,3.722,3.722,0,0,0-.312-.294,7.006,7.006,0,0,0,1.721-1.014Zm-1.3-1.553.024.81h.821V17.106l-.03-.007a8.742,8.742,0,0,1-.881.367l.024.731h.689v.342h-.678l.025.8h.653v.341Zm2.6-2.327H27.036v3.137h1.445Zm-.186.426v.288H27.222v-.288Zm-1.007,2.123V18.5h.935v1.409Zm.228-1.133v.857H28v-.857Zm2.6,3.531a13.308,13.308,0,0,0-1.775-1.031l.288-.27a15.165,15.165,0,0,1,1.859,1.014Z"/><path d="M37.636,18.767h-2.3A4.644,4.644,0,0,0,37.8,21.933a1.826,1.826,0,0,0-.306.371,5.1,5.1,0,0,1-2.525-3.37,4.33,4.33,0,0,1-2.519,3.359,1.386,1.386,0,0,0-.3-.33,3.981,3.981,0,0,0,2.417-3.2H32.287v-.414h2.338a13.173,13.173,0,0,0,.073-1.625l.569.03c-.006.054-.054.09-.138.1a14.072,14.072,0,0,1-.078,1.493h2.585Zm-2.153,3.376a8.456,8.456,0,0,0-1.223-1.236l.335-.239a8.852,8.852,0,0,1,1.248,1.193Z"/><path d="M41.352,21.07c-.168-.234-.348-.462-.516-.66l.306-.18A7.863,7.863,0,0,1,42.2,21.705l-.331.2a4.824,4.824,0,0,0-.311-.54c-.726.234-1.463.456-1.949.594a.1.1,0,0,1-.078.1l-.186-.474c.126-.03.276-.066.432-.108V17.49h.959v-.78l.51.03c-.006.042-.042.072-.12.083v.667h.953V20H40.153v1.379Zm.348-3.2H40.153v.7H41.7Zm-1.547,1.751H41.7v-.707H40.153Zm4.479-2.53.258.138a.129.129,0,0,1-.06.053c-.246.51-.588,1.158-.942,1.788.7.6.99,1.061.99,1.493,0,.941-.69.941-1.092.941-.095,0-.2,0-.293-.006a.942.942,0,0,0-.132-.39,3.958,3.958,0,0,0,.443.025c.318,0,.684-.013.684-.583,0-.395-.318-.815-1.031-1.415.318-.587.6-1.157.827-1.643h-1.3v4.822h-.4V17.112h1.961Z"/></svg>