<?xml version="1.0" encoding="utf-8"?>
<!-- Generator: Adobe Illustrator 23.0.4, SVG Export Plug-In . SVG Version: 6.00 Build 0)  -->
<svg version="1.1" id="レイヤー_1" xmlns="http://www.w3.org/2000/svg" xmlns:xlink="http://www.w3.org/1999/xlink" x="0px"
	 y="0px" viewBox="0 0 378.3 517.8" style="enable-background:new 0 0 378.3 517.8;" xml:space="preserve">
<style type="text/css">
	.st0{fill:url(#SVGID_1_);stroke:#000000;stroke-width:0.5;stroke-miterlimit:10;}
	.st1{fill:none;stroke:#000000;stroke-width:1.717;stroke-miterlimit:10;}
	.st2{fill:none;stroke:#000000;stroke-width:0.606;stroke-miterlimit:10;}
</style>
<linearGradient id="SVGID_1_" gradientUnits="userSpaceOnUse" x1="-78.2995" y1="717.1595" x2="-78.2995" y2="339.3595" gradientTransform="matrix(6.123234e-17 -1 1 6.123234e-17 -339.1095 180.6005)">
	<stop  offset="0.591" style="stop-color:#FFFFD7"/>
	<stop  offset="0.783" style="stop-color:#FEFDD5"/>
	<stop  offset="0.852" style="stop-color:#FAF7CE"/>
	<stop  offset="0.902" style="stop-color:#F2ECC3"/>
	<stop  offset="0.942" style="stop-color:#E8DCB2"/>
	<stop  offset="0.975" style="stop-color:#DAC89C"/>
	<stop  offset="0.995" style="stop-color:#D0B88B"/>
</linearGradient>
<rect x="0.2" y="0.2" class="st0" width="377.8" height="517.3"/>
<title>29-3</title>
<g id="レイヤー_1-2">
	<line class="st1" x1="8.7" y1="49" x2="366.2" y2="49"/>
	<path d="M12.1,34l-0.1-0.2h3.9v-1.6l1,0.1c0,0.1-0.1,0.2-0.4,0.3v1.2H19l0.4-0.6l0.9,0.6c-0.1,0.1-0.2,0.2-0.4,0.2H12.1z M14.6,36
		c0.4,0.9,0.9,1.6,1.7,2.2c0.6-0.6,1.1-1.4,1.5-2.2l0.9,0.4c0,0.1-0.1,0.1-0.2,0.1h-0.1c-0.4,0.8-0.9,1.5-1.5,2.1
		c1.2,0.7,2.5,1.3,3.8,1.5v0.1c-0.3,0-0.5,0.2-0.6,0.5c-1.3-0.3-2.6-0.9-3.6-1.8c-1.2,0.9-2.7,1.5-4.2,1.8v-0.2c1.4-0.3,2.7-1,3.9-2
		C15.4,37.8,14.9,37,14.6,36L14.6,36z M15.3,34.8c0,0.1-0.1,0.1-0.2,0.1h-0.1c-0.7,0.8-1.6,1.5-2.6,1.9l-0.1-0.1
		c0.9-0.6,1.6-1.4,2.2-2.3L15.3,34.8z M17.2,34.5c2.1,0.6,2.8,1.5,2.8,2c0,0.2-0.1,0.3-0.3,0.3l0,0c-0.1,0-0.2,0-0.2-0.1
		c-0.6-0.9-1.4-1.6-2.3-2.1V34.5z"/>
	<path d="M20.9,37c1-1.4,1.7-3.1,2.1-4.7l1,0.3c0,0.1-0.1,0.2-0.3,0.2c-0.2,0.7-0.5,1.4-0.9,2l0.3,0.1c0,0.1-0.1,0.1-0.3,0.2v5.5
		c-0.1,0.1-0.3,0.2-0.5,0.2h-0.1v-5.1c-0.3,0.5-0.7,1-1.2,1.5L20.9,37z M28.8,34.2l0.8,0.6c-0.1,0.1-0.2,0.2-0.4,0.2h-1.2v4.8
		c0,0.5-0.2,0.9-1.1,1c0-0.5-0.4-0.6-1.3-0.6v-0.1H27c0.2,0,0.3-0.1,0.3-0.2v-4.8h-3.4l-0.1-0.2h3.5v-2.6l1,0.1
		c0,0.1-0.1,0.2-0.4,0.2v2h0.5L28.8,34.2z M24.5,35.8c1.2,0.7,1.6,1.4,1.6,1.9c0,0.3-0.2,0.5-0.4,0.5c-0.1,0-0.2-0.1-0.3-0.1
		c-0.1-0.8-0.5-1.6-1-2.2L24.5,35.8z"/>
	<path d="M37.8,33.2l0.7,0.7C38.5,34,38.3,34,38.2,34c-0.3,0.4-0.6,0.8-1,1.1L37.2,35c0.2-0.4,0.3-0.8,0.4-1.2h-6.1
		c0,0.8-0.5,1.2-0.9,1.2c-0.2,0-0.3-0.1-0.3-0.3s0.1-0.3,0.3-0.4c0.5-0.3,0.7-0.8,0.7-1.3h0.2c0,0.2,0.1,0.3,0.1,0.5H34v-1.3l1,0.1
		c0,0.1-0.1,0.2-0.4,0.3v1h2.8L37.8,33.2z M36.5,38l0.3-0.4l0.8,0.6c-0.1,0.1-0.2,0.1-0.4,0.2v2.1c-0.2,0.1-0.4,0.2-0.6,0.2v-0.5
		h-4.3v0.4c0,0-0.1,0.2-0.6,0.2v-6.1l0.6,0.3H36l0.3-0.3l0.7,0.5c-0.1,0.1-0.2,0.1-0.3,0.2v1.8c-0.2,0.1-0.4,0.2-0.6,0.2V37h-3.7V38
		L36.5,38z M36,35h-3.7v1.5H36V35z M32.5,39.8h4.3v-1.7h-4.3V39.8z"/>
	<path d="M47.5,33.7c-0.1,0.1-0.2,0.2-0.4,0.2h-6.3v2c0,1.5-0.1,3.4-1.4,4.7l-0.1-0.1c0.7-1.4,1.1-3,0.9-4.6v-2.6l0.7,0.3h2.5v-1.3
		l1,0.1c0,0.1-0.1,0.2-0.4,0.3v1h2.3l0.4-0.6L47.5,33.7z M46.8,35l0.8,0.6c-0.1,0.1-0.2,0.2-0.4,0.2h-2.5v4c0,0.5-0.1,0.8-1.1,0.9
		c0-0.5-0.5-0.6-1.2-0.6v-0.1h1.4c0.2,0,0.2,0,0.2-0.1v-4h-2.8l-0.1-0.2h5.3L46.8,35z"/>
	<path d="M59.2,36.7c0-2.8,1.4-3.4,2.4-3.4c0.6,0,1.1,0.2,1.5,0.6c0.6,0.8,1,1.8,0.9,2.8c0.1,1-0.2,1.9-0.8,2.7
		c-0.4,0.5-1,0.7-1.6,0.7C60,40,59.2,38.8,59.2,36.7z M60,36.7c0,1.5,0.3,3.1,1.6,3.1s1.6-1.4,1.6-3.1c0-1.7-0.4-3.1-1.7-3.1
		C60.2,33.5,60,35.2,60,36.7z"/>
	<path d="M68.4,36.7c0-2.8,1.4-3.4,2.4-3.4c0.6,0,1.1,0.2,1.5,0.6c0.6,0.8,1,1.8,0.9,2.8c0.1,1-0.2,1.9-0.8,2.7
		c-0.4,0.5-1,0.7-1.6,0.7C69.2,40,68.4,38.8,68.4,36.7z M69.1,36.7c0,1.5,0.3,3.1,1.6,3.1c1.3,0,1.6-1.4,1.6-3.1
		c0-1.7-0.4-3.1-1.7-3.1C69.4,33.5,69.1,35.2,69.1,36.7z"/>
	<path d="M112.1,34l-0.1-0.2h3.9v-1.6l1,0.1c0,0.1-0.1,0.2-0.4,0.3v1.2h2.6l0.4-0.6l0.9,0.6c-0.1,0.1-0.2,0.2-0.4,0.2H112.1z
		 M114.5,36c0.4,0.9,0.9,1.6,1.7,2.2c0.6-0.6,1.1-1.4,1.5-2.2l0.9,0.4c0,0.1-0.1,0.1-0.2,0.1h-0.1c-0.4,0.8-0.9,1.5-1.5,2.1
		c1.2,0.7,2.5,1.3,3.8,1.5v0.1c-0.3,0-0.5,0.2-0.6,0.5c-1.3-0.3-2.6-0.9-3.6-1.8c-1.2,0.9-2.7,1.5-4.2,1.8v-0.2c1.4-0.3,2.7-1,3.9-2
		c-0.7-0.7-1.2-1.5-1.5-2.4L114.5,36z M115.2,34.8c0,0.1-0.1,0.1-0.2,0.1H115c-0.7,0.8-1.6,1.5-2.6,1.9l-0.1-0.1
		c0.9-0.6,1.6-1.4,2.2-2.3L115.2,34.8z M117.2,34.5c2.1,0.6,2.8,1.5,2.8,2c0,0.2-0.1,0.3-0.3,0.3l0,0c-0.1,0-0.2,0-0.2-0.1
		c-0.6-0.9-1.4-1.6-2.3-2.1V34.5z"/>
	<path d="M121,37c1-1.4,1.7-3.1,2.1-4.7l1,0.3c0,0.1-0.1,0.2-0.3,0.2c-0.2,0.7-0.5,1.4-0.9,2l0.3,0.1c0,0.1-0.1,0.1-0.3,0.2v5.5
		c-0.1,0.1-0.3,0.2-0.5,0.2h-0.1v-5.1c-0.3,0.5-0.7,1-1.2,1.5L121,37z M128.8,34.2l0.8,0.6c-0.1,0.1-0.2,0.2-0.4,0.2H128v4.8
		c0,0.5-0.2,0.9-1.1,1c0-0.5-0.4-0.6-1.3-0.6v-0.1h1.5c0.2,0,0.3-0.1,0.3-0.2v-4.8H124l-0.1-0.2h3.5v-2.6l1,0.1
		c0,0.1-0.1,0.2-0.4,0.2v2h0.5L128.8,34.2z M124.6,35.8c1.2,0.7,1.6,1.4,1.6,1.9c0,0.3-0.2,0.5-0.4,0.5c-0.1,0-0.2-0.1-0.3-0.1
		C125.2,37.3,125,36.5,124.6,35.8L124.6,35.8z"/>
	<path d="M138.4,35c-0.1,0.1-0.2,0.2-0.4,0.2h-3.1c1,1,2.3,1.6,3.7,1.9v0.1c-0.2,0-0.4,0.2-0.5,0.5c-0.4-0.2-0.8-0.3-1.2-0.5l0,0
		l0.5,0.4c-0.1,0.1-0.2,0.1-0.3,0.2v2.7c0,0-0.2,0.2-0.6,0.2v-0.5h-4.3v0.3c0,0-0.1,0.2-0.6,0.2v-3.5c-0.5,0.2-0.9,0.4-1.4,0.6
		l-0.1-0.2c1.3-0.6,2.4-1.4,3.3-2.5h-3l-0.1-0.2h3.8v-1.7c-1,0.1-2.1,0.1-3.1,0.1v-0.2c2-0.1,4-0.5,5.9-0.9l0.7,0.7
		c-0.1,0-0.1,0.1-0.2,0.1c-0.1,0-0.2,0-0.3-0.1c-0.7,0.1-1.5,0.2-2.4,0.3V35h2.6l0.4-0.5L138.4,35z M131.9,33.5
		c0.8,0.3,1.1,0.7,1.1,1c0,0.2-0.1,0.4-0.3,0.4c-0.1,0-0.2-0.1-0.3-0.1C132.2,34.3,132.1,33.8,131.9,33.5L131.9,33.5z M136.4,37.3
		l0.3-0.3c-0.8-0.4-1.5-1.1-2-1.8h-0.1V37c-0.1,0.1-0.3,0.2-0.5,0.2h-0.1v-1.8c-0.6,0.7-1.4,1.4-2.3,1.8l0.5,0.2L136.4,37.3z
		 M134.1,38.7v-1.1h-1.9v1.1H134.1z M132.2,38.8v1.1h1.9v-1.1H132.2z M136.4,38.7v-1.1h-1.9v1.1H136.4z M134.7,40h1.9v-1.1h-1.9V40z
		 M137.2,33.8c0,0.1-0.1,0.1-0.2,0.1h-0.1c-0.3,0.4-0.7,0.7-1.1,1l-0.1-0.1c0.3-0.5,0.5-1,0.7-1.5L137.2,33.8z"/>
	<path d="M146.9,35.7l0.8,0.6c-0.1,0.1-0.2,0.2-0.4,0.2h-5.2c-0.1,0.3-0.3,0.8-0.4,1.2h4l0.3-0.4l0.7,0.6c-0.1,0.1-0.2,0.1-0.4,0.1
		c0,0.9-0.4,1.8-1,2.6c-0.3,0.2-0.7,0.3-1.1,0.2c0-0.3,0-0.4-1.2-0.6v-0.2c0.5,0,1.3,0.1,1.6,0.1c0.1,0,0.3,0,0.4-0.1
		c0.4-0.7,0.7-1.4,0.7-2.2h-4.2l-0.3,0.8c-0.1,0-0.1,0-0.2,0c-0.1,0-0.3,0-0.4-0.1c0.3-0.7,0.6-1.6,0.8-2.2h-2.1l-0.1-0.2h7.2
		L146.9,35.7z M141.2,35v0.3c0,0-0.1,0.2-0.6,0.2v-3l0.6,0.3h4.3l0.3-0.4l0.8,0.6c-0.1,0.1-0.2,0.2-0.4,0.2v2c0,0-0.2,0.2-0.6,0.2
		V35C145.6,35,141.2,35,141.2,35z M145.7,33h-4.5v1.8h4.5V33z"/>
	<path d="M158.2,39.3c-0.6-0.8-0.8-1.8-0.7-2.8c-0.1-1,0.2-2,0.8-2.8c0.9-0.8,2.2-0.8,3,0c0.7,0.8,1,1.8,0.9,2.8
		c0.1,1-0.2,2-0.7,2.8c-0.4,0.5-1,0.7-1.6,0.7C159.2,40,158.7,39.8,158.2,39.3z M158.2,36.7c0,1.5,0.2,3.1,1.6,3.1
		c1.3,0,1.6-1.5,1.6-3.1c0.1-0.9-0.1-1.8-0.6-2.6c-0.3-0.3-0.6-0.4-1-0.4C158.7,33.5,158.2,34.7,158.2,36.7z"/>
	<path d="M163.9,39.3c-0.6-0.8-0.8-1.8-0.7-2.8c-0.1-1,0.2-2,0.8-2.8c0.9-0.8,2.2-0.8,3,0c0.7,0.8,1,1.8,0.9,2.8
		c0.1,1-0.2,2-0.7,2.8c-0.4,0.5-1,0.7-1.6,0.7C164.9,40,164.2,39.8,163.9,39.3z M163.9,36.7c0,1.5,0.2,3.1,1.6,3.1
		c1.3,0,1.6-1.5,1.6-3.1c0.1-0.9-0.1-1.8-0.6-2.6c-0.3-0.3-0.6-0.4-1-0.4C164.2,33.5,163.9,34.7,163.9,36.7z"/>
	<path d="M169.4,39.3c-0.6-0.8-0.8-1.8-0.7-2.8c-0.1-1,0.2-2,0.8-2.8c0.9-0.8,2.2-0.8,3,0c0.7,0.8,1,1.8,0.9,2.8
		c0.1,1-0.2,2-0.7,2.8c-0.4,0.5-1,0.7-1.6,0.7C170.4,40,169.8,39.8,169.4,39.3z M169.4,36.7c0,1.5,0.2,3.1,1.6,3.1
		c1.3,0,1.6-1.5,1.6-3.1c0.1-0.9-0.1-1.8-0.6-2.6c-0.3-0.3-0.6-0.4-1-0.4C169.9,33.5,169.4,34.7,169.4,36.7z"/>
	<path d="M174.9,39.3c-0.6-0.8-0.8-1.8-0.7-2.8c-0.1-1,0.2-2,0.8-2.8c0.9-0.8,2.2-0.8,3,0c0.7,0.8,1,1.8,0.9,2.8
		c0.1,1-0.2,2-0.7,2.8c-0.4,0.5-1,0.7-1.6,0.7C175.9,40,175.4,39.8,174.9,39.3z M174.9,36.7c0,1.5,0.2,3.1,1.6,3.1
		c1.3,0,1.6-1.5,1.6-3.1c0.1-0.9-0.1-1.8-0.6-2.6c-0.3-0.3-0.6-0.4-1-0.4C175.4,33.5,174.9,34.7,174.9,36.7z"/>
	<path d="M180.6,39.3c-0.6-0.8-0.8-1.8-0.7-2.8c-0.1-1,0.2-2,0.8-2.8c0.9-0.8,2.2-0.8,3,0c0.7,0.8,1,1.8,0.9,2.8
		c0.1,1-0.2,2-0.7,2.8c-0.4,0.5-1,0.7-1.6,0.7C181.6,40,180.9,39.8,180.6,39.3z M180.6,36.7c0,1.5,0.2,3.1,1.6,3.1
		c1.3,0,1.6-1.5,1.6-3.1c0.1-0.9-0.1-1.8-0.6-2.6c-0.3-0.3-0.6-0.4-1-0.4C181.1,33.5,180.6,34.7,180.6,36.7L180.6,36.7z"/>
	<path d="M186.2,39.3c-0.6-0.8-0.8-1.8-0.7-2.8c-0.1-1,0.2-2,0.8-2.8c0.9-0.8,2.2-0.8,3,0c0.7,0.8,1,1.8,0.9,2.8
		c0.1,1-0.2,2-0.7,2.8c-0.4,0.5-1,0.7-1.6,0.7C187.2,40,186.6,39.8,186.2,39.3z M186.2,36.7c0,1.5,0.2,3.1,1.6,3.1
		c1.3,0,1.6-1.5,1.6-3.1c0.1-0.9-0.1-1.8-0.6-2.6c-0.3-0.3-0.6-0.4-1-0.4C186.6,33.5,186.2,34.7,186.2,36.7z"/>
	<g>
		<path d="M159.4,66.3v3.9h-0.9v-0.4h-2v1.3c0,1-0.2,2-0.7,2.9l-0.8-0.6c0.4-0.7,0.7-1.5,0.6-2.3v-4.7h3.8L159.4,66.3L159.4,66.3z
			 M155.2,65.2v-0.8h4.5v0.8H155.2z M158.6,68.9v-1.7h-2v1.8L158.6,68.9z M161.2,64.8c1-0.1,2-0.4,3-0.8l0.5,0.9
			c0.1,0.3,0,0.3-0.3,0.2c-1,0.2-2.1,0.4-3.1,0.5v1.9h4v0.8h-1.5v5.7h-1v-5.7h-1.6v1.4c0.1,1.7-0.7,3.4-2.2,4.4l-0.7-0.8
			c1.3-0.8,2-2.2,1.9-3.7v-5.1L161.2,64.8z"/>
		<path d="M167.2,73.2h0.6c0.1,0,0.2,0,0.2-0.1l0,0v-2.8l-0.9,0.3c-0.1,0.3-0.2,0.3-0.3,0l-0.3-0.9l1.6-0.4v-2.7h-1.4v-0.9h1.4v-2
			h0.9c0.2,0,0.3,0.1,0,0.3v1.8h1.3v0.9h-1.3v2.4l1.1-0.4l0.2,0.8l-1.3,0.5v3.3c0,0.3-0.2,0.7-0.5,0.7c-0.1,0-0.1,0-0.2,0h-0.8
			L167.2,73.2z M173.1,73.2h0.7c0.1,0,0.2,0,0.2-0.1l0,0v-2.6h-3.7v-0.9h3.7v-1.2h-3.9v-0.9h2.6v-1.3h-2.1v-0.9h2.1v-1.5h0.9
			c0.2,0,0.3,0.1,0,0.3v1.3h2.3v0.9h-2.2v1.3h3.1v0.9H175v1.2h1.6v0.9H175v2.7c0,0.3-0.2,0.7-0.5,0.7c-0.1,0-0.1,0-0.2,0h-0.9
			L173.1,73.2z M172.7,72.1l-0.7,0.7c-0.3-0.4-0.7-0.8-1.1-1.2l0.7-0.6C171.9,71.2,172.4,71.7,172.7,72.1L172.7,72.1z"/>
		<path d="M182.4,64.2h1c0.3,0.1,0.3,0.2,0,0.4v1.8c0.1,2.8,2,5.2,4.6,6.2l-0.5,1.1c-2.1-0.9-3.7-2.7-4.4-4.9
			c-0.6,2.2-2.2,4-4.3,4.9l-0.7-1c2.7-0.8,4.4-3.4,4.3-6.2L182.4,64.2z"/>
		<path d="M189.4,65.7h4.9v0.9h-4.9V65.7z M190.2,70.2h3.6v3.6h-0.9v-0.5h-1.8v0.6h-0.9V70.2z M193.4,64.2v0.9h-3.2v-0.9H193.4z
			 M193.4,67.2v0.9h-3.2v-0.9H193.4z M193.4,68.8v0.9h-3.2v-0.9H193.4z M191.1,70.9v1.7h1.8v-1.7H191.1z M199.8,71.7l-0.2,1
			c-0.1,0.7-0.5,1-1,1h-2.9c-0.5,0-0.8-0.3-0.8-0.8v-4.9h3.3v-2.5h-3.6v-0.9h4.5v4.9h-0.9v-0.7h-2.4v3.6c0,0.2,0.1,0.4,0.3,0.4h2.2
			c0.2,0,0.3-0.1,0.3-0.3l0.2-1.1L199.8,71.7z"/>
		<path d="M210.4,73.7c-2.2-1.1-3.9-3.2-4.4-5.7c-0.4,2.6-2.1,4.9-4.5,5.9l-0.5-1c2.6-1.1,4-3.2,4.2-6.2h0.6v-1.4h-2.3v-0.9h3.4v1.6
			c0,2.9,1.4,5.1,4.2,6.5L210.4,73.7z"/>
		<path d="M212.2,70.8c0.8-1.1,1.4-2.4,1.6-3.8h-1.2V66h1.3v-2.2h0.7c0.2,0,0.3,0.1,0,0.3v2h1V67h-1v1.6c0.4,0.3,0.9,0.6,1.2,1
			l-0.4,0.9c-0.2-0.3-0.5-0.6-0.8-0.9v4.5h-0.8v-4.5c-0.3,0.8-0.7,1.4-1.2,2.1L212.2,70.8z M215.9,74.1v-10h3v3h-2.2v7H215.9z
			 M216.8,64.6v0.7h1.5v-0.7H216.8z M216.8,65.8v0.7h1.5v-0.7H216.8z M219.6,68.9h1.5v2.4h-1.5c0.6,0.3,1.2,0.6,1.8,1L221,73
			c-0.4-0.4-0.9-0.8-1.5-1v1.8h-0.6v-1.5c-0.5,0.4-1.1,0.8-1.7,1.1l-0.3-0.8c0.7-0.3,1.4-0.8,2-1.3h-1.5v-2.4h1.5v-0.5h-1.7v-0.5
			h1.7v-0.6h0.6c0.2,0,0.3,0.1,0,0.3v0.3h1.8v0.5h-1.8L219.6,68.9z M218.1,69.6v0.5h0.9v-0.5H218.1z M218.1,70.3v0.5h0.9v-0.5H218.1
			z M220.4,69.6h-0.9v0.5h0.9V69.6z M219.6,70.3v0.5h0.9v-0.5H219.6z M219.7,64.1h3v9.3c0,0.4-0.2,0.7-0.5,0.7h-0.7l-0.1-0.7h0.4
			c0.1,0,0.1,0,0.1-0.1l0,0v-6.1h-2.2V64.1z M221.9,65.2v-0.7h-1.4v0.7H221.9z M220.4,65.8v0.7h1.4v-0.7H220.4z"/>
		<path d="M135.9,89.1v-8.2h0.9v8.2H135.9z"/>
		<path d="M138.4,89.1v-8.2h0.9l3.6,6.5v-6.5h0.9v8.2h-0.9l-3.5-6.5v6.5H138.4z"/>
		<path d="M145.2,89.1v-8.2h4.6v1h-3.7v2.5h3.2v1h-3.2v3.7H145.2z"/>
		<path d="M150.8,85.1c-0.1-1.2,0.3-2.3,0.9-3.2c0.5-0.7,1.4-1.1,2.3-1.1c0.6,0,1.2,0.2,1.6,0.5c0.5,0.4,0.9,0.9,1.2,1.5
			c0.3,0.7,0.5,1.5,0.4,2.3c0,1.1-0.2,2.1-0.8,3c-0.9,1.3-2.7,1.7-4,0.8c-0.3-0.2-0.6-0.5-0.8-0.8C151.1,87.1,150.8,86.1,150.8,85.1
			z M151.7,85.1c-0.1,0.8,0.2,1.7,0.7,2.4c0.7,0.9,1.9,1.1,2.8,0.5c0.2-0.1,0.3-0.3,0.5-0.5c0.5-0.7,0.7-1.6,0.7-2.5
			c0-0.6-0.1-1.3-0.3-1.9c-0.2-0.4-0.4-0.8-0.8-1c-0.3-0.3-0.7-0.4-1.2-0.4c-0.7,0-1.3,0.3-1.7,0.8
			C151.9,83.2,151.6,84.2,151.7,85.1z"/>
		<path d="M158.4,89.1v-8.2h3c0.5,0,0.9,0.1,1.4,0.2c0.3,0.2,0.6,0.4,0.7,0.8c0.2,0.4,0.3,0.8,0.3,1.2c0.1,1.1-0.8,2.1-1.9,2.2
			c0.2,0.1,0.4,0.3,0.6,0.5c0.3,0.3,0.5,0.7,0.7,1.1l1.2,2.2h-1.1l-0.9-1.7c-0.2-0.5-0.5-0.9-0.8-1.4c-0.1-0.2-0.3-0.4-0.5-0.5
			s-0.5-0.1-0.7-0.1h-1V89L158.4,89.1z M159.2,84.4h1.9c0.3,0,0.7,0,1-0.2c0.2-0.1,0.4-0.3,0.5-0.5s0.2-0.5,0.2-0.8
			c0-0.4-0.1-0.7-0.4-1c-0.3-0.3-0.7-0.4-1.1-0.4h-2.1L159.2,84.4z"/>
		<path d="M165.2,89.1v-8.2h1.3l1.6,5.8l0.3,1.2c0.1-0.3,0.2-0.7,0.4-1.3l1.6-5.7h1.2v8.2h-0.8v-6.9l-2,6.9H168l-2-7v7H165.2z"/>
		<path d="M172.2,89.1l2.6-8.2h1l2.8,8.2h-1l-0.8-2.5h-2.8l-0.7,2.5H172.2z M174.2,85.7h2.3l-0.7-2.3c-0.2-0.7-0.4-1.3-0.5-1.7
			c-0.1,0.5-0.2,1.1-0.4,1.6L174.2,85.7z"/>
		<path d="M181.1,89.1v-7.3h-2.2v-1h5.4v1h-2.2v7.3H181.1z"/>
		<path d="M185.2,89.1v-8.2h0.9v8.2H185.2z"/>
		<path d="M187.4,85.1c-0.1-1.2,0.3-2.3,0.9-3.2c0.5-0.7,1.4-1.1,2.3-1.1c0.6,0,1.2,0.2,1.6,0.5c0.5,0.4,0.9,0.9,1.2,1.5
			c0.3,0.7,0.4,1.5,0.4,2.3c0,1.1-0.2,2.1-0.8,3c-0.9,1.3-2.7,1.7-4,0.8c-0.3-0.2-0.6-0.5-0.8-0.8C187.8,87.1,187.4,86.1,187.4,85.1
			z M188.4,85.1c-0.1,0.8,0.2,1.7,0.7,2.4c0.7,0.9,1.9,1.1,2.8,0.5c0.2-0.1,0.3-0.3,0.5-0.5c0.5-0.7,0.7-1.6,0.7-2.5
			c0-0.6-0.1-1.3-0.3-1.9c-0.2-0.4-0.4-0.8-0.8-1c-0.3-0.3-0.7-0.4-1.2-0.4c-0.7,0-1.3,0.3-1.7,0.8
			C188.6,83.2,188.4,84.2,188.4,85.1z"/>
		<path d="M195.1,89.1v-8.2h0.9l3.6,6.5v-6.5h0.9v8.2h-0.9l-3.5-6.5v6.5H195.1z"/>
		<path d="M204.4,89.1v-8.2h2.5c0.4,0,0.8,0.1,1.2,0.2c0.3,0.2,0.6,0.4,0.7,0.7c0.2,0.3,0.3,0.7,0.3,1.1s-0.1,0.7-0.2,1
			c-0.2,0.3-0.4,0.6-0.7,0.7c0.4,0.1,0.7,0.4,0.9,0.7c0.2,0.4,0.4,0.8,0.3,1.3c0,0.5-0.1,0.9-0.3,1.3s-0.5,0.6-0.8,0.8
			c-0.4,0.2-0.9,0.3-1.4,0.3L204.4,89.1L204.4,89.1z M205.4,84.2h1.5c0.3,0,0.5,0,0.8-0.1c0.2-0.1,0.4-0.2,0.5-0.4
			c0.1-0.2,0.2-0.5,0.2-0.8s0-0.5-0.2-0.7c-0.1-0.2-0.3-0.3-0.5-0.4c-0.3-0.1-0.7-0.1-1-0.1h-1.4L205.4,84.2L205.4,84.2z
			 M205.4,88.1h1.7c0.3,0,0.6,0,0.8-0.1s0.4-0.3,0.6-0.5c0.1-0.3,0.2-0.5,0.2-0.8s-0.1-0.5-0.2-0.8c-0.1-0.2-0.3-0.4-0.5-0.5
			c-0.3-0.1-0.7-0.2-1-0.1h-1.6V88.1z"/>
		<path d="M210.9,89.1v-8.2h4.9v1h-4v2.5h3.7v1h-3.7v2.8h4.1v1h-5V89.1z"/>
		<path d="M216.4,89.1l2.6-8.2h1l2.8,8.2h-1l-0.8-2.5h-2.8l-0.7,2.5H216.4z M218.2,85.7h2.3l-0.7-2.3c-0.2-0.7-0.4-1.3-0.5-1.7
			c-0.1,0.5-0.2,1.1-0.4,1.6L218.2,85.7z"/>
		<path d="M223.4,89.1v-8.2h3c0.5,0,0.9,0.1,1.4,0.2c0.3,0.2,0.6,0.4,0.7,0.8c0.2,0.4,0.3,0.8,0.3,1.2c0.1,1.1-0.8,2.1-1.9,2.2
			c0.2,0.1,0.4,0.3,0.6,0.5c0.3,0.3,0.5,0.7,0.7,1.1l1.2,2.2h-1.1l-0.9-1.7c-0.2-0.5-0.5-0.9-0.8-1.4c-0.1-0.2-0.3-0.4-0.5-0.5
			s-0.5-0.1-0.7-0.1h-1V89L223.4,89.1z M224.2,84.4h1.9c0.3,0,0.7,0,1-0.2c0.2-0.1,0.4-0.3,0.5-0.5s0.2-0.5,0.2-0.8
			c0-0.4-0.1-0.7-0.4-1c-0.3-0.3-0.7-0.4-1.1-0.4h-2.1L224.2,84.4z"/>
		<path d="M230.2,89.1v-8.2h4.9v1h-4v2.5h3.7v1h-3.7v2.8h4.1v1h-5V89.1z"/>
		<path d="M236.4,89.1v-8.2h3c0.5,0,0.9,0.1,1.4,0.2c0.3,0.2,0.6,0.4,0.7,0.8c0.2,0.4,0.3,0.8,0.3,1.2c0.1,1.1-0.8,2.1-1.9,2.2
			c0.2,0.1,0.4,0.3,0.6,0.5c0.3,0.3,0.5,0.7,0.7,1.1l1.2,2.2h-1.1l-0.9-1.7c-0.2-0.5-0.5-0.9-0.8-1.4c-0.1-0.2-0.3-0.4-0.5-0.5
			s-0.5-0.1-0.7-0.1h-1V89L236.4,89.1z M237.4,84.4h1.9c0.3,0,0.7,0,1-0.2c0.2-0.1,0.4-0.3,0.5-0.5s0.2-0.5,0.2-0.8
			c0-0.4-0.1-0.7-0.4-1c-0.3-0.3-0.7-0.4-1.1-0.4h-2.1L237.4,84.4L237.4,84.4z"/>
	</g>
	<path d="M20.9,104.8l-0.2,1.5c0.3,0.3,0.4,0.5,0.4,0.6s-0.2,0.3-0.5,0.3c-0.4,0-0.7-0.2-1.1-0.4c-1.7-1.1-2.8-2.9-3-4.9h-2.9v3.9
		c1-0.1,2.2-0.2,3.5-0.4v0.2c-1.1,0.3-2.6,0.7-4.8,1.2c0,0.1-0.1,0.2-0.3,0.2l-0.5-1c0.3,0,0.7-0.1,1.3-0.1v-7.4l1,0.4
		c1.8-0.3,3.5-0.7,5.2-1.3l0.9,0.9c-0.1,0.1-0.1,0.1-0.2,0.1s-0.3,0-0.4-0.1c-0.5,0.1-1.2,0.2-1.9,0.3c0,0.1-0.1,0.1-0.4,0.2
		c0,0.9,0.1,1.9,0.2,2.8h2.1l0.6-0.7l1.1,0.8c-0.1,0.2-0.2,0.2-0.5,0.2h-3.2c0.2,1.7,1.1,3.1,2.5,4c0.1,0,0.1,0.1,0.2,0.1
		s0.1,0,0.2-0.1c0.2-0.4,0.4-0.8,0.5-1.2L20.9,104.8z M13.7,101.8h2.9c-0.2-0.9-0.2-1.9-0.2-2.8c-0.8,0.1-1.7,0.2-2.5,0.2h-0.1
		L13.7,101.8L13.7,101.8z"/>
	<path d="M29.8,102.6l1,0.7c-0.1,0.1-0.3,0.2-0.5,0.2v3.4c-0.2,0.2-0.5,0.3-0.9,0.3v-0.6h-4v0.4c0,0.1-0.3,0.3-0.7,0.3h-0.1v-3.7
		c-0.9,0.5-1.9,0.8-2.8,1.1l-0.1-0.2c1.4-0.5,2.7-1.3,3.9-2.3c-0.1,0-0.3,0-0.4-0.1c-0.3-0.7-0.7-1.3-1.3-1.7
		c-0.6,0.5-1.2,0.9-1.9,1.2l-0.1-0.1c1.4-1,2.4-2.3,3.1-3.9l1.3,0.3c-0.1,0.1-0.1,0.2-0.4,0.1c-0.2,0.3-0.3,0.5-0.5,0.8H28l0.6-0.5
		l0.9,0.9c-0.1,0.1-0.2,0.1-0.5,0.1c-0.9,1.5-2.1,2.8-3.6,3.7l0,0h3.8L29.8,102.6z M25.3,99.2c-0.3,0.4-0.7,0.8-1.1,1.2
		c1.4,0.4,1.8,1,1.8,1.5c0,0.1,0,0.1,0,0.2c0.9-0.8,1.6-1.8,2.2-2.8L25.3,99.2L25.3,99.2z M25.5,106.3h4v-3h-4V106.3z"/>
	<path d="M43.2,100.2l2.1,3.7l0,0v-3c0-0.4,0-0.5-0.5-0.5v-0.2H46v0.2c-0.4,0-0.5,0-0.5,0.5v3.9h-0.4l-2.2-4l0,0v3.2
		c0,0.4,0,0.5,0.5,0.5v0.2h-1.2v-0.2c0.4,0,0.5,0,0.5-0.5v-3.1c0-0.4,0-0.5-0.5-0.5v-0.2H43.2z"/>
	<path d="M49,103.3h-1.5l-0.2,0.7c0,0.1-0.1,0.2-0.1,0.3c0,0.1,0.1,0.2,0.3,0.2v0.2h-1v-0.2c0.2,0,0.3-0.1,0.4-0.3l1.2-4h0.3
		l1.4,3.9c0.1,0.4,0.2,0.4,0.4,0.4v0.2h-1.3v-0.2c0.2,0,0.3,0,0.3-0.2c0-0.1,0-0.2-0.1-0.2L49,103.3z M48.8,103.1l-0.7-2.1l0,0
		l-0.6,2.1H48.8z"/>
	<path d="M54.5,100.2h1.1v0.2c-0.5,0-0.5,0-0.5,0.5v3.1c0,0.4,0,0.5,0.5,0.5v0.2H54v-0.2c0.4,0,0.5,0,0.5-0.5v-3.1l0,0l-1.5,3.8
		h-0.2l-1.6-3.8l0,0v3.1c0,0.4,0,0.5,0.4,0.5v0.2h-1.2v-0.2c0.4,0,0.5,0,0.5-0.5v-3.1c0-0.4,0-0.5-0.5-0.5v-0.2h1.1l1.5,3.7l0,0
		L54.5,100.2z"/>
	<path d="M59,104.8H56v-0.2c0.4,0,0.5,0,0.5-0.5V101c0-0.4,0-0.5-0.5-0.5v-0.2h2.7l0.2,1h-0.3c-0.2-0.7-0.2-0.7-0.6-0.7h-0.8
		c-0.2,0-0.2,0-0.2,0.3v1.5h0.8c0.3,0,0.3-0.1,0.3-0.6h0.3v1.5h-0.3c0-0.6,0-0.6-0.3-0.6H57v1.7c0,0.2,0,0.3,0.2,0.3h1
		c0.4,0,0.4,0,0.6-0.7h0.3L59,104.8z"/>
	<path d="M15.3,142.6v0.2c-0.8,0.4-2,0.9-3.7,1.6c0,0.1-0.1,0.2-0.3,0.3l-0.5-1.1c0.3,0,0.9-0.1,1.6-0.3v-3.2h-1.3l-0.1-0.3h1.4v-3
		h-1.4l-0.1-0.3h2.8l0.6-0.8l1.1,0.8c-0.1,0.2-0.2,0.2-0.5,0.2h-1.4v3h0.4l0.5-0.7l0.9,0.8c-0.1,0.2-0.2,0.2-0.5,0.2h-1.2v3.1
		L15.3,142.6z M17.9,142.4c0,0.2-0.2,0.2-0.5,0.2c-0.4,1.4-1.5,2.7-4.2,3.3l-0.1-0.2c1.7-0.4,3.1-1.8,3.3-3.6L17.9,142.4z
		 M21.3,143.4v1.5c0.3,0.1,0.4,0.2,0.4,0.3c0,0.3-0.3,0.6-1.2,0.6h-1.2c-0.9,0-1.1-0.2-1.1-1.1v-2.9h-1.9v0.4c0,0-0.1,0.3-0.9,0.3
		v-7l1,0.4h3.3l0.4-0.6l1.1,0.8c-0.1,0.1-0.3,0.2-0.5,0.3v5.6c0,0-0.3,0.3-0.9,0.3v-0.6h-0.4c-0.1,0.1-0.2,0.1-0.3,0.1v2.8
		c0,0.3,0,0.3,0.2,0.3h1.1c0.2,0,0.2,0,0.3-0.2c0.2-0.5,0.3-1,0.4-1.4L21.3,143.4z M19.9,136.4h-3.5v1.6h3.5V136.4z M19.9,139.6V138
		h-3.5v1.6H19.9z M16.4,141.6h3.5v-1.6h-3.5V141.6z"/>
	<path d="M22.2,141.2c1.2-1.9,2-3.9,2.5-6l1.4,0.4c0,0.1-0.1,0.2-0.4,0.2c-0.3,0.8-0.6,1.5-1,2.3l0.4,0.2c0,0.1-0.1,0.2-0.3,0.2v7.1
		c-0.2,0.2-0.5,0.3-0.8,0.3h-0.2v-6.3c-0.4,0.6-0.9,1.2-1.4,1.7L22.2,141.2z M31.8,144.2l1.2,0.9c-0.1,0.2-0.2,0.2-0.6,0.2h-7
		c0-0.1,0-0.2-0.1-0.3h3.2v-3.5H26c0-0.1,0-0.2-0.1-0.3h2.5v-3h-2.8l-0.1-0.3h5.2l0.6-0.8l1.1,0.8c-0.1,0.2-0.2,0.2-0.6,0.2h-2.6
		v3.1h1.2l0.6-0.7l1.1,0.8c-0.1,0.2-0.2,0.2-0.5,0.2h-2.3v3.5H31L31.8,144.2z M27.4,135.2c2,0.3,2.6,1.1,2.6,1.7
		c0,0.3-0.2,0.6-0.5,0.6l0,0c-0.1,0-0.3,0-0.4-0.1C28.8,136.6,28.1,135.9,27.4,135.2L27.4,135.2z"/>
	<path d="M37.8,141.4h-2.2c0.1,1.7-0.5,3.3-1.6,4.6l-0.2-0.1c0.7-1.6,1-3.3,0.9-5.1v-3l1.1,0.4h1.9l0.4-0.5l1.1,0.8
		c-0.1,0.1-0.3,0.2-0.5,0.2v3.2c-0.3,0.2-0.6,0.3-0.9,0.3V141.4z M39.5,136.2c-0.1,0.2-0.2,0.2-0.6,0.2H34l-0.1-0.3h3.9l0.6-0.8
		L39.5,136.2z M37.8,138.6h-2.2v2.6h2.2V138.6z M43.8,138.6l1.1,0.8c-0.1,0.2-0.2,0.2-0.5,0.2h-1v6.1c-0.2,0.2-0.5,0.3-0.8,0.3h-0.2
		v-6.3h-1.8v0.4c0,2.1-0.3,4.4-2.8,5.9l-0.1-0.1c1.8-1.6,2-3.6,2-5.8v-3.9l1.1,0.4c0.9-0.4,1.8-0.8,2.6-1.3l1.2,0.9
		c-0.1,0.1-0.2,0.1-0.3,0.1s-0.3,0-0.4-0.1c-1.1,0.3-2.1,0.5-3.2,0.6v2.5h2.6L43.8,138.6z"/>
	<path d="M59,141.4h-1.5l-0.2,0.7c0,0.1-0.1,0.2-0.1,0.3s0.1,0.2,0.3,0.2v0.2h-1v-0.2c0.2,0,0.3-0.1,0.4-0.3l1.2-4h0.3l1.4,3.9
		c0.1,0.4,0.2,0.4,0.4,0.4v0.2H59v-0.2c0.2,0,0.3,0,0.3-0.2c0-0.1,0-0.2-0.1-0.2L59,141.4z M59,141.2l-0.7-2.1l0,0l-0.6,2.1H59z"/>
	<path d="M60.6,142.9v-0.2c0.4,0,0.5,0,0.5-0.5v-3.1c0-0.4,0-0.5-0.5-0.5v-0.2h1.7c0.5-0.1,1.1,0.1,1.5,0.5c0.4,0.5,0.6,1.1,0.6,1.7
		c0,0.6-0.1,1.2-0.5,1.7c-0.4,0.4-1,0.7-1.6,0.6H60.6z M62,138.6c-0.2,0-0.2,0-0.2,0.3v3.4c0,0.3,0,0.3,0.2,0.3h0.3
		c1,0,1.5-0.6,1.5-2c0-1.5-0.5-2-1.4-2H62z"/>
	<path d="M64.9,142.9v-0.2c0.4,0,0.5,0,0.5-0.5v-3.1c0-0.4,0-0.5-0.5-0.5v-0.2h1.7c0.5-0.1,1.1,0.1,1.5,0.5c0.4,0.5,0.6,1.1,0.6,1.7
		c0,0.6-0.1,1.2-0.5,1.7c-0.4,0.4-1,0.7-1.6,0.6H64.9z M66.2,138.6c-0.2,0-0.2,0-0.2,0.3v3.4c0,0.3,0,0.3,0.2,0.3h0.3
		c1,0,1.5-0.6,1.5-2c0-1.5-0.5-2-1.4-2H66.2z"/>
	<path d="M70.7,138.4c0.4,0,0.9,0.1,1.2,0.3c0.3,0.2,0.4,0.5,0.4,0.9c0,0.6-0.5,1.1-1.1,1.2l0.9,1.4c0.2,0.4,0.3,0.4,0.6,0.4v0.2
		h-0.9l-1.2-2.1h-0.5v1.4c0,0.4,0,0.5,0.5,0.5v0.2h-1.5v-0.2c0.4,0,0.5,0,0.5-0.5V139c0-0.4,0-0.5-0.5-0.5v-0.2h1.6V138.4z
		 M70.2,138.6c-0.1,0-0.2,0.1-0.2,0.4v1.5h0.4c1.1,0,1.1-0.7,1.1-1s-0.1-0.5-0.3-0.7c-0.2-0.2-0.5-0.2-0.8-0.2H70.2z"/>
	<path d="M75.8,142.9h-2.9v-0.2c0.4,0,0.5,0,0.5-0.5v-3.1c0-0.4,0-0.5-0.5-0.5v-0.2h2.7l0.2,1h-0.3c-0.2-0.7-0.2-0.7-0.6-0.7h-0.8
		c-0.2,0-0.2,0-0.2,0.3v1.5h0.8c0.3,0,0.3-0.1,0.3-0.6h0.3v1.5h-0.2c0-0.6,0-0.6-0.3-0.6h-0.8v1.7c0,0.2,0,0.3,0.2,0.3h1
		c0.4,0,0.4,0,0.6-0.7h0.3L75.8,142.9z"/>
	<path d="M76.7,141.8c0.2,0.8,0.5,0.9,1,0.9c0.4,0,0.8-0.3,0.9-0.8v-0.1c0-0.5-0.3-0.7-0.9-1.1c-0.7-0.4-1.1-0.7-1.1-1.4
		c0-0.4,0.3-1.1,1.4-1.1c0.3,0,0.6,0,0.9,0.2c0,0.2,0.1,0.6,0.1,0.9h-0.3c-0.1-0.6-0.3-0.8-0.8-0.8c-0.4,0-0.7,0.2-0.8,0.6
		c0,0,0,0,0,0.1c0,0.4,0.2,0.6,0.9,1c0.4,0.2,0.7,0.4,1,0.7c0.2,0.2,0.3,0.5,0.2,0.8c0,0.7-0.6,1.2-1.5,1.2c-0.4,0-0.7-0.1-1.1-0.2
		c0-0.3-0.1-0.6-0.2-1L76.7,141.8z"/>
	<path d="M79.8,141.8c0.2,0.8,0.5,0.9,1,0.9c0.4,0,0.8-0.3,0.9-0.7v-0.1c0-0.5-0.3-0.7-0.9-1.1c-0.7-0.4-1.1-0.7-1.1-1.4
		c0-0.4,0.3-1.1,1.4-1.1c0.3,0,0.6,0,0.9,0.2c0,0.2,0.1,0.6,0.1,0.9h-0.3c-0.1-0.6-0.3-0.8-0.8-0.8c-0.4,0-0.7,0.2-0.8,0.6
		c0,0,0,0,0,0.1c0,0.4,0.2,0.6,0.9,1c0.4,0.2,0.7,0.4,1,0.7c0.2,0.2,0.3,0.5,0.2,0.8c0,0.7-0.6,1.2-1.5,1.2c-0.4,0-0.7-0.1-1.1-0.2
		c0-0.3-0.1-0.6-0.2-1L79.8,141.8z"/>
	<path d="M16.6,175.6h-3.5c0,0.1,0,0.2,0,0.2c0,0.6-0.3,1.1-0.9,1.1c-0.3,0-0.5-0.2-0.5-0.4s0.2-0.4,0.4-0.5
		c0.4-0.2,0.7-0.7,0.6-1.1H13c0.1,0.1,0.1,0.3,0.1,0.5h3.5v-1.1h-3.7l-0.1-0.3h7l0.6-0.7l1.1,0.8c-0.1,0.2-0.2,0.2-0.5,0.2h-3.4v1.1
		h3.6l0.5-0.5l0.9,0.9c-0.1,0.1-0.3,0.1-0.4,0.1c-0.3,0.4-0.7,0.7-1.1,1l-0.1-0.1c0.1-0.3,0.2-0.8,0.3-1.2h-3.7v2.7
		c0,0.1-0.3,0.2-0.8,0.2h-0.1V175.6z M15.4,177.2l0.8,0.5c-0.1,0.2-0.2,0.2-0.5,0.2h-2.6l-0.1-0.3h1.9L15.4,177.2z M13.2,176.6h1.7
		l0.4-0.5l0.8,0.5c-0.1,0.2-0.2,0.2-0.5,0.2h-2.3L13.2,176.6z M22.1,181.8v1c0.4,0.2,0.4,0.2,0.4,0.3c0,0.3-0.3,0.6-1.5,0.6h-2.9
		c-1.2,0-1.4-0.2-1.4-1.2v-0.6h-2.5v0.4c0,0-0.1,0.3-0.9,0.3v-4l1,0.4H20l0.4-0.5l1.1,0.8c-0.1,0.1-0.3,0.2-0.4,0.2v2.6
		c-0.3,0.2-0.6,0.3-0.9,0.3v-0.5h-2.6v0.7c0,0.4,0,0.4,0.6,0.4h2.9c0.3,0,0.4,0,0.5-0.1c0.2-0.3,0.3-0.7,0.4-1.1L22.1,181.8z
		 M16.6,179.1h-2.5v1h2.5V179.1z M14.2,181.6h2.5v-1.1h-2.5V181.6z M20.1,179.1h-2.6v1h2.6V179.1z M17.6,181.6h2.6v-1.1h-2.6V181.6z
		 M18.1,177.9l-0.1-0.3h2l0.4-0.5l0.9,0.6c-0.1,0.2-0.2,0.2-0.5,0.2H18.1z M20.2,176.1l0.8,0.5c-0.1,0.2-0.2,0.2-0.5,0.2h-2.4
		l-0.1-0.3h1.8L20.2,176.1z"/>
	<path d="M27.2,174.8l1,0.7c-0.1,0.2-0.2,0.2-0.5,0.2h-4.4l-0.1-0.3h3.4L27.2,174.8z M23.8,176.9h2.4l0.5-0.6l0.9,0.7
		c-0.1,0.2-0.2,0.2-0.5,0.2h-3.2L23.8,176.9z M27.5,178.4c-0.1,0.2-0.2,0.2-0.5,0.2h-3.2l-0.1-0.3H26l0.5-0.6L27.5,178.4z
		 M26.4,179.9l0.4-0.5l1.1,0.8c-0.1,0.1-0.3,0.2-0.5,0.2v2.8c0,0-0.2,0.3-0.9,0.3v-0.7h-1.8v0.8c0,0-0.1,0.3-0.9,0.3v-4.3l0.9,0.4
		L26.4,179.9z M27.6,174.1c-0.1,0.2-0.2,0.2-0.5,0.2h-3.2l-0.1-0.3h2.3l0.5-0.7L27.6,174.1z M24.8,182.4h1.8v-2.2h-1.8V182.4z
		 M34.2,177.1c-0.1,0.2-0.2,0.2-0.6,0.2h-2.2v2.3h1l0.4-0.5l1.1,0.8c-0.1,0.1-0.3,0.2-0.5,0.2v3.4c0,0-0.3,0.3-0.9,0.3v-0.8h-3v0.6
		c0,0-0.1,0.3-0.9,0.3v-4.8l0.9,0.4h1v-2.2H28l-0.1-0.3h2.6v-2.3c-0.8,0.1-1.6,0.3-2.4,0.4v-0.2c1.6-0.4,3.2-1,4.7-1.7l1,0.9
		c-0.1,0.1-0.2,0.1-0.2,0.1c-0.1,0-0.3,0-0.4-0.1c-0.5,0.1-1,0.3-1.7,0.4v2.5h1.2l0.6-0.8L34.2,177.1z M32.5,179.9h-3v2.9h3V179.9z"
		/>
	<path d="M46.1,180.6c0.4,0,0.5,0,0.5-0.5V177c0-0.4,0-0.5-0.5-0.5v-0.2h1.6c0.4,0,0.9,0.1,1.3,0.3c0.5,0.5,0.6,1.3,0.1,1.8
		c0,0,0,0-0.1,0.1c-0.4,0.3-0.9,0.4-1.4,0.3h-0.5v1.3c0,0.4,0,0.5,0.6,0.5v0.2h-1.6C46.1,180.9,46.1,180.6,46.1,180.6z M47.8,178.6
		c0.7,0,1.1-0.2,1.1-1c0-0.9-0.7-1-1.1-1h-0.3c-0.1,0-0.1,0.1-0.1,0.4v1.6H47.8z"/>
	<path d="M54,176.6c-0.4,0-0.5,0-0.5,0.5v3.1c0,0.4,0,0.5,0.5,0.5v0.2h-1.5v-0.2c0.4,0,0.4,0,0.4-0.5v-1.5h-2v1.5
		c0,0.4,0,0.5,0.4,0.5v0.2h-1.5v-0.2c0.4,0,0.5,0,0.5-0.5v-3.1c0-0.4,0-0.5-0.5-0.5v-0.2h1.5v0.2c-0.4,0-0.4,0-0.4,0.5v1.3h2v-1.3
		c0-0.4,0-0.5-0.4-0.5v-0.2H54V176.6z"/>
	<path d="M54.5,178.6c0-1.6,0.7-2.3,1.9-2.3c1.4,0,1.9,1,1.9,2.3c0,1.4-0.5,2.3-1.9,2.3S54.5,179.9,54.5,178.6z M55.1,178.6
		c0,0.6,0.1,1.2,0.4,1.7c0.4,0.5,1.1,0.6,1.6,0.2c0.1-0.1,0.1-0.1,0.2-0.2c0.3-0.5,0.4-1.1,0.4-1.7c0.1-0.6-0.1-1.2-0.4-1.7
		c-0.2-0.3-0.5-0.4-0.9-0.4C55.2,176.6,55.1,177.8,55.1,178.6z"/>
	<path d="M59.8,176.4l2.1,3.7l0,0v-3c0-0.4,0-0.5-0.5-0.5v-0.2h1.2v0.2c-0.4,0-0.5,0-0.5,0.5v3.9h-0.4l-2.2-4l0,0v3.2
		c0,0.4,0,0.5,0.5,0.5v0.2h-1.2v-0.2c0.4,0,0.5,0,0.5-0.5V177c0-0.4,0-0.5-0.5-0.5v-0.2L59.8,176.4L59.8,176.4z"/>
	<path d="M66.1,180.9h-2.9v-0.2c0.4,0,0.5,0,0.5-0.5v-3.1c0-0.4,0-0.5-0.5-0.5v-0.2h2.7l0.2,1h-0.3c-0.2-0.7-0.2-0.7-0.6-0.7h-0.8
		c-0.2,0-0.2,0-0.2,0.3v1.5h0.8c0.3,0,0.3-0.1,0.3-0.6h0.3v1.5h-0.3c0-0.6,0-0.6-0.3-0.6h-0.8v1.7c0,0.2,0,0.3,0.2,0.3h1
		c0.4,0,0.4,0,0.6-0.7h0.3L66.1,180.9z"/>
	<path d="M69.4,176.4l2.1,3.7l0,0v-3c0-0.4,0-0.5-0.5-0.5v-0.2h1.2v0.2c-0.4,0-0.5,0-0.5,0.5v3.9h-0.4l-2.2-4l0,0v3.2
		c0,0.4,0,0.5,0.5,0.5v0.2h-1.2v-0.2c0.4,0,0.5,0,0.5-0.5V177c0-0.4,0-0.5-0.5-0.5v-0.2L69.4,176.4L69.4,176.4z"/>
	<path d="M72.7,178.6c0-1.6,0.7-2.3,1.9-2.3c1.4,0,1.9,1,1.9,2.3c0,1.4-0.5,2.3-1.9,2.3S72.7,179.9,72.7,178.6z M73.2,178.6
		c0,0.6,0.1,1.2,0.4,1.7c0.4,0.5,1.1,0.6,1.6,0.2c0.1-0.1,0.1-0.1,0.2-0.2c0.3-0.5,0.4-1.1,0.4-1.7c0.1-0.6-0.1-1.2-0.4-1.7
		c-0.2-0.3-0.5-0.4-0.9-0.4C73.5,176.6,73.2,177.8,73.2,178.6z"/>
	<path d="M77.8,180.6c0,0.2-0.1,0.4-0.3,0.4c-0.2,0-0.3-0.2-0.3-0.4l0,0c0-0.2,0.2-0.3,0.3-0.3S77.8,180.4,77.8,180.6z"/>
	<path d="M14.4,209.9l0.5-0.6l1,0.9c-0.1,0.1-0.2,0.2-0.5,0.2c-0.5,3.2-1.7,6.2-5.1,7.9l-0.1-0.2c2.7-1.8,3.8-4.8,4.2-8h-1.9
		c-0.3,0.7-0.6,1.4-1,2.1c1.5,0.3,2,1,2,1.5c0,0.3-0.2,0.5-0.4,0.5l0,0c-0.1,0-0.3-0.1-0.4-0.1c-0.3-0.7-0.7-1.2-1.3-1.6
		c-0.3,0.5-0.7,0.9-1.2,1.3l-0.2-0.1c1.2-1.8,1.9-3.9,2.1-6l1.4,0.3c0,0.1-0.1,0.2-0.4,0.2c-0.1,0.6-0.3,1.2-0.5,1.7L14.4,209.9
		L14.4,209.9z M18.9,207.9c0,0.2-0.1,0.2-0.5,0.3v5c0.8,0.7,1.6,1.2,2.6,1.6v0.1c-0.4,0.1-0.8,0.4-0.9,0.8c-0.6-0.3-1.2-0.7-1.7-1.2
		v3.6c0,0-0.1,0.3-0.9,0.3v-5.1c-0.7-1.1-1.3-2.4-1.6-3.7l0.2-0.1c0.3,0.9,0.8,1.8,1.4,2.5v-4.4L18.9,207.9z"/>
	<path d="M31,208.1l1.1,0.8c-0.1,0.1-0.3,0.2-0.5,0.2v8.8c0,0-0.2,0.3-0.9,0.3v-0.8h-7.4v0.6c0,0-0.1,0.4-0.9,0.4v-10.2l1,0.5h7.2
		L31,208.1z M23.3,217.2h7.4v-8.3h-7.4V217.2z M29.4,214.9l1,0.7c-0.1,0.2-0.2,0.2-0.5,0.2h-6.2l-0.1-0.3h2.9v-2.6h-2.1l-0.1-0.3
		h2.2v-2.2H24l-0.1-0.3h4.6l0.5-0.7l1,0.7c-0.1,0.2-0.2,0.2-0.5,0.2h-2.2v2.2h0.9l0.5-0.7l1,0.7c-0.1,0.2-0.2,0.2-0.5,0.2h-1.8v2.6
		h1.5L29.4,214.9z M28.1,213.4c1,0.4,1.3,0.9,1.3,1.2c0,0.2-0.1,0.4-0.3,0.5c-0.2,0-0.3,0-0.4-0.2c-0.1-0.5-0.3-1-0.7-1.5H28.1z"/>
	<path d="M36.5,213.2c-0.5,1-0.9,2-1.1,3.1c0,0.2,0.1,0.4,0.1,0.7c0,0.4-0.2,0.5-0.4,0.5c-0.6,0-1.2-1-1.2-3
		c0.1-1.4,0.3-2.8,0.6-4.2c0-0.2,0-0.3,0-0.5c0-0.1,0-0.2,0-0.3c0-0.4-0.2-0.7-0.6-0.8v-0.1c0.1-0.1,0.3-0.1,0.4-0.1
		c0.7,0,1.2,0.5,1.3,1.2c0,0.2-0.1,0.5-0.2,0.7c-0.5,1.2-0.8,2.5-0.8,3.8c0,0.4,0,0.8,0.1,1.2h0.1c0.2-0.4,0.9-1.6,1.3-2.3
		L36.5,213.2z M38.8,213.1c-0.5,0.5-0.8,1.1-0.9,1.8c0,0.9,0.7,1.2,2.2,1.2c0.6,0,1.3-0.1,1.9-0.2c0.7,0.1,0.9,0.4,0.9,0.7
		c0,0.4-0.5,0.4-2.5,0.4c-2.1,0-3.1-0.6-3.1-1.9c0.1-0.9,0.6-1.6,1.2-2.1L38.8,213.1z M37.5,210.1c0.4,0.1,0.7,0.1,1.1,0.1
		c0.8,0,1.5-0.2,2.2-0.4c0.2-0.1,0.4-0.2,0.5-0.3c0.5,0,1,0.2,1,0.5s-0.4,0.4-0.9,0.5c-0.8,0.2-1.6,0.3-2.5,0.3
		c-0.6,0-1.2-0.2-1.7-0.6L37.5,210.1z"/>
	<path d="M54.3,211.9l1.1,0.8c-0.1,0.2-0.2,0.2-0.5,0.2h-3.6v1.9h1.8l0.4-0.5l1.1,0.8c-0.1,0.1-0.3,0.2-0.5,0.2v2.8
		c0,0-0.3,0.3-0.9,0.3v-0.6h-4.7v0.4c0,0-0.1,0.3-0.9,0.3v-4.1l1,0.4h1.8v-1.9h-3.6c0,2-0.8,4-2.1,5.5l-0.2-0.1
		c1.2-2.1,1.4-4.7,1.4-7.1v-3.2l1.1,0.4h6.4l0.4-0.5l1.1,0.8c-0.1,0.1-0.3,0.2-0.5,0.2v2.2c0,0-0.3,0.3-0.9,0.3v-0.6h-6.7v0.4
		c0,0.4,0,0.9,0,1.4h3.6v-1.7l1.4,0.1c0,0.2-0.1,0.2-0.5,0.3v1.3h2.4L54.3,211.9z M53.5,208.6h-6.7v1.9h6.7V208.6z M53.3,215.1h-4.7
		v2.4h4.7V215.1z"/>
	<path d="M56.1,213.8c1.2-1.9,2-3.9,2.5-6l1.4,0.4c0,0.1-0.2,0.2-0.4,0.2c-0.3,0.8-0.6,1.5-1,2.3l0.4,0.2c0,0.1-0.1,0.2-0.3,0.2v7.1
		c-0.2,0.2-0.5,0.3-0.8,0.3h-0.2v-6.3c-0.4,0.6-0.9,1.2-1.4,1.7L56.1,213.8z M65.8,216.8l1.2,0.9c-0.1,0.2-0.2,0.2-0.6,0.2h-7
		c0-0.1,0-0.2-0.1-0.3h3.2V214H60c0-0.1,0-0.2-0.1-0.3h2.5v-3.1h-2.8l-0.1-0.3h5.2l0.6-0.8l1.1,0.8c-0.1,0.2-0.2,0.2-0.6,0.2h-2.6
		v3.1h1.2l0.6-0.7l1.1,0.8c-0.1,0.2-0.2,0.2-0.5,0.2h-2.3v3.5h1.7L65.8,216.8z M61.3,207.8c2,0.3,2.6,1.2,2.6,1.7
		c0,0.3-0.2,0.6-0.5,0.6l0,0c-0.1,0-0.3,0-0.4-0.1C62.6,209.1,62,208.4,61.3,207.8L61.3,207.8z"/>
	<path d="M72.2,208.4c0.1-0.3,0.5-0.5,0.8-0.5c0.6,0,1.3,0.3,1.3,0.7c0,0.2-0.1,0.3-0.1,0.4c0,0.3-0.1,0.6,0,0.9
		c0.6,0,1.3-0.1,1.7-0.1c0.5,0,0.7-0.1,0.9-0.3c0.7,0.2,1.4,0.5,1.4,0.9c0,0.1-0.2,0.2-0.4,0.2c-0.3,0-0.8-0.1-1.3-0.2
		c-0.2,0-0.6,0-0.9,0c-0.5,0-1,0-1.4,0c0,1.1,0,1.9,0,2.2c0.3,0.5,0.4,1.1,0.4,1.7c0,1.9-1,3.3-3.5,3.9L71,218
		c1.4-0.4,2.4-1.6,2.7-3c-0.3,0.4-0.8,0.6-1.3,0.5c-1,0-1.8-0.7-1.8-1.7v-0.1c0-1.1,0.8-1.9,1.9-1.9l0,0c0.3,0,0.7,0.1,1,0.3
		c0-0.6,0-1.1,0-1.5c-1.2,0.1-2.4,0.3-3.5,0.6c-0.3,0.1-0.3,0.2-0.6,0.2c-0.6-0.1-1-0.5-1.1-1.1c0-0.2,0.1-0.4,0.2-0.5h0.1
		c0,0.2,0.2,0.4,0.4,0.5c0.2,0.1,0.5,0.2,0.8,0.2c0.5,0,3.2-0.3,3.8-0.4c0-1.3-0.1-1.6-0.7-1.6C72.5,208.4,72.4,208.4,72.2,208.4
		L72.2,208.4z M73.5,213.4c0-0.6-0.5-1.1-1.1-1.1l0,0c-0.6,0-1.2,0.5-1.2,1.4c0,0.6,0.4,1.2,1,1.2l0,0
		C73.1,214.9,73.5,214.4,73.5,213.4L73.5,213.4z"/>
	<path d="M82.8,213.2c0.9-0.5,1.8-0.8,2.8-0.8c2.2,0,3,1.2,3,2.6c0,1.6-1.4,2.9-3.8,2.9c-1.4,0-2.3-0.7-2.3-1.5
		c0-0.7,0.7-1.4,1.7-1.4s2.1,0.8,2.1,1.7c0,0.1,0,0.2-0.1,0.2c0.8-0.3,1.4-1.1,1.4-2c0.1-1-0.6-2-1.6-2.1c-0.2,0-0.3,0-0.5,0
		c-1.6,0.1-3.1,0.9-4.1,2.3c-0.2,0.3-0.3,0.6-0.6,0.6c-0.3,0-0.5-0.4-0.5-0.6c0-0.4,0.4-0.7,0.6-0.9c1-0.9,3.3-3.3,4.6-4.6
		c0.1,0,0.1-0.1,0.1-0.2c0,0,0-0.1-0.1-0.1c-0.9,0.1-1.8,0.4-2.6,0.7c-0.3,0.1-0.3,0.3-0.6,0.3c-0.6-0.1-1-0.5-1-1.1
		c0-0.2,0.1-0.5,0.3-0.6h0.1c0,0.3,0.2,0.6,0.5,0.7h0.1c1-0.1,2.1-0.2,3-0.5c0.2-0.1,0.4-0.3,0.5-0.3c0.5,0,1.1,0.6,1.1,0.9
		c0,0.3-0.4,0.3-0.8,0.6C85.1,210.9,83.9,211.9,82.8,213.2L82.8,213.2z M84.8,217.1c0.3,0,0.5,0,0.8-0.1c-0.1-0.1-0.1-0.1-0.1-0.2
		c-0.1-0.8-0.7-1.4-1.5-1.4c-0.6,0-1,0.3-1,0.8C83,217.1,84.1,217.1,84.8,217.1L84.8,217.1z"/>
	<path d="M93,214.4l1.7-0.4v0.1c-0.7,0.4-1.8,1-3.2,1.7c0,0.1-0.1,0.2-0.3,0.3l-0.6-1.2c0.3-0.1,0.8-0.2,1.4-0.3V211h-1.2l-0.1-0.3
		h1.4v-3l1.4,0.1c0,0.2-0.2,0.3-0.5,0.3v2.5h0.2l0.5-0.8l0.9,0.8c-0.1,0.2-0.2,0.2-0.5,0.2H93V214.4z M101.6,212.8
		c-0.1,0.2-0.2,0.2-0.5,0.2h-4.3c-0.2,0.4-0.4,0.8-0.6,1.2h3.7l0.4-0.5l1,0.8c-0.1,0.1-0.3,0.2-0.4,0.2c-0.1,2-0.4,3.1-0.9,3.5
		c-0.3,0.2-0.7,0.3-1.2,0.3c0-0.5-0.2-0.7-0.9-0.8v-0.2c0.3,0,0.9,0,1.1,0s0.3,0,0.4-0.1c0.3-0.2,0.4-1.2,0.6-2.9h-0.7
		c-0.5,1.7-1.6,3.1-3.1,4l-0.1-0.2c1.1-1,1.9-2.3,2.3-3.8h-0.7c-0.7,1.5-1.8,2.7-3.2,3.5l-0.1-0.2c1.1-0.9,1.9-2,2.5-3.3h-0.7
		c-0.7,0.9-1.5,1.6-2.4,2.2l-0.1-0.2c1.1-0.9,1.9-2.1,2.4-3.4h-1.6l-0.1-0.3h5.8l0.6-0.7L101.6,212.8z M96.2,211.6v0.4
		c0,0-0.1,0.3-0.9,0.3v-4.3l1,0.4h3l0.4-0.5l1.1,0.8c-0.1,0.1-0.3,0.2-0.5,0.2v3c0,0-0.2,0.3-0.9,0.3v-0.6L96.2,211.6z M99.2,208.6
		h-3.2v1.2h3.2V208.6z M96.2,211.4h3.2v-1.3h-3.2V211.4z"/>
	<path d="M102.2,212.8c2-1.1,4.1-3.3,4.7-5l1.6,0.3c0,0.1-0.2,0.2-0.5,0.2c1.4,1.6,3.3,2.8,5.3,3.5v0.2c-0.4,0.1-0.7,0.4-0.8,0.8
		c-1.9-1-3.5-2.5-4.6-4.4c-1.4,2-3.3,3.6-5.5,4.5L102.2,212.8z M110,213.9l0.4-0.5l1.1,0.8c-0.1,0.1-0.3,0.2-0.5,0.2v3.6
		c-0.3,0.2-0.6,0.3-0.9,0.3v-0.7h-5v0.5c0,0-0.1,0.3-0.9,0.3v-4.9l1,0.4L110,213.9z M109.2,211.2l1.1,0.8c-0.1,0.2-0.2,0.2-0.6,0.2
		h-5l-0.1-0.3h3.9L109.2,211.2z M105.1,217.4h5v-3.1h-5V217.4z"/>
	<path d="M118.8,217.2c3.1-0.5,4.2-2.3,4.2-4.1c0-2.1-0.9-3.8-3.4-3.8c-0.3,0-0.7,0-1,0.1c0.4,0.3,0.6,0.8,0.6,1.2
		c0,2.2-1.5,5.6-3.2,5.6c-0.9,0-1.5-1-1.5-2.5c0.1-2.7,2.3-4.9,5.1-4.9h0.1c2.8,0,4.4,1.7,4.4,4.2c0,2.2-1.4,3.9-5.2,4.3
		L118.8,217.2z M118.2,209.6c-1.9,0.6-3.1,2.3-3,4.3c0,0.9,0.3,1.5,0.7,1.5c1.2,0,2.5-3.1,2.5-5
		C118.5,210.1,118.4,209.8,118.2,209.6L118.2,209.6z"/>
	<path d="M125.2,213.8c1.2-1.9,2-3.9,2.5-6l1.4,0.4c0,0.1-0.1,0.2-0.4,0.2c-0.3,0.8-0.6,1.5-1,2.3l0.4,0.2c0,0.1-0.1,0.2-0.3,0.2
		v7.1c-0.2,0.2-0.5,0.3-0.8,0.3h-0.2v-6.3c-0.4,0.6-0.9,1.2-1.4,1.7L125.2,213.8z M134.8,216.8l1.2,0.9c-0.1,0.2-0.2,0.2-0.6,0.2h-7
		c0-0.1,0-0.2-0.1-0.3h3.2V214h-2.4c0-0.1,0-0.2-0.1-0.3h2.5v-3.1h-2.8l-0.1-0.3h5.2l0.6-0.8l1.1,0.8c-0.1,0.2-0.2,0.2-0.6,0.2h-2.6
		v3.1h1.2l0.6-0.7l1.1,0.8c-0.1,0.2-0.2,0.2-0.5,0.2h-2.3v3.5h1.7L134.8,216.8z M130.4,207.8c2,0.3,2.6,1.2,2.6,1.7
		c0,0.3-0.2,0.6-0.5,0.6l0,0c-0.1,0-0.3,0-0.4-0.1C131.7,209.1,131.1,208.4,130.4,207.8L130.4,207.8z"/>
	<path d="M140.7,213.9h-2.2c0.1,1.7-0.5,3.3-1.6,4.6l-0.1-0.1c0.7-1.6,1-3.3,0.9-5.1v-3l1.1,0.4h1.9l0.4-0.5l1.1,0.8
		c-0.1,0.1-0.3,0.2-0.5,0.2v3.2c-0.3,0.2-0.6,0.3-0.9,0.3L140.7,213.9z M142.4,208.6c-0.1,0.2-0.2,0.2-0.6,0.2h-4.9l-0.1-0.3h3.9
		l0.6-0.8L142.4,208.6z M140.7,210.9h-2.2v2.6h2.2V210.9z M146.7,211.1l1.1,0.8c-0.1,0.2-0.2,0.2-0.5,0.2h-1v6.1
		c-0.2,0.2-0.5,0.3-0.8,0.3h-0.2v-6.3h-1.7v0.4c0,2.1-0.3,4.4-2.8,5.9l-0.1-0.1c1.8-1.6,2-3.6,2-5.8v-3.9l1.1,0.4
		c0.9-0.4,1.8-0.8,2.6-1.3l1.2,0.9c-0.1,0.1-0.2,0.1-0.3,0.1s-0.2,0-0.4-0.1c-1.1,0.3-2.2,0.5-3.2,0.6v2.5h2.6L146.7,211.1z"/>
	<path d="M159.8,213.1c0-1.6,0.7-2.3,1.9-2.3c1.4,0,1.9,1,1.9,2.3c0,1.4-0.5,2.3-1.9,2.3S159.8,214.4,159.8,213.1z M160.4,213.1
		c0,0.6,0.1,1.2,0.4,1.7c0.4,0.5,1.1,0.6,1.6,0.2c0.1-0.1,0.1-0.1,0.2-0.2c0.3-0.5,0.4-1.1,0.4-1.7c0.1-0.6-0.1-1.2-0.4-1.7
		c-0.2-0.3-0.5-0.4-0.9-0.4C160.4,211.1,160.4,212.2,160.4,213.1z"/>
	<path d="M166.1,214.6l1-3.1c0-0.1,0.1-0.2,0.1-0.3c0-0.2-0.1-0.2-0.3-0.2v-0.2h1v0.2c-0.3,0-0.3,0.1-0.4,0.3l-1.3,4h-0.4l-1.4-3.9
		c-0.1-0.4-0.2-0.4-0.5-0.4v-0.2h1.4v0.2c-0.3,0-0.4,0-0.4,0.2c0,0.1,0,0.2,0.1,0.3L166.1,214.6L166.1,214.6z"/>
	<path d="M170.9,215.4h-2.9v-0.2c0.4,0,0.5,0,0.5-0.5v-3.1c0-0.4,0-0.5-0.5-0.5v-0.2h2.7l0.2,1h-0.3c-0.2-0.7-0.2-0.7-0.6-0.7h-0.8
		c-0.2,0-0.2,0-0.2,0.3v1.5h0.8c0.3,0,0.3-0.1,0.3-0.6h0.3v1.5h-0.3c0-0.6,0-0.6-0.3-0.6h-0.8v1.7c0,0.2,0,0.3,0.2,0.3h1
		c0.4,0,0.4,0,0.6-0.7h0.3L170.9,215.4z"/>
	<path d="M173.2,210.9c0.4,0,0.9,0.1,1.2,0.3s0.4,0.5,0.4,0.9c0,0.6-0.5,1.1-1.1,1.2l0.9,1.5c0.2,0.4,0.3,0.4,0.6,0.4v0.2h-0.9
		l-1.2-2.1h-0.5v1.4c0,0.4,0,0.5,0.5,0.5v0.2h-1.6v-0.2c0.4,0,0.5,0,0.5-0.5v-3.1c0-0.4,0-0.5-0.5-0.5v-0.2L173.2,210.9z
		 M172.8,211.1c-0.1,0-0.2,0.1-0.2,0.4v1.5h0.4c1.1,0,1.1-0.7,1.1-1s-0.1-0.5-0.3-0.7s-0.5-0.2-0.8-0.2H172.8z"/>
	<path d="M177.2,214.2c0.2,0.8,0.5,0.9,1,0.9c0.4,0,0.8-0.3,0.9-0.7v-0.1c0-0.5-0.3-0.7-0.9-1.1c-0.7-0.4-1.1-0.7-1.1-1.4
		c0-0.4,0.3-1.1,1.4-1.1c0.3,0,0.6,0,0.9,0.2c0,0.2,0.1,0.6,0.1,0.9h-0.3c-0.1-0.6-0.3-0.8-0.8-0.8c-0.4,0-0.7,0.2-0.8,0.6
		c0,0,0,0,0,0.1c0,0.4,0.2,0.6,0.9,1c0.4,0.2,0.7,0.4,1,0.7c0.2,0.2,0.3,0.5,0.2,0.8c0,0.7-0.6,1.2-1.5,1.2c-0.4,0-0.7-0.1-1.1-0.2
		c0-0.3-0.1-0.6-0.2-1L177.2,214.2z"/>
	<path d="M183.2,215.4h-2.9v-0.2c0.4,0,0.5,0,0.5-0.5v-3.1c0-0.4,0-0.5-0.5-0.5v-0.2h2.7l0.2,1h-0.3c-0.2-0.7-0.2-0.7-0.6-0.7h-0.8
		c-0.2,0-0.2,0-0.2,0.3v1.5h0.8c0.3,0,0.3-0.1,0.3-0.6h0.3v1.5h-0.3c0-0.6,0-0.6-0.3-0.6h-0.8v1.7c0,0.2,0,0.3,0.2,0.3h1
		c0.4,0,0.4,0,0.6-0.7h0.3L183.2,215.4z"/>
	<path d="M186.1,213.9h-1.5l-0.2,0.7c0,0.1-0.1,0.2-0.1,0.3s0.1,0.2,0.3,0.2v0.2h-1v-0.2c0.2,0,0.3-0.1,0.4-0.3l1.2-4h0.3l1.4,3.9
		c0.1,0.4,0.2,0.4,0.4,0.4v0.2h-1.2v-0.2c0.2,0,0.3,0,0.3-0.2c0-0.1,0-0.2-0.1-0.2L186.1,213.9z M185.9,213.6l-0.7-2.1l0,0l-0.6,2.1
		H185.9z"/>
	<path d="M191.7,213.9h-1.5l-0.2,0.7c0,0.1-0.1,0.2-0.1,0.3s0.1,0.2,0.3,0.2v0.2h-1v-0.2c0.2,0,0.3-0.1,0.4-0.3l1.2-4h0.3l1.4,3.9
		c0.1,0.4,0.2,0.4,0.4,0.4v0.2h-1.3v-0.2c0.2,0,0.3,0,0.3-0.2c0-0.1,0-0.2-0.1-0.2L191.7,213.9z M191.6,213.6l-0.7-2.1l0,0l-0.6,2.1
		H191.6z"/>
	<path d="M193.2,215.4v-0.2c0.4,0,0.5,0,0.5-0.5v-3.1c0-0.4,0-0.5-0.5-0.5v-0.2h1.7c0.5-0.1,1.1,0.1,1.5,0.5
		c0.4,0.5,0.6,1.1,0.6,1.7c0,0.6-0.1,1.2-0.5,1.7c-0.4,0.4-1,0.7-1.6,0.6H193.2z M194.4,211.1c-0.2,0-0.2,0-0.2,0.3v3.4
		c0,0.3,0,0.3,0.2,0.3h0.3c1,0,1.5-0.6,1.5-2c0-1.5-0.5-2-1.4-2H194.4z"/>
	<path d="M197.4,215.4v-0.2c0.4,0,0.5,0,0.5-0.5v-3.1c0-0.4,0-0.5-0.5-0.5v-0.2h1.7c0.5-0.1,1.1,0.1,1.5,0.5
		c0.4,0.5,0.6,1.1,0.6,1.7c0,0.6-0.1,1.2-0.5,1.7c-0.4,0.4-1,0.7-1.6,0.6H197.4z M198.7,211.1c-0.2,0-0.2,0-0.2,0.3v3.4
		c0,0.3,0,0.3,0.2,0.3h0.3c1,0,1.5-0.6,1.5-2c0-1.5-0.5-2-1.4-2H198.7z"/>
	<path d="M203.2,210.9c0.4,0,0.9,0.1,1.2,0.3s0.4,0.5,0.4,0.9c0,0.6-0.5,1.1-1.1,1.2l0.9,1.5c0.2,0.4,0.3,0.4,0.6,0.4v0.2h-0.9
		l-1.2-2.1h-0.5v1.4c0,0.4,0,0.5,0.5,0.5v0.2h-1.6v-0.2c0.4,0,0.5,0,0.5-0.5v-3.1c0-0.4,0-0.5-0.5-0.5v-0.2L203.2,210.9z
		 M202.8,211.1c-0.1,0-0.2,0.1-0.2,0.4v1.5h0.4c1.1,0,1.1-0.7,1.1-1s-0.1-0.5-0.3-0.7s-0.5-0.2-0.8-0.2H202.8z"/>
	<path d="M208.4,215.4h-2.9v-0.2c0.4,0,0.5,0,0.5-0.5v-3.1c0-0.4,0-0.5-0.5-0.5v-0.2h2.7l0.2,1h-0.3c-0.2-0.7-0.2-0.7-0.6-0.7h-0.8
		c-0.2,0-0.2,0-0.2,0.3v1.5h0.8c0.3,0,0.3-0.1,0.3-0.6h0.3v1.5h-0.3c0-0.6,0-0.6-0.3-0.6h-0.8v1.7c0,0.2,0,0.3,0.2,0.3h1
		c0.4,0,0.4,0,0.6-0.7h0.3L208.4,215.4z"/>
	<path d="M209.2,214.2c0.2,0.8,0.5,0.9,1,0.9c0.4,0,0.8-0.3,0.9-0.8v-0.1c0-0.5-0.3-0.7-0.9-1.1c-0.7-0.4-1.1-0.7-1.1-1.4
		c0-0.4,0.3-1.1,1.4-1.1c0.3,0,0.6,0,0.9,0.2c0,0.2,0.1,0.6,0.1,0.9h-0.3c-0.1-0.6-0.3-0.8-0.8-0.8c-0.4,0-0.7,0.2-0.8,0.6
		c0,0,0,0,0,0.1c0,0.4,0.2,0.6,0.9,1c0.4,0.2,0.7,0.4,1,0.7c0.2,0.2,0.3,0.5,0.2,0.8c0,0.7-0.6,1.2-1.5,1.2c-0.4,0-0.7-0.1-1.1-0.2
		c0-0.3-0.1-0.6-0.2-1L209.2,214.2z"/>
	<path d="M212.2,214.2c0.2,0.8,0.5,0.9,1,0.9c0.4,0,0.8-0.3,0.9-0.8v-0.1c0-0.5-0.3-0.7-0.9-1.1c-0.7-0.4-1.1-0.7-1.1-1.4
		c0-0.4,0.3-1.1,1.4-1.1c0.3,0,0.6,0,0.9,0.2c0,0.2,0.1,0.6,0.1,0.9h-0.3c-0.1-0.6-0.3-0.8-0.8-0.8c-0.4,0-0.7,0.2-0.8,0.6
		c0,0,0,0,0,0.1c0,0.4,0.2,0.6,0.9,1c0.4,0.2,0.7,0.4,1,0.7c0.2,0.2,0.3,0.5,0.2,0.8c0,0.7-0.6,1.2-1.5,1.2c-0.4,0-0.7-0.1-1.1-0.2
		c0-0.3-0.1-0.6-0.2-1L212.2,214.2z"/>
	<path d="M22.2,303l1.1,0.8c-0.1,0.1-0.2,0.2-0.6,0.2h-1.3v2c0,0-0.3,0.3-0.9,0.3v-0.8h-2.3v0.9c0,0.7-0.2,1.2-1.5,1.3
		c0-0.7-0.5-0.8-1.5-0.9v-0.2H17c0.2,0,0.3-0.1,0.3-0.3v-0.9h-3.5l-0.1-0.3h3.6v-1.2h-4.9l-0.1-0.3h4.9v-1.1h-3.4l-0.1-0.3h3.5v-1
		h-2.1v0.2c0,0-0.2,0.3-0.9,0.3v-2.9l1,0.4h2v-1h-4.7l-0.1-0.3h4.8v-1.3l1.4,0.1c0,0.2-0.1,0.3-0.5,0.3v0.9h3l0.6-0.8l1.4,1.2
		c-0.1,0.2-0.2,0.2-0.6,0.2h-4.3v1h2l0.4-0.5l1.1,0.8c-0.1,0.1-0.3,0.2-0.5,0.2v1.5c0,0-0.3,0.3-0.9,0.3v-0.4h-2.1v1h2.2l0.4-0.5
		l1.1,0.8c-0.1,0.1-0.3,0.2-0.5,0.2v0.9h0.2L22.2,303z M15.2,301h2.1v-1.4h-2.1V301z M20.3,299.6h-2.1v1.4h2.1V299.6z M18.2,302.6
		v1.1h2.3v-1.1H18.2z M20.5,305.2V304h-2.3v1.2H20.5z"/>
	<path d="M34.8,299.5c-0.1,0.2-0.2,0.2-0.6,0.2h-0.5c-0.2,1.7-0.8,3.4-1.8,4.8c0.8,1,1.8,1.7,2.9,2.2v0.1c-0.4,0-0.8,0.3-0.9,0.7
		c-1-0.6-1.9-1.4-2.5-2.4c-1,1.1-2.2,1.9-3.6,2.4l-0.1-0.2c1.3-0.6,2.5-1.6,3.3-2.9c-0.6-1.2-1-2.5-1.1-3.8
		c-0.3,0.6-0.7,1.1-1.2,1.6l0.3,0.2c-0.1,0.1-0.3,0.2-0.5,0.2v3.5c0,0-0.3,0.3-0.9,0.3v-0.7h-2.4v0.9c0,0.1-0.3,0.3-0.7,0.3h-0.1
		v-5.1l1,0.4H26v-2.6h-2.1l-0.1-0.3H26v-2.5l1.4,0.1c0,0.2-0.1,0.3-0.5,0.3v2.1h0.8l0.6-0.7l1.1,0.8c-0.1,0.2-0.2,0.2-0.5,0.2H27
		v2.6h0.7l0.4-0.5l0.6,0.4c0.8-1.7,1.4-3.5,1.6-5.3l1.4,0.3c0,0.1-0.1,0.2-0.4,0.2c-0.2,0.7-0.4,1.4-0.7,2.1H33l0.6-0.8L34.8,299.5z
		 M25.3,305.6h2.4v-3h-2.4V305.6z M30.4,299.9c-0.1,0.2-0.2,0.4-0.3,0.6c0.2,1.2,0.7,2.4,1.3,3.5c0.6-1.3,1-2.7,1.2-4.1H30.4z"/>
	<path d="M40.3,306.5c3.1-0.5,4.2-2.3,4.2-4.1c0-2.1-0.9-3.8-3.4-3.8c-0.3,0-0.7,0-1,0.1c0.4,0.3,0.6,0.8,0.6,1.2
		c0,2.2-1.5,5.6-3.2,5.6c-0.9,0-1.5-1-1.5-2.5c0.1-2.7,2.3-4.9,5.1-4.9h0.1c2.8,0,4.4,1.7,4.4,4.2c0,2.2-1.4,3.9-5.2,4.3L40.3,306.5
		z M39.8,298.8c-1.9,0.6-3.1,2.3-3,4.3c0,0.9,0.3,1.5,0.7,1.5c1.2,0,2.5-3.1,2.5-5C40,299.2,40,299,39.8,298.8L39.8,298.8z"/>
	<path d="M49.1,303.6l1.7-0.4v0.1c-0.7,0.4-1.8,1-3.2,1.7c0,0.1-0.1,0.2-0.3,0.3l-0.6-1.2c0.3-0.1,0.8-0.2,1.4-0.3v-3.6H47L47,300
		h1.3v-3l1.4,0.1c0,0.2-0.2,0.3-0.5,0.3v2.5h0.2l0.5-0.8l0.9,0.8c-0.1,0.2-0.2,0.2-0.5,0.2h-1.1L49.1,303.6z M57.8,302
		c-0.1,0.2-0.2,0.2-0.5,0.2H53c-0.2,0.4-0.4,0.8-0.6,1.2H56l0.4-0.5l1,0.8c-0.1,0.1-0.3,0.2-0.4,0.2c-0.1,2-0.4,3.1-0.9,3.5
		c-0.3,0.2-0.7,0.3-1.2,0.3c0-0.5-0.2-0.7-0.9-0.8v-0.2c0.3,0,0.9,0,1.1,0c0.2,0,0.3,0,0.4-0.1c0.3-0.2,0.4-1.2,0.6-2.9h-0.7
		c-0.5,1.7-1.6,3.1-3.1,4l-0.1-0.2c1.1-1,1.9-2.3,2.3-3.8h-0.7c-0.7,1.5-1.8,2.7-3.2,3.5l-0.1-0.2c1.1-0.9,1.9-2,2.5-3.3h-0.7
		c-0.7,0.9-1.5,1.6-2.4,2.2l-0.1-0.2c1.1-0.9,1.9-2.1,2.4-3.4h-1.6l-0.1-0.3H56l0.6-0.7L57.8,302z M52.3,300.8v0.4
		c0,0-0.1,0.3-0.9,0.3v-4.3l1,0.4h3l0.4-0.5l1.1,0.8c-0.1,0.1-0.3,0.2-0.5,0.2v3c0,0-0.2,0.3-0.9,0.3v-0.6L52.3,300.8z M55.5,297.8
		h-3.2v1.2h3.2V297.8z M52.3,300.5h3.2v-1.3h-3.2V300.5z"/>
	<path d="M58.3,302c2-1.1,4.1-3.3,4.7-5l1.6,0.3c0,0.1-0.2,0.2-0.5,0.2c1.4,1.6,3.3,2.8,5.3,3.5v0.2c-0.4,0.1-0.7,0.4-0.8,0.8
		c-1.9-1-3.5-2.5-4.6-4.4c-1.4,2-3.3,3.6-5.5,4.5L58.3,302z M66.2,303.1l0.4-0.5l1.1,0.8c-0.1,0.1-0.3,0.2-0.5,0.2v3.6
		c-0.3,0.2-0.6,0.3-0.9,0.3v-0.7h-5v0.5c0,0-0.1,0.3-0.9,0.3v-4.9l1,0.4L66.2,303.1z M65.5,300.5l1.1,0.8c-0.1,0.2-0.2,0.2-0.6,0.2
		h-5l-0.1-0.3h3.9L65.5,300.5z M61.3,306.5h5v-3.2h-5C61.3,303.4,61.3,306.5,61.3,306.5z"/>
	<path d="M75,306.5c3.1-0.5,4.2-2.3,4.2-4.1c0-2.1-0.9-3.8-3.4-3.8c-0.3,0-0.7,0-1,0.1c0.4,0.3,0.6,0.8,0.6,1.2
		c0,2.2-1.5,5.6-3.2,5.6c-0.9,0-1.5-1-1.5-2.5c0.1-2.7,2.3-4.9,5.1-4.9h0.1c2.8,0,4.4,1.7,4.4,4.2c0,2.2-1.4,3.9-5.2,4.3L75,306.5z
		 M74.4,298.8c-1.9,0.6-3.1,2.3-3,4.3c0,0.9,0.3,1.5,0.7,1.5c1.2,0,2.5-3.1,2.5-5C74.7,299.2,74.6,299,74.4,298.8L74.4,298.8z"/>
	<path d="M84.5,302.1c-0.2,0.1-0.4,0.2-0.6,0.2v3.1c0.8,0.9,1.7,1,3.7,1c1.4,0,3.2,0,4.6,0v0.2c-0.4,0.1-0.7,0.4-0.7,0.8h-4
		c-2.2,0-3.1-0.3-3.9-1.7c-0.5,0.6-1,1.1-1.5,1.7c0,0.1,0,0.2-0.1,0.3l-0.6-1.1c0.4-0.2,1-0.5,1.6-0.8v-3.6h-1.5l-0.1-0.3h1.4
		l0.5-0.7L84.5,302.1z M81.9,297.2c1.6,0.4,2.1,1.2,2.1,1.7c0,0.3-0.2,0.6-0.5,0.6l0,0c-0.2,0-0.3-0.1-0.4-0.2
		C82.9,298.6,82.4,298,81.9,297.2L81.9,297.2z M84.5,298.5l-0.1-0.3h3.2v-1.4L89,297c0,0.2-0.1,0.2-0.5,0.3v1h1.7l0.6-0.7l1.1,0.8
		c-0.1,0.2-0.2,0.2-0.6,0.2h-2.9v1.1h1.6l0.4-0.5l1.1,0.8c-0.1,0.1-0.3,0.2-0.5,0.2v3c0,0-0.3,0.3-0.9,0.3v-0.5h-1.8v1.2h1.9
		l0.6-0.7l1.1,0.8c-0.1,0.2-0.2,0.2-0.5,0.2h-3.1v1.3c0,0-0.1,0.3-0.9,0.3v-1.6h-3.3l-0.1-0.3h3.4v-1.2h-1.7v0.2
		c0,0-0.1,0.3-0.9,0.3v-4.2l1,0.4h1.6v-1.1H84.5z M87.7,300H86v1.3h1.7V300z M86,302.9h1.7v-1.3H86V302.9z M90.2,300h-1.8v1.3h1.8
		V300z M88.6,302.9h1.8v-1.3h-1.8V302.9z"/>
	<path d="M93.1,298.9c0.3,0.1,0.7,0.2,1,0.3c0.2-0.6,0.5-1.5,0.8-2.3l1.3,0.5c0,0.1-0.2,0.2-0.4,0.2c-0.4,0.6-0.9,1.2-1.4,1.8
		c0.3,0.2,0.4,0.5,0.4,0.8s-0.2,0.5-0.4,0.5l0,0c-0.1,0-0.3-0.1-0.3-0.1C93.8,299.9,93.5,299.4,93.1,298.9L93.1,298.9z M94.9,303.9
		c0,0.1-0.1,0.2-0.4,0.2c-0.2,1-0.7,1.9-1.3,2.7l-0.2-0.1c0.3-1,0.6-2,0.7-3L94.9,303.9z M96.5,302c-0.1-0.3-0.3-0.6-0.5-0.9
		l0.1-0.1c1.2,0.5,1.6,1.1,1.6,1.6c0,0.3-0.2,0.6-0.5,0.6l0,0c-0.1,0-0.3-0.1-0.4-0.2c0-0.3-0.1-0.5-0.2-0.8l-0.8,0.2v5
		c0,0.1-0.3,0.3-0.7,0.3H95v-5.1l-1.2,0.3c-0.1,0.1-0.2,0.2-0.3,0.2l-0.3-1c0.3,0,0.7,0,1.2,0c0.7-1.2,1.4-2.5,2-3.7l1.3,0.6
		c-0.1,0.1-0.2,0.1-0.3,0.1c-0.1,0-0.1,0-0.2,0c-0.7,1.1-1.6,2.1-2.4,3L96.5,302z M96.2,303.5c1,0.6,1.3,1.2,1.3,1.7
		c0,0.4-0.2,0.7-0.5,0.7c-0.2,0-0.3-0.1-0.4-0.2c0-0.7-0.2-1.4-0.5-2.1L96.2,303.5z M102.4,298l0.9,0.8c-0.1,0.1-0.2,0.1-0.5,0.2
		c-0.4,0.9-1,1.8-1.7,2.5c0.9,0.6,1.8,1,2.9,1.2v0.1c-0.4,0.1-0.7,0.4-0.7,0.7c-1-0.3-1.9-0.9-2.6-1.6c-0.6,0.5-1.3,1-2,1.4l0.8,0.3
		h2.4l0.4-0.5l1,0.8c-0.1,0.1-0.3,0.2-0.4,0.2v3.2c-0.2,0.2-0.5,0.3-0.8,0.3H102v-0.7h-2.7v0.5c-0.2,0.2-0.5,0.3-0.7,0.3h-0.1v-4.2
		c-0.3,0.2-0.6,0.3-1,0.4l-0.1-0.2c1.1-0.5,2-1.3,2.9-2.2c-0.5-0.6-0.9-1.3-1.2-2c-0.4,0.7-1,1.3-1.6,1.7l-0.2-0.1
		c0.9-1.2,1.6-2.6,1.9-4.1l1.3,0.4c0,0.1-0.2,0.2-0.4,0.2c-0.1,0.3-0.3,0.6-0.4,0.9h2.3L102.4,298z M99.4,298.6
		c-0.1,0.2-0.2,0.3-0.3,0.5c0.3,0.7,0.8,1.3,1.4,1.9c0.5-0.7,1-1.5,1.3-2.3h-2.4V298.6z M101.9,303.9h-2.7v2.7h2.7V303.9z"/>
	<path d="M114.9,304.6v1.8c0.4,0.1,0.4,0.2,0.4,0.3c0,0.4-0.3,0.6-1.4,0.6h-1.8c-1.1,0-1.3-0.2-1.3-1.2v-4h-1.7
		c-0.1,0.1-0.3,0.1-0.4,0.1c-0.2,2.3-1,4.4-4,5.3l-0.1-0.2c2.3-0.9,3-3,3.1-5.2h-3l-0.1-0.3h4.8v-2.5h-2.3c-0.4,0.8-0.9,1.5-1.6,2.1
		l-0.2-0.1c0.7-1.3,1.2-2.7,1.5-4.2l1.4,0.4c0,0.1-0.1,0.2-0.4,0.2c-0.2,0.5-0.3,0.9-0.6,1.4h2.2v-2.3l1.5,0.1
		c0,0.2-0.1,0.3-0.5,0.3v1.9h2.1l0.6-0.8l1.2,0.8c-0.1,0.2-0.2,0.2-0.6,0.2h-3.3v2.5h3l0.6-0.8l1.2,0.9c-0.1,0.2-0.2,0.2-0.6,0.2
		h-2.5c-0.1,0.1-0.2,0.1-0.3,0.1v3.9c0,0.3,0,0.4,0.4,0.4h1.8c0.2,0,0.3,0,0.4-0.2C114.6,305.8,114.7,305.2,114.9,304.6L114.9,304.6
		z"/>
	<path d="M127.4,304.4c0.5,0,0.5,0,0.5-0.5v-3.1c0-0.4,0-0.5-0.5-0.5V300h1.6v0.2c-0.5,0-0.5,0-0.5,0.5v3.1c0,0.4,0,0.5,0.5,0.5v0.2
		h-1.6V304.4z"/>
	<path d="M130.4,300l2.1,3.7l0,0v-3c0-0.4,0-0.5-0.5-0.5V300h1.2v0.2c-0.4,0-0.5,0-0.5,0.5v3.9h-0.4l-2.2-4l0,0v3.2
		c0,0.4,0,0.5,0.5,0.5v0.2h-1.2v-0.2c0.4,0,0.5,0,0.5-0.5v-3.1c0-0.4,0-0.5-0.5-0.5V300H130.4z"/>
	<path d="M138.2,301.2c-0.1-0.7-0.2-1-0.9-1c-0.9,0-1.3,0.8-1.3,2c0,1.8,0.8,2.1,1.2,2.1c0.6,0,0.9-0.4,1.1-1l0.3,0.1
		c-0.1,0.3-0.2,0.6-0.5,0.8c-0.3,0.3-0.6,0.4-1,0.4c-0.5,0-0.9-0.2-1.3-0.5c-0.4-0.5-0.6-1.2-0.5-1.8c0-1.5,0.7-2.3,1.9-2.3
		c0.4,0,0.7,0.1,1,0.2c0,0.3,0.1,0.7,0.2,1L138.2,301.2z"/>
	<path d="M141.4,303.1h-1.5l-0.2,0.7c0,0.1-0.1,0.2-0.1,0.3c0,0.1,0.1,0.2,0.3,0.2v0.2h-1v-0.2c0.2,0,0.3-0.1,0.4-0.3l1.2-4h0.3
		l1.4,3.9c0.1,0.4,0.2,0.4,0.4,0.4v0.2h-1.3v-0.2c0.2,0,0.3,0,0.3-0.2c0-0.1,0-0.2-0.1-0.2L141.4,303.1z M141.4,302.9l-0.7-2.1l0,0
		l-0.6,2.1H141.4z"/>
	<path d="M143.2,303.5c0.2,0.8,0.5,0.9,1,0.9c0.4,0,0.8-0.3,0.9-0.7v-0.1c0-0.5-0.3-0.7-0.9-1.1c-0.7-0.4-1.1-0.7-1.1-1.4
		c0-0.4,0.3-1.1,1.4-1.1c0.3,0,0.6,0,0.9,0.2c0,0.2,0.1,0.6,0.1,0.9h-0.3c-0.1-0.6-0.3-0.8-0.8-0.8c-0.4,0-0.7,0.2-0.8,0.6
		c0,0,0,0,0,0.1c0,0.4,0.2,0.6,0.9,1c0.4,0.2,0.7,0.4,1,0.7c0.2,0.2,0.3,0.5,0.2,0.8c0,0.7-0.6,1.2-1.5,1.2c-0.4,0-0.7-0.1-1.1-0.2
		c0-0.3-0.1-0.6-0.2-1H143.2z"/>
	<path d="M149.1,304.5h-2.9v-0.2c0.4,0,0.5,0,0.5-0.5v-3.1c0-0.4,0-0.5-0.5-0.5V300h2.7l0.2,1h-0.3c-0.2-0.7-0.2-0.7-0.6-0.7h-0.8
		c-0.2,0-0.2,0-0.2,0.3v1.5h0.8c0.3,0,0.3-0.1,0.3-0.6h0.3v1.5h-0.3c0-0.6,0-0.6-0.3-0.6h-0.8v1.7c0,0.2,0,0.3,0.2,0.3h1
		c0.4,0,0.4,0,0.6-0.7h0.3L149.1,304.5z"/>
	<path d="M151.4,302.4c0-1.6,0.7-2.3,1.9-2.3c1.4,0,1.9,1,1.9,2.3c0,1.4-0.5,2.3-1.9,2.3S151.4,303.8,151.4,302.4z M152.1,302.4
		c0,0.6,0.1,1.2,0.4,1.7c0.4,0.5,1.1,0.6,1.6,0.2c0.1-0.1,0.1-0.1,0.2-0.2c0.3-0.5,0.4-1.1,0.4-1.7c0.1-0.6-0.1-1.2-0.4-1.7
		c-0.2-0.3-0.5-0.4-0.9-0.4C152.2,300.2,152.1,301.5,152.1,302.4z"/>
	<path d="M158.1,301.5v1.5h-0.3c0-0.6-0.1-0.6-0.3-0.6h-0.7v1.5c0,0.4,0,0.5,0.6,0.5v0.2h-1.7v-0.2c0.4,0,0.5,0,0.5-0.5v-3.1
		c0-0.4,0-0.5-0.5-0.5v-0.2h2.8l0.2,1h-0.3c-0.2-0.7-0.2-0.7-0.6-0.7h-0.8c-0.2,0-0.2,0-0.2,0.3v1.5h0.7c0.3,0,0.3-0.1,0.3-0.6
		L158.1,301.5z"/>
	<path d="M162.9,303.1h-1.5l-0.2,0.7c0,0.1-0.1,0.2-0.1,0.3c0,0.1,0.1,0.2,0.3,0.2v0.2h-1v-0.2c0.2,0,0.3-0.1,0.4-0.3l1.2-4h0.3
		l1.4,3.9c0.1,0.4,0.2,0.4,0.4,0.4v0.2h-1.3v-0.2c0.2,0,0.3,0,0.3-0.2c0-0.1,0-0.2-0.1-0.2L162.9,303.1z M162.9,302.9l-0.7-2.1l0,0
		l-0.6,2.1H162.9z"/>
	<path d="M167.4,301.2c-0.1-0.7-0.2-1-0.9-1c-0.9,0-1.3,0.8-1.3,2c0,1.8,0.8,2.1,1.2,2.1c0.6,0,0.9-0.4,1.1-1l0.3,0.1
		c-0.1,0.3-0.2,0.6-0.5,0.8c-0.3,0.3-0.6,0.4-1,0.4c-0.5,0-0.9-0.2-1.3-0.5c-0.4-0.5-0.6-1.2-0.5-1.8c0-1.5,0.7-2.3,1.9-2.3
		c0.4,0,0.7,0.1,1,0.2c0,0.3,0.1,0.7,0.2,1L167.4,301.2z"/>
	<path d="M171.2,301.2c-0.1-0.7-0.2-1-0.9-1c-0.9,0-1.3,0.8-1.3,2c0,1.8,0.8,2.1,1.2,2.1c0.6,0,0.9-0.4,1.1-1l0.3,0.1
		c-0.1,0.3-0.2,0.6-0.5,0.8c-0.3,0.3-0.6,0.4-1,0.4c-0.5,0-0.9-0.2-1.3-0.5c-0.4-0.5-0.6-1.2-0.5-1.8c0-1.5,0.7-2.3,1.9-2.3
		c0.4,0,0.7,0.1,1,0.2c0,0.3,0.1,0.7,0.2,1L171.2,301.2z"/>
	<path d="M172.1,304.4c0.5,0,0.5,0,0.5-0.5v-3.1c0-0.4,0-0.5-0.5-0.5V300h1.6v0.2c-0.5,0-0.5,0-0.5,0.5v3.1c0,0.4,0,0.5,0.5,0.5v0.2
		h-1.6V304.4z"/>
	<path d="M174.1,304.5v-0.2c0.4,0,0.5,0,0.5-0.5v-3.1c0-0.4,0-0.5-0.5-0.5V300h1.7c0.5-0.1,1.1,0.1,1.5,0.5c0.4,0.5,0.6,1.1,0.6,1.7
		s-0.1,1.2-0.5,1.7c-0.4,0.4-1,0.7-1.6,0.6H174.1z M175.4,300.4c-0.2,0-0.2,0-0.2,0.3v3.4c0,0.3,0,0.3,0.2,0.3h0.3
		c1,0,1.5-0.6,1.5-2c0-1.5-0.5-2-1.4-2L175.4,300.4L175.4,300.4z"/>
	<path d="M181.2,304.5h-2.9v-0.2c0.4,0,0.5,0,0.5-0.5v-3.1c0-0.4,0-0.5-0.5-0.5V300h2.7l0.2,1h-0.3c-0.2-0.7-0.2-0.7-0.6-0.7h-0.8
		c-0.2,0-0.2,0-0.2,0.3v1.5h0.8c0.3,0,0.3-0.1,0.3-0.6h0.3v1.5h-0.3c0-0.6,0-0.6-0.3-0.6h-0.8v1.7c0,0.2,0,0.3,0.2,0.3h1
		c0.4,0,0.4,0,0.6-0.7h0.3L181.2,304.5z"/>
	<path d="M182.8,300l2.1,3.7l0,0v-3c0-0.4,0-0.5-0.5-0.5V300h1.2v0.2c-0.4,0-0.5,0-0.5,0.5v3.9h-0.4l-2.2-4l0,0v3.2
		c0,0.4,0,0.5,0.5,0.5v0.2h-1.2v-0.2c0.4,0,0.5,0,0.5-0.5v-3.1c0-0.4,0-0.5-0.5-0.5V300H182.8z"/>
	<path d="M187.9,300.4v3.5c0,0.4,0,0.5,0.6,0.5v0.2h-1.7v-0.2c0.5,0,0.6,0,0.6-0.5v-3.5h-0.7c-0.4,0-0.4,0-0.5,0.8H186l0.1-1h3.2
		l0.1,1h-0.2c-0.1-0.7-0.2-0.8-0.5-0.8H187.9z"/>
	<path d="M192.4,300l2.1,3.7l0,0v-3c0-0.4,0-0.5-0.5-0.5V300h1.2v0.2c-0.4,0-0.5,0-0.5,0.5v3.9h-0.4l-2.2-4l0,0v3.2
		c0,0.4,0,0.5,0.5,0.5v0.2h-1.2v-0.2c0.4,0,0.5,0,0.5-0.5v-3.1c0-0.4,0-0.5-0.5-0.5V300H192.4z"/>
	<path d="M195.8,302.4c0-1.6,0.7-2.3,1.9-2.3c1.4,0,1.9,1,1.9,2.3c0,1.4-0.5,2.3-1.9,2.3S195.8,303.8,195.8,302.4z M196.4,302.4
		c0,0.6,0.1,1.2,0.4,1.7c0.4,0.5,1.1,0.6,1.6,0.2c0.1-0.1,0.1-0.1,0.2-0.2c0.3-0.5,0.4-1.1,0.4-1.7c0.1-0.6-0.1-1.2-0.4-1.7
		c-0.2-0.3-0.5-0.4-0.9-0.4C196.6,300.2,196.4,301.5,196.4,302.4z"/>
	<path d="M202.1,300.4v3.5c0,0.4,0,0.5,0.6,0.5v0.2H201v-0.2c0.5,0,0.6,0,0.6-0.5v-3.5h-0.7c-0.4,0-0.4,0-0.5,0.8h-0.3l0.1-1h3.2
		l0.1,1h-0.2c-0.1-0.7-0.2-0.8-0.5-0.8H202.1z"/>
	<path d="M203.8,304.4c0.5,0,0.5,0,0.5-0.5v-3.1c0-0.4,0-0.5-0.5-0.5V300h1.6v0.2c-0.5,0-0.5,0-0.5,0.5v3.1c0,0.4,0,0.5,0.5,0.5v0.2
		h-1.6V304.4z"/>
	<path d="M208.2,301.5v1.5h-0.3c0-0.6-0.1-0.6-0.3-0.6h-0.7v1.5c0,0.4,0,0.5,0.6,0.5v0.2h-1.7v-0.2c0.4,0,0.5,0,0.5-0.5v-3.1
		c0-0.4,0-0.5-0.5-0.5v-0.2h2.8l0.2,1h-0.3c-0.2-0.7-0.2-0.7-0.6-0.7h-0.8c-0.2,0-0.2,0-0.2,0.3v1.5h0.7c0.3,0,0.3-0.1,0.3-0.6
		L208.2,301.5z"/>
	<path d="M210.6,302.6l-1.1-1.9c-0.2-0.4-0.3-0.4-0.5-0.4v-0.2h1.4v0.2c-0.2,0-0.4,0-0.4,0.1s0,0.2,0.1,0.3l0.9,1.6l0,0l0.8-1.6
		c0.1-0.1,0.1-0.2,0.1-0.3c0-0.1-0.1-0.1-0.3-0.1v-0.2h1v0.2c-0.2,0-0.3,0-0.4,0.4l-1.1,1.9v1.3c0,0.4,0,0.5,0.5,0.5v0.2h-1.7v-0.2
		c0.5,0,0.5,0,0.5-0.5L210.6,302.6z"/>
	<path d="M21.8,363.8c-0.1,0.1-0.2,0.2-0.6,0.2h-4.1c1.1,2,2.7,3.7,4.8,4.6v0.1c-0.4,0.1-0.8,0.4-0.9,0.8c-2-1.4-3.4-3.3-4.1-5.6
		v4.9h0.8l0.6-0.8l1.1,0.8c-0.1,0.2-0.2,0.2-0.6,0.2h-2v2.2c0,0-0.1,0.3-0.9,0.3v-2.6h-2.4l-0.1-0.3H16v-3.9c-1.1,2-2.8,3.7-4.8,4.7
		l-0.1-0.2c1.9-1.4,3.4-3.3,4.2-5.5h-4l-0.1-0.3H16v-2.8l1.5,0.1c0,0.2-0.1,0.3-0.5,0.3v2.4h3l0.6-0.9L21.8,363.8z"/>
	<path d="M22.6,371.5c4.5-2.9,4.5-6.7,4.5-10.2l1.5,0.1c0,0.1-0.1,0.2-0.5,0.3c0.3,3.6,1.4,6.9,5.2,9.1v0.1c-0.5,0-0.9,0.3-1,0.8
		c-2.9-2-3.9-5.1-4.3-8.2l0,0c-0.2,2.9-1,6-5.3,8.2L22.6,371.5z"/>
	<path d="M41.1,363.9c0.1-0.2,0.4-0.3,0.6-0.3c0.6,0.1,1.1,0.5,1.2,1.1c0,0.4-0.3,0.5-0.9,0.6c-2.5,0.7-5.4,2-5.4,3.6
		c0,1.2,1.3,1.3,2.8,1.3c0.9,0.1,1.8-0.1,2.6-0.4c0.7,0.1,1.3,0.2,1.3,0.6c0,0.3-0.5,0.4-1,0.5c-0.9,0.1-1.8,0.2-2.8,0.2
		c-2.2,0-3.5-0.5-3.5-2.1c0-1,1.1-2.1,2.4-2.8c-0.7-0.4-0.7-1.3-0.7-2.7c0-0.1,0-0.6,0-0.7c0-0.2,0-0.7-0.6-0.7c-0.1,0-0.2,0-0.2,0
		V362c0.1-0.3,0.4-0.5,0.7-0.5c0.7,0,1.3,0.4,1.3,0.9c0,0.2-0.2,0.4-0.2,0.7c-0.1,0.4-0.1,0.8-0.1,1.3c0,0.2,0,0.5,0,0.7
		c0,0.3,0.2,0.6,0.5,0.8c0.5-0.3,1.5-0.7,2.1-1c0.3-0.1,0.5-0.3,0.5-0.5C41.8,364,41.5,363.9,41.1,363.9L41.1,363.9z"/>
	<path d="M50.6,370.5c3.1-0.5,4.2-2.3,4.2-4.1c0-2.1-0.9-3.8-3.4-3.8c-0.3,0-0.7,0-1,0.1c0.4,0.3,0.6,0.8,0.6,1.2
		c0,2.2-1.5,5.6-3.2,5.6c-0.9,0-1.5-1-1.5-2.5c0.1-2.7,2.3-4.9,5.1-4.9h0.1c2.8,0,4.4,1.7,4.4,4.2c0,2.2-1.4,3.9-5.2,4.3L50.6,370.5
		z M50.1,362.8c-1.9,0.6-3.1,2.3-3,4.3c0,0.9,0.3,1.5,0.7,1.5c1.2,0,2.5-3.1,2.5-5C50.3,363.2,50.2,363,50.1,362.8L50.1,362.8z"/>
	<path d="M61,364.8h-2.2v6.5c0,0-0.1,0.4-0.9,0.4v-10.4l1,0.4h2l0.4-0.5l1,0.7c-0.1,0.1-0.3,0.2-0.4,0.2v2.9c0,0-0.2,0.3-0.9,0.3
		L61,364.8z M61,362h-2.2v1.1H61V362z M58.8,364.5H61v-1.2h-2.2V364.5z M66.7,361.1l1.1,0.8c-0.1,0.1-0.3,0.2-0.5,0.2v8.2
		c0,0.7-0.2,1.2-1.2,1.3c0-0.8-0.3-0.9-1-1l0,0c-0.2,0.1-0.3,0.3-0.3,0.5c-1-0.5-1.8-1.4-2-2.5l0,0c-0.3,1.1-1,1.9-3.1,2.6l-0.1-0.2
		c1.6-0.6,2.2-1.4,2.4-2.4h-2.2l-0.1-0.3H62c0.1-0.4,0.1-0.8,0.1-1.2h-2.2l-0.1-0.3H63c0.2-0.5,0.4-1,0.6-1.6l1.2,0.4
		c-0.1,0.1-0.2,0.1-0.4,0.1c-0.3,0.4-0.6,0.7-1,1h0.6l0.5-0.6l0.9,0.6c-0.1,0.2-0.2,0.2-0.5,0.2h-2c0,0.4,0,0.8-0.1,1.2h1.5l0.5-0.6
		l0.9,0.6c-0.1,0.2-0.2,0.2-0.5,0.2h-2.1c0.5,0.9,1.4,1.6,2.4,1.8v0.1h0.8c0.1,0,0.2,0,0.2-0.2v-5.6h-2.5v0.2c0,0-0.1,0.3-0.9,0.3
		v-4l0.9,0.4h2.1L66.7,361.1z M60.5,365.5c1,0.3,1.3,0.7,1.3,1c0,0.2-0.2,0.5-0.4,0.5c-0.1,0-0.3-0.1-0.3-0.2
		C61,366.2,60.8,365.9,60.5,365.5L60.5,365.5z M66.4,362h-2.3v1.1h2.3V362z M64.1,364.5h2.3v-1.2h-2.3V364.5z"/>
	<path d="M68.7,367c1.1-1.8,2-3.9,2.5-6l1.4,0.4c0,0.1-0.2,0.2-0.4,0.2c-0.3,0.8-0.7,1.6-1.1,2.4l0.4,0.2c0,0.1-0.1,0.2-0.3,0.2v7
		c-0.2,0.2-0.5,0.3-0.8,0.3h-0.2v-6.3c-0.4,0.6-0.9,1.2-1.4,1.7L68.7,367z M74.7,368.8c-0.1,0.1-0.2,0.2-0.4,0.1
		c-0.7,0.9-1.5,1.6-2.4,2.2l-0.1-0.2c0.7-0.8,1.3-1.8,1.7-2.8L74.7,368.8z M78.1,363.9C78,364,78,364,77.9,364s-0.2,0-0.3,0
		c-0.9,1.1-1.9,2-3.1,2.8c1,0,2.3,0,3.5-0.1c-0.3-0.4-0.6-0.8-1-1l0.1-0.1c1.7,0.4,2.2,1.2,2.2,1.8c0,0.3-0.2,0.5-0.4,0.6l0,0
		c-0.1,0-0.3-0.1-0.4-0.2c-0.1-0.3-0.2-0.5-0.3-0.7c-0.6,0.1-1.3,0.2-2.1,0.3v4.2c-0.2,0.2-0.5,0.3-0.8,0.3h-0.2v-4.3
		c-0.7,0.1-1.5,0.2-2.5,0.3c-0.1,0.1-0.2,0.2-0.3,0.2l-0.5-1.1c0.5,0,1.2,0,2.2,0c1-1.1,1.9-2.3,2.7-3.6L78.1,363.9z M72.4,363.6
		c0.5,0,1,0.2,1.4,0.4c0.3-0.5,0.6-1.1,0.8-1.7c-0.8,0.1-1.7,0.1-2.5,0.2v-0.2c1.9-0.3,3.8-0.8,5.7-1.4l1,1c-0.1,0-0.1,0.1-0.2,0.1
		s-0.3,0-0.4-0.1c-0.7,0.1-1.6,0.3-2.6,0.4l0.6,0.3c-0.1,0.1-0.2,0.2-0.5,0.2c-0.5,0.6-1,1.1-1.6,1.5c0.3,0.2,0.4,0.5,0.5,0.8
		c0,0.3-0.2,0.5-0.5,0.6l0,0c-0.1,0-0.2-0.1-0.3-0.1c-0.3-0.7-0.8-1.3-1.4-1.7V363.6z M76.9,368.2c1.8,0.6,2.3,1.5,2.3,2.1
		c0,0.4-0.2,0.6-0.5,0.6c-0.1,0-0.3-0.1-0.4-0.2c-0.3-1-0.8-1.8-1.6-2.5H76.9z"/>
	<path d="M94,365.5v1.5h-0.3c0-0.6-0.1-0.6-0.3-0.6h-0.7v1.5c0,0.4,0,0.5,0.6,0.5v0.2h-1.7v-0.2c0.4,0,0.5,0,0.5-0.5v-3.1
		c0-0.4,0-0.5-0.5-0.5v-0.2h2.8l0.2,1h-0.3c-0.2-0.7-0.2-0.7-0.6-0.7h-0.8c-0.2,0-0.2,0-0.2,0.3v1.5h0.7c0.3,0,0.3-0.1,0.3-0.6
		L94,365.5z"/>
	<path d="M97.8,368.5h-2.9v-0.2c0.4,0,0.5,0,0.5-0.5v-3.1c0-0.4,0-0.5-0.5-0.5V364h2.7l0.2,1h-0.3c-0.2-0.7-0.2-0.7-0.6-0.7h-0.8
		c-0.2,0-0.2,0-0.2,0.3v1.5h0.8c0.3,0,0.3-0.1,0.3-0.6h0.3v1.5h-0.2c0-0.6,0-0.6-0.3-0.6h-0.8v1.7c0,0.2,0,0.3,0.2,0.3h1
		c0.4,0,0.4,0,0.6-0.7h0.3L97.8,368.5z"/>
	<path d="M101.5,367.5l-0.2,1h-2.9v-0.2c0.4,0,0.5,0,0.5-0.5v-3.1c0-0.4,0-0.5-0.5-0.5V364h1.6v0.2c-0.5,0-0.5,0-0.5,0.5v3.2
		c0,0.3,0,0.3,0.2,0.3h1c0.4,0,0.4,0,0.6-0.8L101.5,367.5z"/>
	<path d="M104.2,367.1h-1.5l-0.2,0.7c0,0.1-0.1,0.2-0.1,0.3c0,0.1,0.1,0.2,0.3,0.2v0.2h-1v-0.2c0.2,0,0.3-0.1,0.4-0.3l1.2-4h0.3
		l1.4,3.9c0.1,0.4,0.2,0.4,0.4,0.4v0.2h-1.3v-0.2c0.2,0,0.3,0,0.3-0.2c0-0.1,0-0.2-0.1-0.2L104.2,367.1z M104.1,367l-0.7-2.1l0,0
		l-0.6,2.1H104.1z"/>
	<path d="M107.7,364.4v3.5c0,0.4,0,0.5,0.6,0.5v0.2h-1.7v-0.2c0.5,0,0.6,0,0.6-0.5v-3.5h-0.7c-0.4,0-0.4,0-0.5,0.8h-0.3l0.1-1h3.2
		l0.1,1h-0.2c-0.1-0.7-0.2-0.8-0.5-0.8H107.7z"/>
	<path d="M109.4,368.4c0.5,0,0.5,0,0.5-0.5v-3.1c0-0.4,0-0.5-0.5-0.5V364h1.6v0.2c-0.5,0-0.5,0-0.5,0.5v3.1c0,0.4,0,0.5,0.5,0.5v0.2
		h-1.6V368.4z"/>
	<path d="M111.5,366.4c0-1.6,0.7-2.3,1.9-2.3c1.4,0,1.9,1,1.9,2.3c0,1.4-0.5,2.3-1.9,2.3S111.5,367.8,111.5,366.4z M112.2,366.4
		c0,0.6,0.1,1.2,0.4,1.7c0.4,0.5,1.1,0.6,1.6,0.2c0.1-0.1,0.1-0.1,0.2-0.2c0.3-0.5,0.4-1.1,0.4-1.7c0.1-0.6-0.1-1.2-0.4-1.7
		c-0.2-0.3-0.5-0.4-0.9-0.4C112.2,364.2,112.2,365.5,112.2,366.4z"/>
	<path d="M116.9,364l2.1,3.7l0,0v-3c0-0.4,0-0.5-0.5-0.5V364h1.2v0.2c-0.4,0-0.5,0-0.5,0.5v3.9h-0.4l-2.2-4l0,0v3.2
		c0,0.4,0,0.5,0.5,0.5v0.2h-1.2v-0.2c0.4,0,0.5,0,0.5-0.5v-3.1c0-0.4,0-0.5-0.5-0.5V364H116.9z"/>
	<path d="M120.4,367.5c0.2,0.8,0.5,0.9,1,0.9c0.4,0,0.8-0.3,0.9-0.7v-0.1c0-0.5-0.3-0.7-0.9-1.1c-0.7-0.4-1.1-0.7-1.1-1.4
		c0-0.4,0.3-1.1,1.4-1.1c0.3,0,0.6,0,0.9,0.2c0,0.2,0.1,0.6,0.1,0.9h-0.3c-0.1-0.6-0.3-0.8-0.8-0.8c-0.4,0-0.7,0.2-0.8,0.6
		c0,0,0,0,0,0.1c0,0.4,0.2,0.6,0.9,1c0.4,0.2,0.7,0.4,1,0.7c0.2,0.2,0.3,0.5,0.2,0.8c0,0.7-0.6,1.2-1.5,1.2c-0.4,0-0.7-0.1-1.1-0.2
		c0-0.3-0.1-0.6-0.2-1H120.4z"/>
	<path d="M127.4,364.4c-0.4,0-0.5,0-0.5,0.5v3.1c0,0.4,0,0.5,0.5,0.5v0.2h-1.5v-0.2c0.4,0,0.4,0,0.4-0.5v-1.5h-2v1.5
		c0,0.4,0,0.5,0.4,0.5v0.2h-1.5v-0.2c0.4,0,0.5,0,0.5-0.5v-3.1c0-0.4,0-0.5-0.5-0.5v-0.2h1.5v0.2c-0.4,0-0.4,0-0.4,0.5v1.3h2v-1.3
		c0-0.4,0-0.5-0.4-0.5v-0.2h1.5V364.4z"/>
	<path d="M127.8,368.4c0.5,0,0.5,0,0.5-0.5v-3.1c0-0.4,0-0.5-0.5-0.5V364h1.6v0.2c-0.5,0-0.5,0-0.5,0.5v3.1c0,0.4,0,0.5,0.5,0.5v0.2
		h-1.6V368.4z"/>
	<path d="M129.8,368.4c0.4,0,0.5,0,0.5-0.5v-3.1c0-0.4,0-0.5-0.5-0.5V364h1.6c0.4,0,0.9,0.1,1.3,0.3c0.5,0.5,0.6,1.3,0.1,1.8
		c0,0,0,0-0.1,0.1c-0.4,0.3-0.9,0.4-1.4,0.3h-0.5v1.3c0,0.4,0,0.5,0.6,0.5v0.2h-1.6L129.8,368.4z M131.4,366.4c0.7,0,1.1-0.2,1.1-1
		c0-0.9-0.7-1-1.1-1h-0.3c-0.1,0-0.1,0.1-0.1,0.4v1.6H131.4z"/>
	<line class="st2" x1="11.9" y1="194.9" x2="366.2" y2="194.9"/>
	<line class="st2" x1="11.9" y1="282.8" x2="366.2" y2="282.8"/>
	<path d="M16.6,264.5h-3.5c0,0.1,0,0.2,0,0.2c0,0.6-0.3,1.1-0.9,1.1c-0.3,0-0.5-0.2-0.5-0.4c0-0.2,0.2-0.4,0.4-0.5
		c0.4-0.2,0.7-0.7,0.6-1.2H13c0.1,0.1,0.1,0.3,0.1,0.5h3.5v-1.1h-3.7l-0.1-0.3h7l0.6-0.7l1.1,0.8c-0.1,0.2-0.2,0.2-0.5,0.2h-3.4v1.1
		h3.6l0.5-0.5l0.9,0.9c-0.1,0.1-0.3,0.1-0.4,0.1c-0.3,0.4-0.7,0.7-1.1,1l-0.1-0.1c0.1-0.3,0.2-0.8,0.3-1.2h-3.7v2.7
		c0,0.1-0.3,0.2-0.8,0.2h-0.1V264.5z M15.4,266.1l0.8,0.5c-0.1,0.2-0.2,0.2-0.5,0.2h-2.6l-0.1-0.3h1.9L15.4,266.1z M13.2,265.5h1.7
		l0.4-0.5l0.8,0.5c-0.1,0.2-0.2,0.2-0.5,0.2h-2.3L13.2,265.5z M22.1,270.6v1c0.4,0.2,0.4,0.2,0.4,0.3c0,0.3-0.3,0.6-1.5,0.6h-2.9
		c-1.2,0-1.4-0.2-1.4-1.2v-0.6h-2.5v0.4c0,0-0.1,0.3-0.9,0.3v-4l1,0.4H20l0.4-0.5l1.1,0.8c-0.1,0.1-0.3,0.2-0.4,0.2v2.6
		c-0.3,0.2-0.6,0.3-0.9,0.3v-0.5h-2.6v0.7c0,0.4,0,0.4,0.6,0.4h2.9c0.3,0,0.4,0,0.5-0.1c0.2-0.3,0.3-0.7,0.4-1.1L22.1,270.6z
		 M16.6,268.1h-2.5v1h2.5V268.1z M14.2,270.5h2.5v-1.1h-2.5V270.5z M20.1,268.1h-2.6v1h2.6V268.1z M17.6,270.5h2.6v-1.1h-2.6V270.5z
		 M18.1,266.9l-0.1-0.3h2l0.4-0.5l0.9,0.6c-0.1,0.2-0.2,0.2-0.5,0.2L18.1,266.9L18.1,266.9z M20.2,265l0.8,0.5
		c-0.1,0.2-0.2,0.2-0.5,0.2h-2.4l-0.1-0.3h1.8L20.2,265z"/>
	<path d="M27.2,263.8l1,0.7c-0.1,0.2-0.2,0.2-0.5,0.2h-4.4l-0.1-0.3h3.4L27.2,263.8z M23.8,265.9h2.4l0.5-0.6l0.9,0.7
		c-0.1,0.2-0.2,0.2-0.5,0.2h-3.2L23.8,265.9z M27.5,267.4c-0.1,0.2-0.2,0.2-0.5,0.2h-3.2l-0.1-0.3H26l0.5-0.6L27.5,267.4z
		 M26.4,268.9l0.4-0.5l1.1,0.8c-0.1,0.1-0.3,0.2-0.5,0.2v2.8c0,0-0.2,0.3-0.9,0.3v-0.7h-1.8v0.8c0,0-0.1,0.3-0.9,0.3v-4.3l0.9,0.4
		L26.4,268.9z M27.6,263c-0.1,0.2-0.2,0.2-0.5,0.2h-3.2l-0.1-0.3h2.3l0.5-0.7L27.6,263z M24.8,271.5h1.8v-2.3h-1.8V271.5z M34.2,266
		c-0.1,0.2-0.2,0.2-0.6,0.2h-2.2v2.3h1l0.4-0.5l1.1,0.8c-0.1,0.1-0.3,0.2-0.5,0.2v3.4c0,0-0.3,0.3-0.9,0.3v-0.8h-3v0.6
		c0,0-0.1,0.3-0.9,0.3V268l0.9,0.4h1v-2.1H28l-0.1-0.3h2.6v-2.3c-0.8,0.1-1.6,0.3-2.4,0.4v-0.2c1.6-0.4,3.2-1,4.7-1.7l1,0.9
		c-0.1,0.1-0.2,0.1-0.2,0.1c-0.1,0-0.3,0-0.4-0.1c-0.5,0.1-1,0.3-1.7,0.4v2.5h1.2l0.6-0.8L34.2,266z M32.5,268.8h-3v2.9h3V268.8z"/>
	<path d="M46.1,269.5c0.4,0,0.5,0,0.5-0.5v-3.1c0-0.4,0-0.5-0.5-0.5v-0.2h1.6c0.4,0,0.9,0.1,1.3,0.3c0.5,0.5,0.6,1.3,0.1,1.8
		c0,0,0,0-0.1,0.1c-0.4,0.3-0.9,0.4-1.4,0.3h-0.5v1.3c0,0.4,0,0.5,0.6,0.5v0.2h-1.6C46.1,269.8,46.1,269.5,46.1,269.5z M47.8,267.5
		c0.7,0,1.1-0.2,1.1-1c0-0.9-0.7-1-1.1-1h-0.3c-0.1,0-0.1,0.1-0.1,0.4v1.6H47.8z"/>
	<path d="M54,265.5c-0.4,0-0.5,0-0.5,0.5v3.1c0,0.4,0,0.5,0.5,0.5v0.2h-1.5v-0.2c0.4,0,0.4,0,0.4-0.5v-1.5h-2v1.5
		c0,0.4,0,0.5,0.4,0.5v0.2h-1.5v-0.2c0.4,0,0.5,0,0.5-0.5V266c0-0.4,0-0.5-0.5-0.5v-0.2h1.5v0.2c-0.4,0-0.4,0-0.4,0.5v1.3h2V266
		c0-0.4,0-0.5-0.4-0.5v-0.2H54V265.5z"/>
	<path d="M54.5,267.5c0-1.6,0.7-2.3,1.9-2.3c1.4,0,1.9,1,1.9,2.3c0,1.4-0.5,2.3-1.9,2.3S54.5,268.9,54.5,267.5z M55.1,267.5
		c0,0.6,0.1,1.2,0.4,1.7c0.4,0.5,1.1,0.6,1.6,0.2c0.1-0.1,0.1-0.1,0.2-0.2c0.3-0.5,0.4-1.1,0.4-1.7c0.1-0.6-0.1-1.2-0.4-1.7
		c-0.2-0.3-0.5-0.4-0.9-0.4C55.2,265.5,55.1,266.6,55.1,267.5z"/>
	<path d="M59.8,265.2l2.1,3.7l0,0v-3c0-0.4,0-0.5-0.5-0.5v-0.2h1.2v0.2c-0.4,0-0.5,0-0.5,0.5v3.9h-0.4l-2.2-4l0,0v3.2
		c0,0.4,0,0.5,0.5,0.5v0.2h-1.2v-0.2c0.4,0,0.5,0,0.5-0.5V266c0-0.4,0-0.5-0.5-0.5v-0.2H59.8z"/>
	<path d="M66.1,269.8h-2.9v-0.2c0.4,0,0.5,0,0.5-0.5v-3.1c0-0.4,0-0.5-0.5-0.5v-0.2h2.7l0.2,1h-0.3c-0.2-0.7-0.2-0.7-0.6-0.7h-0.8
		c-0.2,0-0.2,0-0.2,0.3v1.5h0.8c0.3,0,0.3-0.1,0.3-0.6h0.3v1.5h-0.3c0-0.6,0-0.6-0.3-0.6h-0.8v1.7c0,0.2,0,0.3,0.2,0.3h1
		c0.4,0,0.4,0,0.6-0.7h0.3L66.1,269.8z"/>
	<path d="M69.4,265.2l2.1,3.7l0,0v-3c0-0.4,0-0.5-0.5-0.5v-0.2h1.2v0.2c-0.4,0-0.5,0-0.5,0.5v3.9h-0.4l-2.2-4l0,0v3.2
		c0,0.4,0,0.5,0.5,0.5v0.2h-1.2v-0.2c0.4,0,0.5,0,0.5-0.5V266c0-0.4,0-0.5-0.5-0.5v-0.2H69.4z"/>
	<path d="M72.7,267.5c0-1.6,0.7-2.3,1.9-2.3c1.4,0,1.9,1,1.9,2.3c0,1.4-0.5,2.3-1.9,2.3S72.7,268.9,72.7,267.5z M73.2,267.5
		c0,0.6,0.1,1.2,0.4,1.7c0.4,0.5,1.1,0.6,1.6,0.2c0.1-0.1,0.1-0.1,0.2-0.2c0.3-0.5,0.4-1.1,0.4-1.7c0.1-0.6-0.1-1.2-0.4-1.7
		c-0.2-0.3-0.5-0.4-0.9-0.4C73.5,265.5,73.2,266.6,73.2,267.5z"/>
	<path d="M77.8,269.5c0,0.2-0.1,0.4-0.3,0.4c-0.2,0-0.3-0.2-0.3-0.4l0,0c0-0.2,0.2-0.3,0.3-0.3C77.6,269.1,77.8,269.2,77.8,269.5
		L77.8,269.5z"/>
	<path d="M20.9,334.6l-0.2,1.5c0.3,0.3,0.4,0.5,0.4,0.6s-0.2,0.3-0.5,0.3c-0.4,0-0.7-0.2-1.1-0.4c-1.7-1.1-2.8-2.9-3-4.9h-2.9v3.9
		c1-0.1,2.2-0.2,3.5-0.4v0.2c-1.1,0.3-2.6,0.7-4.8,1.2c0,0.1-0.1,0.2-0.3,0.2l-0.5-1c0.3,0,0.7-0.1,1.3-0.1v-7.4l1,0.4
		c1.8-0.3,3.5-0.7,5.2-1.3l0.9,0.9c-0.1,0.1-0.1,0.1-0.2,0.1s-0.3,0-0.4-0.1c-0.5,0.1-1.2,0.2-1.9,0.3c0,0.1-0.1,0.1-0.4,0.2
		c0,0.9,0.1,1.9,0.2,2.8h2.1l0.6-0.7l1.1,0.8c-0.1,0.2-0.2,0.2-0.5,0.2h-3.2c0.2,1.7,1.1,3.1,2.5,4c0.1,0,0.1,0.1,0.2,0.1
		s0.1,0,0.2-0.1c0.2-0.4,0.4-0.8,0.5-1.2L20.9,334.6z M13.7,331.6h2.9c-0.2-0.9-0.2-1.9-0.2-2.8c-0.8,0.1-1.7,0.2-2.5,0.2h-0.1
		L13.7,331.6L13.7,331.6z"/>
	<path d="M29.8,332.5l1,0.7c-0.1,0.1-0.3,0.2-0.5,0.2v3.4c-0.2,0.2-0.5,0.3-0.9,0.3v-0.6h-4v0.4c0,0.1-0.3,0.3-0.7,0.3h-0.1v-3.7
		c-0.9,0.5-1.9,0.8-2.8,1.1l-0.1-0.2c1.4-0.5,2.7-1.3,3.9-2.3c-0.1,0-0.3,0-0.4-0.1c-0.3-0.7-0.7-1.3-1.3-1.7
		c-0.6,0.5-1.2,0.9-1.9,1.2l-0.1-0.1c1.4-1,2.4-2.3,3.1-3.9l1.3,0.4c-0.1,0.1-0.1,0.2-0.4,0.1c-0.2,0.3-0.3,0.5-0.5,0.8H28l0.6-0.5
		l0.9,0.9c-0.1,0.1-0.2,0.1-0.5,0.1c-0.9,1.5-2.1,2.8-3.6,3.7l0,0h3.8L29.8,332.5z M25.3,329c-0.3,0.4-0.7,0.8-1.1,1.2
		c1.4,0.4,1.8,1,1.8,1.5c0,0.1,0,0.1,0,0.2c0.9-0.8,1.6-1.8,2.2-2.8h-2.9V329z M25.5,336.1h4v-3h-4.1L25.5,336.1z"/>
	<path d="M43.2,330l2.1,3.7l0,0v-3c0-0.4,0-0.5-0.5-0.5V330H46v0.2c-0.4,0-0.5,0-0.5,0.5v3.9h-0.4l-2.2-4l0,0v3.2
		c0,0.4,0,0.5,0.5,0.5v0.2h-1.2v-0.2c0.4,0,0.5,0,0.5-0.5v-3.1c0-0.4,0-0.5-0.5-0.5V330H43.2z"/>
	<path d="M49,333.1h-1.5l-0.2,0.7c0,0.1-0.1,0.2-0.1,0.3c0,0.1,0.1,0.2,0.3,0.2v0.2h-1v-0.2c0.2,0,0.3-0.1,0.4-0.3l1.2-4h0.3
		l1.4,3.9c0.1,0.4,0.2,0.4,0.4,0.4v0.2h-1.3v-0.2c0.2,0,0.3,0,0.3-0.2c0-0.1,0-0.2-0.1-0.2L49,333.1z M48.8,332.9l-0.7-2.1l0,0
		l-0.6,2.1H48.8z"/>
	<path d="M54.5,330h1.1v0.2c-0.5,0-0.5,0-0.5,0.5v3.1c0,0.4,0,0.5,0.5,0.5v0.2H54v-0.2c0.4,0,0.5,0,0.5-0.5v-3.1l0,0l-1.5,3.8h-0.2
		l-1.6-3.8l0,0v3.1c0,0.4,0,0.5,0.4,0.5v0.2h-1.2v-0.2c0.4,0,0.5,0,0.5-0.5v-3.1c0-0.4,0-0.5-0.5-0.5V330h1.1l1.5,3.7l0,0L54.5,330z
		"/>
	<path d="M59,334.5H56v-0.2c0.4,0,0.5,0,0.5-0.5v-3.1c0-0.4,0-0.5-0.5-0.5V330h2.7l0.2,1h-0.3c-0.2-0.7-0.2-0.7-0.6-0.7h-0.8
		c-0.2,0-0.2,0-0.2,0.3v1.5h0.8c0.3,0,0.3-0.1,0.3-0.6h0.3v1.5h-0.3c0-0.6,0-0.6-0.3-0.6H57v1.7c0,0.2,0,0.3,0.2,0.3h1
		c0.4,0,0.4,0,0.6-0.7h0.3L59,334.5z"/>
	<path d="M13.1,406.9c1.2-1.9,2-3.9,2.5-6l1.5,0.4c0,0.1-0.1,0.2-0.4,0.2c-0.3,0.8-0.6,1.5-1,2.3L16,404c0,0.1-0.1,0.2-0.3,0.2v7.1
		c-0.2,0.2-0.5,0.3-0.8,0.3h-0.2v-6.3c-0.4,0.6-0.9,1.2-1.4,1.7L13.1,406.9z M22.8,409.9l1.2,0.9c-0.1,0.2-0.2,0.2-0.6,0.2h-7
		c0-0.1,0-0.2-0.1-0.3h3.2v-3.5H17c0-0.1,0-0.2-0.1-0.3h2.5v-3.1h-2.8l-0.1-0.3h5.2l0.6-0.8l1.1,0.8c-0.1,0.2-0.2,0.2-0.6,0.2h-2.6
		v3.1h1.2l0.6-0.7l1.1,0.8c-0.1,0.2-0.2,0.2-0.5,0.2h-2.3v3.5H22L22.8,409.9z M18.2,400.9c2,0.3,2.6,1.2,2.6,1.7
		c0,0.3-0.2,0.6-0.5,0.6l0,0c-0.1,0-0.3,0-0.4-0.1c-0.4-0.9-1-1.6-1.8-2.1L18.2,400.9z"/>
	<path d="M28.5,407h-2.2c0.1,1.7-0.5,3.3-1.6,4.6l-0.1-0.1c0.7-1.6,1-3.3,0.9-5.1v-3l1.1,0.4h1.9l0.4-0.5L30,404
		c-0.1,0.1-0.3,0.2-0.5,0.2v3.2c-0.3,0.2-0.6,0.3-0.9,0.3L28.5,407z M30.2,401.8c-0.1,0.2-0.2,0.2-0.6,0.2h-4.9l-0.1-0.3h3.9
		l0.6-0.8L30.2,401.8z M28.5,404h-2.2v2.6h2.2V404z M34.5,404.2l1.1,0.8c-0.1,0.2-0.2,0.2-0.5,0.2h-1v6.1c-0.2,0.2-0.5,0.3-0.8,0.3
		h-0.2v-6.4h-1.7v0.4c0,2.1-0.3,4.4-2.8,5.9l-0.1-0.1c1.8-1.6,2-3.6,2-5.8v-3.9l1.1,0.4c0.9-0.4,1.8-0.8,2.6-1.3l1.2,0.9
		c-0.1,0.1-0.2,0.1-0.3,0.1s-0.3,0-0.4-0.1c-1.1,0.3-2.1,0.5-3.2,0.6v2.5h2.6L34.5,404.2z"/>
	<path d="M50,407h-1.5l-0.2,0.7c0,0.1-0.1,0.2-0.1,0.3c0,0.1,0.1,0.2,0.3,0.2v0.2h-1v-0.2c0.2,0,0.3-0.1,0.4-0.3l1.2-4h0.3l1.4,3.9
		c0.1,0.4,0.2,0.4,0.4,0.4v0.2h-1.3v-0.2c0.2,0,0.3,0,0.3-0.2c0-0.1,0-0.2-0.1-0.2L50,407z M49.8,406.8l-0.7-2.1l0,0l-0.6,2.1H49.8z
		"/>
	<path d="M51.5,408.5v-0.2c0.4,0,0.5,0,0.5-0.5v-3.1c0-0.4,0-0.5-0.5-0.5v-0.2h1.7c0.5-0.1,1.1,0.1,1.5,0.5c0.4,0.5,0.6,1.1,0.6,1.7
		s-0.1,1.2-0.5,1.7c-0.4,0.4-1,0.7-1.6,0.6H51.5z M52.8,404.2c-0.2,0-0.2,0-0.2,0.3v3.4c0,0.3,0,0.3,0.2,0.3H53c1,0,1.5-0.6,1.5-2
		c0-1.5-0.5-2-1.4-2L52.8,404.2L52.8,404.2z"/>
	<path d="M55.6,408.5v-0.2c0.4,0,0.5,0,0.5-0.5v-3.1c0-0.4,0-0.5-0.5-0.5v-0.2h1.7c0.5-0.1,1.1,0.1,1.5,0.5c0.4,0.5,0.6,1.1,0.6,1.7
		s-0.1,1.2-0.5,1.7c-0.4,0.4-1,0.7-1.6,0.6H55.6z M57,404.2c-0.2,0-0.2,0-0.2,0.3v3.4c0,0.3,0,0.3,0.2,0.3h0.3c1,0,1.5-0.6,1.5-2
		c0-1.5-0.5-2-1.4-2L57,404.2L57,404.2z"/>
	<path d="M61.5,404c0.4,0,0.9,0.1,1.2,0.3c0.3,0.2,0.4,0.5,0.4,0.9c0,0.6-0.5,1.1-1.1,1.2l0.9,1.5c0.2,0.4,0.3,0.4,0.6,0.4v0.2h-0.9
		l-1.1-2.1H61v1.4c0,0.4,0,0.5,0.5,0.5v0.2h-1.6v-0.2c0.4,0,0.5,0,0.5-0.5v-3.1c0-0.4,0-0.5-0.5-0.5v-0.2L61.5,404z M61,404.2
		c-0.1,0-0.2,0.1-0.2,0.4v1.5h0.4c1.1,0,1.1-0.7,1.1-1s-0.1-0.5-0.3-0.7s-0.5-0.2-0.8-0.2L61,404.2z"/>
	<path d="M66.7,408.5h-2.9v-0.2c0.4,0,0.5,0,0.5-0.5v-3.1c0-0.4,0-0.5-0.5-0.5v-0.2h2.7l0.2,1h-0.3c-0.2-0.7-0.2-0.7-0.6-0.7h-0.8
		c-0.2,0-0.2,0-0.2,0.3v1.5h0.8c0.3,0,0.3-0.1,0.3-0.6h0.3v1.5h-0.3c0-0.6,0-0.6-0.3-0.6h-0.8v1.7c0,0.2,0,0.3,0.2,0.3h1
		c0.4,0,0.4,0,0.6-0.7h0.3L66.7,408.5z"/>
	<path d="M67.5,407.4c0.2,0.8,0.5,0.9,1,0.9c0.4,0,0.8-0.3,0.9-0.8v-0.1c0-0.5-0.3-0.7-0.9-1.1c-0.7-0.4-1.1-0.7-1.1-1.4
		c0-0.4,0.3-1.1,1.4-1.1c0.3,0,0.6,0,0.9,0.2c0,0.2,0.1,0.6,0.1,0.9h-0.3c-0.1-0.6-0.3-0.8-0.8-0.8c-0.4,0-0.7,0.2-0.8,0.6
		c0,0,0,0,0,0.1c0,0.4,0.2,0.6,0.9,1c0.4,0.2,0.7,0.4,1,0.7c0.2,0.2,0.3,0.5,0.2,0.8c0,0.7-0.6,1.2-1.5,1.2c-0.4,0-0.7-0.1-1.1-0.2
		c0-0.3-0.1-0.6-0.2-1L67.5,407.4z"/>
	<path d="M70.6,407.4c0.2,0.8,0.5,0.9,1,0.9c0.4,0,0.8-0.3,0.9-0.7v-0.1c0-0.5-0.3-0.7-0.9-1.1c-0.7-0.4-1.1-0.7-1.1-1.4
		c0-0.4,0.3-1.1,1.3-1.1c0.3,0,0.6,0,0.9,0.2c0,0.2,0.1,0.6,0.1,0.9h-0.3c-0.1-0.6-0.3-0.8-0.8-0.8c-0.4,0-0.7,0.2-0.8,0.6
		c0,0,0,0,0,0.1c0,0.4,0.2,0.6,0.9,1c0.4,0.2,0.7,0.4,1,0.7c0.2,0.2,0.3,0.5,0.2,0.8c0,0.7-0.6,1.2-1.5,1.2c-0.4,0-0.7-0.1-1.1-0.2
		c0-0.3-0.1-0.6-0.2-1H70.6z"/>
	<path d="M18.4,438.2h-3.5c0,0.1,0,0.2,0,0.2c0,0.6-0.3,1.1-0.9,1.1c-0.3,0-0.5-0.2-0.5-0.4c0-0.2,0.2-0.4,0.4-0.5
		c0.4-0.2,0.7-0.7,0.6-1.2h0.2c0.1,0.1,0.1,0.3,0.1,0.5h3.5v-1.1h-3.7l-0.1-0.3h7l0.6-0.7l1.1,0.8c-0.1,0.2-0.2,0.2-0.5,0.2h-3.4
		v1.1H23l0.5-0.5l0.9,0.9c-0.1,0.1-0.3,0.1-0.4,0.1c-0.3,0.4-0.7,0.7-1.1,1l-0.1-0.1c0.1-0.3,0.2-0.8,0.3-1.2h-3.7v2.7
		c0,0.1-0.3,0.2-0.8,0.2h-0.1V438.2z M17.1,439.9l0.8,0.5c-0.1,0.2-0.2,0.2-0.5,0.2h-2.6l-0.1-0.3h1.9L17.1,439.9z M14.9,439.2h1.7
		l0.4-0.5l0.8,0.5c-0.1,0.2-0.2,0.2-0.5,0.2h-2.3L14.9,439.2z M23.8,444.5v1c0.4,0.2,0.4,0.2,0.4,0.3c0,0.3-0.3,0.6-1.5,0.6h-2.9
		c-1.2,0-1.4-0.2-1.4-1.2v-0.6h-2.5v0.4c0,0-0.1,0.3-0.9,0.3v-4l1,0.4h5.8l0.4-0.5l1.1,0.8c-0.1,0.1-0.3,0.2-0.4,0.2v2.6
		c-0.3,0.2-0.6,0.3-0.9,0.3v-0.5h-2.6v0.7c0,0.4,0,0.4,0.6,0.4h2.9c0.3,0,0.4,0,0.5-0.1C23.6,445.2,23.8,444.9,23.8,444.5
		L23.8,444.5z M18.4,441.9h-2.5v1h2.5V441.9z M15.9,444.2h2.5v-1.1h-2.5V444.2z M21.9,441.9h-2.6v1h2.6V441.9z M19.3,444.2h2.6v-1.1
		h-2.6V444.2z M19.8,440.6l-0.1-0.3h2l0.4-0.5l0.9,0.6c-0.1,0.2-0.2,0.2-0.5,0.2L19.8,440.6L19.8,440.6z M21.9,438.8l0.8,0.5
		c-0.1,0.2-0.2,0.2-0.5,0.2h-2.4l-0.1-0.3h1.8L21.9,438.8z"/>
	<path d="M28.9,437.5l1,0.7c-0.1,0.2-0.2,0.2-0.5,0.2H25l-0.1-0.3h3.4L28.9,437.5z M25.5,439.6h2.4l0.5-0.6l0.9,0.7
		c-0.1,0.2-0.2,0.2-0.5,0.2h-3.2L25.5,439.6z M29.2,441.1c-0.1,0.2-0.2,0.2-0.5,0.2h-3.2l-0.1-0.3h2.3l0.5-0.6L29.2,441.1z
		 M28.1,442.6l0.4-0.5l1.1,0.8c-0.1,0.1-0.3,0.2-0.5,0.2v2.8c0,0-0.2,0.3-0.9,0.3v-0.7h-1.8v0.8c0,0-0.1,0.3-0.9,0.3v-4.4l0.9,0.4
		H28.1z M29.3,436.8c-0.1,0.2-0.2,0.2-0.5,0.2h-3.2l-0.1-0.3h2.3l0.5-0.7L29.3,436.8z M26.4,445.1h1.8v-2.3h-1.8V445.1z M36,439.8
		c-0.1,0.2-0.2,0.2-0.6,0.2h-2.2v2.3h1l0.4-0.5l1.1,0.8c-0.1,0.1-0.3,0.2-0.5,0.2v3.4c0,0-0.3,0.3-0.9,0.3v-0.8h-3v0.6
		c0,0-0.1,0.3-0.9,0.3v-4.8l0.9,0.4h1v-2.3h-2.5l-0.1-0.3h2.6v-2.3c-0.8,0.1-1.6,0.3-2.4,0.4v-0.2c1.6-0.4,3.2-1,4.7-1.7l1,0.9
		c-0.1,0.1-0.2,0.1-0.2,0.1c-0.1,0-0.3,0-0.4-0.1c-0.5,0.1-1,0.3-1.7,0.4v2.5h1.2l0.6-0.8L36,439.8z M34.2,442.5h-3v2.9h3V442.5z"/>
	<path d="M47.8,443.4c0.4,0,0.5,0,0.5-0.5v-3.1c0-0.4,0-0.5-0.5-0.5V439h1.6c0.4,0,0.9,0.1,1.3,0.3c0.5,0.5,0.6,1.3,0.1,1.8
		c0,0,0,0-0.1,0.1c-0.4,0.3-0.9,0.4-1.4,0.3h-0.5v1.3c0,0.4,0,0.5,0.6,0.5v0.2h-1.6C47.8,443.5,47.8,443.4,47.8,443.4z M49.5,441.2
		c0.7,0,1.1-0.2,1.1-1c0-0.9-0.7-1-1.1-1h-0.3c-0.1,0-0.1,0.1-0.1,0.4v1.6H49.5z"/>
	<path d="M55.8,439.2c-0.4,0-0.5,0-0.5,0.5v3.1c0,0.4,0,0.5,0.5,0.5v0.2h-1.5v-0.2c0.4,0,0.4,0,0.4-0.5v-1.5h-2v1.5
		c0,0.4,0,0.5,0.4,0.5v0.2h-1.5v-0.2c0.4,0,0.5,0,0.5-0.5v-3.1c0-0.4,0-0.5-0.5-0.5V439H53v0.2c-0.4,0-0.4,0-0.4,0.5v1.3h2v-1.3
		c0-0.4,0-0.5-0.4-0.5V439h1.5C55.8,439,55.8,439.2,55.8,439.2z"/>
	<path d="M56.2,441.2c0-1.6,0.7-2.3,1.9-2.3c1.4,0,1.9,1,1.9,2.3c0,1.4-0.5,2.3-1.9,2.3S56.2,442.6,56.2,441.2z M56.8,441.2
		c0,0.6,0.1,1.2,0.4,1.7c0.4,0.5,1.1,0.6,1.6,0.2c0.1-0.1,0.1-0.1,0.2-0.2c0.3-0.5,0.4-1.1,0.4-1.7c0.1-0.6-0.1-1.2-0.4-1.7
		c-0.2-0.3-0.5-0.4-0.9-0.4C57,439.2,56.8,440.5,56.8,441.2L56.8,441.2z"/>
	<path d="M61.5,439l2.1,3.7l0,0v-3c0-0.4,0-0.5-0.5-0.5V439h1.2v0.2c-0.4,0-0.5,0-0.5,0.5v3.9h-0.4l-2.2-4l0,0v3.2
		c0,0.4,0,0.5,0.5,0.5v0.2h-1.2v-0.2c0.4,0,0.5,0,0.5-0.5v-3.1c0-0.4,0-0.5-0.5-0.5V439H61.5z"/>
	<path d="M67.8,443.5h-2.9v-0.2c0.4,0,0.5,0,0.5-0.5v-3.1c0-0.4,0-0.5-0.5-0.5V439h2.7l0.2,1h-0.3c-0.2-0.7-0.2-0.7-0.6-0.7h-0.8
		c-0.2,0-0.2,0-0.2,0.3v1.5h0.8c0.3,0,0.3-0.1,0.3-0.6h0.3v1.5H67c0-0.6,0-0.6-0.3-0.6h-0.8v1.7c0,0.2,0,0.3,0.2,0.3h1
		c0.4,0,0.4,0,0.6-0.7H68L67.8,443.5z"/>
	<path d="M71.1,439l2.1,3.7l0,0v-3c0-0.4,0-0.5-0.5-0.5V439h1.2v0.2c-0.4,0-0.5,0-0.5,0.5v3.9h-0.4l-2.2-4l0,0v3.2
		c0,0.4,0,0.5,0.5,0.5v0.2h-1.2v-0.2c0.4,0,0.5,0,0.5-0.5v-3.1c0-0.4,0-0.5-0.5-0.5V439H71.1z"/>
	<path d="M74.4,441.2c0-1.6,0.7-2.3,1.9-2.3c1.4,0,1.9,1,1.9,2.3c0,1.4-0.5,2.3-1.9,2.3S74.4,442.6,74.4,441.2z M75,441.2
		c0,0.6,0.1,1.2,0.4,1.7c0.4,0.5,1.1,0.6,1.6,0.2c0.1-0.1,0.1-0.1,0.2-0.2c0.3-0.5,0.4-1.1,0.4-1.7c0.1-0.6-0.1-1.2-0.4-1.7
		c-0.2-0.3-0.5-0.4-0.9-0.4C75.2,439.2,75,440.5,75,441.2z"/>
	<path d="M79.5,443.2c0,0.2-0.1,0.4-0.3,0.4c-0.2,0-0.3-0.2-0.3-0.4l0,0c0-0.2,0.1-0.3,0.3-0.4C79.2,442.9,79.5,443,79.5,443.2
		L79.5,443.2z"/>
	<path d="M77.2,99.7c0.4,0,0.7-0.1,1-0.3c0.1,0,0.2,0,0.2,0c0.2,0,0.2,0,0.5,0.3s0.4,0.4,0.4,0.5c0,0.2-0.1,0.3-0.2,0.5
		c0,0.1,0,0.8-0.1,0.9l-0.1,1.5v3.4c0,0.3,0,0.6-0.1,0.9c0,0.1-0.1,0.4-0.4,0.4s-0.4-0.2-0.5-0.5c-0.1-0.2-0.2-0.2-0.6-0.2H76
		l-1.5,0.2h-0.4l0,0l-0.1,0.1c0,0.1-0.1,0.2-0.2,0.3c-0.1,0.1-0.1,0.1-0.2,0.1c-0.3,0-0.5-0.7-0.5-0.8l0,0v-0.8v-1.3v-2v-1.4
		c0-1.1-0.1-1.3-0.5-1.5c0-0.1,0.1-0.3,0.4-0.3c0.1,0,0.3,0,0.4,0.1c0.2,0.1,0.3,0.1,0.5,0.2c0.1,0,0.3,0,0.4,0L77.2,99.7z
		 M78.2,102.9v-2.1c0-0.4,0-0.5-0.4-0.5l-2.5,0.3l-1.2,0.1v2.6h0.1L78.2,102.9z M78.2,105.2v-1.5h-0.4l-2.5,0.2l-1.2,0.1v2.6
		l2.8-0.2l1.3-0.1L78.2,105.2z"/>
	<path d="M92.2,104.2c0.1,0,0.4-0.1,0.5-0.1c0.3,0.1,0.6,0.2,0.9,0.3c0.1,0.1,0.2,0.2,0.2,0.4c0,0.3-0.4,0.4-0.5,0.4
		c0,0-0.2,0-0.3-0.1l-1.1-0.1h-0.4h-1h-0.7l-1.6,0.2l-0.9,0.1l-1.1,0.2l-1.1,0.2c-0.1,0-0.7,0.3-0.8,0.3c-0.2,0-1.2-0.4-1.2-0.9
		c0-0.1,0.1-0.3,0.2-0.3c0,0,0.4,0.1,0.5,0.2c0.1,0,0.3,0.1,0.4,0c0.1,0,0.2,0,0.3,0l-0.1-2.2l-0.1-1c0-0.3-0.2-0.7-0.5-0.9
		c-0.1-0.1-0.1-0.1-0.1-0.2c0-0.2,0.2-0.3,0.3-0.3c0.2,0,0.3,0.1,0.5,0.1c0.2-0.2,0.7-0.8,0.7-1c0-0.1-0.1-0.3-0.1-0.4
		s0.1-0.2,0.2-0.2c0.4,0.1,0.8,0.4,0.9,0.8c0,0.1,0,0.2-0.1,0.2l-0.7,0.6c0,0-0.3,0.2-0.5,0.3c0.2,0.1,0.2,0.2,0.2,0.3v0.3
		c0.2-0.1,0.3-0.1,0.5-0.2s0.2-0.1,0.3-0.1c0.3,0,0.6,0,0.6,0.4c0,0.1-0.1,0.3-0.3,0.3l-0.9,0.2l-0.2,0.1c0,0.3,0,0.4,0.1,0.9
		l0.4-0.1c0,0,0.3-0.1,0.3-0.2c0.1,0,0.1,0,0.2,0c0.2,0,0.5,0.1,0.5,0.3v-0.5v-1.3c0-1.5-0.1-1.7-0.5-2.2c0,0-0.1-0.1-0.1-0.2
		s0.1-0.2,0.3-0.2c0.2,0,0.3,0.1,0.4,0.1s0.2,0,0.3,0l0.9-0.2c0.5-0.1,1-0.2,1.5-0.4h0.1c0.3,0,0.5,0.1,0.7,0.3
		c0.2,0.1,0.3,0.2,0.3,0.4c0,0.1,0,0.1,0,0.2c-0.1,0.2-0.1,0.4-0.1,0.6l-0.1,1.2v2.1c0,0.1,0,0.2,0,0.3s0,0.4,0,0.4
		c0,0.1,0,0.1,0,0.2l1.2-0.1l0.1-0.3l0.1-0.8c-0.1,0-0.7,0.1-0.8,0.1c-0.3,0-0.5-0.4-0.5-0.6c0-0.1,0.1-0.2,0.2-0.2l0.3,0.1h0.2
		c0.2,0,0.5,0,0.7,0c0-0.1,0-0.2,0.1-0.8c-0.2,0-0.9,0.1-1,0.1c-0.2,0-0.6-0.4-0.6-0.6c0-0.1,0.1-0.2,0.2-0.2l0,0c0.1,0,0.5,0,0.6,0
		c0,0,0.6,0,0.7,0c0-0.1,0.1-0.7,0.1-0.7c-0.5,0-0.8,0-0.8,0c-0.3-0.1-0.6-0.3-0.7-0.6c0-0.1,0.1-0.1,0.1-0.1h0.2c0.3,0,0.7,0,1-0.1
		c0.2-0.1,0.4-0.1,0.5-0.2c0.2,0,0.8,0.4,0.8,0.7c0,0.2-0.1,0.3-0.2,0.4s-0.1,0.2-0.1,0.3L92.2,104.2z M86.7,105.7
		c0.2,0.1,0.5,0.2,0.7,0.3c0.2,0.2,0.3,0.2,0.3,0.4c0,0.2-0.3,0.4-0.7,0.7c-0.7,0.5-1.4,0.9-2.2,1.2c-0.2,0.1-0.5,0.1-0.8,0.2
		c-0.2,0-0.2-0.1-0.2-0.2s0-0.1,0.5-0.3c0.5-0.3,1-0.6,1.5-1c0.2-0.2,0.7-0.6,0.7-0.8c0-0.1,0-0.2-0.1-0.3
		C86.4,105.8,86.6,105.7,86.7,105.7L86.7,105.7z M85.2,104.9L85.2,104.9l1.3-0.2v-1.3c0,0.1-0.1,0.2-0.4,0.3c-0.3,0.1-0.7,0.2-1,0.3
		L85.2,104.9z M87.2,101.8C87.2,101.8,87.2,101.8,87.2,101.8c0.3-0.1,0.5-0.1,0.7-0.1c0.1,0,0.8-0.2,0.9-0.2
		c0.2,0.1,0.5,0.2,0.6,0.4v-1.1v-0.8c0-0.1,0-0.3,0-0.4c0-0.2-0.1-0.2-0.3-0.2l-1,0.2l-1,0.2v0.7h0.1c0.3,0,0.6,0,0.9-0.1
		c0.4-0.2,0.4-0.2,0.6-0.2c0.3,0,0.5,0.2,0.5,0.4c0,0.2-0.1,0.3-0.3,0.3l-1.1,0.3c-0.1,0-0.2,0-0.2,0c-0.2,0-0.3-0.1-0.4-0.3
		L87.2,101.8z M87.2,103.9c0,0.1,0,0.2,0,0.7l2.1-0.2V102c-0.2,0.3-0.3,0.7-0.3,1.1c0,0.1,0.1,0.1,0.1,0.2c0,0.2-0.2,0.4-0.4,0.3
		l0,0c-0.2,0-0.4,0-0.6,0c-0.3,0.2-0.3,0.2-0.4,0.2c-0.2,0-0.3-0.3-0.3-0.3c0-0.2-0.1-1.2-0.1-1.2c0-0.1-0.1-0.2-0.1-0.2L87.2,103.9
		z M88.6,102.3L88.6,102.3c-0.2-0.1-0.4,0-0.6,0c0,0.1,0,0.3,0,0.5c0,0.1,0,0.2,0,0.3c0.1,0,0.3-0.1,0.4-0.1
		C88.5,102.9,88.6,102.4,88.6,102.3L88.6,102.3z M91.4,107.6c-0.5-0.6-1.2-1.1-1.9-1.5c-0.2-0.1-0.3-0.2-0.3-0.2
		c0-0.2,0.1-0.2,0.2-0.2c0.4,0.1,0.8,0.2,1.2,0.3c2,0.9,2.3,1.7,2.3,2c0,0.2-0.2,0.4-0.4,0.5c-0.2,0-0.3-0.1-0.5-0.2L91.4,107.6z"/>
	<path d="M98.8,102.9l-0.6,0.1c-0.1,0-0.6,0.2-0.7,0.2c-0.3,0-1.1-0.5-1.1-1c0-0.1,0-0.1,0.2-0.3c0.1,0.1,0.2,0.2,0.4,0.2
		c0.1,0,0.3,0,0.4,0.1l0.9-0.1l1.6-0.2v-0.1l0.1-1.1c0-0.2,0-0.6,0-0.8c0-0.3,0-0.7-0.1-1c-0.1-0.2-0.1-0.2-0.4-0.5
		c0-0.1,0-0.1,0.1-0.2s0.2-0.1,0.3-0.1c0.3,0.1,0.7,0.2,0.9,0.4c0.3,0.3,0.4,0.4,0.4,0.5s-0.1,0.4-0.1,0.5c0,0.2-0.1,1-0.2,1.1
		l-0.1,1l1.8-0.3c0.3,0,0.6-0.1,0.9-0.2c0.1,0,0.2-0.1,0.3-0.1c0.3,0,1.3,0.3,1.3,0.7c0,0.1-0.1,0.3-0.4,0.3c-0.1,0-0.5,0-0.5,0
		s-0.2,0-0.5,0h-1l-1.6,0.1l0.7,1l0.9,1.1l1.1,1.1l0.9,0.8l0.7,0.6c0.3,0.2,0.7,0.4,1,0.6c0.1,0.1,0.1,0.1,0.1,0.2
		c-0.2,0.1-0.5,0.2-1.4,0.2c-0.7,0-0.8,0-1.1-0.5l-0.5-0.6l-0.7-0.9l-0.6-0.9l-0.7-1.1l-0.5-0.8l-0.2-0.3c-0.2,1-0.6,2-1.2,2.9
		c0.1,0,0.2,0,0.3,0c0.5,0.1,0.9,0.4,1.3,0.6c0.3,0.2,0.6,0.6,0.6,1c0,0.2-0.1,0.6-0.4,0.6c-0.2,0-0.3-0.1-0.4-0.3
		c-0.3-0.6-0.7-1.1-1.2-1.5c-0.2-0.2-0.2-0.2-0.3-0.3c-0.8,1.1-1.9,1.8-3.3,2.1c-0.2,0-0.2,0-0.2-0.1s0-0.1,0.2-0.2
		c0.5-0.2,0.9-0.5,1.3-0.8c0.8-0.6,1.5-1.4,1.9-2.4c0.3-0.6,0.5-1.2,0.6-1.9L98.8,102.9z"/>
	<path d="M111.4,99.9c0.2,0,0.4-0.1,0.5-0.2l0,0c0.3,0.1,0.5,0.2,0.7,0.4c0.1,0.1,0.1,0.1,0.1,0.2s-0.1,0.3-0.1,0.4
		c-0.1,0.2-0.1,0.4-0.1,0.6l-0.1,0.9l-0.1,1c0,0.1-0.1,0.6-0.4,0.6c-0.2,0-0.3-0.1-0.4-0.3c0,0-0.1,0-0.2,0l-1,0.1
		c0,0-0.7,0.1-0.9,0.1v2.7c0.1,0,0.5-0.2,0.6-0.3l0.8-0.4l0.6-0.4c-0.2-0.3-0.4-0.7-0.6-1c-0.1-0.1-0.1-0.1-0.1-0.2h0.1
		c0.4,0,1.8,1,1.8,1.8c0,0.2-0.1,0.5-0.2,0.7c-0.1,0.1-0.2,0.1-0.3,0.1c-0.1,0-0.3-0.1-0.3-0.2c0,0-0.2-0.7-0.3-0.8l-0.7,0.6
		l-1.3,0.9c-0.2,0.1-0.3,0.2-0.4,0.4c0,0-0.1,0-0.2,0c-0.2,0-0.2,0-0.6-0.4c-0.1-0.1-0.2-0.2-0.2-0.3c0-0.1,0-0.1,0.2-0.4
		c0.2-0.4,0.2-0.9,0.2-1.3v-1.3v-1.7v-1.1c0-0.3,0-0.4-0.2-0.6c-0.2-0.3-0.3-0.4-0.3-0.6c0-0.1,0-0.1,0.1-0.1s0.3,0.1,0.3,0.1
		c0.2,0,0.3,0.1,0.5,0.1c0.1,0,0.3,0,0.4,0l0.7-0.1c0-1,0-1.3-0.5-1.7c0.1-0.2,0.3-0.2,0.4-0.2c0.3,0,0.5,0.1,0.8,0.3
		c0.3,0.2,0.3,0.2,0.3,0.3c0,0.1-0.1,0.6-0.2,0.7c0,0.2-0.1,0.3-0.1,0.5L111.4,99.9z M109.4,103.2l2.2-0.2l0.1-0.9l-1.2,0.1l-1,0.1
		v0.1L109.4,103.2z M111.8,101.3c0-0.3,0-0.5,0-0.8h-0.1c0,0-0.7,0.1-0.8,0.1l-1.4,0.2c0,0.3,0,0.4,0,0.8L111.8,101.3z M116.2,105.8
		c0.1,0,0.1,0,0.2,0c0.4,0,0.5-0.4,0.5-1.1c0-0.9-0.5-1.7-1.2-2.1c-0.2-0.1-0.3-0.2-0.3-0.3c0-0.1,0-0.1,0.2-0.4l0.6-1
		c0.2-0.3,0.3-0.6,0.4-1l-0.7,0.1l-1,0.2h-0.1v1.4v2.5v3.5c0,0.6,0,1.4-0.4,1.4c-0.3,0-0.5-0.8-0.5-1.2v-0.1l0.1-1V105v-3.7
		c0-1.1,0-1.6-0.4-1.8c0-0.1,0.1-0.2,0.3-0.2c0.2,0,0.4,0,0.6,0.1c0.1,0.1,0.2,0.1,0.3,0.1c0,0,0.1,0,0.3,0l1.3-0.2
		c0.2,0,0.4-0.1,0.5-0.2s0.2-0.1,0.3-0.1c0.2,0,0.3,0.1,0.6,0.5c0.1,0.1,0.1,0.2,0.2,0.3c0,0.1,0,0.2-0.1,0.2
		c-0.2,0.1-0.3,0.2-0.5,0.4l-0.9,1.3c0,0.1-0.3,0.3-0.3,0.4v0.1c0,0,0.1,0.1,0.2,0.1c0.3,0.2,0.6,0.4,0.8,0.7
		c0.5,0.5,0.7,1.2,0.7,1.9c0,1.4-0.8,2.1-1.3,2.1c-0.2,0-0.3-0.1-0.3-0.2c0-0.2-0.1-0.4-0.3-0.5l-0.6-0.4c-0.2-0.2-0.3-0.2-0.2-0.3
		c0,0,0-0.1,0.1-0.1s0.2,0.1,0.3,0.1L116.2,105.8z"/>
	<path d="M92.4,139.6l-0.2-1.3c-0.1-0.6-0.3-0.8-0.5-0.9c0-0.2,0.2-0.3,0.4-0.3c0.2,0,0.4,0.1,0.5,0.1s0.2,0.1,0.4,0.1
		c0,0,0.4,0,0.5,0l1.5-0.2v-0.9l-1.3,0.2c-0.2,0-0.9,0.2-1,0.2c-0.2,0-0.9-0.5-0.9-0.9c0-0.1,0-0.1,0.1-0.2c0.3,0.2,0.7,0.2,1,0.2
		c0.1,0,0.2,0,0.6,0l1.5-0.1c0-0.6,0-1.1-0.4-1.4c0-0.1,0.2-0.2,0.3-0.2c0.2,0,0.4,0.1,0.6,0.2c0.3,0.1,0.4,0.2,0.4,0.4
		c0,0.1,0,0.7-0.1,0.9l0.9-0.1c0.4,0,0.7-0.1,1.1-0.2c0,0,0.1,0,0.2,0c0.4,0,1,0.2,1,0.6c0,0.1-0.1,0.2-0.2,0.2
		c-0.3,0.1-0.6,0.1-0.9,0.1l-1.3,0.1l-0.7,0.1v0.9l1.2-0.2c0.2,0,0.5-0.1,0.7-0.2c0.1,0,0.2-0.1,0.3-0.1c0.2,0,1,0.4,1,0.7
		c0,0.1,0,0.1-0.2,0.5c0,0.1-0.1,0.2-0.1,0.3l-0.4,1.6c-0.1,0.6-0.2,0.7-0.3,0.8c-0.1,0.1-0.2,0.1-0.3,0.1c-0.2,0-0.2-0.1-0.3-0.2
		c-0.1-0.1-0.2-0.1-0.3-0.1h-0.7h-0.5c1.5,1.1,3,2,4.7,2.8c0.3,0.1,0.3,0.1,0.3,0.2c-0.1,0.1-0.5,0.2-0.6,0.2l-0.8,0.1h-0.5
		c-0.1,0-0.2,0-0.5-0.3c-0.7-0.6-0.8-0.7-1.8-1.6c-0.6-0.6-0.7-0.6-1-1v2.7c0,0.7-0.1,1.1-0.4,1.1c-0.4,0-0.5-0.9-0.5-0.9l0,0
		l0.1-0.6v-0.8v-1c-0.7,0.8-1.6,1.5-2.6,2c-0.5,0.3-1.1,0.5-1.8,0.6c0,0-0.2,0-0.2-0.1s0.1-0.1,0.1-0.1c1.5-0.8,2.8-1.8,3.8-3.1
		c-0.4,0-0.8,0.1-1.1,0.2c-0.1,0.1-0.1,0.1-0.2,0.2h-0.1c-0.4,0-0.5-0.5-0.5-0.7V139.6z M94.9,137.9l-1,0.1l-0.9,0.1l0.1,0.4v0.3
		c0.5,0,0.8-0.1,1.9-0.2L94.9,137.9z M93.2,140.1l1.1-0.1l0.6-0.1V139l-1,0.1l-0.8,0.1L93.2,140.1z M96.7,138.4l1.1-0.1l0.1-0.5
		v-0.1c0-0.1-0.2-0.1-0.2-0.1h-0.3l-1,0.1l-0.6,0.1v0.4v0.3L96.7,138.4z M95.7,139.9l1.4-0.1c0.2,0,0.2,0,0.3,0l0.2-0.8h-0.1
		l-1.8,0.1v0.6V139.9z"/>
	<path d="M106.1,136.1l1.2-0.2c0-0.9-0.1-1.3-0.6-1.5c0-0.1,0-0.2,0.1-0.2s0.2-0.1,0.3-0.1c0.3,0,1.1,0.3,1.1,0.6c0,0-0.1,0.9-0.1,1
		l1-0.1l1-0.2c0.2,0,0.5-0.1,0.7-0.2h0.1c0.4,0,0.7,0.1,1,0.3c0.2,0.1,0.3,0.2,0.3,0.4c0,0.1,0,0.2-0.1,0.2
		c-0.1,0.1-0.2,0.1-0.3,0.1l0,0c-0.5,0-0.9-0.1-1.4-0.1c-1.9,0.1-3.7,0.3-5.6,0.7c-0.1,0-0.7,0.2-0.8,0.2c-0.3-0.1-0.6-0.3-0.9-0.5
		c-0.1-0.1-0.2-0.3-0.2-0.4c0-0.1,0-0.2,0.1-0.2c0.4,0.3,0.8,0.4,1.3,0.3c0.1,0,0.5-0.1,0.8-0.1H106.1z M103.5,143.6
		c1.2-1.2,1.4-1.8,1.4-2.1c0-0.2-0.1-0.2-0.2-0.4c0.1-0.1,0.1-0.2,0.2-0.2c0.3,0,1,0.5,1,0.8c0,0.2-0.8,1-1,1.2
		c-0.5,0.5-1,0.8-1.7,1c0,0,0,0-0.1-0.1C103.2,143.8,103.2,143.6,103.5,143.6L103.5,143.6z M107.9,137.6l1.2-0.2
		c0.1,0,0.2,0,0.3-0.1c0.1-0.1,0.3-0.1,0.4-0.1c0.2,0,1,0.5,1,0.8c0,0.1,0,0.2-0.1,0.2c-0.1,0.1-0.2,0.2-0.2,0.4l-0.4,0.7l-0.1,0.2
		v0.2c0,0.3-0.2,0.2-0.7,0.2h-0.6c-0.2,0-0.6,0.1-0.7,0.1c0.1,0.2,0.2,0.3,0.2,0.4c0,0.1,0,0.2,0,0.3s0,0.3,0,0.5v2
		c0.1,0.4,0,0.7-0.2,1.1c-0.1,0.1-0.2,0.2-0.3,0.2c-0.2,0-0.2,0-0.3-0.2c-0.2-0.3-0.4-0.6-0.7-0.8l-0.3-0.3V143c0,0,0-0.1,0.1-0.1
		s0.7,0.1,0.8,0.1c0.1,0,0.2,0,0.2-0.1c0-0.2,0-0.5,0-0.7v-1.3c0-0.6-0.1-0.8-0.2-0.9l-0.7,0.1c-0.1,0-0.3,0.1-0.3,0.2
		c-0.1,0-0.1,0.1-0.2,0.1s-0.2-0.1-0.3-0.1c-0.2-0.2-0.2-0.4-0.3-0.8l-0.2-0.9c-0.1-0.8-0.2-0.9-0.4-1c0-0.1,0.1-0.2,0.4-0.2
		c0.1,0,0.2,0,0.4,0.1c0.1,0,0.2,0.1,0.2,0.1c0.1,0,0.3,0,0.4,0L107.9,137.6z M107.2,139.6l1.4-0.2c0.2,0,0.6-0.1,0.6-0.1
		c0.1,0,0.1,0,0.1-0.2l0.2-0.7c0-0.1,0-0.1,0-0.2c0-0.1-0.1-0.1-0.2-0.1s-0.5,0-0.6,0.1l-0.8,0.1l-1.3,0.2l-0.8,0.1
		c0,0.1,0.2,1.1,0.2,1.3L107.2,139.6z M109.2,140.9c0,0,0.1-0.1,0.2-0.1c0.5,0.1,1.1,0.3,1.5,0.6c0.6,0.3,1,0.8,1.1,1.5
		c0,0.5-0.3,0.6-0.4,0.6s-0.3-0.1-0.4-0.4C110.7,142.4,110.1,141.6,109.2,140.9L109.2,140.9z"/>
	<path d="M117.1,138.4l-0.8,0.2c-0.1,0-0.5,0.2-0.6,0.2c-0.3,0-0.9-0.5-0.9-0.8c0-0.1,0-0.1,0.1-0.2c0.2,0.1,0.4,0.2,0.6,0.2
		c0.3,0,0.6,0,0.9-0.1l1.4-0.3l0,0v-0.8l-0.7,0.1c-0.1,0-0.3,0.1-0.4,0.1c-0.3,0-0.8-0.4-0.8-0.6c0-0.1,0-0.1,0.1-0.1
		c0.2,0.1,0.4,0.1,0.6,0.1c0.4,0,0.8-0.1,1.2-0.2c0-0.4,0-0.8-0.1-1.2c-0.1-0.2-0.2-0.4-0.4-0.6c0-0.1,0.2-0.2,0.3-0.2
		c0.1,0,1.1,0.2,1.1,0.7c0,0.1,0,0.5-0.1,0.6c0,0.3,0,0.4,0,0.6c0.2,0,0.3-0.1,0.5-0.2h0.1c0.1,0,0.3,0,0.4,0.1c0,0,0.1,0,0.1,0.1
		c0.2-0.2,0.3-0.5,0.3-0.8c0-0.2,0-0.3-0.1-0.5c0-0.1,0.1-0.1,0.2-0.1c0.4,0.1,0.8,0.4,0.9,0.9c0,0.1,0,0.2-0.1,0.2
		c-0.1,0.2-0.2,0.3-0.3,0.3l-0.8,1.2c0.2,0,0.5-0.1,0.7-0.2h0.1c0,0,0.8,0.1,0.8,0.5c0,0.2-0.2,0.3-0.4,0.3l-1,0.1l-0.8,0.1
		c-0.3,0.5-0.7,0.9-1.1,1.4l0.7-0.1c0.2,0,0.5-0.1,0.7-0.2c0.1,0,0.2-0.1,0.3-0.1c0.1,0,0.8,0.3,0.8,0.6c0,0.1,0,0.1-0.1,0.2
		c-0.1,0.1-0.1,0.3-0.1,0.5v0.8v0.8v0.9c0,0.6-0.2,1-0.4,1c-0.2,0-0.2-0.1-0.4-0.4c-0.1-0.1-0.1-0.1-0.3-0.1l-1.5,0.2
		c-0.1,0.3-0.1,0.5-0.4,0.5s-0.5-0.7-0.5-0.7l0,0V143v-1.7c0-0.3,0-0.5-0.1-0.8c-0.4,0.4-0.9,0.7-1.4,0.9c-0.2,0.1-0.4,0.2-0.6,0.2
		c-0.1,0-0.1,0-0.2,0c0-0.1,0-0.1,0.1-0.2c1.3-0.9,2.4-2,3.3-3.3L117.1,138.4z M117.7,140.9h0.3l1.4-0.2c0.1,0,0.1,0,0.2,0v-0.2
		v-0.6c0-0.1,0-0.1-0.2-0.1l-1.5,0.2h-0.2L117.7,140.9z M118.6,141.6l-0.9,0.1v0.1v0.8v0.2l1.6-0.2c0.1,0,0.1,0,0.2,0s0.1,0,0.1-0.3
		v-0.8L118.6,141.6z M119.2,136.6c-0.3,0-0.5,0-0.8,0.1c0,0.1,0,0.7-0.1,0.8c0.1,0,0.3,0,0.3-0.1L119.2,136.6z M123.2,136.9
		c0.1-0.3,0.3-0.6,0.3-1c0,0,0-0.1-0.1-0.1s-0.1,0-0.2,0l-1,0.2h-0.2v7.8c0,0.3,0,1-0.3,1c-0.2,0-0.3-0.2-0.4-0.3
		c-0.1-0.3-0.2-0.6-0.2-0.9l0,0l0.1-0.8v-2.4v-2.7v-1c0-0.5,0-1-0.3-1.3c0-0.1,0.1-0.1,0.2-0.1c0.2,0,0.3,0,0.7,0.2h0.1
		c0.5-0.1,0.9-0.2,1.4-0.3c0.1-0.1,0.2-0.1,0.3-0.1c0.3,0.1,0.6,0.2,0.8,0.4c0.3,0.2,0.3,0.3,0.3,0.4c0,0.1,0,0.1-0.2,0.3
		c-0.1,0.1-0.2,0.2-0.3,0.3l-0.4,0.6c-0.3,0.4-0.5,0.7-0.6,0.9c0.5,0.3,0.9,0.6,1.2,1.1c0.3,0.4,0.5,1,0.5,1.5s-0.1,0.9-0.3,1.4
		c-0.3,0.3-0.4,0.4-0.7,0.4c-0.2,0-0.2,0-0.4-0.4c-0.2-0.3-0.5-0.5-0.8-0.7c-0.1-0.1-0.3-0.2-0.3-0.3c0,0,0-0.1,0.1-0.1
		c0.4,0.1,0.8,0.2,1.2,0.3c0.4,0,0.4-0.4,0.4-0.6c0-0.9-0.4-1.7-1.1-2.2c0,0-0.2-0.1-0.3-0.2c0,0,0-0.1-0.1-0.1
		c0-0.1,0.1-0.2,0.1-0.3L123.2,136.9z"/>
	<path d="M134.4,138.4c0.5,0,1-0.1,1.5-0.2c0.1,0,0.1,0,0.2,0c0.2,0,1.2,0.3,1.2,0.7c0,0.2-0.2,0.4-0.4,0.4l0,0h-0.6
		c-0.4,0-2.2,0-3.2,0.1h-0.5v1.7v1.1v1.4c0,0.3,0,1.2-0.5,1.2c-0.1,0-0.2-0.1-0.3-0.2c-0.1-0.2-0.2-0.5-0.2-0.8v-0.7v-2V140v-0.6
		c-1.1,0.1-1.9,0.3-2.6,0.4c-0.1,0-0.7,0.1-0.8,0.1c-0.6-0.1-1-0.5-1.2-1.1c0-0.1,0-0.1,0.1-0.2c0.5,0.2,1,0.3,1.4,0.3
		c0.3,0,0.6,0,0.8-0.1l1.3-0.1l0.9-0.1c0-1.8-0.1-1.9-0.3-2.1c-0.8,0.2-1.7,0.4-2.6,0.4c-0.3,0-0.3,0-0.4-0.1c0-0.1,0-0.1,0.3-0.1
		c1-0.3,2.1-0.6,3-1.1c1.3-0.6,1.4-0.8,1.4-1s-0.1-0.3-0.2-0.4c0-0.1,0.1-0.1,0.2-0.1c0.3,0.1,0.7,0.2,0.9,0.5
		c0.4,0.3,0.4,0.4,0.4,0.6s0,0.2-0.5,0.4c-0.5,0.3-1,0.5-1.5,0.6l-0.2,0.1c0,0,0.3,0.2,0.3,0.3c0.1,0,0.1,0.1,0.1,0.2
		c0,0.2,0,0.4,0,0.6c0,0.1,0,0.3,0,0.4v0.9L134.4,138.4z"/>
	<path d="M141.6,137.9c0.4,0.4,0.4,0.5,0.4,0.6s0,0.3,0,0.4v1.3v1.5v1.5c0,0.4,0,1.2-0.4,1.2s-0.6-0.9-0.6-1l0,0l0.1-0.6l0.1-1.1v-1
		v-1.2c0-0.3,0-0.6,0-0.9c-0.4,0.5-0.8,1-1.3,1.4c-0.4,0.3-0.5,0.3-0.6,0.3s-0.1,0-0.1-0.1c0.7-0.9,1.3-1.9,1.8-2.9
		c0.3-0.5,0.5-1.1,0.6-1.6c0-0.1,0-0.1,0-0.2c0-0.3-0.1-0.6-0.3-0.8c0-0.1,0.1-0.2,0.3-0.2c0.3,0,1.2,0.6,1.2,1c0,0.1,0,0.2-0.1,0.3
		c0,0.1-0.2,0.3-0.2,0.4L141.6,137.9z M144.8,137.6c-0.3-1.6-0.4-1.8-0.4-2c-0.1-0.4-0.4-0.8-0.8-0.8c0-0.2,0.1-0.4,0.6-0.4
		c0.3,0,0.6,0.1,0.8,0.2c0.3,0.1,0.3,0.3,0.3,0.6c0,0.1,0,0.3,0,0.4l0.1,0.8l0.1,0.9l0.5-0.2l0.6-0.2c0.3-0.1,0.5-0.2,0.7-0.3
		c0.1,0,0.2,0,0.3,0c0.4,0,1,0.1,1,0.5c0,0.3-0.2,0.3-0.6,0.4l-1.2,0.2l-1,0.3c0.2,1.1,0.6,2.1,1.1,3c0.7,1.3,1.5,1.9,1.7,1.9
		c0.1,0,0.2-0.1,0.2-0.4l0.3-1.1c0-0.1,0.1-0.5,0.1-0.5s0-0.1,0.1-0.1s0.1,0.1,0.2,0.7v1.3c0,0.3,0,0.6,0.2,0.8
		c0.1,0.1,0.1,0.2,0.1,0.3c0,0.2-0.2,0.4-0.4,0.4l0,0c-1-0.2-1.9-0.8-2.4-1.7c-0.9-1.4-1.6-2.9-2-4.5l-0.7,0.2
		c-0.2,0-0.3,0.1-0.6,0.3c-0.1,0-0.2,0.1-0.3,0.1c-0.2,0-1.1-0.4-1.1-0.8c0-0.1,0-0.1,0.1-0.2c0.2,0.1,0.4,0.1,0.6,0.1
		c0.3,0,0.6-0.1,1-0.2H144.8z M146.1,134.9c0.5,0,0.9,0.1,1.4,0.3c0.3,0.2,0.5,0.5,0.5,0.8c0,0.1,0,0.4-0.3,0.4
		c-0.2,0-0.3-0.1-0.5-0.3c-0.1-0.1-0.8-0.7-0.8-0.7c-0.2-0.1-0.4-0.2-0.5-0.3C145.8,134.9,145.8,134.9,146.1,134.9L146.1,134.9z"/>
	<path d="M156.2,135.9l1.4-0.1l1.4-0.1c0.4,0,0.7-0.1,1.1-0.2c0.1,0,0.3-0.1,0.4-0.1c0.5,0,1.1,0.9,1.1,1.1c0,0.1,0,0.2-0.1,0.2
		c-0.2,0.3-0.3,0.6-0.2,0.9l-0.1,1.2l-0.1,1.9l-0.2,1.5c0,0.3-0.1,0.9-0.5,0.9c-0.2,0-0.3-0.2-0.5-0.4c-0.1-0.1-0.3-0.2-0.5-0.2
		h-2.2l-2,0.1l-1.1,0.1c-0.1,0-0.1,0-0.3,0.2c-0.1,0.1-0.2,0.1-0.3,0.1s-0.2-0.1-0.3-0.1c-0.2-0.2-0.2-0.4-0.2-0.8l-0.1-1.8
		l-0.1-1.6l-0.1-1.3c0-0.4-0.1-0.7-0.2-1.1c-0.1-0.2-0.2-0.3-0.4-0.3c0-0.1,0.1-0.2,0.3-0.3c0.3,0,0.7,0,1,0.2
		c0.2,0.1,0.5,0.1,0.7,0L156.2,135.9z M154.9,138.9l1.2-0.1h0.2v-1c0-0.2,0-0.5,0-0.7c0-0.1,0-0.2-0.1-0.3h-0.1l-2.1,0.2l-0.6,0.1
		c0,0.1,0.1,1.6,0.1,1.8c0,0.1,0,0.2,0,0.3L154.9,138.9z M153.8,141.9c0,0.2,0,0.2,0,0.3l0,0l1.3-0.1l1.2-0.1v-2.4h-0.2l-1.5,0.1
		l-1,0.1L153.8,141.9z M157.2,138.4c0,0.1,0,0.2,0,0.3l1-0.1l1.9-0.1l0.1-1v-0.6c0-0.5-0.1-0.6-0.5-0.6l-1.2,0.1l-1.4,0.1
		c0.2,0.1,0.2,0.2,0.2,0.3s-0.1,0.4-0.1,0.5V138.4z M157.9,141.9h1.8c0,0,0.1,0,0.2,0l0.1-1l0.1-1.5l-2.4,0.1c-0.3,0-0.3,0-0.5,0
		v0.3v2.1L157.9,141.9z"/>
	<path d="M165.9,139.9v3.1l0,0l1.1-0.1l1.6-0.1l2.6-0.1c0.1,0,0.6,0,0.7,0c0.2,0,0.6-0.1,0.6-0.1c0.2,0,1.2,0.2,1.2,0.7
		c0,0.2-0.1,0.3-0.3,0.3l0,0c-0.1,0-0.6,0-0.8,0h-1.8l-2.2,0.1l-2.2,0.2c-0.2,0-0.5,0.1-0.7,0.1c-0.1,0-0.2,0.1-0.2,0.1
		c-0.2,0-0.6-0.4-0.6-0.6c0-0.1,0-0.2,0.1-0.3c0-0.1,0.1-0.3,0.1-0.4l0.1-1V140v-2.6c0-0.3,0-0.5,0-0.8c-0.3-0.4-0.5-0.6-0.5-0.8
		c0-0.1,0-0.2,0.1-0.2c0.4,0.2,0.8,0.3,1.2,0.3s4.1-0.3,4.6-0.3c0.3,0,0.6-0.1,0.8-0.1c0.2-0.1,0.4-0.1,0.6-0.2
		c0.3,0,0.6,0.1,0.8,0.3c0.1,0,0.3,0.3,0.3,0.4c0,0.3-0.4,0.3-0.5,0.3c-0.4,0-0.8,0-1.1,0c-1.5,0.1-2,0.2-3.9,0.3l-1.4,0.1
		L165.9,139.9z M166.2,141.9c0.7-0.5,1.3-1,1.9-1.6c0.2-0.2,0.5-0.5,0.7-0.7l0,0c-0.6-0.5-1.3-0.9-2.1-1.3c0,0-0.2-0.1-0.3-0.1
		l-0.1-0.1c0-0.1,0.1-0.1,0.2-0.1c0.9,0.2,1.8,0.5,2.7,1c0.8-1.1,0.9-1.4,0.9-1.9c0-0.1,0-0.3-0.1-0.4c0-0.1,0.1-0.1,0.2-0.1
		c0.5,0.1,0.9,0.5,1.1,1c0,0.1,0,0.2-0.4,0.6c0,0-0.2,0.3-0.3,0.4c-0.1,0.1-0.2,0.2-0.7,0.9c1.6,1,2,1.4,2,2.1c0,0.2,0,0.5-0.4,0.5
		c-0.2,0-0.2,0-0.8-0.7c-0.4-0.5-0.9-0.9-1.4-1.3c-0.7,0.7-1.5,1.3-2.3,1.8c-0.3,0.2-0.7,0.3-1,0.4c-0.1,0-0.1,0-0.2-0.1
		C165.9,141.9,166.1,141.9,166.2,141.9L166.2,141.9z"/>
	<path d="M179.7,138.1l-0.8,0.3c-0.3,0.1-0.5,0.2-0.8,0.3c-0.1,0-0.2,0.1-0.3,0.1c-0.3,0-1.1-0.7-1.1-1c0-0.1,0-0.2,0.1-0.3
		c0.2,0.2,0.6,0.4,0.9,0.3c0.1,0,0.3,0,0.4-0.1l1-0.3c0.2,0,0.3-0.1,0.7-0.2l0.1-1.3c0.1-0.4,0-0.7-0.2-1.1l-0.3-0.3
		c0-0.2,0.4-0.2,0.5-0.2c0.3,0.1,0.6,0.2,0.8,0.5c0.2,0.2,0.3,0.3,0.3,0.4c0,0.2-0.1,0.4-0.1,0.5s-0.1,0.2-0.1,0.3l-0.1,0.8l0.7-0.2
		c0.3-0.1,0.6-0.3,0.9-0.5c0.1-0.1,0.2-0.1,0.3-0.1c0.3,0.1,0.5,0.2,0.7,0.3c0.3,0.2,0.4,0.3,0.4,0.4c0,0.1,0,0.2-0.3,0.6
		c-0.1,0.2-0.1,0.2-0.3,0.8v0.1l-0.4,1.8l-0.1,1c-0.1,0.6-0.1,0.8-0.1,0.9c0,0.2,0.1,0.4,0.2,0.6c0.3,0.4,1.3,0.4,1.5,0.4
		c0.3,0,1,0,1.2-0.2c0.1-0.2,0.1-0.3,0.2-0.5l0.3-1.5c0-0.2,0-0.2,0.1-0.2s0.1,0.1,0.1,0.2l0.2,1.5l0.1,0.3c0.2,0.1,0.4,0.2,0.4,0.5
		c0,0.5-0.6,0.6-0.8,0.7c-0.5,0.1-1.1,0.1-1.6,0.1c-0.7,0-1.5-0.1-2.1-0.5c-0.4-0.4-0.7-0.9-0.6-1.5c0-0.3,0-0.6,0.1-0.8l0.1-1.1
		l0.5-2.7v-0.1c-0.1,0-0.2,0-0.3,0l-0.9,0.2c0,0-0.3,0.1-0.4,0.1c-0.1,0.8-0.3,1.6-0.6,2.3c0.5,0.3,1.1,0.8,1.1,1.4
		c0,0.4-0.2,0.5-0.4,0.5s-0.2,0-0.6-0.6c-0.1-0.2-0.3-0.4-0.5-0.6c-0.5,1-1.2,1.9-2.2,2.6c-0.4,0.3-0.9,0.5-1.4,0.6
		c-0.1,0-0.1,0-0.1-0.1l0,0c0-0.1,0-0.1,0.4-0.4c1.2-0.8,2.1-1.9,2.6-3.3c-0.3-0.3-0.7-0.5-1.1-0.7l-0.1-0.1c0-0.1,0.1-0.1,0.2-0.1
		c0.4,0.1,0.8,0.2,1.2,0.4c0.2-0.5,0.3-1,0.4-1.5L179.7,138.1z"/>
	<path d="M193.1,139.9l-0.4,1l-0.4,0.8c-0.5,1.1-1,1.4-1.4,1.4c-0.4-0.1-0.7-0.3-0.8-0.6l-0.4-1l-0.4-0.8c-0.1-0.1-0.1-0.3-0.1-0.5
		c0.1-0.6,0.3-1.3,0.7-1.8c1.1-1.6,2.8-2.5,4.7-2.6c0.9-0.1,1.8,0.2,2.5,0.8c0.7,0.7,1.2,1.7,1.1,2.8c0,2-1.6,3.7-3.6,4
		c0,0-0.1,0-0.1-0.1c0.1-0.1,0.3-0.2,0.4-0.3c1.3-0.7,2.2-2.1,2.2-3.6c0-1.1-0.5-2.1-1.5-2.6c-0.4-0.2-0.9-0.3-1.3-0.2
		c-0.1,0-0.3,0-0.3,0.1s0.1,0.3,0.1,0.3v0.1l-0.6,1.7L193.1,139.9z M192.8,136.9c-0.7,0.3-1.4,0.8-1.9,1.4c-0.4,0.5-0.7,1.1-0.9,1.7
		c0,0.3,0.1,0.6,0.3,0.9c0.4,0.9,0.5,1,0.7,1c0.1,0,0.2,0,0.4-0.3c0.7-1.1,1.2-2.3,1.6-3.5c0-0.2,0.3-0.9,0.3-1s0-0.2,0-0.3
		C193.1,136.6,192.9,136.8,192.8,136.9L192.8,136.9z"/>
	<path d="M208.2,136.4c0.3,0,0.6-0.1,1-0.2c0.1,0,0.2,0,0.3,0s0.9,0.5,0.9,0.8c0,0.2-0.1,0.4-0.1,0.5c-0.1,0.3-0.1,0.7-0.1,1v1.3
		v1.2v1.5c0,1.3-0.5,2-0.8,2c-0.2,0-0.3-0.1-0.4-0.3c-0.1-0.1-0.2-0.2-0.3-0.3l-0.4-0.4c-0.1-0.1-0.5-0.4-0.6-0.5
		c-0.1,0-0.1-0.1-0.1-0.2c0-0.1,0-0.1,0.1-0.1s0.2,0,0.3,0.1c0.3,0.1,0.6,0.2,0.9,0.2c0.2,0,0.3-0.4,0.3-0.6v-1.3v-2.1v-1.3
		c0-0.6,0-0.6,0-0.6c0-0.1-0.1-0.1-0.4-0.1l-1.3,0.1l-1.2,0.1c-0.1,0.5-0.2,0.9-0.4,1.3c0.8,0.3,1.5,0.7,2.2,1.2
		c0.4,0.3,0.7,0.8,0.7,1.4c0,0.2-0.1,0.5-0.4,0.5c-0.2,0-0.3-0.1-0.5-0.4c-0.1-0.1-0.4-0.6-0.5-0.6c-0.5-0.7-1-1.2-1.7-1.6
		c-0.5,1.2-1.6,2.2-2.8,2.6v1.6c0,0.2-0.2,0.8-0.5,0.8s-0.5-0.3-0.5-0.7c0-0.1,0-0.8,0-0.9v-1.1v-1.4v-1.6c0-1.1-0.2-1.4-0.4-1.5
		c0-0.1,0.1-0.2,0.4-0.2c0.3,0,0.3,0,0.7,0.3c0.1,0.1,0.3,0.1,0.4,0.1c0.1,0,0.3,0,0.3,0l0.9-0.1l1.3-0.1c0.1-0.4,0.1-0.9,0.2-1.3
		c0-0.4-0.1-0.7-0.4-1c0-0.2,0.4-0.3,0.4-0.3c0.2,0,0.3,0.1,0.7,0.4c0.2,0.1,0.3,0.2,0.3,0.4c0,0.1-0.1,0.5-0.1,0.6
		c0,0.2-0.2,1-0.2,1.2L208.2,136.4z M203.4,137.6c-0.2,0-0.4,0.1-0.6,0.1v0.2v1.7v1.7c0,0,0.3-0.2,0.3-0.3c0.6-0.5,1.1-1.1,1.5-1.8
		c0.3-0.6,0.6-1.2,0.7-1.9L203.4,137.6z"/>
	<path d="M220.6,139.4l-2.5-2.4l0.5-0.5l2.5,2.4l2.5-2.4l0.5,0.5l-2.5,2.4l2.5,2.4l-0.5,0.5l-2.5-2.5l-2.5,2.5l-0.5-0.5L220.6,139.4
		z"/>
	<path d="M227.9,140.6h2.4v0.9h-2.4V140.6z"/>
	<path d="M236.6,139.4l-2.5-2.4l0.5-0.5l2.5,2.4l2.5-2.4l0.5,0.5l-2.5,2.4l2.5,2.4l-0.5,0.5l-2.5-2.5l-2.5,2.5l-0.5-0.5L236.6,139.4
		z"/>
	<path d="M243.9,140.6h2.4v0.9h-2.4V140.6z"/>
	<path d="M252.6,139.4l-2.5-2.4l0.5-0.5l2.5,2.4l2.5-2.4l0.5,0.5l-2.5,2.4l2.5,2.4l-0.5,0.5l-2.5-2.5l-2.5,2.5l-0.5-0.5L252.6,139.4
		z"/>
	<path d="M264.8,139.4l-2.5-2.4l0.5-0.5l2.5,2.4l2.5-2.4l0.5,0.5l-2.5,2.4l2.5,2.4l-0.5,0.5l-2.5-2.5l-2.5,2.5l-0.5-0.5L264.8,139.4
		z"/>
</g>
</svg>
