<svg xmlns="http://www.w3.org/2000/svg" width="162.5" height="104.5" viewBox="0 0 162.5 104.5"><defs><style>.a{fill:#ffffd7;stroke:#000;}.a,.b,.c,.d,.g{stroke-miterlimit:10;}.a,.b,.c,.d{stroke-width:0.5px;}.b,.c,.d,.g{fill:none;}.b,.c,.d{stroke:#231815;}.c{stroke-dasharray:1 1;}.d{stroke-dasharray:0.989 0.989;}.e{fill:#212121;}.f{fill:#ff1d25;}.g{stroke:#ff1d25;stroke-width:0.308px;}</style></defs><title>27-2</title><rect class="a" x="0.25" y="0.25" width="162" height="104" rx="4.798" ry="4.798"/><path d="M9.318,12.854H7.29a3.323,3.323,0,0,1-.562,2.192l-.05-.033a4.2,4.2,0,0,0,.394-2.072v-.906l.258.111H9.285l.1-.134.294.207a.28.28,0,0,1-.144.07v.658a.279.279,0,0,1-.217.067Zm0-.628H7.29v.547H9.318Zm.094,1.123.287.207a.275.275,0,0,1-.144.07v1.327a.276.276,0,0,1-.214.073v-.194H7.7v.141s-.027.08-.214.08V13.378l.234.107h.682v-.534l.347.03c0,.047-.037.067-.133.08v.424h.688Zm-1.006.216H7.7v.545h.7Zm-.7.625v.562h.7V14.19Zm1.637-.625H8.62v.545h.721ZM8.62,14.752h.721V14.19H8.62Z"/><path d="M12.866,13.636l.351.027c-.007.05-.037.073-.137.083v1.2c0,.007-.034.073-.214.073v-.287h-2.2v.244c0,.006-.029.073-.21.073V13.636l.348.027c-.007.05-.034.073-.138.083v.906h.979V13.325h-.808v.14c0,.007-.033.074-.214.074v-1.27l.351.027c-.007.047-.037.073-.137.083v.866h.808V11.972l.375.033c0,.054-.044.077-.157.09v1.15H12.7v-.976l.35.027c0,.047-.036.073-.136.083v1.07c0,.007-.027.073-.214.073v-.2h-.829v1.327h1Z"/><path d="M16.511,13.816l.321.221c-.027.05-.067.073-.164.073h-1.2v.869c0,.017-.074.07-.187.07h-.037V14.11H13.761l-.024-.08h.569v-.956l.26.111h.682v-.652h-.735a2.752,2.752,0,0,1-.7.819l-.046-.034a3.872,3.872,0,0,0,.751-1.413l.341.123c-.013.04-.04.06-.127.054a3.85,3.85,0,0,1-.176.371h1.633l.167-.211.315.221c-.024.05-.064.07-.161.07H15.472v.652h.611l.157-.2.3.208c-.027.05-.067.07-.161.07h-.9v.765h.872Zm-1.989.214h.726v-.765h-.726Z"/><path d="M19.508,12.072l.294.217a.279.279,0,0,1-.147.07v2.366c0,.177-.053.3-.384.324,0-.183-.154-.217-.425-.23v-.047h.508c.061,0,.081-.013.081-.054v-.885H18.051a1.6,1.6,0,0,1-.782,1.216l-.043-.04a2.05,2.05,0,0,0,.645-1.734v-1.17l.26.111H19.4Zm-1.42,1.2a4.575,4.575,0,0,1-.024.482h1.371v-.7H18.088Zm1.347-.975H18.088v.678h1.347Z"/><path d="M22.9,12.169l.291.217a.287.287,0,0,1-.148.07v2.43c0,.006-.06.083-.22.083v-.277H21.181v.237c0,.007-.013.093-.214.093V12.2l.238.113h1.58Zm-.077.227H21.181v1.049h1.638Zm-1.638,2.216h1.638V13.525H21.181Z"/><path d="M98.316,99.633l-.024-.08h1.437v-.561l.378.033c0,.054-.044.077-.157.094v.434h.959l.164-.211.317.221c-.026.047-.067.07-.16.07Zm.9.756a2.028,2.028,0,0,0,.615.805,2.418,2.418,0,0,0,.535-.819l.327.144c-.016.03-.04.043-.09.043a.269.269,0,0,1-.047,0,2.416,2.416,0,0,1-.564.755,3.707,3.707,0,0,0,1.4.545l-.007.04a.256.256,0,0,0-.217.187,3.237,3.237,0,0,1-1.323-.648,3.474,3.474,0,0,1-1.541.651l-.017-.056a3.392,3.392,0,0,0,1.417-.725,2.366,2.366,0,0,1-.547-.879Zm.3-.445a.081.081,0,0,1-.08.04.281.281,0,0,1-.047,0,2.424,2.424,0,0,1-.962.7l-.031-.05a2.416,2.416,0,0,0,.8-.845Zm.722-.127c.779.221,1.019.555,1.019.732a.106.106,0,0,1-.1.12.2.2,0,0,1-.087-.026,2.561,2.561,0,0,0-.848-.786Z"/><path d="M101.771,100.739A5.6,5.6,0,0,0,102.556,99l.351.11c-.014.041-.044.064-.127.061a5.616,5.616,0,0,1-.328.734l.127.047c-.01.031-.04.054-.1.06v2.006a.242.242,0,0,1-.177.076h-.04v-1.868a3.134,3.134,0,0,1-.442.552Zm2.867-1.072.28.213c-.026.051-.06.074-.153.074h-.452v1.778c0,.187-.056.324-.411.364,0-.19-.16-.21-.467-.234v-.053h.558c.073,0,.1-.024.1-.084V99.954h-1.256l-.02-.08h1.276V99l.375.033c0,.05-.024.073-.151.09v.752h.171Zm-1.561.655c.434.243.571.521.571.7,0,.121-.063.2-.137.2a.157.157,0,0,1-.107-.054,1.684,1.684,0,0,0-.364-.825Z"/><path d="M108.092,100.856l.321.221c-.027.05-.067.073-.164.073h-1.2v.869c0,.017-.074.07-.187.07h-.037v-.939h-1.487l-.024-.08h.569v-.956l.26.111h.682v-.652h-.735a2.752,2.752,0,0,1-.7.819l-.046-.034a3.888,3.888,0,0,0,.752-1.413l.34.123c-.013.04-.04.06-.127.054a3.85,3.85,0,0,1-.176.371h1.633l.167-.211.315.221c-.024.05-.064.07-.161.07h-1.042v.652h.611l.157-.2.3.208c-.027.05-.067.07-.161.07h-.905v.765h.872Zm-1.988.214h.725v-.765H106.1Z"/><path d="M111.089,99.112l.294.217a.279.279,0,0,1-.147.07v2.366c0,.177-.053.3-.384.324,0-.183-.154-.217-.425-.23v-.047h.509c.06,0,.08-.013.08-.054v-.885h-1.384a1.6,1.6,0,0,1-.782,1.216l-.043-.04a2.05,2.05,0,0,0,.645-1.734V99.146l.26.11h1.27Zm-1.42,1.2c0,.16-.007.32-.023.481h1.37v-.7h-1.347Zm1.347-.976h-1.347v.678h1.347Z"/><path d="M114.477,99.209l.291.217a.287.287,0,0,1-.148.07v2.43c0,.006-.06.083-.22.083v-.277h-1.638v.237c0,.007-.013.093-.214.093V99.239l.238.114h1.58Zm-.077.227h-1.638v1.049H114.4Zm-1.638,2.216H114.4v-1.087h-1.638Z"/><path d="M74.424,13.672a5.729,5.729,0,0,0,.762-1.717l.344.11c-.013.037-.04.06-.127.057a5.683,5.683,0,0,1-.294.675l.113.043c-.01.031-.043.054-.1.061v2.078a.259.259,0,0,1-.178.074H74.9V13.161a3.137,3.137,0,0,1-.427.545Zm2.8.916.321.224c-.031.05-.071.07-.164.07H75.336a.526.526,0,0,0-.02-.08h.959V13.786h-.742a.526.526,0,0,0-.02-.08h.762v-.892h-.849l-.023-.081h1.574l.16-.207.3.218c-.027.049-.067.07-.161.07H76.5v.892h.414l.15-.194.291.2c-.03.05-.067.07-.157.07h-.7V14.8h.558Zm-1.29-2.627c.565.114.741.365.741.522a.124.124,0,0,1-.116.14.16.16,0,0,1-.087-.03A1.454,1.454,0,0,0,75.914,12Z"/><path d="M80.769,13.168l.3.217c-.027.05-.067.071-.161.071H79.846v.527h.615l.1-.133.29.207a.28.28,0,0,1-.143.067v.825a.269.269,0,0,1-.217.073v-.167H79.011v.121c0,.006-.033.073-.211.073V13.88l.234.1h.6v-.527h-1.1a2.691,2.691,0,0,1-.549,1.59l-.049-.033a4.2,4.2,0,0,0,.394-2.072v-.906l.257.111h1.955l.1-.134.294.207a.281.281,0,0,1-.143.07v.658a.28.28,0,0,1-.218.067v-.16H78.543c0,.164,0,.291-.01.521h1.1v-.5l.355.03c0,.05-.04.07-.141.083v.388h.765Zm-.2-.942H78.543v.547h2.028ZM80.5,14.063H79.011v.712H80.5Z"/><path d="M82.091,13.018v1.159c.171-.04.358-.087.545-.134l.013.051c-.224.107-.538.257-.969.437a.122.122,0,0,1-.074.084l-.147-.294c.094-.017.241-.05.421-.094V13.018h-.394l-.02-.08h.414v-.876l.368.03c0,.057-.05.074-.157.09v.756h.14l.137-.2.261.207c-.026.051-.064.071-.153.071Zm2.366,1.226-.007.5c.111.033.134.046.134.083,0,.1-.107.137-.461.137h-.949c-.331,0-.421-.063-.421-.357V13.409l-.355.16-.053-.06.408-.187V12.289l.357.03c-.006.054-.033.074-.147.09v.816l.478-.218V11.961l.351.031c-.007.05-.037.073-.141.083v.836L84.1,12.7l.1-.184.3.164a.25.25,0,0,1-.153.089V13.9c0,.147-.044.265-.315.291,0-.157-.023-.184-.217-.207v-.04h.261c.05,0,.06-.013.06-.05V12.773L83.651,13v1.243c0,.007-.029.08-.21.08v-1.23l-.478.221v1.3c0,.141.024.161.2.161h.965c.067,0,.118-.007.151-.054a2.423,2.423,0,0,0,.143-.471Z"/><path d="M139.086,12.623l.144-.187.281.2c-.027.051-.067.071-.154.071h-1.34l-.02-.081Zm.211-.424c-.026.05-.064.07-.153.07h-.963l-.02-.08h.725l.14-.181Zm-.24.688.25.174c-.027.054-.06.074-.15.074h-.966l-.02-.081h.755Zm-.866.675-.02-.08h.755l.131-.167.25.177c-.027.05-.06.07-.15.07Zm.772.355.1-.127.284.2a.281.281,0,0,1-.14.067v.825c0,.01-.064.074-.207.074v-.207h-.612v.227c0,.006-.03.073-.2.073V13.816l.22.1Zm-.578.751H139V14h-.612Zm2.63-.484-.007.534c.11.037.127.044.127.081,0,.093-.1.143-.405.143h-.778c-.3,0-.361-.053-.361-.307v-1.41l.254.11h.872V12.276h-1.189L139.5,12.2h1.18l.1-.133.287.207a.268.268,0,0,1-.144.067v1.18c0,.009-.067.076-.214.076v-.177h-.912v1.223c0,.107.007.114.151.114h.758c.07,0,.11,0,.137-.06a3.144,3.144,0,0,0,.13-.508Z"/><path d="M144.6,14.3l-.056.5a.35.35,0,0,1,.1.18c0,.034-.036.077-.1.077a1.176,1.176,0,0,1-.716-.625,2.318,2.318,0,0,1-.772.615l-.033-.05a2.414,2.414,0,0,0,.729-.722,4.136,4.136,0,0,1-.294-1.36h-1.879l-.023-.08h.809v-.381h-.632l-.023-.08h.655v-.4l.371.034c0,.053-.04.073-.157.09v.281h.33l.141-.184.267.19c-.023.051-.063.074-.154.074h-.584v.381h.872c-.02-.274-.027-.565-.027-.869l.348.04c-.007.043-.031.06-.131.07,0,.254,0,.511.014.759h.528l.157-.2.3.211c-.026.047-.063.07-.16.07h-.819a4.059,4.059,0,0,0,.218,1.143,3.267,3.267,0,0,0,.3-.846l.334.091c-.017.043-.047.06-.137.056a3.056,3.056,0,0,1-.414.892,1.225,1.225,0,0,0,.371.445.1.1,0,0,0,.053.03c.054,0,.17-.391.181-.434Zm-1.163.228c-.03.05-.063.07-.154.07h-.715v.381c0,.006-.03.077-.207.077V14.6H141.6l-.02-.08h.772v-.247h-.374v.056s-.03.067-.2.067v-.912l.214.1h.357v-.234h-.691l-.02-.08h.711v-.281l.318.026c0,.041-.027.057-.111.067v.188h.392l.133-.161.264.17c-.027.051-.063.071-.154.071h-.635v.234h.352l.086-.107.244.17a.2.2,0,0,1-.1.05V14.3c0,.01-.06.071-.2.071v-.107h-.378v.247h.465l.137-.178Zm-1.076-.869h-.374v.224h.374Zm-.374.531h.374V13.96h-.374Zm.959-.531h-.378v.224h.378Zm-.378.531h.378V13.96h-.378Zm1.337-2.119c.474.044.628.231.628.355a.1.1,0,0,1-.1.11.154.154,0,0,1-.077-.023,1.2,1.2,0,0,0-.464-.4Z"/><path d="M147.827,12.867l.3.217c-.027.047-.064.071-.161.071h-1.093a7.268,7.268,0,0,1-.721.451h1.27l.1-.137.291.207a.272.272,0,0,1-.144.07v1.2a.269.269,0,0,1-.217.073v-.2h-1.434v.151s-.026.076-.217.076V13.786a7.212,7.212,0,0,1-.795.328l-.02-.057a7.23,7.23,0,0,0,.815-.411V13.5l.144.066a7.256,7.256,0,0,0,.6-.407h-1.484l-.023-.081h1.24v-.537h-.913l-.02-.081h.933v-.5l.354.03c0,.047-.04.07-.137.083v.388h.444l.154-.2.274.191c.12-.127.23-.251.324-.371l.284.227a.077.077,0,0,1-.06.027.213.213,0,0,1-.084-.024,5.256,5.256,0,0,1-.855.765h.681Zm-.368.819h-1.434v.468h1.434Zm-1.434,1.056h1.434v-.508h-1.434Zm.482-1.668h.157a6.734,6.734,0,0,0,.628-.541.172.172,0,0,1-.047,0h-.738Z"/><path d="M151.175,13.559l.294.214a.313.313,0,0,1-.147.07v1.106c0,.007-.064.077-.221.077v-.191h-1.393v.141a.212.212,0,0,1-.181.073h-.037V13.843a4.991,4.991,0,0,1-.925.378l-.023-.057a4.39,4.39,0,0,0,1.266-.719.109.109,0,0,1-.083-.03,1.57,1.57,0,0,0-.478-.575,2.984,2.984,0,0,1-.569.385l-.036-.047a3.15,3.15,0,0,0,1.032-1.226l.351.107c-.013.036-.044.046-.127.04a2.256,2.256,0,0,1-.177.25h.929l.167-.15.254.247c-.027.03-.067.037-.154.04a3.427,3.427,0,0,1-1.176,1.21l.007,0h1.32Zm-1.517-1.129a3.693,3.693,0,0,1-.361.37c.461.154.608.385.608.525a.221.221,0,0,1-.007.047,3.239,3.239,0,0,0,.752-.942Zm.05,2.325H151.1v-.976h-1.393Z"/><path d="M65.975,7.074a7.861,7.861,0,0,0,1.043-2.353l.472.151c-.019.05-.055.082-.175.078a7.58,7.58,0,0,1-.4.924l.155.06c-.013.041-.059.073-.141.082V8.863a.354.354,0,0,1-.243.1h-.055V6.373a4.331,4.331,0,0,1-.586.746Zm3.831,1.254.439.307c-.041.068-.1.1-.224.1h-2.8a.8.8,0,0,0-.027-.109H68.51V7.229H67.494a.769.769,0,0,0-.027-.11H68.51V5.9H67.348l-.033-.11h2.157l.219-.284.413.3c-.037.069-.092.1-.22.1H68.812V7.119h.568l.206-.265.4.279c-.041.069-.091.1-.215.1h-.957V8.621h.765Zm-1.767-3.6c.773.155,1.016.5,1.016.714a.171.171,0,0,1-.16.192.213.213,0,0,1-.119-.041,1.988,1.988,0,0,0-.76-.815Z"/><path d="M74.657,6.382l.417.3c-.036.069-.092.1-.22.1h-1.46V7.5h.842l.142-.183.4.284a.365.365,0,0,1-.2.091V8.822a.367.367,0,0,1-.3.1V8.694H72.25v.165c0,.009-.046.1-.289.1v-1.6l.321.142H73.1V6.776H71.59a3.693,3.693,0,0,1-.75,2.179l-.069-.046a5.747,5.747,0,0,0,.54-2.838V4.831l.353.15h2.678l.137-.183.4.284a.389.389,0,0,1-.2.1v.9a.385.385,0,0,1-.3.092v-.22H71.609c0,.224,0,.4-.014.714H73.1V5.979l.485.042c0,.068-.055.1-.192.114v.531h1.048Zm-.27-1.291H71.609v.751h2.778Zm-.105,2.518H72.25v.975h2.032Z"/><path d="M76.46,6.176V7.765c.234-.055.49-.119.747-.183l.018.068c-.307.147-.737.353-1.328.6a.166.166,0,0,1-.1.114l-.2-.4c.129-.023.33-.068.577-.128V6.176h-.54l-.028-.11h.568v-1.2l.5.041c0,.078-.069.1-.216.124V6.066h.193l.187-.27.357.284c-.036.069-.087.1-.21.1ZM79.7,7.856l-.009.678c.151.046.183.064.183.114,0,.138-.146.188-.631.188h-1.3c-.453,0-.576-.087-.576-.49V6.712l-.486.22-.073-.083.559-.256V5.178l.489.042c-.008.073-.045.1-.2.123V6.46l.655-.3V4.73l.481.041c-.01.069-.051.1-.193.114V6.03l.618-.284.138-.252.416.225a.347.347,0,0,1-.21.123V7.38c0,.2-.06.362-.431.4,0-.215-.032-.251-.3-.283V7.44h.356c.069,0,.083-.019.083-.069V5.842l-.673.307v1.7c0,.009-.041.109-.288.109V6.277l-.655.3V8.355c0,.192.032.22.275.22h1.323c.091,0,.16-.009.206-.073a3.4,3.4,0,0,0,.2-.646Z"/><path d="M81.88,5.636l.2-.256.384.27c-.037.069-.091.1-.211.1H80.415l-.028-.11Zm.288-.581c-.037.069-.087.1-.21.1H80.639l-.027-.11h.993l.192-.247ZM81.838,6l.344.238c-.037.073-.082.1-.206.1H80.653l-.028-.109H81.66Zm-1.185.924-.028-.11H81.66l.178-.228.344.242c-.037.069-.082.1-.206.1Zm1.057.486.133-.174.389.274a.37.37,0,0,1-.192.092V8.73c0,.014-.087.1-.284.1V8.547h-.838v.312c0,.009-.041.1-.279.1V7.271l.3.137Zm-.792,1.03h.838v-.92h-.838Zm3.6-.664-.009.732c.151.051.174.06.174.11,0,.128-.133.2-.554.2H83.065c-.407,0-.494-.073-.494-.421V6.46l.348.151h1.194V5.16H82.484l-.032-.11h1.616l.141-.183.395.284a.384.384,0,0,1-.2.092V6.858c0,.014-.091.106-.293.106V6.721H82.864V8.4c0,.147.009.156.206.156h1.039c.1,0,.151,0,.188-.082a4.4,4.4,0,0,0,.178-.7Z"/><path d="M89.418,7.93l-.078.686a.469.469,0,0,1,.133.247.128.128,0,0,1-.141.106,1.6,1.6,0,0,1-.98-.856,3.2,3.2,0,0,1-1.058.842l-.045-.069a3.315,3.315,0,0,0,1-.989,5.626,5.626,0,0,1-.4-1.863H85.271l-.032-.109h1.108V5.4h-.866l-.031-.11h.9V4.739l.508.046c-.005.073-.055.1-.215.123v.385h.453l.192-.252.366.261c-.032.069-.087.1-.21.1h-.8v.522h1.194c-.027-.376-.036-.774-.036-1.191l.476.055c-.009.06-.041.083-.179.1,0,.348,0,.7.019,1.04h.723l.215-.275.412.288c-.036.064-.087.1-.22.1H88.123a5.541,5.541,0,0,0,.3,1.566,4.475,4.475,0,0,0,.417-1.158l.458.123c-.023.06-.065.083-.188.078a4.185,4.185,0,0,1-.567,1.222,1.7,1.7,0,0,0,.507.609.138.138,0,0,0,.074.042c.073,0,.233-.536.247-.6Zm-1.593.311c-.041.069-.087.1-.21.1h-.98v.522c0,.009-.041.105-.283.105V8.337H85.321l-.027-.11h1.058V7.888h-.513v.078s-.042.092-.271.092V6.808l.293.133h.491V6.62H85.4l-.028-.109h.976V6.126l.434.037c0,.055-.036.077-.151.091v.257h.536l.183-.22.361.233c-.036.069-.087.1-.21.1h-.87v.321h.481l.119-.147.334.234a.28.28,0,0,1-.142.069v.841c0,.015-.082.1-.275.1V7.888h-.517v.339h.636l.188-.243Zm-1.473-1.19h-.513v.306h.513Zm-.513.727h.513V7.467h-.513Zm1.313-.727h-.517v.306h.517Zm-.517.727h.517V7.467h-.517Zm1.831-2.9c.65.06.861.316.861.485a.143.143,0,0,1-.138.152.2.2,0,0,1-.1-.033,1.648,1.648,0,0,0-.636-.553Z"/><path d="M92.329,6.176h-.577V8.84c0,.014-.019.115-.271.115V5.893a.369.369,0,0,1-.141.023H90.9v.677c.417.206.55.444.55.6,0,.11-.06.178-.138.178a.154.154,0,0,1-.109-.05,1.465,1.465,0,0,0-.3-.64V8.84c0,.014-.036.11-.279.11v-2.1A4.246,4.246,0,0,1,90.062,7.9l-.073-.064a6.08,6.08,0,0,0,.577-1.922H90.04l-.032-.11h.613V4.725l.476.042c0,.064-.05.1-.2.114v.925h.128l.183-.266.27.22V4.849L91.774,5h.509l.128-.169.375.265a.4.4,0,0,1-.192.087V6.24c0,.014-.078.1-.265.1Zm0-1.071h-.577v.431h.577Zm-.577.961h.577v-.42h-.577ZM92.873,7.9v.119c.527.083.691.3.691.435a.107.107,0,0,1-.1.119.143.143,0,0,1-.082-.023,1.45,1.45,0,0,0-.5-.462v.663c0,.014-.032.1-.242.1V8.126a2.369,2.369,0,0,1-.746.563l-.051-.082a2.366,2.366,0,0,0,.678-.7h-.225v.092s-.036.077-.224.077V6.955l.247.119h.321V6.817h-.71l-.032-.109h.742v-.33l.407.032c-.009.055-.041.082-.165.1v.2h.321l.164-.211.335.224c-.037.069-.088.1-.206.1h-.614v.257h.3l.11-.147.33.234a.347.347,0,0,1-.165.077v.669a.28.28,0,0,1-.238.087V7.9Zm-.242-.718h-.344v.251h.344Zm-.344.608h.344V7.545h-.344Zm.925-.608h-.339v.251h.339Zm-.339.608h.339V7.545h-.339ZM93.9,4.8l.39.293a.417.417,0,0,1-.2.092V8.539c0,.219-.045.37-.453.425,0-.252-.252-.27-.458-.288V8.612h.532c.068,0,.1-.014.1-.078V6.181h-.6v.064s-.037.091-.27.091V4.862L93.226,5h.531Zm-.095.3h-.6V5.54h.6Zm-.6.966h.6V5.65h-.6Z"/><rect class="b" x="0.25" y="10.25" width="162" height="7"/><line class="b" x1="162.25" y1="25.25" x2="161.75" y2="25.25"/><line class="c" x1="160.75" y1="25.25" x2="1.25" y2="25.25"/><line class="b" x1="0.75" y1="25.25" x2="0.25" y2="25.25"/><polyline class="b" points="162.25 32.75 162.25 33.25 161.75 33.25"/><line class="c" x1="160.75" y1="33.25" x2="1.25" y2="33.25"/><polyline class="b" points="0.75 33.25 0.25 33.25 0.25 32.75"/><line class="c" x1="0.25" y1="31.75" x2="0.25" y2="26.25"/><polyline class="b" points="0.25 25.75 0.25 25.25 0.75 25.25"/><line class="c" x1="1.75" y1="25.25" x2="161.25" y2="25.25"/><polyline class="b" points="161.75 25.25 162.25 25.25 162.25 25.75"/><line class="c" x1="162.25" y1="26.75" x2="162.25" y2="32.25"/><polyline class="b" points="162.25 40.75 162.25 41.25 161.75 41.25"/><line class="c" x1="160.75" y1="41.25" x2="1.25" y2="41.25"/><polyline class="b" points="0.75 41.25 0.25 41.25 0.25 40.75"/><line class="c" x1="0.25" y1="39.75" x2="0.25" y2="34.25"/><polyline class="b" points="0.25 33.75 0.25 33.25 0.75 33.25"/><line class="c" x1="1.75" y1="33.25" x2="161.25" y2="33.25"/><polyline class="b" points="161.75 33.25 162.25 33.25 162.25 33.75"/><line class="c" x1="162.25" y1="34.75" x2="162.25" y2="40.25"/><polyline class="b" points="162.25 48.75 162.25 49.25 161.75 49.25"/><line class="c" x1="160.75" y1="49.25" x2="1.25" y2="49.25"/><polyline class="b" points="0.75 49.25 0.25 49.25 0.25 48.75"/><line class="c" x1="0.25" y1="47.75" x2="0.25" y2="42.25"/><polyline class="b" points="0.25 41.75 0.25 41.25 0.75 41.25"/><line class="c" x1="1.75" y1="41.25" x2="161.25" y2="41.25"/><polyline class="b" points="161.75 41.25 162.25 41.25 162.25 41.75"/><line class="c" x1="162.25" y1="42.75" x2="162.25" y2="48.25"/><polyline class="b" points="162.25 56.75 162.25 57.25 161.75 57.25"/><line class="c" x1="160.75" y1="57.25" x2="1.25" y2="57.25"/><polyline class="b" points="0.75 57.25 0.25 57.25 0.25 56.75"/><line class="c" x1="0.25" y1="55.75" x2="0.25" y2="50.25"/><polyline class="b" points="0.25 49.75 0.25 49.25 0.75 49.25"/><line class="c" x1="1.75" y1="49.25" x2="161.25" y2="49.25"/><polyline class="b" points="161.75 49.25 162.25 49.25 162.25 49.75"/><line class="c" x1="162.25" y1="50.75" x2="162.25" y2="56.25"/><polyline class="b" points="162.25 64.75 162.25 65.25 161.75 65.25"/><line class="c" x1="160.75" y1="65.25" x2="1.25" y2="65.25"/><polyline class="b" points="0.75 65.25 0.25 65.25 0.25 64.75"/><line class="c" x1="0.25" y1="63.75" x2="0.25" y2="58.25"/><polyline class="b" points="0.25 57.75 0.25 57.25 0.75 57.25"/><line class="c" x1="1.75" y1="57.25" x2="161.25" y2="57.25"/><polyline class="b" points="161.75 57.25 162.25 57.25 162.25 57.75"/><line class="c" x1="162.25" y1="58.75" x2="162.25" y2="64.25"/><polyline class="b" points="162.25 72.75 162.25 73.25 161.75 73.25"/><line class="c" x1="160.75" y1="73.25" x2="1.25" y2="73.25"/><polyline class="b" points="0.75 73.25 0.25 73.25 0.25 72.75"/><line class="c" x1="0.25" y1="71.75" x2="0.25" y2="66.25"/><polyline class="b" points="0.25 65.75 0.25 65.25 0.75 65.25"/><line class="c" x1="1.75" y1="65.25" x2="161.25" y2="65.25"/><polyline class="b" points="161.75 65.25 162.25 65.25 162.25 65.75"/><line class="c" x1="162.25" y1="66.75" x2="162.25" y2="72.25"/><polyline class="b" points="162.25 80.75 162.25 81.25 161.75 81.25"/><line class="c" x1="160.75" y1="81.25" x2="1.25" y2="81.25"/><polyline class="b" points="0.75 81.25 0.25 81.25 0.25 80.75"/><line class="c" x1="0.25" y1="79.75" x2="0.25" y2="74.25"/><polyline class="b" points="0.25 73.75 0.25 73.25 0.75 73.25"/><line class="c" x1="1.75" y1="73.25" x2="161.25" y2="73.25"/><polyline class="b" points="161.75 73.25 162.25 73.25 162.25 73.75"/><line class="c" x1="162.25" y1="74.75" x2="162.25" y2="80.25"/><polyline class="b" points="162.25 88.75 162.25 89.25 161.75 89.25"/><line class="c" x1="160.75" y1="89.25" x2="1.25" y2="89.25"/><polyline class="b" points="0.75 89.25 0.25 89.25 0.25 88.75"/><line class="c" x1="0.25" y1="87.75" x2="0.25" y2="82.25"/><polyline class="b" points="0.25 81.75 0.25 81.25 0.75 81.25"/><line class="c" x1="1.75" y1="81.25" x2="161.25" y2="81.25"/><polyline class="b" points="161.75 81.25 162.25 81.25 162.25 81.75"/><line class="c" x1="162.25" y1="82.75" x2="162.25" y2="88.25"/><line class="b" x1="32.25" y1="97.25" x2="32.25" y2="96.75"/><line class="d" x1="32.25" y1="95.761" x2="32.25" y2="11.244"/><line class="b" x1="32.25" y1="10.75" x2="32.25" y2="10.25"/><line class="b" x1="128.25" y1="10.25" x2="128.25" y2="10.75"/><line class="d" x1="128.25" y1="11.739" x2="128.25" y2="96.256"/><line class="b" x1="128.25" y1="96.75" x2="128.25" y2="97.25"/><path class="e" d="M35.109,19.787a4.517,4.517,0,0,0-.631.031v-.573a4.7,4.7,0,0,0,.668.036h1.377a2.4,2.4,0,0,0-.037-.469h.642a2.615,2.615,0,0,0-.036.469h1.425a4.313,4.313,0,0,0,.683-.036v.573a5.715,5.715,0,0,0-.647-.031H37.092v.293h1.091a5.146,5.146,0,0,0,.579-.021,5.223,5.223,0,0,0-.021.527v.965a4.085,4.085,0,0,0,.021.532,4.023,4.023,0,0,0-.579-.026h-.627a3.72,3.72,0,0,0,1.811.893,2.914,2.914,0,0,0-.3.553,4.4,4.4,0,0,1-1.988-1.227c0,.152.01.277.01.361v.375a3.864,3.864,0,0,0,.036.595h-.642a4.048,4.048,0,0,0,.037-.595v-.375c0-.063,0-.256.016-.355a4.153,4.153,0,0,1-1.89,1.226,2.245,2.245,0,0,0-.3-.527,3.986,3.986,0,0,0,1.728-.924h-.564a4.061,4.061,0,0,0-.59.026l.006-.067.01-.084a.505.505,0,0,0,.005-.11V20.591a4.894,4.894,0,0,0-.021-.538,3.646,3.646,0,0,0,.574.027h1.023v-.293Zm.391.741v.319h1.023v-.319Zm0,.752v.328h1.023V21.28Zm1.592-.433h1.1v-.319h-1.1Zm0,.761h1.1V21.28h-1.1Z"/><path class="e" d="M41.269,22.1a4.322,4.322,0,0,1-1.258,1.347A1.651,1.651,0,0,0,39.64,23a2.829,2.829,0,0,0,1.143-1.169Zm.454-2.906a2.169,2.169,0,0,0-.032-.382h.647a1.876,1.876,0,0,0-.031.376v.157H43.8a3.77,3.77,0,0,0,.611-.037v.59a3.18,3.18,0,0,0-.574-.031H40.292a3.114,3.114,0,0,0-.563.031v-.59a3.805,3.805,0,0,0,.626.037h1.368Zm-.94,2.541c-.229,0-.328,0-.47.016a3.039,3.039,0,0,0,.021-.413V20.6c-.005-.188-.005-.2-.005-.235a.379.379,0,0,0-.005-.078l0-.042a.362.362,0,0,0-.006-.068.24.24,0,0,0,.053.006l.073.005c.047,0,.214.01.344.01h2.51l.23,0a1.293,1.293,0,0,0,.172,0c.016,0,.026-.005.073-.011a3.1,3.1,0,0,0-.021.423v.746c0,.183.005.272.016.413-.12-.011-.271-.016-.475-.016h-.913v1.3c0,.4-.172.517-.788.517-.1,0-.146,0-.423,0A1.7,1.7,0,0,0,41.013,23a3.875,3.875,0,0,0,.569.046c.172,0,.213-.02.213-.109v-1.2Zm.1-.517h2.306v-.537H40.888Zm2.358.611a3.077,3.077,0,0,0,1.237,1.117,2.329,2.329,0,0,0-.37.5,4.7,4.7,0,0,1-1.321-1.326Z"/><path class="e" d="M45.482,20.826a3.056,3.056,0,0,0-.553.031v-.548a3.056,3.056,0,0,0,.553.031H45.9v-.5h-.271a3.22,3.22,0,0,0-.49.027v-.538a2.954,2.954,0,0,0,.49.026H45.9v-.125a2.653,2.653,0,0,0-.026-.423h.606a3.434,3.434,0,0,0-.032.423v.125h.11a1.734,1.734,0,0,0,.376-.026v.4a3.838,3.838,0,0,0,.339-.715l.464.277c-.005-.146-.01-.23-.015-.334.135.01.24.015.454.015h.835a2.208,2.208,0,0,0,.433-.026l.24.36a1.735,1.735,0,0,0-.084.209c-.162.407-.193.475-.38.892-.1.225-.1.235-.147.34a2.665,2.665,0,0,1,.444.714,1.7,1.7,0,0,1,.146.658.728.728,0,0,1-.417.762,1.729,1.729,0,0,1-.715.083,1.282,1.282,0,0,0-.141-.579c.146.01.209.016.281.016.308,0,.413-.079.413-.313a1.616,1.616,0,0,0-.131-.627,1.83,1.83,0,0,0-.464-.668,8.59,8.59,0,0,0,.543-1.32h-.742v3.455a5.539,5.539,0,0,0,.037.71h-.616a7.12,7.12,0,0,0,.026-.721V19.365a.283.283,0,0,0-.036.068.515.515,0,0,0-.052.088,6.137,6.137,0,0,1-.533.825h.047a3.2,3.2,0,0,0,.423-.027v.528a4.232,4.232,0,0,0-.506-.021h-.371c-.1.114-.219.229-.391.391h.616a2.907,2.907,0,0,0,.428-.021c-.011.146-.016.245-.016.559V23a4.761,4.761,0,0,0,.021.537h-.548v-.182h-.882v.271h-.558a5.24,5.24,0,0,0,.026-.58v-1.08c-.126.094-.2.146-.36.245a1.382,1.382,0,0,0-.293-.5,5.329,5.329,0,0,0,1.274-.877Zm.454,1.226h.887v-.407h-.887Zm0,.851h.887v-.428h-.887ZM46.5,20.34a3.945,3.945,0,0,0,.37-.49,1.717,1.717,0,0,0-.24-.011h-.172v.5Z"/><path class="e" d="M52.163,19.777c-.715.083-.934.1-1.529.125a1.664,1.664,0,0,0-.214-.548,9.451,9.451,0,0,0,3.6-.574l.391.522c-.167.042-.177.047-.334.089a10.219,10.219,0,0,1-1.294.3v1.091h1.482a3.825,3.825,0,0,0,.6-.036v.61a4.112,4.112,0,0,0-.6-.037H52.779v1.691a4,4,0,0,0,.036.642h-.688A4.112,4.112,0,0,0,52.163,23V21.321h-1.4a4.134,4.134,0,0,0-.595.037v-.61a3.952,3.952,0,0,0,.595.036h1.4Z"/><path class="e" d="M56.011,21.577c0-.266.006-.4.016-.6a3.493,3.493,0,0,1-.532.652,1.987,1.987,0,0,0-.277-.6A4.389,4.389,0,0,0,56.47,18.8l.595.2a8.639,8.639,0,0,1-.485,1.111V23a4.329,4.329,0,0,0,.037.631h-.642a4.177,4.177,0,0,0,.036-.642Zm2.447-.819a4.143,4.143,0,0,0,.533,1.607c.177.292.417.553.511.553s.173-.255.225-.876a2.251,2.251,0,0,0,.5.339c-.12.892-.3,1.226-.674,1.226a1.122,1.122,0,0,1-.8-.532,4.6,4.6,0,0,1-.877-2.27l-.553.047a4.15,4.15,0,0,0-.522.063l-.015-.585h.151c.125,0,.3,0,.407-.016l.475-.036c-.031-.407-.037-.532-.047-.992-.005-.172-.016-.271-.026-.386l.631-.01a1.947,1.947,0,0,0-.026.4,8.123,8.123,0,0,0,.052.94l1.117-.089a4.223,4.223,0,0,0,.569-.073l.016.589c-.074,0-.11,0-.157,0-.078,0-.146,0-.381.021Zm.549-1.874a7.556,7.556,0,0,1,.8.809l-.433.4a2.046,2.046,0,0,0-.225-.292,6.192,6.192,0,0,0-.547-.569Z"/><path class="e" d="M64.535,23.565v-.287H61.373v.287h-.6a5.587,5.587,0,0,0,.032-.657V19.631c0-.209-.011-.376-.026-.559a5.34,5.34,0,0,0,.6.027h3.136a5.267,5.267,0,0,0,.6-.027,4.452,4.452,0,0,0-.026.553v3.283a5.676,5.676,0,0,0,.031.657Zm-3.162-2.677h1.262V19.625H61.373Zm0,1.874h1.262V21.405H61.373ZM63.2,20.888H64.53V19.625H63.2Zm0,1.874H64.53V21.405H63.2Z"/><path class="e" d="M70.507,23.393a3.893,3.893,0,0,0-.569-.031H66.619v.245H66A4.973,4.973,0,0,0,66.034,23V19.589c0-.224-.005-.386-.02-.558a4.5,4.5,0,0,0,.563.026h3.241a3.6,3.6,0,0,0,.616-.037v.611a3.815,3.815,0,0,0-.611-.031h-3.2v3.219h3.314a2.953,2.953,0,0,0,.574-.031Zm-.788-.788a12.991,12.991,0,0,0-1.1-1.033,6.275,6.275,0,0,1-1.482,1.133,2.971,2.971,0,0,0-.418-.449,5.879,5.879,0,0,0,1.466-1.039,11.972,11.972,0,0,0-1.2-.824l.4-.408c.631.413.746.5,1.184.815a3.815,3.815,0,0,0,.668-1.133l.575.271c-.037.058-.074.11-.084.126l-.078.141a6.375,6.375,0,0,1-.637.939c.438.35.741.611,1.153,1Z"/><path class="e" d="M71.928,20.653c.245.167.475.329.694.5a4.614,4.614,0,0,0,.125-.886h-.9a4.424,4.424,0,0,0-.59.031v-.621a4.2,4.2,0,0,0,.579.031h.934c0-.115,0-.157,0-.245a2.846,2.846,0,0,0-.042-.637h.648a2.018,2.018,0,0,0-.031.365l-.011.517h.882a4.7,4.7,0,0,0,.595-.026,4.311,4.311,0,0,0-.021.454l-.031,2.724c0,.063.01.089.041.1a.592.592,0,0,0,.2.026c.209,0,.267-.026.3-.13a5.171,5.171,0,0,0,.063-.986,2,2,0,0,0,.537.214c-.026.8-.1,1.148-.26,1.3-.121.12-.277.151-.689.151-.622,0-.762-.088-.757-.474l.031-2.8h-.908a5.269,5.269,0,0,1-.214,1.288,9.488,9.488,0,0,1,.762.71l-.339.506c-.23-.255-.4-.428-.647-.663A4.075,4.075,0,0,1,71.4,23.644a2.456,2.456,0,0,0-.413-.527A3,3,0,0,0,72.429,21.7a8.547,8.547,0,0,0-.856-.632Z"/><path class="e" d="M78.5,21.984c-.3.673-.631.981-1.06.981-.594,0-1.022-.6-1.022-1.445A2.24,2.24,0,0,1,76.992,20a2.342,2.342,0,0,1,1.8-.73,1.886,1.886,0,0,1,2.067,1.936,2.007,2.007,0,0,1-1.274,1.946,3.283,3.283,0,0,1-.814.22,1.694,1.694,0,0,0-.318-.611,2.84,2.84,0,0,0,1.038-.287,1.466,1.466,0,0,0,.725-1.3,1.285,1.285,0,0,0-.647-1.158,1.1,1.1,0,0,0-.522-.157A7.538,7.538,0,0,1,78.5,21.984Zm-.767-1.868a1.732,1.732,0,0,0-.71,1.409c0,.428.183.767.413.767.171,0,.349-.219.537-.668a7.132,7.132,0,0,0,.433-1.764A1.339,1.339,0,0,0,77.733,20.116Z"/><path class="e" d="M85.453,21.833a2.129,2.129,0,0,0-.345.49A3.811,3.811,0,0,1,83.851,21a2.833,2.833,0,0,1-1.242,1.419,2.075,2.075,0,0,0-.334-.438v1.012a4.277,4.277,0,0,0,.026.621h-.642a4.4,4.4,0,0,0,.036-.631V20.006a4.792,4.792,0,0,0-.02-.506,4.924,4.924,0,0,0,.605.026h1.279c0-.135,0-.2,0-.276a2.8,2.8,0,0,0-.032-.465h.653a1.23,1.23,0,0,0-.032.261c-.01.2-.015.339-.026.48h1.331a4.56,4.56,0,0,0,.595-.026,4.393,4.393,0,0,0-.021.506V23c0,.219-.015.3-.078.376-.115.146-.292.187-.8.187-.156,0-.26,0-.5-.016a1.863,1.863,0,0,0-.161-.594,4.307,4.307,0,0,0,.694.057c.24,0,.266-.016.266-.167Zm-3.178.084a2.334,2.334,0,0,0,1.237-1.869H82.275Zm1.806-1.869a2.444,2.444,0,0,1-.037.251,3.176,3.176,0,0,0,1.409,1.476V20.048Z"/><path class="e" d="M92.068,22.684l-.229.234-1.445-1.445-1.441,1.445-.229-.234,1.44-1.441-1.44-1.44.229-.235,1.441,1.446,1.445-1.446.229.23-1.44,1.445Z"/><path class="e" d="M93.187,21.441h1.425v.334H93.187Z"/><path class="e" d="M99.076,22.684l-.23.234L97.4,21.473,95.96,22.918l-.229-.234,1.44-1.441-1.44-1.44.229-.235L97.4,21.014l1.445-1.446.23.23-1.44,1.445Z"/><path class="e" d="M100.194,21.441h1.425v.334h-1.425Z"/><path class="e" d="M106.083,22.684l-.229.234-1.446-1.445-1.44,1.445-.23-.234,1.441-1.441-1.441-1.44.23-.235,1.44,1.446,1.446-1.446.229.23-1.44,1.445Z"/><path class="e" d="M111.309,22.684l-.23.234-1.445-1.445-1.441,1.445-.229-.234,1.44-1.441-1.44-1.44.229-.235,1.441,1.446,1.445-1.446.23.23-1.44,1.445Z"/><path class="e" d="M1.625,23.247a3.534,3.534,0,0,0-.506.02,1.937,1.937,0,0,1,.106-.5A2.473,2.473,0,0,1,2.4,21.522c.368-.251.47-.376.47-.581,0-.262-.211-.427-.537-.427a.557.557,0,0,0-.5.231.794.794,0,0,0-.122.361l-.556-.066a1.139,1.139,0,0,1,.266-.628,1.143,1.143,0,0,1,.9-.349c.691,0,1.11.33,1.11.867a.8.8,0,0,1-.235.588,3.242,3.242,0,0,1-.483.373c-.591.4-.8.611-.9.894H2.9a3.988,3.988,0,0,0,.572-.032v.518c-.184-.016-.341-.024-.592-.024Z"/><path class="e" d="M5.764,20.381a1.145,1.145,0,0,1,.259.4,2.634,2.634,0,0,1,.153.91,2.094,2.094,0,0,1-.29,1.16,1.115,1.115,0,0,1-.953.463,1.123,1.123,0,0,1-.824-.318,1.1,1.1,0,0,1-.259-.4,2.605,2.605,0,0,1-.153-.9,2.327,2.327,0,0,1,.24-1.09,1.113,1.113,0,0,1,1.015-.545A1.144,1.144,0,0,1,5.764,20.381ZM4.235,21.667a1.746,1.746,0,0,0,.2.933.623.623,0,0,0,.925.09,1.491,1.491,0,0,0,.275-1,2.082,2.082,0,0,0-.15-.831.565.565,0,0,0-.56-.349C4.49,20.514,4.235,20.941,4.235,21.667Z"/><path class="e" d="M7.339,23.247a3.248,3.248,0,0,0,.032-.51v-2.16H7.182a3.519,3.519,0,0,0-.4.023v-.5a2.14,2.14,0,0,0,.392.024h.361a2.8,2.8,0,0,0,.4-.02,6.042,6.042,0,0,0-.031.647v1.984a3.362,3.362,0,0,0,.031.51Z"/><path class="e" d="M9.592,22.49a.668.668,0,0,0,.122.216.587.587,0,0,0,.447.161.6.6,0,0,0,.447-.161,1.286,1.286,0,0,0,.306-.933.762.762,0,0,1-.208.223,1.061,1.061,0,0,1-.635.181A.98.98,0,0,1,9,21.146a1.074,1.074,0,0,1,1.157-1.1,1.106,1.106,0,0,1,1.039.616,2.115,2.115,0,0,1,.181.969A1.974,1.974,0,0,1,10.965,23a1.086,1.086,0,0,1-.835.3,1.131,1.131,0,0,1-.757-.227,1.07,1.07,0,0,1-.322-.436Zm-.066-1.365a.586.586,0,0,0,.623.628.643.643,0,0,0,.675-.639.649.649,0,0,0-1.3.011Z"/><path class="e" d="M13.25,21.428a1.888,1.888,0,0,0-.013-.228c.087.008.169.012.275.012h.855V20.7h-.82a3.46,3.46,0,0,1-.647.773,1.749,1.749,0,0,0-.29-.35,2.37,2.37,0,0,0,.863-1.27l.463.094c-.02.039-.075.161-.169.365H15.6a2.687,2.687,0,0,0,.4-.02v.428a2.821,2.821,0,0,0-.4-.02h-.8v.51h.632a2.773,2.773,0,0,0,.4-.02v.416a3.557,3.557,0,0,0-.392-.016H14.8v.636h.91a3.108,3.108,0,0,0,.428-.024v.447a3.412,3.412,0,0,0-.428-.024H14.8v.491a2.253,2.253,0,0,0,.028.42h-.483a2.369,2.369,0,0,0,.024-.428v-.483H13.053a3.512,3.512,0,0,0-.431.024V22.2a3.281,3.281,0,0,0,.431.024h.2Zm1.117.8v-.636h-.706v.636Z"/><path class="e" d="M18.972,20.4a1.154,1.154,0,0,1,.259.4,2.642,2.642,0,0,1,.153.91,2.1,2.1,0,0,1-.29,1.161,1.113,1.113,0,0,1-.953.462,1.124,1.124,0,0,1-.824-.317,1.1,1.1,0,0,1-.258-.4,2.586,2.586,0,0,1-.153-.9,2.325,2.325,0,0,1,.239-1.09,1.114,1.114,0,0,1,1.016-.546A1.142,1.142,0,0,1,18.972,20.4ZM17.443,21.69a1.762,1.762,0,0,0,.2.934.625.625,0,0,0,.925.09,1.493,1.493,0,0,0,.275-1,2.1,2.1,0,0,0-.149-.831.565.565,0,0,0-.561-.349C17.7,20.538,17.443,20.965,17.443,21.69Z"/><path class="e" d="M21.076,22.294a2.346,2.346,0,0,1-.576,1.244,1.584,1.584,0,0,0-.365-.361,1.484,1.484,0,0,0,.42-.691,6.236,6.236,0,0,0,.156-1.842c0-.275-.007-.456-.019-.593a3.883,3.883,0,0,0,.459.02h1.635a3.48,3.48,0,0,0,.455-.02,2.9,2.9,0,0,0-.02.443v2.542c0,.2-.043.309-.141.372a.768.768,0,0,1-.455.078c-.133,0-.251,0-.455-.015a1.573,1.573,0,0,0-.113-.439,3.919,3.919,0,0,0,.58.047c.113,0,.141-.02.141-.106v-.679Zm1.7-.4v-.526H21.155c0,.11-.008.212-.032.526Zm0-.926v-.49H21.159v.49Z"/><path class="e" d="M26.5,20.4a1.151,1.151,0,0,1,.258.4,2.642,2.642,0,0,1,.153.91,2.086,2.086,0,0,1-.29,1.161,1.22,1.22,0,0,1-1.776.145,1.1,1.1,0,0,1-.259-.4,2.586,2.586,0,0,1-.153-.9,2.325,2.325,0,0,1,.239-1.09,1.117,1.117,0,0,1,1.016-.546A1.146,1.146,0,0,1,26.5,20.4Zm-1.53,1.286a1.762,1.762,0,0,0,.2.934.626.626,0,0,0,.926.09,1.5,1.5,0,0,0,.274-1,2.084,2.084,0,0,0-.149-.831.564.564,0,0,0-.56-.349C25.223,20.538,24.968,20.965,24.968,21.69Z"/><path class="e" d="M28.072,20.494c0-.153-.008-.29-.019-.419a3.606,3.606,0,0,0,.435.019h1.9a3.268,3.268,0,0,0,.424-.019,3.256,3.256,0,0,0-.02.4v2.533a4.125,4.125,0,0,0,.023.474h-.474v-.235H28.515v.235h-.466a4.329,4.329,0,0,0,.023-.474Zm.443.926h1.824v-.91H28.515Zm0,1.415h1.824v-1H28.515Z"/><path class="e" d="M123.125,102.108a3.543,3.543,0,0,0-.506.02,1.99,1.99,0,0,1,.106-.5,2.481,2.481,0,0,1,1.18-1.243c.369-.251.471-.376.471-.58,0-.263-.212-.428-.538-.428a.56.56,0,0,0-.5.231.812.812,0,0,0-.121.361l-.557-.066a1.062,1.062,0,0,1,1.165-.977c.69,0,1.11.33,1.11.867a.8.8,0,0,1-.236.588,3.216,3.216,0,0,1-.482.373c-.592.4-.8.611-.906.894H124.4a4.014,4.014,0,0,0,.573-.032v.518c-.184-.016-.341-.024-.592-.024Z"/><path class="e" d="M127.265,99.242a1.156,1.156,0,0,1,.258.4,2.638,2.638,0,0,1,.153.91,2.094,2.094,0,0,1-.29,1.16,1.166,1.166,0,0,1-2.035-.25,2.59,2.59,0,0,1-.153-.9,2.329,2.329,0,0,1,.239-1.091,1.118,1.118,0,0,1,1.016-.545A1.144,1.144,0,0,1,127.265,99.242Zm-1.53,1.286a1.756,1.756,0,0,0,.2.933.624.624,0,0,0,.925.091,1.5,1.5,0,0,0,.275-1,2.11,2.11,0,0,0-.149-.832.565.565,0,0,0-.561-.349C125.99,99.375,125.735,99.8,125.735,100.528Z"/><path class="e" d="M128.839,102.108a3.118,3.118,0,0,0,.032-.509V99.438h-.188a3.746,3.746,0,0,0-.4.023v-.5a2.127,2.127,0,0,0,.392.024h.361a2.8,2.8,0,0,0,.4-.02,5.81,5.81,0,0,0-.032.648V101.6a3.206,3.206,0,0,0,.032.509Z"/><path class="e" d="M131.093,101.352a.644.644,0,0,0,.121.215.7.7,0,0,0,.894,0,1.284,1.284,0,0,0,.307-.933.762.762,0,0,1-.208.223,1.066,1.066,0,0,1-.636.181.979.979,0,0,1-1.066-1.031,1.073,1.073,0,0,1,1.157-1.094,1.107,1.107,0,0,1,1.039.615,2.132,2.132,0,0,1,.18.969,1.974,1.974,0,0,1-.416,1.36,1.084,1.084,0,0,1-.835.3,1.133,1.133,0,0,1-.757-.228,1.081,1.081,0,0,1-.321-.435Zm-.067-1.365a.586.586,0,0,0,.624.627.642.642,0,0,0,.674-.639.649.649,0,0,0-1.3.012Z"/><path class="e" d="M134.75,100.289a2.1,2.1,0,0,0-.012-.227c.086.007.169.011.275.011h.854v-.51h-.819a3.464,3.464,0,0,1-.647.773,1.686,1.686,0,0,0-.291-.349,2.372,2.372,0,0,0,.863-1.271l.463.1c-.019.039-.075.16-.168.364H137.1a2.875,2.875,0,0,0,.4-.019v.427a2.838,2.838,0,0,0-.4-.02h-.8v.51h.631a2.975,2.975,0,0,0,.4-.019v.415a3.89,3.89,0,0,0-.392-.015H136.3v.635h.909a3.1,3.1,0,0,0,.428-.024v.448a3.221,3.221,0,0,0-.428-.024H136.3v.49a2.362,2.362,0,0,0,.027.42h-.482a2.487,2.487,0,0,0,.023-.428v-.482h-1.313a3.313,3.313,0,0,0-.431.024v-.448a3.281,3.281,0,0,0,.431.024h.2Zm1.117.8v-.635h-.7v.635Z"/><path class="e" d="M140.473,99.266a1.142,1.142,0,0,1,.258.4,2.632,2.632,0,0,1,.154.909,2.086,2.086,0,0,1-.291,1.161,1.112,1.112,0,0,1-.952.463,1.123,1.123,0,0,1-.824-.318,1.082,1.082,0,0,1-.259-.4,2.582,2.582,0,0,1-.153-.9,2.312,2.312,0,0,1,.24-1.09,1.113,1.113,0,0,1,1.015-.545A1.144,1.144,0,0,1,140.473,99.266Zm-1.53,1.286a1.748,1.748,0,0,0,.2.933.623.623,0,0,0,.925.09,1.5,1.5,0,0,0,.274-1,2.087,2.087,0,0,0-.149-.831.565.565,0,0,0-.56-.349C139.2,99.4,138.943,99.826,138.943,100.552Z"/><path class="e" d="M142.577,101.156A2.351,2.351,0,0,1,142,102.4a1.6,1.6,0,0,0-.364-.361,1.476,1.476,0,0,0,.419-.69,6.193,6.193,0,0,0,.157-1.843c0-.275-.008-.455-.02-.592a4.134,4.134,0,0,0,.459.019h1.636a3.674,3.674,0,0,0,.454-.019,3.076,3.076,0,0,0-.019.442V101.9c0,.2-.043.31-.141.373a.782.782,0,0,1-.456.078c-.133,0-.25,0-.454-.016a1.583,1.583,0,0,0-.114-.439,3.941,3.941,0,0,0,.58.047c.114,0,.142-.02.142-.106v-.678Zm1.7-.4v-.526h-1.624c0,.11-.008.212-.031.526Zm0-.926v-.49h-1.62v.49Z"/><path class="e" d="M148,99.266a1.145,1.145,0,0,1,.259.4,2.632,2.632,0,0,1,.153.909,2.1,2.1,0,0,1-.29,1.161,1.219,1.219,0,0,1-1.777.145,1.1,1.1,0,0,1-.259-.4,2.581,2.581,0,0,1-.152-.9,2.313,2.313,0,0,1,.239-1.09,1.114,1.114,0,0,1,1.016-.545A1.142,1.142,0,0,1,148,99.266Zm-1.529,1.286a1.749,1.749,0,0,0,.2.933.623.623,0,0,0,.925.09,1.493,1.493,0,0,0,.275-1,2.1,2.1,0,0,0-.149-.831.566.566,0,0,0-.561-.349C146.724,99.4,146.469,99.826,146.469,100.552Z"/><path class="e" d="M149.573,99.355c0-.152-.008-.29-.02-.419a3.4,3.4,0,0,0,.435.02h1.9a3.063,3.063,0,0,0,.424-.02,3.477,3.477,0,0,0-.02.4v2.533a3.9,3.9,0,0,0,.024.475h-.475v-.236h-1.823v.236h-.467a4.09,4.09,0,0,0,.024-.475Zm.443.926h1.823v-.909h-1.823Zm0,1.416h1.823v-1h-1.823Z"/><path class="f" d="M134.96,21.356a1.191,1.191,0,0,0,.454.378,2.2,2.2,0,0,0,.905.256v.035a.394.394,0,0,0-.213.23.746.746,0,0,0-.036.11c-.007.026-.016.036-.035.036a1.075,1.075,0,0,1-.282-.123,2.046,2.046,0,0,1-.844-.89l.007.395.016.627c0,.039-.007.059-.026.071a.467.467,0,0,1-.23.033c-.1,0-.116-.01-.12-.071.006-.152.02-.46.02-.579l0-.223a2.8,2.8,0,0,1-.654.5,3.372,3.372,0,0,1-.656.275l-.019-.042a3.182,3.182,0,0,0,1.141-1.016h-.359V21.4a.081.081,0,0,1-.026.065.448.448,0,0,1-.22.036c-.084,0-.1-.013-.106-.078.016-.317.019-.443.019-.738a4.667,4.667,0,0,0-.016-.523c.165.074.213.1.385.177h.508v-.349h-.987a1.338,1.338,0,0,0-.246.019l-.026-.119a1.2,1.2,0,0,0,.272.032h.987a1.947,1.947,0,0,0-.026-.411c.443.042.492.052.492.1s-.03.052-.126.084v.23h.705c.109-.123.142-.158.252-.275.158.123.207.162.365.294.013.013.016.02.016.03s-.012.019-.032.019h-1.306v.349h.559c.074-.08.1-.107.174-.181.117.078.153.1.259.185.036.026.049.042.049.061s-.029.052-.12.1c0,.517,0,.543.01.877V21.4a.066.066,0,0,1-.023.058.445.445,0,0,1-.236.042c-.067,0-.084-.013-.09-.061v-.078Zm-.384-.945h-.544v.395h.544Zm0,.463h-.544v.414h.544Zm.922-.463h-.582v.395h.582Zm0,.463h-.582v.414h.582Z"/><path class="f" d="M136.694,22.346a2.972,2.972,0,0,0,.5-.582,2.234,2.234,0,0,0,.22-.4c.405.145.453.164.453.2s-.029.036-.155.049a2.688,2.688,0,0,1-1,.76Zm2.387-2.329c.107-.12.139-.159.246-.272.168.123.22.158.391.291a.041.041,0,0,1,.013.023c0,.016-.016.025-.035.025h-2.721a1.038,1.038,0,0,0-.2.02l-.023-.113a.817.817,0,0,0,.217.026h1.038v-.233a1.451,1.451,0,0,0-.019-.259c.11.01.194.016.249.019.2.017.284.036.284.075s-.035.055-.138.087v.311Zm-.683,1.656,0,.517a.21.21,0,0,1-.1.2.657.657,0,0,1-.24.084.626.626,0,0,1-.123.016c-.032,0-.045-.01-.048-.046-.026-.193-.068-.226-.44-.323v-.035c.055,0,.1.006.129.006.3.019.3.019.424.022.033,0,.045-.009.045-.038v-.912h-.478v.077c0,.033-.016.045-.049.055a.845.845,0,0,1-.213.023c-.084,0-.1-.013-.107-.062.006-.165.009-.255.009-.465,0-.3,0-.4-.012-.567a3.668,3.668,0,0,1,.407.2h1.207c.074-.084.1-.11.178-.194a3.419,3.419,0,0,1,.288.2c.019.013.029.026.029.039a.094.094,0,0,1-.017.033c-.009.006-.042.029-.1.064v.168c0,.165,0,.247.01.515,0,.045-.013.061-.055.071a1.9,1.9,0,0,1-.227.016c-.061,0-.081-.013-.084-.052v-.122H138.4Zm-.824-.582h1.261v-.6h-1.261Zm1.041.336a3.216,3.216,0,0,1,.7.307.369.369,0,0,1,.181.295c0,.155-.094.317-.184.317-.039,0-.068-.033-.113-.123a2.247,2.247,0,0,0-.6-.764Z"/><path class="f" d="M141.044,20.023c.061-.081.081-.1.145-.188.091.084.1.1.191.182a2.119,2.119,0,0,0,.149-.35c.336.155.382.182.382.214s-.03.042-.123.048a4.49,4.49,0,0,1-.473.673h.143c.074-.09.1-.116.174-.2.107.094.139.123.24.224.013.012.016.019.016.028s-.016.02-.039.02h-.592a3.127,3.127,0,0,1-.44.424h.476c.071-.084.094-.107.168-.185a3.044,3.044,0,0,1,.252.185c.033.026.042.039.042.055s-.022.042-.1.08c0,.673,0,.816.01,1.146,0,.045-.01.062-.045.074a1.008,1.008,0,0,1-.211.02c-.068,0-.084-.013-.087-.068v-.133h-.566v.142c0,.033-.006.049-.023.059a.458.458,0,0,1-.22.032c-.084,0-.107-.016-.107-.081.01-.285.013-.388.013-.637v-.414a2.918,2.918,0,0,1-.339.174l-.019-.035a3.911,3.911,0,0,0,.355-.285,2.959,2.959,0,0,0-.01-.307c.117.052.188.084.227.1a4.2,4.2,0,0,0,.317-.35h-.621a1.391,1.391,0,0,0-.22.019l-.02-.109a1.313,1.313,0,0,0,.24.022h.343v-.511h-.259a1.218,1.218,0,0,0-.191.013L140.2,20a.9.9,0,0,0,.216.026h.253v-.194a2.456,2.456,0,0,0-.017-.308,3.018,3.018,0,0,1,.437.049c.026.01.042.026.042.042s-.032.049-.133.081v.33Zm.278,1.139h-.566v.443h.566Zm-.566.511V22.2h.566v-.527ZM141,20.091V20.6h0a4.123,4.123,0,0,0,.333-.511Zm1.259,1.792c0,.029,0,.12,0,.259,0,.058,0,.152,0,.275,0,.081-.042.1-.246.1-.084,0-.107-.016-.107-.077.006-.36.013-1.152.013-1.65,0-.628,0-1.055-.013-1.249.168.081.217.107.372.194h.379a2.129,2.129,0,0,1,.171-.185c.136.1.178.13.3.227.029.029.042.045.042.065s-.039.048-.133.074a6.974,6.974,0,0,1-.569.818,1.407,1.407,0,0,1,.43.34.857.857,0,0,1,.2.544.508.508,0,0,1-.271.491.647.647,0,0,1-.207.042c-.039,0-.049-.009-.055-.067-.016-.162-.088-.224-.314-.269Zm0-.123c.142.013.265.02.343.02s.094-.007.11-.026a.44.44,0,0,0,.048-.233,1.117,1.117,0,0,0-.11-.476.842.842,0,0,0-.245-.3,6.384,6.384,0,0,0,.265-.948h-.411Z"/><path class="f" d="M146.125,20.065a1.4,1.4,0,0,1,.365.948,1.417,1.417,0,1,1-2.833,0,1.39,1.39,0,0,1,.468-1.052,1.44,1.44,0,0,1,.948-.365A1.4,1.4,0,0,1,146.125,20.065Zm-2.025.071a1.31,1.31,0,1,0,2.284.877,1.284,1.284,0,0,0-.434-.974,1.319,1.319,0,0,0-.877-.336A1.29,1.29,0,0,0,144.1,20.136Z"/><path class="f" d="M149.56,20.065a1.416,1.416,0,0,1-1.051,2.365,1.421,1.421,0,0,1-1.417-1.417,1.387,1.387,0,0,1,.469-1.052,1.436,1.436,0,0,1,.948-.365A1.394,1.394,0,0,1,149.56,20.065Zm-2.025.071a1.31,1.31,0,1,0,2.284.877,1.284,1.284,0,0,0-.434-.974,1.319,1.319,0,0,0-.876-.336A1.292,1.292,0,0,0,147.535,20.136Z"/><path class="f" d="M151.021,22.375c0,.062-.019.078-.078.09a1.077,1.077,0,0,1-.171.01c-.113,0-.132-.013-.132-.081.019-.53.022-.815.022-1.621,0-.786,0-.96-.022-1.219a3.2,3.2,0,0,1,.426.214h1.663c.1-.114.136-.149.243-.263.162.117.21.156.375.285.01.013.016.02.016.026s-.013.019-.032.019h-2.31v2.333h1.753c.114-.113.146-.152.256-.275.162.12.214.162.379.294a.05.05,0,0,1,.012.026c0,.013-.016.023-.035.023h-2.365Zm.282-2.129a6.419,6.419,0,0,1,.838.492,2.9,2.9,0,0,0,.313-.793c.239.081.434.153.463.165s.032.026.032.046c0,.042-.042.058-.158.058a5.189,5.189,0,0,1-.385.705c.365.275.365.275.427.352a.4.4,0,0,1,.087.266c0,.139-.068.265-.146.265a.112.112,0,0,1-.074-.045c-.016-.02-.016-.02-.133-.2a3.428,3.428,0,0,0-.326-.414,3.084,3.084,0,0,1-.476.465,3.023,3.023,0,0,1-.611.376l-.023-.029a3.659,3.659,0,0,0,.489-.473,3.934,3.934,0,0,0,.41-.559,5.243,5.243,0,0,0-.75-.641Z"/><path class="f" d="M155.258,21.126a1.1,1.1,0,0,0,.4.534,2.091,2.091,0,0,0,.4-.492c.479.22.479.22.479.252s-.029.042-.074.042c-.02,0-.059,0-.13-.009l-.268.126a3.314,3.314,0,0,1-.327.139,1.457,1.457,0,0,0,.369.188,2.59,2.59,0,0,0,.76.171v.039a.44.44,0,0,0-.243.22,1.2,1.2,0,0,0-.045.117c-.006.032-.016.038-.039.038a1.863,1.863,0,0,1-.355-.145,2.058,2.058,0,0,1-.625-.489,6.97,6.97,0,0,1-1.352.56c-.01.094-.029.139-.065.139-.013,0-.026-.01-.039-.029a2.429,2.429,0,0,1-.135-.469,2.98,2.98,0,0,0,.5-.049v-.883h-.32a1.064,1.064,0,0,0-.239.029l-.033-.129a1.231,1.231,0,0,0,.272.032h.32v-.909c0-.171-.006-.4-.019-.569a3.56,3.56,0,0,1,.427.207h1.061c.1-.117.139-.152.245-.266.165.121.217.163.389.295a.028.028,0,0,1,.009.019c0,.01-.012.02-.028.02h-1.725V20.2h.993c.1-.1.127-.133.224-.23.148.107.19.142.333.259l.01.016c0,.013-.014.023-.03.023h-1.53v.352h.974c.1-.11.136-.142.236-.245a3.886,3.886,0,0,1,.346.277c.006.007.01.01.01.017s-.013.019-.029.019h-1.537v.372h1.391c.11-.12.146-.158.259-.275.162.126.21.165.375.3a.028.028,0,0,1,.01.017c0,.012-.013.022-.033.022Zm-.424,0v.832c.3-.046.427-.068.55-.1l.149-.035a1.682,1.682,0,0,1-.343-.7Z"/><rect class="g" x="130.75" y="18.75" width="29" height="5" rx="0.616" ry="0.616"/><line class="b" x1="0.25" y1="97.25" x2="162.25" y2="97.25"/></svg>