<svg xmlns="http://www.w3.org/2000/svg" width="152.464" height="113.677" viewBox="0 0 152.464 113.677"><defs><style>.a{fill:#fbfdfb;stroke:#000;stroke-miterlimit:10;stroke-width:0.5px;}.b{fill:#b8b8bd;}</style></defs><title>26</title><path class="a" d="M.25,7.736v104.54s52.789-12.223,77.193,0V7.736C53.039-4.487.25,7.736.25,7.736Z"/><path class="a" d="M116.906,1.582C81.6-3.534,77.443,7.736,77.443,7.736v104.54s4.154-11.27,39.463-6.154l35.308,5.115V6.7Z"/><path class="b" d="M8.558,13.667s46.745-9.264,63.347,0V19.9S68.443,9.859,8.558,17.821Z"/><path class="b" d="M8.558,24.052s46.745-9.264,63.347,0v6.231S68.443,20.244,8.558,28.206Z"/><path class="b" d="M8.558,34.437s46.745-9.264,63.347,0v6.23S68.443,30.629,8.558,38.59Z"/><path class="b" d="M8.558,44.821s46.745-9.263,63.347,0v6.231S68.443,41.014,8.558,48.975Z"/><path class="b" d="M8.558,55.206s46.745-9.264,63.347,0v6.231S68.443,51.4,8.558,59.36Z"/><path class="b" d="M8.558,65.591s46.745-9.264,63.347,0v6.231S68.443,61.783,8.558,69.745Z"/><path class="b" d="M8.558,75.976s46.745-9.264,63.347,0v6.23S68.443,72.168,8.558,80.129Z"/><path class="b" d="M8.558,86.36s46.745-9.263,63.347,0v6.231S68.443,82.553,8.558,90.514Z"/><path class="b" d="M8.558,96.745s46.745-9.264,63.347,0v6.231S68.443,92.937,8.558,100.9Z"/><path class="b" d="M146.5,42.005s-46.746-9.263-63.347,0v6.231S86.617,38.2,146.5,46.159Z"/><path class="b" d="M146.5,52.39s-46.746-9.263-63.347,0v6.231s3.462-10.038,63.347-2.077Z"/><path class="b" d="M146.5,62.775s-46.746-9.264-63.347,0v6.231s3.462-10.039,63.347-2.077Z"/><path class="b" d="M146.5,73.16s-46.746-9.264-63.347,0v6.231s3.462-10.039,63.347-2.077Z"/><path class="b" d="M146.5,83.545s-46.746-9.264-63.347,0v6.23S86.617,79.737,146.5,87.7Z"/><path class="b" d="M146.5,93.929s-46.746-9.263-63.347,0v6.231s3.462-10.038,63.347-2.077Z"/><path class="b" d="M83.155,14.724V35.493s4.673-2.787,8.135-3.48,26.654.693,26.654.693V9.55H91.809S83.155,11.627,83.155,14.724Z"/></svg>