<svg id="レイヤー_1" data-name="レイヤー 1" xmlns="http://www.w3.org/2000/svg" viewBox="0 0 138.5 90.34"><defs><style>.cls-1{fill:#fff;}.cls-2,.cls-3,.cls-4,.cls-7{fill:none;}.cls-2{stroke:#221e1f;}.cls-2,.cls-3{stroke-width:0.5px;}.cls-3,.cls-4{stroke:#6c6e70;}.cls-4{stroke-width:0.3px;stroke-dasharray:5 1.8;}.cls-5{fill:#231815;}.cls-6{fill:#c8c9ca;}.cls-7{stroke:#000;stroke-miterlimit:10;stroke-width:0.25px;}</style></defs><title>アートボード 113</title><path class="cls-1" d="M138.25,86.78a3.18,3.18,0,0,1-3,3.31H3.26a3.18,3.18,0,0,1-3-3.31V3.56a3.18,3.18,0,0,1,3-3.31h132a3.18,3.18,0,0,1,3,3.31Z"/><path class="cls-2" d="M138.25,86.78a3.18,3.18,0,0,1-3,3.31H3.26a3.18,3.18,0,0,1-3-3.31V3.56a3.18,3.18,0,0,1,3-3.31h132a3.18,3.18,0,0,1,3,3.31Z"/><rect class="cls-3" x="10" y="10" width="119.5" height="31.48" rx="1"/><line class="cls-4" x1="9.75" y1="22.38" x2="129.75" y2="22.38"/><line class="cls-4" x1="9.75" y1="28.75" x2="129.75" y2="28.75"/><line class="cls-4" x1="9.75" y1="35.11" x2="129.75" y2="35.11"/><path class="cls-5" d="M74.24,83.26h-2v-10h2v.62H72.93v8.77h1.31Z"/><path class="cls-5" d="M127.35,73.25h2v10h-2v-.62h1.31V73.87h-1.31Z"/><rect class="cls-6" x="11.75" y="46.26" width="115" height="1.54"/><rect class="cls-6" x="11.75" y="51.8" width="115" height="1.54"/><rect class="cls-6" x="11.75" y="57.34" width="115" height="1.54"/><rect class="cls-6" x="11.75" y="62.89" width="115" height="1.54"/><rect class="cls-7" x="11.75" y="71.82" width="4.83" height="4.83"/><rect class="cls-7" x="17.33" y="71.82" width="4.83" height="4.83"/><rect class="cls-7" x="22.91" y="71.82" width="4.83" height="4.83"/><rect class="cls-7" x="11.75" y="78.43" width="4.83" height="4.83"/><rect class="cls-7" x="17.33" y="78.43" width="4.83" height="4.83"/><rect class="cls-7" x="22.91" y="78.43" width="4.83" height="4.83"/><rect class="cls-7" x="28.48" y="78.43" width="4.83" height="4.83"/><rect class="cls-7" x="34.06" y="78.43" width="4.83" height="4.83"/><line class="cls-4" x1="9.75" y1="16.01" x2="129.75" y2="16.01"/></svg>