<svg xmlns="http://www.w3.org/2000/svg" width="19" height="19" viewBox="0 0 19 19"><defs><style>.cls-1{fill:#00301f;}.cls-2{fill:#fff;}</style></defs><title>ico_num_02_c</title><g id="レイヤー_2" data-name="レイヤー 2"><g id="レイヤー_1-2" data-name="レイヤー 1"><circle class="cls-1" cx="9.5" cy="9.5" r="9.5"/><path class="cls-2" d="M6.778,15.436a12.893,12.893,0,0,0-1.806.07,7.167,7.167,0,0,1,.363-1.793,6.928,6.928,0,0,1,1.92-2.745,19.246,19.246,0,0,1,2.31-1.7c1.289-.883,1.682-1.345,1.682-2.059,0-.953-.742-1.541-1.934-1.541A1.979,1.979,0,0,0,7.534,6.5,2.661,2.661,0,0,0,7.1,7.788l-2-.238a4.216,4.216,0,0,1,.966-2.241A4.072,4.072,0,0,1,9.271,4.062c2.452,0,3.964,1.177,3.964,3.1A2.842,2.842,0,0,1,12.241,9.4a17.636,17.636,0,0,1-2.353,1.723,12.125,12.125,0,0,0-1.666,1.4,3.365,3.365,0,0,0-.8,1.26h3.922a14.7,14.7,0,0,0,2.044-.112V15.52c-.658-.056-1.218-.084-2.115-.084Z"/></g></g></svg>