<svg xmlns="http://www.w3.org/2000/svg" width="15.555" height="12.433" viewBox="0 0 15.555 12.433"><defs><style>.a{fill:#fff;}</style></defs><title>61</title><path class="a" d="M10.1,6.986A2.32,2.32,0,1,1,7.753,4.663,2.33,2.33,0,0,1,10.1,6.986Z"/><path class="a" d="M15.551,3.987A1.555,1.555,0,0,0,13.9,2.329c-.544-.006-1.088,0-1.631,0a.721.721,0,0,1-.8-.575c-.131-.383-.247-.771-.376-1.154a.711.711,0,0,0-.787-.593q-2.533-.01-5.067,0a.7.7,0,0,0-.77.567c-.129.384-.245.771-.373,1.155a.735.735,0,0,1-.817.6c-.486,0-.972,0-1.458,0A1.607,1.607,0,0,0,0,4.166v6.456a1.59,1.59,0,0,0,1.81,1.809q2.985,0,5.969,0c2.025,0,4.05.005,6.074,0a1.557,1.557,0,0,0,1.7-1.709Q15.557,7.354,15.551,3.987Zm-7.794,6.89a3.886,3.886,0,1,1,3.907-3.863A3.888,3.888,0,0,1,7.757,10.877Zm5.585-5.906a.806.806,0,1,1,.806-.806A.806.806,0,0,1,13.342,4.971Z"/></svg>