<svg xmlns="http://www.w3.org/2000/svg" width="12.647" height="12.229" viewBox="0 0 12.647 12.229"><defs><style>.a{fill:#fff;}</style></defs><title>62</title><polygon class="a" points="4.316 0 0 0 0 4.316 1.053 3.263 2.919 5.128 5.128 2.919 3.263 1.053 4.316 0"/><polygon class="a" points="8.331 0 9.384 1.053 7.519 2.919 9.728 5.128 11.593 3.263 12.647 4.316 12.647 0 8.331 0"/><polygon class="a" points="9.728 7.101 7.519 9.31 9.384 11.176 8.331 12.229 12.647 12.229 12.647 7.913 11.593 8.966 9.728 7.101"/><polygon class="a" points="2.919 7.101 1.053 8.966 0 7.913 0 12.229 4.316 12.229 3.263 11.176 5.128 9.31 2.919 7.101"/></svg>