<svg id="レイヤー_1" data-name="レイヤー 1" xmlns="http://www.w3.org/2000/svg" xmlns:xlink="http://www.w3.org/1999/xlink" viewBox="0 0 50 50"><defs><style>.cls-1,.cls-5{fill:none;}.cls-2{clip-path:url(#clip-path);}.cls-3{fill:#fff;}.cls-4{fill:#004831;}.cls-5{stroke:#fff;stroke-width:1.9px;}</style><clipPath id="clip-path"><rect class="cls-1" width="50" height="50" rx="11.14"/></clipPath></defs><title>01_50x50-c のコピー 4</title><g class="cls-2"><rect class="cls-3" width="50" height="50" rx="11.14"/><rect class="cls-4" y="36" width="50" height="14"/></g><rect class="cls-1" width="50" height="50" rx="11.14"/><path class="cls-4" d="M26.69,15.21H17.3v-8H7.9V28.63H26.69ZM9.25,8.5h2.68v2.68H9.25Zm0,4h2.68v2.69H9.25Zm0,4h2.68v2.68H9.25Zm0,4h2.68v2.68H9.25Zm5.36,6.71h-4V24.6h4v2.69Zm1.35-4H13.27V20.58H16v2.68Zm0-4H13.27V16.55H16v2.68Zm0-4H13.27V12.52H16v2.69Zm0-4H13.27V8.5H16v2.68Zm2.68,5.37h2.68v2.68H18.64V16.55Zm0,4h2.68v2.68H18.64V20.58ZM24,27.29H20V24.6h4Zm1.34-4H22.67V20.58h2.68Zm0-4H22.67V16.55h2.68Z"/><path class="cls-5" d="M42.1,24.91c0,2-3.24,3.93-6.29,3.93-3.25,0-6.3-1.78-6.3-3.93,0-4.17,2.82-6.3,6.3-6.3S42.1,20.74,42.1,24.91Z"/><circle class="cls-5" cx="35.81" cy="16.05" r="3.4"/><circle class="cls-5" cx="35.81" cy="16.05" r="3.4"/><path class="cls-4" d="M42.1,24.91c0,2-3.24,3.93-6.29,3.93-3.25,0-6.3-1.78-6.3-3.93,0-4.17,2.82-6.3,6.3-6.3S42.1,20.74,42.1,24.91Z"/><circle class="cls-5" cx="35.81" cy="16.05" r="3.4"/><circle class="cls-4" cx="35.81" cy="16.05" r="3.4"/><path class="cls-3" d="M15,46.3v-.76H10.37v.76H9.54V39.7h6.29v6.6Zm0-5.86H10.37V44.8H15Z"/><path class="cls-3" d="M18.49,40.34v1.93a9.18,9.18,0,0,1-.59,4l-.68-.6a8.74,8.74,0,0,0,.48-3.81V39.66h2.86V39.1h.86v.56h2.82v.68Zm0,5.66v-.68H21v-1H18.84v-.66H21v-3.1h.79v3.1H24v.66H21.76v1h2.68V46Zm1.94-2.86a2.26,2.26,0,0,1-.67-.83,3.15,3.15,0,0,1-.62.93l-.6-.52a3.12,3.12,0,0,0,1-2l.71.14a4.69,4.69,0,0,1-.24.93,2.36,2.36,0,0,0,.88.76Zm3.4,0a2.71,2.71,0,0,1-.79-.9,2.41,2.41,0,0,1-.56.92l-.62-.48a3.57,3.57,0,0,0,.93-2l.71.14a6,6,0,0,1-.22.84,2.6,2.6,0,0,0,1,.86Z"/><path class="cls-3" d="M25.66,46.3v-7h3.07v2.77H26.45V46.3ZM28,39.94H26.45v.51H28Zm0,1H26.45v.54H28ZM29.4,46V44.48h-.9a2.15,2.15,0,0,1-1,1.55l-.59-.53c.83-.46.84-1,.84-1h-.9v-.61h.94v-.73h-.73v-.59h3.75v.59h-.68v.73h.93v.61h-.93V46Zm0-2.9h-.84v.73h.84Zm1.18,2.33c1,0,1-.09,1-.43V42.11h-2.3V39.34h3.09V45c0,.84-.19,1.21-1.46,1.23Zm1-5.53H30v.51h1.55Zm0,1H30v.54h1.55Z"/><path class="cls-3" d="M33.56,41.14v-.68h3.11v.68Zm1,4.86v.3h-.77V43.81h2.58V46Zm-.69-6V39.4h2.41V40Zm0,3.31v-.63h2.41v.63Zm0-1.1v-.63h2.4v.63Zm1.72,2.21h-1v.87h1Zm4.68,1.85a5.12,5.12,0,0,1-1.69-.84A4.79,4.79,0,0,1,37,46.3l-.47-.8A3.85,3.85,0,0,0,38,45a5.61,5.61,0,0,1-1-1.3l.66-.41a4.71,4.71,0,0,0,.89,1.21,2.81,2.81,0,0,0,.77-1.31H36.85v-.72h3.4v.64a4.39,4.39,0,0,1-1,1.86,3.8,3.8,0,0,0,1.56.53Zm-.64-4.21a.66.66,0,0,1-.71-.68V40.12H38.1c0,1-.12,1.72-1.07,2.14l-.48-.69c.74-.21.82-.83.82-1.59V39.4h2.34v1.81c0,.12,0,.16.2.16s.22,0,.22-.49v-.42l.63.39c0,1-.18,1.24-.73,1.24Z"/></svg>