<svg xmlns="http://www.w3.org/2000/svg" width="32" height="32" viewBox="0 0 32 32"><defs><style>.a{fill:#fff;}.b{fill:#4d4d4d;}</style></defs><title>ico_confirmation0</title><circle class="a" cx="16" cy="16" r="16"/><path class="b" d="M22.9,16.636V7.16H8.755V24.84h6.506a.849.849,0,0,1,0,1.7H7.906a.851.851,0,0,1-.849-.849V6.312a.851.851,0,0,1,.849-.849h15.84a.851.851,0,0,1,.849.849V16.636a.849.849,0,1,1-1.7,0Zm4.37,2.065a.85.85,0,0,0-1.2.071l-4.653,5.177L19.079,21.7a.85.85,0,0,0-1.174,1.23l2.97,2.857a.834.834,0,0,0,.594.241H21.5a.857.857,0,0,0,.594-.283l5.233-5.827A.854.854,0,0,0,27.268,18.7Zm-7.482-8.288H12.149a.849.849,0,0,0,0,1.7h7.637a.849.849,0,0,0,0-1.7Zm.849,5.516a.851.851,0,0,0-.849-.848H12.149a.849.849,0,1,0,0,1.7h7.637A.851.851,0,0,0,20.635,15.929Zm-8.486,3.678a.849.849,0,1,0,0,1.7h2.263a.849.849,0,1,0,0-1.7Z"/></svg>