<svg xmlns="http://www.w3.org/2000/svg" width="19" height="19" viewBox="0 0 19 19"><defs><style>.cls-1{fill:#00301f;}.cls-2{fill:#fff;}</style></defs><title>ico_num_05_c</title><g id="レイヤー_2" data-name="レイヤー 2"><g id="レイヤー_1-2" data-name="レイヤー 1"><circle class="cls-1" cx="9.5" cy="9.5" r="9.5"/><path class="cls-2" d="M6.973,12.536a1.927,1.927,0,0,0,.421.813,2.124,2.124,0,0,0,1.724.715,2.173,2.173,0,0,0,2.3-2.312A2.089,2.089,0,0,0,9.216,9.5a2.466,2.466,0,0,0-1.738.644,1.6,1.6,0,0,0-.42.631L5.307,10.6c.141-.995.155-1.065.182-1.457l.322-3.474c.014-.252.042-.728.057-1.429.42.028.742.042,1.484.042H10.8a10.672,10.672,0,0,0,1.947-.112V5.939a13.435,13.435,0,0,0-1.933-.112H7.52L7.3,8.279c-.014.111-.041.307-.084.587a3.454,3.454,0,0,1,2.4-.854,3.6,3.6,0,0,1,2.731,1.051,3.444,3.444,0,0,1,.995,2.634c0,2.464-1.611,3.992-4.216,3.992A4.1,4.1,0,0,1,5.924,14.47a4.122,4.122,0,0,1-.882-1.527Z"/></g></g></svg>