<svg xmlns="http://www.w3.org/2000/svg" width="18.996" height="18.991" viewBox="0 0 18.996 18.991"><defs><style>.a{fill:#fff;}</style></defs><title>ico_user0</title><path class="a" d="M17.709,18.991c.429,0,.858-.046,1.287-.07V15.853c-.2-1.745-1.436-2.732-3.259-3.328-1.024-.335-1.467-.752-2.457-1.157-1.5-.615-1.74-1.342-.962-2.589a6.782,6.782,0,0,0,.564-6.955C12.29.609,11.121.2,9.754,0H9.242C7.875.2,6.706.609,6.114,1.824a6.782,6.782,0,0,0,.564,6.955c.778,1.247.541,1.974-.962,2.589-.99.4-1.433.822-2.457,1.157C1.436,13.121.2,14.108,0,15.853v3.068c.429.024.858.07,1.287.07Z"/></svg>