<svg xmlns="http://www.w3.org/2000/svg" width="160.121" height="33" viewBox="0 0 160.121 33"><defs><style>.a{fill:#e5003e;}.b{fill:#231815;}</style></defs><title>4</title><path class="a" d="M6.754,13.632v16.5L0,33V16.5ZM15.246,2.867v16.5L22,16.5V0Zm-7.623,10.4v16.5l6.755-10.027V3.236Z"/><path class="b" d="M36.8,12.7a7.572,7.572,0,0,1,1.8.2,2.831,2.831,0,0,0,.638.093c.22,0,.331.091.331.272l-.008.146c-.02.257-.067.862-.067,1.872,0,.2,0,.577-.276.577-.244,0-.274-.231-.294-.377a2.917,2.917,0,0,0-.23-.892c-.151-.283-.678-.935-2.252-.935a2.022,2.022,0,0,0-2.2,2.065c0,.987.447,1.593,2.268,3.084l.531.42C39.4,21.086,39.87,22.313,39.87,23.8a4.084,4.084,0,0,1-1.676,3.273,5.154,5.154,0,0,1-2.953.825,5.826,5.826,0,0,1-2.613-.529h0c-.351-.174-.363-.333-.363-.851,0-.769.047-1.413.077-1.8,0,0,.017-.226.019-.23.012-.142.037-.436.291-.436.274,0,.274.249.274.352a3.182,3.182,0,0,0,.055.676,2.494,2.494,0,0,0,2.677,1.827,2.4,2.4,0,0,0,2.579-2.386c0-1.223-.458-1.934-2.136-3.315l-.857-.707c-2.094-1.72-2.526-2.935-2.526-4.235,0-2.133,1.642-3.569,4.08-3.569m19.153.4c.01.011-5.031,11.6-5.061,11.657-.035-.037-5.265-11.682-5.265-11.682-.073-.175-.175-.364-.39-.364-.255,0-.309.318-.331.455,0,.009-1.281,12.479-1.281,12.479-.063.67-.125,1.3-.585,1.394a1.81,1.81,0,0,1-.5.049c-.181,0-.32.1-.32.233,0,.114.058.3.439.3.306,0,.864-.032,1.09-.039l.3-.01h.446c.214,0,.842.037,1.288.049.153.006.455,0,.455-.3a.262.262,0,0,0-.283-.235A2.364,2.364,0,0,1,45.321,27a.468.468,0,0,1-.357-.463c0-.325,0-.66.016-.962,0,0,.656-8.393.673-8.393-.044,0,4.271,9.528,4.271,9.528.355.724.428.875.636.875.229,0,.294-.156.585-.809.009,0,4.268-9.775,4.268-9.775s.812,9.376.812,9.376c.009.115.009.215.013.3.012.156.012.331-.025.351a.249.249,0,0,0-.188.244c0,.246.282.3.62.325.687.036,2.58.025,2.959.025.472,0,.512-.231.512-.3s-.029-.228-.282-.228a3.4,3.4,0,0,1-1.1-.166c-.693-.241-.8-1.282-.862-1.9L56.693,13.344c-.026-.265-.065-.633-.351-.633-.233,0-.332.242-.392.389m9.108,5.948c0,.049.023.066.034.07a6.647,6.647,0,0,0,1.115.073c1.054,0,1.269-.034,1.627-.449a2.8,2.8,0,0,0,.651-1.827c0-1.512-.638-3.131-2.432-3.131a4.215,4.215,0,0,0-.876.091c-.119.029-.119.045-.119.073Zm1.209-6.078c3.115,0,3.945,1.883,3.945,2.995a3.968,3.968,0,0,1-1.674,3.362A4.413,4.413,0,0,1,71.716,23.4c0,2.128-1.715,4.288-4.994,4.288-.277,0-1.156-.047-1.8-.083l-.733-.032-.433,0c-.43.019-1.021.053-1.433.053-.107,0-.441,0-.441-.3a.26.26,0,0,1,.289-.253,2.64,2.64,0,0,0,.543-.074c.272-.055.359-.355.441-.925.1-.791.1-2.329.1-4.109V18.626c0-2.962,0-3.494-.042-4.1-.037-.638-.19-.843-.71-.953a3.329,3.329,0,0,0-.614-.056.272.272,0,0,1-.3-.256c0-.291.339-.291.445-.291.647,0,1.494.03,1.9.047l.255.009.71-.021c.378-.016.852-.035,1.364-.035m.987,13.83A2.436,2.436,0,0,0,69.8,24.239a4.442,4.442,0,0,0-1.782-3.686,3.027,3.027,0,0,0-1.512-.53H66.49c-.154-.026-.636-.035-1.432-.035v1.075c0,1.429,0,3.818.021,4.1l0,.079c.05.866.063,1.047.561,1.286a4.444,4.444,0,0,0,1.612.275m9.128-11.9a8.076,8.076,0,0,0-1.867,5.336,7.641,7.641,0,0,0,2.328,5.666,7.984,7.984,0,0,0,5.973,1.931,9.535,9.535,0,0,0,3.216-.539.757.757,0,0,0,.519-.651,20.841,20.841,0,0,0,.323-2.483c-.008-.376-.19-.411-.268-.411-.247.006-.268.249-.3.406a4.054,4.054,0,0,1-.578,1.55,3.715,3.715,0,0,1-2.936.983,5.9,5.9,0,0,1-4.553-1.946,7.369,7.369,0,0,1-1.865-4.708,6.668,6.668,0,0,1,1.421-4.915,5.185,5.185,0,0,1,3.914-1.454,5.484,5.484,0,0,1,3.461.953,2.7,2.7,0,0,1,.744,1.826c.026.223.018.533.3.523s.274-.323.282-.533l0-.671c0-.412-.006-.924,0-1.288.009-.415.031-.66.044-.826l.014-.252c-.006-.2-.122-.313-.36-.332a13.292,13.292,0,0,1-1.722-.22l-.073-.012a14.49,14.49,0,0,0-2.593-.163,7.033,7.033,0,0,0-5.417,2.23m27.861,13.057H91.348V12.912h12.895Zm-2.281-6.982h-8.4v5.386h8.4Zm0-6.468h-8.4V19.38h8.4Zm24.093,5.75h5.281v1.6h-5.281Zm0,2.643h5.281v5.059h-5.281Zm1.657,3.84h1.927V24.259h-1.927Zm14.019-.381v1.6H131.9v-1.6h1.111V17.5H135l0,8.864h1.354V14.493h-3.937V12.914h8.963v1.579h-2.889V19.5h2.6v1.581h-2.6v5.284Zm-15.676-8.517h5.281v1.6h-5.281Zm-.383-2.483h5.96V16.94h-5.96Zm5.664-.87h-5.281V12.912l5.281-.006Zm15.616,1.187a17.9,17.9,0,0,0-1.536-2.95l1.507-.706a22.319,22.319,0,0,1,1.867,2.452Zm8.386-.131-1.456-.709a15.7,15.7,0,0,0,1.649-2.66l2.33.949a17.44,17.44,0,0,1-2.523,2.42m-1.112,1.366a8.128,8.128,0,0,0,1.24,2.212h4.214v1.207h-3.034a15.792,15.792,0,0,0,3.475,2.264l-.935,1.248a23.144,23.144,0,0,1-2.859-1.778c-.026,1.425-.223,4.75-.884,5.542-.5.619-1.449.625-2.3.625h-2.131l-.443-1.177c1.418,0,1.262.008,1.655.008.569,0,1.066-.041,1.312-.71a14.478,14.478,0,0,0,.426-2.773h-2.555c-.766,3.446-3.624,4.421-5.967,4.785l-.482-1.141c1.415-.4,3.584-.792,4.15-3.644H146.9V22.21a12.124,12.124,0,0,1-2.963,1.421l-.784-1.087a13.562,13.562,0,0,0,3.331-2.21h-2.847V19.127h4.007a11.008,11.008,0,0,0,1.447-2.212h-4.6V15.694h5.122a11.4,11.4,0,0,0,.631-3.609h2.394a11.9,11.9,0,0,1-.642,3.609h6.875v1.221Zm-2.719,0a12.615,12.615,0,0,1-1.33,2.212h2.969a8.685,8.685,0,0,1-1.234-2.212Zm4.693,5.057a19,19,0,0,1-1.961-1.638h-5.084a12.78,12.78,0,0,1-1.892,1.638Zm-42.073-4.506h2.484v4.359h-2.484Zm.912,3.546h.661V18.28h-.661Zm8.421,6.752-1.813.654c-1.079-.26-2.583-.973-4.772-3.1l1.1-.526H112.7l1.06.549a13.652,13.652,0,0,1-5.161,3.041l-1.419-.747a16.96,16.96,0,0,0,3.932-2.843H107.3V23.326l1.14,0V13.305a8.715,8.715,0,0,0,2.9-1.07l.708.978v-.3H118.7V23.323H120.4V20.934H119.09V19.6H120.4V17.565H119.09V16.227H120.4V14.249h-1.309V12.914H122.3V23.323h1.139v1.468h-3.861a14.03,14.03,0,0,0,3.882,2.973M112.042,13.592a13.943,13.943,0,0,1-1.707.459v2.174h1.312v1.34h-1.312V19.6h1.312v1.338h-1.312v2.389h1.707Zm5.038.657h-3.424v9.074h3.424Zm-.467,2.3h-2.487V15.31h2.487Z"/></svg>