<svg xmlns="http://www.w3.org/2000/svg" width="20.84" height="20.84" viewBox="0 0 20.84 20.84"><defs><style>.cls-1{fill:none;stroke:#004831;stroke-miterlimit:10;stroke-width:1.84px;}.cls-2{fill:#004831;}</style></defs><title>ico_num_05</title><g id="レイヤー_2" data-name="レイヤー 2"><g id="レイヤー_1-2" data-name="レイヤー 1"><circle class="cls-1" cx="10.42" cy="10.42" r="9.5"/><path class="cls-2" d="M7.977,13.193a1.922,1.922,0,0,0,.42.813,2.125,2.125,0,0,0,1.724.714,2.172,2.172,0,0,0,2.3-2.311,2.088,2.088,0,0,0-2.2-2.255,2.465,2.465,0,0,0-1.737.644,1.616,1.616,0,0,0-.42.63L6.31,11.26c.141-.995.155-1.064.183-1.456l.321-3.475c.015-.252.042-.728.057-1.428.42.028.742.042,1.484.042H11.8a10.684,10.684,0,0,0,1.948-.112V6.6a13.458,13.458,0,0,0-1.934-.112H8.523L8.3,8.935q-.021.168-.084.588a3.445,3.445,0,0,1,2.4-.854,3.6,3.6,0,0,1,2.731,1.05,3.445,3.445,0,0,1,.995,2.634c0,2.465-1.611,3.992-4.216,3.992a4.1,4.1,0,0,1-3.195-1.219A4.127,4.127,0,0,1,6.045,13.6Z"/></g></g></svg>