<svg xmlns="http://www.w3.org/2000/svg" width="19" height="19" viewBox="0 0 19 19"><defs><style>.cls-1{fill:#00301f;}.cls-2{fill:#fff;}</style></defs><title>ico_num_04_c</title><g id="レイヤー_2" data-name="レイヤー 2"><g id="レイヤー_1-2" data-name="レイヤー 1"><circle class="cls-1" cx="9.5" cy="9.5" r="9.5"/><path class="cls-2" d="M13.852,12.943a10.808,10.808,0,0,0-1.4-.1h-.505v.995a8.69,8.69,0,0,0,.113,1.6h-1.99a8.924,8.924,0,0,0,.113-1.625v-.966H6.3c-.827,0-1.275.014-1.75.056V11.178c.475-.518.629-.7,1.119-1.289l3.32-4.062a13.007,13.007,0,0,0,1.162-1.541h1.892a19.711,19.711,0,0,0-.1,2.367v4.6h.491a9.23,9.23,0,0,0,1.415-.1ZM10.2,8.362a15.843,15.843,0,0,1,.07-1.68c-.281.406-.449.63-.953,1.246L6.624,11.262H10.2Z"/></g></g></svg>