<svg xmlns="http://www.w3.org/2000/svg" width="27.776" height="19.5" viewBox="0 0 27.776 19.5"><defs><style>.a{fill:#fff;}</style></defs><title>36</title><path class="a" d="M26.776,0H9.276A2.534,2.534,0,0,0,7.615.75L.271,9.083a1.156,1.156,0,0,0,.006,1.495l7.332,8.177a2.559,2.559,0,0,0,1.667.745h17.5a1,1,0,0,0,1-1V1A1,1,0,0,0,26.776,0Zm-3.5,12.955a1.183,1.183,0,1,1-1.672,1.673l-3.206-3.2-3.2,3.205a1.183,1.183,0,0,1-1.673-1.673l3.205-3.2-3.205-3.2A1.183,1.183,0,0,1,15.2,4.872L18.4,8.077l3.206-3.2a1.183,1.183,0,0,1,1.672,1.673l-3.2,3.205Z"/></svg>