<svg xmlns="http://www.w3.org/2000/svg" xmlns:xlink="http://www.w3.org/1999/xlink" viewBox="0 0 464.29 500"><defs><style>.cls-1,.cls-39,.cls-51,.cls-52,.cls-55,.cls-71,.cls-72,.cls-73{fill:none;}.cls-2{fill:#edf3b2;}.cls-3{isolation:isolate;}.cls-4{clip-path:url(#clip-path);}.cls-5{fill:url(#radial-gradient);}.cls-6{fill:url(#linear-gradient);}.cls-7{fill:url(#linear-gradient-2);}.cls-8{fill:url(#linear-gradient-3);}.cls-9{fill:url(#linear-gradient-4);}.cls-10{fill:url(#linear-gradient-5);}.cls-11{fill:url(#linear-gradient-6);}.cls-12{fill:url(#linear-gradient-7);}.cls-13{fill:url(#linear-gradient-8);}.cls-14{fill:url(#linear-gradient-9);}.cls-15{fill:url(#linear-gradient-10);}.cls-16{fill:url(#linear-gradient-11);}.cls-17{fill:url(#linear-gradient-12);}.cls-18{fill:url(#linear-gradient-13);}.cls-19{fill:#eac233;}.cls-20{fill:url(#radial-gradient-2);}.cls-21{fill:#f5b18a;}.cls-22{fill:url(#linear-gradient-14);}.cls-23{fill:#48080f;}.cls-24{fill:url(#radial-gradient-3);}.cls-25{fill:url(#linear-gradient-15);}.cls-26{fill:url(#linear-gradient-16);}.cls-27{fill:url(#linear-gradient-17);}.cls-28{fill:url(#linear-gradient-18);}.cls-29{fill:url(#linear-gradient-19);}.cls-30{fill:url(#radial-gradient-4);}.cls-31{fill:url(#radial-gradient-5);}.cls-32{fill:#df9c5c;}.cls-33{mix-blend-mode:multiply;}.cls-34{fill:url(#radial-gradient-6);}.cls-35{fill:url(#radial-gradient-7);}.cls-36{fill:url(#radial-gradient-8);}.cls-37{fill:url(#radial-gradient-9);}.cls-38{fill:#46160b;}.cls-39{stroke:#de816a;stroke-linecap:round;stroke-linejoin:round;}.cls-40{fill:url(#radial-gradient-10);}.cls-41{fill:url(#radial-gradient-11);}.cls-42{fill:url(#radial-gradient-12);}.cls-43{fill:url(#radial-gradient-13);}.cls-44{fill:url(#radial-gradient-14);}.cls-45{fill:url(#radial-gradient-15);}.cls-46{fill:url(#radial-gradient-16);}.cls-47{clip-path:url(#clip-path-2);}.cls-48{fill:#29292a;}.cls-49{fill:#fff;}.cls-50{fill:#6f6e6e;}.cls-51,.cls-71{stroke:#b4b4b4;}.cls-51,.cls-55{stroke-width:0.93px;}.cls-52,.cls-72{stroke:#000;stroke-miterlimit:10;}.cls-52{stroke-width:0.23px;stroke-dasharray:0.93 0.23;}.cls-53{fill:#b5b5b5;}.cls-54{fill:#b3b39a;}.cls-55,.cls-73{stroke:#e5e5e5;}.cls-56{fill:#d7d7d7;}.cls-57{fill:#ccdeaf;}.cls-58{fill:url(#radial-gradient-17);}.cls-59{fill:url(#radial-gradient-18);}.cls-60{fill:#edac86;}.cls-61{fill:#9d9c9d;}.cls-62{fill:#2d2d2d;}.cls-63{fill:#060001;}.cls-64{fill:url(#radial-gradient-19);}.cls-65{fill:url(#linear-gradient-20);}.cls-66{fill:url(#linear-gradient-21);}.cls-67{fill:url(#linear-gradient-22);}.cls-68{fill:url(#linear-gradient-23);}.cls-69{fill:#2e2523;}.cls-70{fill:#3d3a39;}.cls-71,.cls-73{stroke-width:0.66px;}.cls-72{stroke-width:0.17px;stroke-dasharray:0.66 0.17;}.cls-74{fill:url(#linear-gradient-24);}.cls-75{fill:#9d9d9e;}.cls-76{fill:#f1cbab;}</style><clipPath id="clip-path"><rect id="SVGID" class="cls-1" width="464.29" height="506.43"/></clipPath><radialGradient id="radial-gradient" cx="351.4" cy="97.96" r="44.92" gradientTransform="translate(0.13 -0.53) scale(0.98 0.98)" gradientUnits="userSpaceOnUse"><stop offset="0" stop-color="#432610"/><stop offset="0.36" stop-color="#311305"/><stop offset="1" stop-color="#241004"/></radialGradient><linearGradient id="linear-gradient" x1="252.31" y1="257.37" x2="293.85" y2="257.37" gradientUnits="userSpaceOnUse"><stop offset="0" stop-color="#071630"/><stop offset="1" stop-color="#133c62"/></linearGradient><linearGradient id="linear-gradient-2" x1="388.81" y1="338.29" x2="408.17" y2="213.26" xlink:href="#linear-gradient"/><linearGradient id="linear-gradient-3" x1="318.11" y1="514.35" x2="354.12" y2="356.75" xlink:href="#linear-gradient"/><linearGradient id="linear-gradient-4" x1="337.99" y1="204.34" x2="337.99" y2="160.71" gradientUnits="userSpaceOnUse"><stop offset="0" stop-color="#fbeedb"/><stop offset="1" stop-color="#efba95"/></linearGradient><linearGradient id="linear-gradient-5" x1="323.31" y1="219.52" x2="323.31" y2="265.76" gradientTransform="translate(18.71 -31.79) rotate(1)" gradientUnits="userSpaceOnUse"><stop offset="0" stop-color="#c4c4c3"/><stop offset="0.05" stop-color="#cbcbca"/><stop offset="0.25" stop-color="#e2e2e1"/><stop offset="0.46" stop-color="#f2f2f2"/><stop offset="0.7" stop-color="#fcfcfc"/><stop offset="1" stop-color="#fff"/></linearGradient><linearGradient id="linear-gradient-6" x1="6830.59" y1="84.62" x2="6830.59" y2="116.79" gradientTransform="matrix(-1, 0.02, 0.02, 1, 7165.7, -31.79)" gradientUnits="userSpaceOnUse"><stop offset="0" stop-color="#c4c4c3"/><stop offset="0.09" stop-color="#d5d5d5"/><stop offset="0.23" stop-color="#e8e8e7"/><stop offset="0.4" stop-color="#f5f5f5"/><stop offset="0.6" stop-color="#fdfdfd"/><stop offset="1" stop-color="#fff"/></linearGradient><linearGradient id="linear-gradient-7" x1="315.56" y1="314.07" x2="393.17" y2="314.07" gradientTransform="translate(18.71 -31.79) rotate(1)" xlink:href="#linear-gradient"/><linearGradient id="linear-gradient-8" x1="376.75" y1="410.78" x2="365.42" y2="364.9" gradientTransform="translate(18.71 -31.79) rotate(1)" xlink:href="#linear-gradient"/><linearGradient id="linear-gradient-9" x1="360.53" y1="272.09" x2="358.24" y2="262.82" gradientTransform="translate(18.71 -31.79) rotate(1)" xlink:href="#linear-gradient"/><linearGradient id="linear-gradient-10" x1="363.8" y1="264.08" x2="276.73" y2="227.05" gradientTransform="translate(18.71 -31.79) rotate(1)" xlink:href="#linear-gradient"/><linearGradient id="linear-gradient-11" x1="6792.79" y1="200.72" x2="6868.96" y2="200.72" gradientTransform="matrix(-1, 0.02, 0.02, 1, 7135.04, -31.79)" xlink:href="#linear-gradient"/><linearGradient id="linear-gradient-12" x1="6854.12" y1="297.4" x2="6842.79" y2="251.52" gradientTransform="matrix(-1, 0.02, 0.02, 1, 7135.04, -31.79)" xlink:href="#linear-gradient"/><linearGradient id="linear-gradient-13" x1="6838.97" y1="154.31" x2="6753.5" y2="117.95" gradientTransform="matrix(-1, 0.02, 0.02, 1, 7135.04, -31.79)" xlink:href="#linear-gradient"/><radialGradient id="radial-gradient-2" cx="686.34" cy="-182.65" r="47.75" gradientTransform="matrix(0.97, -0.17, 0.16, 0.92, -363.58, 718.61)" xlink:href="#linear-gradient-4"/><linearGradient id="linear-gradient-14" x1="636.9" y1="-146.42" x2="685.21" y2="-146.42" gradientTransform="matrix(0.98, -0.17, 0.16, 0.93, -370.82, 733.24)" xlink:href="#linear-gradient-5"/><radialGradient id="radial-gradient-3" cx="6779.17" cy="956.95" r="47.75" gradientTransform="matrix(-0.97, -0.17, -0.16, 0.92, 7071.68, 718.61)" xlink:href="#linear-gradient-4"/><linearGradient id="linear-gradient-15" x1="6741.8" y1="995.04" x2="6791.15" y2="995.04" gradientTransform="matrix(-0.98, -0.17, -0.16, 0.93, 7209.82, 733.24)" xlink:href="#linear-gradient-5"/><linearGradient id="linear-gradient-16" x1="402.48" y1="331.33" x2="404.35" y2="319.22" gradientTransform="matrix(1, 0, 0, 1, 0, 0)" xlink:href="#linear-gradient-5"/><linearGradient id="linear-gradient-17" x1="278.92" y1="331.05" x2="283.09" y2="304.08" gradientTransform="matrix(1, 0, 0, 1, 0, 0)" xlink:href="#linear-gradient-5"/><linearGradient id="linear-gradient-18" x1="218.1" y1="454.36" x2="218.1" y2="425.26" gradientTransform="matrix(0.86, 0.16, -0.18, 0.98, 283.3, -350.03)" gradientUnits="userSpaceOnUse"><stop offset="0" stop-color="#e9b373"/><stop offset="0.57" stop-color="#f5d0b5"/><stop offset="1" stop-color="#f6e2d0"/></linearGradient><linearGradient id="linear-gradient-19" x1="277.7" y1="-199.82" x2="277.7" y2="-228.92" gradientTransform="translate(47.86 377.39) rotate(-10.11)" xlink:href="#linear-gradient-18"/><radialGradient id="radial-gradient-4" cx="343.56" cy="102.27" r="60.5" gradientTransform="translate(0.13 -0.53) scale(0.98 0.98)" gradientUnits="userSpaceOnUse"><stop offset="0" stop-color="#f6e2d0"/><stop offset="1" stop-color="#f5d0b5"/></radialGradient><radialGradient id="radial-gradient-5" cx="674.6" cy="77.89" r="10.44" gradientTransform="translate(-441.47 19.32) scale(1.19 1.2)" gradientUnits="userSpaceOnUse"><stop offset="0" stop-color="#6e4c37"/><stop offset="1" stop-color="#040000"/></radialGradient><radialGradient id="radial-gradient-6" cx="453.67" cy="128.54" r="13.22" gradientTransform="translate(-88.94 -0.53) scale(1.02 0.98)" gradientUnits="userSpaceOnUse"><stop offset="0" stop-color="#fbe5d4"/><stop offset="1" stop-color="#fff"/></radialGradient><radialGradient id="radial-gradient-7" cx="386.78" cy="128.54" r="13.22" xlink:href="#radial-gradient-6"/><radialGradient id="radial-gradient-8" cx="453.67" cy="134.93" r="13.22" xlink:href="#radial-gradient-6"/><radialGradient id="radial-gradient-9" cx="386.78" cy="134.93" r="13.22" xlink:href="#radial-gradient-6"/><radialGradient id="radial-gradient-10" cx="336.84" cy="40.15" r="99.91" gradientTransform="translate(0.13 -0.53) scale(0.98 0.98)" gradientUnits="userSpaceOnUse"><stop offset="0" stop-color="#4e3217"/><stop offset="0.36" stop-color="#3f210f"/><stop offset="1" stop-color="#241004"/></radialGradient><radialGradient id="radial-gradient-11" cx="242.9" cy="82.99" r="13.92" gradientTransform="translate(137.2 15.01) scale(0.92 1.16)" xlink:href="#radial-gradient-5"/><radialGradient id="radial-gradient-12" cx="3588.39" cy="77.89" r="10.45" gradientTransform="matrix(-1.19, 0, 0, 1.2, 4582.45, 19.32)" xlink:href="#radial-gradient-5"/><radialGradient id="radial-gradient-13" cx="4026.37" cy="82.99" r="13.92" gradientTransform="matrix(-0.92, 0, 0, 1.16, 4005.8, 15.01)" xlink:href="#radial-gradient-5"/><radialGradient id="radial-gradient-14" cx="417.71" cy="66.25" r="47.79" xlink:href="#radial-gradient"/><radialGradient id="radial-gradient-15" cx="301.62" cy="62.49" r="50.8" xlink:href="#radial-gradient"/><radialGradient id="radial-gradient-16" cx="411.7" cy="95.55" r="32.43" xlink:href="#radial-gradient"/><clipPath id="clip-path-2"><path id="SVGID-2" data-name="SVGID" class="cls-2" d="M213.28,271.42a98.11,98.11,0,1,1-98.11-98.1A98.11,98.11,0,0,1,213.28,271.42Z"/></clipPath><radialGradient id="radial-gradient-17" cx="46.81" cy="318.34" r="35.56" gradientTransform="translate(0.13 -0.53) scale(0.98 0.98)" xlink:href="#linear-gradient-4"/><radialGradient id="radial-gradient-18" cx="-19.53" cy="-355.07" r="25.72" gradientTransform="translate(154.92 674.18) scale(0.98 0.98)" xlink:href="#linear-gradient-4"/><radialGradient id="radial-gradient-19" cx="1217.98" cy="-1376.63" r="43" gradientTransform="matrix(0.92, -0.34, 0.34, 0.92, -500.22, 1956.45)" xlink:href="#linear-gradient-4"/><linearGradient id="linear-gradient-20" x1="1211.64" y1="-1332.69" x2="1243.82" y2="-1332.69" gradientTransform="matrix(0.94, -0.34, 0.34, 0.94, -510.14, 1995.35)" xlink:href="#linear-gradient-5"/><linearGradient id="linear-gradient-21" x1="374.65" y1="-108.82" x2="429.19" y2="-108.82" gradientTransform="translate(-191.89 481.1) rotate(-5)" xlink:href="#linear-gradient"/><linearGradient id="linear-gradient-22" x1="-625.86" y1="2351.22" x2="-592.49" y2="2351.22" gradientTransform="matrix(0.83, 0.56, -0.56, 0.83, 1848.24, -1280.48)" xlink:href="#linear-gradient-5"/><linearGradient id="linear-gradient-23" x1="-635.47" y1="2365.88" x2="-592.41" y2="2365.88" gradientTransform="matrix(0.83, 0.56, -0.56, 0.83, 1848.24, -1280.48)" xlink:href="#linear-gradient"/><linearGradient id="linear-gradient-24" x1="430.31" y1="326.85" x2="378.35" y2="337.36" xlink:href="#linear-gradient-4"/></defs><title>アートボード 111</title><g class="cls-3"><g id="レイヤー_1" data-name="レイヤー 1"><g class="cls-4"><path class="cls-5" d="M278.44,122.46c0,9,29.33,40.64,37.64,45.81a43.26,43.26,0,0,1,44.06,0c8.31-5.17,37.07-32.08,37.07-41.11,0-15.6-39.39-61.19-59.09-61.19s-57.5,7.24-60.56,57.37"/><path class="cls-6" d="M293.32,307.17c-1.71-2-13.45-15.48-13.45-15.48l8-23.77,3-83.55a18.67,18.67,0,0,0-12,11.43,358.89,358.89,0,0,0-10.6,34.72c-2.95,11.79-9.58,35-12.16,44.22s-5.16,16.95-3,23.21,20.08,32.43,20.08,32.43,11.24-6.26,14.19-8.11S295.53,309.74,293.32,307.17Z"/><path class="cls-7" d="M421.56,291.32c-.51-5.84-13.5-60.12-15.39-67.89-5-20.45-4.4-18.29-7.88-27.63a18.61,18.61,0,0,0-11.92-11.43s3.88,44.6,3.38,73.35c0,1.33,8.59,32.5,8.59,34.71s-7.74,26.34-7.74,26.34c-1.13,4.85,2.42,13.73,8.48,16.4,5.75,2.54,13.63,1.29,15.29-4.42S422.53,298.09,421.56,291.32Z"/><path class="cls-8" d="M397.21,380.16,348.4,342.23V327.15l-9.7,7.54-9.7-7.54v15.08l-48.8,37.93s-3.65,1.29-3.1,29.17c.55,28.19,9.95,92.48,9.95,92.48H390.36s9.39-64.29,9.95-92.48C400.85,381.45,397.21,380.16,397.21,380.16Z"/><path class="cls-9" d="M368.14,181.56s-8.93.11-15.1-9.75-.4-36.05-.4-36.05A53.58,53.58,0,0,0,338,139.18a53.61,53.61,0,0,0-14.66-3.42s5.77,26.19-.4,36.05-15.1,9.75-15.1,9.75a111.65,111.65,0,0,1,14.26,4.34,31.28,31.28,0,0,0,6.89,1.48c2,.71,4.51,26.07,7.78,26l.92,0c0,25.49.62,0,.92,0,3.28,0,6.36-25.31,8.39-26a31,31,0,0,0,6.89-1.48A112.22,112.22,0,0,1,368.14,181.56Z"/><polygon class="cls-10" points="302.35 183.82 338.28 192.4 372 183.26 373.47 225.42 341.86 294.52 302.9 229.69 302.35 183.82"/><path class="cls-11" d="M338.09,193.29l-13,16.78-19.32-30s12.59-7.41,14.25-6.89,15.82,19.19,18,18.91h.05c2.2.28,16.35-18.38,18-18.91s14.26,6.89,14.26,6.89l-19.32,30Z"/><path class="cls-12" d="M368.4,177.62l18,6.75s5.09,39.9,4.59,68.65c-.24,13.82-5.88,24.58-5.12,54.44.31,11.75,7.69,56,15.6,76.74,2.51,6.61,5.15,15.73.17,15.64-1.78,0-8.55-1.71-16.21-2.26-13.72-1-22.47-1.35-32.83-1.35s-24.42-76.51-24.34-81.48C328.39,305.91,368.4,177.62,368.4,177.62Z"/><path class="cls-13" d="M364.94,337.34c-.05,2.76,6.6,33.56,7.65,36.62s2.42,3.91,4.63,4,16,1.66,18.21,2.25c1.36.37,3.47.75,4.87,1a298.26,298.26,0,0,1-12.48-46.46c-3.47-.15-19.68-.88-21.16-.9C365,333.75,365,334.58,364.94,337.34Z"/><polygon class="cls-14" points="362.19 237.88 385.7 237.19 386.14 243.55 360.43 244.21 362.19 237.88"/><path class="cls-15" d="M370.15,225.58c1.16-3.29,1.17-3.85.08-4.69s-4.91-4-7.36-5.94-1.31-3.89-.21-3.87,6.93-1.26,8.6-1.51,3.33-1,3.1-3.54c-.2-2.11-.5-20.65-.59-26.3l-5.37-2.11S349.84,237.14,338,277.89l.61-.34C356.15,267.63,369,228.88,370.15,225.58Z"/><path class="cls-16" d="M326.12,242.22c-7.55-20.82-18.83-64.6-18.83-64.6l-16.4,6.75s-5.55,38.33-5.05,67.09c.24,13.81,4.77,26.14,4,56-.31,11.75-7.69,56-15.59,76.74-2.52,6.61-2,15.73,2.95,15.64,1.78,0,5.42-1.71,13.08-2.26,13.72-1,25.34-1.35,32.83-1.35s23.75-43.92,23.75-59.41,1.3-37.3-.3-50S333.67,263,326.12,242.22Z"/><path class="cls-17" d="M310.75,337.34c.05,2.76-6.6,33.56-7.65,36.62s-2.42,3.91-4.63,4-16,1.66-18.21,2.25c-1.36.37-3.47.75-4.87,1a297.16,297.16,0,0,0,12.48-46.46c3.47-.15,19.68-.88,21.16-.9C310.69,333.75,310.7,334.58,310.75,337.34Z"/><path class="cls-18" d="M305.54,225.58c-1.16-3.29-1.17-3.85-.08-4.69s4.91-4,7.36-5.94,1.31-3.89.21-3.87-6.93-1.26-8.6-1.51-3.33-1-3.1-3.54c.2-2.11.51-20.65.59-26.3l5.37-2.11s17.54,56.49,22.7,70.13,13,28.18,15.29,35.92a107.26,107.26,0,0,1-9.58-6.26C320.68,266,306.71,228.88,305.54,225.58Z"/><path class="cls-19" d="M343.8,290.27a5.16,5.16,0,1,1-5.06-5.25A5.15,5.15,0,0,1,343.8,290.27Z"/><path class="cls-19" d="M343.8,319a5.16,5.16,0,1,1-5.06-5.24A5.15,5.15,0,0,1,343.8,319Z"/><path class="cls-20" d="M273.88,487.56s5.27-20.49,7.76-24.48,7.41-12.44,10.94-19.64,5.79-18.32,7.44-23.28c2.1-6.3-.18-19.46-.7-22.4s-2.93-1.51-2.93-1.51,2.15-9-.87-11-6,2.08-6,2.08.77-8.9-2.42-8.84-6.55,6.37-6.55,6.37-.17-4.06-2.9-5.32c-4.36-2-6.35,6.38-8.76,10.85s-6.39,18.36-11.81,29.95-5.09,1.4-4.57-1.73,3-7.11,2.66-18.18-6.22-11.05-7.42-2.74-7.57,17.53-7.82,31.24,6.83,26.62,7.17,31.62c.53,7.6-2.27,15.35-4.23,24.36Z"/><path class="cls-21" d="M280.52,384.88l.69.89s-6.32,22.79-7.53,25.36c-1.54,3.31-2,8.45-3,5.6-.57-1.56.72-3.26,2.71-8.83,1.65-4.64,3.47-11.24,4.21-13.9C279.23,388.14,280.52,384.88,280.52,384.88Z"/><path class="cls-21" d="M289.49,387.35s-4.34,16.2-5,18.59-4,12.34-4.43,14.19.82,3.14,2.15-1.39,7-25.52,7.31-29.63Z"/><path class="cls-21" d="M296.39,396.25s-1.81,7.91-2.75,13.14S292,419.55,291,421.5c-.59,1.15-1.73,3.84-2,2.12s1.59-6.1,3.35-14.25,2.92-12.16,2.92-12.16Z"/><path class="cls-22" d="M237.43,474.79s18.38-16.73,42.19,1.34l-.8,15.66s-35.18-10-46-2.69Z"/><path class="cls-23" d="M232,478s25.45-14.94,49.25,3.13l-9.39,47.54s-44.37-5.68-55.17,1.63Z"/><path class="cls-21" d="M263.61,419.81s.53-6.81,16.11.35c0,0,9.27.17,12.07,5.77,0,0-7-4.2-12.61-3.5C279.18,422.43,270.61,416.31,263.61,419.81Z"/><path class="cls-24" d="M364.87,494.89s-5.27-20.49-7.77-24.48-7.41-12.44-10.94-19.64-5.79-18.32-7.44-23.28c-2.1-6.3.18-19.46.7-22.4s2.93-1.51,2.93-1.51-2.14-9,.88-11,6,2.08,6,2.08-.77-8.9,2.42-8.84,6.54,6.37,6.54,6.37.18-4.06,2.91-5.32c4.35-2,6.34,6.38,8.75,10.85s6.39,18.36,11.82,29.95,5.08,1.4,4.57-1.73-3-7.11-2.66-18.18,6.21-11,7.41-2.74,7.57,17.53,7.82,31.24S392,462.9,391.67,467.9c-.53,7.6,2.27,15.35,4.23,24.37Z"/><path class="cls-21" d="M358.22,392.21l-.69.89s6.32,22.79,7.53,25.37c1.55,3.3,2,8.44,3,5.59.57-1.56-.72-3.26-2.71-8.83-1.65-4.64-3.47-11.24-4.21-13.9C359.51,395.47,358.22,392.21,358.22,392.21Z"/><path class="cls-21" d="M349.26,394.68l5,18.59c.65,2.39,4,12.34,4.43,14.19s-.82,3.14-2.15-1.39-7-25.52-7.31-29.63Z"/><path class="cls-21" d="M342.35,403.58s1.81,7.91,2.75,13.14,1.68,10.16,2.67,12.11c.59,1.15,1.72,3.84,2,2.12s-1.59-6.1-3.35-14.25-2.92-12.16-2.92-12.16Z"/><path class="cls-25" d="M402.36,481.07s-20.48-15.68-44.28,2.39l1.84,15.66s35.18-10,46-2.69Z"/><path class="cls-23" d="M406.76,485.29s-25.44-14.94-50.09,2.28l9.39,47.54s45.21-4.83,56,2.48Z"/><path class="cls-21" d="M375.13,427.14s-.53-6.81-16.1.35c0,0-9.27.17-12.07,5.77,0,0,7-4.2,12.6-3.5C359.56,429.76,368.13,423.64,375.13,427.14Z"/><path class="cls-26" d="M394.66,318.22s6.44-4.05,12.89,0,6.27,12,3.32,14Z"/><path class="cls-27" d="M276.92,329.83c-2.58-.37-6.45-1.47-7.74-5.53s-2.76-6.82-1.47-12,6.64-9.65,10.87-11.61c10.68-5,17.32,2.94,18.42,4.23s-9.58,20.09-12,21.38S276.92,329.83,276.92,329.83Z"/><path class="cls-28" d="M379.47,115c-1.63,8.79,2.54,16.92,9.32,18.17s13.6-4.85,15.21-13.63-2.54-16.93-9.33-18.18-13.58,4.85-15.2,13.64"/><path class="cls-29" d="M295.62,115.47c1.57,8.8-2.52,16.88-9.15,18.07s-13.26-5-14.82-13.79,2.52-16.89,9.14-18.07,13.26,5,14.83,13.79"/><path class="cls-30" d="M283.1,93.43c0,19.63,5.06,39.63,14.8,50.72C310,158,333.48,164,337.51,164c9,0,27.16-6.31,39.61-19.85,9.87-10.74,14-31.09,14-50.73,0-40.83-18.45-57.89-53.6-57.89S283.1,52.6,283.1,93.43"/><path class="cls-31" d="M358.75,117c0,4,2.52,7.29,5.61,7.29S370,121,370,117s-2.51-7.3-5.62-7.3-5.61,3.26-5.61,7.3"/><path class="cls-32" d="M337.14,137.78a1.58,1.58,0,0,1-.73-.18l-3.9-2.11,3.43-9.87c.17-.62.28-1.36,1-1.22s0,1.29-.17,1.92l-1.17,8.08,2.25,1.22a1.07,1.07,0,0,1,.43,1.61,1.44,1.44,0,0,1-1.15.55"/><rect class="cls-1" x="357.41" y="113.97" width="29.46" height="23.15"/><g class="cls-33"><path class="cls-34" d="M357.41,125.54c0,6.4,6.6,11.57,14.73,11.57s14.73-5.17,14.73-11.57S380.28,114,372.14,114s-14.73,5.18-14.73,11.57"/></g><rect class="cls-1" x="289.43" y="113.97" width="29.46" height="23.15"/><g class="cls-33"><path class="cls-35" d="M289.43,125.54c0,6.4,6.6,11.57,14.73,11.57s14.73-5.17,14.73-11.57S312.3,114,304.16,114s-14.73,5.18-14.73,11.57"/></g><rect class="cls-1" x="357.41" y="120.23" width="29.46" height="23.15"/><g class="cls-33"><path class="cls-36" d="M357.41,131.81c0,6.4,6.6,11.57,14.73,11.57s14.73-5.17,14.73-11.57-6.59-11.58-14.73-11.58-14.73,5.19-14.73,11.58"/></g><rect class="cls-1" x="289.43" y="120.23" width="29.46" height="23.15"/><g class="cls-33"><path class="cls-37" d="M289.43,131.81c0,6.4,6.6,11.57,14.73,11.57s14.73-5.17,14.73-11.57-6.59-11.58-14.73-11.58-14.73,5.19-14.73,11.58"/></g><path class="cls-38" d="M370.23,98.4c-6.67-1.13-10.7.23-13.74,6.07a14.73,14.73,0,0,1,12-3.79c7.29,1.06,10.94,4.15,10.94,4.15a12.84,12.84,0,0,0-9.22-6.43"/><path class="cls-39" d="M324.21,146.2c3.21,3.22,11.09,5.39,13.3,5.27s10.1-2.05,13.31-5.27"/><path class="cls-40" d="M320.52,18.12C291,27.22,270.69,46.8,262.91,82.93s5.62,51,18.75,62.14c14.32,12.14,31.78,11.36,31.78,11.36-14.35-4.51-30.77-13.56-30.47-42.33.23-21.9,31-37.56,42.66-43.49s33.63-9.79,33.63-9.79,47.67,31.87,16.45,79c0,0,11.2-5.58,15.75-14.86-2.35,14.52-16,27.89-29.88,35.71,0,0,13.65-1.39,26.78-12.51s30.42-29.19,23.88-65.57C406.69,51.7,396.7,40.1,385.71,31s-24.32-4.93-24.32-4.93-7.05-10.63-24.56-10.63a55.58,55.58,0,0,0-16.31,2.67"/><path class="cls-41" d="M363,111s7.3-3.42,11,7.65c0,0-.64-8.32-8.13-9.48s-8.14,6.58-8.14,6.58S359.91,111,363,111Z"/><path class="cls-42" d="M316.79,117c0,4-2.53,7.29-5.62,7.29s-5.62-3.27-5.62-7.29,2.51-7.3,5.62-7.3,5.62,3.26,5.62,7.3"/><path class="cls-38" d="M305.81,98.27c6.65-1.34,10.7-.1,13.91,5.64a14.68,14.68,0,0,0-12.11-3.41c-7.27,1.29-10.83,4.49-10.83,4.49a12.93,12.93,0,0,1,9-6.72"/><path class="cls-43" d="M312.52,111s-7.3-3.42-11,7.65c0,0,.64-8.32,8.13-9.48s8.14,6.58,8.14,6.58S315.63,111,312.52,111Z"/><path class="cls-44" d="M397.15,68s24.86,37.51,4.58,66.38C401.73,134.4,412.9,108.06,397.15,68Z"/><path class="cls-45" d="M278,141.83a51.56,51.56,0,0,1-4-8.09c-5.65-14.05-12.55-44.5,14.57-76.19,0,0-40.1,36.93-16.54,78.14Z"/><path class="cls-46" d="M391.46,124.92S399,115.28,399,89.15c0,0,5.2,32.92-11.59,47Z"/><path id="SVGID-3" data-name="SVGID" class="cls-2" d="M213.28,271.42a98.11,98.11,0,1,1-98.11-98.1A98.11,98.11,0,0,1,213.28,271.42Z"/><g class="cls-47"><rect class="cls-48" x="51.35" y="222.41" width="122.29" height="92.88" rx="6.01"/><rect class="cls-49" x="58.46" y="229.52" width="108.08" height="78.68" rx="1.42"/><path class="cls-50" d="M170.64,273.14a1,1,0,0,1-1-1v-6.57a1,1,0,1,1,2,0v6.57a1,1,0,0,1-1,1Z"/><rect class="cls-51" x="69.17" y="244.84" width="87.17" height="48.54" rx="3.63"/><line class="cls-52" x1="87.89" y1="256.47" x2="136.6" y2="256.47"/><line class="cls-52" x1="87.89" y1="262.13" x2="136.6" y2="262.13"/><line class="cls-52" x1="87.89" y1="267.8" x2="136.6" y2="267.8"/><rect class="cls-53" x="77.2" y="274.75" width="32.82" height="9.4"/><rect class="cls-54" x="114.29" y="274.75" width="32.82" height="9.4"/><rect class="cls-55" x="68.66" y="244.33" width="87.17" height="48.54" rx="3.63"/><rect class="cls-56" x="76.69" y="274.24" width="32.82" height="9.4"/><rect class="cls-57" x="113.78" y="274.24" width="32.82" height="9.4"/><path class="cls-58" d="M51.39,309.46V291.74c1.73-1.39,7.88-2.8,14.17-8.64,4.84-4.5,2.42-9-1-6.92s-17.28,7.61-19.7,10.37-4.49,8.64-6.22,15.21c-.71,2.67,0,5.87-2.08,7.95s-24.19,22.11-24.19,22.11l15.55,15.9s19.7-22.46,22.81-23.15,10.37-.69,13.14-2.42c1.44-.91,5.7-4,9.45-6.85H57.21C54.51,315.3,51.39,312.15,51.39,309.46Z"/><path class="cls-59" d="M145.27,275.74s-2.87,4.82-3.37,6.18-.22,2.4,1.16,4.13a66,66,0,0,0,5.74,5.73c1.66,1.53,5.17,3.78,6.41,1.09s1.66-7.6.52-9.28-4.18-10.07-6.11-10.2S145.27,275.74,145.27,275.74Z"/><path class="cls-60" d="M153.73,289.75s-3-5.75-3.83-6.23.8-3.59.8-3.59l.81-1.2.6,1.44a7.67,7.67,0,0,0-1,2.15c-.2,1,3.83,5,3.62,8.15S153.73,289.75,153.73,289.75Z"/><path class="cls-61" d="M119.19,281c-.41-.25-.35-.47.11-.59l5.88-1.43-.49,4.65S119.61,281.25,119.19,281Z"/><path class="cls-62" d="M172.21,286.74c-.23,1.67-1.16,2-1.16,2l-46.36-5.14a2.85,2.85,0,0,1-.65-2.38,3.36,3.36,0,0,1,1.14-2.27l46.4,5.32A2.79,2.79,0,0,1,172.21,286.74Z"/><path class="cls-63" d="M172.21,286.74a2.79,2.79,0,0,0-.63-2.44,3.55,3.55,0,0,0-.8,2.23c-.13,1.23.07,1.84.39,2.18A2.59,2.59,0,0,0,172.21,286.74Z"/><path class="cls-1" d="M151.3,280.69a45.65,45.65,0,0,0-3.28-4.84c-1-1-1.67-.24-2.87,1a28.09,28.09,0,0,1-7.17,3.64L151.91,282A6.49,6.49,0,0,0,151.3,280.69Z"/><path class="cls-1" d="M146.11,295c.23,1.43,6.23,1.91,6.95,1.43.44-.29.72-6.08.68-7.48a15.08,15.08,0,0,0-.41-2.18l-14.91-1.65C142.07,287.93,145.9,293.8,146.11,295Z"/><path class="cls-64" d="M199.79,327.62c-1.68-2.16-15.34-21.33-15.58-23.25-.14-1.16-7.82-19.9-8.42-20.84s-4.53-4.77-5.48-6.48c-1.2-2.16-4.79-2.4-6.95-3.6s-8.86-4.79-10.3-6.22-4.08-1.44-6.24-.24c-1.8,1-15.58,9.1-16.77,9.82-.7.42-.74,1.63-.06,2.72a4.21,4.21,0,0,0,2.69,1.84c1.23.28,3.24-.19,5.3-.92a28.09,28.09,0,0,0,7.17-3.64c1.2-1.2,1.92-1.92,2.87-1a45.65,45.65,0,0,1,3.28,4.84,6.49,6.49,0,0,1,.61,1.35l19.67,2.26a2.79,2.79,0,0,1,.63,2.44,3.14,3.14,0,0,1-.11.52.57.57,0,0,1,0,.14c0,.11-.07.21-.1.3l-.06.12c0,.08-.08.16-.13.24a.25.25,0,0,1,0,.07,2.5,2.5,0,0,1-.18.24l-.05.06-.11.11-.07.06-.09.06a.1.1,0,0,1,0,0h0l-.12.07-17.72-2a15.08,15.08,0,0,1,.41,2.18c0,1.4-.24,7.19-.68,7.48-.72.48-6.72,0-6.95-1.43-.21-1.23-4-7.1-7.69-9.88a8.68,8.68,0,0,0-1.9-1.15,4.6,4.6,0,0,0-4.85.41c-.87.74-1.1,1.79-.42,2.47,1.44,1.43,7.66,13.66,9.58,14.62s12,8.15,14.62,9.58a17,17,0,0,0,7.44,2.16c1.91,0,3.59.48,4.31,1.68s19.41,25.16,19.41,25.16S201.47,329.78,199.79,327.62Z"/><path class="cls-65" d="M170.17,321.81a32.72,32.72,0,0,1,21.74-12.1L207.05,329l-25.16,9.16Z"/><path class="cls-66" d="M170.72,327a41.69,41.69,0,0,1,26.16-14.17l30.75,38.95-30,10.91Z"/><path class="cls-67" d="M46.24,331.46a25.79,25.79,0,0,0-16.63-17.74l-21.8,15,21,15.66Z"/><path class="cls-68" d="M43,336.43S43.82,331,37.37,325a38.61,38.61,0,0,0-13.29-8.35L-13.6,343.32l23.72,17.52Z"/></g><path class="cls-69" d="M260.16,363.79c-.37.86-.19,4.43,1.38,4.43H416c1.57,0,1.6-3.79,1.24-4.66l-1.15.48-17.89-41.89c-.54-1.26-2.56-2.29-4.49-2.29H283.86c-1.93,0-3.94,1-4.48,2.29Z"/><path class="cls-70" d="M260.31,363.56c-.37.87.63,1.58,2.21,1.58H415c1.58,0,2.58-.71,2.22-1.58l-18.49-43.94c-.54-1.28-2.58-2.34-4.52-2.34H283.35c-2,0-4,1.06-4.52,2.34Z"/><path class="cls-49" d="M408.64,361.27H269.23c-1.79,0-1.11-1.35-1.11-1.35L284,322.15a1.73,1.73,0,0,1,1.64-1H391.92a1.65,1.65,0,0,1,1.67,1.17l15.78,37.51S410,361.27,408.64,361.27Z"/><path class="cls-71" d="M292.22,330.09c.29-.86,2.25-1.56,4.34-1.56h83.65c2.1,0,4,.7,4.34,1.56l7,20.66c.4,1.16-1.3,2.12-3.77,2.12H288.9c-2.47,0-4.17-1-3.77-2.12Z"/><line class="cls-72" x1="367.84" y1="346.27" x2="310.07" y2="346.27"/><line class="cls-72" x1="367.25" y1="343.25" x2="310.64" y2="343.25"/><line class="cls-72" x1="366.69" y1="340.34" x2="311.19" y2="340.34"/><polygon class="cls-53" points="341.33 332.56 376.72 332.56 377.93 336.93 341.41 336.93 341.33 332.56"/><polygon class="cls-54" points="301.32 332.56 336.72 332.56 336.66 336.93 300.14 336.93 301.32 332.56"/><path class="cls-73" d="M292.68,330.31c.3-.86,2.25-1.56,4.34-1.56h83.79c2.1,0,4.05.7,4.35,1.56L392.27,351c.4,1.17-1.29,2.14-3.77,2.14H289.44c-2.48,0-4.18-1-3.79-2.14Z"/><polygon class="cls-56" points="341.88 332.79 377.33 332.79 378.56 337.18 341.98 337.18 341.88 332.79"/><polygon class="cls-57" points="301.81 332.79 337.26 332.79 337.22 337.18 300.64 337.18 301.81 332.79"/><path class="cls-74" d="M400.05,322.78S397,326.33,396.5,328s-3.4,9-4.61,11.6-.73,5.53,3.13,4.06,5.11-7.39,6.52-9.86a4.35,4.35,0,0,1,2.24-2.17l5.66,13.13s.83-3.87,1.38-6.91a31.61,31.61,0,0,0,.28-10.22c-.55-3-1.93-6.5-5.39-7.88a10.91,10.91,0,0,0-7-.12Z"/><path class="cls-75" d="M313.15,335.23c.19.8-.15,1-.84.59s-8.88-5.4-8.88-5.4-1-2,1.76-4.17,4.48-.88,4.48-.88S313,334.42,313.15,335.23Z"/><path class="cls-62" d="M265.75,276.27c2.3-1.75,3.86-1.06,3.86-1.06l40.06,50.16a6.39,6.39,0,0,0-4.31,1.46,4.31,4.31,0,0,0-1.93,3.59L263.55,280A4.77,4.77,0,0,1,265.75,276.27Z"/><path class="cls-76" d="M297.68,320.39,289,311.3l-8.7-10a18.08,18.08,0,0,0-7.22,5.69c-3.11,4.14-4.76,11.17-4.76,12.41s2.48,8.06,2.89,9.72c.26,1,5.45,3.24,8.69,4.34,2,.66,5-1,6.41-.83a3.69,3.69,0,0,0,3.51-.41c1.66-1.24,2.9-2.28,2.9-2.28s2.48.62,3.31-1c.37-.75,1.33-1,1.44-1.86.66-.16,2.75.16,3.67-1.13C303,323.3,297.68,320.39,297.68,320.39Z"/><path class="cls-76" d="M295.48,301.53c1.72.71,2.84,3.22,3.73,3.93,2.06,1.66,3.3,3.93,3.3,7.86,0,2.51,2.27,7.66-1.45,7s-5.53-4.79-5.16-8.7a29.32,29.32,0,0,0-.42-3.92l-6-7.65A30.53,30.53,0,0,1,295.48,301.53Z"/><path class="cls-60" d="M297.47,327l-7.94-5a28.59,28.59,0,0,1-8.47-8.47c-.74-1.11-2-.74-1.29.37a56.71,56.71,0,0,0,6.82,6.81A86.5,86.5,0,0,0,296,327Z"/><path class="cls-60" d="M292.72,329.9s-6.87-3.1-8.35-3.83-6.44-5-7.18-6.27-1.48.37.18,1.66,4.79,4.05,6.27,5.16,8.1,3.68,8.1,3.68Z"/><path class="cls-60" d="M286.31,332.59s-5.44-2.65-6.73-3.21a17.82,17.82,0,0,1-5-3.87c-.55-.92-1.48-.18-.19.92s3.87,3.5,5,3.87,5.16,2.58,5.16,2.58Z"/></g></g></g></svg>