<svg xmlns="http://www.w3.org/2000/svg" xmlns:xlink="http://www.w3.org/1999/xlink" viewBox="0 0 495.24 500"><defs><style>.cls-1,.cls-35,.cls-49,.cls-50,.cls-51{fill:none;}.cls-2{isolation:isolate;}.cls-3{fill:url(#radial-gradient);}.cls-4{fill:url(#linear-gradient);}.cls-5{fill:url(#linear-gradient-2);}.cls-6{fill:url(#linear-gradient-3);}.cls-7{fill:url(#linear-gradient-4);}.cls-8{fill:url(#linear-gradient-5);}.cls-9{fill:url(#linear-gradient-6);}.cls-10{fill:url(#linear-gradient-7);}.cls-11{fill:url(#linear-gradient-8);}.cls-12{fill:url(#linear-gradient-9);}.cls-13{fill:url(#linear-gradient-10);}.cls-14{fill:url(#linear-gradient-11);}.cls-15{fill:#eac233;}.cls-16{fill:url(#linear-gradient-12);}.cls-17{fill:url(#linear-gradient-13);}.cls-18{fill:url(#radial-gradient-2);}.cls-19{fill:#edac86;}.cls-20{fill:url(#radial-gradient-3);}.cls-21{fill:url(#linear-gradient-14);}.cls-22{fill:url(#linear-gradient-15);}.cls-23{fill:url(#radial-gradient-4);}.cls-24{fill:#29292a;}.cls-25{fill:#6f6e6e;}.cls-26{fill:url(#linear-gradient-16);}.cls-27{fill:url(#linear-gradient-17);}.cls-28{fill:url(#radial-gradient-5);}.cls-29{fill:url(#radial-gradient-6);}.cls-30{fill:#df9c5c;}.cls-31{mix-blend-mode:multiply;}.cls-32{fill:url(#radial-gradient-7);}.cls-33{fill:url(#radial-gradient-8);}.cls-34{fill:#46160b;}.cls-35{stroke:#de816a;stroke-linecap:round;stroke-linejoin:round;}.cls-36{fill:url(#radial-gradient-11);}.cls-37{fill:url(#radial-gradient-12);}.cls-38{fill:url(#radial-gradient-13);}.cls-39{fill:url(#radial-gradient-14);}.cls-40{fill:url(#radial-gradient-15);}.cls-41{fill:url(#radial-gradient-16);}.cls-42{fill:url(#radial-gradient-17);}.cls-43{fill:#fff;}.cls-44{fill:url(#radial-gradient-18);}.cls-45{fill:url(#linear-gradient-18);}.cls-46{fill:#48080f;}.cls-47{clip-path:url(#clip-path);}.cls-48{fill:#580e10;}.cls-49{stroke:#1d462b;stroke-width:0.64px;}.cls-50{stroke:#9b9796;stroke-width:0.69px;}.cls-50,.cls-51{stroke-miterlimit:10;}.cls-51{stroke:#767676;stroke-width:0.34px;}.cls-52{fill:#060001;}.cls-53{fill:#aace36;}.cls-54{fill:url(#radial-gradient-19);}.cls-55{fill:#9d9c9d;}.cls-56{fill:#2d2d2d;}.cls-57{fill:url(#radial-gradient-20);}.cls-58{fill:url(#linear-gradient-19);}</style><radialGradient id="radial-gradient" cx="382.42" cy="94.63" r="45.06" gradientUnits="userSpaceOnUse"><stop offset="0" stop-color="#432610"/><stop offset="0.36" stop-color="#311305"/><stop offset="1" stop-color="#241004"/></radialGradient><linearGradient id="linear-gradient" x1="355.91" y1="516.18" x2="391.45" y2="360.65" gradientUnits="userSpaceOnUse"><stop offset="0" stop-color="#071630"/><stop offset="1" stop-color="#133c62"/></linearGradient><linearGradient id="linear-gradient-2" x1="375.46" y1="197.54" x2="375.46" y2="155.91" gradientUnits="userSpaceOnUse"><stop offset="0" stop-color="#fbeedb"/><stop offset="1" stop-color="#efba95"/></linearGradient><linearGradient id="linear-gradient-3" x1="370.18" y1="202.1" x2="370.18" y2="249.4" gradientTransform="translate(9.02 -13.89) rotate(1)" gradientUnits="userSpaceOnUse"><stop offset="0" stop-color="#c4c4c3"/><stop offset="0.05" stop-color="#cbcbca"/><stop offset="0.25" stop-color="#e2e2e1"/><stop offset="0.46" stop-color="#f2f2f2"/><stop offset="0.7" stop-color="#fcfcfc"/><stop offset="1" stop-color="#fff"/></linearGradient><linearGradient id="linear-gradient-4" x1="4744.26" y1="104.07" x2="4744.26" y2="136.96" gradientTransform="matrix(-1, 0.02, 0.02, 1, 5116.93, -13.89)" gradientUnits="userSpaceOnUse"><stop offset="0" stop-color="#c4c4c3"/><stop offset="0.09" stop-color="#d5d5d5"/><stop offset="0.23" stop-color="#e8e8e7"/><stop offset="0.4" stop-color="#f5f5f5"/><stop offset="0.6" stop-color="#fdfdfd"/><stop offset="1" stop-color="#fff"/></linearGradient><linearGradient id="linear-gradient-5" x1="362.25" y1="298.81" x2="441.63" y2="298.81" gradientTransform="translate(9.02 -13.89) rotate(1)" xlink:href="#linear-gradient"/><linearGradient id="linear-gradient-6" x1="424.84" y1="397.73" x2="413.25" y2="350.8" gradientTransform="translate(9.02 -13.89) rotate(1)" xlink:href="#linear-gradient"/><linearGradient id="linear-gradient-7" x1="408.25" y1="255.87" x2="405.9" y2="246.4" gradientTransform="translate(9.02 -13.89) rotate(1)" xlink:href="#linear-gradient"/><linearGradient id="linear-gradient-8" x1="411.59" y1="247.69" x2="322.54" y2="209.8" gradientTransform="translate(9.02 -13.89) rotate(1)" xlink:href="#linear-gradient"/><linearGradient id="linear-gradient-9" x1="4706.12" y1="222.8" x2="4784.2" y2="222.8" gradientTransform="matrix(-1, 0.02, 0.02, 1, 5086.26, -13.89)" xlink:href="#linear-gradient"/><linearGradient id="linear-gradient-10" x1="4769.03" y1="321.69" x2="4757.44" y2="274.76" gradientTransform="matrix(-1, 0.02, 0.02, 1, 5086.26, -13.89)" xlink:href="#linear-gradient"/><linearGradient id="linear-gradient-11" x1="4753.53" y1="175.33" x2="4666.11" y2="138.15" gradientTransform="matrix(-1, 0.02, 0.02, 1, 5086.26, -13.89)" xlink:href="#linear-gradient"/><linearGradient id="linear-gradient-12" x1="201.81" y1="689.27" x2="174.84" y2="533.27" gradientTransform="matrix(0.99, 0.1, -0.1, 0.99, 192.47, -330.4)" xlink:href="#linear-gradient"/><linearGradient id="linear-gradient-13" x1="327.47" y1="1311.67" x2="312.75" y2="1306.15" gradientTransform="matrix(0.95, 0.31, -0.27, 0.82, 393.63, -812)" xlink:href="#linear-gradient-3"/><radialGradient id="radial-gradient-2" cx="929.75" cy="-1053" r="25.6" gradientTransform="matrix(0.67, 0.71, 0.73, -0.69, 515.2, -1004.39)" xlink:href="#linear-gradient-2"/><radialGradient id="radial-gradient-3" cx="-227.69" cy="965.49" r="8.59" gradientTransform="matrix(0.88, 0.12, -0.16, 1.13, 726.13, -686.29)" xlink:href="#linear-gradient-2"/><linearGradient id="linear-gradient-14" x1="6622.29" y1="13.97" x2="6595.32" y2="-142.02" gradientTransform="matrix(-0.99, 0.1, 0.1, 0.99, 7015.58, -330.4)" xlink:href="#linear-gradient"/><linearGradient id="linear-gradient-15" x1="6462.86" y1="-1016.5" x2="6448.14" y2="-1022.02" gradientTransform="matrix(-0.95, 0.31, 0.27, 0.82, 6814.41, -812)" xlink:href="#linear-gradient-3"/><radialGradient id="radial-gradient-4" cx="5457.89" cy="3648.89" r="25.26" gradientTransform="matrix(-0.67, 0.71, -0.73, -0.69, 6692.84, -1004.39)" xlink:href="#linear-gradient-2"/><linearGradient id="linear-gradient-16" x1="496.62" y1="251.16" x2="496.62" y2="221.4" gradientTransform="matrix(0.86, 0.16, -0.18, 0.98, 44.49, -194.76)" gradientUnits="userSpaceOnUse"><stop offset="0" stop-color="#e9b373"/><stop offset="0.57" stop-color="#f5d0b5"/><stop offset="1" stop-color="#f6e2d0"/></linearGradient><linearGradient id="linear-gradient-17" x1="202.39" y1="-21.34" x2="202.39" y2="-51.1" gradientTransform="translate(126.97 188.36) rotate(-10.11)" xlink:href="#linear-gradient-16"/><radialGradient id="radial-gradient-5" cx="374.56" cy="98.96" r="60.69" gradientUnits="userSpaceOnUse"><stop offset="0" stop-color="#f6e2d0"/><stop offset="1" stop-color="#f5d0b5"/></radialGradient><radialGradient id="radial-gradient-6" cx="520.49" cy="-32.84" r="10.48" gradientTransform="translate(-232.44 142.02) scale(1.21 1.22)" gradientUnits="userSpaceOnUse"><stop offset="0" stop-color="#6e4c37"/><stop offset="1" stop-color="#040000"/></radialGradient><radialGradient id="radial-gradient-7" cx="447.73" cy="125.3" r="13.26" gradientTransform="translate(-53.55) scale(1.04 1)" gradientUnits="userSpaceOnUse"><stop offset="0" stop-color="#fbe5d4"/><stop offset="1" stop-color="#fff"/></radialGradient><radialGradient id="radial-gradient-8" cx="380.64" cy="125.3" r="13.26" xlink:href="#radial-gradient-7"/><radialGradient id="radial-gradient-11" cx="367.82" cy="36.64" r="100.22" gradientUnits="userSpaceOnUse"><stop offset="0" stop-color="#4e3217"/><stop offset="0.36" stop-color="#3f210f"/><stop offset="1" stop-color="#241004"/></radialGradient><radialGradient id="radial-gradient-12" cx="348.41" cy="-11.58" r="13.97" gradientTransform="translate(72.23 113.63) scale(0.93 1.18)" xlink:href="#radial-gradient-6"/><radialGradient id="radial-gradient-13" cx="1684.73" cy="-32.84" r="10.48" gradientTransform="matrix(-1.21, 0, 0, 1.22, 2394.85, 142.02)" xlink:href="#radial-gradient-6"/><radialGradient id="radial-gradient-14" cx="1862.55" cy="-11.58" r="13.97" gradientTransform="matrix(-0.93, 0, 0, 1.18, 2093.05, 113.63)" xlink:href="#radial-gradient-6"/><radialGradient id="radial-gradient-15" cx="448.94" cy="62.82" r="47.94" xlink:href="#radial-gradient"/><radialGradient id="radial-gradient-16" cx="332.48" cy="59.05" r="50.96" xlink:href="#radial-gradient"/><radialGradient id="radial-gradient-17" cx="442.91" cy="92.21" r="32.53" xlink:href="#radial-gradient"/><radialGradient id="radial-gradient-18" cx="822.23" cy="-571.04" r="61.02" gradientTransform="matrix(0.94, -0.34, 0.34, 0.94, -490.02, 1237.25)" xlink:href="#linear-gradient-2"/><linearGradient id="linear-gradient-18" x1="-225.18" y1="61.73" x2="-166.2" y2="61.73" gradientTransform="translate(268.95 418.83) rotate(6)" xlink:href="#linear-gradient-3"/><clipPath id="clip-path"><rect id="SVGID" class="cls-1" y="-541.7" width="495.24" height="516.75"/></clipPath><radialGradient id="radial-gradient-19" cx="-251.33" cy="1300.4" r="46.71" gradientTransform="matrix(0.94, 0.34, -0.34, 0.94, 827.54, -680.72)" xlink:href="#linear-gradient-2"/><radialGradient id="radial-gradient-20" cx="219.43" cy="389.67" r="78.07" xlink:href="#linear-gradient-2"/><linearGradient id="linear-gradient-19" x1="209.11" y1="483.39" x2="268.7" y2="483.39" gradientTransform="matrix(1, 0, 0, 1, 0, 0)" xlink:href="#linear-gradient-3"/></defs><title>アートボード 112 のコピー</title><g class="cls-2"><g id="レイヤー_1" data-name="レイヤー 1"><path class="cls-3" d="M314.56,122.15c0,9.23,30,41.57,38.5,46.86a44.28,44.28,0,0,1,45.06,0c8.5-5.29,37.92-32.81,37.92-42,0-16-40.29-62.58-60.45-62.58s-58.8,7.4-61.93,58.68"/><path class="cls-4" d="M436,385.74l-49.91-38.8V331.51l-9.93,7.72-9.92-7.72v15.43l-49.91,38.8s-3.73,1.31-3.17,29.83c.56,28.83,10.17,87.81,10.17,87.81H429s9.61-59,10.17-87.81C439.76,387.05,436,385.74,436,385.74Z"/><path class="cls-5" d="M406.3,182.61s-9.14.1-15.44-10-.41-36.87-.41-36.87a54.69,54.69,0,0,0-15,3.5,54.66,54.66,0,0,0-15-3.5s5.9,26.79-.41,36.87-15.45,10-15.45,10a113.94,113.94,0,0,1,14.59,4.44,32.4,32.4,0,0,0,7,1.51c2.08.72,4.61,26.66,8,26.61l.94,0c0,26.07.63,0,.94,0,3.35.05,6.5-25.89,8.58-26.61a32.49,32.49,0,0,0,7.05-1.51A113.6,113.6,0,0,1,406.3,182.61Z"/><polygon class="cls-6" points="339.01 184.91 375.76 193.69 410.25 184.34 411.75 227.47 379.42 298.15 339.58 231.83 339.01 184.91"/><path class="cls-7" d="M375.57,194.6,362.3,211.76l-19.76-30.68s12.88-7.58,14.58-7,16.17,19.62,18.43,19.33h0c2.26.29,16.73-18.8,18.43-19.33s14.58,7,14.58,7l-19.76,30.68Z"/><path class="cls-8" d="M406.57,178.57,425,185.48s5.84,37.6,5.33,67c-.25,14.13-6.66,28.34-5.87,58.89.31,12,7.86,57.23,15.94,78.49,2.57,6.76,5.27,16.08.18,16-1.82,0-8.74-1.75-16.58-2.31-14-1-23-1.38-33.57-1.38s-25-78.25-24.89-83.34C365.64,309.79,406.57,178.57,406.57,178.57Z"/><path class="cls-9" d="M403,341.94c0,2.82,6.75,34.32,7.83,37.45s2.47,4,4.73,4,16.37,1.7,18.62,2.31c1.39.37,3.55.76,5,1a304.22,304.22,0,0,1-12.77-47.52c-3.55-.16-20.13-.9-21.64-.93C403.09,338.26,403.08,339.11,403,341.94Z"/><polygon class="cls-10" points="400.22 240.21 424.26 239.5 424.72 246.01 398.41 246.68 400.22 240.21"/><path class="cls-11" d="M408.36,227.63c1.19-3.37,1.2-3.94.08-4.8s-5-4.05-7.53-6.07-1.34-4-.21-4,7.09-1.29,8.79-1.55,3.41-1.07,3.17-3.62c-.2-2.15-.51-21.12-.6-26.89l-5.49-2.17s-19,60.88-31.14,102.56l.62-.35C394,270.64,407.17,231,408.36,227.63Z"/><path class="cls-12" d="M363.33,244.65c-7.73-21.3-19.27-66.08-19.27-66.08l-16.77,6.91s-6.49,39.2-6,68.61c.25,14.14,5.7,26.74,4.92,57.29-.31,12-7.87,57.23-16,78.49-2.57,6.76-2.06,16.08,3,16,1.82,0,5.53-1.75,13.37-2.31,14-1,25.92-1.38,33.58-1.38S385,340.28,385,326.24s.89-23-.75-36S371.05,265.94,363.33,244.65Z"/><path class="cls-13" d="M347.61,341.94c.05,2.82-6.75,34.32-7.83,37.45s-2.47,4-4.74,4-16.36,1.7-18.61,2.31c-1.4.37-3.55.76-5,1a305.33,305.33,0,0,0,12.77-47.52c3.54-.16,20.12-.9,21.64-.93C347.54,338.26,347.56,339.11,347.61,341.94Z"/><path class="cls-14" d="M342.28,227.63c-1.19-3.37-1.2-3.94-.08-4.8s5-4.05,7.52-6.07,1.35-4,.22-4-7.09-1.29-8.79-1.55-3.42-1.07-3.18-3.62c.2-2.15.52-21.12.61-26.89l5.48-2.17S362,236.36,367.28,250.3s13.33,28.83,15.64,36.75a111.51,111.51,0,0,1-9.79-6.41C357.76,268.94,343.47,231,342.28,227.63Z"/><path class="cls-15" d="M381.41,293.79a5.28,5.28,0,1,1-5.18-5.36A5.27,5.27,0,0,1,381.41,293.79Z"/><path class="cls-15" d="M381.41,324.33a5.28,5.28,0,1,1-5.18-5.37A5.27,5.27,0,0,1,381.41,324.33Z"/><path class="cls-16" d="M314.1,311c1.63-5.36,7.21-28.06,9.84-39-1-9.84-2-15.78-2-21.08.22-30,5.65-65.41,5.65-65.41a19.1,19.1,0,0,0-12.3,11.69A494.16,494.16,0,0,0,300,247.66c-5.09,20.92-18.87,74.28-17.82,78.82.65,4.62,6.25,9.77,13,14.71s33.5,25.28,37.72,28.09,13.24-3.19,19.56-10.58-.71-11.05-.71-11.05S314.8,317.82,314,317,313.47,313.08,314.1,311Z"/><path class="cls-17" d="M339.34,355.09c3.52-3.84,8.15-6.34,9.72-5.36,3.36,2.11,6.87,4.32,7.45,4.72s2.13,2.69-3.73,9.7-11.16,7.43-11.94,6.78a42.79,42.79,0,0,0-6.89-4.76C332.55,365.4,335.32,359.48,339.34,355.09Z"/><path class="cls-18" d="M349.38,372.7c1.67,1.18,4.79,11.77,7.23,13.87,8.85,7.59,14.47,5,20.08,7.73s6,4.9,9.62,5.63a7.45,7.45,0,0,0,5.95-1.08c.28.06,2.35.56,3.1-.05,1-.81,2.07-1.7,2.07-2.45,1.51-.76,1.54-2.4,0-5.28-.37-.69-.92-1.8-.92-1.8s-.45-5.39-2.28-8-9.1-7.57-16-12.83c-4.88-3.74-11-6.29-15.31-8.31a40.89,40.89,0,0,1-4.46-2.45,36,36,0,0,0-4.44-2.87c-1.94-.86-3.52-.4-6.24,1.37-4.17,2.71-8.55,10-6.53,11.31C342.5,368.25,347.69,371.51,349.38,372.7Z"/><path class="cls-19" d="M397.43,396.35s-6.21-6.1-8.81-8.52a103.9,103.9,0,0,0-9.78-7.68c-.59-.25-1.47.4-.66,1.3s9.15,6.6,11.13,9a88.84,88.84,0,0,0,6.8,5.72Z"/><path class="cls-19" d="M392.26,398.85s-4.84-4.17-6.62-5.85a30.65,30.65,0,0,0-5.77-4.15c-1.31-.67-5.35-3.94-6.44-4s-.18,1.22,1,1.87,10,6.35,10.82,7S391.4,399,391.4,399Z"/><path class="cls-19" d="M364.45,400.49s6.6-4.9,7.92-5.84a40.68,40.68,0,0,1,7.16-3.39c1.32-.38,1.32.38,1.32.38s-4.71,2.26-6.41,3a39.27,39.27,0,0,0-7.16,4.71C366.71,400.12,364.45,400.49,364.45,400.49Z"/><path class="cls-20" d="M379.53,365.63s-6.37-.67-10.18,2.26-6.06,5.84-6.78,10.93S381,372.45,381,372.45Z"/><path class="cls-21" d="M438.14,311c-1.63-5.36-8.11-30.89-10.74-41.85,1-9.84,2.15-11.36,2.24-16.66.51-29.41-5-67-5-67a19.1,19.1,0,0,1,12.3,11.69,494.16,494.16,0,0,1,15.3,50.49c5.09,20.92,18.87,74.28,17.82,78.82-.66,4.62-6.25,9.77-13,14.71s-33.49,25.28-37.71,28.09-13.24-3.19-19.56-10.58.71-11.05.71-11.05,36.95-29.83,37.73-30.61S438.77,313.08,438.14,311Z"/><path class="cls-22" d="M412.9,355.09c-3.52-3.84-8.15-6.34-9.72-5.36-3.36,2.11-6.88,4.32-7.46,4.72s-2.13,2.69,3.74,9.7,11.16,7.43,11.94,6.78a42.34,42.34,0,0,1,6.89-4.76C419.69,365.4,416.92,359.48,412.9,355.09Z"/><path class="cls-23" d="M402.86,372.7c-1.68,1.18-4.79,11.77-7.24,13.87-8.85,7.59-11.94,7.14-15.71,8.83s-7,3.61-9.43,4.9a7.92,7.92,0,0,1-6,.19c-4.14,1.51-4.33.57-5.65-.94-3-.38-2.26-3.58-2.26-3.58a3.68,3.68,0,0,1-1.89-3.39c.4-4.81,2-6.23,4.21-9.34,1.87-2.65,8.24-9.54,15.1-14.8,4.89-3.74,11-6.29,15.32-8.31a40.89,40.89,0,0,0,4.46-2.45,36.9,36.9,0,0,1,4.43-2.87c1.94-.86,3.53-.4,6.25,1.37,4.16,2.71,8.55,10,6.53,11.31C409.74,368.25,404.54,371.51,402.86,372.7Z"/><path class="cls-19" d="M356.54,396s4.75-7,7.35-9.42a67.18,67.18,0,0,1,7.91-6.22c.59-.25.8.23,0,1.13s-5.68,4.65-8.1,6.59-5.84,7.73-5.84,7.73Z"/><path class="cls-19" d="M358.8,399.55s5-5.11,6.78-6.78a29.2,29.2,0,0,1,5.09-4.15,53.17,53.17,0,0,0,4.71-3.2c1.32-.95,2.26-.38.76.94-.59.51-2.32,1.57-4.9,3.39a32.46,32.46,0,0,0-4.34,3.58c-.73.73-6.59,6.22-6.59,6.22Z"/><rect class="cls-24" x="82.67" y="254.66" width="216.13" height="164.16" rx="10.63"/><path class="cls-25" d="M292.93,344.32a1.77,1.77,0,0,1-1.77-1.77V330.93a1.77,1.77,0,0,1,3.54,0v11.62a1.77,1.77,0,0,1-1.77,1.77Z"/><path class="cls-26" d="M417.88,114.55c-1.66,9,2.61,17.31,9.54,18.59s13.91-5,15.56-13.95-2.6-17.31-9.54-18.59-13.9,5-15.56,14"/><path class="cls-27" d="M332.13,115c1.61,9-2.58,17.26-9.35,18.47s-13.56-5.1-15.17-14.1,2.58-17.27,9.36-18.48S330.53,106,332.13,115"/><path class="cls-28" d="M319.32,92.46c0,20.08,5.18,40.54,15.14,51.88,12.42,14.14,36.39,20.32,40.52,20.32,9.21,0,27.77-6.46,40.51-20.3,10.09-11,14.31-31.81,14.31-51.9,0-41.76-18.88-59.2-54.82-59.2s-55.66,17.44-55.66,59.2"/><path class="cls-29" d="M396.7,106c0,4.12,2.58,7.46,5.74,7.46s5.74-3.34,5.74-7.46-2.56-7.46-5.74-7.46-5.74,3.34-5.74,7.46"/><path class="cls-30" d="M374.59,128.2a1.5,1.5,0,0,1-.74-.18l-4-2.16,3.51-10.09c.17-.64.29-1.39,1-1.25s0,1.32-.18,2l-1.2,8.26,2.31,1.25a1.1,1.1,0,0,1,.43,1.65,1.44,1.44,0,0,1-1.18.55"/><rect class="cls-1" x="395.33" y="113.47" width="30.13" height="23.68"/><g class="cls-31"><path class="cls-32" d="M395.33,125.31c0,6.54,6.74,11.83,15.06,11.83s15.07-5.29,15.07-11.83-6.74-11.84-15.07-11.84-15.06,5.3-15.06,11.84"/></g><rect class="cls-1" x="325.8" y="113.47" width="30.13" height="23.68"/><g class="cls-31"><path class="cls-33" d="M325.8,125.31c0,6.54,6.75,11.83,15.06,11.83s15.07-5.29,15.07-11.83-6.74-11.84-15.07-11.84-15.06,5.3-15.06,11.84"/></g><rect class="cls-1" x="395.33" y="113.47" width="30.13" height="23.68"/><g class="cls-31"><path class="cls-32" d="M395.33,125.31c0,6.54,6.74,11.83,15.06,11.83s15.07-5.29,15.07-11.83-6.74-11.84-15.07-11.84-15.06,5.3-15.06,11.84"/></g><rect class="cls-1" x="325.8" y="113.47" width="30.13" height="23.68"/><g class="cls-31"><path class="cls-33" d="M325.8,125.31c0,6.54,6.75,11.83,15.06,11.83s15.07-5.29,15.07-11.83-6.74-11.84-15.07-11.84-15.06,5.3-15.06,11.84"/></g><path class="cls-34" d="M408.44,83.76C401.62,82.6,397.5,84,394.39,90a15.08,15.08,0,0,1,12.29-3.88c7.46,1.09,11.19,4.25,11.19,4.25a13.15,13.15,0,0,0-9.43-6.58"/><path class="cls-35" d="M361.37,136.82c3.29,3.3,11.34,5.52,13.61,5.39s10.33-2.09,13.61-5.39"/><path class="cls-36" d="M357.6,15.44c-30.24,9.3-51,29.33-58.93,66.28s5.75,52.18,19.18,63.56c14.65,12.42,32.51,11.62,32.51,11.62-14.68-4.61-31.48-13.87-31.16-43.29.23-22.4,22.28-38.54,43.62-50.89a123.91,123.91,0,0,1,34.4-13.23S448.93,84.82,414,139.87c0,0,11.46-5.7,16.11-15.2-2.4,14.85-16.41,28.53-30.56,36.53,0,0,14-1.43,27.39-12.8s31.12-29.85,24.43-67.06c-5.68-31.56-15.9-43.42-27.14-52.72s-24.87-5-24.87-5-7.21-10.87-25.13-10.87a56.63,56.63,0,0,0-16.67,2.73"/><path class="cls-37" d="M401.06,99.82s7.46-3.51,11.2,7.82c0,0-.65-8.51-8.31-9.69s-8.32,6.73-8.32,6.73S397.89,99.82,401.06,99.82Z"/><path class="cls-38" d="M353.78,106c0,4.12-2.58,7.46-5.75,7.46s-5.74-3.34-5.74-7.46,2.56-7.46,5.74-7.46,5.75,3.34,5.75,7.46"/><path class="cls-34" d="M342.56,83.63c6.79-1.36,10.94-.1,14.22,5.77a15,15,0,0,0-12.39-3.49c-7.43,1.32-11.07,4.59-11.07,4.59a13.21,13.21,0,0,1,9.24-6.87"/><path class="cls-39" d="M349.42,99.82s-7.47-3.51-11.21,7.82c0,0,.65-8.51,8.32-9.69s8.32,6.73,8.32,6.73S352.59,99.82,349.42,99.82Z"/><path class="cls-40" d="M436,66.48s25.42,38.36,4.67,67.88C440.65,134.36,452.08,107.43,436,66.48Z"/><path class="cls-41" d="M314.1,142a52.73,52.73,0,0,1-4.06-8.27C304.26,119.32,297.2,88.18,325,55.76c0,0-41,37.77-16.92,79.93Z"/><path class="cls-42" d="M430.15,124.67s7.71-9.86,7.71-36.59c0,0,5.31,33.67-11.86,48.07Z"/><path class="cls-43" d="M97.73,406.27a2.52,2.52,0,0,1-2.51-2.51v-134a2.52,2.52,0,0,1,2.51-2.52h186a2.52,2.52,0,0,1,2.51,2.52v134a2.52,2.52,0,0,1-2.51,2.51Z"/><path class="cls-44" d="M93.81,413.06s-.25-4.24-2.65-12.74-8.06-16.7-8.06-16.7c2-3.34,11.39-9.41,18.31-22.91,5.32-10.39-1.42-16.39-5.9-10.86S71.41,372.93,69.06,379s-2.24,17.07-1.14,29c.45,4.86,3.55,9.75,1.36,14.45s-23.6,51.35-23.6,51.35L77,490.8s22.55-50.36,24.84-52.24c4.36-3.57,16.81-7.41,20.35-11.95,1-1.25,2.89-4,5.14-7.37H107S95.43,417.52,93.81,413.06Z"/><path class="cls-45" d="M98.53,450.35s-14.31-17.57-40.68-13.88L36.31,478,82,485Z"/><path class="cls-46" d="M96.57,462.07S93.88,452.81,79,447.88a68.76,68.76,0,0,0-27.53-3.45L13.33,515.37l51.08,10.34Z"/><g class="cls-47"><path class="cls-48" d="M284.14-54.35s23.94-15.16,54.5-8.09l28.83,87.23H308.42Z"/></g><path class="cls-25" d="M292.93,344.81a1.77,1.77,0,0,1-1.77-1.77V331.42a1.77,1.77,0,0,1,3.54,0V343a1.77,1.77,0,0,1-1.77,1.77Z"/><rect class="cls-49" x="161.08" y="325.34" width="47.52" height="13.76"/><path class="cls-50" d="M151.64,363.85a6.38,6.38,0,1,1-6.38-6.38A6.38,6.38,0,0,1,151.64,363.85Z"/><path class="cls-50" d="M200,363.85a6.38,6.38,0,1,1-6.38-6.38A6.38,6.38,0,0,1,200,363.85Z"/><line class="cls-51" x1="131.63" y1="299.62" x2="246.03" y2="299.62"/><line class="cls-51" x1="131.63" y1="312.64" x2="165.88" y2="312.64"/><line class="cls-51" x1="155.61" y1="367.51" x2="178.55" y2="367.51"/><line class="cls-51" x1="205.42" y1="367.51" x2="228.37" y2="367.51"/><path class="cls-52" d="M298.28,414.25c1.7-3.22.51-5.44.51-5.44s-1.63.62-3.26,3.95c-1.18,2.39-1.23,3.78-.81,4.71C295.35,417.33,297,416.76,298.28,414.25Z"/><path class="cls-53" d="M142.21,363.85a3.06,3.06,0,1,1,3.06,3A3.06,3.06,0,0,1,142.21,363.85Z"/><path class="cls-54" d="M195,374s-8.05,6.56-9.79,8.62-1.89,4-.59,7.92,4.45,9.88,6.36,13.6,6.6,9.84,10.47,5.95,7.7-12.16,6.77-15.82-.89-20.16-4.17-21.6S195,374,195,374Z"/><path class="cls-19" d="M200.81,403.73s-1.62-11.92-2.72-13.26,3.68-5.75,3.68-5.75l2.16-1.57.14,2.88a14.49,14.49,0,0,0-3.12,3.12c-1,1.54,3.48,11.18,1.16,16.47S200.81,403.73,200.81,403.73Z"/><path class="cls-55" d="M146.27,366.64c-.56-.69-.31-1,.55-1L158,366.91l-3.79,7.78S146.84,367.34,146.27,366.64Z"/><path class="cls-56" d="M234.86,410.2c-1.45,2.75-3.29,2.79-3.29,2.79l-77.4-38.3a5.29,5.29,0,0,1,.38-4.54,6.18,6.18,0,0,1,3.41-3.24l77.35,38.63A5.17,5.17,0,0,1,234.86,410.2Z"/><path class="cls-52" d="M234.86,410.2a5.17,5.17,0,0,0,.45-4.66s-1.4.54-2.8,3.39c-1,2-1,3.23-.7,4A4.77,4.77,0,0,0,234.86,410.2Z"/><path class="cls-1" d="M202.33,386.43a85.7,85.7,0,0,0-2.64-10.49c-1.07-2.28-2.77-1.48-5.61-.15-1.73.8-8.55,1.82-14.78,1.78l23.22,11.6A11.71,11.71,0,0,0,202.33,386.43Z"/><path class="cls-1" d="M184.21,408.08c-.49,2.65,9.63,7.28,11.18,6.9,1-.23,5.12-10.13,5.92-12.59a23.73,23.73,0,0,0,.66-4L177.09,386C181.68,393.18,184.63,405.83,184.21,408.08Z"/><path class="cls-57" d="M257,498.78c-1.56-4.82-13.18-46.82-12.39-50.31.49-2.12-1-39.57-1.45-41.6s-4.86-11.17-5.42-14.73c-.73-4.51-6.83-7.21-9.82-10.66s-12.39-14-14-17.36-6.17-5.09-10.69-4.37c-3.76.6-32.87,6-35.4,6.47-1.47.29-2.32,2.37-1.83,4.7a7.77,7.77,0,0,0,3.53,4.89c2,1.28,5.75,1.74,9.79,1.76,6.23,0,13-1,14.78-1.78,2.84-1.33,4.54-2.13,5.61.15a85.7,85.7,0,0,1,2.64,10.49,11.71,11.71,0,0,1,.19,2.74l32.79,16.37a5.17,5.17,0,0,1-.45,4.66,6,6,0,0,1-.51.84l-.16.21c-.12.16-.25.31-.37.45l-.17.17a3.81,3.81,0,0,1-.37.34,1.5,1.5,0,0,0-.13.11c-.16.11-.31.21-.45.29l-.15.07-.26.13-.16.06-.18.05-.11,0h0a1.27,1.27,0,0,1-.24,0L202,398.35a23.73,23.73,0,0,1-.66,4c-.8,2.46-4.95,12.36-5.92,12.59-1.55.38-11.67-4.25-11.18-6.9.42-2.25-2.53-14.9-7.12-22a16,16,0,0,0-2.58-3.21c-3.18-2.9-6.5-3.22-8.7-2.37-2,.75-3.05,2.43-2.29,4,1.59,3.41,4.69,28.61,7.42,31.5s15.69,21.76,19.37,25.93a31.42,31.42,0,0,0,11.55,8.46c3.33,1.21,5.95,3.11,6.45,5.65s17.83,56.07,17.83,56.07S258.52,503.59,257,498.78Z"/><path class="cls-58" d="M209.11,469.91s20-13.65,45.49-7.28l14.1,43.21H219.12Z"/><path class="cls-48" d="M206.76,479.35s23.93-15.16,54.49-8.09l28.83,87.23H231Z"/></g></g></svg>