<svg xmlns="http://www.w3.org/2000/svg" xmlns:xlink="http://www.w3.org/1999/xlink" viewBox="0 0 523.26 500"><defs><style>.cls-1,.cls-40,.cls-41,.cls-42{fill:none;}.cls-2{isolation:isolate;}.cls-3{clip-path:url(#clip-path);}.cls-4{fill:url(#radial-gradient);}.cls-5{fill:url(#linear-gradient);}.cls-6{fill:url(#linear-gradient-2);}.cls-7{fill:url(#linear-gradient-3);}.cls-8{fill:url(#linear-gradient-4);}.cls-9{fill:url(#linear-gradient-5);}.cls-10{fill:url(#linear-gradient-6);}.cls-11{fill:url(#linear-gradient-7);}.cls-12{fill:url(#linear-gradient-8);}.cls-13{fill:#eac233;}.cls-14{fill:url(#linear-gradient-9);}.cls-15{fill:url(#linear-gradient-10);}.cls-16{fill:#282829;}.cls-17{fill:#6f6e6e;}.cls-18{fill:url(#linear-gradient-11);}.cls-19{fill:url(#linear-gradient-12);}.cls-20{fill:url(#linear-gradient-13);}.cls-21{fill:url(#linear-gradient-14);}.cls-22{fill:url(#radial-gradient-2);}.cls-23{fill:url(#radial-gradient-3);}.cls-24{fill:#df9c5c;}.cls-25{mix-blend-mode:multiply;}.cls-26{fill:url(#radial-gradient-4);}.cls-27{fill:url(#radial-gradient-5);}.cls-28{fill:url(#radial-gradient-6);}.cls-29{fill:url(#radial-gradient-7);}.cls-30{fill:#46160b;}.cls-31{fill:url(#radial-gradient-8);}.cls-32{fill:url(#radial-gradient-9);}.cls-33{fill:url(#radial-gradient-10);}.cls-34{fill:url(#radial-gradient-11);}.cls-35{fill:url(#radial-gradient-12);}.cls-36{fill:url(#radial-gradient-13);}.cls-37{fill:#e09c92;}.cls-38{fill:#dd827c;}.cls-39{fill:#fff;}.cls-40{stroke:#1d462b;stroke-width:0.64px;}.cls-41{stroke:#9b9796;stroke-width:0.69px;}.cls-41,.cls-42{stroke-miterlimit:10;}.cls-42{stroke:#767676;stroke-width:0.34px;}.cls-43{fill:#aace36;}.cls-44{fill:url(#radial-gradient-14);}.cls-45{fill:url(#linear-gradient-15);}.cls-46{fill:#580e10;}.cls-47{fill:url(#radial-gradient-15);}.cls-48{fill:#edac86;}.cls-49{fill:#9d9c9d;}.cls-50{fill:#2d2d2d;}.cls-51{fill:#060001;}.cls-52{fill:url(#radial-gradient-16);}.cls-53{fill:url(#linear-gradient-16);}.cls-54{fill:url(#radial-gradient-17);}</style><clipPath id="clip-path"><rect id="SVGID" class="cls-1" width="523.26" height="516.75"/></clipPath><radialGradient id="radial-gradient" cx="285.72" cy="100.22" r="70.04" gradientTransform="matrix(0.94, 0.08, -0.08, 0.94, 109.91, 17.43)" gradientUnits="userSpaceOnUse"><stop offset="0" stop-color="#432610"/><stop offset="0.36" stop-color="#311305"/><stop offset="1" stop-color="#241004"/></radialGradient><linearGradient id="linear-gradient" x1="287.62" y1="384.8" x2="206.67" y2="384.23" gradientUnits="userSpaceOnUse"><stop offset="0" stop-color="#071630"/><stop offset="1" stop-color="#133c62"/></linearGradient><linearGradient id="linear-gradient-2" x1="370.95" y1="258.14" x2="361.82" y2="371.93" gradientUnits="userSpaceOnUse"><stop offset="0" stop-color="#c4c4c3"/><stop offset="0.05" stop-color="#cbcbca"/><stop offset="0.25" stop-color="#e2e2e1"/><stop offset="0.46" stop-color="#f2f2f2"/><stop offset="0.7" stop-color="#fcfcfc"/><stop offset="1" stop-color="#fff"/></linearGradient><linearGradient id="linear-gradient-3" x1="357.1" y1="279.65" x2="357.1" y2="252.87" gradientUnits="userSpaceOnUse"><stop offset="0" stop-color="#fbeedb"/><stop offset="1" stop-color="#efba95"/></linearGradient><linearGradient id="linear-gradient-4" x1="2783.47" y1="209.88" x2="2783.47" y2="285.06" gradientTransform="matrix(-1, -0.02, -0.02, 1, 3146.74, 58.29)" gradientUnits="userSpaceOnUse"><stop offset="0" stop-color="#c4c4c3"/><stop offset="0.09" stop-color="#d5d5d5"/><stop offset="0.23" stop-color="#e8e8e7"/><stop offset="0.4" stop-color="#f5f5f5"/><stop offset="0.6" stop-color="#fdfdfd"/><stop offset="1" stop-color="#fff"/></linearGradient><linearGradient id="linear-gradient-5" x1="2699.34" y1="408.05" x2="2819.21" y2="408.05" gradientTransform="matrix(-1, -0.02, -0.02, 1, 3146.74, 58.29)" xlink:href="#linear-gradient"/><linearGradient id="linear-gradient-6" x1="2757.88" y1="361.72" x2="2755.17" y2="350.77" gradientTransform="matrix(-1, -0.02, -0.02, 1, 3146.74, 58.29)" xlink:href="#linear-gradient"/><linearGradient id="linear-gradient-7" x1="2716.15" y1="338.34" x2="2950.76" y2="232.85" gradientTransform="matrix(-1, -0.02, -0.02, 1, 3146.74, 58.29)" xlink:href="#linear-gradient"/><linearGradient id="linear-gradient-8" x1="2794.32" y1="392.21" x2="2910.26" y2="392.21" gradientTransform="matrix(-1, -0.02, -0.02, 1, 3146.74, 58.29)" xlink:href="#linear-gradient"/><linearGradient id="linear-gradient-9" x1="2884.83" y1="249.38" x2="2708.8" y2="174.5" gradientTransform="matrix(-1, -0.02, -0.02, 1, 3146.74, 58.29)" xlink:href="#linear-gradient"/><linearGradient id="linear-gradient-10" x1="3189.63" y1="609.47" x2="2972.75" y2="517.21" gradientTransform="matrix(-0.98, -0.21, -0.21, 0.98, 3508.14, 397.4)" xlink:href="#linear-gradient"/><linearGradient id="linear-gradient-11" x1="455.38" y1="501.32" x2="369.44" y2="301.66" xlink:href="#linear-gradient"/><linearGradient id="linear-gradient-12" x1="362.63" y1="329.97" x2="310.25" y2="370.62" xlink:href="#linear-gradient-2"/><linearGradient id="linear-gradient-13" x1="405.94" y1="140.4" x2="405.94" y2="96.68" gradientTransform="matrix(0.85, 0.23, -0.27, 0.96, 126.15, -35.32)" gradientUnits="userSpaceOnUse"><stop offset="0" stop-color="#e9b373"/><stop offset="0.57" stop-color="#f5d0b5"/><stop offset="1" stop-color="#f6e2d0"/></linearGradient><linearGradient id="linear-gradient-14" x1="128.56" y1="187.04" x2="128.56" y2="143.31" gradientTransform="matrix(1, -0.09, 0.09, 1, 133.52, 7.28)" xlink:href="#linear-gradient-13"/><radialGradient id="radial-gradient-2" cx="273.5" cy="107.45" r="94.6" gradientTransform="matrix(0.94, 0.08, -0.08, 0.94, 109.91, 17.43)" gradientUnits="userSpaceOnUse"><stop offset="0" stop-color="#f6e2d0"/><stop offset="1" stop-color="#f5d0b5"/></radialGradient><radialGradient id="radial-gradient-3" cx="238.52" cy="84.75" r="16.29" gradientTransform="matrix(1.14, 0.12, -0.13, 1.15, 119.56, 32.37)" gradientUnits="userSpaceOnUse"><stop offset="0" stop-color="#6e4c37"/><stop offset="1" stop-color="#040000"/></radialGradient><radialGradient id="radial-gradient-4" cx="318.59" cy="162.13" r="20.61" gradientTransform="matrix(0.98, 0.09, -0.08, 0.94, 94.42, 15.6)" gradientUnits="userSpaceOnUse"><stop offset="0" stop-color="#fbe5d4"/><stop offset="1" stop-color="#fff"/></radialGradient><radialGradient id="radial-gradient-5" cx="229.32" cy="148.41" r="20.6" xlink:href="#radial-gradient-4"/><radialGradient id="radial-gradient-6" cx="316.31" cy="155.28" r="20.61" xlink:href="#radial-gradient-4"/><radialGradient id="radial-gradient-7" cx="246.73" cy="97.06" r="20.61" gradientTransform="matrix(0.67, 0.06, -0.08, 0.9, 143.96, 74.84)" xlink:href="#radial-gradient-4"/><radialGradient id="radial-gradient-8" cx="265.15" cy="6.37" r="158.65" gradientTransform="matrix(0.94, 0.08, -0.08, 0.94, 109.91, 17.43)" gradientUnits="userSpaceOnUse"><stop offset="0" stop-color="#4e3217"/><stop offset="0.36" stop-color="#3f210f"/><stop offset="1" stop-color="#241004"/></radialGradient><radialGradient id="radial-gradient-9" cx="284.07" cy="89.36" r="21.71" gradientTransform="matrix(0.88, 0.1, -0.12, 1.11, 141.58, 30.48)" xlink:href="#radial-gradient-3"/><radialGradient id="radial-gradient-10" cx="-68.95" cy="81.58" r="16.29" gradientTransform="matrix(-1.14, -0.1, -0.1, 1.15, 247.24, 47.65)" xlink:href="#radial-gradient-3"/><radialGradient id="radial-gradient-11" cx="-110.77" cy="85.24" r="21.71" gradientTransform="matrix(-0.88, -0.08, -0.1, 1.11, 229.39, 42.72)" xlink:href="#radial-gradient-3"/><radialGradient id="radial-gradient-12" cx="389.11" cy="50.78" r="74.51" xlink:href="#radial-gradient"/><radialGradient id="radial-gradient-13" cx="379.74" cy="96.47" r="50.56" xlink:href="#radial-gradient"/><radialGradient id="radial-gradient-14" cx="1307.16" cy="177.92" r="61.62" gradientTransform="translate(-1087.33 891.01) rotate(-29.95) scale(0.95)" xlink:href="#linear-gradient-3"/><linearGradient id="linear-gradient-15" x1="30.32" y1="464.58" x2="93.59" y2="464.58" xlink:href="#linear-gradient-2"/><radialGradient id="radial-gradient-15" cx="-482.08" cy="969.85" r="48.02" gradientTransform="translate(896.52 -255.43) rotate(20) scale(0.95)" xlink:href="#linear-gradient-3"/><radialGradient id="radial-gradient-16" cx="241.69" cy="378.42" r="80.27" gradientTransform="translate(-2.91 28.69) scale(0.95)" xlink:href="#linear-gradient-3"/><linearGradient id="linear-gradient-16" x1="215.52" y1="477.47" x2="273.43" y2="477.47" xlink:href="#linear-gradient-2"/><radialGradient id="radial-gradient-17" cx="290.6" cy="319.27" r="61.99" gradientTransform="translate(-2.91 28.69) scale(0.95)" xlink:href="#linear-gradient-3"/></defs><title>アートボード 110</title><g class="cls-2"><g id="レイヤー_1" data-name="レイヤー 1"><g class="cls-3"><path class="cls-4" d="M267.86,167c-1.18,13.51,38.58,64.68,50.34,73.51a65,65,0,0,1,65.95,5.77c13.12-6.65,59.7-43.17,60.88-56.68,2-23.36-50.95-96.76-80.45-99.34s-87,3.31-98.16,78"/><path class="cls-5" d="M275.88,231.53s-4.77-1.93-10.55,6.23-17.5,38.43-23.31,56.7C230.39,331,221.68,417.34,219.59,440.64c-1.81,20.22,19.73,83.92,24.92,93.85s57.31-3.32,50.66-17.44-29.07-69.13-29.07-78.9C266.1,424,291,281.79,291,281.79Z"/><polygon class="cls-6" points="413.45 248.11 351.99 231.38 305.31 240 300.8 304.03 344.65 403.27 437.35 266.79 413.45 248.11"/><path class="cls-7" d="M397.76,135.39s-31.08,52-20.91,73.23,14.31,21.6,14.31,21.6,1.13,33.68-15,40c-8.55,3.37-22.08,14.1-31.63,13.95-8.49-.14-13.33-10.63-16.47-15.9-6.68-11.19-11.6-43.66-11.6-43.66s12.39-2.27,11.32-29.7c-.3-7.69,2.77-2.67,2.37-19.21C329.31,141.42,397.76,135.39,397.76,135.39Z"/><path class="cls-8" d="M388.15,225.9s-4.55,20.36-17.72,37.67c-5.84,7.68-29.05,18-30.07,18.11-1.41.13-8.3-6.93-11.63-15.29a100.24,100.24,0,0,1-6.63-46.22l-21.77,9,18.43,72.07,21.18-17.51,24.23,24.71,55.09-54.89Z"/><path class="cls-9" d="M414.48,246.59s-37.83,66.63-60.28,115.59c-12.93,28.18-19.76,28.67-21,31.52-3,7-15,45.09-12.78,83.1s12.74,89.7,30.46,104.1,33.22,8.86,62,6.64,27.37-13.73,22.71-31S421,515.28,422,462.12s21.42-194,18.16-196.54C432,259.19,414.48,246.59,414.48,246.59Z"/><path class="cls-10" d="M404,363.84a133,133,0,0,1-19.39-2.77,62.68,62.68,0,0,1-16.8-6l-1,9s-1.58,3.1,12.27,6.42a110,110,0,0,0,23.25,3.33Z"/><path class="cls-11" d="M391,267.56c9.2-22.56,8.1-31.77,8.1-31.77l15.36,10.8s-3,48.53-2.55,51.8c.49,3.65-1.33,4.66-8,4.95s-17,1.41-18.74,3.47,11.26,11.65,14.38,14.83.89,4.44-1,8.06-44.48,71.36-70.43,75.12c2.81-6.17-2.45-8,24.93-54.58C366.93,326.74,382.07,289.52,391,267.56Z"/><path class="cls-12" d="M343.68,435.27c-6.13-25.28-17.66-76-23.81-96.9-14.06-47.77-9.79-115.17-9.79-115.17l-34.2,8.33s-16.7,50.4-20.79,79.15c-3.81,26.75-3.88,37.1,3.87,67s8,25.65,5.26,67.83c-1.07,16.59-16.6,70.28-29.55,99.27-4.12,9.21-11.15,17.29-4.5,19.5s52.31,15.78,59.8,14.4c11.67-2.15,24.92-28.79,40.42-70.87S347.27,450.11,343.68,435.27Z"/><path class="cls-13" d="M315.3,480.9a7.76,7.76,0,1,0,7.89-7.62A7.75,7.75,0,0,0,315.3,480.9Z"/><path class="cls-13" d="M324,435.82a7.75,7.75,0,1,0,7.89-7.61A7.75,7.75,0,0,0,324,435.82Z"/><path class="cls-13" d="M337.11,394a7.75,7.75,0,1,0,7.89-7.61A7.76,7.76,0,0,0,337.11,394Z"/><polygon class="cls-14" points="301.92 239.41 301.92 239.41 310.08 236.68 301.92 239.41"/><path class="cls-15" d="M298.87,233.41c-1.93,7.76-11.81,27.92-12.78,30.76-1.13,3.36,4.84,8.52,7.2,9.42s8.75,5.12,11.85,6.71-3.75,3.56-8,5.47-8.94,3.21-10.81,4-2,1.57-1.38,6.5,4.57,48.93,16.2,77.17,38.62,45.48,38.62,45.48S319.23,335.85,316,303.72c-3.9-39.09-5.67-77.55-5.67-77.55Z"/><path class="cls-16" d="M240.52,401.66a8.84,8.84,0,0,1-8.85,8.84H69.59a8.84,8.84,0,0,1-8.84-8.84V282.79A8.83,8.83,0,0,1,69.59,274H231.67a8.84,8.84,0,0,1,8.85,8.83Z"/><path class="cls-17" d="M236.1,348.54a1.48,1.48,0,0,1-1.48-1.48v-9.67a1.48,1.48,0,0,1,2.95,0v9.67a1.47,1.47,0,0,1-1.47,1.48Z"/><path class="cls-18" d="M451.29,282.55c-1.7-14.5-11.1-17-11.1-17-7.79,8.41-11.59,25.8-17.61,56.18-8.31,42-5.64,107.92-5.64,107.92l-62.68-91s-9-4.38-26,9.94-19,25.66-19,25.66,14.38,17.12,31,39.27,51.71,57.55,65.87,71.73,42,12.82,47.24-15.17c5.26-28.24,3.46-44.85,3.46-90.2A883.82,883.82,0,0,0,451.29,282.55Z"/><path class="cls-19" d="M316.43,373.09l-6.16-6.37a36.62,36.62,0,0,1,13.89-23.23c13.6-10.62,21.38-6.69,21.38-6.69l5.95,6.58s1.88,14.92-21.31,26.69C321.23,374.61,316.43,373.09,316.43,373.09Z"/><path class="cls-20" d="M420.05,169.06c-3.59,12.95,1.6,25.66,11.58,28.42s21-5.47,24.56-18.42-1.6-25.67-11.59-28.43-21,5.48-24.55,18.43"/><path class="cls-21" d="M294.49,158.74c1.19,13.38-6,24.94-16.06,25.85S259.24,175.38,258,162s6-24.94,16.06-25.84,19.19,9.21,20.39,22.58"/><path class="cls-22" d="M278.63,124.1c-2.57,29.4,2.39,60,15.51,77.87,16.37,22.29,38.07,34.23,44.11,34.75,13.48,1.18,54.06-5.72,74.47-24.35,16.19-14.79,25-44.72,27.59-74.12,5.35-61.12-20-89.07-72.64-93.67S284,63,278.63,124.1"/><path class="cls-23" d="M377.68,165.36c-.65,6,2.59,11.3,7.21,11.8s8.91-4,9.56-10-2.55-11.3-7.19-11.81-8.92,4-9.58,10"/><path class="cls-24" d="M337.9,191a2.14,2.14,0,0,0,1.83-.57,1.62,1.62,0,0,0-.3-2.49l-3.11-2.28,3.4-11.78c.39-.91,1.71-2.46.65-2.83s-1.37.72-1.76,1.61l-7.13,14,5.38,3.95a2.28,2.28,0,0,0,1,.41"/><rect class="cls-1" x="390.32" y="161.7" width="34.79" height="44.27" transform="matrix(0.09, -1, 1, 0.09, 189.03, 573.97)"/><g class="cls-25"><path class="cls-26" d="M369.88,193.54c-.84,9.57,8.36,18.18,20.53,19.25S413.14,207,414,197.4s-8.35-18.2-20.54-19.26-22.73,5.83-23.56,15.4"/></g><rect class="cls-1" x="288.56" y="152.8" width="34.79" height="44.27" transform="translate(105.01 464.47) rotate(-85)"/><g class="cls-25"><path class="cls-27" d="M283.9,173c-.84,9.57,8.36,18.18,20.53,19.25s22.73-5.82,23.57-15.4-8.35-18.19-20.54-19.25-22.72,5.83-23.56,15.4"/></g><rect class="cls-1" x="368.72" y="165.02" width="34.79" height="44.27" transform="translate(166.01 555.49) rotate(-85)"/><g class="cls-25"><path class="cls-28" d="M368.21,186.89c-.83,9.58,8.37,18.19,20.54,19.25s22.73-5.81,23.57-15.39-8.35-18.19-20.54-19.26-22.73,5.83-23.57,15.4"/></g><rect class="cls-1" x="288.56" y="152.8" width="34.79" height="44.27" transform="translate(105.01 464.47) rotate(-85)"/><g class="cls-25"><path class="cls-29" d="M285.59,175.6c-.81,9.18,5.28,17.2,13.6,17.93s15.7-6.11,16.5-15.3-5.28-17.21-13.6-17.94-15.7,6.13-16.5,15.31"/></g><path class="cls-30" d="M398,137.62c-9.28-4.14-15.64-3.66-22.26,3.7a22.13,22.13,0,0,1,18.91-1c10.22,4.27,14.37,10.13,14.37,10.13a19.34,19.34,0,0,0-11-12.81"/><path class="cls-31" d="M344.51,11.57c-45.45,9.75-75.45,50.87-88.73,83.27s-9.14,63.12,2.49,84.71,43.19,34.89,43.19,34.89c-14.12-13.29-36.93-41.69-22.43-68.11,37.38-68.1,119.11-58.14,119.11-58.14s49.5,53.16,13,117.43c0,0,17.51-6.88,25.53-20.19-5.41,21.43-24.79,39-47.21,52.26,0,0,29.07-3.32,47.34-18.27s41.55-39.37,36.53-94.68c-4.27-46.92-17.71-65.59-33-80.64s-29.31-10.56-29.31-10.56S395.48,12,369.27,9.71C362.27,9.1,344.51,11.57,344.51,11.57Z"/><path class="cls-32" d="M385,157s11.45-3.93,15.12,13.21c0,0,.4-12.54-10.61-15.48s-13.22,8.51-13.22,8.51S380.4,156.5,385,157Z"/><path class="cls-33" d="M319.38,155c-.53,6-4.74,10.58-9.37,10.18s-8-5.62-7.45-11.65,4.71-10.59,9.36-10.19,8,5.62,7.46,11.66"/><path class="cls-30" d="M306.07,123.75c10.06-1.57,16.07.54,20.51,9.38a22.09,22.09,0,0,0-18-5.92c-11,1.46-16.55,6-16.55,6a19.44,19.44,0,0,1,14-9.51"/><path class="cls-34" d="M313.78,145.37s-10.47-6.08-17.4,10c0,0,2.05-12.37,13.41-13.12s11.32,10.91,11.32,10.91S318.43,145.77,313.78,145.37Z"/><path class="cls-35" d="M452.69,101s32.29,59.4-1.86,100C450.83,201,471,163,452.69,101Z"/><path class="cls-36" d="M436.71,185.43s12.54-13.44,16-52.56c0,0,3.47,50-23.51,68.84Z"/><path class="cls-37" d="M341.83,217a15.9,15.9,0,0,1-2.88-.26c-6.95-1.32-15.43-13.75-15.57-13.95a126.13,126.13,0,0,0,16.91,2.45c9.87.86,21.78,2.42,21.9,2.44C362.07,207.71,352,217,341.83,217Z"/><path class="cls-38" d="M323.54,203a158.27,158.27,0,0,0,16.75,2.34c9.19.81,20.14,2.21,21.71,2.42a46.91,46.91,0,0,1-6.19,4.56c-3.46,2.14-8.7,4.69-14,4.69a15,15,0,0,1-2.87-.26c-6.5-1.23-14.34-12.2-15.42-13.75m-.19-.13s8.52,12.63,15.59,14a15.61,15.61,0,0,0,2.89.26c10.27,0,20.37-9.41,20.37-9.41s-11.92-1.56-21.9-2.44a152.46,152.46,0,0,1-16.95-2.38Z"/><path class="cls-39" d="M73.28,400.25a2.1,2.1,0,0,1-2.09-2.1V286.49a2.1,2.1,0,0,1,2.09-2.09h155a2.1,2.1,0,0,1,2.09,2.09V398.15a2.1,2.1,0,0,1-2.09,2.1Z"/><rect class="cls-40" x="126.34" y="332.33" width="39.56" height="11.46"/><path class="cls-41" d="M118.48,364.38a5.31,5.31,0,1,1-5.31-5.31A5.32,5.32,0,0,1,118.48,364.38Z"/><path class="cls-41" d="M158.72,364.38a5.31,5.31,0,1,1-5.31-5.31A5.32,5.32,0,0,1,158.72,364.38Z"/><line class="cls-42" x1="101.82" y1="310.92" x2="197.06" y2="310.92"/><line class="cls-42" x1="101.82" y1="321.75" x2="130.33" y2="321.75"/><line class="cls-42" x1="121.78" y1="367.44" x2="140.88" y2="367.44"/><path class="cls-43" d="M150.86,364.38a2.55,2.55,0,1,1,2.55,2.55A2.55,2.55,0,0,1,150.86,364.38Z"/><path class="cls-44" d="M79.87,410.5s-.92-4.32-5.52-10.58a79.6,79.6,0,0,0-11.29-11.84c1.46-3.74,9.85-11.54,14.45-26.43,3.53-11.45-4.34-16.32-7.9-9.92S49.34,379.34,48,385.88s.77,17.65,4,29.55c1.31,4.84,5.32,9.23,3.94,14.37s-18,56.7-18,56.7,40.67,1.79,43.11-9.17c3.45-15.51,8.12-34.71,10.62-37,4.27-3.91,15.68-10.48,18.46-15.71,1.12-2.1,3.67-8,6.31-14.12Z"/><path class="cls-45" d="M93.59,451.48s-21.91-13.26-46.81-7.07l-16.46,42H81.26Z"/><path class="cls-46" d="M95.13,456.9a77.72,77.72,0,0,0-25.26-8.73,66.18,66.18,0,0,0-26.74.87L15.36,522.68H72Z"/><path class="cls-47" d="M201.77,371.16s-7.82,6.38-9.51,8.38-1.84,3.92-.57,7.69,4.32,9.6,6.17,13.22,6.42,9.57,10.18,5.79,7.48-11.83,6.58-15.37-.86-19.6-4.05-21S201.77,371.16,201.77,371.16Z"/><path class="cls-48" d="M207.45,400.06s-1.58-11.59-2.64-12.9,3.57-5.58,3.57-5.58l2.1-1.53.14,2.81a14,14,0,0,0-3,3c-.93,1.5,3.38,10.87,1.12,16S207.45,400.06,207.45,400.06Z"/><path class="cls-49" d="M154.44,364c-.54-.67-.3-1,.54-.93s10.82,1.19,10.82,1.19l-3.68,7.57S155,364.69,154.44,364Z"/><path class="cls-50" d="M240.55,406.34c-1.42,2.68-3.2,2.72-3.2,2.72l-75.23-37.22a5.18,5.18,0,0,1,.37-4.42,6,6,0,0,1,3.31-3.15L241,401.81A5,5,0,0,1,240.55,406.34Z"/><path class="cls-51" d="M240.55,406.34a5,5,0,0,0,.43-4.53s-1.36.52-2.72,3.3c-1,2-1,3.14-.68,3.91C238.11,408.91,239.44,408.43,240.55,406.34Z"/><path class="cls-1" d="M208.93,383.24a83.74,83.74,0,0,0-2.57-10.2c-1-2.21-2.69-1.43-5.45-.14-1.68.78-8.31,1.76-14.36,1.73l22.56,11.27A11.23,11.23,0,0,0,208.93,383.24Z"/><path class="cls-1" d="M191.32,404.28c-.48,2.58,9.35,7.07,10.86,6.71.94-.23,5-9.84,5.76-12.24a23.86,23.86,0,0,0,.64-3.93l-24.18-12C188.86,389.8,191.72,402.09,191.32,404.28Z"/><path class="cls-52" d="M262,492.43c-1.51-4.68-12.81-45.5-12-48.89.48-2.07-1-38.46-1.41-40.43s-4.72-10.86-5.27-14.32c-.7-4.39-6.63-7-9.54-10.36s-12.05-13.56-13.59-16.87-6-4.95-10.39-4.25c-3.66.59-31.95,5.82-34.41,6.29-1.43.28-2.26,2.3-1.78,4.56a7.55,7.55,0,0,0,3.43,4.76c1.9,1.24,5.59,1.69,9.52,1.71,6,0,12.68-.95,14.36-1.73,2.76-1.29,4.41-2.07,5.45.14a83.74,83.74,0,0,1,2.57,10.2,11.23,11.23,0,0,1,.18,2.66L241,401.81a5,5,0,0,1-.43,4.53,6.83,6.83,0,0,1-.5.82l-.15.2-.36.44-.17.17-.37.33-.12.1a4.73,4.73,0,0,1-.44.29l-.14.07-.25.12-.16.05-.17.06-.11,0h0l-.23,0-28.77-14.24a23.86,23.86,0,0,1-.64,3.93c-.78,2.4-4.82,12-5.76,12.24-1.51.36-11.34-4.13-10.86-6.71.4-2.19-2.46-14.48-6.92-21.42a16.05,16.05,0,0,0-2.51-3.12c-3.09-2.82-6.31-3.12-8.45-2.3-1.92.73-3,2.36-2.23,3.92,1.54,3.32,4.56,27.81,7.21,30.62s15.25,21.15,18.82,25.2a30.39,30.39,0,0,0,11.23,8.22c3.24,1.18,5.79,3,6.27,5.49s17.33,54.5,17.33,54.5S263.54,497.11,262,492.43Z"/><path class="cls-53" d="M215.52,464.37s19.45-13.26,44.21-7.07l13.7,42H225.24Z"/><path class="cls-46" d="M213.78,469.79s21.61-14.73,49.11-7.86l24.9,76.71H234.25Z"/><path class="cls-54" d="M345.62,343.35s-18.65-24.5-24.57-28.24c-.08-.05-.16-.07-.24-.12a47.47,47.47,0,0,0-11-8.18c-12.3-6.54-26.79-12.14-34.88-12.88-9.14-.83-20.76,13.71-20.76,13.71A121.58,121.58,0,0,1,235.64,311c-14.35,1.3-30.46,2.38-34.33,2.94s-7.2,7.3,2.21,7.58c22.48.66,42.08,2.77,42.08,2.77s-.55,3,1.32,7.58,6.85,5.71,6.85,5.71.45,6.73,2.38,8.58a22.66,22.66,0,0,0,4.65,3.78c.45,1.74-.21,3.55,3.46,5,5,2,14.88,3.42,17.44,3.24,2.23-.16,10-1.05,15.68-1.32,2.79-.13,9-2.42,11.9-.28s9.06,10,9.06,10,4.4,2.8,15.93-5.54C349.77,349.86,345.62,343.35,345.62,343.35Z"/><path class="cls-48" d="M244.53,324.11l0-.69s19.31.18,23,.54,2.7,2.34-1.85,1.91C262.65,325.57,244.53,324.11,244.53,324.11Z"/><path class="cls-48" d="M252.78,337.75l-.05-1s14.91-.23,19.46.21,6.49,1.88,1.91,1.85C270.81,338.75,252.78,337.75,252.78,337.75Z"/><path class="cls-48" d="M259.9,349.58l-.14-.51s18-.62,20-.47,2.13,1.81-1.4,1.6C275.81,350.06,259.9,349.58,259.9,349.58Z"/><path class="cls-48" d="M273.91,306.6c1.46,0,8.52.21,4.16-1.45s-6.65-2.08-7.69-1.46-5.19,2.7-5.19,2.7S272.46,306.6,273.91,306.6Z"/></g></g></g></svg>