<svg xmlns="http://www.w3.org/2000/svg" xmlns:xlink="http://www.w3.org/1999/xlink" viewBox="0 0 370 280"><defs><style>.cls-1,.cls-22,.cls-26{fill:none;}.cls-2{fill:#753e1f;}.cls-3{isolation:isolate;}.cls-4{clip-path:url(#clip-path);}.cls-5{fill:#afb0af;}.cls-6{fill:#c7c8c8;}.cls-7{fill:#65a7c6;}.cls-8{fill:#7bbbdc;}.cls-9{fill:#eeedec;}.cls-10{fill:#622f1a;}.cls-11{fill:#614939;}.cls-12{fill:#754c24;}.cls-13{fill:url(#linear-gradient);}.cls-14{fill:#3d3a39;}.cls-15{fill:#fff;}.cls-16{fill:url(#radial-gradient);}.cls-17{fill:#351e11;}.cls-18{fill:url(#linear-gradient-2);}.cls-19{fill:url(#radial-gradient-2);}.cls-20{fill:url(#linear-gradient-3);}.cls-21{fill:#361e10;}.cls-22{stroke:#de816a;stroke-linecap:round;stroke-linejoin:round;}.cls-23{fill:url(#linear-gradient-4);}.cls-24{fill:url(#linear-gradient-5);}.cls-25{clip-path:url(#clip-path-2);}.cls-26{stroke:#725b48;stroke-width:2.82px;}.cls-27{fill:#6f6e6e;}.cls-28{fill:url(#radial-gradient-3);}.cls-29{fill:#46160b;}.cls-30{fill:url(#radial-gradient-4);}.cls-31{mix-blend-mode:multiply;}.cls-32{fill:url(#radial-gradient-5);}.cls-33{fill:#240f05;}.cls-34{clip-path:url(#clip-path-3);}.cls-35{fill:#ede6db;}.cls-36{fill:#b4d379;}.cls-37{fill:#5baeb2;}.cls-38{fill:#191919;opacity:0.2;}.cls-39{fill:#ed5c35;}.cls-40{fill:#f8dabf;}.cls-41{fill:url(#linear-gradient-6);}.cls-42{fill:url(#linear-gradient-7);}</style><clipPath id="clip-path"><rect id="SVGID" class="cls-1" x="-5.57" width="380.1" height="286.71"/></clipPath><linearGradient id="linear-gradient" x1="249.86" y1="193.04" x2="374.58" y2="195.62" gradientUnits="userSpaceOnUse"><stop offset="0" stop-color="#071630"/><stop offset="1" stop-color="#133c62"/></linearGradient><radialGradient id="radial-gradient" cx="251.33" cy="155.24" r="34.02" gradientTransform="translate(1.47) scale(0.93 0.93)" gradientUnits="userSpaceOnUse"><stop offset="0" stop-color="#f6e2d0"/><stop offset="1" stop-color="#f5d0b5"/></radialGradient><linearGradient id="linear-gradient-2" x1="288.58" y1="173.22" x2="288.58" y2="130.92" gradientUnits="userSpaceOnUse"><stop offset="0" stop-color="#fbeedb"/><stop offset="1" stop-color="#efba95"/></linearGradient><radialGradient id="radial-gradient-2" cx="297.32" cy="96.41" r="43.48" xlink:href="#radial-gradient"/><linearGradient id="linear-gradient-3" x1="239.9" y1="224.63" x2="322.56" y2="224.63" xlink:href="#linear-gradient"/><linearGradient id="linear-gradient-4" x1="268.22" y1="224.63" x2="328.98" y2="224.63" xlink:href="#linear-gradient"/><linearGradient id="linear-gradient-5" x1="289.6" y1="175.34" x2="279.64" y2="122.59" xlink:href="#linear-gradient"/><clipPath id="clip-path-2"><polygon id="SVGID-2" data-name="SVGID" class="cls-2" points="28.91 95.55 111.37 43.52 193.83 95.55 28.91 95.55"/></clipPath><radialGradient id="radial-gradient-3" cx="-749.39" cy="844.09" r="7.78" gradientTransform="matrix(0.95, 0.28, -0.32, 1.09, 1229.81, -627)" gradientUnits="userSpaceOnUse"><stop offset="0" stop-color="#6e4c37"/><stop offset="1" stop-color="#040000"/></radialGradient><radialGradient id="radial-gradient-4" cx="-1315.67" cy="840.03" r="10.37" gradientTransform="matrix(0.73, 0.21, -0.3, 1.05, 1471.74, -517.48)" xlink:href="#radial-gradient-3"/><radialGradient id="radial-gradient-5" cx="320.41" cy="118.12" r="9.84" gradientTransform="translate(-50.13) scale(0.96 0.93)" gradientUnits="userSpaceOnUse"><stop offset="0" stop-color="#fbe5d4"/><stop offset="1" stop-color="#fff"/></radialGradient><clipPath id="clip-path-3"><path class="cls-1" d="M208.82,189.5c-1.2-3.48-16.62-63.46-17.19-66.85a1.22,1.22,0,0,1,.64-1.21c3.24-.78,43.88-8.13,49.9-8.92a3.93,3.93,0,0,1,.54,1.58c.27,1.79,4.13,18.1,11.66,49.57,1.59,6.66,3,12.67,3.78,15.83-5.07,1.08-44.47,9.28-49.32,10.05Z"/></clipPath><linearGradient id="linear-gradient-6" x1="205.63" y1="202.04" x2="224.45" y2="202.04" gradientUnits="userSpaceOnUse"><stop offset="0" stop-color="#c4c4c3"/><stop offset="0.09" stop-color="#d5d5d5"/><stop offset="0.23" stop-color="#e8e8e7"/><stop offset="0.4" stop-color="#f5f5f5"/><stop offset="0.6" stop-color="#fdfdfd"/><stop offset="1" stop-color="#fff"/></linearGradient><linearGradient id="linear-gradient-7" x1="197.5" y1="204.57" x2="283.85" y2="206.05" xlink:href="#linear-gradient"/></defs><title>アートボード 105</title><g class="cls-3"><g id="レイヤー_1" data-name="レイヤー 1"><g class="cls-4"><rect class="cls-5" x="-34" y="201" width="414.93" height="98.1"/><rect class="cls-6" x="52.37" y="93.47" width="75.66" height="113.43"/><rect class="cls-7" x="63.73" y="105.26" width="22.38" height="43.01"/><rect class="cls-8" x="86.12" y="105.26" width="22.39" height="43.01"/><polygon class="cls-9" points="119.7 93.47 119.7 127.12 48.2 127.12 48.2 156.26 119.7 156.26 119.7 206.9 172.8 206.9 172.8 93.47 119.7 93.47"/><rect class="cls-8" x="127.22" y="105.36" width="14.75" height="16.65"/><rect class="cls-8" x="149.77" y="105.36" width="14.75" height="16.65"/><rect class="cls-7" x="127.22" y="160.87" width="18.65" height="25.67"/><rect class="cls-8" x="145.87" y="160.87" width="18.65" height="25.67"/><rect class="cls-10" x="72.24" y="162.85" width="27.76" height="44.05"/><rect class="cls-11" x="74.88" y="177.67" width="2.25" height="17.34"/><path class="cls-12" d="M241.16,197.27c-5.61,34.45-12.92,79.81-13.34,81.24a25.15,25.15,0,0,0-.81,3.62l3.3.4s8-49.73,13.78-85.16C247.13,178.79,244,179.89,241.16,197.27Z"/><path class="cls-13" d="M316.73,148.63a5.76,5.76,0,0,1,3.9,2.64,36.88,36.88,0,0,1,4.95,13.22c1.85,14.38.74,25.82-4.06,43.15s-10.7,32.46-10.7,32.46l-3.69-73.77Z"/><path class="cls-14" d="M187.49,123.27c-.42-3,.23-5,3.81-5.89s49.09-9.1,51.25-9.1,3.88,2.3,4.3,5.22,15.49,65.33,15.92,67.42-1.29,2.13-3.44,2.6-48.71,10.2-50.49,10.24-2.67.92-4-2.9S187.92,126.25,187.49,123.27Z"/><path class="cls-15" d="M208.82,189.5c-1.2-3.48-16.62-63.46-17.19-66.85a1.22,1.22,0,0,1,.64-1.21c3.24-.78,43.88-8.13,49.9-8.92a3.93,3.93,0,0,1,.54,1.58c.27,1.79,4.13,18.1,11.66,49.57,1.59,6.66,3,12.67,3.78,15.83-5.07,1.08-44.47,9.28-49.32,10.05Z"/><path class="cls-16" d="M246.33,88.24s-5.2,7.89-8.75,11.16c-1.8,1.65-3.14,2-1.85,3.5s6.61,4.11,6.61,4.11Z"/><path class="cls-17" d="M298.68,79c13.76,9.92,15.14,22,8.82,40.67,0,0,17.3-10.14,21.09-30.14,1.46-7.72,1.17-14.77-5-24.14-21-31.73-33-21.53-33-21.53s-12.18-7.6-21.77-3.92-16.61,9.45-22.14,21.25-7.54,32.08,9.22,43.52c0,0-21.77-5.89,9.09-42.09C264.93,62.65,285.78,69.73,298.68,79Z"/><path class="cls-18" d="M304.65,104.67s-12.91,26-8.06,35.25,10.64,7.19,10.64,7.19-3.4,3.56-10.47,6.64c-3.75,1.62-9,1.81-13.21,1.89-3.77.07-6.7.28-8.18-2-3.14-4.87-5.44-8.08-5.44-8.08s5.47-1.21,4.57-13.36c-.25-3.41,1.19-1.23.75-8.56C274.36,108.41,304.65,104.67,304.65,104.67Z"/><path class="cls-19" d="M312.84,82.89s4.26,16.32-3.25,30.52c-7.26,13.76-44.65,22.21-52,19s-16.49-12.19-16.86-26.57,2.34-30.41,10-40.57C258.43,55,264.82,46,288,45.73S311.92,73.31,312.84,82.89Z"/><path class="cls-20" d="M321.16,292.84c-2.36-8.08-2.75-17.23-3.19-42.31-.35-20.15.23-39.2,1.71-52.48s3.69-18.44,2.58-29.5a63.57,63.57,0,0,0-5.53-19.92l-17-7-8.48,6.64-24.36-2.58-14.39,8.11s-3.34,1.91-3.9,3.8c-2.42,8.14-4.86,26-4.58,41.57.16,9.22,5.71,32.64,5.19,52.57-.2,7.84-4,37.56-9.25,51.43-1.68,4.41,23.26,4.09,26.56,3.32,2.31-.54,51.47.76,52.77,1.11C321.91,308.28,323.51,300.91,321.16,292.84Z"/><path class="cls-21" d="M288.31,132.4c-7-1.1-18.81,1.48-18.81,1.48s10.2-12.52,8.73-26.78c-3.75,6.14-11.13,12.05-11.13,12.05s10.64-22.38-1.29-43.54C254.7,55.9,252.89,55,252.89,55a57.68,57.68,0,0,0,10.33-11.06c4.92-6.89,20.45-16.71,40.1-7.6,5.14,2.38,6.77,4.27,10.64,7.25,23.12,4.43,27.75,47,21.83,64.54-6.89,20.41-31,23.36-31,23.36l-1.73,4.18S295.33,133.51,288.31,132.4Z"/><path class="cls-22" d="M242,114.17s1.66.73,6.64-.74"/><path class="cls-12" d="M254,152l3.69-2.21s9.67,4.5,10.41,17.41c.83,14.48,1.77,114.25,2.13,116.46a24.85,24.85,0,0,1,.37,3.69H267s-1.13-114.44-1.72-118.83C264.51,162.94,260.64,152.69,254,152Z"/><path class="cls-23" d="M321.16,292.84c-2.36-8.08-2.75-17.23-3.19-42.31a353.11,353.11,0,0,1,2.08-47.68c1.47-13.28,2.21-28.4,1.11-39.47s-4.43-14.75-4.43-14.75l-17-7-3.46,2.72-2.81,3.92a45.8,45.8,0,0,1,3.69,18.44c-.35,9-5.22,112-5.54,140,13.29.31,27,.75,27.68.93C321.91,308.28,323.51,300.91,321.16,292.84Z"/><path class="cls-24" d="M271.71,142.36s14.76,4.8,26.2-2.21l7.75,3.69S302,151,286.1,152c-18.45,1.11-23.61-3.69-23.61-3.69Z"/><polygon id="SVGID-3" data-name="SVGID" class="cls-2" points="28.91 95.55 111.37 43.52 193.83 95.55 28.91 95.55"/><g class="cls-25"><line class="cls-26" x1="24.26" y1="46.64" x2="196.4" y2="46.64"/><line class="cls-26" x1="24.26" y1="51.69" x2="196.4" y2="51.69"/><line class="cls-26" x1="24.26" y1="56.74" x2="196.4" y2="56.74"/><line class="cls-26" x1="24.26" y1="61.79" x2="196.4" y2="61.79"/><line class="cls-26" x1="24.26" y1="66.84" x2="196.4" y2="66.84"/><line class="cls-26" x1="24.26" y1="71.89" x2="196.4" y2="71.89"/><line class="cls-26" x1="24.26" y1="76.94" x2="196.4" y2="76.94"/><line class="cls-26" x1="24.26" y1="81.99" x2="196.4" y2="81.99"/><line class="cls-26" x1="24.26" y1="87.03" x2="196.4" y2="87.03"/><line class="cls-26" x1="24.26" y1="92.08" x2="196.4" y2="92.08"/></g><path class="cls-27" d="M232.23,186.82a.49.49,0,0,1,.37-.57l3.05-.65a.48.48,0,0,1,.56.37.48.48,0,0,1-.37.56l-3,.65a.49.49,0,0,1-.57-.36Z"/><path class="cls-28" d="M247.26,90c-.79,2.72.08,5.37,1.92,5.9s4-1.24,4.79-4S253.9,86.52,252,86s-4,1.24-4.78,4"/><path class="cls-29" d="M257.7,78.6c-4.29-2.07-7.28-1.94-10.49,1.42a10.38,10.38,0,0,1,8.88-.21,16.19,16.19,0,0,1,6.6,5,9.06,9.06,0,0,0-5-6.16"/><path class="cls-30" d="M251,86.59s5-1.06,5.05,7.07c0,0,1.25-5.74-3-7.82s-6.15,3-6.15,3S249.14,86.05,251,86.59Z"/><rect class="cls-1" x="247.57" y="101.4" width="20.76" height="16.3"/><g class="cls-31"><path class="cls-32" d="M247.57,109.56c0,4.5,4.65,8.15,10.38,8.15s10.38-3.65,10.38-8.15-4.65-8.16-10.38-8.16-10.38,3.66-10.38,8.16"/></g><path class="cls-33" d="M278.23,107.1s5.8-7.82,5.8-26.23c0,0,6.15,21-5.68,30.92Z"/><g class="cls-34"><rect class="cls-35" x="195.85" y="127.42" width="62.29" height="35.18" transform="translate(-23.69 46.45) rotate(-11.11)"/><rect class="cls-36" x="206.01" y="140" width="9.32" height="11.92" transform="translate(-24.18 43.33) rotate(-11.11)"/><rect class="cls-36" x="225.23" y="153.17" width="16.48" height="8.42" transform="translate(-25.99 48.02) rotate(-11.13)"/><polygon class="cls-36" points="254.17 121.75 255.98 130.99 217.88 138.47 216.55 130.55 222.37 129.17 223.53 131.06 236.66 128.48 236.03 125.31 254.17 121.75"/><path class="cls-37" d="M223.27,163.67l-8.77,1.72-.59-.17h-.06a27.52,27.52,0,0,1-5.72-2.52l0,0a65.89,65.89,0,0,1-7-4.89c-1.26-1-2.54-2-3.91-2.93l-.88-4.45c2.55,1.65,4.74,3.33,6.73,4.85,5.05,3.87,9.05,6.93,15.92,7.81C220.25,163.21,221.71,163.42,223.27,163.67Z"/><path class="cls-15" d="M225.43,163.25l-2.44.48-.82-.13c-1.47-.23-2.95-.38-4.41-.63a26.37,26.37,0,0,1-5.5-1.57,42,42,0,0,1-9.13-5.66c-2.22-1.69-4.43-3.39-6.74-5l-.24-1.22c3.15,2.07,6.07,4.45,9.1,6.68a32.2,32.2,0,0,0,9.51,5.12c3.1.95,6.39,1.17,9.57,1.7Z"/><path class="cls-15" d="M214.51,165.39l-1.84.36a27.52,27.52,0,0,1-5.73-2.77c-2.76-1.72-5.27-3.78-7.86-5.73L197.42,156l-.24-1.23c1.31.93,2.6,1.9,3.88,2.87a73.26,73.26,0,0,0,7,5l0,0,.76.44a25.82,25.82,0,0,0,5,2.08h.06Z"/><path class="cls-15" d="M245.83,133.42l9.55-1.87c.22-.05.46-.08.69-.11l-.17-.88-36.51,7.17-1.17.21-1.15-5.83c-.1-.53-.4-1.3.32-1.52.33-.1.7-.14,1-.21l5.78-1.13a.43.43,0,0,0-.17-.85l-3.78.73c0-.24,0-.48,0-.72l-.87.17c0,.24,0,.48,0,.72l-2,.41a1.57,1.57,0,0,0-1.24,2l1.26,6.43-7.16,1.4-1.73-8.81-.85.17,1.73,8.81-4.07.8-.15-.74a3.29,3.29,0,0,0-.46-1.47,1.76,1.76,0,0,0-1.79-.6c-.5.1-1.19.38-1.61,0a1.25,1.25,0,0,1-.3-.76l-.89-4.54-.85.17.51,2.63c.09.43.16.86.25,1.29l-6.19,1.22.17.85,6.19-1.22a.13.13,0,0,1,0,.06,1.74,1.74,0,0,0,1,1.25,2.87,2.87,0,0,0,1.74,0c.55-.11,1.07-.07,1.24.57,0,.12.05.25.07.37l.23,1.15-9.67,1.89.17.85,9.66-1.89,1.2,6.1-9.66,1.9.17.85,9.66-1.9.88,4.48a.45.45,0,0,0,.51.34l5-1,.94,4.75a.43.43,0,0,0,.85-.17l-.93-4.74,3.28-.65a.43.43,0,0,0,.34-.51l-2.25-11.43,2.94-.57,3.26,16.6a.45.45,0,0,0,.51.34l2.92-.57,1.54,7.83.85-.17-1.54-7.83,15.32-3,1.54,7.84.85-.17-.33-1.69,12.83-2.52,2,1.36,1.2-.24-2-1.32c-.33-.22-.82-.71-1.25-.68a16.12,16.12,0,0,0-2.07.41l-3,.58-1-5.29,10.23-2-.16-.85-10.24,2-.85-4.31,9.55-1.88.69-.12-.17-.87-10.23,2Zm-29.91,17.3-8.3,1.63-2.16-11,4.37-.86a.4.4,0,0,0,.24-.05l3.68-.72Zm16.19-14.6L242.84,134,245,145l-10.73,2.11Zm-13.72,2.69,4.07-.8c.51-.1,1-.17,1.52-.3l5.13-1,2.17,11-9.55,1.87c-.37.07-.8.11-1.18.2Zm16.05,13.65-12.22,2.4-.66.11-.84-4.31,12.87-2.52Zm-1-5.17-1.29.25-2.16-11,1.29-.26Zm16,8.62-7.08,1.39-1-5.3,7.08-1.39Zm-1.21-6.15-12.87,2.53-.85-4.32,12.87-2.53Zm-1-5.17-1.29.26-2.16-11,1.29-.25Zm-16.7-17-.23-1.13-.85.16.22,1.13A.44.44,0,0,0,230.44,127.59Zm-18.06,37.29-9,1.76-2.36-1.6-2.16-1.45.24,1.2,2.19,1.48,2,1.32,1.2-.23-.06,0,8.12-1.59A.43.43,0,0,0,212.38,164.88Zm-9.7-5.67-4.22,2.14.18.88,4.43-2.24A.44.44,0,0,0,202.68,159.21Z"/><path class="cls-15" d="M215.69,146.6,212,145.42c.46-.36.93-.72,1.37-1.1l.08-.06a2.66,2.66,0,0,0,.49-.1l1.11-.22a.29.29,0,0,0-.11-.57l-1.15.23a1.55,1.55,0,0,0-.74.24c-.59.43-1.15.91-1.72,1.36l-2.14-.68c-.27-1.39-.55-2.78-.82-4.18a.29.29,0,0,0-.57.11c.25,1.29.51,2.58.76,3.88l-1.71-.55-1.26-.4c-.35-.11-.54.44-.19.55l7.18,2.28-.24,1-5.91,1.17a.29.29,0,0,0,.11.56l5.66-1.11-.42,1.77-4.92,1a5,5,0,0,1-4.71-1.88,23,23,0,0,0-5.3-5c-.49-.34-1-.67-1.51-1-.32-.18-.65.3-.32.48a21.74,21.74,0,0,1,4.23,3.15,27.21,27.21,0,0,1,2.48,2.78,6.15,6.15,0,0,0,1.58,1.34,5.23,5.23,0,0,0,3.66.7l2.82-.55q.87,4.41,1.73,8.82c.11.52.21,1.05.31,1.57a.29.29,0,0,0,.57-.11c-.56-2.88-1.13-5.75-1.69-8.63-.12-.59-.24-1.18-.35-1.76l1.72-.34a.3.3,0,0,0,.22-.19c.27-1.19.55-2.38.83-3.57l1.15.37,1.25.4C215.86,147.26,216.05,146.71,215.69,146.6Z"/><path class="cls-15" d="M251.8,125.21l-.56-2.88-.57.11.56,2.88-4.91,1,.91-3.18-.64.13-.91,3.17-7.25,1.43c-.12,0-.25,0-.39.07l-1.17.23-.57-2.88-.57.11.57,2.89-12.76,2.5-.91-1.72c-.17-.33-.69-.07-.51.26l2.44,4.64-5.34-.17-2-.06c-.37,0-.42.56,0,.57l4.67.15,2.63.09a4.33,4.33,0,0,0,.44,0c.13.13.27.25.41.37l2.08,1.83c.28.24.71-.14.44-.38l-1-.87,4.82-1.86,8.36-3.21,1.79-.69,1.57.64,5.52,2.25c.34.14.53-.4.19-.54-3.16-1.29-6.29-2.66-9.47-3.89l11.68-2.29,1.11,5.68.57-.11-1.12-5.68,2.94-.58-.11-.57Zm-13.14,3.18h0ZM225,134.54h0ZM240.16,129l.92.38-4.59,1.76-8.35,3.22-1.74.67-.35-.31a5.44,5.44,0,0,0-.77-.67c-.48-.93-1-1.85-1.46-2.78l7-1.37h0l7.72-1.51.07,0a4.22,4.22,0,0,0,.45.18Z"/><path class="cls-15" d="M257.6,139.21l.11.57-4.47.88.6,3.06a.29.29,0,0,1-.57.11l-1.63-8.29-5.61,1.1a.29.29,0,0,1-.12-.57l5.62-1.1-.59-3a.29.29,0,0,1,.57-.11l.62,3.16a.3.3,0,0,1,0,.23l1,4.83Z"/><path class="cls-15" d="M244.8,141.73l-5.51,1.08q-.66-3.37-1.33-6.75c-.09-.49-.19-1-.29-1.48a.29.29,0,0,0-.56.11c.19,1,.39,2,.59,3l-5.62,1.1a.29.29,0,0,0,.11.57l5.62-1.1q.66,3.41,1.34,6.81c.09.49.19,1,.29,1.48a.29.29,0,0,0,.57-.11c-.21-1-.41-2-.61-3.06l5.51-1.08A.29.29,0,0,0,244.8,141.73Z"/><path class="cls-15" d="M225.31,147.79c.1.49.2,1,.29,1.47a.29.29,0,0,0,.57-.11l-.6-3.06,5.61-1.1a.29.29,0,0,0-.11-.57l-5.61,1.11c-.44-2.25-.89-4.5-1.33-6.75-.09-.5-.19-1-.29-1.48a.29.29,0,0,0-.57.11c.2,1,.4,2,.59,3l-5.5,1.09a.29.29,0,0,0,.11.56L224,141Q224.65,144.38,225.31,147.79Z"/><path class="cls-15" d="M241.89,157.53l-3,.59c-.06-.46-.21-.93-.29-1.37l-.88-4.49a.29.29,0,0,0-.57.11l.78,4c.13.65.22,1.32.39,2a.56.56,0,0,1,0,.07,6.55,6.55,0,0,0-.57.81L236.49,161l-1.59-.28-2.27-.38a.36.36,0,0,1,0-.1l-1.32-6.71a.29.29,0,0,0-.57.11l1,5.08c0,.09.16,1,.27,1.52-1.62-.26-3.25-.49-4.88-.7l-1.58-.2c-.37-.05-.41.53,0,.57,2.11.26,4.22.54,6.33.87l-.09.12-1,1.21-.1.12.89-.17.52-.65c.14-.16.32-.34.46-.53l2.68.46,2.05-.4.78-1.12.69-1,.06-.09,3.23-.64A.29.29,0,0,0,241.89,157.53Zm-3.59.94a0,0,0,0,0,0,0A0,0,0,0,1,238.3,158.47Z"/><path class="cls-38" d="M225.24,146.05a1.17,1.17,0,0,0,.21-.45A1.28,1.28,0,1,0,223,145a1.16,1.16,0,0,0,0,.49l.46,3Z"/><path class="cls-39" d="M224.07,145.5a1.34,1.34,0,0,0,0-.49,1.28,1.28,0,0,0-2.52.49,1.44,1.44,0,0,0,.19.46l1.66,2.52Z"/><path class="cls-15" d="M223.71,145.08a.92.92,0,0,1-1.8.35.92.92,0,0,1,1.8-.35Z"/></g><path class="cls-40" d="M216.76,191.33c-.38-1.17,0-10-.21-11.94s-2.54-7.33-4.18-9.8-5.59-7.61-6.52-9.32-2.47-4.14-3.46-2.51c-1.6,2.63-.51,5.06,1.3,7.88,1.24,1.94,2.84,3.42,3.18,6.52s-3.1.69-4.68-1.31-4.06-5.48-4.06-5.48l-2.36-8.75s-3.28,9.51-3.12,10.32c.28,1.42.89,3.83,3.29,9.85a97.73,97.73,0,0,0,5.92,12.93c1.35,2.15,4.12,4.86,5.46,8s2.21,6.54,2.76,7.67,10-4.08,9.55-5.41C219.33,199.16,217.14,192.5,216.76,191.33Z"/><path class="cls-41" d="M207.85,208.5l-2.22-5.9s5.54-7.38,15.13-7l3.69,7.75Z"/><path class="cls-42" d="M230,214.28s4.43-16.23,7.75-31.35,6-21.46,9.6-25.45c7.54-8.41,16.72,7.23,12.54,26.92-2.58,12.18-5.9,23.24-9.59,36.89-3.76,13.89-5.54,18.07-8.12,26.55s-17.49,13.42-24-4.43C212.3,227.19,205.27,207,205.27,207s9.59-12.54,19.18-7.74C226.69,206.16,230,214.28,230,214.28Z"/></g></g></g></svg>