<svg xmlns="http://www.w3.org/2000/svg" xmlns:xlink="http://www.w3.org/1999/xlink" viewBox="0 0 370 280"><defs><style>.cls-1{isolation:isolate;}.cls-2{fill:url(#linear-gradient);}.cls-3{fill:url(#radial-gradient);}.cls-4{fill:url(#linear-gradient-2);}.cls-5{fill:url(#linear-gradient-3);}.cls-6{fill:url(#linear-gradient-4);}.cls-7{fill:url(#linear-gradient-5);}.cls-8{fill:url(#linear-gradient-6);}.cls-9{fill:url(#linear-gradient-7);}.cls-10{fill:url(#linear-gradient-8);}.cls-11{fill:#ffe5bb;}.cls-12{fill:url(#linear-gradient-9);}.cls-13{fill:url(#linear-gradient-10);}.cls-14{fill:url(#radial-gradient-2);}.cls-15{fill:#e7a05d;}.cls-16,.cls-47,.cls-81,.cls-82,.cls-83{fill:none;}.cls-17{mix-blend-mode:multiply;}.cls-18{fill:url(#radial-gradient-3);}.cls-19{fill:url(#radial-gradient-5);}.cls-20{fill:#481400;}.cls-21{fill:#e09c92;stroke:#dd827c;stroke-width:0.09px;}.cls-22{fill:url(#radial-gradient-7);}.cls-23{fill:url(#radial-gradient-8);}.cls-24{fill:url(#radial-gradient-9);}.cls-25{fill:url(#radial-gradient-10);}.cls-26{fill:url(#radial-gradient-11);}.cls-27{fill:url(#radial-gradient-12);}.cls-28{fill:url(#radial-gradient-13);}.cls-29{fill:url(#radial-gradient-14);}.cls-30{fill:#ffd21f;}.cls-31{fill:url(#linear-gradient-11);}.cls-32{fill:url(#linear-gradient-12);}.cls-33{fill:url(#radial-gradient-15);}.cls-34{fill:url(#linear-gradient-13);}.cls-35{fill:url(#linear-gradient-14);}.cls-36{fill:url(#linear-gradient-15);}.cls-37{fill:url(#radial-gradient-16);}.cls-38{fill:url(#radial-gradient-17);}.cls-39{fill:url(#linear-gradient-16);}.cls-40{fill:#38070f;}.cls-41{fill:url(#linear-gradient-17);}.cls-42{fill:#e5a782;}.cls-43{fill:#141414;}.cls-44{fill:#2a2a2a;}.cls-45{fill:#fff;}.cls-46{fill:#6e6e6e;}.cls-47,.cls-48,.cls-49,.cls-50,.cls-51,.cls-52,.cls-53,.cls-54,.cls-55,.cls-56,.cls-57,.cls-58,.cls-59,.cls-60,.cls-61,.cls-62,.cls-63,.cls-64,.cls-65,.cls-66,.cls-67,.cls-68,.cls-69,.cls-70,.cls-71,.cls-72,.cls-73,.cls-74,.cls-75,.cls-76,.cls-77,.cls-78,.cls-82{stroke:#000;}.cls-47,.cls-48,.cls-49,.cls-50,.cls-51,.cls-52,.cls-53,.cls-54,.cls-55,.cls-56,.cls-57,.cls-58,.cls-59,.cls-60,.cls-61,.cls-62,.cls-63,.cls-64,.cls-65,.cls-66,.cls-67,.cls-68,.cls-69,.cls-70,.cls-71,.cls-72,.cls-73,.cls-74,.cls-75,.cls-76,.cls-77,.cls-78{stroke-width:0.18px;}.cls-48{fill:url(#linear-gradient-18);}.cls-49{fill:url(#linear-gradient-19);}.cls-50{fill:url(#linear-gradient-20);}.cls-51{fill:url(#linear-gradient-21);}.cls-52{fill:url(#linear-gradient-22);}.cls-53{fill:url(#linear-gradient-23);}.cls-54{fill:url(#linear-gradient-24);}.cls-55{fill:url(#linear-gradient-25);}.cls-56{fill:url(#linear-gradient-26);}.cls-57{fill:url(#linear-gradient-27);}.cls-58{fill:url(#linear-gradient-28);}.cls-59{fill:url(#linear-gradient-29);}.cls-60{fill:url(#linear-gradient-30);}.cls-61{fill:url(#linear-gradient-31);}.cls-62{fill:url(#linear-gradient-32);}.cls-63{fill:url(#linear-gradient-33);}.cls-64{fill:url(#linear-gradient-34);}.cls-65{fill:url(#linear-gradient-35);}.cls-66{fill:url(#linear-gradient-36);}.cls-67{fill:url(#linear-gradient-37);}.cls-68{fill:url(#linear-gradient-38);}.cls-69{fill:url(#linear-gradient-39);}.cls-70{fill:url(#linear-gradient-40);}.cls-71{fill:url(#linear-gradient-41);}.cls-72{fill:url(#linear-gradient-42);}.cls-73{fill:url(#linear-gradient-43);}.cls-74{fill:url(#linear-gradient-44);}.cls-75{fill:url(#linear-gradient-45);}.cls-76{fill:url(#linear-gradient-46);}.cls-77{fill:url(#linear-gradient-47);}.cls-78{fill:url(#linear-gradient-48);}.cls-79{fill:url(#名称未設定グラデーション_5);}.cls-80{fill:url(#radial-gradient-18);}.cls-81{stroke:#2d7300;stroke-linecap:round;stroke-linejoin:round;stroke-width:0.55px;}.cls-82,.cls-83{stroke-miterlimit:10;stroke-width:0.5px;}.cls-83{stroke:#767676;}</style><linearGradient id="linear-gradient" x1="223.34" y1="190.06" x2="186.09" y2="148.81" gradientUnits="userSpaceOnUse"><stop offset="0" stop-color="#001733"/><stop offset="1" stop-color="#193e67"/></linearGradient><radialGradient id="radial-gradient" cx="161.27" cy="64.96" r="27.64" gradientTransform="translate(-1.89) scale(1 0.99)" gradientUnits="userSpaceOnUse"><stop offset="0" stop-color="#452609"/><stop offset="0.36" stop-color="#331200"/><stop offset="1" stop-color="#240f00"/></radialGradient><linearGradient id="linear-gradient-2" x1="151.2" y1="141.59" x2="151.2" y2="172.92" gradientTransform="translate(-1.28 -21.58) rotate(1)" gradientUnits="userSpaceOnUse"><stop offset="0" stop-color="#c5c5c5"/><stop offset="0.04" stop-color="#cacaca"/><stop offset="0.24" stop-color="#e1e1e1"/><stop offset="0.46" stop-color="#f2f2f2"/><stop offset="0.69" stop-color="#fcfcfc"/><stop offset="1" stop-color="#fff"/></linearGradient><linearGradient id="linear-gradient-3" x1="150.04" y1="101.09" x2="150.04" y2="140.59" gradientUnits="userSpaceOnUse"><stop offset="0" stop-color="#e9b373"/><stop offset="0.57" stop-color="#f5d0b5"/><stop offset="1" stop-color="#f6e2d0"/></linearGradient><linearGradient id="linear-gradient-4" x1="154.77" y1="131.95" x2="154.77" y2="154.28" gradientTransform="translate(-1.28 -21.58) rotate(1)" gradientUnits="userSpaceOnUse"><stop offset="0" stop-color="#c5c5c5"/><stop offset="0.08" stop-color="#d5d5d5"/><stop offset="0.23" stop-color="#e7e7e7"/><stop offset="0.39" stop-color="#f5f5f5"/><stop offset="0.6" stop-color="#fdfdfd"/><stop offset="1" stop-color="#fff"/></linearGradient><linearGradient id="linear-gradient-5" x1="152.7" y1="210.86" x2="204.49" y2="210.86" gradientTransform="translate(-1.28 -21.58) rotate(1)" xlink:href="#linear-gradient"/><linearGradient id="linear-gradient-6" x1="113.36" y1="214.32" x2="167.35" y2="214.32" gradientTransform="translate(-1.28 -21.58) rotate(1)" xlink:href="#linear-gradient"/><linearGradient id="linear-gradient-7" x1="191.08" y1="274.06" x2="184.02" y2="245.47" gradientTransform="translate(-1.28 -21.58) rotate(1)" xlink:href="#linear-gradient"/><linearGradient id="linear-gradient-8" x1="132.27" y1="276.8" x2="141.92" y2="243.9" gradientTransform="translate(-1.28 -21.58) rotate(1)" xlink:href="#linear-gradient"/><linearGradient id="linear-gradient-9" x1="288.31" y1="319.9" x2="288.31" y2="301.78" gradientTransform="matrix(0.86, 0.16, -0.18, 0.98, -4.32, -273.65)" gradientUnits="userSpaceOnUse"><stop offset="0" stop-color="#f1b874"/><stop offset="0.57" stop-color="#fad4b8"/><stop offset="1" stop-color="#f9e5d2"/></linearGradient><linearGradient id="linear-gradient-10" x1="-84.35" y1="-185.61" x2="-84.35" y2="-203.74" gradientTransform="translate(237.81 255.09) rotate(-10.11)" xlink:href="#linear-gradient-9"/><radialGradient id="radial-gradient-2" cx="156.45" cy="67.61" r="37.22" gradientTransform="translate(-1.89) scale(1 0.99)" gradientUnits="userSpaceOnUse"><stop offset="0" stop-color="#f6e2d0"/><stop offset="1" stop-color="#f5d0b5"/></radialGradient><radialGradient id="radial-gradient-3" cx="240.89" cy="85.74" r="8.13" gradientTransform="translate(-70.87) scale(1.03 0.99)" gradientUnits="userSpaceOnUse"><stop offset="0" stop-color="#ffe8d6"/><stop offset="1" stop-color="#fff"/></radialGradient><radialGradient id="radial-gradient-5" cx="201.63" cy="85.74" r="8.13" xlink:href="#radial-gradient-3"/><radialGradient id="radial-gradient-7" cx="150.66" cy="29.39" r="61.23" gradientTransform="translate(-1.89) scale(1 0.99)" gradientUnits="userSpaceOnUse"><stop offset="0" stop-color="#4f3217"/><stop offset="0.36" stop-color="#402110"/><stop offset="1" stop-color="#240f00"/></radialGradient><radialGradient id="radial-gradient-8" cx="6954.93" cy="-165.34" r="6.43" gradientTransform="matrix(-1.21, 0, 0, 1.22, 8577.12, 273.45)" gradientUnits="userSpaceOnUse"><stop offset="0" stop-color="#6f4c37"/><stop offset="1"/></radialGradient><radialGradient id="radial-gradient-9" cx="79.99" cy="-126.18" r="8.57" gradientTransform="translate(98.38 219.16) scale(0.93 1.17)" xlink:href="#radial-gradient-8"/><radialGradient id="radial-gradient-10" cx="2642.82" cy="-165.02" r="6.43" gradientTransform="matrix(-1.21, 0, 0, 1.22, 3338.81, 273.45)" xlink:href="#radial-gradient-8"/><radialGradient id="radial-gradient-11" cx="2977.14" cy="-125.85" r="8.57" gradientTransform="matrix(-0.93, 0, 0, 1.17, 2918.17, 219.16)" xlink:href="#radial-gradient-8"/><radialGradient id="radial-gradient-12" cx="200" cy="42.44" r="29.4" xlink:href="#radial-gradient"/><radialGradient id="radial-gradient-13" cx="130.65" cy="43.14" r="31.25" xlink:href="#radial-gradient"/><radialGradient id="radial-gradient-14" cx="197.64" cy="65.89" r="18.17" xlink:href="#radial-gradient"/><linearGradient id="linear-gradient-11" x1="142.55" y1="264.77" x2="125.22" y2="164.53" gradientTransform="translate(-1.28 -21.58) rotate(1)" xlink:href="#linear-gradient"/><linearGradient id="linear-gradient-12" x1="167.06" y1="229.85" x2="160.61" y2="227.44" gradientTransform="translate(-2.92 2.42) rotate(-0.11)" xlink:href="#linear-gradient-2"/><radialGradient id="radial-gradient-15" cx="165.11" cy="236.84" r="18.72" gradientTransform="matrix(0.97, 0, 0, 0.99, 22.68, 2.57)" xlink:href="#radial-gradient-2"/><linearGradient id="linear-gradient-13" x1="180.81" y1="179.87" x2="179.38" y2="174.09" gradientTransform="translate(-1.28 -21.58) rotate(1)" xlink:href="#linear-gradient"/><linearGradient id="linear-gradient-14" x1="182.82" y1="174.88" x2="128.63" y2="151.83" gradientTransform="translate(-1.28 -21.58) rotate(1)" xlink:href="#linear-gradient"/><linearGradient id="linear-gradient-15" x1="131.55" y1="178.53" x2="201.58" y2="147.04" gradientTransform="translate(-1.28 -21.58) rotate(1)" xlink:href="#linear-gradient"/><radialGradient id="radial-gradient-16" cx="261.54" cy="287.79" r="53.97" xlink:href="#radial-gradient-2"/><radialGradient id="radial-gradient-17" cx="301.19" cy="224.69" r="34.9" xlink:href="#radial-gradient-2"/><linearGradient id="linear-gradient-16" x1="327.9" y1="243.59" x2="340.44" y2="243.59" gradientTransform="matrix(1, 0, 0, 1, 0, 0)" xlink:href="#linear-gradient-2"/><linearGradient id="linear-gradient-17" x1="149.14" y1="495.7" x2="173.1" y2="495.7" gradientTransform="translate(132.86 -236.43) rotate(3.27)" xlink:href="#linear-gradient-2"/><linearGradient id="linear-gradient-18" x1="369.65" y1="-132.51" x2="369.66" y2="-132.51" gradientTransform="translate(-159.04 373.62) rotate(-5)" gradientUnits="userSpaceOnUse"><stop offset="0" stop-color="#fff"/><stop offset="1"/></linearGradient><linearGradient id="linear-gradient-19" x1="371.2" y1="-132.51" x2="371.2" y2="-132.51" xlink:href="#linear-gradient-18"/><linearGradient id="linear-gradient-20" x1="372.74" y1="-132.51" x2="372.74" y2="-132.51" xlink:href="#linear-gradient-18"/><linearGradient id="linear-gradient-21" x1="374.28" y1="-132.51" x2="374.28" y2="-132.51" xlink:href="#linear-gradient-18"/><linearGradient id="linear-gradient-22" x1="375.83" y1="-132.51" x2="375.83" y2="-132.51" xlink:href="#linear-gradient-18"/><linearGradient id="linear-gradient-23" x1="377.37" y1="-132.51" x2="377.37" y2="-132.51" xlink:href="#linear-gradient-18"/><linearGradient id="linear-gradient-24" x1="378.91" y1="-132.51" x2="378.91" y2="-132.51" xlink:href="#linear-gradient-18"/><linearGradient id="linear-gradient-25" x1="380.45" y1="-132.5" x2="380.45" y2="-132.5" xlink:href="#linear-gradient-18"/><linearGradient id="linear-gradient-26" x1="381.99" y1="-132.5" x2="382" y2="-132.5" xlink:href="#linear-gradient-18"/><linearGradient id="linear-gradient-27" x1="383.54" y1="-132.5" x2="383.54" y2="-132.5" xlink:href="#linear-gradient-18"/><linearGradient id="linear-gradient-28" x1="385.08" y1="-132.5" x2="385.08" y2="-132.5" xlink:href="#linear-gradient-18"/><linearGradient id="linear-gradient-29" x1="386.62" y1="-132.5" x2="386.63" y2="-132.5" xlink:href="#linear-gradient-18"/><linearGradient id="linear-gradient-30" x1="388.17" y1="-132.5" x2="388.17" y2="-132.5" xlink:href="#linear-gradient-18"/><linearGradient id="linear-gradient-31" x1="389.71" y1="-132.5" x2="389.71" y2="-132.5" xlink:href="#linear-gradient-18"/><linearGradient id="linear-gradient-32" x1="391.25" y1="-132.5" x2="391.25" y2="-132.5" xlink:href="#linear-gradient-18"/><linearGradient id="linear-gradient-33" x1="392.8" y1="-132.5" x2="392.8" y2="-132.5" xlink:href="#linear-gradient-18"/><linearGradient id="linear-gradient-34" x1="394.34" y1="-132.5" x2="394.34" y2="-132.5" xlink:href="#linear-gradient-18"/><linearGradient id="linear-gradient-35" x1="395.88" y1="-132.5" x2="395.88" y2="-132.5" xlink:href="#linear-gradient-18"/><linearGradient id="linear-gradient-36" x1="397.43" y1="-132.5" x2="397.43" y2="-132.5" xlink:href="#linear-gradient-18"/><linearGradient id="linear-gradient-37" x1="398.97" y1="-132.5" x2="398.97" y2="-132.5" xlink:href="#linear-gradient-18"/><linearGradient id="linear-gradient-38" x1="400.51" y1="-132.5" x2="400.51" y2="-132.5" xlink:href="#linear-gradient-18"/><linearGradient id="linear-gradient-39" x1="402.05" y1="-132.5" x2="402.05" y2="-132.5" xlink:href="#linear-gradient-18"/><linearGradient id="linear-gradient-40" x1="403.59" y1="-132.5" x2="403.6" y2="-132.5" xlink:href="#linear-gradient-18"/><linearGradient id="linear-gradient-41" x1="405.14" y1="-132.5" x2="405.14" y2="-132.5" xlink:href="#linear-gradient-18"/><linearGradient id="linear-gradient-42" x1="406.68" y1="-132.49" x2="406.68" y2="-132.49" xlink:href="#linear-gradient-18"/><linearGradient id="linear-gradient-43" x1="409.77" y1="-132.49" x2="409.77" y2="-132.49" xlink:href="#linear-gradient-18"/><linearGradient id="linear-gradient-44" x1="408.22" y1="-132.49" x2="408.22" y2="-132.49" xlink:href="#linear-gradient-18"/><linearGradient id="linear-gradient-45" x1="411.31" y1="-132.49" x2="411.31" y2="-132.49" xlink:href="#linear-gradient-18"/><linearGradient id="linear-gradient-46" x1="412.85" y1="-132.49" x2="412.85" y2="-132.49" xlink:href="#linear-gradient-18"/><linearGradient id="linear-gradient-47" x1="414.4" y1="-132.49" x2="414.4" y2="-132.49" xlink:href="#linear-gradient-18"/><linearGradient id="linear-gradient-48" x1="415.94" y1="-132.49" x2="415.94" y2="-132.49" xlink:href="#linear-gradient-18"/><linearGradient id="名称未設定グラデーション_5" x1="392.88" y1="-158.55" x2="392.88" y2="-131.27" gradientTransform="translate(-159.04 373.62) rotate(-5)" gradientUnits="userSpaceOnUse"><stop offset="0" stop-color="#fff"/><stop offset="1" stop-color="#d2f38e"/></linearGradient><radialGradient id="radial-gradient-18" cx="639.02" cy="-823.51" r="14.02" gradientTransform="matrix(0.98, -0.17, 0.15, 0.85, -243.63, 1015.94)" xlink:href="#radial-gradient-2"/></defs><title>アートボード 106 のコピー</title><g class="cls-1"><g id="レイヤー_1" data-name="レイヤー 1"><path class="cls-2" d="M179.93,121.36a8.53,8.53,0,0,1,5,2.25c2.07,2.06,28.33,43.72,29.72,46.13s10.36,21,10.36,21l-12.09,4.48s-2.42,5.85-3.8,2.75-23.5-32-23.5-32Z"/><path class="cls-3" d="M117.36,81.26c0,5.62,18.34,25.31,23.53,28.54a27.11,27.11,0,0,1,27.55,0c5.19-3.23,23.17-20,23.17-25.61,0-9.72-24.62-38.11-36.94-38.11s-35.95,4.51-37.86,35.73"/><polygon class="cls-4" points="127.55 119.19 155.26 115.53 174.53 120 175.42 148.25 155.66 191.29 118.85 129.25 127.55 119.19"/><path class="cls-5" d="M135,79.64s12.09,24.26,7.55,32.9-10,6.72-10,6.72a32.27,32.27,0,0,0,9.81,6.19c3.51,1.52,8.39,4.4,12.37,4.47,3.53.07,6.27-2.44,7.66-4.58,2.94-4.54,5.09-7.54,5.09-7.54s-5.12-1.12-4.27-12.47c.23-3.18-1.12-1.15-.71-8C163.36,83.13,135,79.64,135,79.64Z"/><path class="cls-6" d="M140.09,113.21s12.89,14.11,14.27,14.28,10.22-11.45,11.26-11.77,8.92,4.28,8.92,4.28l-12.08,18.69-8.11-10.45-7.28,11.09-19.52-20.14Z"/><path class="cls-7" d="M172.6,118.48l7.33,2.88s11,29.1,10.69,47c-.15,8.61-7.2,14.33-6.72,32.93.19,7.32,4.41,40.71,9.35,53.66,1.57,4.11,7.14,11.74,4,11.69-1.11,0-5.34-3-10.13-3.36-8.58-.62-15.47-.12-18.57-.84-4.82-1.12-21.14-55.46-21.09-58.56C147.59,198.38,172.6,118.48,172.6,118.48Z"/><path class="cls-8" d="M132.26,116.69S144.38,146,153,167.83c4.94,12.59,8.9,19,8.9,22.68v29.61c0,6-6.17,36.87-6.34,38.31s-2.44,5.9-5,6.46c-1.25.28-12.72.85-21.38,2.73a169.37,169.37,0,0,0-17.81,5.2c-2.43.64-5.89.93-3.69-6.61s11.42-42.62,11.83-66-5.11-73.7-3.71-74.77C119.31,122.72,132.26,116.69,132.26,116.69Z"/><path class="cls-9" d="M170.44,225.77c0,1.72,4.12,20.9,4.78,22.81s1.51,2.43,2.9,2.46,10,1,11.38,1.4c.85.23,2.17.47,3.05.61a184.32,184.32,0,0,1-7.81-28.94c-2.17-.09-12.3-.54-13.23-.56S170.47,224.05,170.44,225.77Z"/><path class="cls-10" d="M121.7,236.28c1-6.31,1.76-11.67,1.76-11.67l21.78-.48s-2.62,21.3-3.18,23.7a3,3,0,0,1-3.33,2.69c-1.21,0-12.1.31-14.36,1s-5,1-5-.77C119.39,249.84,120.68,242.59,121.7,236.28Z"/><path class="cls-11" d="M-13.16,250.7,401.25,179s1.9,175.84,0,177.68S-13.16,369.3-13.16,369.3Z"/><path class="cls-12" d="M180.52,76.63c-1,5.48,1.59,10.54,5.83,11.32s8.5-3,9.51-8.49S194.27,68.91,190,68.13s-8.5,3-9.51,8.5"/><path class="cls-13" d="M128.1,76.91c1,5.48-1.58,10.51-5.72,11.25s-8.29-3.11-9.27-8.59,1.58-10.52,5.72-11.25,8.29,3.11,9.27,8.59"/><path class="cls-14" d="M120.27,63.18c0,12.23,3.17,24.68,9.26,31.59,7.59,8.61,22.24,12.37,28.69,12.37S176.42,100.31,182,93s5.85-17.56,5.85-29.79c0-25.43-11.54-36.06-33.51-36.06s-34,10.63-34,36.06"/><path class="cls-15" d="M162.34,88.85a1,1,0,0,0,.45-.11l2.44-1.32-2.15-6.14c-.1-.39-.17-.85-.63-.77s0,.81.11,1.2l.73,5-1.41.76a.68.68,0,0,0-.27,1,.9.9,0,0,0,.73.34"/><rect class="cls-16" x="168.69" y="77.92" width="18.42" height="14.42"/><g class="cls-17"><path class="cls-18" d="M168.69,85.13c0,4,4.12,7.21,9.21,7.21s9.21-3.22,9.21-7.21-4.12-7.21-9.21-7.21-9.21,3.23-9.21,7.21"/></g><rect class="cls-16" x="168.69" y="77.92" width="18.42" height="14.42"/><g class="cls-17"><path class="cls-18" d="M168.69,85.13c0,4,4.12,7.21,9.21,7.21s9.21-3.22,9.21-7.21-4.12-7.21-9.21-7.21-9.21,3.23-9.21,7.21"/></g><rect class="cls-16" x="128.15" y="77.92" width="18.42" height="14.42"/><g class="cls-17"><path class="cls-19" d="M128.15,85.13c0,4,4.12,7.21,9.21,7.21s9.21-3.22,9.21-7.21-4.12-7.21-9.21-7.21-9.21,3.23-9.21,7.21"/></g><rect class="cls-16" x="128.15" y="77.92" width="18.42" height="14.42"/><g class="cls-17"><path class="cls-19" d="M128.15,85.13c0,4,4.12,7.21,9.21,7.21s9.21-3.22,9.21-7.21-4.12-7.21-9.21-7.21-9.21,3.23-9.21,7.21"/></g><path class="cls-20" d="M178.46,61.78c-4.17-.7-6.69.15-8.59,3.79a9.22,9.22,0,0,1,7.51-2.37,14.36,14.36,0,0,1,6.84,2.59,8,8,0,0,0-5.76-4"/><path class="cls-21" d="M151.44,94.09c2,2,4.38,4.78,8.53,4.78s3.5-2.8,7.13-4.78Z"/><path class="cls-22" d="M143.67,16.27c-18.49,5.67-32.36,17.86-37.22,40.37s4.18,31.77,12.39,38.7c9,7.57,20.4,7.08,20.4,7.08-9-2.81-14.7-15.72-12.4-27.58,2.6-13.4,8.84-22.25,21.89-29.78,10.42-6,23.09-8.05,23.09-8.05s28.93,21.52,7.6,55a25.43,25.43,0,0,0,8.6-9.26c-1.47,9-10,17.37-18.68,22.25,0,0,6.25-.87,14.46-7.8s19-18.18,14.93-40.84C195.26,37.19,188.82,30,182,24.3s-12.73-3.07-12.73-3.07-4.41-6.62-15.36-6.62a34.83,34.83,0,0,0-10.19,1.66"/><path class="cls-23" d="M179.81,74.94c0,2.51-1.58,4.54-3.51,4.54s-3.51-2-3.51-4.54,1.57-4.54,3.51-4.54,3.51,2,3.51,4.54"/><path class="cls-24" d="M174.87,71.17s4.56-2.13,6.85,4.77c0,0-.4-5.19-5.08-5.91s-5.09,4.1-5.09,4.1S172.93,71.17,174.87,71.17Z"/><path class="cls-20" d="M139.78,61.71c4.15-.84,6.69-.07,8.69,3.51a9.2,9.2,0,0,0-7.57-2.13,14.37,14.37,0,0,0-6.77,2.8,8.05,8.05,0,0,1,5.65-4.18"/><path class="cls-25" d="M146.36,75.33c0,2.51-1.58,4.54-3.51,4.54s-3.51-2-3.51-4.54,1.56-4.54,3.51-4.54,3.51,2,3.51,4.54"/><path class="cls-26" d="M143.69,71.56s-4.56-2.13-6.85,4.77c0,0,.4-5.19,5.09-5.91s5.08,4.1,5.08,4.1S145.64,71.56,143.69,71.56Z"/><path class="cls-27" d="M189.5,44.37S205,67.73,192.36,85.71C192.36,85.71,199.34,69.31,189.5,44.37Z"/><path class="cls-28" d="M117.08,93.32a32.58,32.58,0,0,1-2.49-5c-3.53-8.75-7.84-27.72,9.12-47.46,0,0-25.08,23-10.34,48.67Z"/><path class="cls-29" d="M188,82.79s3.84-3.38,3.84-19.66c0,0,4.11,17.89-6.38,26.65Z"/><path class="cls-30" d="M160.22,207.74a3.23,3.23,0,1,1-3.17-3.27A3.23,3.23,0,0,1,160.22,207.74Z"/><path class="cls-30" d="M160.21,190.25a3.22,3.22,0,1,1-3.16-3.27A3.21,3.21,0,0,1,160.21,190.25Z"/><path class="cls-31" d="M115.81,125.41s-4.17,1.3-6.35,7.12-3.39,12.75-5,43-2.59,42.65-1.94,45.41,3.7,5.58,8.86,7,44.33,10.69,45.48,11.05,5.27-4.84,6.38-9.41-.33-7.36-.33-7.36L121.23,210.8s.6-41.1.71-47.64S121.49,136.53,115.81,125.41Z"/><path class="cls-32" d="M161.53,223.27l4.92,1.42c.77.26-4.64,13.9-5.59,13.64a37.36,37.36,0,0,0-4.61-1.57C154.55,236.4,159.31,222.64,161.53,223.27Z"/><path class="cls-33" d="M170.61,227.47c1.13.23,9.34-1.06,11.14-1.06s7.09,1.59,9.57,2.84,7.72,4.77,9.41,5.46,4,2.49,2.12,3c-2.79.78-4,.7-6.9-.44s-3.5-2.47-6.43-2.47-.33,2.76,1.7,4,3.73,3.15,6,3.72,8,2.85,9.13,3.77,1.47,2.31-.9,2.41c-2.92.12-8.22-1.36-9.57-1.47s-3.71-.91-9.57-2.5-10.47-2.61-12.61-3.64-5-3.32-8-4.23-3.62-1.15-4.73-1.54,2.73-9.75,4-9.42C165.76,226.13,169.49,227.24,170.61,227.47Z"/><polygon class="cls-34" points="168.72 156.01 183.42 155.58 183.69 159.54 167.62 159.95 168.72 156.01"/><path class="cls-35" d="M173.69,148.35c.73-2,.74-2.39.06-2.92s-3.07-2.47-4.61-3.7-.82-2.42-.13-2.41,4.34-.79,5.38-.94,2.08-.65,1.94-2.21c-.13-1.31-.32-12.86-.37-16.37l-3.36-1.32s-11.6,37.07-19,62.45l.38-.21C164.94,174.54,173,150.41,173.69,148.35Z"/><path class="cls-36" d="M132.26,116.69,129.59,118c-.05,2.59-.55,17-.78,18.42-.26,1.6.48,2.08,3.24,2.3s7.07.87,7.74,1.8-4.86,5-6.21,6.31-.44,2,.28,3.57,15.88,32.86,26.62,34.89c-1.08-2.76-3-8.28-7.37-18.61S132.26,116.69,132.26,116.69Z"/><path class="cls-37" d="M256.12,271.64c2.66-6.24,6.91-15.84,8.29-18.82s2.62-11.89,3.46-13.77c1.84-4.13,9.21-11.25,12.44-12.63s9.91.23,10.83,1.61,4.6,2.76,4.6,4.59-8.29,9.41-7.83,12.85,13.36-8.95,13.36-5.28-1.15,4.37-3.22,5.51-3.69,2.76-7.37,6-10.83,3.67-12,6.2-6.45,17.44-6.45,17.44Z"/><path class="cls-38" d="M308.88,224.82c-2.77-.46-16.59-1.72-19.35-1.72a69.93,69.93,0,0,0-12.22,1.72c-2.26.48-3,1.15-3.45,2.06-2.53.92-2.3,3.68-.23,4.36.46,2.07,1.61,2.71,3.45,3.22s10,.7,12.79,1.2,7.26,4.41,7.26,4.41a6.85,6.85,0,0,1-5.53.51c-3.23-1-9.22-1.71-10.14.3s3.92,2.76,9,3.91c3.72.84,6,1.14,9.9,2.06a34.22,34.22,0,0,0,12,.27c4.09-.5,6.69-2.16,9.16-1.5,4.6,1.23,12,3.53,12,3.53l4.14-13.09s-14.51-3.56-15.89-4.42S311.64,225.28,308.88,224.82Z"/><path class="cls-39" d="M328,251.21s-1.39-14.1,6.45-17.77l6,.81s-4.84,15-2.54,19.49Z"/><path class="cls-40" d="M332.37,254.65s-2.53-13.05,6.22-22l47.92,6.53,39.68,13.7-10,26.8-34.08-16.5Z"/><path class="cls-41" d="M253.28,270.82l5.15-9.36s4.78-2.72,11.95.91c5.53,2.8,7,7.06,7,7.06l-1.72,5.89S260.42,267.09,253.28,270.82Z"/><path class="cls-40" d="M254.06,265.35s4.59-3.51,14.73.61c8.57,3.47,8.93,9.24,8.93,9.24l-9.26,28.67-28.31-5.29Z"/><path class="cls-42" d="M273.63,231.24a2.43,2.43,0,0,1,2.07-.91c1.5,0,10.71-.58,11.87-.46a25.18,25.18,0,0,1,4.72,1c1.15.34,3.08,1.11,3.8,1.38.92.34,1.37-.86.12-1.15-2-.46-5-1.72-6.8-1.84s-13.59.46-14.28.58a7.63,7.63,0,0,0-2.08,1.15Z"/><path class="cls-42" d="M273.86,226.88s12.33-1,15.2-1.14,5.21,1.15,7.49,1.6c.58.12.81-.69-.8-1a52.75,52.75,0,0,0-6-1.26c-1.16,0-15.78,1.37-15.78,1.37Z"/><path class="cls-43" d="M264.23,213.18a3.75,3.75,0,0,1-3.42,4.06l-68.67,6a3.75,3.75,0,0,1-4.07-3.4l-4.41-50.17a3.75,3.75,0,0,1,3.42-4.06l68.67-6a3.76,3.76,0,0,1,4.07,3.41Z"/><path class="cls-44" d="M264.18,214.48a3.76,3.76,0,0,1-3.42,4.06l-68.67,6a3.77,3.77,0,0,1-4.08-3.41L183.61,171a3.75,3.75,0,0,1,3.42-4.06l68.67-6a3.75,3.75,0,0,1,4.07,3.4Z"/><path class="cls-45" d="M193.26,220a.88.88,0,0,1-1-.8l-4.13-47.06a.88.88,0,0,1,.81-1l65.54-5.72a.89.89,0,0,1,1,.81l4.13,47.05a.88.88,0,0,1-.8,1Z"/><path class="cls-46" d="M260.33,192.22a.63.63,0,0,1-.68-.56l-.35-4.08a.62.62,0,1,1,1.24-.11l.36,4.08a.62.62,0,0,1-.57.67Z"/><polyline class="cls-47" points="195.45 184.35 197.63 209.16 243.74 205.14"/><path d="M196.19,209.46c0-.23.06-.35.18-.36s.21.1.23.32,0,.35-.18.36S196.21,209.68,196.19,209.46Zm.34,0c0-.17-.06-.28-.16-.27s-.12.12-.11.29.07.28.16.27S196.54,209.58,196.53,209.43Z"/><path d="M195.33,206.3l-.39,0v0l.05-.07c.15-.18.22-.28.21-.39s0-.13-.14-.12a.21.21,0,0,0-.13.07l0-.05a.26.26,0,0,1,.17-.09.18.18,0,0,1,.2.18c0,.12-.07.23-.19.38l-.05.06h0l.29,0Z"/><path d="M195.39,206c0-.23.06-.35.18-.36s.22.1.24.32-.06.35-.19.36S195.41,206.18,195.39,206Zm.34,0c0-.17-.06-.28-.15-.27s-.13.12-.12.29.08.28.16.27S195.74,206.09,195.73,205.93Z"/><path d="M195.88,205.92c0-.23.06-.35.18-.36s.21.1.23.32,0,.35-.18.36S195.9,206.14,195.88,205.92Zm.34,0c0-.17-.06-.28-.16-.27s-.13.11-.11.29.07.28.16.27S196.23,206,196.22,205.89Z"/><path d="M195,202.76h-.07v-.19l-.29,0v-.05l.25-.45h.07l0,.42H195v.06h-.09Zm-.31-.22h.22l0-.24s0-.07,0-.1h0a.69.69,0,0,0,0,.1l-.15.25Z"/><path d="M195.08,202.42c0-.23.06-.35.18-.36s.22.1.24.32-.06.35-.19.36S195.1,202.64,195.08,202.42Zm.34,0c0-.17-.06-.28-.16-.27s-.12.11-.11.29.08.28.16.27S195.43,202.54,195.42,202.39Z"/><path d="M195.56,202.38c0-.23.07-.35.19-.36s.21.1.23.31,0,.36-.18.37S195.58,202.6,195.56,202.38Zm.34,0c0-.16-.06-.27-.15-.26s-.13.11-.11.29.07.28.16.27S195.92,202.5,195.9,202.34Z"/><path d="M194.35,198.9a.21.21,0,0,1,.15-.1.19.19,0,0,1,.21.19.22.22,0,0,1-.19.25c-.12,0-.22-.09-.24-.26a.38.38,0,0,1,.27-.42h.06v.06a.28.28,0,0,0-.27.29Zm.28.11c0-.11-.07-.16-.15-.15a.13.13,0,0,0-.12.13c0,.12.07.2.16.2S194.64,199.1,194.63,199Z"/><path d="M194.77,198.88c0-.23.06-.35.18-.36s.21.1.23.31-.05.36-.18.37S194.79,199.1,194.77,198.88Zm.34,0c0-.16-.07-.27-.16-.26s-.12.11-.11.29.07.28.16.27S195.12,199,195.11,198.84Z"/><path d="M195.25,198.84c0-.23.07-.35.19-.36s.21.1.23.31,0,.36-.18.37S195.27,199.06,195.25,198.84Zm.35,0c0-.16-.07-.27-.16-.26s-.13.11-.11.29.07.28.15.27S195.61,199,195.6,198.8Z"/><path d="M194.1,195.35a.16.16,0,0,1-.12-.14.18.18,0,0,1,.17-.19.17.17,0,0,1,.2.15.18.18,0,0,1-.1.16h0a.2.2,0,0,1,.15.17.19.19,0,0,1-.19.2.18.18,0,0,1-.11-.35Zm.22.16c0-.08-.06-.12-.15-.14a.16.16,0,0,0-.11.16.13.13,0,0,0,.14.12A.12.12,0,0,0,194.32,195.51Zm-.27-.31a.16.16,0,0,0,.13.12.14.14,0,0,0,.09-.14.11.11,0,0,0-.12-.11A.12.12,0,0,0,194.05,195.2Z"/><path d="M194.46,195.34c0-.23.06-.35.18-.36s.21.1.23.31-.05.36-.18.37S194.48,195.56,194.46,195.34Zm.34,0c0-.16-.07-.27-.16-.26s-.12.11-.11.29.07.28.16.27S194.81,195.46,194.8,195.3Z"/><path d="M194.94,195.3c0-.24.06-.35.19-.36s.21.09.23.31-.05.36-.19.37S195,195.52,194.94,195.3Zm.34,0c0-.16-.06-.27-.15-.26s-.13.11-.11.28.07.28.15.28S195.3,195.42,195.28,195.26Z"/><path d="M193.39,192.19l0-.59h0l-.1.07,0,0,.12-.09h.07l.06.66Z"/><path d="M193.66,191.84c0-.23.06-.35.18-.36s.21.1.23.32,0,.35-.18.36S193.68,192.06,193.66,191.84Zm.34,0c0-.17-.06-.28-.16-.27s-.12.11-.11.29.08.28.16.27S194,192,194,191.81Z"/><path d="M194.15,191.8c0-.23.06-.35.18-.36s.21.1.23.31-.05.36-.18.37S194.16,192,194.15,191.8Zm.34,0c0-.16-.07-.27-.16-.26s-.13.11-.11.29.07.27.16.27S194.5,191.92,194.49,191.76Z"/><path d="M194.63,191.75c0-.23.06-.35.19-.36s.21.1.23.32-.05.35-.19.37S194.65,192,194.63,191.75Zm.34,0c0-.16-.06-.28-.15-.27s-.13.12-.11.29.07.28.15.27S195,191.88,195,191.72Z"/><path d="M193.08,188.65l-.05-.59h0l-.1.07,0,0L193,188h.07l.05.66Z"/><path d="M193.77,188.59l-.39,0v0l.06-.07c.14-.18.21-.28.2-.39a.11.11,0,0,0-.13-.12.16.16,0,0,0-.13.07l0,0a.21.21,0,0,1,.17-.08.18.18,0,0,1,.2.17c0,.12-.07.23-.2.39l0,.05h0l.29,0Z"/><path d="M193.84,188.26c0-.23,0-.36.18-.37s.21.1.23.32-.05.35-.18.37S193.85,188.47,193.84,188.26Zm.34,0c0-.16-.07-.28-.16-.27s-.13.12-.11.29.07.29.16.28S194.19,188.38,194.18,188.22Z"/><path d="M194.32,188.21c0-.23.06-.35.18-.36s.22.1.24.32-.05.35-.19.36S194.34,188.43,194.32,188.21Zm.34,0c0-.17-.06-.28-.15-.27s-.13.12-.11.29.07.28.15.27S194.68,188.34,194.66,188.18Z"/><path d="M192.77,185.11l-.05-.59h0l-.1.07,0-.05.13-.09h.07l.05.66Z"/><path d="M193.41,185.05h-.07l0-.18-.29,0v-.05l.24-.45h.08l0,.41h.09v.05h-.09Zm-.31-.21.22,0,0-.23a.45.45,0,0,1,0-.11h0a.93.93,0,0,0,0,.1l-.14.26Z"/><path d="M193.52,184.71c0-.23.06-.35.19-.36s.21.1.23.32-.05.35-.18.36S193.54,184.93,193.52,184.71Zm.34,0c0-.17-.06-.28-.15-.27s-.13.12-.11.29.07.28.15.27S193.88,184.84,193.86,184.68Z"/><path d="M194,184.67c0-.23.06-.35.18-.36s.22.1.23.31,0,.36-.18.37S194,184.89,194,184.67Zm.34,0c0-.17-.06-.28-.16-.27s-.12.12-.11.29.08.28.16.27S194.36,184.79,194.35,184.64Z"/><line class="cls-47" x1="195.13" y1="184.55" x2="241.58" y2="180.5"/><line class="cls-47" x1="195.44" y1="188.06" x2="241.89" y2="184.02"/><line class="cls-47" x1="195.75" y1="191.59" x2="242.2" y2="187.54"/><line class="cls-47" x1="196.06" y1="195.11" x2="242.5" y2="191.06"/><line class="cls-47" x1="196.37" y1="198.63" x2="242.81" y2="194.58"/><line class="cls-47" x1="196.68" y1="202.15" x2="243.12" y2="198.1"/><line class="cls-47" x1="196.99" y1="205.67" x2="243.43" y2="201.62"/><line class="cls-47" x1="197.29" y1="209.19" x2="243.74" y2="205.14"/><line class="cls-48" x1="197.64" y1="209.2" x2="197.67" y2="209.55"/><line class="cls-49" x1="199.17" y1="209.07" x2="199.2" y2="209.41"/><line class="cls-50" x1="200.71" y1="208.93" x2="200.74" y2="209.28"/><line class="cls-51" x1="202.25" y1="208.8" x2="202.28" y2="209.15"/><line class="cls-52" x1="203.78" y1="208.67" x2="203.81" y2="209.01"/><line class="cls-53" x1="205.32" y1="208.53" x2="205.35" y2="208.88"/><line class="cls-54" x1="206.86" y1="208.4" x2="206.89" y2="208.75"/><line class="cls-55" x1="208.39" y1="208.27" x2="208.43" y2="208.61"/><line class="cls-56" x1="209.93" y1="208.13" x2="209.96" y2="208.48"/><line class="cls-57" x1="211.47" y1="208" x2="211.5" y2="208.34"/><line class="cls-58" x1="213.01" y1="207.86" x2="213.04" y2="208.21"/><line class="cls-59" x1="214.54" y1="207.73" x2="214.57" y2="208.08"/><line class="cls-60" x1="216.08" y1="207.6" x2="216.11" y2="207.94"/><line class="cls-61" x1="217.62" y1="207.46" x2="217.65" y2="207.81"/><line class="cls-62" x1="219.15" y1="207.33" x2="219.18" y2="207.67"/><line class="cls-63" x1="220.69" y1="207.19" x2="220.72" y2="207.54"/><line class="cls-64" x1="222.23" y1="207.06" x2="222.26" y2="207.41"/><line class="cls-65" x1="223.76" y1="206.93" x2="223.79" y2="207.27"/><line class="cls-66" x1="225.3" y1="206.79" x2="225.33" y2="207.14"/><line class="cls-67" x1="226.84" y1="206.66" x2="226.87" y2="207"/><line class="cls-68" x1="228.38" y1="206.52" x2="228.41" y2="206.87"/><line class="cls-69" x1="229.91" y1="206.39" x2="229.94" y2="206.74"/><line class="cls-70" x1="231.45" y1="206.26" x2="231.48" y2="206.6"/><line class="cls-71" x1="232.99" y1="206.12" x2="233.02" y2="206.47"/><line class="cls-72" x1="234.52" y1="205.99" x2="234.55" y2="206.34"/><line class="cls-73" x1="237.6" y1="205.72" x2="237.63" y2="206.07"/><line class="cls-74" x1="236.06" y1="205.85" x2="236.09" y2="206.2"/><line class="cls-75" x1="239.13" y1="205.58" x2="239.16" y2="205.93"/><line class="cls-76" x1="240.67" y1="205.45" x2="240.7" y2="205.8"/><line class="cls-77" x1="242.21" y1="205.32" x2="242.24" y2="205.66"/><line class="cls-78" x1="243.75" y1="205.18" x2="243.77" y2="205.53"/><polygon class="cls-79" points="243.03 205.2 198.52 209.08 197.74 200.2 241.9 193.22 243.03 205.2"/><path class="cls-80" d="M262.35,193.55a39,39,0,0,1-4.53,6.24c-2.71,3-6.78,6.22-8.4,8-1.41,1.56-3.62,5.54.92,4,0,0-3.77,2.3-2.42,4.06,1.06,1.37,2.93,0,2.93,0s2.89.94,4.35-.22c1.54.45,2.29.63,5,0a30.59,30.59,0,0,0,8.84-4.28c2-1.49,3.06-4.22,3.34-4.76.62-1.2.14-2.75.14-5.11s-1.22-4.51-2.9-6.93-7.52-4.71-7.52-4.71Z"/><path class="cls-42" d="M250,211.32s5.34-3.3,8.94-6.11a35,35,0,0,0,3.87-4.12c1.77-1.77,3.11-1.28,1.51.27a49,49,0,0,1-4.88,4.31c-4.1,3.05-9.14,6.14-9.14,6.14Z"/><path class="cls-42" d="M250.85,215.9s8.94-6.11,10.07-6.85a35.16,35.16,0,0,0,4.36-3.67c1.6-1.55,2.71-1.21,1.1.35a45.06,45.06,0,0,1-6.77,5.36l-7.71,4.81Z"/><path class="cls-42" d="M255.81,215.57s1.74-.61,2.31-.92c1.95-1.06,6.42-3.5,7.42-4.24,1.29-.95,1.92-2.15,2.07-1.27s-3.61,3.18-4.79,3.57-6.37,2.93-6.37,2.93Z"/><path class="cls-81" d="M197.54,193.48l2.07-.69,2.77-2.76,2.07-.69,1.39.69,2.76-1.37h2.76a7,7,0,0,1,2.08-.69,10.11,10.11,0,0,0,2.76-1.38l2.77-.69,2.07.69,2.76-1.38,4.15-.69,2.77-.68h2.07l2.07-1.38,1.38.69,2.08-1.38,2.76-.69"/><line class="cls-82" x1="200.73" y1="210.01" x2="201" y2="213.74"/><line class="cls-82" x1="204.02" y1="209.73" x2="204.3" y2="213.47"/><line class="cls-82" x1="207.04" y1="209.64" x2="207.32" y2="213.38"/><line class="cls-82" x1="210.15" y1="209.19" x2="210.43" y2="212.92"/><line class="cls-82" x1="213.08" y1="209" x2="213.36" y2="212.74"/><line class="cls-82" x1="216.19" y1="208.64" x2="216.47" y2="212.38"/><line class="cls-82" x1="219.21" y1="208.27" x2="219.49" y2="212.01"/><line class="cls-82" x1="222.51" y1="208.09" x2="222.78" y2="211.83"/><line class="cls-82" x1="225.43" y1="207.91" x2="225.71" y2="211.65"/><line class="cls-82" x1="228.36" y1="207.64" x2="228.64" y2="211.37"/><line class="cls-82" x1="231.48" y1="207.54" x2="231.75" y2="211.28"/><line class="cls-82" x1="234.77" y1="207.18" x2="235.04" y2="210.92"/><line class="cls-82" x1="237.61" y1="207.09" x2="237.88" y2="210.83"/><line class="cls-82" x1="240.63" y1="206.82" x2="240.9" y2="210.55"/><line class="cls-82" x1="243.83" y1="206.45" x2="244.1" y2="210.19"/><line class="cls-83" x1="243.23" y1="175.69" x2="253.2" y2="174.93"/><line class="cls-83" x1="243.43" y1="178.35" x2="253.4" y2="177.58"/><line class="cls-83" x1="243.64" y1="181" x2="253.61" y2="180.23"/><line class="cls-83" x1="243.84" y1="183.65" x2="253.81" y2="182.89"/><line class="cls-83" x1="244.05" y1="186.31" x2="254.02" y2="185.54"/><line class="cls-83" x1="244.25" y1="188.96" x2="254.22" y2="188.2"/><line class="cls-83" x1="244.46" y1="191.61" x2="254.43" y2="190.85"/><line class="cls-83" x1="244.66" y1="194.27" x2="254.63" y2="193.5"/><line class="cls-83" x1="244.87" y1="196.92" x2="254.84" y2="196.16"/><line class="cls-83" x1="245.07" y1="199.58" x2="255.04" y2="198.81"/><line class="cls-83" x1="245.28" y1="202.23" x2="255.25" y2="201.46"/><line class="cls-83" x1="193.35" y1="178.9" x2="228.61" y2="176.02"/></g></g></svg>