<svg xmlns="http://www.w3.org/2000/svg" xmlns:xlink="http://www.w3.org/1999/xlink" viewBox="0 0 370 280"><defs><style>.cls-1,.cls-33,.cls-45{fill:none;}.cls-2{isolation:isolate;}.cls-3{clip-path:url(#clip-path);}.cls-4{fill:url(#radial-gradient);}.cls-5{fill:url(#linear-gradient);}.cls-6{fill:url(#linear-gradient-2);}.cls-7{fill:url(#linear-gradient-3);}.cls-8{fill:url(#linear-gradient-4);}.cls-9{fill:url(#linear-gradient-5);}.cls-10{fill:url(#linear-gradient-6);}.cls-11{fill:url(#linear-gradient-7);}.cls-12{fill:url(#linear-gradient-8);}.cls-13{fill:url(#linear-gradient-9);}.cls-14{fill:url(#linear-gradient-10);}.cls-15{fill:#e0bc38;}.cls-16{fill:#ffe5bb;}.cls-17{fill:url(#linear-gradient-11);}.cls-18{fill:url(#linear-gradient-12);}.cls-19{fill:url(#radial-gradient-2);}.cls-20{fill:#e5a782;}.cls-21{fill:url(#linear-gradient-13);}.cls-22{fill:url(#linear-gradient-14);}.cls-23{fill:url(#radial-gradient-3);}.cls-24{fill:url(#linear-gradient-15);}.cls-25{fill:url(#linear-gradient-16);}.cls-26{fill:url(#radial-gradient-4);}.cls-27{fill:url(#radial-gradient-5);}.cls-28{fill:#df9c5c;}.cls-29{mix-blend-mode:multiply;}.cls-30{fill:url(#radial-gradient-6);}.cls-31{fill:url(#radial-gradient-7);}.cls-32{fill:#46160b;}.cls-33{stroke:#de816a;stroke-linecap:round;stroke-linejoin:round;}.cls-34{fill:url(#radial-gradient-10);}.cls-35{fill:url(#radial-gradient-11);}.cls-36{fill:url(#radial-gradient-12);}.cls-37{fill:url(#radial-gradient-13);}.cls-38{fill:url(#radial-gradient-14);}.cls-39{fill:url(#radial-gradient-15);}.cls-40{fill:url(#radial-gradient-16);}.cls-41{fill:#2e2523;}.cls-42{fill:#3d3a39;}.cls-43{fill:#fff;}.cls-44{fill:#767676;}.cls-45{stroke:#1d462b;stroke-width:0.94px;}</style><clipPath id="clip-path"><rect id="SVGID" class="cls-1" x="-5.05" width="380.88" height="285"/></clipPath><radialGradient id="radial-gradient" cx="211.15" cy="65.17" r="29.24" gradientTransform="translate(2.36) scale(0.89 0.89)" gradientUnits="userSpaceOnUse"><stop offset="0" stop-color="#432610"/><stop offset="0.36" stop-color="#311305"/><stop offset="1" stop-color="#241004"/></radialGradient><linearGradient id="linear-gradient" x1="185.88" y1="93.26" x2="185.88" y2="126.06" gradientUnits="userSpaceOnUse"><stop offset="0" stop-color="#e9b373"/><stop offset="0.57" stop-color="#f5d0b5"/><stop offset="1" stop-color="#f6e2d0"/></linearGradient><linearGradient id="linear-gradient-2" x1="151.76" y1="145.05" x2="151.76" y2="172.23" gradientTransform="translate(36.76 -32.62) rotate(1)" gradientUnits="userSpaceOnUse"><stop offset="0" stop-color="#c2c2c2"/><stop offset="0.06" stop-color="#cacaca"/><stop offset="0.25" stop-color="#e1e1e1"/><stop offset="0.47" stop-color="#f2f2f2"/><stop offset="0.7" stop-color="#fcfcfc"/><stop offset="1" stop-color="#fff"/></linearGradient><linearGradient id="linear-gradient-3" x1="7081.83" y1="11.42" x2="7081.83" y2="30.32" gradientTransform="matrix(-1, 0.02, 0.02, 1, 7266.08, -32.62)" gradientUnits="userSpaceOnUse"><stop offset="0" stop-color="#c2c2c2"/><stop offset="0.1" stop-color="#d5d5d5"/><stop offset="0.24" stop-color="#e7e7e7"/><stop offset="0.4" stop-color="#f5f5f5"/><stop offset="0.6" stop-color="#fdfdfd"/><stop offset="1" stop-color="#fff"/></linearGradient><linearGradient id="linear-gradient-4" x1="147.19" y1="205.19" x2="196" y2="205.19" gradientTransform="translate(36.76 -32.62) rotate(1)" gradientUnits="userSpaceOnUse"><stop offset="0" stop-color="#06162e"/><stop offset="1" stop-color="#10395f"/></linearGradient><linearGradient id="linear-gradient-5" x1="183.36" y1="264.82" x2="176.7" y2="237.85" xlink:href="#linear-gradient-4"/><linearGradient id="linear-gradient-6" x1="173.68" y1="175.95" x2="172.34" y2="170.5" xlink:href="#linear-gradient-4"/><linearGradient id="linear-gradient-7" x1="175.59" y1="171.25" x2="124.44" y2="149.49" xlink:href="#linear-gradient-4"/><linearGradient id="linear-gradient-8" x1="7046.68" y1="84.42" x2="7095.85" y2="84.42" gradientTransform="matrix(-1, 0.02, 0.02, 1, 7235.41, -32.62)" xlink:href="#linear-gradient-4"/><linearGradient id="linear-gradient-9" x1="7083.21" y1="144.05" x2="7076.55" y2="117.08" gradientTransform="matrix(-1, 0.02, 0.02, 1, 7235.41, -32.62)" xlink:href="#linear-gradient-4"/><linearGradient id="linear-gradient-10" x1="7074.14" y1="52.61" x2="7023.93" y2="31.25" gradientTransform="matrix(-1, 0.02, 0.02, 1, 7235.41, -32.62)" xlink:href="#linear-gradient-4"/><linearGradient id="linear-gradient-11" x1="7323.25" y1="121.71" x2="7308.2" y2="34.65" gradientTransform="matrix(-1, 0.02, 0.02, 1, 7535.22, -32.62)" xlink:href="#linear-gradient-4"/><linearGradient id="linear-gradient-12" x1="6853.08" y1="-1000.04" x2="6844.61" y2="-1003.21" gradientTransform="matrix(-0.97, 0.23, 0.2, 0.84, 7067.68, -506.9)" xlink:href="#linear-gradient-2"/><radialGradient id="radial-gradient-2" cx="5254.4" cy="6028.85" r="16.67" gradientTransform="matrix(-0.65, 0.58, -0.59, -0.66, 7149.72, 1172.96)" gradientUnits="userSpaceOnUse"><stop offset="0" stop-color="#f6e2d0"/><stop offset="1" stop-color="#f5d0b5"/></radialGradient><linearGradient id="linear-gradient-13" x1="124.55" y1="247.72" x2="109.49" y2="160.62" xlink:href="#linear-gradient-4"/><linearGradient id="linear-gradient-14" x1="-158.37" y1="895.49" x2="-166.84" y2="892.32" gradientTransform="matrix(0.97, 0.23, -0.2, 0.84, 504.29, -506.9)" xlink:href="#linear-gradient-2"/><radialGradient id="radial-gradient-3" cx="-211.78" cy="1262.27" r="16.95" gradientTransform="matrix(0.65, 0.58, 0.59, -0.66, -423.59, 1172.96)" xlink:href="#radial-gradient-2"/><linearGradient id="linear-gradient-15" x1="-207.06" y1="461.99" x2="-207.06" y2="444.89" gradientTransform="matrix(0.86, 0.16, -0.18, 0.98, 478.65, -342.37)" xlink:href="#linear-gradient"/><linearGradient id="linear-gradient-16" x1="339.89" y1="-269.18" x2="339.89" y2="-286.28" gradientTransform="translate(-132.11 403.75) rotate(-10.11)" xlink:href="#linear-gradient"/><radialGradient id="radial-gradient-4" cx="206.05" cy="67.98" r="39.38" gradientTransform="translate(2.36) scale(0.89 0.89)" xlink:href="#radial-gradient-2"/><radialGradient id="radial-gradient-5" cx="564.66" cy="229.65" r="6.8" gradientTransform="translate(-408.42 -187.27) scale(1.08 1.08)" gradientUnits="userSpaceOnUse"><stop offset="0" stop-color="#6e4c37"/><stop offset="1" stop-color="#040000"/></radialGradient><radialGradient id="radial-gradient-6" cx="310.99" cy="85.08" r="8.6" gradientTransform="translate(-80.15) scale(0.92 0.89)" gradientUnits="userSpaceOnUse"><stop offset="0" stop-color="#fbe5d4"/><stop offset="1" stop-color="#fff"/></radialGradient><radialGradient id="radial-gradient-7" cx="267.46" cy="85.08" r="8.6" xlink:href="#radial-gradient-6"/><radialGradient id="radial-gradient-10" cx="201.68" cy="27.55" r="65.02" gradientTransform="translate(2.36) scale(0.89 0.89)" gradientUnits="userSpaceOnUse"><stop offset="0" stop-color="#4e3217"/><stop offset="0.36" stop-color="#3f210f"/><stop offset="1" stop-color="#241004"/></radialGradient><radialGradient id="radial-gradient-11" cx="82.93" cy="202.31" r="9.06" gradientTransform="translate(129.86 -150.73) scale(0.83 1.05)" xlink:href="#radial-gradient-5"/><radialGradient id="radial-gradient-12" cx="3803.46" cy="229.65" r="6.8" gradientTransform="matrix(-1.08, 0, 0, 1.08, 4265.77, -187.27)" xlink:href="#radial-gradient-5"/><radialGradient id="radial-gradient-13" cx="4287.96" cy="202.31" r="9.06" gradientTransform="matrix(-0.83, 0, 0, 1.05, 3729.27, -150.73)" xlink:href="#radial-gradient-5"/><radialGradient id="radial-gradient-14" cx="254.31" cy="44.54" r="31.1" xlink:href="#radial-gradient"/><radialGradient id="radial-gradient-15" cx="178.76" cy="42.09" r="33.06" xlink:href="#radial-gradient"/><radialGradient id="radial-gradient-16" cx="250.4" cy="63.61" r="21.11" xlink:href="#radial-gradient"/></defs><title>アートボード 104</title><g class="cls-2"><g id="レイヤー_1" data-name="レイヤー 1"><g class="cls-3"><path class="cls-4" d="M150.71,73.54c0,5.3,17.28,23.88,22.17,26.92a25.55,25.55,0,0,1,26,0c4.9-3,21.84-18.85,21.84-24.16,0-9.17-23.2-36-34.81-36S152,44.6,150.19,74.06"/><path class="cls-5" d="M203.64,108.14s-5.27.06-8.9-5.73-.23-21.19-.23-21.19a31.52,31.52,0,0,0-8.63,2,31.6,31.6,0,0,0-8.63-2s3.39,15.39-.24,21.19-8.9,5.73-8.9,5.73a66.43,66.43,0,0,1,8.4,2.55,18.65,18.65,0,0,0,4.06.87c1.2.41,2.66,15.32,4.59,15.29h.54c0,15,.36,0,.54,0,1.93,0,3.74-14.88,4.94-15.29a18.65,18.65,0,0,0,4.06-.87A66.43,66.43,0,0,1,203.64,108.14Z"/><polygon class="cls-6" points="164.89 109.46 186.05 114.51 205.91 109.14 206.77 133.92 188.15 174.53 165.21 136.43 164.89 109.46"/><path class="cls-7" d="M185.94,115l-7.64,9.86-11.38-17.63s7.41-4.35,8.39-4,9.32,11.27,10.62,11.11h0c1.3.16,9.63-10.81,10.61-11.11s8.4,4,8.4,4l-11.38,17.63Z"/><path class="cls-8" d="M203.79,105.82l10.58,4s3,25.29,2.71,42.19c-.14,8.12-4.49,28.31-4.49,28.31s6,42.09,10.66,54.31c1.48,3.88,6.72,11.08,3.79,11-1,0-5-2.85-9.55-3.17-8.08-.58-14.57-.12-17.49-.8-4.54-1-19.92-52.32-19.87-55.25C180.22,181.22,203.79,105.82,203.79,105.82Z"/><path class="cls-9" d="M201.75,207.06c0,1.62,3.89,19.72,4.51,21.52s1.42,2.29,2.73,2.32,9.42,1,10.72,1.32c.8.22,2,.44,2.87.58a174.74,174.74,0,0,1-7.35-27.31c-2-.09-11.59-.51-12.47-.53S201.78,205.43,201.75,207.06Z"/><polygon class="cls-10" points="200.13 141.24 213.98 140.83 214.24 144.57 199.09 144.96 200.13 141.24"/><path class="cls-11" d="M204.82,134c.68-1.94.69-2.26.05-2.76s-2.89-2.32-4.34-3.49-.77-2.28-.12-2.27,4.08-.74,5.06-.89,2-.62,1.83-2.08c-.12-1.24-.3-12.13-.35-15.45l-3.16-1.25s-10.93,35-17.94,58.93l.36-.2C196.57,158.72,204.13,136,204.82,134Z"/><path class="cls-12" d="M178.89,143.79c-4.45-12.24-11.1-38-11.1-38l-9.66,4s-5.76,26.21-5.47,43.11c.14,8.12,6.34,27.39,6.34,27.39s-6,42.09-10.66,54.31c-1.48,3.88-6.73,11.08-3.8,11,1.05,0,5-2.85,9.55-3.17,8.08-.58,14.58-.12,17.49-.8,2.34-.54,19.25-32.45,19.25-39.81s.74-25.27.74-29.38S183.34,156,178.89,143.79Z"/><path class="cls-13" d="M169.83,207.06c0,1.62-3.88,19.72-4.5,21.52s-1.43,2.29-2.73,2.32-9.43,1-10.72,1.32c-.81.22-2,.44-2.88.58a174.83,174.83,0,0,0,7.36-27.31c2-.09,11.59-.51,12.46-.53S169.81,205.43,169.83,207.06Z"/><path class="cls-14" d="M166.77,134c-.69-1.94-.7-2.26-.05-2.76s2.89-2.32,4.33-3.49.78-2.28.13-2.27-4.09-.74-5.07-.89-2-.62-1.83-2.08c.12-1.24.3-12.13.35-15.45l3.16-1.25S178.13,139,181.17,147s7.94,16.46,9.27,21a48.42,48.42,0,0,1-5.91-3.58C175.68,157.74,167.45,136,166.77,134Z"/><ellipse class="cls-15" cx="187.02" cy="171.54" rx="3.03" ry="3.04" transform="translate(13.44 356.67) rotate(-89.37)"/><path class="cls-15" d="M190.06,187.69a3,3,0,1,1-3-3.08A3,3,0,0,1,190.06,187.69Z"/><rect class="cls-16" x="-23.9" y="193.38" width="437.34" height="95.83"/><path class="cls-17" d="M199.37,199.44l23.18-15.63s-4.55-13.52-6.66-22.26c.58-5.66,1-5.61,1-8.65.3-16.9-2.7-43.11-2.7-43.11a11,11,0,0,1,7.09,6.72,284.75,284.75,0,0,1,8.81,29c2.93,12,10.86,42.68,10.26,45.29s-4.08,5.28-8.2,7.77-20.49,12.79-23.05,14.19-7.43-2.49-10.69-7S199.37,199.44,199.37,199.44Z"/><path class="cls-18" d="M206.13,204.32c-1.83-2.37-4.36-4-5.31-3.55l-4.52,2.32c-.33.19-1.35,1.44,1.66,5.75s6,4.8,6.51,4.47a25.47,25.47,0,0,1,4.19-2.38C209.5,210.56,208.21,207,206.13,204.32Z"/><path class="cls-19" d="M199.48,213.9c-1,.59-3.34,6.5-4.85,7.57-5.45,3.91-8.39,2.61-11.91,3.43s-5.23,1.81-7.36,1.94a7.7,7.7,0,0,1-4.69-.89c-1.07.13-1.2-1.42.4-3.88a47,47,0,0,1,4.48-5.26,30.69,30.69,0,0,1,7.57-6.8,47,47,0,0,1,9.2-4,24.43,24.43,0,0,0,2.68-1.17,21.33,21.33,0,0,1,2.69-1.43c1.16-.39,2,0,3.52,1.1,2.25,1.76,4.39,6.17,3.17,6.8C203.65,211.7,200.51,213.3,199.48,213.9Z"/><path class="cls-20" d="M170.67,226s3.93-4.1,5.54-5.36a59.78,59.78,0,0,1,6-3.9c.35-.12.83.3.32.78s-5.58,3.31-6.84,4.58c-.68.68-4.4,3.78-4.4,3.78Z"/><path class="cls-20" d="M173.57,226.72s3-2.15,4.09-3a17.92,17.92,0,0,1,3.52-2.09c.78-.31,3.26-2,3.89-1.93s0,.71-.65,1-6,3.14-6.56,3.44-3.67,2.63-3.67,2.63Z"/><path class="cls-21" d="M173.13,199.44,150,183.81s2.82-8.91,4.92-17.66c-.58-5.66-.31-11.13-.36-14.17-.3-16.9,3.62-42.19,3.62-42.19a10.9,10.9,0,0,0-6.9,6.72,282.19,282.19,0,0,0-8.81,29c-2.93,12-10.87,42.68-10.26,45.29s4.07,5.28,8.2,7.77,20.48,12.79,23,14.19,7.43-2.49,10.69-7S173.13,199.44,173.13,199.44Z"/><path class="cls-22" d="M166.38,204.32c1.83-2.37,4.36-4,5.31-3.55l4.51,2.32c.34.19,1.36,1.44-1.65,5.75s-6,4.8-6.51,4.47a25.47,25.47,0,0,0-4.19-2.38C163,210.56,164.3,207,166.38,204.32Z"/><path class="cls-23" d="M173,213.9c1,.59,3.34,6.5,4.84,7.57,5.46,3.91,8.4,2.61,11.91,3.43s5.24,1.81,7.37,1.94a7.7,7.7,0,0,0,4.69-.89c1.06.13,3-.5,1.44-3a47,47,0,0,0-4.48-5.26,50.93,50.93,0,0,0-9.41-7.72,47,47,0,0,0-9.2-4,24.79,24.79,0,0,1-2.69-1.17,20.74,20.74,0,0,0-2.68-1.43c-1.16-.39-2,0-3.52,1.1-2.25,1.76-4.4,6.17-3.17,6.8C168.86,211.7,172,213.3,173,213.9Z"/><path class="cls-20" d="M201.84,226s-3.93-4.1-5.54-5.36a60.82,60.82,0,0,0-6-3.9c-.35-.12-.82.3-.31.78s5.58,3.31,6.84,4.58c.67.68,4.4,3.78,4.4,3.78Z"/><path class="cls-20" d="M198.94,226.72s-3-2.15-4.09-3a17.92,17.92,0,0,0-3.52-2.09c-.78-.31-3.26-2-3.89-1.93s-.05.71.65,1,6,3.14,6.56,3.44,3.66,2.63,3.66,2.63Z"/><path class="cls-24" d="M210.22,69.17c-1,5.17,1.5,9.94,5.49,10.68s8-2.85,9-8-1.5-10-5.5-10.69-8,2.85-8.95,8"/><path class="cls-25" d="M160.83,69.43c.92,5.17-1.49,9.92-5.39,10.62s-7.81-2.94-8.73-8.11S148.2,62,152.1,61.33s7.81,2.93,8.73,8.1"/><path class="cls-26" d="M153.45,56.48c0,11.53,3,23.29,8.72,29.8,7.15,8.13,21,11.68,23.34,11.68,5.3,0,16-3.71,23.32-11.67,5.82-6.31,8.24-18.27,8.24-29.81,0-24-10.86-34-31.56-34s-32.06,10-32.06,34"/><path class="cls-27" d="M198,64.26c0,2.37,1.49,4.29,3.31,4.29s3.31-1.92,3.31-4.29S203.15,60,201.32,60,198,61.89,198,64.26"/><path class="cls-28" d="M185.28,77a1,1,0,0,1-.43-.1l-2.29-1.24,2-5.8c.1-.37.17-.8.6-.72s0,.76-.11,1.13L184.38,75l1.33.71a.63.63,0,0,1,.25,1,.83.83,0,0,1-.68.32"/><rect class="cls-1" x="197.22" y="68.55" width="17.35" height="13.6"/><g class="cls-29"><path class="cls-30" d="M197.22,75.35c0,3.76,3.89,6.8,8.68,6.8s8.68-3,8.68-6.8-3.89-6.8-8.68-6.8-8.68,3-8.68,6.8"/></g><rect class="cls-1" x="157.18" y="68.55" width="17.35" height="13.6"/><g class="cls-29"><path class="cls-31" d="M157.18,75.35c0,3.76,3.89,6.8,8.68,6.8s8.68-3,8.68-6.8-3.89-6.8-8.68-6.8-8.68,3-8.68,6.8"/></g><rect class="cls-1" x="197.22" y="68.55" width="17.35" height="13.6"/><g class="cls-29"><path class="cls-30" d="M197.22,75.35c0,3.76,3.89,6.8,8.68,6.8s8.68-3,8.68-6.8-3.89-6.8-8.68-6.8-8.68,3-8.68,6.8"/></g><rect class="cls-1" x="157.18" y="68.55" width="17.35" height="13.6"/><g class="cls-29"><path class="cls-31" d="M157.18,75.35c0,3.76,3.89,6.8,8.68,6.8s8.68-3,8.68-6.8-3.89-6.8-8.68-6.8-8.68,3-8.68,6.8"/></g><path class="cls-32" d="M204.77,51.48c-3.92-.67-6.29.13-8.09,3.57a8.7,8.7,0,0,1,7.08-2.23,13.52,13.52,0,0,1,6.45,2.44,7.58,7.58,0,0,0-5.44-3.78"/><path class="cls-33" d="M177.67,82c1.89,1.9,6.53,3.17,7.84,3.1s5.94-1.2,7.83-3.1"/><path class="cls-34" d="M175.5,12.22c-17.42,5.35-29.35,16.85-33.94,38.09s3.31,30,11.05,36.52a29.7,29.7,0,0,0,18.72,6.67c-8.46-2.65-18.13-8-18-24.87.13-12.88,12.83-22.15,25.13-29.25a71.58,71.58,0,0,1,19.81-7.6S228.09,52.09,208,83.72c0,0,6.6-3.28,9.28-8.74-1.38,8.53-9.45,16.39-17.6,21a32,32,0,0,0,15.77-7.35c7.75-6.54,17.92-17.16,14.07-38.54-3.27-18.13-9.15-24.94-15.63-30.29s-14.32-2.89-14.32-2.89-4.15-6.25-14.47-6.25a32.53,32.53,0,0,0-9.6,1.57"/><path class="cls-35" d="M200.53,60.7s4.29-2,6.45,4.5c0,0-.38-4.89-4.79-5.57s-4.79,3.86-4.79,3.86S198.7,60.7,200.53,60.7Z"/><path class="cls-36" d="M173.3,64.26c0,2.37-1.49,4.29-3.31,4.29s-3.31-1.92-3.31-4.29S168.16,60,170,60s3.31,1.92,3.31,4.29"/><path class="cls-32" d="M166.83,51.4c3.92-.78,6.31-.06,8.19,3.32a8.67,8.67,0,0,0-7.13-2,13.66,13.66,0,0,0-6.38,2.64,7.62,7.62,0,0,1,5.32-4"/><path class="cls-37" d="M170.78,60.7s-4.29-2-6.45,4.5c0,0,.38-4.89,4.79-5.57s4.79,3.86,4.79,3.86S172.61,60.7,170.78,60.7Z"/><path class="cls-38" d="M220.63,41.55s14.64,22,2.7,39C223.33,80.55,229.91,65.08,220.63,41.55Z"/><path class="cls-39" d="M150.44,84.92a30.74,30.74,0,0,1-2.34-4.75c-3.32-8.26-7.39-26.15,8.59-44.78,0,0-23.62,21.7-9.74,45.92Z"/><path class="cls-40" d="M217.28,75s4.44-5.66,4.44-21c0,0,3.06,19.35-6.83,27.62Z"/><path class="cls-41" d="M142.75,258.44c-.22.51-.11,2.61.82,2.61h91c.92,0,.94-2.23.73-2.74l-.68.28L224,234a3,3,0,0,0-2.64-1.34H156.71a3,3,0,0,0-2.64,1.34Z"/><path class="cls-42" d="M142.84,258.31c-.22.51.37.93,1.3.93H234c.94,0,1.52-.42,1.31-.93l-10.89-25.82a3,3,0,0,0-2.66-1.38h-65.3a3,3,0,0,0-2.66,1.38Z"/><path class="cls-43" d="M230.21,257H148.09c-1.05,0-.65-.79-.65-.79l9.38-22.2a1,1,0,0,1,1-.58h62.58a1,1,0,0,1,1,.69l9.3,22S231,257,230.21,257Z"/><polygon class="cls-44" points="223.49 239.21 154.47 239.21 155.77 236.31 222.23 236.31 223.49 239.21"/><polygon class="cls-45" points="199.4 249.28 177.68 249.28 178.26 245.23 198.87 245.23 199.4 249.28"/></g></g></g></svg>