<svg xmlns="http://www.w3.org/2000/svg" width="167" height="104" viewBox="0 0 167 104"><defs><style>.cls-1{fill:#cce0d4;}.cls-2{fill:#1ea45a;}.cls-3{fill:#212121;}.cls-4{fill:#19a357;}</style></defs><title>18</title><g id="レイヤー_2" data-name="レイヤー 2"><g id="レイヤー_1-2" data-name="レイヤー 1"><rect class="cls-1" x="0.676" y="0.676" width="165.647" height="102.647" rx="2.028" ry="2.028"/><path class="cls-2" d="M164.3,1.352a1.355,1.355,0,0,1,1.353,1.353V101.3a1.355,1.355,0,0,1-1.353,1.353H2.705A1.355,1.355,0,0,1,1.352,101.3V2.705A1.355,1.355,0,0,1,2.705,1.352H164.3M164.3,0H2.705A2.713,2.713,0,0,0,0,2.705V101.3A2.713,2.713,0,0,0,2.705,104H164.3A2.713,2.713,0,0,0,167,101.3V2.705A2.713,2.713,0,0,0,164.3,0Z"/><path class="cls-3" d="M14.989,28.227a6.631,6.631,0,0,0,.031.715H14.3a6.644,6.644,0,0,0,.037-.721V26.384c0-.2,0-.352.012-.685a3.248,3.248,0,0,1-.444.641,3.711,3.711,0,0,0-.284-.733,4.474,4.474,0,0,0,.938-1.585,3.847,3.847,0,0,0,.234-.862l.672.24-.117.333a9.7,9.7,0,0,1-.358.924Zm.468-4.044c0-.308-.006-.494-.024-.7.221.019.382.025.671.025h2.423a6.8,6.8,0,0,0,.741-.025,5.555,5.555,0,0,0-.026.759v3.846a6.6,6.6,0,0,0,.031.807h-.647v-.271H16.067V28.9h-.646a6.051,6.051,0,0,0,.036-.757Zm.61,3.846h2.559V24.115H16.067ZM17.788,25.9c.179,0,.308-.005.456-.018a3.22,3.22,0,0,0-.013.425v.937a2.172,2.172,0,0,0,.019.432c-.16-.012-.32-.019-.456-.019h-.919c-.179,0-.314.007-.449.019a3.156,3.156,0,0,0,.017-.419V26.3a3.106,3.106,0,0,0-.017-.419,4.307,4.307,0,0,0,.449.018h.154v-.548h-.437a2.22,2.22,0,0,0-.37.025V24.75a1.688,1.688,0,0,0,.376.031h.431v-.136a2.268,2.268,0,0,0-.03-.413h.653a2.456,2.456,0,0,0-.025.413v.136h.45a1.84,1.84,0,0,0,.395-.031v.623a2.278,2.278,0,0,0-.382-.025h-.463V25.9Zm-.8,1.215h.7v-.666h-.7Z"/><path class="cls-3" d="M23.04,23.332a4.02,4.02,0,0,0-.044.635A4.426,4.426,0,0,0,23.6,26.4a5.011,5.011,0,0,0,1.929,1.837,2.292,2.292,0,0,0-.481.684,6,6,0,0,1-1.566-1.455,4.86,4.86,0,0,1-.819-1.683,4.395,4.395,0,0,1-.481,1.245,4.256,4.256,0,0,1-.95,1.184,5.186,5.186,0,0,1-.955.709,1.837,1.837,0,0,0-.481-.635,4.1,4.1,0,0,0,1.344-1.029,4.747,4.747,0,0,0,1.129-3.4,3.913,3.913,0,0,0-.026-.518Z"/><path class="cls-3" d="M30.739,24.781a4.447,4.447,0,0,0,.672-.037v.635a5.3,5.3,0,0,0-.672-.037h-1.06a4.661,4.661,0,0,0,1.954.992,2.585,2.585,0,0,0-.358.635c-.258-.117-.357-.166-.561-.277V28.3a3.984,3.984,0,0,0,.037.647h-.678v-.283H27.336v.283h-.672c.019-.185.031-.419.031-.647V26.7c-.167.093-.247.135-.511.271a1.668,1.668,0,0,0-.358-.61,4.231,4.231,0,0,0,1.83-1.017h-1.01a5.261,5.261,0,0,0-.678.037v-.635a4.715,4.715,0,0,0,.678.037h.511a4.408,4.408,0,0,0-.277-.487l.437-.148c-.381.012-.443.018-.826.018a1.778,1.778,0,0,0-.264-.585c.283.012.413.012.591.012a19.337,19.337,0,0,0,2.164-.117,9.254,9.254,0,0,0,1.609-.265l.463.567c-.062.006-.062.006-.186.025-.018,0-.073.012-.16.024-.339.05-.715.1-1.726.21v.746h.555a3.683,3.683,0,0,0,.388-.8l.647.161a5.525,5.525,0,0,1-.369.641Zm-3.4,2.4h1.023V26.8H27.336Zm0,.924h1.023v-.381H27.336ZM29.98,26.26a4.518,4.518,0,0,1-1.016-.894.875.875,0,0,1,.006.093.533.533,0,0,1,.012.117v.166a1.967,1.967,0,0,0,.025.395h-.691a2.208,2.208,0,0,0,.031-.388v-.161c0-.037.007-.11.012-.215a4.28,4.28,0,0,1-.962.887ZM28.347,24.1c-.252.018-.252.018-.881.043a6.375,6.375,0,0,1,.333.641h.548Zm.629,4.019h1.091v-.388H28.976Zm.006-.925h1.091V26.8H28.982Z"/><path class="cls-3" d="M32.637,26.187a5.728,5.728,0,0,0-.716.036v-.665a5.465,5.465,0,0,0,.722.037h4.191a5.644,5.644,0,0,0,.728-.037v.665a5.731,5.731,0,0,0-.728-.036H34.061c-.093.215-.123.289-.2.449h2.324a5.408,5.408,0,0,0,.635-.024c-.006.036-.018.129-.049.394a3.588,3.588,0,0,1-.389,1.572c-.19.234-.425.3-1.072.3-.321,0-.555-.012-.931-.037a1.593,1.593,0,0,0-.167-.659c.42.049.869.086,1.092.086.3,0,.437-.037.512-.129a2.289,2.289,0,0,0,.221-.937H33.562c-.087.153-.136.234-.285.462l-.739-.136a5.986,5.986,0,0,0,.782-1.343Zm.067-2.263a4.434,4.434,0,0,0-.024-.512,5.764,5.764,0,0,0,.7.031H36.1a4.807,4.807,0,0,0,.7-.031,3.933,3.933,0,0,0-.026.512v.8a4.134,4.134,0,0,0,.026.524,5.778,5.778,0,0,0-.636-.024H33.314a5.878,5.878,0,0,0-.634.024,4.574,4.574,0,0,0,.024-.524Zm.66.1v.635H36.1v-.635Z"/><path class="cls-3" d="M15.144,36.211v1.868a15.434,15.434,0,0,0,1.6-.437l.019.659c-.752.241-.975.3-2.5.666a2.127,2.127,0,0,0-.321.086l-.141-.733a5.651,5.651,0,0,0,.629-.1V34.553a5.76,5.76,0,0,0-.026-.6h.149a18.821,18.821,0,0,0,2.989-.283,3.256,3.256,0,0,0,.894-.284l.518.641-.346.08a10.979,10.979,0,0,1-1.429.272c.031.838.031.838.055,1.14L18.6,35.49a5.659,5.659,0,0,0,.666-.055l.011.715c-.184-.013-.221-.013-.511-.013a1,1,0,0,0-.172.007l-1.258.024a4.076,4.076,0,0,0,.579,1.436c.229.334.469.555.61.555.075,0,.136-.08.173-.228a2.645,2.645,0,0,0,.068-.4c.006-.148.012-.253.018-.3a1.881,1.881,0,0,0,.629.382,2.507,2.507,0,0,1-.3,1.041.63.63,0,0,1-.523.29c-.4,0-.858-.351-1.277-.974a4.791,4.791,0,0,1-.678-1.787Zm1.411-.684c-.025-.314-.025-.314-.062-1.072-.191.018-.283.024-.389.036-.745.056-.745.056-.96.074v.993Z"/><path class="cls-3" d="M21.782,34.948a5.314,5.314,0,0,1,.771.616A6.414,6.414,0,0,0,23.606,34.5H21.985a6.377,6.377,0,0,1-1.664,1.282,1.534,1.534,0,0,0-.419-.518,4.708,4.708,0,0,0,2.188-1.991l.727.179c-.16.234-.215.308-.32.449h1.264a3.366,3.366,0,0,0,.543-.03l.363.388c-.074.093-.08.1-.222.284a8.191,8.191,0,0,1-1.855,1.781h2A3.871,3.871,0,0,0,25.1,36.3a3.825,3.825,0,0,0-.03.567v1.584a4.1,4.1,0,0,0,.037.611h-.7v-.333H22.054v.333h-.716a4.59,4.59,0,0,0,.037-.611V37.111a10.091,10.091,0,0,1-1.171.555,1.684,1.684,0,0,0-.394-.616,9.046,9.046,0,0,0,1.479-.629c.2-.111.4-.24.733-.463a4.539,4.539,0,0,0-.751-.646Zm.265,3.193h2.367V36.926H22.047Z"/><path class="cls-3" d="M14.391,57.147c0-.16.006-.283.018-.7a4.426,4.426,0,0,1-.48.659,3.322,3.322,0,0,0-.278-.746,4.991,4.991,0,0,0,1.017-1.627,3.837,3.837,0,0,0,.234-.8l.709.178a9.623,9.623,0,0,1-.549,1.35v3.465a5.149,5.149,0,0,0,.044.715h-.758a4.231,4.231,0,0,0,.043-.721Zm3.156-1.959a6.065,6.065,0,0,0-1.22-.777l.475-.457a7.606,7.606,0,0,1,1.294.765l-.462.469h.93a5.853,5.853,0,0,0,.734-.038v.691c-.216-.019-.45-.031-.715-.031h-.925v1.079h.765a5.564,5.564,0,0,0,.684-.037v.678c-.2-.019-.419-.031-.678-.031h-.771v1.294h1.067a6.227,6.227,0,0,0,.733-.037v.691c-.222-.018-.432-.031-.739-.031H15.994c-.3,0-.506.013-.734.031v-.691a5.87,5.87,0,0,0,.709.037h1V57.5h-.654c-.258,0-.474.012-.677.031v-.678a5.362,5.362,0,0,0,.677.037h.654V55.81H16.16c-.259,0-.487.012-.7.031V55.15a4.154,4.154,0,0,0,.7.038Z"/><path class="cls-3" d="M22.46,56.957a4.9,4.9,0,0,0,.013.493c-.062,0-.266-.007-.605-.012H20.845a4.293,4.293,0,0,1-.548,2.194,1.963,1.963,0,0,0-.549-.487,5.3,5.3,0,0,0,.486-2.947,7.6,7.6,0,0,0-.03-.857c.2.013.358.019.653.019h1c.284,0,.431-.006.623-.019-.012.13-.019.315-.019.555Zm-2.49-2.738a4.565,4.565,0,0,0,.666.031h1.331a4.172,4.172,0,0,0,.672-.031v.691A4.061,4.061,0,0,0,22,54.879H20.6a4.268,4.268,0,0,0-.629.031Zm1.855,2.633v-.913h-.962v.444c0,.234,0,.29-.006.469Zm1.69-.352a5.824,5.824,0,0,1-.272,1.683,3.407,3.407,0,0,1-.536,1,4.863,4.863,0,0,1-.395.462,2,2,0,0,0-.511-.511,2.835,2.835,0,0,0,.875-1.363,8.75,8.75,0,0,0,.2-2.281c0-.579-.006-.77-.024-.974a5.785,5.785,0,0,0,2.3-.517l.351.628a2.586,2.586,0,0,0-.283.081,9.54,9.54,0,0,1-1.683.376v.77h1.4a3.1,3.1,0,0,0,.6-.037v.715a3.4,3.4,0,0,0-.543-.031H24.9v2.441a3.716,3.716,0,0,0,.037.666h-.728a5.01,5.01,0,0,0,.037-.671V56.5Z"/><path class="cls-3" d="M47.886,34.519c0-.267-.014-.506-.034-.732a6.088,6.088,0,0,0,.758.034h3.309a5.561,5.561,0,0,0,.738-.034,6.258,6.258,0,0,0-.034.7V38.9a7.019,7.019,0,0,0,.041.828h-.827v-.411H48.658v.411h-.813a7.263,7.263,0,0,0,.041-.828Zm.772,1.613h3.179V34.546H48.658Zm0,2.468h3.179V36.85H48.658Z"/><path class="cls-3" d="M59.025,37.738l.028-.772h-.226a2.184,2.184,0,0,0-.328.02v-.649a2.039,2.039,0,0,0,.335.02h.239l.021-.608h-.267c-.15,0-.232.007-.328.014V35.12a1.961,1.961,0,0,0,.335.021h.28l.021-.657H58.82a2.152,2.152,0,0,0-.341.021v-.677a2.613,2.613,0,0,0,.444.034h.465a2.794,2.794,0,0,0,.458-.027,6.984,6.984,0,0,0-.048.7l-.11,3.192c.206-.006.281-.013.417-.027v.7a6.9,6.9,0,0,0-.813-.041H54.623a7.489,7.489,0,0,0-.807.041v-.7c.137.014.246.027.472.034l-.082-2.932a6.893,6.893,0,0,0-.041-.732,3.036,3.036,0,0,0,1.2-.519l.267.41a1.534,1.534,0,0,0-.014-.26,4.29,4.29,0,0,0,.595.027h1.531a4.287,4.287,0,0,0,.6-.027,5.164,5.164,0,0,0-.021.533v3.5Zm-2.6,1.074a5.082,5.082,0,0,1-2.133,1.011,3.831,3.831,0,0,0-.4-.622,4.713,4.713,0,0,0,1.08-.287,2.819,2.819,0,0,0,.889-.533Zm-.779-4.567a5.6,5.6,0,0,1-.773.308l.014.594h.239a1.983,1.983,0,0,0,.335-.02v.649a2.184,2.184,0,0,0-.328-.02H54.9l.014.622h.212a1.455,1.455,0,0,0,.335-.027V37c-.1-.007-.178-.014-.328-.014h-.2l.02.752h.7Zm2.091,3.493V34.327h-1.5v3.411Zm-.143-2.481a2.217,2.217,0,0,0-.328-.014H56.7a2.165,2.165,0,0,0-.321.014v-.588a1.837,1.837,0,0,0,.328.02h.554a1.837,1.837,0,0,0,.328-.02Zm-.861,2.092c-.1,0-.2.006-.342.013.007-.089.013-.2.013-.362V35.927c0-.171-.006-.274-.013-.369.082.006.177.013.342.013h.512c.157,0,.28-.007.349-.013-.007.075-.014.2-.014.376v1.059c0,.171.007.294.014.369-.116-.007-.246-.013-.342-.013Zm.095-.534h.335v-.7h-.335ZM57.993,38.4a4.513,4.513,0,0,0,2.133.759,2.635,2.635,0,0,0-.362.65,5.8,5.8,0,0,1-1.156-.37,5.691,5.691,0,0,1-1.121-.615Z"/><path class="cls-3" d="M64.143,35.653a4.858,4.858,0,0,0,.84,1.73,5.839,5.839,0,0,0,.951.977,4.869,4.869,0,0,0,1,.643,2.975,2.975,0,0,0-.486.772,7.131,7.131,0,0,1-1.722-1.483,5.753,5.753,0,0,1-1.033-1.8,4.664,4.664,0,0,1-.752,1.525,6.089,6.089,0,0,1-1.989,1.722,3.073,3.073,0,0,0-.478-.724,4.683,4.683,0,0,0,1.839-1.47,4.478,4.478,0,0,0,.793-1.894H61.5a4.6,4.6,0,0,0-.861.048v-.82a5.419,5.419,0,0,0,.861.048h1.7c.014-.226.021-.342.021-.684a3.676,3.676,0,0,0-.055-.683h.875a3.993,3.993,0,0,0-.048.806c-.006.157-.006.294-.027.561h1.88a5.64,5.64,0,0,0,.861-.048v.82a5.911,5.911,0,0,0-.854-.048Zm-.37,3.869a6.55,6.55,0,0,0-.909-1.333l.636-.362a9.975,9.975,0,0,1,.971,1.278Z"/><path class="cls-3" d="M69.984,39.529a6.583,6.583,0,0,0-.266-.656,19.6,19.6,0,0,1-2.106.649c-.15.041-.164.048-.314.1l-.137-.772a3,3,0,0,0,.458-.055v-3.9a5.229,5.229,0,0,0-.027-.65,5.125,5.125,0,0,0,.642.028h.39V34a2.36,2.36,0,0,0-.041-.472h.82a2.312,2.312,0,0,0-.041.472v.267h.39a5.143,5.143,0,0,0,.643-.028,5.439,5.439,0,0,0-.028.7v1.77c0,.308.007.444.021.615-.192-.013-.322-.02-.561-.02h-1.49v1.333c.424-.11.56-.151,1.1-.328a6.991,6.991,0,0,0-.363-.643l.636-.253a12.316,12.316,0,0,1,.95,1.778Zm-.328-4.053V34.9H68.337v.575Zm-1.319,1.189h1.319v-.581H68.337Zm5.2-2.461c-.041.1-.082.2-.109.267a17.425,17.425,0,0,1-.718,1.661,3.776,3.776,0,0,1,.506.765,2.23,2.23,0,0,1,.2.93.993.993,0,0,1-.506,1,1.444,1.444,0,0,1-.649.11c-.1,0-.171,0-.349-.014a1.636,1.636,0,0,0-.157-.745,2.139,2.139,0,0,0,.4.034c.253,0,.376-.027.431-.089a.533.533,0,0,0,.089-.328,1.96,1.96,0,0,0-.233-.868,2.639,2.639,0,0,0-.574-.718,9.719,9.719,0,0,0,.759-1.784H71.57v4.518a5.973,5.973,0,0,0,.048.875h-.827a5.011,5.011,0,0,0,.041-.7V34.293a5.121,5.121,0,0,0-.027-.567c.171.013.335.02.56.02h1.217a3.842,3.842,0,0,0,.561-.027Z"/><path class="cls-3" d="M48,55.362a5.868,5.868,0,0,0-.827.041v-.752a5.9,5.9,0,0,0,.875.048h1.8a3.88,3.88,0,0,0-.047-.615h.834a3.319,3.319,0,0,0-.041.615h1.866a5.614,5.614,0,0,0,.895-.048V55.4a7.362,7.362,0,0,0-.847-.041H50.6v.383h1.428a6.768,6.768,0,0,0,.759-.027c-.02.2-.027.43-.027.69v1.265a5.446,5.446,0,0,0,.027.7,5.46,5.46,0,0,0-.766-.034H51.2a4.823,4.823,0,0,0,2.372,1.169,4.525,4.525,0,0,0-.389.724,7.132,7.132,0,0,1-1.4-.622,4.408,4.408,0,0,1-1.2-.984c.007.226.014.356.014.472v.492a4.19,4.19,0,0,0,.047.779h-.84a5.509,5.509,0,0,0,.047-.779V59.1c0-.082.007-.335.014-.465a4.433,4.433,0,0,1-1.306,1.08,7.071,7.071,0,0,1-1.168.526,2.943,2.943,0,0,0-.383-.69A5.737,5.737,0,0,0,48.3,59.04a4.063,4.063,0,0,0,.977-.7h-.738a5.261,5.261,0,0,0-.772.034.913.913,0,0,1,.02-.2c0-.027,0-.027.007-.5V56.415a6.675,6.675,0,0,0-.027-.7,4.833,4.833,0,0,0,.745.034h1.346v-.383Zm.513.971v.417h1.339v-.417Zm0,.984v.431h1.339v-.431ZM50.6,56.75h1.435v-.417H50.6Zm0,1h1.435v-.431H50.6Z"/><path class="cls-3" d="M56.065,58.4a5.548,5.548,0,0,1-1.647,1.764,2.3,2.3,0,0,0-.485-.595,3.938,3.938,0,0,0,.9-.69,3.326,3.326,0,0,0,.6-.841Zm.595-3.807a2.863,2.863,0,0,0-.041-.5h.848a2.4,2.4,0,0,0-.041.492v.2h1.955a4.958,4.958,0,0,0,.8-.048v.773a4.168,4.168,0,0,0-.752-.041H54.787a4.078,4.078,0,0,0-.738.041V54.74a5.006,5.006,0,0,0,.82.048H56.66Zm-1.23,3.329c-.3,0-.431.007-.616.02a3.931,3.931,0,0,0,.028-.54v-.977c0-.233-.007-.356-.007-.369s-.007-.041-.014-.1a.483.483,0,0,0-.007-.089c.055.007.055.007.165.014.061.007.28.014.451.014h3.288a3.888,3.888,0,0,0,.622-.028,4.04,4.04,0,0,0-.028.554V57.4c0,.24.007.356.021.54-.157-.013-.355-.02-.622-.02h-1.2v1.709c0,.526-.226.677-1.033.677-.109,0-.177,0-.553-.007a2.086,2.086,0,0,0-.2-.732,5.058,5.058,0,0,0,.746.062c.232,0,.28-.027.28-.144V57.919Zm.136-.677h3.022v-.7H55.566Zm3.09.8a3.52,3.52,0,0,0,.677.813,4.017,4.017,0,0,0,.943.65,2.866,2.866,0,0,0-.485.656,5.559,5.559,0,0,1-1.019-.848,6.8,6.8,0,0,1-.71-.888Z"/><path class="cls-3" d="M61.579,56.723a3.963,3.963,0,0,0-.725.041v-.718a3.879,3.879,0,0,0,.725.041h.554v-.656h-.356a4.369,4.369,0,0,0-.642.034v-.7a3.934,3.934,0,0,0,.642.034h.356v-.164a4.749,4.749,0,0,0-.034-.554h.793a2.455,2.455,0,0,0-.041.554V54.8h.143a2.373,2.373,0,0,0,.492-.034v.526a4.908,4.908,0,0,0,.445-.936l.608.362a4.249,4.249,0,0,0-.027-.438c.184.014.321.021.6.021h1.094a2.86,2.86,0,0,0,.561-.034l.321.471a2.174,2.174,0,0,0-.11.274c-.041.1-.232.56-.307.745-.014.034-.082.185-.192.424-.041.095-.109.246-.191.444a3.449,3.449,0,0,1,.581.937,2.21,2.21,0,0,1,.192.861.948.948,0,0,1-.554,1,2.229,2.229,0,0,1-.93.109,1.579,1.579,0,0,0-.184-.758c.211.013.28.02.362.02.39,0,.547-.109.547-.376a2.3,2.3,0,0,0-.1-.663,2.444,2.444,0,0,0-.684-1.066,10.106,10.106,0,0,0,.7-1.73h-.964v4.526a8.554,8.554,0,0,0,.041.929H64.5a7.289,7.289,0,0,0,.041-.943V54.809c-.055.088-.061.1-.116.205a8.31,8.31,0,0,1-.7,1.08h.061a4.383,4.383,0,0,0,.554-.034v.69a5.545,5.545,0,0,0-.663-.027h-.492c-.206.225-.322.341-.506.512h.806a3.812,3.812,0,0,0,.561-.027c-.014.185-.021.321-.021.731v1.627a6.233,6.233,0,0,0,.028.7h-.718v-.24H62.181v.356h-.739a5.042,5.042,0,0,0,.041-.759V58.213c-.164.123-.253.178-.471.321a1.853,1.853,0,0,0-.383-.663A6.865,6.865,0,0,0,62.3,56.723Zm.595,1.606h1.162V57.8H62.174Zm0,1.114h1.162v-.56H62.174Zm.738-3.356a5.573,5.573,0,0,0,.485-.643,2.651,2.651,0,0,0-.321-.013h-.219v.656Z"/><path class="cls-3" d="M70.326,55.349c-.964.109-1.2.13-2,.164a2.111,2.111,0,0,0-.28-.718A15.647,15.647,0,0,0,72,54.33a2.858,2.858,0,0,0,.752-.287l.513.684c-.226.054-.233.061-.438.116a11.9,11.9,0,0,1-1.7.4v1.429h1.941a4.854,4.854,0,0,0,.793-.048v.8a5.4,5.4,0,0,0-.786-.048H71.133v2.215a4.971,4.971,0,0,0,.048.841h-.9a5.392,5.392,0,0,0,.048-.855v-2.2H68.494a5.443,5.443,0,0,0-.779.048v-.8a5,5,0,0,0,.779.048h1.832Z"/><path class="cls-3" d="M75.361,57.707c0-.349.007-.526.021-.786a4.79,4.79,0,0,1-.7.854,2.766,2.766,0,0,0-.363-.786,5.934,5.934,0,0,0,1.374-2.03,4.046,4.046,0,0,0,.267-.9l.779.267a11.081,11.081,0,0,1-.636,1.456v3.787a5.888,5.888,0,0,0,.048.827h-.841a5.339,5.339,0,0,0,.048-.84Zm3.206-1.073a5.406,5.406,0,0,0,.7,2.1c.232.383.547.725.67.725s.225-.335.294-1.149a2.8,2.8,0,0,0,.649.445c-.157,1.169-.4,1.606-.882,1.606a1.484,1.484,0,0,1-1.046-.7A5.966,5.966,0,0,1,77.8,56.7l-.725.062a4.956,4.956,0,0,0-.683.082l-.021-.766c.109.007.164.007.212.007.13,0,.349-.014.519-.027l.623-.048c-.048-.547-.048-.615-.062-1.3,0-.137-.02-.39-.034-.506l.827-.013a2.636,2.636,0,0,0-.034.512,11.044,11.044,0,0,0,.068,1.238l1.463-.117a5.333,5.333,0,0,0,.745-.095l.021.772c-.11-.007-.158-.007-.2-.007-.109,0-.28.007-.505.028Zm.718-2.454a9.569,9.569,0,0,1,1.046,1.059l-.567.52a4,4,0,0,0-.5-.6,6.886,6.886,0,0,0-.513-.526Z"/><path class="cls-3" d="M86.521,60.312v-.376H82.379v.376H81.6a7.5,7.5,0,0,0,.041-.862V55.157a6.031,6.031,0,0,0-.035-.731,7.158,7.158,0,0,0,.793.034h4.109a7.1,7.1,0,0,0,.786-.034,5.913,5.913,0,0,0-.034.724v4.3a7.348,7.348,0,0,0,.041.862Zm-4.142-3.507h1.654V55.15H82.379Zm0,2.454h1.654V57.481H82.379Zm2.392-2.454h1.744V55.15H84.771Zm0,2.454h1.744V57.481H84.771Z"/><path class="cls-3" d="M94.339,60.086a5.161,5.161,0,0,0-.745-.041H89.246v.321h-.807a6.264,6.264,0,0,0,.041-.793V55.1c0-.288-.006-.506-.027-.732a5.758,5.758,0,0,0,.738.034h4.246a4.664,4.664,0,0,0,.806-.048v.8a5.145,5.145,0,0,0-.8-.041h-4.2v4.218h4.341a3.984,3.984,0,0,0,.752-.041Zm-1.032-1.032A17.671,17.671,0,0,0,91.871,57.7a8.128,8.128,0,0,1-1.941,1.484,4.323,4.323,0,0,0-.547-.588A7.6,7.6,0,0,0,91.3,57.235a15.235,15.235,0,0,0-1.579-1.08l.519-.533c.916.6.923.608,1.552,1.066a4.938,4.938,0,0,0,.875-1.483l.752.356a3.4,3.4,0,0,0-.212.348,7.483,7.483,0,0,1-.834,1.231c.526.417.923.758,1.511,1.3Z"/><path class="cls-3" d="M96.188,56.5c.376.253.629.438.91.656a5.977,5.977,0,0,0,.171-1.162h-1.19a5.773,5.773,0,0,0-.766.041v-.813a5.453,5.453,0,0,0,.759.041H97.3c.007-.13.007-.151.007-.3a3.821,3.821,0,0,0-.055-.855H98.1a6.5,6.5,0,0,0-.055,1.156H99.2a6.343,6.343,0,0,0,.78-.034,4.37,4.37,0,0,0-.028.594l-.041,3.569c0,.075.007.116.041.136a.76.76,0,0,0,.267.041c.273,0,.355-.034.4-.17a6.232,6.232,0,0,0,.089-1.3,2.273,2.273,0,0,0,.7.28c-.034,1.046-.13,1.5-.348,1.716-.158.15-.363.2-.9.2-.813,0-1-.123-1-.629l.041-3.671H98.014a6.708,6.708,0,0,1-.274,1.689c.438.376.656.581,1,.929l-.444.663c-.335-.369-.506-.546-.848-.868a5.256,5.256,0,0,1-1.955,2.01,2.975,2.975,0,0,0-.533-.69,3.89,3.89,0,0,0,1.887-1.853,11.211,11.211,0,0,0-1.115-.827Z"/><path class="cls-3" d="M104.8,58.24c-.39.882-.827,1.285-1.388,1.285-.779,0-1.34-.793-1.34-1.893a2.937,2.937,0,0,1,.752-1.989,3.068,3.068,0,0,1,2.352-.957,2.464,2.464,0,0,1,2.707,2.536,2.632,2.632,0,0,1-1.661,2.549,4.451,4.451,0,0,1-1.074.288,2.168,2.168,0,0,0-.417-.8,3.645,3.645,0,0,0,1.361-.376,1.914,1.914,0,0,0,.95-1.709,1.694,1.694,0,0,0-.841-1.518,1.5,1.5,0,0,0-.69-.2A9.884,9.884,0,0,1,104.8,58.24Zm-1.005-2.447a2.289,2.289,0,0,0-.93,1.846c0,.56.24,1,.54,1,.226,0,.458-.288.7-.875a9.014,9.014,0,0,0,.568-2.311A1.74,1.74,0,0,0,103.794,55.793Z"/><path class="cls-3" d="M113.9,58.042a2.613,2.613,0,0,0-.451.643,5.076,5.076,0,0,1-1.647-1.737,3.091,3.091,0,0,1-.328.65,3.937,3.937,0,0,1-1.3,1.21,2.565,2.565,0,0,0-.438-.575V59.56a5.7,5.7,0,0,0,.034.813h-.84a5.772,5.772,0,0,0,.047-.827v-3.9a5.922,5.922,0,0,0-.027-.663,6.347,6.347,0,0,0,.793.035h1.675c.007-.158.007-.253.007-.37a3.579,3.579,0,0,0-.041-.6h.854a1.643,1.643,0,0,0-.041.342c-.007.095-.007.095-.02.376-.007.143-.007.143-.014.253h1.743a5.808,5.808,0,0,0,.78-.035,5.734,5.734,0,0,0-.028.663v3.917c0,.288-.02.39-.1.493-.151.191-.4.246-1.039.246-.185,0-.39-.007-.664-.021a2.521,2.521,0,0,0-.211-.779,6.356,6.356,0,0,0,.888.075c.335,0,.369-.02.369-.219Zm-4.163.109a3.108,3.108,0,0,0,1.135-1.025,3.474,3.474,0,0,0,.485-1.422h-1.62ZM112.1,55.7c-.021.171-.028.2-.048.328a4.009,4.009,0,0,0,.772,1.135,4.638,4.638,0,0,0,1.073.8V55.7Z"/><path class="cls-3" d="M118.015,59.778l-.547-.547,1.278-1.278-1.285-1.278.547-.547,1.285,1.278,1.278-1.278.547.547-1.278,1.278,1.278,1.278-.547.547L119.293,58.5Z"/><path class="cls-3" d="M121.865,57.386a4.328,4.328,0,0,0,.643.041h1.059a4.363,4.363,0,0,0,.65-.041V58.3a3.774,3.774,0,0,0-.65-.041h-1.059a3.786,3.786,0,0,0-.643.041Z"/><path class="cls-3" d="M125.517,59.778l-.547-.547,1.278-1.278-1.285-1.278.547-.547,1.285,1.278,1.278-1.278.547.547-1.278,1.278,1.278,1.278-.547.547L126.8,58.5Z"/><path class="cls-3" d="M129.367,57.386a4.328,4.328,0,0,0,.643.041h1.059a4.363,4.363,0,0,0,.65-.041V58.3a3.774,3.774,0,0,0-.65-.041H130.01a3.786,3.786,0,0,0-.643.041Z"/><path class="cls-3" d="M133.019,59.778l-.547-.547,1.278-1.278-1.285-1.278.547-.547,1.285,1.278,1.278-1.278.547.547-1.278,1.278,1.278,1.278-.547.547L134.3,58.5Z"/><path class="cls-3" d="M137.7,59.778l-.547-.547,1.279-1.278-1.286-1.278.547-.547,1.285,1.278,1.279-1.278.547.547-1.279,1.278,1.279,1.278-.547.547L138.981,58.5Z"/><path class="cls-3" d="M14.563,81.524a6.627,6.627,0,0,0-.749.037v-.694a6.5,6.5,0,0,0,.761.036h3.471a6.35,6.35,0,0,0,.761-.036v.694a6.414,6.414,0,0,0-.743-.037H16.621v2.07h1.717a4.62,4.62,0,0,0,.724-.042v.712a5.19,5.19,0,0,0-.766-.043H16.621v1.358a7.194,7.194,0,0,0,.043.785h-.773a6.809,6.809,0,0,0,.043-.785V84.221H14.308a5.8,5.8,0,0,0-.768.043v-.712a4.725,4.725,0,0,0,.749.042h1.645v-2.07Zm.128.171a6.444,6.444,0,0,1,.755,1.43l-.627.317a5.388,5.388,0,0,0-.718-1.467Zm3.818.292a6.6,6.6,0,0,1-.841,1.492l-.6-.3a4.526,4.526,0,0,0,.817-1.473Z"/><path class="cls-3" d="M24.688,82.833l-.134.323a6.651,6.651,0,0,1-.823,1.522,2.637,2.637,0,0,0,.366.524.882.882,0,0,0,.274.219c.024,0,.048-.037.079-.116a3.629,3.629,0,0,0,.115-.712,1.822,1.822,0,0,0,.548.407c-.139.823-.352,1.182-.687,1.182-.311,0-.792-.408-1.145-.98a5.618,5.618,0,0,1-1.473,1.065,2.036,2.036,0,0,0-.463-.53,4.554,4.554,0,0,0,1.637-1.12,7.6,7.6,0,0,1-.457-2.429H20.639c-.006.584-.006.584-.013.8h1.12a2.681,2.681,0,0,0,.433-.025c-.012.11-.025.28-.036.518a5.788,5.788,0,0,1-.2,1.674c-.1.243-.316.335-.785.335-.171,0-.268-.006-.463-.018a2.273,2.273,0,0,0-.158-.646,3.67,3.67,0,0,0,.591.049c.188,0,.243-.037.273-.189a6.55,6.55,0,0,0,.092-1.1H20.6a9.259,9.259,0,0,1-.189,1.528,3.283,3.283,0,0,1-.5,1.188,2.21,2.21,0,0,0-.529-.518,2.847,2.847,0,0,0,.42-.962,11.509,11.509,0,0,0,.182-2.405,5.91,5.91,0,0,0-.037-.864c.22.018.469.03.786.03H22.5c-.007-.048-.007-.207-.019-.475a1.763,1.763,0,0,0-.03-.383h.725a4.8,4.8,0,0,0-.032.578v.28h.8a2.883,2.883,0,0,0-.535-.56l.469-.3a3.328,3.328,0,0,1,.614.639l-.316.219h.182a3.334,3.334,0,0,0,.646-.037v.67c-.2-.018-.433-.03-.742-.03h-1.1a8.332,8.332,0,0,0,.28,1.82,4.187,4.187,0,0,0,.585-1.425Z"/><path class="cls-3" d="M26.068,85.506a1.715,1.715,0,0,1-.4-.615,4.056,4.056,0,0,1-.238-1.4A3.578,3.578,0,0,1,25.8,81.8a1.729,1.729,0,0,1,1.552-.846,1.771,1.771,0,0,1,1.285.493,1.715,1.715,0,0,1,.4.615,4.1,4.1,0,0,1,.238,1.413,3.2,3.2,0,0,1-.451,1.8A1.729,1.729,0,0,1,27.347,86,1.753,1.753,0,0,1,26.068,85.506Zm1.943-.469a3.075,3.075,0,0,0,0-3.123.884.884,0,0,0-.664-.256.818.818,0,0,0-.682.311,2.27,2.27,0,0,0-.4,1.479,2.748,2.748,0,0,0,.31,1.449.9.9,0,0,0,.78.4A.885.885,0,0,0,28.011,85.037Z"/><path class="cls-3" d="M30.286,85.506a1.715,1.715,0,0,1-.4-.615,4.056,4.056,0,0,1-.239-1.4,3.577,3.577,0,0,1,.373-1.687,1.728,1.728,0,0,1,1.551-.846,1.768,1.768,0,0,1,1.285.493,1.7,1.7,0,0,1,.4.615,4.1,4.1,0,0,1,.237,1.413,3.2,3.2,0,0,1-.45,1.8,1.73,1.73,0,0,1-1.48.718A1.751,1.751,0,0,1,30.286,85.506Zm1.943-.469a3.081,3.081,0,0,0,0-3.123.885.885,0,0,0-.665-.256.816.816,0,0,0-.681.311,2.27,2.27,0,0,0-.4,1.479,2.747,2.747,0,0,0,.311,1.449.969.969,0,0,0,1.438.14Z"/><path class="cls-3" d="M34.9,83.077c0-.134-.006-.225-.017-.353.128.012.261.018.425.018H36.64V81.95H35.367a5.589,5.589,0,0,1-1,1.2,2.647,2.647,0,0,0-.451-.542A3.791,3.791,0,0,0,35.1,81.08a1.758,1.758,0,0,0,.146-.445l.724.146c-.036.073-.048.092-.091.183-.006.018-.067.146-.177.384h2.85a4.222,4.222,0,0,0,.621-.031v.664a4.546,4.546,0,0,0-.621-.031H37.31v.792h.98a4.362,4.362,0,0,0,.627-.031v.646a5.556,5.556,0,0,0-.609-.024h-1v.986h1.412a4.866,4.866,0,0,0,.664-.037v.694a5.262,5.262,0,0,0-.664-.036H37.31V85.7a3.617,3.617,0,0,0,.036.651H36.6a4.5,4.5,0,0,0,.036-.664V84.94H34.594a5.3,5.3,0,0,0-.663.036v-.694a4.962,4.962,0,0,0,.663.037h.31Zm1.736,1.242v-.986h-1.1v.986Z"/><path class="cls-3" d="M47.323,85.542a1.714,1.714,0,0,1-.4-.614,4.085,4.085,0,0,1-.237-1.4,3.586,3.586,0,0,1,.371-1.686A1.731,1.731,0,0,1,48.607,81a1.772,1.772,0,0,1,1.286.493,1.7,1.7,0,0,1,.4.615,4.1,4.1,0,0,1,.237,1.412,3.2,3.2,0,0,1-.45,1.8,1.729,1.729,0,0,1-1.479.719A1.754,1.754,0,0,1,47.323,85.542Zm1.943-.468a3.083,3.083,0,0,0,0-3.124.885.885,0,0,0-.664-.255.818.818,0,0,0-.682.31,2.267,2.267,0,0,0-.4,1.48,2.748,2.748,0,0,0,.31,1.449.969.969,0,0,0,1.438.14Z"/><path class="cls-3" d="M53.289,84.422a4.486,4.486,0,0,1-.177.724,3.44,3.44,0,0,1-.718,1.206,2.373,2.373,0,0,0-.567-.56,2.307,2.307,0,0,0,.652-1.071,9.637,9.637,0,0,0,.244-2.862,8.635,8.635,0,0,0-.031-.919,6.238,6.238,0,0,0,.712.03h2.539a5.562,5.562,0,0,0,.706-.03,4.658,4.658,0,0,0-.03.688v3.945c0,.3-.067.481-.22.578a1.2,1.2,0,0,1-.706.122c-.194,0-.395-.006-.706-.024a2.228,2.228,0,0,0-.176-.682,6.105,6.105,0,0,0,.9.073c.183,0,.225-.031.225-.164V84.422Zm2.642-.621v-.816H53.41c0,.189-.012.323-.049.816Zm0-1.437V81.6H53.416v.76Z"/><path class="cls-3" d="M59.268,85.542a1.7,1.7,0,0,1-.4-.614,4.085,4.085,0,0,1-.237-1.4A3.586,3.586,0,0,1,59,81.841,1.732,1.732,0,0,1,60.552,81a1.769,1.769,0,0,1,1.285.493,1.685,1.685,0,0,1,.4.615,4.1,4.1,0,0,1,.238,1.412,3.19,3.19,0,0,1-.451,1.8,1.727,1.727,0,0,1-1.479.719A1.75,1.75,0,0,1,59.268,85.542Zm1.941-.468a3.07,3.07,0,0,0,0-3.124.879.879,0,0,0-.663-.255.82.82,0,0,0-.682.31,2.273,2.273,0,0,0-.4,1.48,2.748,2.748,0,0,0,.31,1.449.893.893,0,0,0,.78.4A.883.883,0,0,0,61.209,85.074Z"/><path class="cls-3" d="M64.411,81.628c0-.238-.013-.451-.03-.652a5.415,5.415,0,0,0,.676.031H68a4.931,4.931,0,0,0,.657-.031,5.842,5.842,0,0,0-.03.621V85.53a6.229,6.229,0,0,0,.037.737H67.93V85.9H65.1v.365h-.725a6.463,6.463,0,0,0,.037-.737Zm.688,1.436H67.93V81.652H65.1Zm0,2.2H67.93V83.7H65.1Z"/><path class="cls-3" d="M70.979,82.517a5.4,5.4,0,0,1-.828,1.278,1.83,1.83,0,0,0-.5-.517A4.424,4.424,0,0,0,70.681,81.5a3.191,3.191,0,0,0,.133-.566l.7.17a.891.891,0,0,1-.055.158,1.511,1.511,0,0,0-.06.2q-.047.138-.165.457h.993v-.463a5.014,5.014,0,0,0-.043-.73h.779a5.748,5.748,0,0,0-.036.724v.469h1.266a8.137,8.137,0,0,0,.822-.037v.67c-.262-.024-.512-.036-.8-.036H72.922v1.12h1.053a6.191,6.191,0,0,0,.749-.037v.67a6.848,6.848,0,0,0-.749-.037H72.922v1.291h1.461a6.573,6.573,0,0,0,.846-.043v.7a6.98,6.98,0,0,0-.828-.043H70.675a7.676,7.676,0,0,0-.864.043v-.7a6.993,6.993,0,0,0,.845.043h1.566V84.233h-.938a6.463,6.463,0,0,0-.737.037V83.6a5.45,5.45,0,0,0,.73.037h.945v-1.12Z"/><path class="cls-3" d="M15.245,93.432c-.188.006-.256.012-.408.024v-.268a5.916,5.916,0,0,1-1.071.591,2.31,2.31,0,0,0-.36-.56,5.236,5.236,0,0,0,1.163-.591,4.142,4.142,0,0,0-.852-.8l.5-.372c.1.08.1.08.194.159v-.634a3.491,3.491,0,0,0,.505.031h1.127a3.367,3.367,0,0,0,.523-.025,1.51,1.51,0,0,0,.377.664,3.1,3.1,0,0,0,.36-.389,1.066,1.066,0,0,0,.128-.177l.048-.079.561.31c-.019.025-.1.116-.237.28-.111.128-.3.317-.451.457.165.14.231.2.359.292a3.554,3.554,0,0,0,.633-.737l.56.317c-.036.037-.049.055-.171.189a4.7,4.7,0,0,1-.547.56,5.447,5.447,0,0,0,.974.463,2.453,2.453,0,0,0-.341.6,6.041,6.041,0,0,1-1-.548v.262a4.966,4.966,0,0,0-.584-.024v.657H18.2a3.69,3.69,0,0,0,.639-.036V94.7a4.71,4.71,0,0,0-.639-.036H17.23v.907c0,.128.006.14.1.164a1.378,1.378,0,0,0,.39.031c.335,0,.481-.031.548-.116a1.448,1.448,0,0,0,.11-.609,2.054,2.054,0,0,0,.657.213c-.134,1.029-.243,1.12-1.412,1.12-.828,0-1.023-.1-1.023-.529V94.668h-.785a2.157,2.157,0,0,1-.378.876,2.869,2.869,0,0,1-1.418.938,2.259,2.259,0,0,0-.433-.6,2.52,2.52,0,0,0,1.126-.541,1.379,1.379,0,0,0,.433-.676h-.78a3.923,3.923,0,0,0-.638.036v-.651a3.712,3.712,0,0,0,.638.036h.871c.006-.079.006-.121.006-.188Zm-.463-1.839a2.606,2.606,0,0,0-.371.025,5.253,5.253,0,0,1,.664.627,4.046,4.046,0,0,0,.6-.652Zm2.43,1.266h.128a5.073,5.073,0,0,1-1.035-1.1,5.084,5.084,0,0,1-1.03,1.1h1.937Zm-1.327,1.09v.14H16.6v-.657h-.706Z"/><path class="cls-3" d="M20.31,94.613c0-.256,0-.292.012-.706a2.975,2.975,0,0,1-.554.517,2.774,2.774,0,0,0-.3-.651,4.372,4.372,0,0,0,1.5-1.607l.572.377a2.223,2.223,0,0,0-.2.268c-.141.2-.195.28-.354.475v2.4a5.151,5.151,0,0,0,.043.767h-.754a5.355,5.355,0,0,0,.042-.774Zm1.132-3.4c-.067.074-.067.074-.182.208a5.8,5.8,0,0,1-1.4,1.217,2.8,2.8,0,0,0-.383-.572,3.818,3.818,0,0,0,1.089-.834,2.12,2.12,0,0,0,.292-.426Zm.822,2.095a6.534,6.534,0,0,0-.748.036v-.681a6.319,6.319,0,0,0,.748.036h2.07a5.437,5.437,0,0,0,.743-.036v.681a6.4,6.4,0,0,0-.724-.036h-.262v2.423c0,.524-.177.651-.913.651-.207,0-.39,0-.676-.018a2.451,2.451,0,0,0-.177-.682,7.094,7.094,0,0,0,.828.068c.243,0,.274-.013.274-.147V93.3Zm-.5-2.192a5.093,5.093,0,0,0,.712.037h1.644a5.047,5.047,0,0,0,.694-.037v.676a6.062,6.062,0,0,0-.682-.037H22.471a6.315,6.315,0,0,0-.712.037Z"/><path class="cls-3" d="M48.161,91.654a6.9,6.9,0,0,0-.749.036V91a6.5,6.5,0,0,0,.761.036h3.471A6.331,6.331,0,0,0,52.4,91v.693a6.642,6.642,0,0,0-.742-.036H50.219v2.07h1.717a4.62,4.62,0,0,0,.724-.042v.712a5.19,5.19,0,0,0-.766-.043H50.219v1.358a6.965,6.965,0,0,0,.043.785h-.774a6.592,6.592,0,0,0,.043-.785V94.351H47.905a5.781,5.781,0,0,0-.767.043v-.712a4.717,4.717,0,0,0,.749.042h1.644v-2.07Zm.128.171a6.444,6.444,0,0,1,.755,1.43l-.627.317A5.411,5.411,0,0,0,47.7,92.1Zm3.817.292a6.534,6.534,0,0,1-.84,1.491l-.6-.3a4.506,4.506,0,0,0,.816-1.473Z"/><path class="cls-3" d="M58.407,92.963c-.037.091-.037.091-.134.323a6.614,6.614,0,0,1-.822,1.522,2.623,2.623,0,0,0,.365.524.893.893,0,0,0,.275.219c.023,0,.048-.037.079-.116a3.629,3.629,0,0,0,.115-.712,1.81,1.81,0,0,0,.548.407c-.14.823-.353,1.182-.687,1.182-.311,0-.792-.408-1.145-.98A5.623,5.623,0,0,1,55.527,96.4a2.017,2.017,0,0,0-.463-.53,4.571,4.571,0,0,0,1.638-1.12,7.518,7.518,0,0,1-.456-2.429H54.358c0,.584,0,.584-.012.8h1.121A2.653,2.653,0,0,0,55.9,93.1c-.011.11-.024.28-.036.518a5.774,5.774,0,0,1-.2,1.674c-.1.243-.316.335-.785.335-.171,0-.269-.006-.463-.019a2.275,2.275,0,0,0-.158-.645,3.792,3.792,0,0,0,.591.049c.188,0,.243-.037.273-.189a6.659,6.659,0,0,0,.092-1.1h-.89a9.277,9.277,0,0,1-.188,1.528,3.326,3.326,0,0,1-.5,1.188,2.232,2.232,0,0,0-.53-.518,2.847,2.847,0,0,0,.42-.962,11.424,11.424,0,0,0,.183-2.4,5.91,5.91,0,0,0-.037-.864c.22.018.469.03.786.03h1.766c-.007-.048-.007-.207-.019-.475a1.921,1.921,0,0,0-.03-.384H56.9a5.082,5.082,0,0,0-.031.579v.28h.8a2.883,2.883,0,0,0-.535-.56l.469-.3a3.394,3.394,0,0,1,.614.64l-.317.219h.183a3.329,3.329,0,0,0,.645-.037v.67c-.2-.018-.432-.03-.742-.03h-1.1a8.211,8.211,0,0,0,.28,1.82,4.187,4.187,0,0,0,.585-1.425Z"/><path class="cls-3" d="M60.142,96.032a5.7,5.7,0,0,0-.786.03,3.131,3.131,0,0,1,.159-.779,3,3,0,0,1,.834-1.194,8.409,8.409,0,0,1,1.005-.736c.559-.384.73-.585.73-.895,0-.414-.323-.67-.841-.67a.859.859,0,0,0-.772.359,1.155,1.155,0,0,0-.19.561l-.87-.1a1.819,1.819,0,0,1,.42-.974,1.772,1.772,0,0,1,1.395-.542c1.065,0,1.722.511,1.722,1.346a1.239,1.239,0,0,1-.432.974,7.619,7.619,0,0,1-1.023.748,5.408,5.408,0,0,0-.724.609,1.463,1.463,0,0,0-.347.548h1.7a6.515,6.515,0,0,0,.89-.048v.8c-.287-.024-.531-.036-.92-.036Z"/><path class="cls-3" d="M67.323,91.861a4.174,4.174,0,0,0-.633.877,7.851,7.851,0,0,0-1.132,3.294H64.6a9.074,9.074,0,0,1,.737-2.357A10,10,0,0,1,66.4,91.9H64.517a5.875,5.875,0,0,0-.8.042v-.8a6.783,6.783,0,0,0,.834.043h1.935a6.759,6.759,0,0,0,.834-.031Z"/><path class="cls-3" d="M68.989,93.207c0-.134-.006-.226-.017-.353.128.012.261.018.425.018h1.328V92.08H69.452a5.589,5.589,0,0,1-1,1.2A2.652,2.652,0,0,0,68,92.738a3.787,3.787,0,0,0,1.188-1.529,1.782,1.782,0,0,0,.146-.444l.724.146c-.036.073-.048.091-.091.183-.006.018-.068.146-.177.384h2.85a4.222,4.222,0,0,0,.621-.031v.664a4.39,4.39,0,0,0-.621-.031H71.4v.792h.98A4.362,4.362,0,0,0,73,92.841v.646a5.525,5.525,0,0,0-.609-.025h-1v.987h1.412a4.866,4.866,0,0,0,.664-.037v.694a5.262,5.262,0,0,0-.664-.036H71.4v.761a3.617,3.617,0,0,0,.036.651h-.743a4.335,4.335,0,0,0,.037-.664V95.07H68.68a5.307,5.307,0,0,0-.664.036v-.694a4.968,4.968,0,0,0,.664.037h.309Zm1.736,1.242v-.987h-1.1v.987Z"/><path class="cls-3" d="M75.607,96.032a5.013,5.013,0,0,0,.048-.792V91.885h-.292a5.3,5.3,0,0,0-.627.037v-.773a3.435,3.435,0,0,0,.61.037h.559a4.455,4.455,0,0,0,.621-.031,9.3,9.3,0,0,0-.048,1V95.24a5.185,5.185,0,0,0,.048.792Z"/><path class="cls-3" d="M79.021,95.636a1.7,1.7,0,0,1-.4-.615,4.056,4.056,0,0,1-.238-1.4,3.578,3.578,0,0,1,.372-1.687,1.729,1.729,0,0,1,1.552-.846,1.769,1.769,0,0,1,1.285.493,1.715,1.715,0,0,1,.4.615,4.1,4.1,0,0,1,.238,1.412,3.2,3.2,0,0,1-.451,1.8,1.727,1.727,0,0,1-1.479.718A1.753,1.753,0,0,1,79.021,95.636Zm1.942-.469a3.075,3.075,0,0,0,0-3.123.88.88,0,0,0-.664-.256.818.818,0,0,0-.682.311,2.276,2.276,0,0,0-.4,1.479,2.748,2.748,0,0,0,.31,1.449.9.9,0,0,0,.78.4A.883.883,0,0,0,80.963,95.167Z"/><path class="cls-3" d="M84.23,94.552a4.523,4.523,0,0,1-.176.724,3.428,3.428,0,0,1-.719,1.206,2.369,2.369,0,0,0-.566-.56,2.314,2.314,0,0,0,.651-1.071,9.6,9.6,0,0,0,.244-2.862,8.988,8.988,0,0,0-.03-.919,6.216,6.216,0,0,0,.712.03h2.539a5.562,5.562,0,0,0,.706-.03,4.512,4.512,0,0,0-.03.688V95.7c0,.3-.068.481-.22.578a1.2,1.2,0,0,1-.706.122c-.2,0-.4-.006-.706-.025a2.222,2.222,0,0,0-.177-.681,6.105,6.105,0,0,0,.9.073c.183,0,.225-.031.225-.165V94.552Zm2.642-.621v-.816h-2.52c0,.189-.012.323-.049.816Zm0-1.437v-.761H84.357v.761Z"/><path class="cls-3" d="M92.175,96.032a6.1,6.1,0,0,0-.39-.652l-1.571-2.368c-.115-.183-.268-.445-.414-.731.007.085.007.085.024.311.007.116.019.389.019.53v2a6.658,6.658,0,0,0,.049.914H89a6.659,6.659,0,0,0,.049-.92V91.971A5.121,5.121,0,0,0,89,91.186h.949a3.416,3.416,0,0,0,.372.645l1.54,2.319c.146.22.341.536.475.78-.025-.238-.043-.6-.043-.859V92.025a5.391,5.391,0,0,0-.048-.839h.889a5.245,5.245,0,0,0-.049.839v3.221a4.555,4.555,0,0,0,.049.786Z"/><path class="cls-3" d="M97.178,96.032a6.1,6.1,0,0,0-.39-.652l-1.571-2.368c-.115-.183-.268-.445-.414-.731.007.085.007.085.024.311.007.116.019.389.019.53v2a6.658,6.658,0,0,0,.049.914h-.889a6.659,6.659,0,0,0,.049-.92V91.971a5.121,5.121,0,0,0-.049-.785h.949a3.453,3.453,0,0,0,.371.645l1.541,2.319c.146.22.341.536.475.78-.025-.238-.043-.6-.043-.859V92.025a5.391,5.391,0,0,0-.048-.839h.889a5.245,5.245,0,0,0-.049.839v3.221a4.555,4.555,0,0,0,.049.786Z"/><path class="cls-3" d="M99.508,91.758c0-.238-.013-.451-.03-.652a5.408,5.408,0,0,0,.675.031H103.1a4.94,4.94,0,0,0,.657-.031,5.578,5.578,0,0,0-.03.621V95.66a6.021,6.021,0,0,0,.037.737h-.738v-.365H100.2V96.4h-.724a6.463,6.463,0,0,0,.037-.737Zm.687,1.436h2.831V91.782H100.2Zm0,2.2h2.831V93.833H100.2Z"/><path class="cls-3" d="M82.953,83.3a5.47,5.47,0,0,0,.219-1.583l.493.061a7.6,7.6,0,0,1-.225,1.7Zm.774,2.862a5.911,5.911,0,0,0,.042-.768V81.161a4.1,4.1,0,0,0-.042-.645h.73a4.981,4.981,0,0,0-.037.645v4.286a5.985,5.985,0,0,0,.037.719Zm2.69-4.378v-.609a4.146,4.146,0,0,0-.042-.645h.736a4.085,4.085,0,0,0-.043.645v.609h.713a4.215,4.215,0,0,0,.67-.037v.676a5.684,5.684,0,0,0-.664-.036h-.719v1.065h.61a4.645,4.645,0,0,0,.657-.03v.657a4.606,4.606,0,0,0-.663-.036h-.6v1.29H87.9a5.545,5.545,0,0,0,.713-.036v.688a4.837,4.837,0,0,0-.713-.043H85.449a4.879,4.879,0,0,0-.719.043V85.3a5.6,5.6,0,0,0,.719.036h.968v-1.29h-.548a5.128,5.128,0,0,0-.676.036v-.657l.1.012a3.816,3.816,0,0,0-.548-.341,2.472,2.472,0,0,0,.322-.609l-.352.171a3.553,3.553,0,0,0-.28-.908l.408-.194a5.022,5.022,0,0,1,.279.773,5.148,5.148,0,0,0,.262-1.407l.651.122a1.938,1.938,0,0,0-.042.22c-.018.115-.061.365-.092.523Zm-.663.6a4.5,4.5,0,0,1-.439,1.047c.134.012.268.018.463.018h.639V82.391Z"/><path class="cls-3" d="M90.575,83.937a4.143,4.143,0,0,1-.347,1.242,3.106,3.106,0,0,1-.707.956,1.862,1.862,0,0,0-.456-.6,2.384,2.384,0,0,0,.84-1.6,7.221,7.221,0,0,0,.1-1.175,5.873,5.873,0,0,0-.676.025,6.47,6.47,0,0,0,.024-.664v-.737c0-.31,0-.438-.024-.67a5.948,5.948,0,0,0,.761.031h1.23a5.224,5.224,0,0,0,.748-.031c-.017.214-.024.347-.024.646v.791a4.835,4.835,0,0,0,.024.634c-.2-.019-.42-.025-.766-.025h-.64c-.006.329-.012.36-.024.591h.84a3.767,3.767,0,0,0,.579-.031c-.013.122-.013.183-.019.427a8.453,8.453,0,0,1-.152,1.887c-.1.328-.268.42-.791.42-.134,0-.275-.006-.542-.031a1.894,1.894,0,0,0-.153-.669,4.24,4.24,0,0,0,.64.061c.17,0,.237-.043.262-.165a7.418,7.418,0,0,0,.09-1.315ZM90,82.19h1.412v-.871H90Zm3.245-1.285a4.642,4.642,0,0,0-.037.743v2.3a5.157,5.157,0,0,0,.03.725h-.7a4.7,4.7,0,0,0,.031-.713V81.648a5.486,5.486,0,0,0-.037-.743Zm1.339-.31a6.454,6.454,0,0,0-.042.828v3.89c0,.615-.171.737-1.06.737-.133,0-.219-.006-.506-.018a2.643,2.643,0,0,0-.207-.682,7.767,7.767,0,0,0,.829.061c.231,0,.292-.037.292-.183v-3.8a7.339,7.339,0,0,0-.042-.828Z"/><path class="cls-3" d="M102.58,83.347a6.641,6.641,0,0,0-.683.03,3.84,3.84,0,0,0,.038-.609V81.362a5.468,5.468,0,0,0-.031-.633,4.474,4.474,0,0,0,.633.03h3.2a4.457,4.457,0,0,0,.633-.03,6.053,6.053,0,0,0-.024.633v1.406c0,.262.007.414.024.6-.188-.018-.377-.024-.6-.024h-1.388c-.019.225-.03.328-.061.517H105.9c.238,0,.42-.006.658-.024-.019.121-.025.188-.055.5a6.724,6.724,0,0,1-.177,1.151c-.128.45-.359.566-1.12.566-.207,0-.28-.006-.706-.03a2.355,2.355,0,0,0-.165-.664,6.9,6.9,0,0,0,.956.079c.408,0,.427-.024.53-1.005h-1.68a2.705,2.705,0,0,1-.92,1.1,4.427,4.427,0,0,1-1.5.627,2.266,2.266,0,0,0-.39-.6,4.426,4.426,0,0,0,1.333-.439,1.906,1.906,0,0,0,.761-.688H102.27a4.7,4.7,0,0,0-.719.037v-.646a6.869,6.869,0,0,0,.724.031h1.371a2.674,2.674,0,0,0,.054-.517Zm0-2.052v.517h1.2V81.3Zm0,1.017v.511h1.2v-.511Zm3.117-.5V81.3h-1.285v.517Zm0,1.011v-.511h-1.285v.511Z"/><path class="cls-3" d="M47.691,28.161a2.108,2.108,0,0,1-.387-.724,5.762,5.762,0,0,1-.229-1.65,4.99,4.99,0,0,1,.359-1.986,1.624,1.624,0,0,1,1.5-1,1.551,1.551,0,0,1,1.239.581,2.111,2.111,0,0,1,.388.724,5.82,5.82,0,0,1,.228,1.664,4.43,4.43,0,0,1-.434,2.123,1.587,1.587,0,0,1-1.427.846A1.544,1.544,0,0,1,47.691,28.161Zm1.874-.552a3.212,3.212,0,0,0,.412-1.843,3.228,3.228,0,0,0-.412-1.836.773.773,0,0,0-.639-.3.741.741,0,0,0-.658.366,3.113,3.113,0,0,0-.388,1.743,3.805,3.805,0,0,0,.3,1.707.824.824,0,0,0,.752.466A.779.779,0,0,0,49.565,27.609Z"/><path class="cls-3" d="M52.536,28.627a7.291,7.291,0,0,0,.047-.932V23.743H52.3a4.258,4.258,0,0,0-.606.043v-.911a2.687,2.687,0,0,0,.588.043h.54a3.6,3.6,0,0,0,.6-.035c-.035.423-.047.753-.047,1.183V27.7a7.362,7.362,0,0,0,.047.932Z"/><path class="cls-3" d="M55.817,28.627a4.391,4.391,0,0,0-.757.036,4.387,4.387,0,0,1,.152-.918,3.65,3.65,0,0,1,.8-1.406,8.412,8.412,0,0,1,.969-.867c.54-.452.705-.689.705-1.055a.742.742,0,0,0-.81-.789.786.786,0,0,0-.746.424,1.543,1.543,0,0,0-.183.659l-.84-.122a2.392,2.392,0,0,1,.406-1.147,1.563,1.563,0,0,1,1.345-.638,1.5,1.5,0,0,1,1.662,1.585,1.613,1.613,0,0,1-.417,1.147,7.562,7.562,0,0,1-.987.882,5.689,5.689,0,0,0-.7.717,1.819,1.819,0,0,0-.334.646h1.644a5.17,5.17,0,0,0,.858-.057v.946a7.963,7.963,0,0,0-.887-.043Z"/><path class="cls-3" d="M59.775,27.071a.957.957,0,0,0,.987.867.881.881,0,0,0,.952-.932.892.892,0,0,0-.329-.753,1.3,1.3,0,0,0-.676-.172,4.067,4.067,0,0,0-.628.036v-.889a3.371,3.371,0,0,0,.569.036.835.835,0,0,0,.935-.883.7.7,0,0,0-.775-.774.862.862,0,0,0-.641.222,1.129,1.129,0,0,0-.247.552l-.84-.172a1.832,1.832,0,0,1,.559-1.025,1.658,1.658,0,0,1,1.151-.394,1.477,1.477,0,0,1,1.615,1.534,1.435,1.435,0,0,1-.4,1.054,1.326,1.326,0,0,1-.57.28,1.166,1.166,0,0,1,.84.481,1.569,1.569,0,0,1,.282.989,1.7,1.7,0,0,1-.353,1.047,1.813,1.813,0,0,1-1.445.581,1.672,1.672,0,0,1-1.491-.681,2.041,2.041,0,0,1-.329-.8Z"/><path class="cls-3" d="M72.332,27.351a3.7,3.7,0,0,0-.588-.051h-.211v.51a5.45,5.45,0,0,0,.047.817h-.834a5.6,5.6,0,0,0,.047-.832v-.5H69.165a6.571,6.571,0,0,0-.734.029v-.882c.2-.265.264-.359.47-.66l1.392-2.079a6.824,6.824,0,0,0,.488-.79h.793c-.035.416-.041.667-.041,1.212v2.353h.2a3.261,3.261,0,0,0,.594-.05ZM70.8,25.005c0-.337.006-.566.029-.86-.118.208-.188.323-.4.638L69.3,26.49h1.5Z"/><path class="cls-3" d="M73.4,27.143a1.061,1.061,0,0,0,.177.416.823.823,0,0,0,.722.365c.582,0,.964-.473.964-1.183s-.365-1.155-.922-1.155a.936.936,0,0,0-.729.33.834.834,0,0,0-.176.323l-.735-.086c.059-.509.065-.545.076-.746l.136-1.779c.006-.128.018-.373.024-.731.175.014.311.021.622.021H75a3.7,3.7,0,0,0,.817-.057v.9a4.637,4.637,0,0,0-.811-.057h-1.38l-.095,1.254c-.006.058-.017.158-.035.3a1.3,1.3,0,0,1,1-.438,1.374,1.374,0,0,1,1.145.538,1.986,1.986,0,0,1,.417,1.348c0,1.263-.675,2.044-1.768,2.044a1.569,1.569,0,0,1-1.339-.624,2.245,2.245,0,0,1-.37-.781Z"/><path class="cls-3" d="M79.206,24.317c-.152-.524-.37-.724-.787-.724a.993.993,0,0,0-.923.745,3.755,3.755,0,0,0-.24,1.27,1.29,1.29,0,0,1,1.257-.717,1.473,1.473,0,0,1,1.363.853,2.43,2.43,0,0,1,.211,1.076,1.757,1.757,0,0,1-1.7,1.936,1.646,1.646,0,0,1-1.193-.473,3.573,3.573,0,0,1-.681-2.4,4.57,4.57,0,0,1,.481-2.216,1.589,1.589,0,0,1,1.434-.853,1.47,1.47,0,0,1,1.2.545,2.168,2.168,0,0,1,.37.731Zm-1.833,2.5a1.036,1.036,0,0,0,.993,1.133.9.9,0,0,0,.805-.5,1.442,1.442,0,0,0,.135-.653c0-.71-.347-1.126-.928-1.126A1.055,1.055,0,0,0,77.373,26.82Z"/><path class="cls-3" d="M83.962,23.714a4.967,4.967,0,0,0-.61,1.033,10.641,10.641,0,0,0-1.093,3.88H81.33a12.467,12.467,0,0,1,.711-2.775,12.673,12.673,0,0,1,1.028-2.087H81.254a4.607,4.607,0,0,0-.77.05v-.947a5.318,5.318,0,0,0,.805.05h1.868a5.45,5.45,0,0,0,.805-.035Z"/><path class="cls-3" d="M90.48,25.242a1.561,1.561,0,0,1-.288-.947,1.467,1.467,0,0,1,1.64-1.5,1.547,1.547,0,0,1,1.486.782,1.654,1.654,0,0,1,.159.717,1.315,1.315,0,0,1-.846,1.342,1.029,1.029,0,0,1,.634.337,1.5,1.5,0,0,1,.411,1.118c0,1.069-.657,1.657-1.862,1.657a1.8,1.8,0,0,1-1.486-.574,1.674,1.674,0,0,1-.341-1.075,1.477,1.477,0,0,1,.482-1.177,1.151,1.151,0,0,1,.581-.286A1.1,1.1,0,0,1,90.48,25.242Zm2.368,1.779a.908.908,0,0,0-1.016-.954.918.918,0,0,0-1.022.961.891.891,0,0,0,1.01.932C92.478,27.96,92.848,27.623,92.848,27.021ZM90.979,24.4a.8.8,0,0,0,.865.853.839.839,0,1,0-.865-.853Z"/><path class="cls-3" d="M94.86,27.243a1.266,1.266,0,0,0,.183.394.907.907,0,0,0,1.339,0,2.687,2.687,0,0,0,.458-1.706,1.328,1.328,0,0,1-.311.408,1.392,1.392,0,0,1-.952.33c-.975,0-1.6-.731-1.6-1.886a2.017,2.017,0,0,1,.747-1.685,1.653,1.653,0,0,1,1.027-.316A1.73,1.73,0,0,1,97.369,24.2a5.564,5.564,0,0,1,.17,1.485,4.165,4.165,0,0,1-.622,2.488,1.472,1.472,0,0,1-1.252.545,1.5,1.5,0,0,1-1.134-.416,2.043,2.043,0,0,1-.481-.8Zm1.845-2.517a1.036,1.036,0,0,0-.987-1.155c-.564,0-.957.488-.957,1.176s.364,1.148.933,1.148A1.074,1.074,0,0,0,96.705,24.726Z"/><path class="cls-3" d="M98.494,28.161a2.111,2.111,0,0,1-.388-.724,5.8,5.8,0,0,1-.228-1.65,5.01,5.01,0,0,1,.358-1.986,1.626,1.626,0,0,1,1.5-1,1.553,1.553,0,0,1,1.24.581,2.108,2.108,0,0,1,.387.724,5.785,5.785,0,0,1,.229,1.664,4.417,4.417,0,0,1-.435,2.123,1.585,1.585,0,0,1-1.426.846A1.544,1.544,0,0,1,98.494,28.161Zm1.874-.552a3.213,3.213,0,0,0,.411-1.843,3.229,3.229,0,0,0-.411-1.836.773.773,0,0,0-.639-.3.742.742,0,0,0-.659.366,3.122,3.122,0,0,0-.387,1.743,3.822,3.822,0,0,0,.3,1.707.826.826,0,0,0,.752.466A.78.78,0,0,0,100.368,27.609Z"/><path class="cls-3" d="M103.339,28.627a7.291,7.291,0,0,0,.047-.932V23.743H103.1a4.258,4.258,0,0,0-.606.043v-.911a2.687,2.687,0,0,0,.588.043h.54a3.6,3.6,0,0,0,.6-.035c-.036.423-.047.753-.047,1.183V27.7a7.18,7.18,0,0,0,.047.932Z"/><path class="cls-3" d="M124.8,95.632a5.577,5.577,0,0,0,.035-.7V91.953h-.212a3.169,3.169,0,0,0-.456.033V91.3a2.021,2.021,0,0,0,.442.032h.408a2.608,2.608,0,0,0,.451-.027c-.027.319-.035.567-.035.891V94.93a5.443,5.443,0,0,0,.035.7Z"/><path class="cls-3" d="M127.542,95.632a3.289,3.289,0,0,0-.57.027,3.315,3.315,0,0,1,.114-.692,2.754,2.754,0,0,1,.606-1.058,6.393,6.393,0,0,1,.731-.654c.407-.34.531-.519.531-.794a.559.559,0,0,0-.611-.594.593.593,0,0,0-.562.319,1.18,1.18,0,0,0-.137.5l-.633-.092a1.8,1.8,0,0,1,.305-.864,1.18,1.18,0,0,1,1.014-.481,1.132,1.132,0,0,1,1.252,1.193,1.221,1.221,0,0,1-.314.865,5.765,5.765,0,0,1-.744.664,4.148,4.148,0,0,0-.526.54,1.36,1.36,0,0,0-.252.486h1.238a3.836,3.836,0,0,0,.647-.043v.713a6.032,6.032,0,0,0-.668-.032Z"/><path class="cls-3" d="M130.789,94.459a.721.721,0,0,0,.743.654.663.663,0,0,0,.717-.7.674.674,0,0,0-.248-.567.966.966,0,0,0-.509-.13,3.177,3.177,0,0,0-.473.027v-.67a2.448,2.448,0,0,0,.429.027.627.627,0,0,0,.7-.664.528.528,0,0,0-.584-.583.648.648,0,0,0-.482.167.855.855,0,0,0-.186.416l-.632-.13a1.371,1.371,0,0,1,.421-.772,1.251,1.251,0,0,1,.867-.3,1.112,1.112,0,0,1,1.216,1.156,1.081,1.081,0,0,1-.3.794,1.018,1.018,0,0,1-.429.211.879.879,0,0,1,.633.361,1.192,1.192,0,0,1,.212.746,1.286,1.286,0,0,1-.266.789,1.366,1.366,0,0,1-1.089.437,1.26,1.26,0,0,1-1.123-.513,1.551,1.551,0,0,1-.248-.6Z"/><path class="cls-3" d="M136.262,94.67a2.869,2.869,0,0,0-.443-.038h-.159v.384a4.164,4.164,0,0,0,.035.616h-.628a4.129,4.129,0,0,0,.036-.627v-.373h-1.226a4.909,4.909,0,0,0-.553.022V93.99c.151-.2.2-.27.354-.5l1.049-1.567a5.19,5.19,0,0,0,.367-.594h.6c-.026.314-.031.5-.031.913v1.772h.155a2.393,2.393,0,0,0,.447-.038ZM135.107,92.9c0-.254,0-.427.022-.648-.088.156-.141.243-.3.48l-.849,1.286h1.128Z"/><path class="cls-3" d="M137.333,94.514a.784.784,0,0,0,.133.313.618.618,0,0,0,.544.276c.438,0,.725-.357.725-.892s-.274-.87-.694-.87a.7.7,0,0,0-.549.249.644.644,0,0,0-.133.243l-.553-.065c.045-.383.048-.411.057-.561l.1-1.34c0-.1.013-.281.017-.551.133.011.235.016.469.016h1.089a2.761,2.761,0,0,0,.615-.043v.68a3.539,3.539,0,0,0-.611-.043h-1.04l-.07.946c0,.043-.014.118-.027.226a.981.981,0,0,1,.757-.329,1.033,1.033,0,0,1,.862.405,1.5,1.5,0,0,1,.315,1.015c0,.951-.509,1.54-1.332,1.54a1.179,1.179,0,0,1-1.009-.47,1.674,1.674,0,0,1-.279-.589Z"/><path class="cls-3" d="M141.975,92.385c-.116-.394-.28-.545-.594-.545a.746.746,0,0,0-.694.561,2.811,2.811,0,0,0-.182.956.973.973,0,0,1,.947-.54,1.111,1.111,0,0,1,1.027.643,1.837,1.837,0,0,1,.159.811,1.324,1.324,0,0,1-1.284,1.458,1.243,1.243,0,0,1-.9-.356,2.7,2.7,0,0,1-.513-1.81,3.438,3.438,0,0,1,.363-1.669,1.2,1.2,0,0,1,1.08-.643,1.107,1.107,0,0,1,.907.411,1.621,1.621,0,0,1,.278.55Zm-1.381,1.886a.781.781,0,0,0,.748.853.677.677,0,0,0,.6-.378,1.077,1.077,0,0,0,.1-.492c0-.534-.262-.848-.7-.848A.794.794,0,0,0,140.594,94.271Z"/><path class="cls-3" d="M145.822,91.932a3.767,3.767,0,0,0-.46.777,8.062,8.062,0,0,0-.823,2.923h-.7a9.354,9.354,0,0,1,.536-2.09,9.459,9.459,0,0,1,.774-1.573h-1.368a3.466,3.466,0,0,0-.579.038v-.713a4.011,4.011,0,0,0,.607.038h1.407a3.945,3.945,0,0,0,.6-.027Z"/><path class="cls-3" d="M146.747,93.082a1.169,1.169,0,0,1-.217-.713,1.1,1.1,0,0,1,1.235-1.129,1.167,1.167,0,0,1,1.12.589,1.249,1.249,0,0,1,.119.54.987.987,0,0,1-.638,1.01.786.786,0,0,1,.479.254,1.128,1.128,0,0,1,.309.843c0,.805-.5,1.248-1.4,1.248a1.357,1.357,0,0,1-1.12-.432,1.267,1.267,0,0,1-.257-.811,1.112,1.112,0,0,1,.363-.886.876.876,0,0,1,.438-.216A.82.82,0,0,1,146.747,93.082Zm1.783,1.34a.685.685,0,0,0-.765-.719.692.692,0,0,0-.77.724.671.671,0,0,0,.761.7C148.252,95.129,148.53,94.875,148.53,94.422Zm-1.407-1.977a.6.6,0,0,0,.65.642.632.632,0,1,0-.65-.642Z"/><path class="cls-3" d="M150.313,94.589a.954.954,0,0,0,.137.3.684.684,0,0,0,1.009,0,2.027,2.027,0,0,0,.346-1.285,1,1,0,0,1-.235.308,1.051,1.051,0,0,1-.716.248c-.736,0-1.205-.551-1.205-1.421a1.524,1.524,0,0,1,.562-1.269,1.256,1.256,0,0,1,.774-.238,1.3,1.3,0,0,1,1.218,1.064,4.185,4.185,0,0,1,.128,1.119,3.138,3.138,0,0,1-.469,1.874,1.108,1.108,0,0,1-.942.41,1.131,1.131,0,0,1-.855-.313,1.554,1.554,0,0,1-.363-.6Zm1.39-1.9a.781.781,0,0,0-.744-.869c-.425,0-.721.367-.721.885s.275.865.7.865A.809.809,0,0,0,151.7,92.693Z"/><path class="cls-3" d="M153.317,95.281a1.6,1.6,0,0,1-.292-.546,4.34,4.34,0,0,1-.172-1.242,3.761,3.761,0,0,1,.27-1.5,1.223,1.223,0,0,1,1.128-.751,1.172,1.172,0,0,1,.934.437,1.6,1.6,0,0,1,.292.546,4.362,4.362,0,0,1,.172,1.253,3.337,3.337,0,0,1-.327,1.6,1.2,1.2,0,0,1-1.075.637A1.162,1.162,0,0,1,153.317,95.281Zm1.412-.416a3.251,3.251,0,0,0,0-2.771.584.584,0,0,0-.482-.227.558.558,0,0,0-.5.275,2.355,2.355,0,0,0-.292,1.313,2.866,2.866,0,0,0,.226,1.285.621.621,0,0,0,.566.352A.589.589,0,0,0,154.729,94.865Z"/><path class="cls-3" d="M137.851,83.46a2.715,2.715,0,1,1-2.715-2.714A2.715,2.715,0,0,1,137.851,83.46Zm-4.725,0a2.01,2.01,0,1,0,2.017-2.01A2.01,2.01,0,0,0,133.126,83.46Z"/><path class="cls-3" d="M144.05,83.46a2.715,2.715,0,1,1-2.715-2.714A2.715,2.715,0,0,1,144.05,83.46Zm-4.725,0a2.011,2.011,0,1,0,2.017-2.01A2.01,2.01,0,0,0,139.325,83.46Z"/><path class="cls-3" d="M150.238,86a4.591,4.591,0,0,0-.662-.036h-3.862v.285H145a5.747,5.747,0,0,0,.036-.7V81.572c0-.255-.006-.449-.024-.65a5.105,5.105,0,0,0,.656.031h3.772a4.251,4.251,0,0,0,.716-.043v.711a4.472,4.472,0,0,0-.711-.037h-3.728v3.747h3.856a3.46,3.46,0,0,0,.668-.037Zm-.917-.917a15.244,15.244,0,0,0-1.275-1.2,7.218,7.218,0,0,1-1.725,1.317,3.983,3.983,0,0,0-.486-.522,6.726,6.726,0,0,0,1.707-1.208,13.738,13.738,0,0,0-1.4-.96l.462-.474c.813.535.819.541,1.378.948a4.4,4.4,0,0,0,.777-1.318l.668.316a3.1,3.1,0,0,0-.188.31,6.67,6.67,0,0,1-.741,1.093c.468.37.819.674,1.342,1.16Z"/><path class="cls-3" d="M155.915,84.262c-.049.037-.121.1-.347.3a3.918,3.918,0,0,1-.583.419,5.37,5.37,0,0,0,1.592.54,2.99,2.99,0,0,0-.322.7,5.268,5.268,0,0,1-2.187-1.057,3.236,3.236,0,0,1-.928-1.2h-.529v1.378a10.4,10.4,0,0,0,1.221-.328l.006.608a17.792,17.792,0,0,1-2.374.583c-.147.03-.164.03-.274.06l-.128-.68a6,6,0,0,0,.863-.109V83.965H151.6a3.857,3.857,0,0,0-.619.036v-.656a3.815,3.815,0,0,0,.631.037h.316v-1.92a4.554,4.554,0,0,0-.025-.6,4.758,4.758,0,0,0,.662.031h2.721a4.035,4.035,0,0,0,.705-.037V81.5a5.045,5.045,0,0,0-.7-.03h-2.666v.3H155.2a4.221,4.221,0,0,0,.559-.03v.552a5.3,5.3,0,0,0-.559-.03h-2.575v.3H155.2a3.9,3.9,0,0,0,.559-.031v.559a3.67,3.67,0,0,0-.559-.03h-2.575v.322h3.237a3.762,3.762,0,0,0,.6-.037V84a3.565,3.565,0,0,0-.547-.036h-.571Zm-2.089-.3a1.9,1.9,0,0,0,.638.7,4.39,4.39,0,0,0,.813-.7Z"/><path class="cls-4" d="M64.545,9.024a3.226,3.226,0,0,0,.587.039h.541a3.342,3.342,0,0,0,.587-.039,7.575,7.575,0,0,0-.031.842v1.652a1.167,1.167,0,0,0,.377.433,1.432,1.432,0,0,0,.387.2,6.252,6.252,0,0,0,1.536.139,21.728,21.728,0,0,0,3.228-.2,5.129,5.129,0,0,0-.224.919c-1.012.047-1.792.062-3.089.062a5.765,5.765,0,0,1-1.737-.193,1.877,1.877,0,0,1-.895-.656,1.308,1.308,0,0,1-.124.115,6.294,6.294,0,0,1-.857.749l-.417-.849a4.434,4.434,0,0,0,1.02-.741V9.851h-.395a2.564,2.564,0,0,0-.494.038ZM65.14,6.2a9.047,9.047,0,0,1,1.336,1.4l-.641.625a7.454,7.454,0,0,0-1.313-1.444Zm3.1,1.568a4.5,4.5,0,0,0-.641-.4l.594-.347h-.733a5.548,5.548,0,0,0-.8.039V6.268a6.86,6.86,0,0,0,.919.046h2.5a3.878,3.878,0,0,0,.873-.054l.394.479a2.914,2.914,0,0,0-.386.293,10.476,10.476,0,0,1-1,.734h.617a4.9,4.9,0,0,0,.788-.039,8.421,8.421,0,0,0-.031.9V11c0,.44-.031.594-.139.71-.139.131-.332.178-.811.178-.07,0-.2,0-.347-.008a1.883,1.883,0,0,0-.178-.734,3.566,3.566,0,0,0,.51.047c.17,0,.178-.015.178-.216v-.3H69.4V11a4.921,4.921,0,0,0,.045.857h-.857A5.908,5.908,0,0,0,68.63,11v-.324H67.588v.393a4.172,4.172,0,0,0,.046.842h-.872a6.015,6.015,0,0,0,.038-.842V8.63c0-.447-.008-.64-.031-.9a6.412,6.412,0,0,0,.865.039Zm-.656.656v.5H68.63v-.5Zm0,1.637H68.63V9.542H67.588Zm.671-3.042c.278.193.347.239.8.579a7.364,7.364,0,0,0,.772-.579ZM69.4,8.924h1.158v-.5H69.4Zm1.158.618H69.4v.517h1.158Z"/><path class="cls-4" d="M73.561,7.858a4.757,4.757,0,0,1-.672,1.051,2.738,2.738,0,0,0-.664-.587,3.966,3.966,0,0,0,.988-1.807,1.892,1.892,0,0,0,.093-.479l.872.17c-.038.1-.062.17-.131.4-.047.163-.093.294-.162.487h1.166a5.12,5.12,0,0,0,.763-.038V7.9a7.3,7.3,0,0,0-.763-.039h-.286c-.016.819-.016.819-.046,1.213h.463a4.667,4.667,0,0,0,.725-.039v.849a5.1,5.1,0,0,0-.749-.038h-.516c-.016.108-.024.146-.047.262a3.4,3.4,0,0,0,.4.61,4.868,4.868,0,0,0,1,.973,3.144,3.144,0,0,0-.471.842,5.469,5.469,0,0,1-1.2-1.46,4.278,4.278,0,0,1-1.49,1.954,1.82,1.82,0,0,0-.641-.695,3.307,3.307,0,0,0,1.3-1.4,4.131,4.131,0,0,0,.316-1.089h-.594a4.814,4.814,0,0,0-.842.046V9.024a4.726,4.726,0,0,0,.865.047H73.9c.015-.24.031-.649.038-1.213Zm3.35,5.127h-.856c.022-.247.046-.579.046-.888V7.55a6.791,6.791,0,0,0-.046-.819,4.512,4.512,0,0,0,.71.039h1.621a4.825,4.825,0,0,0,.718-.039,6.155,6.155,0,0,0-.039.819v4.47a9.5,9.5,0,0,0,.046.973h-.872V12.46H76.911Zm.016-1.3h1.312V7.542H76.927Z"/><path class="cls-4" d="M86.521,8.036a1.191,1.191,0,0,0-.085.517c-.023.873-.108,2.062-.186,2.572-.2,1.335-.471,1.652-1.4,1.652a5.972,5.972,0,0,1-.957-.085,2.341,2.341,0,0,0-.178-.988,4.022,4.022,0,0,0,1.019.177c.332,0,.448-.17.572-.841a17.433,17.433,0,0,0,.17-2.471l-1.8.008a5.675,5.675,0,0,1-.618,2.208,5.666,5.666,0,0,1-2.084,2.138,3.067,3.067,0,0,0-.7-.818,4.352,4.352,0,0,0,2.008-1.946,3.981,3.981,0,0,0,.394-1.343c.015-.108.03-.186.038-.239l-1.282.007a5.466,5.466,0,0,0-.834.039l-.007-.95a4.364,4.364,0,0,0,.857.062l1.351-.008c.023-.293.039-.741.039-.965V6.569a1.448,1.448,0,0,0-.024-.3l1.035.023c-.015.1-.023.131-.031.239,0,.047-.008.093-.008.147-.015.162-.015.162-.031.564-.008.17-.008.239-.03.486l1.714-.007a1.553,1.553,0,0,0,.61-.07Z"/><path class="cls-4" d="M87.977,9.1a7.615,7.615,0,0,0,1.251.054h4.115A7.63,7.63,0,0,0,94.594,9.1v1.073a8.4,8.4,0,0,0-1.259-.039h-4.1a8.39,8.39,0,0,0-1.258.039Z"/><path class="cls-4" d="M97.069,12.947a5.279,5.279,0,0,0,.046-.865V7.133a4.962,4.962,0,0,0-.046-.788h1.058a5.162,5.162,0,0,0-.031.811V8.592a22.681,22.681,0,0,1,3.506,1.629l-.541.911a18.311,18.311,0,0,0-2.734-1.475,2.505,2.505,0,0,1-.262-.131,4.02,4.02,0,0,1,.031.525v2.038a8.549,8.549,0,0,0,.031.858Zm3.25-6.108a4.182,4.182,0,0,1,.742,1.043l-.58.324a5.047,5.047,0,0,0-.741-1.058Zm1,.888A5.057,5.057,0,0,0,100.59,6.7l.556-.3a4.423,4.423,0,0,1,.741,1Z"/></g></g></svg>